<?xml version="1.0" encoding="utf-8"?>
<!-- Generator: Adobe Illustrator 16.0.0, SVG Export Plug-In . SVG Version: 6.00 Build 0)  -->
<!DOCTYPE svg PUBLIC "-//W3C//DTD SVG 1.1//EN" "http://www.w3.org/Graphics/SVG/1.1/DTD/svg11.dtd">
<svg version="1.1" id="Layer_1" xmlns:sketch="http://www.bohemiancoding.com/sketch/ns"
	 xmlns="http://www.w3.org/2000/svg" xmlns:xlink="http://www.w3.org/1999/xlink" x="0px" y="0px" width="16px" height="16px"
	 viewBox="0 0 16 16" enable-background="new 0 0 16 16" xml:space="preserve">
<title></title>
<g id="Icons_with_numbers">
	<g id="Group" transform="translate(-480.000000, -192.000000)">
		<path id="Rectangle_233" fill="#FFFFFF" d="M484.999,197.8v7.798l0,0c0.007,0.713-0.467,1.519-1.45,2.023
			c-1.364,0.701-2.799,0.359-3.325-0.451c-0.525-0.811-0.141-2.089,1.224-2.791c0.917-0.472,1.867-0.471,2.55-0.174V198v-4l10-2v1v3
			v8.602l0,0c0.006,0.711-0.47,1.515-1.449,2.021c-1.364,0.701-2.8,0.358-3.325-0.451c-0.523-0.812-0.141-2.089,1.225-2.791
			c0.918-0.472,1.867-0.471,2.551-0.174V196.2L484.999,197.8z"/>
	</g>
</g>
</svg>
