<?xml version="1.0" encoding="utf-8"?>
<!-- Generator: Adobe Illustrator 16.0.0, SVG Export Plug-In . SVG Version: 6.00 Build 0)  -->
<!DOCTYPE svg PUBLIC "-//W3C//DTD SVG 1.1//EN" "http://www.w3.org/Graphics/SVG/1.1/DTD/svg11.dtd">
<svg version="1.1"
	 id="svg3440" xmlns:cc="http://creativecommons.org/ns#" xmlns:dc="http://purl.org/dc/elements/1.1/" xmlns:rdf="http://www.w3.org/1999/02/22-rdf-syntax-ns#" xmlns:inkscape="http://www.inkscape.org/namespaces/inkscape" xmlns:svg="http://www.w3.org/2000/svg" xmlns:sodipodi="http://sodipodi.sourceforge.net/DTD/sodipodi-0.dtd"
	 xmlns="http://www.w3.org/2000/svg" xmlns:xlink="http://www.w3.org/1999/xlink" x="0px" y="0px" width="42px" height="42px"
	 viewBox="3 3 42 42" enable-background="new 3 3 42 42" xml:space="preserve">
<g id="layer1">
	
		<radialGradient id="path3214_1_" cx="213.7109" cy="-253.2578" r="29.9943" gradientTransform="matrix(1 0 0 -1 -196.0005 -236.9985)" gradientUnits="userSpaceOnUse">
		<stop  offset="0" style="stop-color:#D3E9FF"/>
		<stop  offset="0.1552" style="stop-color:#D3E9FF"/>
		<stop  offset="0.75" style="stop-color:#4074AE"/>
		<stop  offset="1" style="stop-color:#36486C"/>
	</radialGradient>
	<path id="path3214" fill="url(#path3214_1_)" stroke="#39396C" d="M43.421,24.032c0,10.709-8.683,19.391-19.391,19.391
		c-10.709,0-19.391-8.682-19.391-19.391c0-10.709,8.682-19.391,19.391-19.391C34.738,4.642,43.421,13.323,43.421,24.032
		L43.421,24.032z"/>
	<g id="g4136" transform="matrix(0.982371,0.000000,0.000000,0.982371,0.121079,0.232914)">
		<g id="g4138">
			<g id="g4142">
				<path id="path4144" fill-opacity="0.7135" d="M43.523,21.27C43.523,21.533,43.523,21.27,43.523,21.27l-0.545,0.617
					c-0.334-0.394-0.71-0.725-1.091-1.07l-0.836,0.123l-0.763-0.863v1.069l0.654,0.495l0.435,0.493l0.583-0.658
					c0.146,0.274,0.29,0.549,0.435,0.823v0.822l-0.654,0.741l-1.2,0.823l-0.908,0.906l-0.583-0.66l0.291-0.74l-0.582-0.658
					l-0.981-2.098l-0.836-0.945l-0.219,0.246l0.328,1.193l0.617,0.699c0.353,1.018,0.701,1.99,1.164,2.962
					c0.718,0,1.395-0.076,2.107-0.165v0.577l-0.873,2.137l-0.799,0.905l-0.654,1.402c0,0.767,0,1.535,0,2.302l0.219,0.907
					l-0.364,0.41l-0.8,0.495l-0.836,0.698l0.692,0.781l-0.946,0.825l0.183,0.533l-1.419,1.604H34.4l-0.8,0.495h-0.509v-0.658
					l-0.217-1.318c-0.282-0.827-0.575-1.646-0.873-2.467c0-0.604,0.036-1.205,0.073-1.811l0.365-0.821l-0.511-0.988l0.038-1.358
					l-0.692-0.781l0.346-1.131l-0.563-0.638h-0.982l-0.327-0.37l-0.981,0.618l-0.4-0.453l-0.909,0.781
					c-0.618-0.7-1.237-1.4-1.854-2.098l-0.727-1.73l0.654-0.986l-0.363-0.411l0.798-1.893c0.656-0.817,1.342-1.599,2.036-2.386
					l1.237-0.329l1.38-0.164l0.946,0.247l1.344,1.356l0.473-0.534l0.652-0.082l1.237,0.411h0.946l0.654-0.576l0.29-0.411
					l-0.655-0.411l-1.091-0.082c-0.303-0.42-0.585-0.861-0.944-1.235l-0.364,0.164l-0.145,1.071l-0.654-0.74l-0.145-0.825
					l-0.726-0.574h-0.292l0.728,0.823l-0.291,0.74l-0.582,0.164l0.364-0.74l-0.656-0.328l-0.58-0.659l-1.093,0.246l-0.144,0.329
					l-0.654,0.412l-0.363,0.905l-0.909,0.452l-0.401-0.452h-0.435v-1.481l0.945-0.495h0.727l-0.146-0.575l-0.581-0.576l0.98-0.206
					l0.545-0.616l0.435-0.742h0.801l-0.219-0.575l0.51-0.329v0.658l1.09,0.246l1.091-0.904l0.073-0.412l0.944-0.658
					c-0.342,0.042-0.683,0.074-1.017,0.165v-0.741l0.363-0.823H33.31l-0.799,0.74l-0.219,0.412l0.219,0.577l-0.364,0.986
					l-0.582-0.329l-0.508-0.575l-0.8,0.575l-0.291-1.316l1.381-0.905V9.381l0.874-0.576l1.38-0.33l0.946,0.33l1.744,0.329
					l-0.435,0.494h-0.945l0.945,0.987l0.726-0.822l0.222-0.362c0,0,2.786,2.498,4.379,5.23
					C42.775,17.395,43.523,20.616,43.523,21.27z"/>
			</g>
		</g>
		<g id="g4146">
			<g id="g4150">
				<path id="path4152" fill-opacity="0.7135" d="M25.522,9.793l-0.074,0.493l0.509,0.329l0.872-0.576l-0.436-0.494l-0.581,0.33
					L25.522,9.793"/>
			</g>
		</g>
		<g id="g4154">
			<g id="g4158">
				<path id="path4160" fill-opacity="0.7135" d="M26.321,6.419L24.43,5.679l-2.18,0.247l-2.69,0.74L19.051,7.16l1.672,1.151v0.658
					l-0.654,0.659l0.873,1.729l0.58-0.33l0.729-1.152c1.123-0.347,2.13-0.741,3.198-1.234L26.321,6.419"/>
			</g>
		</g>
		<g id="g4162">
			<g id="g4166">
				<path id="path4168" fill-opacity="0.7135" d="M28.284,13.331l-0.29-0.741l-0.51,0.165l0.146,0.904L28.284,13.331"/>
			</g>
		</g>
		<g id="g4170">
			<g id="g4174">
				<path id="path4176" fill-opacity="0.7135" d="M28.574,13.165l-0.145,0.988l0.799-0.165l0.582-0.575l-0.509-0.494
					c-0.171-0.455-0.367-0.88-0.582-1.317h-0.435v0.494l0.29,0.329V13.165"/>
			</g>
		</g>
		<g id="g4178">
			<g id="g4182">
				<path id="path4184" fill-opacity="0.7135" d="M17.816,28.797l-0.582-1.151L16.143,27.4l-0.582-1.563l-1.453,0.165l-1.236-0.905
					l-1.309,1.151v0.181c-0.396-0.113-0.883-0.129-1.236-0.346l-0.29-0.823v-0.905l-0.873,0.082
					c0.074-0.577,0.145-1.151,0.219-1.727H8.875l-0.509,0.658l-0.509,0.247l-0.727-0.41l-0.074-0.905l0.146-0.988l1.091-0.822h0.872
					l0.145-0.494l1.091,0.246L11.2,21.23l0.146-1.647l1.381-1.152l0.509-1.234l1.018-0.411l0.582-0.822l1.308-0.248l0.654-0.987
					c-0.654,0-1.308,0-1.962,0l1.236-0.576h0.872l1.236-0.412l0.146-0.492l-0.436-0.413l-0.509-0.165l0.145-0.493l-0.363-0.74
					l-0.873,0.328l0.145-0.658l-1.017-0.576l-0.799,1.398l0.072,0.494l-0.799,0.33l-0.509,1.07l-0.218-0.988l-1.382-0.576
					l-0.218-0.74l1.817-1.071l0.799-0.74l0.074-0.905l-0.436-0.247l-0.582-0.083l-0.363,0.905c0,0-0.608,0.119-0.764,0.158
					c-1.996,1.84-6.029,5.81-6.967,13.306c0.038,0.174,0.679,1.181,0.679,1.181l1.527,0.905l1.526,0.412l0.655,0.823l1.017,0.742
					l0.582-0.084l0.436,0.197v0.133l-0.582,1.563l-0.436,0.658l0.146,0.33l-0.364,1.233l1.308,2.388l1.308,1.151l0.583,0.823
					l-0.074,1.728l0.436,0.986l-0.436,1.893c0,0-0.034-0.012,0.022,0.177c0.056,0.191,2.329,1.451,2.473,1.344
					c0.144-0.109,0.267-0.205,0.267-0.205l-0.145-0.41l0.581-0.577l0.219-0.577l0.945-0.33l0.727-1.809l-0.218-0.493l0.508-0.74
					l1.091-0.249l0.582-1.316l-0.145-1.644l0.872-1.235l0.146-1.235C20.183,30.016,19.001,29.408,17.816,28.797"/>
			</g>
		</g>
		<g id="g4186">
			<g id="g4190">
				<path id="path4192" fill-opacity="0.7135" d="M16.216,10.121l0.727,0.494h0.582v-0.576L16.799,9.71L16.216,10.121"/>
			</g>
		</g>
		<g id="g4194">
			<g id="g4198">
				<path id="path4200" fill-opacity="0.7135" d="M14.326,9.463l-0.364,0.905h0.728l0.364-0.823
					c0.313-0.222,0.625-0.445,0.944-0.658l0.727,0.247c0.485,0.329,0.969,0.659,1.454,0.987l0.728-0.658l-0.8-0.329l-0.364-0.741
					l-1.382-0.165l-0.073-0.412l-0.654,0.165l-0.29,0.576L14.98,7.817l-0.145,0.329l0.073,0.823L14.326,9.463"/>
			</g>
		</g>
		<g id="g4222">
			<g id="g4226">
				<path id="path4228" fill-opacity="0.7135" d="M16.943,7.406l0.364-0.329l0.727-0.165c0.498-0.242,0.998-0.405,1.527-0.576
					l-0.29-0.494l-0.938,0.135l-0.443,0.442l-0.731,0.106l-0.65,0.305l-0.316,0.153l-0.193,0.258L16.943,7.406"/>
			</g>
		</g>
		<g id="g4230">
			<g id="g4234">
				<path id="path4236" fill-opacity="0.7135" d="M18.179,15.222l0.436-0.658l-0.655-0.493L18.179,15.222"/>
			</g>
		</g>
	</g>
	<g id="g3216" transform="matrix(0.982371,0.000000,0.000000,0.982371,-8.095179e-2,3.088300e-2)">
		<g id="g3218">
			<g id="g3222">
				
					<radialGradient id="path3224_1_" cx="212.8111" cy="-280.632" r="40.6924" fx="213.1116" fy="-280.308" gradientTransform="matrix(1.0185 0 0 -0.9475 -197.9874 -248.4733)" gradientUnits="userSpaceOnUse">
					<stop  offset="0" style="stop-color:#FFFFFF"/>
					<stop  offset="0.3793" style="stop-color:#FEFEFE"/>
					<stop  offset="1" style="stop-color:#1D1D1D"/>
				</radialGradient>
				<path id="path3224" fill="url(#path3224_1_)" d="M43.522,21.27C43.522,21.533,43.522,21.27,43.522,21.27l-0.545,0.617
					c-0.334-0.394-0.709-0.725-1.09-1.07l-0.836,0.123l-0.763-0.863v1.069l0.654,0.495l0.436,0.493l0.582-0.658
					c0.146,0.274,0.291,0.549,0.436,0.823v0.823l-0.656,0.74l-1.199,0.823l-0.909,0.907l-0.582-0.66l0.291-0.741l-0.581-0.658
					l-0.982-2.098l-0.835-0.945l-0.22,0.246l0.329,1.193l0.616,0.699c0.352,1.018,0.702,1.991,1.164,2.963
					c0.718,0,1.395-0.078,2.107-0.167v0.577l-0.872,2.139l-0.8,0.905l-0.654,1.4c0,0.767,0,1.535,0,2.302l0.219,0.907l-0.363,0.412
					l-0.801,0.493l-0.835,0.7l0.691,0.781l-0.945,0.823l0.181,0.535l-1.418,1.604H34.4l-0.799,0.495h-0.51v-0.66l-0.218-1.318
					c-0.28-0.825-0.574-1.646-0.871-2.465c0-0.606,0.036-1.205,0.072-1.811l0.364-0.823l-0.509-0.988l0.037-1.356l-0.691-0.781
					l0.346-1.131l-0.563-0.638h-0.983l-0.327-0.37l-0.981,0.616l-0.4-0.453l-0.91,0.781c-0.616-0.7-1.235-1.398-1.853-2.098
					l-0.727-1.728l0.656-0.987l-0.364-0.411l0.799-1.894c0.656-0.817,1.341-1.599,2.034-2.386l1.237-0.329l1.382-0.164l0.944,0.247
					l1.345,1.356l0.472-0.534l0.654-0.082l1.237,0.411h0.944l0.654-0.576l0.292-0.411l-0.656-0.411l-1.091-0.082
					c-0.303-0.42-0.584-0.861-0.943-1.235l-0.364,0.165l-0.146,1.07l-0.654-0.74l-0.144-0.824l-0.728-0.575h-0.291l0.727,0.823
					l-0.29,0.74l-0.581,0.164l0.363-0.74L31.71,16.54l-0.581-0.658l-1.092,0.246l-0.145,0.328l-0.654,0.412l-0.364,0.905
					l-0.908,0.452l-0.401-0.452h-0.435v-1.481l0.945-0.494h0.727l-0.147-0.575l-0.58-0.577l0.981-0.206l0.545-0.616l0.435-0.741
					h0.801l-0.22-0.576l0.51-0.329v0.659l1.09,0.246l1.09-0.905l0.074-0.412l0.944-0.658c-0.342,0.042-0.684,0.074-1.018,0.165
					v-0.741l0.364-0.823h-0.364l-0.797,0.74l-0.22,0.412l0.22,0.577l-0.365,0.987l-0.582-0.329l-0.507-0.576l-0.801,0.576
					l-0.291-1.316l1.381-0.905V9.381l0.873-0.576l1.382-0.33l0.944,0.33l1.745,0.33l-0.435,0.493h-0.945l0.945,0.987l0.727-0.822
					l0.221-0.362c0,0,2.787,2.498,4.38,5.23C42.774,17.394,43.522,20.616,43.522,21.27z"/>
			</g>
		</g>
		<g id="g3226">
			<g id="g3230">
				
					<radialGradient id="path3232_1_" cx="212.8121" cy="-280.6394" r="40.7093" fx="213.1127" fy="-280.3153" gradientTransform="matrix(1.0185 0 0 -0.9475 -197.9874 -248.4733)" gradientUnits="userSpaceOnUse">
					<stop  offset="0" style="stop-color:#FFFFFF"/>
					<stop  offset="0.3793" style="stop-color:#FEFEFE"/>
					<stop  offset="1" style="stop-color:#1D1D1D"/>
				</radialGradient>
				<path id="path3232" fill="url(#path3232_1_)" d="M25.521,9.793l-0.073,0.493l0.51,0.329l0.871-0.576l-0.435-0.494l-0.583,0.33
					L25.521,9.793"/>
			</g>
		</g>
		<g id="g3234">
			<g id="g3238">
				
					<radialGradient id="path3240_1_" cx="212.8101" cy="-280.6324" r="40.6948" fx="213.1107" fy="-280.3084" gradientTransform="matrix(1.0185 0 0 -0.9475 -197.9874 -248.4733)" gradientUnits="userSpaceOnUse">
					<stop  offset="0" style="stop-color:#FFFFFF"/>
					<stop  offset="0.3793" style="stop-color:#FEFEFE"/>
					<stop  offset="1" style="stop-color:#1D1D1D"/>
				</radialGradient>
				<path id="path3240" fill="url(#path3240_1_)" d="M26.321,6.42L24.43,5.679l-2.18,0.247l-2.69,0.74L19.051,7.16l1.672,1.151V8.97
					l-0.654,0.658l0.873,1.729l0.58-0.33l0.729-1.151c1.123-0.347,2.13-0.741,3.198-1.235L26.321,6.42"/>
			</g>
		</g>
		<g id="g3242">
			<g id="g3246">
				
					<radialGradient id="path3248_1_" cx="212.8111" cy="-280.629" r="40.6861" fx="213.1116" fy="-280.305" gradientTransform="matrix(1.0185 0 0 -0.9475 -197.9874 -248.4733)" gradientUnits="userSpaceOnUse">
					<stop  offset="0" style="stop-color:#FFFFFF"/>
					<stop  offset="0.3793" style="stop-color:#FEFEFE"/>
					<stop  offset="1" style="stop-color:#1D1D1D"/>
				</radialGradient>
				<path id="path3248" fill="url(#path3248_1_)" d="M28.285,13.331l-0.291-0.741l-0.51,0.165l0.147,0.904L28.285,13.331"/>
			</g>
		</g>
		<g id="g3250">
			<g id="g3254">
				
					<radialGradient id="path3256_1_" cx="212.8091" cy="-280.631" r="40.6971" fx="213.1097" fy="-280.3069" gradientTransform="matrix(1.0185 0 0 -0.9475 -197.9874 -248.4733)" gradientUnits="userSpaceOnUse">
					<stop  offset="0" style="stop-color:#FFFFFF"/>
					<stop  offset="0.3793" style="stop-color:#FEFEFE"/>
					<stop  offset="1" style="stop-color:#1D1D1D"/>
				</radialGradient>
				<path id="path3256" fill="url(#path3256_1_)" d="M28.575,13.165l-0.146,0.988l0.8-0.165l0.581-0.575l-0.509-0.494
					c-0.171-0.455-0.367-0.88-0.581-1.316h-0.435v0.493l0.29,0.329V13.165"/>
			</g>
		</g>
		<g id="g3258">
			<g id="g3262">
				
					<radialGradient id="path3264_1_" cx="212.8121" cy="-280.6324" r="40.6921" fx="213.1126" fy="-280.3084" gradientTransform="matrix(1.0185 0 0 -0.9475 -197.9874 -248.4733)" gradientUnits="userSpaceOnUse">
					<stop  offset="0" style="stop-color:#FFFFFF"/>
					<stop  offset="0.3793" style="stop-color:#FEFEFE"/>
					<stop  offset="1" style="stop-color:#1D1D1D"/>
				</radialGradient>
				<path id="path3264" fill="url(#path3264_1_)" d="M17.815,28.798l-0.582-1.153l-1.091-0.247l-0.582-1.561l-1.453,0.163
					l-1.236-0.905l-1.309,1.151v0.183c-0.396-0.115-0.883-0.131-1.236-0.348l-0.29-0.821v-0.906l-0.873,0.083
					c0.074-0.577,0.145-1.152,0.219-1.728H8.875l-0.509,0.659l-0.509,0.247L7.13,23.204l-0.074-0.905l0.146-0.987l1.091-0.823h0.872
					l0.145-0.494l1.091,0.246l0.8,0.989l0.145-1.647l1.381-1.151l0.509-1.235l1.018-0.411l0.582-0.822l1.308-0.248l0.654-0.987
					c-0.654,0-1.308,0-1.962,0l1.236-0.576h0.872l1.236-0.412l0.146-0.492l-0.436-0.412l-0.509-0.165l0.145-0.494l-0.363-0.74
					l-0.873,0.328l0.145-0.658l-1.017-0.576l-0.799,1.398l0.072,0.494l-0.799,0.331l-0.509,1.069l-0.218-0.987l-1.382-0.577
					l-0.218-0.74l1.817-1.07l0.8-0.74l0.073-0.905l-0.436-0.247l-0.582-0.083l-0.363,0.905c0,0-0.608,0.119-0.764,0.158
					c-1.996,1.839-6.029,5.81-6.967,13.306c0.038,0.174,0.68,1.182,0.68,1.182l1.526,0.905l1.527,0.412l0.654,0.823l1.017,0.74
					l0.582-0.082l0.436,0.197v0.133l-0.582,1.563l-0.436,0.658l0.146,0.33l-0.364,1.233l1.309,2.386l1.307,1.153l0.583,0.821
					l-0.074,1.73l0.436,0.986l-0.436,1.893c0,0-0.034-0.012,0.022,0.177c0.056,0.189,2.329,1.451,2.473,1.344
					c0.144-0.109,0.267-0.205,0.267-0.205l-0.145-0.412l0.582-0.575l0.218-0.577l0.945-0.33l0.727-1.811l-0.218-0.491l0.508-0.742
					l1.091-0.247l0.582-1.318l-0.145-1.644l0.872-1.235l0.146-1.233C20.183,30.017,19,29.406,17.815,28.798"/>
			</g>
		</g>
		<g id="g3266">
			<g id="g3270">
				
					<radialGradient id="path3272_1_" cx="212.8121" cy="-280.6409" r="40.7347" fx="213.1129" fy="-280.3166" gradientTransform="matrix(1.0185 0 0 -0.9475 -197.9874 -248.4733)" gradientUnits="userSpaceOnUse">
					<stop  offset="0" style="stop-color:#FFFFFF"/>
					<stop  offset="0.3793" style="stop-color:#FEFEFE"/>
					<stop  offset="1" style="stop-color:#1D1D1D"/>
				</radialGradient>
				<path id="path3272" fill="url(#path3272_1_)" d="M16.216,10.121l0.727,0.494h0.583v-0.576L16.798,9.71L16.216,10.121"/>
			</g>
		</g>
		<g id="g3274">
			<g id="g3278">
				
					<radialGradient id="path3280_1_" cx="212.8111" cy="-280.629" r="40.6747" fx="213.1115" fy="-280.3051" gradientTransform="matrix(1.0185 0 0 -0.9475 -197.9874 -248.4733)" gradientUnits="userSpaceOnUse">
					<stop  offset="0" style="stop-color:#FFFFFF"/>
					<stop  offset="0.3793" style="stop-color:#FEFEFE"/>
					<stop  offset="1" style="stop-color:#1D1D1D"/>
				</radialGradient>
				<path id="path3280" fill="url(#path3280_1_)" d="M14.326,9.464l-0.364,0.905h0.728l0.364-0.823
					c0.313-0.222,0.625-0.445,0.944-0.659l0.728,0.248c0.484,0.329,0.968,0.658,1.453,0.987l0.728-0.658l-0.8-0.329l-0.364-0.741
					l-1.381-0.165l-0.074-0.412l-0.654,0.165l-0.29,0.576L14.98,7.817l-0.145,0.329l0.073,0.823L14.326,9.464"/>
			</g>
		</g>
		<g id="g3302">
			<g id="g3306">
				
					<radialGradient id="path3308_1_" cx="212.8111" cy="-280.6404" r="40.7191" fx="213.1118" fy="-280.3162" gradientTransform="matrix(1.0185 0 0 -0.9475 -197.9874 -248.4733)" gradientUnits="userSpaceOnUse">
					<stop  offset="0" style="stop-color:#FFFFFF"/>
					<stop  offset="0.3793" style="stop-color:#FEFEFE"/>
					<stop  offset="1" style="stop-color:#1D1D1D"/>
				</radialGradient>
				<path id="path3308" fill="url(#path3308_1_)" d="M16.943,7.406l0.364-0.329l0.727-0.165c0.498-0.243,0.998-0.406,1.527-0.577
					l-0.29-0.494l-0.938,0.135l-0.443,0.442l-0.731,0.106l-0.65,0.305l-0.316,0.153l-0.193,0.258L16.943,7.406"/>
			</g>
		</g>
		<g id="g3310">
			<g id="g3314">
				
					<radialGradient id="path3316_1_" cx="212.8111" cy="-280.6329" r="40.6984" fx="213.1117" fy="-280.3089" gradientTransform="matrix(1.0185 0 0 -0.9475 -197.9874 -248.4733)" gradientUnits="userSpaceOnUse">
					<stop  offset="0" style="stop-color:#FFFFFF"/>
					<stop  offset="0.3793" style="stop-color:#FEFEFE"/>
					<stop  offset="1" style="stop-color:#1D1D1D"/>
				</radialGradient>
				<path id="path3316" fill="url(#path3316_1_)" d="M18.179,15.223l0.436-0.659l-0.655-0.493L18.179,15.223"/>
			</g>
		</g>
	</g>
</g>
</svg>
