<?xml version="1.0" encoding="utf-8"?>
<!-- Generator: Adobe Illustrator 16.0.0, SVG Export Plug-In . SVG Version: 6.00 Build 0)  -->
<!DOCTYPE svg PUBLIC "-//W3C//DTD SVG 1.1//EN" "http://www.w3.org/Graphics/SVG/1.1/DTD/svg11.dtd">
<svg version="1.1" id="Layer_1" xmlns="http://www.w3.org/2000/svg" xmlns:xlink="http://www.w3.org/1999/xlink" x="0px" y="0px"
	 width="128px" height="128px" viewBox="0 0 128 128" enable-background="new 0 0 128 128" xml:space="preserve">
<linearGradient id="SVGID_1_" gradientUnits="userSpaceOnUse" x1="63.9995" y1="9" x2="63.9995" y2="119.0005">
	<stop  offset="0" style="stop-color:#555"/>
	<stop  offset="1" style="stop-color:#333"/>
</linearGradient>
<linearGradient id="SVGID_2_" gradientUnits="userSpaceOnUse" x1="63.9995" y1="5.5" x2="63.9995" y2="122.5005">
	<stop  offset="0" style="stop-color:#CCC"/>
	<stop  offset="1" style="stop-color:#999"/>
</linearGradient>
<path fill="url(#SVGID_1_)" stroke="url(#SVGID_2_)" stroke-width="7" stroke-miterlimit="10" d="M119,113c0,3.3-2.7,6-6,6H15
	c-3.3,0-6-2.7-6-6V15c0-3.3,2.7-6,6-6h98c3.3,0,6,2.7,6,6V113z"/>
<g enable-background="new    ">
	<path fill="#CC7832" stroke="#CC7832" stroke-width="2" stroke-miterlimit="10" d="M54.2,81c1.6,0,3,0.8,3,3c0,2.2-1.4,3-3,3h-8.2
		c-2.2,0-3.8-0.4-5.3-2.2c-1.3-1.5-1.3-2.6-1.3-4.5v-9.5c0-3.1-0.8-4.1-4-4.1h-4.9c-1.6,0-3-0.8-3-3s1.4-3,3-3h4.9c3.2,0,4-1,4-4.1
		V47c0-1.9,0.1-3,1.3-4.5c1.5-1.8,3.1-2.2,5.3-2.2h8.2c1.6,0,3,0.8,3,3c0,2.2-1.4,3-3,3h-8.8V57c0,2.6-0.5,4.7-2.4,6.6
		c1.8,2,2.4,4.1,2.4,6.7V81H54.2z"/>
	<path fill="#CC7832" stroke="#CC7832" stroke-width="2" stroke-miterlimit="10" d="M82.6,81V70.3c0-2.5,0.6-4.7,2.4-6.7
		c-1.9-1.9-2.4-4-2.4-6.6V46.3h-8.8c-1.6,0-3-0.8-3-3c0-2.2,1.4-3,3-3h8.2c2.2,0,3.8,0.4,5.3,2.2c1.3,1.5,1.3,2.6,1.3,4.5v9.5
		c0,3.1,0.8,4.1,4,4.1h4.9c1.6,0,3,0.8,3,3s-1.4,3-3,3h-4.9c-3.2,0-4,1-4,4.1v9.5c0,1.9-0.1,3-1.3,4.5c-1.5,1.8-3.1,2.2-5.3,2.2
		h-8.2c-1.6,0-3-0.8-3-3c0-2.2,1.4-3,3-3H82.6z"/>
</g>
<path fill="none" stroke="#999" stroke-miterlimit="10" d="M115.6,111.6c0,2.2-1.8,4-4,4H16.4c-2.2,0-4-1.8-4-4V16.4
	c0-2.2,1.8-4,4-4h95.2c2.2,0,4,1.8,4,4V111.6z"/>
<linearGradient id="SVGID_3_" gradientUnits="userSpaceOnUse" x1="63.9995" y1="5" x2="63.9995" y2="123.0005">
	<stop  offset="0" style="stop-color:#999"/>
	<stop  offset="1" style="stop-color:#666"/>
</linearGradient>
<path fill="none" stroke="url(#SVGID_3_)" stroke-miterlimit="10" d="M122.5,112.5c0,5.5-4.5,10-10,10h-97c-5.5,0-10-4.5-10-10v-97
	c0-5.5,4.5-10,10-10h97c5.5,0,10,4.5,10,10V112.5z"/>
</svg>
