<?xml version="1.0" encoding="utf-8"?>
<!-- Generator: Adobe Illustrator 16.0.0, SVG Export Plug-In . SVG Version: 6.00 Build 0)  -->
<!DOCTYPE svg PUBLIC "-//W3C//DTD SVG 1.1//EN" "http://www.w3.org/Graphics/SVG/1.1/DTD/svg11.dtd">
<svg version="1.1" id="Layer_1" xmlns="http://www.w3.org/2000/svg" xmlns:xlink="http://www.w3.org/1999/xlink" x="0px" y="0px"
	 width="128px" height="128px" viewBox="0 0 128 128" enable-background="new 0 0 128 128" xml:space="preserve">
<linearGradient id="SVGID_1_" gradientUnits="userSpaceOnUse" x1="63.9995" y1="8" x2="63.9995" y2="120.0005">
	<stop  offset="0" style="stop-color:#4B4B4B"/>
	<stop  offset="1" style="stop-color:#2B2B2B"/>
</linearGradient>
<linearGradient id="SVGID_2_" gradientUnits="userSpaceOnUse" x1="63.9995" y1="5" x2="63.9995" y2="123.0005">
	<stop  offset="0" style="stop-color:#AAAAAA"/>
	<stop  offset="1" style="stop-color:#909090"/>
</linearGradient>
<path fill="url(#SVGID_1_)" stroke="url(#SVGID_2_)" stroke-width="6" stroke-miterlimit="10" d="M120,112.533
	c0,4.123-3.344,7.467-7.467,7.467H15.467C11.343,120,8,116.656,8,112.533V15.467C8,11.343,11.343,8,15.467,8h97.066
	c4.123,0,7.467,3.343,7.467,7.467V112.533z"/>
<text transform="matrix(1 0 0 1 20.0151 87.3721)" fill="#CC7832" stroke="#CC7832" stroke-width="2" stroke-miterlimit="10" font-family="'OCRAStd'" font-size="61.0909">{}</text>
<path fill="none" stroke="#2B2B2B" stroke-miterlimit="10" d="M116.5,112.3c0,2.32-1.88,4.2-4.2,4.2H15.7c-2.319,0-4.2-1.88-4.2-4.2
	V15.7c0-2.319,1.881-4.2,4.2-4.2h96.6c2.32,0,4.2,1.881,4.2,4.2V112.3z"/>
</svg>
