<?xml version="1.0" encoding="utf-8"?>
<!-- Generator: Adobe Illustrator 16.0.0, SVG Export Plug-In . SVG Version: 6.00 Build 0)  -->
<!DOCTYPE svg PUBLIC "-//W3C//DTD SVG 1.1//EN" "http://www.w3.org/Graphics/SVG/1.1/DTD/svg11.dtd">
<svg version="1.1" id="Layer_1" xmlns="http://www.w3.org/2000/svg" xmlns:xlink="http://www.w3.org/1999/xlink" x="0px" y="0px"
	 width="88px" height="88px" viewBox="0 0 88 88" enable-background="new 0 0 88 88" xml:space="preserve">
<g id="Layer_2">
	
		<linearGradient id="SVGID_1_" gradientUnits="userSpaceOnUse" x1="310" y1="-184" x2="310" y2="-260" gradientTransform="matrix(1 0 0 -1 -266 -178)">
		<stop  offset="0" style="stop-color:#FFFFFF"/>
		<stop  offset="1" style="stop-color:#F3F3F3"/>
	</linearGradient>
	<path fill="url(#SVGID_1_)" d="M73.3,6c-0.7,1.5-2.3,2.6-4.2,2.6c-1.9,0-3.5-1.1-4.2-2.6h-1.6c-0.7,1.5-2.3,2.6-4.2,2.6
		c-1.9,0-3.5-1.1-4.2-2.6h-1.7c-0.7,1.5-2.3,2.6-4.2,2.6c-1.9,0-3.5-1.1-4.2-2.6H43c-0.7,1.5-2.3,2.6-4.2,2.6
		c-1.9,0-3.5-1.1-4.2-2.6h-1.5c-0.7,1.5-2.3,2.6-4.2,2.6c-1.9,0-3.5-1.1-4.2-2.6h-1.7c-0.7,1.5-2.3,2.6-4.2,2.6
		c-1.9,0-3.5-1.1-4.2-2.6h-2.5L4,13.8v2.4c1.6,0.7,2.7,2.2,2.7,4s-1.1,3.3-2.7,4l0,1.6c1.6,0.7,2.7,2.2,2.7,4c0,1.8-1.1,3.3-2.7,4
		v1.6c1.6,0.7,2.7,2.2,2.7,4c0,1.8-1.1,3.3-2.7,4v1.6c1.6,0.7,2.7,2.2,2.7,4c0,1.8-1.1,3.3-2.7,4v1.4c1.6,0.7,2.7,2.2,2.7,4
		c0,1.8-1.1,3.3-2.7,4v1.6c1.6,0.7,2.7,2.2,2.7,4c0,1.8-1.1,3.3-2.7,4v2.4l8.2,7.8h2.5c0.7-1.5,2.3-2.6,4.2-2.6
		c1.9,0,3.5,1.1,4.2,2.6h1.6c0.7-1.5,2.3-2.6,4.2-2.6c1.9,0,3.5,1.1,4.2,2.6h1.7c0.7-1.5,2.3-2.6,4.2-2.6s3.5,1.1,4.2,2.6H45
		c0.7-1.5,2.3-2.6,4.2-2.6c1.9,0,3.5,1.1,4.2,2.6h1.5c0.7-1.5,2.3-2.6,4.2-2.6c1.9,0,3.5,1.1,4.2,2.6h1.7c0.7-1.5,2.3-2.6,4.2-2.6
		c1.9,0,3.5,1.1,4.2,2.6h2.5l8.2-7.8v-2.4c-1.6-0.7-2.7-2.2-2.7-4c0-1.8,1.1-3.3,2.7-4v-1.6c-1.6-0.7-2.7-2.2-2.7-4
		c0-1.8,1.1-3.3,2.7-4v-1.6c-1.6-0.7-2.7-2.2-2.7-4c0-1.8,1.1-3.3,2.7-4v-1.6c-1.6-0.7-2.7-2.2-2.7-4c0-1.8,1.1-3.3,2.7-4v-1.4
		c-1.6-0.7-2.7-2.2-2.7-4c0-1.8,1.1-3.3,2.7-4v-1.6c-1.6-0.7-2.7-2.2-2.7-4c0-1.8,1.1-3.3,2.7-4v-2.3L75.8,6L73.3,6L73.3,6L73.3,6z
		 M72.4,71.1h-14h-4.7h-2.4h-1.2H37.1h-1.1h-2.4H29H15.5V15.4h56.9V71.1z"/>
	
		<linearGradient id="SVGID_2_" gradientUnits="userSpaceOnUse" x1="309.998" y1="-194.1611" x2="309.998" y2="-249.8418" gradientTransform="matrix(1 0 0 -1 -266 -178)">
		<stop  offset="0" style="stop-color:#F0BFFF"/>
		<stop  offset="1" style="stop-color:#BFD1FF"/>
	</linearGradient>
	<rect x="15.5" y="16.2" fill="url(#SVGID_2_)" stroke="#333333" stroke-miterlimit="10" width="56.9" height="55.7"/>
</g>
<g id="Layer_1_1_">
	<path id="path9500" d="M59.1,26.9c0,0-0.6-0.1-1.3,0l-1.2,0.2c0,0-0.7,0.2-1.3,0.5c0,0-0.6,0.2-1.3,0.6l-1.2,0.7c0,0-1-1.5-2.4-2.1
		l0,0l0,0c0,0-0.9-0.3-1.8-0.1c0,0-1,0.2-1.8,0.9l0,0c0,0-0.8,0.7-1.4,1.7c0,0-0.7,0-1.4,0h-0.6c0,0-0.5,0-1.4,0l-1.4,0
		c0,0-1.6,0.1-3.3,0.5c0,0-0.5,0-0.8-0.1c0,0-1.5-0.8-3.7-1.5L31.5,28c0,0-0.7-0.2-1.2-0.2c0,0-1.4-0.1-2.3,0.6c0,0-1,1.2-1.5,2.8
		c0,0-0.3,1-0.4,2.5c0,0,0,0.9,0.2,2c0,0,0.1,0.6,0.5,1.9c0,0,0.1,0.2,0,0.4c0,0-1.9,3.3-2,6.7c0,0,0,0,0,0.6c0,0,0,0.3-0.2,0.5
		l-1,0.1l-1.3,0.1c0,0-0.8,0.1-1.2,0.3c0,0-0.4,0.2-0.4,0.6c0,0,0,0.2,0.2,0.3c0,0,0.4,0.1,0.9,0l0.9-0.1l1.3-0.1l0.5,0
		c0,0,0.3,0,0.4,0.2c0,0,0.1,0.4,0.3,1.3c0,0,0.2,0.8,0.3,1.2c0,0,0.1,0.2,0,0.3c0,0-0.1,0.1-0.3,0.2l-1,0.3c0,0-0.6,0.2-1,0.4
		c0,0-0.2,0.1-0.3,0.2c0,0-0.1,0.2-0.1,0.3c0,0,0,0.1,0.2,0.2c0,0,0.2,0.1,0.5,0.1c0,0,0.5-0.1,0.9-0.2l1-0.2c0,0,0.5-0.1,0.8,0.3
		l0.4,0.7l0.4,0.7c0,0,0,0.1,0.2,0.3c0,0,0.1,0.1,0.1,0.3c0,0,0,0.2-0.2,0.3c0,0-0.6,0.4-1.8,1c0,0-0.3,0.2-0.6,0.4
		c0,0-0.4,0.3-0.5,0.6v0.3c0,0,0,0.2,0.1,0.3c0,0,0.2,0.1,0.4,0.1c0,0,0.2,0,0.3-0.1l1.5-0.9c0,0,0.9-0.5,1.5-0.8
		c0,0,0.1-0.1,0.3-0.1c0,0,0.2,0,0.3,0.1c0,0,1.1,0.8,1.7,1.3c0,0,1.6,1.1,2.9,1.6c0,0,1.6,0.7,2.9,1c0,0,1.2,0.3,3,0.5l2.6,0.3
		c0,0,3.1,0.3,6.2,0c0,0,1.5-0.1,2.4-0.3c0,0,1.4-0.2,3-0.6c0,0,1.1-0.3,2.1-0.7c0,0,1-0.4,1.8-1c0,0,0.6-0.4,1.7-1.3
		c0,0,0.7-0.6,1.4-1.3c0,0,0.1-0.1,0.2-0.2l0.3,0c0,0,0.2,0,0.5,0.2c0,0,0.4,0.2,0.5,0.2l1.1,0.5c0,0,0.7,0.3,1.2,0.4
		c0,0,0.2,0,0.3-0.1c0,0,0.1-0.1,0.1-0.2c0,0,0.1-0.3-0.2-0.6c0,0-0.5-0.4-1.4-0.8l-1.4-0.7c0,0-0.2-0.1-0.2-0.2c0,0,0-0.1,0-0.2
		l0.4-0.8l0.4-0.8l0.2-0.5c0,0,0.1-0.3,0.4-0.3l1.1,0.1l1,0.1l0.6,0c0,0,0.4,0,0.6-0.1c0,0,0.1-0.1,0.1-0.3c0,0,0-0.2-0.1-0.2
		c0,0-0.7-0.4-1.6-0.6L64,48.9l-0.5-0.1l-0.3,0c0,0-0.1,0-0.2-0.1c0,0-0.1-0.1-0.1-0.2c0,0,0-0.3,0.1-1c0,0,0.1-0.7,0.1-1l0-0.4
		c0,0,0-0.2,0.1-0.3c0,0,0.6-0.2,1.6-0.1l1.6,0.1l0.5,0c0,0,0.4-0.1,0.4-0.4c0,0,0-0.2-0.3-0.4c0,0,0,0-0.5-0.2l-1.2-0.1l-1.3,0
		l-0.4,0c0,0-0.2,0-0.3,0c0,0-0.1,0-0.2-0.1c0,0-0.1-0.1-0.1-0.2l-0.3-2.1c0,0-0.2-0.9-0.6-1.9c0,0,0.3-0.5,0.8-1.3l0-0.1
		c0,0,0.8-1.6,0.8-3.2c0,0,0-0.4-0.1-0.9c0,0-0.1-0.6-0.5-1.2c0,0-0.5-0.5-1.1-0.7l-0.3-0.1c0,0-0.2-2.6-0.9-4.2
		c0,0-0.4-0.7-0.7-1.1C60.2,27.6,59.7,27.1,59.1,26.9"/>
	<path id="path9502" fill="#FFFFFF" d="M58.2,28.4c0,0-0.4,0-1.3,0.3c0,0-0.7,0.2-1.4,0.5c0,0-0.7,0.2-2,1l0.3,0.7l0.1,0.2l0,0
		c0,0,0.1,0.3,0.1,0.7c0,0,0.8,0,1.4,0.3c0,0,0.7,0.3,1.2,0.9l0.3,0.3c0,0,0.2-0.2,0.5-0.3c0,0,1.5-0.5,3-0.4L60.3,32l-0.2-1
		c0,0-0.1-0.7-0.3-1.2c0,0-0.2-0.6-0.6-1.1c0,0-0.2-0.3-0.5-0.4L58.2,28.4"/>
	<path id="path9504" fill="#FFFFFF" d="M55,39.9c0,0-0.1-0.2-0.2-0.5c0,0-0.5,0.1-1,0.1c0,0-1,0-1.8-0.5c0,0-0.8-0.5-1.4-1.3
		c0,0-0.2,0.1-0.3,0.2l-0.1,0c0,0-1.8,0.6-3.1,0.5c0,0-1.3-0.1-2.2-0.9l0,0l0,0c0,0-1.3-1.2-1.2-3.3c0,0,0.1-1.2,0.7-3l0,0l0.2-0.4
		c0,0-1.7,0-3.5,0.1l-2.4,0.2c0,0-0.3,0-0.7,0.1l-0.7,0.1c0,0-0.8,0.2-1.3-0.1c0,0-2.2-1.3-4.6-1.9c0,0-0.9-0.2-1.3-0.2
		c0,0-0.8,0-1.2,0.4c0,0-0.7,0.9-1.1,2.1c0,0-0.3,1-0.3,2.4c0,0,0.1,0.6,0.1,0.9c0,0,0.1,0.5,0.3,0.9c0,0,0.1,0.1,0.2,0.1l0.3-0.2
		c0,0,0.2-0.1,0.3,0c0,0,0.3,0,0.4,0.3c0,0,0.1,0.3-0.1,0.6l-1,1.4c0,0-0.5,0.8-0.8,1.5c0,0-1.3,2.7-1.3,5.8c0,0,0.1,0.1,0.1,0.2
		c0,0,0.1,0.1,0.2,0.1l0.7,0.1l0.7,0.1c0,0,0.2,0.1,0.6,0.2c0,0,0.3,0.1,0.3,0.4c0,0-0.1,0.3-0.5,0.4c0,0-0.5,0-0.7,0l-0.5,0l-0.5,0
		c0,0-0.1,0-0.2,0.1c0,0-0.1,0.1-0.1,0.2v0.2c0,0,0.1,1.1,0.6,2.2c0,0,0.2,0.2,0.5,0.1l0.7-0.1l0.6,0c0,0,0.2,0,0.2,0.2
		c0,0,0.1,0.1,0,0.3c0,0,0,0.1-0.2,0.2c0,0-0.7,0.2-1.1,0.4c0,0-0.1,0.1-0.2,0.2c0,0-0.1,0.1,0,0.2c0,0,0.2,0.4,0.5,0.8l0.6,0.8
		c0,0,0.2,0.3,0.8,0.2l0.7-0.3c0,0,0.4-0.1,0.7-0.1c0,0,0.2,0,0.3,0.2c0,0,0.1,0.2,0.1,0.4c0,0-0.1,0.2-0.5,0.4c0,0-0.5,0.2-0.6,0.4
		c0,0,0,0.1,0,0.2c0,0,1.3,1,2.4,1.6c0,0,1.3,0.8,2.6,1.1c0,0,1.7,0.5,2.3,0.6c0,0,1.5,0.4,3.1,0.5c0,0,3.3,0.4,6.9,0.2
		c0,0,2.9-0.2,4.5-0.6c0,0,2.6-0.4,4.9-1.7c0,0,0.8-0.5,1.3-0.9c0,0,0.7-0.5,1.2-1.1c0,0,0.1-0.1,0.1-0.2c0,0,0-0.1-0.1-0.1
		c0,0-0.3-0.1-0.4-0.2c0,0-0.2-0.1-0.3-0.4c0,0,0-0.1,0-0.3c0,0,0-0.2,0.1-0.2c0,0,0.2-0.2,0.6-0.1l0.6,0.1c0,0,0.4,0.1,0.6-0.3
		c0,0,0.6-1,0.9-1.8c0,0,0.1-0.2,0-0.3c0,0,0-0.1-0.1-0.1l-0.7-0.2c0,0-0.4-0.2-0.4-0.5c0,0,0.1-0.3,0.4-0.4l0.6,0l0.4,0
		c0,0,0.2,0,0.3-0.1c0,0,0.1-0.7,0.2-1.4c0,0,0-0.3,0-0.8c0,0,0-0.2-0.1-0.3c0,0,0,0-0.2-0.1l-0.1,0l-0.8,0.1l-0.8,0.1
		c0,0-0.4,0-0.6-0.4c0,0-0.1-0.3,0.2-0.5c0,0,0.2-0.1,0.6-0.2l0.5-0.1l0.6-0.1c0,0,0.4,0,0.5-0.1c0,0,0.2-0.1,0.2-0.3
		c0,0-0.1-1.4-0.5-2.5l-0.1-0.4c0,0-1.4,1.2-3,1c0,0-1-0.2-1.9-1C56.1,41.5,55.4,40.8,55,39.9"/>
	<path id="path9506" d="M33.9,46.2c0,0,0.3-0.1,0.7,0c0,0,0.3,0.1,0.6,0.3c0,0,0.3,0.4,0.4,0.9c0,0,0.1,0.4,0,1.1
		c0,0-0.1,0.4-0.2,0.7c0,0-0.2,0.4-0.6,0.5c0,0-0.4,0.1-0.8,0.1c0,0-0.4-0.1-0.7-0.4c0,0-0.4-0.4-0.4-1.1c0,0,0-0.6,0.1-1.2
		c0,0,0.1-0.3,0.3-0.5C33.4,46.5,33.6,46.3,33.9,46.2"/>
	<path id="path9508" d="M45.6,52.2c0,0-0.6,0.4-1.5,0.4c0,0-0.8,0-1.5-0.4c0,0-0.4-0.2-0.5-0.6c0,0-0.2-0.4-0.1-0.8
		c0,0,0-0.3,0.2-0.6c0,0,0.2-0.3,0.5-0.5c0,0,0.6-0.4,1.4-0.4c0,0,0.8,0,1.4,0.4c0,0,0.3,0.1,0.5,0.4c0,0,0.2,0.3,0.2,0.6
		c0,0,0.1,0.4-0.1,0.8C46.1,51.6,46,52,45.6,52.2"/>
	<path id="path9510" fill="#EEC827" d="M44.3,50.3c0,0,0.5,0,0.8,0.4c0,0,0.1,0.1,0.1,0.2l0.1,0.3c0,0,0,0.2-0.1,0.3
		c0,0-0.1,0.1-0.3,0.2c0,0-0.4,0.2-0.9,0.2c0,0-0.5,0-0.9-0.3c0,0-0.3-0.3-0.2-0.6c0,0,0-0.2,0.2-0.3c0,0,0.1-0.1,0.3-0.2
		C43.3,50.4,43.8,50.2,44.3,50.3"/>
	<path id="path9512" d="M54.6,48.2c0,0-0.2,1.3-1,1.5c0,0-0.4,0.1-0.8,0c0,0-0.4-0.1-0.6-0.5c0,0-0.2-0.3-0.3-0.8c0,0,0-0.3,0-0.9
		c0,0,0.1-0.4,0.3-0.7c0,0,0.2-0.4,0.6-0.5c0,0,0.3-0.1,0.6-0.1c0,0,0.3,0,0.6,0.2C54,46.3,54.8,47,54.6,48.2"/>
	<path id="path9514" fill="#E72235" d="M48.6,27.8c0,0,0.7-0.2,1.3,0c0,0,1,0.4,1.8,1.5c0,0,0.6,0.8,1,2c0,0,0,0.1,0.1,0.3l0,0.2
		c0,0,0,0.1-0.1,0.1c0,0-0.4,0.1-0.7,0.3l-0.2,0c0,0-0.1,0-0.1-0.1l-0.3-0.2c0,0-0.5-0.4-1.2-0.4c0,0-0.7,0-1.2,0.3
		c0,0-0.6,0.4-0.9,1c0,0-0.3,0.6-0.2,1.3c0,0,0.1,0.5,0.4,1c0,0,0.3,0.5,0.8,0.7c0,0,0.2,0.1,0.4,0.1c0,0,0.2,0.1,0.3,0.2l0.1,0.6
		c0,0,0.1,0.2-0.2,0.3c0,0-2.9,1-4.3-0.2c0,0-0.9-0.9-0.8-2.5c0,0,0.1-1,0.6-2.7c0,0,0.3-0.9,0.9-1.8c0,0,0.6-0.9,1.3-1.5
		C47.4,28.4,48,28,48.6,27.8"/>
	<path id="path9516" fill="#E72235" d="M49.1,33.9c0,0,0,0.3,0.2,0.5c0,0,0.2,0.3,0.4,0.4l0.1,0c0,0,0.1,0,0.1-0.1
		c0,0,0.3-0.9,0.8-1.5c0,0,0.1-0.1,0.1-0.2c0,0,0-0.1-0.1-0.1c0,0-0.2-0.1-0.5-0.1c0,0-0.3,0-0.5,0.1c0,0-0.3,0.2-0.5,0.5
		C49.3,33.2,49.1,33.5,49.1,33.9"/>
	<path id="path9518" fill="#E72235" d="M55.9,33.8c0,0,0.6,0.6,0.7,1.4c0,0,0.1,0.8-0.2,1.6c0,0-0.3,0.8-1,1.2c0,0-0.7,0.5-1.5,0.5
		c0,0-0.8,0-1.4-0.4c0,0-0.7-0.4-1-1.1c0,0-0.4-0.7-0.3-1.6c0,0,0.1-0.9,0.6-1.5c0,0,0.4-0.5,1.2-0.9c0,0,0.8-0.3,1.6-0.1
		C54.4,33,55.3,33.2,55.9,33.8"/>
	<path id="path9520" fill="#E72235" d="M61.8,34c0,0,0.3,0.1,0.6,0.4c0,0,0.3,0.3,0.3,0.6c0,0,0.1,0.9-0.1,1.8c0,0-0.2,0.9-0.6,1.7
		c0,0-0.8,1.3-1.5,2.1c0,0-1.1,1-2.3,0.9c0,0-0.7-0.1-1.4-0.7c0,0-0.6-0.6-0.9-1.3c0,0-0.1-0.1,0-0.2c0,0,0-0.1,0.1-0.2l0.3-0.2
		c0,0,0.2-0.1,0.4,0c0,0,0.4,0.3,0.9,0.4c0,0,0.5,0.1,1-0.1c0,0,0.5-0.2,0.9-0.7c0,0,0.3-0.5,0.4-1c0,0,0-0.5-0.2-1
		c0,0-0.2-0.5-0.7-0.8c0,0-0.4-0.3-0.9-0.3c0,0-0.1,0-0.2-0.1c0,0-0.1-0.1-0.1-0.2l-0.1-0.6c0,0,0-0.2,0.2-0.3c0,0,1-0.3,2-0.4
		C59.7,33.8,60.8,33.7,61.8,34"/>
	<path id="path9522" fill="#E72235" d="M58.3,37.8c0,0-0.2,0.2-0.4,0.2l-0.4,0c0,0-0.2,0-0.3-0.2c0,0-0.1,0-0.1-0.1c0,0,0-0.1,0-0.2
		c0,0,0.2-0.5,0.4-1c0,0,0-0.1,0.1-0.1c0,0,0.1-0.1,0.1-0.1c0,0,0.3,0,0.5,0.3c0,0,0.3,0.4,0.2,0.8C58.5,37.5,58.5,37.6,58.3,37.8"
		/>
</g>
<g id="Layer_3">
	
		<text transform="matrix(1.0013 0 0 1 54.937 68.9961)" opacity="0.8" enable-background="new    " font-family="'Helvetica-Bold'" font-size="13.6415">50</text>
</g>
</svg>
