<?xml version="1.0" encoding="utf-8"?>
<!-- Generator: Adobe Illustrator 16.0.0, SVG Export Plug-In . SVG Version: 6.00 Build 0)  -->
<!DOCTYPE svg PUBLIC "-//W3C//DTD SVG 1.1//EN" "http://www.w3.org/Graphics/SVG/1.1/DTD/svg11.dtd">
<svg version="1.1" xmlns="http://www.w3.org/2000/svg" xmlns:xlink="http://www.w3.org/1999/xlink" x="0px" y="0px" width="88px"
	 height="88px" viewBox="-12.763 -11.276 88 88" enable-background="new -12.763 -11.276 88 88" xml:space="preserve">
<g id="Layer_2">
	<linearGradient id="SVGID_1_" gradientUnits="userSpaceOnUse" x1="31.2368" y1="-5.3247" x2="31.2368" y2="70.7734">
		<stop  offset="0" style="stop-color:#FFFFFF"/>
		<stop  offset="1" style="stop-color:#F3F3F3"/>
	</linearGradient>
	<path fill="url(#SVGID_1_)" d="M60.494-5.325c-0.711,1.533-2.323,2.602-4.194,2.602s-3.482-1.071-4.195-2.602h-1.643
		c-0.707,1.533-2.319,2.602-4.19,2.602c-1.875,0-3.487-1.071-4.194-2.602h-1.731c-0.705,1.533-2.315,2.602-4.188,2.602
		c-1.875,0-3.485-1.071-4.196-2.602h-1.675c-0.709,1.533-2.318,2.602-4.191,2.602c-1.875,0-3.485-1.071-4.196-2.602h-1.463
		c-0.707,1.533-2.317,2.602-4.194,2.602c-1.871,0-3.481-1.071-4.19-2.602h-1.733c-0.71,1.533-2.319,2.602-4.196,2.602
		c-1.872,0-3.483-1.071-4.194-2.602h-2.475l-8.214,7.812v2.41c1.611,0.676,2.736,2.206,2.736,3.99c0,1.785-1.125,3.313-2.736,3.991
		l-0.002,1.562c1.611,0.676,2.738,2.203,2.738,3.988c0,1.784-1.127,3.312-2.738,3.992v1.643c1.611,0.676,2.738,2.206,2.738,3.993
		c0,1.78-1.127,3.311-2.738,3.986v1.594c1.611,0.676,2.738,2.206,2.738,3.989c0,1.78-1.127,3.312-2.738,3.988v1.392
		c1.611,0.675,2.738,2.206,2.738,3.99c0,1.779-1.127,3.313-2.738,3.986v1.647c1.611,0.675,2.738,2.209,2.738,3.988
		c0,1.782-1.127,3.315-2.738,3.988v2.357l8.216,7.809h2.534c0.71-1.53,2.318-2.604,4.195-2.604c1.872,0,3.481,1.07,4.193,2.604
		h1.646c0.709-1.53,2.315-2.604,4.194-2.604c1.871,0,3.479,1.07,4.19,2.604h1.732c0.707-1.53,2.319-2.604,4.194-2.604
		s3.482,1.07,4.191,2.604h1.677c0.707-1.53,2.319-2.604,4.19-2.604c1.875,0,3.487,1.07,4.196,2.604h1.465
		c0.709-1.53,2.319-2.604,4.188-2.604c1.875,0,3.485,1.07,4.194,2.604h1.731c0.709-1.53,2.319-2.604,4.194-2.604
		c1.873,0,3.483,1.07,4.192,2.604h2.475l8.211-7.809v-2.412c-1.608-0.673-2.736-2.207-2.736-3.986c0-1.782,1.124-3.317,2.736-3.986
		v-1.566c-1.608-0.675-2.736-2.207-2.736-3.986c0-1.783,1.124-3.315,2.736-3.992v-1.648c-1.608-0.673-2.736-2.204-2.736-3.984
		c0-1.781,1.124-3.313,2.736-3.99v-1.589c-1.608-0.677-2.736-2.206-2.736-3.99c0-1.781,1.124-3.313,2.736-3.992v-1.393
		c-1.608-0.673-2.736-2.203-2.736-3.99c0-1.778,1.124-3.31,2.736-3.986v-1.648c-1.608-0.675-2.736-2.207-2.736-3.989
		c0-1.784,1.124-3.312,2.736-3.99V2.491l-8.211-7.813h-2.532V-5.325z M59.688,59.809H45.724h-4.702h-2.428h-1.186H24.333h-1.149
		h-2.354H16.26H2.78V4.057h56.908V59.809z"/>
	<linearGradient id="SVGID_2_" gradientUnits="userSpaceOnUse" x1="31.2368" y1="4.8486" x2="31.2368" y2="60.5996">
		<stop  offset="0" style="stop-color:#F0BFFF"/>
		<stop  offset="1" style="stop-color:#BFD1FF"/>
	</linearGradient>
	<rect x="2.783" y="4.849" fill="url(#SVGID_2_)" stroke="#333333" stroke-miterlimit="10" width="56.908" height="55.75"/>
</g>
<g id="Layer_1">
	<path id="path9500" d="M46.376,15.635c0,0-0.573-0.104-1.312-0.001l-1.242,0.236c0,0-0.735,0.218-1.344,0.462
		c0,0-0.553,0.224-1.292,0.595l-1.174,0.71c0,0-1.012-1.526-2.396-2.083l-0.02-0.008l-0.015-0.007c0,0-0.889-0.32-1.843-0.1
		c0,0-0.957,0.218-1.749,0.925l-0.01,0.004c0,0-0.81,0.734-1.448,1.71c0,0-0.709-0.023-1.433-0.031h-0.587
		c0,0-0.48-0.024-1.397,0.039l-1.366,0.048c0,0-1.609,0.084-3.308,0.454c0,0-0.482,0.031-0.795-0.137c0,0-1.507-0.776-3.727-1.502
		l-1.148-0.295c0,0-0.708-0.174-1.211-0.225c0,0-1.426-0.144-2.271,0.558c0,0-1.022,1.199-1.503,2.762c0,0-0.331,1.022-0.428,2.472
		c0,0-0.031,0.909,0.187,1.987c0,0,0.123,0.615,0.483,1.925c0,0,0.055,0.179-0.05,0.369c0,0-1.929,3.354-2.032,6.675
		c0,0-0.014,0.044-0.006,0.559c0,0,0,0.335-0.199,0.463l-1.01,0.098L9.437,34.44c0,0-0.78,0.088-1.241,0.307
		c0,0-0.36,0.156-0.371,0.633c0,0,0.026,0.196,0.204,0.271c0,0,0.383,0.064,0.934-0.006l0.915-0.099l1.281-0.11l0.472-0.01
		c0,0,0.273,0.017,0.377,0.199c0,0,0.11,0.386,0.292,1.257c0,0,0.173,0.813,0.311,1.242c0,0,0.056,0.152,0.003,0.276
		c0,0-0.062,0.139-0.266,0.22l-1.046,0.3c0,0-0.609,0.191-1.002,0.438c0,0-0.166,0.056-0.261,0.236c0,0-0.08,0.156-0.058,0.282
		c0,0,0.022,0.122,0.226,0.223c0,0,0.234,0.121,0.504,0.08c0,0,0.48-0.08,0.861-0.206l0.955-0.198c0,0,0.526-0.074,0.848,0.254
		l0.42,0.735l0.449,0.729c0,0,0.042,0.099,0.242,0.349c0,0,0.107,0.108,0.074,0.283c0,0-0.03,0.194-0.22,0.294
		c0,0-0.574,0.365-1.765,1.042c0,0-0.284,0.168-0.578,0.412c0,0-0.406,0.343-0.543,0.613V44.8c0,0,0.019,0.19,0.137,0.272
		c0,0,0.186,0.08,0.393,0.052c0,0,0.188-0.023,0.333-0.134l1.461-0.903c0,0,0.876-0.541,1.49-0.797c0,0,0.135-0.081,0.31-0.081
		c0,0,0.188,0.007,0.325,0.131c0,0,1.083,0.847,1.707,1.278c0,0,1.601,1.1,2.913,1.641c0,0,1.628,0.662,2.931,0.981
		c0,0,1.206,0.297,3.007,0.496l2.642,0.257c0,0,3.109,0.284,6.183,0.048c0,0,1.538-0.114,2.447-0.296c0,0,1.431-0.159,2.989-0.597
		c0,0,1.136-0.321,2.119-0.72c0,0,0.97-0.387,1.833-0.951c0,0,0.613-0.397,1.707-1.269c0,0,0.739-0.646,1.362-1.342
		c0,0,0.096-0.108,0.248-0.16l0.318-0.003c0,0,0.192,0.043,0.511,0.191c0,0,0.362,0.176,0.507,0.222l1.126,0.493
		c0,0,0.681,0.311,1.155,0.383c0,0,0.185,0.01,0.297-0.116c0,0,0.101-0.104,0.108-0.239c0,0,0.084-0.309-0.219-0.583
		c0,0-0.507-0.364-1.364-0.783l-1.406-0.69c0,0-0.189-0.093-0.232-0.232c0,0-0.036-0.11,0.017-0.198l0.37-0.819l0.358-0.832
		l0.173-0.456c0,0,0.118-0.269,0.36-0.312l1.052,0.06l1.044,0.143l0.608,0.022c0,0,0.383,0,0.591-0.133c0,0,0.093-0.07,0.093-0.252
		c0,0,0-0.179-0.103-0.236c0,0-0.709-0.413-1.62-0.573l-0.531-0.09l-0.471-0.074l-0.294-0.034c0,0-0.127-0.028-0.225-0.124
		c0,0-0.101-0.1-0.084-0.187c0,0,0.018-0.335,0.11-0.993c0,0,0.092-0.663,0.104-1.012l0.004-0.389c0,0-0.004-0.238,0.131-0.337
		c0,0,0.576-0.17,1.568-0.11l1.62,0.062l0.539-0.042c0,0,0.425-0.059,0.448-0.381c0,0-0.044-0.25-0.314-0.395
		c0,0-0.033-0.021-0.484-0.194l-1.22-0.139l-1.305-0.033l-0.37,0.02c0,0-0.221,0.022-0.326,0c0,0-0.12,0.005-0.213-0.114
		c0,0-0.078-0.101-0.09-0.218l-0.322-2.076c0,0-0.192-0.923-0.634-1.886c0,0,0.325-0.451,0.808-1.275l0.03-0.071
		c0,0,0.773-1.627,0.795-3.233c0,0,0.012-0.445-0.052-0.874c0,0-0.08-0.637-0.541-1.161c0,0-0.459-0.517-1.094-0.682l-0.265-0.064
		c0,0-0.152-2.567-0.896-4.253c0,0-0.414-0.748-0.688-1.07C47.474,16.332,46.989,15.772,46.376,15.635"/>
	<path id="path9502" fill="#FFFFFF" d="M45.401,17.115c0,0-0.367,0.037-1.271,0.334c0,0-0.715,0.233-1.39,0.498
		c0,0-0.651,0.213-2.038,0.996l0.293,0.744l0.084,0.245l0.002,0.015c0,0,0.104,0.285,0.137,0.663c0,0,0.767,0.027,1.43,0.328
		c0,0,0.691,0.302,1.206,0.861l0.288,0.35c0,0,0.23-0.203,0.493-0.277c0,0,1.462-0.483,2.997-0.421l-0.08-0.729l-0.152-0.97
		c0,0-0.131-0.684-0.322-1.181c0,0-0.215-0.558-0.59-1.121c0,0-0.174-0.333-0.534-0.37L45.401,17.115"/>
	<path id="path9504" fill="#FFFFFF" d="M42.215,28.609c0,0-0.126-0.221-0.154-0.463c0,0-0.528,0.132-1.046,0.13
		c0,0-0.955,0.002-1.799-0.461c0,0-0.845-0.46-1.388-1.275c0,0-0.154,0.132-0.312,0.208l-0.116,0.04c0,0-1.767,0.591-3.085,0.503
		c0,0-1.32-0.09-2.25-0.869l-0.028-0.022l-0.023-0.024c0,0-1.272-1.214-1.164-3.309c0,0,0.062-1.167,0.665-2.979l0.012-0.044
		l0.15-0.351c0,0-1.748,0.014-3.453,0.08l-2.378,0.174c0,0-0.257,0.016-0.653,0.112l-0.665,0.149c0,0-0.787,0.151-1.292-0.136
		c0,0-2.239-1.312-4.567-1.905c0,0-0.931-0.199-1.339-0.211c0,0-0.82-0.015-1.238,0.416c0,0-0.722,0.865-1.054,2.072
		c0,0-0.281,1.022-0.312,2.393c0,0,0.058,0.551,0.147,0.924c0,0,0.117,0.488,0.308,0.859c0,0,0.065,0.109,0.212,0.065l0.295-0.174
		c0,0,0.183-0.082,0.347-0.049c0,0,0.299,0.041,0.385,0.331c0,0,0.065,0.257-0.081,0.571l-0.951,1.403c0,0-0.528,0.817-0.778,1.479
		c0,0-1.251,2.711-1.29,5.785c0,0,0.056,0.095,0.137,0.175c0,0,0.089,0.086,0.182,0.094l0.728,0.082l0.735,0.114
		c0,0,0.156,0.07,0.556,0.181c0,0,0.322,0.138,0.302,0.445c0,0-0.082,0.34-0.492,0.376c0,0-0.496-0.024-0.695,0l-0.48-0.036
		l-0.475-0.012c0,0-0.145,0.006-0.224,0.09c0,0-0.079,0.085-0.071,0.238v0.232c0,0,0.089,1.063,0.597,2.163
		c0,0,0.18,0.157,0.465,0.053l0.688-0.074l0.615,0.042c0,0,0.177,0.046,0.241,0.217c0,0,0.05,0.146,0.008,0.308
		c0,0-0.01,0.068-0.158,0.175c0,0-0.67,0.238-1.093,0.354c0,0-0.131,0.056-0.189,0.162c0,0-0.064,0.112,0,0.236
		c0,0,0.181,0.385,0.482,0.846l0.579,0.781c0,0,0.25,0.318,0.771,0.22l0.677-0.284c0,0,0.367-0.128,0.72-0.114
		c0,0,0.212,0.013,0.329,0.202c0,0,0.1,0.169,0.073,0.373c0,0-0.14,0.246-0.535,0.44c0,0-0.459,0.225-0.599,0.367
		c0,0-0.039,0.12,0.019,0.154c0,0,1.27,0.967,2.36,1.59c0,0,1.331,0.764,2.555,1.132c0,0,1.688,0.497,2.264,0.634
		c0,0,1.482,0.356,3.085,0.486c0,0,3.339,0.375,6.877,0.179c0,0,2.872-0.161,4.521-0.579c0,0,2.594-0.427,4.903-1.731
		c0,0,0.804-0.486,1.3-0.859c0,0,0.703-0.541,1.152-1.113c0,0,0.078-0.101,0.068-0.19c0,0-0.011-0.086-0.093-0.148
		c0,0-0.305-0.146-0.448-0.232c0,0-0.245-0.15-0.318-0.372c0,0-0.04-0.118-0.011-0.253c0,0,0.028-0.154,0.146-0.22
		c0,0,0.238-0.171,0.603-0.104l0.634,0.141c0,0,0.408,0.105,0.568-0.266c0,0,0.604-1.033,0.855-1.844c0,0,0.074-0.175,0.015-0.297
		c0,0-0.043-0.096-0.148-0.124l-0.684-0.2c0,0-0.378-0.169-0.37-0.453c0,0,0.076-0.307,0.37-0.397l0.629-0.021l0.351,0.017
		c0,0,0.213-0.004,0.299-0.139c0,0,0.12-0.671,0.208-1.389c0,0,0.046-0.274,0.026-0.849c0,0,0.018-0.213-0.072-0.282
		c0,0-0.042-0.036-0.2-0.051l-0.056-0.006l-0.836,0.118l-0.839,0.109c0,0-0.429-0.023-0.567-0.38c0,0-0.064-0.308,0.202-0.505
		c0,0,0.243-0.124,0.565-0.196l0.541-0.12l0.561-0.084c0,0,0.358-0.04,0.545-0.122c0,0,0.164-0.09,0.164-0.312
		c0,0-0.138-1.376-0.501-2.552l-0.14-0.439c0,0-1.406,1.221-2.997,0.983c0,0-1.04-0.159-1.929-0.971
		C43.372,30.217,42.632,29.532,42.215,28.609"/>
	<path id="path9506" d="M21.175,34.907c0,0,0.319-0.129,0.693-0.037c0,0,0.311,0.077,0.604,0.304c0,0,0.338,0.358,0.425,0.927
		c0,0,0.071,0.441,0,1.062c0,0-0.066,0.4-0.245,0.698c0,0-0.224,0.354-0.562,0.501c0,0-0.396,0.137-0.8,0.075
		c0,0-0.437-0.075-0.697-0.359c0,0-0.355-0.427-0.406-1.081c0,0-0.05-0.577,0.139-1.188c0,0,0.1-0.293,0.327-0.541
		C20.653,35.267,20.888,34.995,21.175,34.907"/>
	<path id="path9508" d="M32.871,40.966c0,0-0.625,0.419-1.497,0.383c0,0-0.78-0.024-1.51-0.379c0,0-0.377-0.188-0.549-0.57
		c0,0-0.166-0.369-0.11-0.824c0,0,0.048-0.346,0.219-0.629c0,0,0.204-0.305,0.502-0.46c0,0,0.587-0.387,1.417-0.373
		c0,0,0.807,0.022,1.43,0.391c0,0,0.289,0.138,0.489,0.423c0,0,0.194,0.284,0.236,0.617c0,0,0.052,0.437-0.112,0.809
		C33.385,40.353,33.219,40.723,32.871,40.966"/>
	<path id="path9510" fill="#EEC827" d="M31.508,38.996c0,0,0.543,0.042,0.825,0.38c0,0,0.106,0.08,0.148,0.223l0.052,0.261
		c0,0-0.002,0.16-0.12,0.293c0,0-0.106,0.125-0.258,0.193c0,0-0.401,0.202-0.916,0.181c0,0-0.524-0.021-0.881-0.283
		c0,0-0.313-0.297-0.203-0.576c0,0,0.038-0.154,0.162-0.305c0,0,0.11-0.147,0.255-0.227C30.573,39.135,31.045,38.956,31.508,38.996"
		/>
	<path id="path9512" d="M41.878,36.927c0,0-0.2,1.261-1.014,1.519c0,0-0.384,0.116-0.769-0.035c0,0-0.379-0.146-0.627-0.489
		c0,0-0.23-0.33-0.283-0.827c0,0-0.037-0.345,0.021-0.905c0,0,0.076-0.385,0.282-0.702c0,0,0.229-0.357,0.553-0.503
		c0,0,0.265-0.104,0.609-0.077c0,0,0.339,0.026,0.589,0.156C41.24,35.063,42.011,35.686,41.878,36.927"/>
	<path id="path9514" fill="#E72235" d="M35.881,16.489c0,0,0.701-0.195,1.344,0.038c0,0,0.998,0.407,1.765,1.463
		c0,0,0.59,0.843,1.017,2.046c0,0,0.023,0.111,0.09,0.251l0.014,0.182c0,0-0.023,0.095-0.104,0.123c0,0-0.439,0.147-0.684,0.266
		l-0.166,0.044c0,0-0.095-0.014-0.131-0.087l-0.254-0.208c0,0-0.513-0.378-1.19-0.403c0,0-0.669-0.035-1.235,0.295
		c0,0-0.635,0.387-0.928,1.027c0,0-0.28,0.622-0.188,1.35c0,0,0.089,0.526,0.435,0.987c0,0,0.347,0.463,0.823,0.689
		c0,0,0.194,0.094,0.381,0.134c0,0,0.24,0.055,0.267,0.215l0.118,0.603c0,0,0.054,0.185-0.19,0.288c0,0-2.933,0.982-4.325-0.176
		c0,0-0.921-0.888-0.837-2.506c0,0,0.059-1.036,0.611-2.692c0,0,0.346-0.934,0.887-1.752c0,0,0.573-0.865,1.288-1.514
		C34.687,17.152,35.23,16.664,35.881,16.489"/>
	<path id="path9516" fill="#E72235" d="M36.362,22.619c0,0,0.034,0.281,0.209,0.52c0,0,0.172,0.252,0.424,0.378l0.139,0.004
		c0,0,0.07-0.034,0.101-0.126c0,0,0.254-0.888,0.814-1.533c0,0,0.072-0.094,0.068-0.206c0,0-0.006-0.094-0.064-0.14
		c0,0-0.24-0.136-0.522-0.15c0,0-0.288-0.023-0.521,0.101c0,0-0.333,0.157-0.503,0.472C36.506,21.937,36.326,22.256,36.362,22.619"
		/>
	<path id="path9518" fill="#E72235" d="M43.09,22.515c0,0,0.563,0.585,0.705,1.436c0,0,0.135,0.835-0.186,1.577
		c0,0-0.303,0.765-1.04,1.239c0,0-0.727,0.478-1.542,0.455c0,0-0.756,0.01-1.427-0.4c0,0-0.659-0.406-1.039-1.094
		c0,0-0.383-0.679-0.293-1.572c0,0,0.088-0.886,0.603-1.48c0,0,0.387-0.537,1.152-0.877c0,0,0.804-0.296,1.65-0.094
		C41.674,21.705,42.524,21.905,43.09,22.515"/>
	<path id="path9520" fill="#E72235" d="M49.054,22.733c0,0,0.316,0.074,0.567,0.362c0,0,0.258,0.285,0.296,0.605
		c0,0,0.114,0.865-0.08,1.825c0,0-0.172,0.852-0.57,1.696c0,0-0.76,1.351-1.501,2.054c0,0-1.107,1.05-2.304,0.879
		c0,0-0.741-0.109-1.392-0.728c0,0-0.6-0.557-0.932-1.317c0,0-0.061-0.066-0.04-0.185c0,0,0.016-0.106,0.09-0.167l0.278-0.212
		c0,0,0.187-0.102,0.353,0.038c0,0,0.411,0.283,0.918,0.356c0,0,0.534,0.066,0.981-0.136c0,0,0.511-0.2,0.854-0.679
		c0,0,0.349-0.478,0.386-1.026c0,0,0.024-0.542-0.191-1.001c0,0-0.219-0.474-0.651-0.789c0,0-0.415-0.278-0.922-0.337
		c0,0-0.116-0.022-0.19-0.086c0,0-0.073-0.066-0.086-0.162l-0.14-0.573c0,0-0.013-0.221,0.164-0.28c0,0,0.978-0.329,2.033-0.371
		C46.975,22.5,48.075,22.453,49.054,22.733"/>
	<path id="path9522" fill="#E72235" d="M45.567,26.534c0,0-0.175,0.193-0.364,0.233l-0.371,0.013c0,0-0.177-0.032-0.322-0.152
		c0,0-0.057-0.044-0.057-0.139c0,0-0.002-0.102,0.049-0.176c0,0,0.244-0.452,0.378-0.998c0,0,0.004-0.08,0.086-0.146
		c0,0,0.072-0.064,0.141-0.051c0,0,0.263,0.03,0.491,0.263c0,0,0.312,0.365,0.188,0.785C45.785,26.167,45.731,26.359,45.567,26.534"
		/>
</g>
<g id="Layer_3">
	<text transform="matrix(1 0 0 1 42.1772 57.7505)" opacity="0.8" font-family="'Helvetica-Bold'" font-size="13.6585">50</text>
</g>
</svg>
