<?xml version="1.0" encoding="utf-8"?>
<!-- Generator: Adobe Illustrator 16.0.0, SVG Export Plug-In . SVG Version: 6.00 Build 0)  -->
<!DOCTYPE svg PUBLIC "-//W3C//DTD SVG 1.1//EN" "http://www.w3.org/Graphics/SVG/1.1/DTD/svg11.dtd">
<svg version="1.1" id="Layer_1" xmlns="http://www.w3.org/2000/svg" xmlns:xlink="http://www.w3.org/1999/xlink" x="0px" y="0px"
	 width="88px" height="88px" viewBox="0 0 88 88" enable-background="new 0 0 88 88" xml:space="preserve">
<g id="Layer_2">
	
		<linearGradient id="SVGID_1_" gradientUnits="userSpaceOnUse" x1="586.0498" y1="610" x2="586.0498" y2="686.001" gradientTransform="matrix(1 0 0 1 -542 -604)">
		<stop  offset="0" style="stop-color:#FFFFFF"/>
		<stop  offset="1" style="stop-color:#F3F3F3"/>
	</linearGradient>
	<linearGradient id="SVGID_2_" gradientUnits="userSpaceOnUse" x1="44.0493" y1="5.5" x2="44.0493" y2="82.7007">
		<stop  offset="0" style="stop-color:#CCCCCC"/>
		<stop  offset="1" style="stop-color:#BFBFBF"/>
	</linearGradient>
	<path fill="url(#SVGID_1_)" stroke="url(#SVGID_2_)" stroke-miterlimit="10" d="M73.3,6c-0.7,1.5-2.3,2.6-4.2,2.6
		C67.2,8.6,65.6,7.5,64.9,6H63.3c-0.7,1.5-2.3,2.6-4.2,2.6C57.2,8.6,55.6,7.5,54.9,6h-1.7c-0.7,1.5-2.3,2.6-4.2,2.6S45.5,7.5,44.8,6
		H43c-0.7,1.5-2.3,2.6-4.2,2.6c-1.9,0-3.5-1.1-4.2-2.6h-1.5c-0.7,1.5-2.3,2.6-4.2,2.6S25.4,7.5,24.7,6H23c-0.7,1.5-2.3,2.6-4.2,2.6
		c-1.9,0-3.5-1.1-4.2-2.6h-2.5L4,13.8v2.4c1.6,0.7,2.7,2.2,2.7,4c0,1.8-1.1,3.3-2.7,4v1.6c1.6,0.7,2.7,2.2,2.7,4
		c0,1.8-1.1,3.3-2.7,4v1.6c1.6,0.7,2.7,2.2,2.7,4c0,1.8-1.1,3.3-2.7,4V45c1.6,0.7,2.7,2.2,2.7,4S5.6,52.3,4,53v1.4
		c1.6,0.699,2.7,2.199,2.7,4c0,1.8-1.1,3.3-2.7,4V64c1.6,0.7,2.7,2.2,2.7,4S5.6,71.3,4,72v2.4l8.2,7.8h2.5
		c0.7-1.5,2.3-2.601,4.2-2.601s3.5,1.101,4.2,2.601h1.6c0.7-1.5,2.3-2.601,4.2-2.601s3.5,1.101,4.2,2.601h1.7
		c0.7-1.5,2.3-2.601,4.2-2.601s3.5,1.101,4.2,2.601H45c0.7-1.5,2.3-2.601,4.2-2.601c1.899,0,3.5,1.101,4.2,2.601h1.5
		C55.6,80.7,57.2,79.6,59.1,79.6c1.9,0,3.5,1.101,4.2,2.601H65c0.7-1.5,2.3-2.601,4.2-2.601c1.899,0,3.5,1.101,4.2,2.601h2.5
		l8.199-7.8V72c-1.6-0.7-2.699-2.2-2.699-4s1.1-3.3,2.699-4v-1.6c-1.6-0.7-2.699-2.2-2.699-4c0-1.801,1.1-3.301,2.699-4V52.8
		c-1.6-0.7-2.699-2.2-2.699-4s1.1-3.3,2.699-4v-1.6c-1.6-0.7-2.699-2.2-2.699-4c0-1.8,1.1-3.3,2.699-4v-1.4
		c-1.6-0.7-2.699-2.2-2.699-4c0-1.8,1.1-3.3,2.699-4v-1.6c-1.6-0.7-2.699-2.2-2.699-4c0-1.8,1.1-3.3,2.699-4v-2.3L75.8,6H73.3
		L73.3,6L73.3,6z M72.4,71.1h-14h-4.7h-2.4h-1.2h-13H36h-2.4H29H15.5V15.4h56.9V71.1z"/>
	
		<linearGradient id="SVGID_3_" gradientUnits="userSpaceOnUse" x1="585.9502" y1="620.1992" x2="585.9502" y2="675.9004" gradientTransform="matrix(1 0 0 1 -542 -604)">
		<stop  offset="0" style="stop-color:#F0BFFF"/>
		<stop  offset="1" style="stop-color:#BFD1FF"/>
	</linearGradient>
	<rect x="15.5" y="16.2" fill="url(#SVGID_3_)" stroke="#333333" stroke-miterlimit="10" width="56.9" height="55.7"/>
</g>
<g id="Layer_1_1_">
	<path id="path9500" d="M59.1,26.9c0,0-0.6-0.1-1.3,0l-1.2,0.2c0,0-0.699,0.2-1.3,0.5c0,0-0.6,0.2-1.3,0.6l-1.2,0.7
		c0,0-1-1.5-2.399-2.1l0,0l0,0c0,0-0.9-0.3-1.801-0.1c0,0-1,0.2-1.8,0.9l0,0c0,0-0.8,0.7-1.399,1.7c0,0-0.7,0-1.4,0h-0.6
		c0,0-0.5,0-1.4,0h-1.4c0,0-1.6,0.1-3.3,0.5c0,0-0.5,0-0.8-0.1c0,0-1.5-0.8-3.7-1.5L31.5,28c0,0-0.7-0.2-1.2-0.2
		c0,0-1.4-0.1-2.3,0.6c0,0-1,1.2-1.5,2.8c0,0-0.3,1-0.4,2.5c0,0,0,0.9,0.2,2c0,0,0.1,0.6,0.5,1.9c0,0,0.1,0.2,0,0.4
		c0,0-1.9,3.3-2,6.7c0,0,0,0,0,0.6c0,0,0,0.3-0.2,0.5l-1,0.101L22.3,46c0,0-0.8,0.1-1.2,0.3c0,0-0.4,0.2-0.4,0.601
		c0,0,0,0.199,0.2,0.3c0,0,0.4,0.1,0.9,0l0.9-0.101L24,47h0.5c0,0,0.3,0,0.4,0.2c0,0,0.1,0.399,0.3,1.3c0,0,0.2,0.8,0.3,1.2
		c0,0,0.1,0.2,0,0.3c0,0-0.1,0.1-0.3,0.2l-1,0.3c0,0-0.6,0.2-1,0.4c0,0-0.2,0.1-0.3,0.199c0,0-0.1,0.2-0.1,0.301
		c0,0,0,0.1,0.2,0.199c0,0,0.2,0.101,0.5,0.101c0,0,0.5-0.101,0.9-0.2l1-0.2c0,0,0.5-0.1,0.8,0.3l0.4,0.7L27,53c0,0,0,0.1,0.2,0.3
		c0,0,0.1,0.101,0.1,0.3c0,0,0,0.2-0.2,0.301c0,0-0.6,0.399-1.8,1c0,0-0.3,0.199-0.6,0.399c0,0-0.4,0.3-0.5,0.601v0.3
		c0,0,0,0.2,0.1,0.3c0,0,0.2,0.1,0.4,0.1c0,0,0.2,0,0.3-0.1l1.5-0.9c0,0,0.9-0.5,1.5-0.8c0,0,0.1-0.1,0.3-0.1c0,0,0.2,0,0.3,0.1
		c0,0,1.1,0.8,1.7,1.3c0,0,1.6,1.101,2.9,1.601c0,0,1.6,0.7,2.9,1c0,0,1.2,0.3,3,0.5l2.6,0.3c0,0,3.1,0.3,6.2,0
		c0,0,1.5-0.1,2.399-0.3c0,0,1.4-0.2,3-0.601c0,0,1.101-0.3,2.101-0.699c0,0,1-0.4,1.8-1c0,0,0.6-0.4,1.7-1.301
		c0,0,0.699-0.6,1.399-1.3c0,0,0.101-0.1,0.2-0.2h0.3c0,0,0.2,0,0.5,0.2c0,0,0.4,0.2,0.5,0.2L62.9,55c0,0,0.699,0.3,1.199,0.4
		c0,0,0.2,0,0.301-0.101c0,0,0.1-0.1,0.1-0.2c0,0,0.1-0.3-0.2-0.6c0,0-0.5-0.4-1.399-0.8L61.5,53c0,0-0.2-0.1-0.2-0.2
		c0,0,0-0.1,0-0.2l0.4-0.8L62.1,51l0.2-0.5c0,0,0.101-0.3,0.4-0.3l1.1,0.1l1,0.101H65.4c0,0,0.399,0,0.6-0.101c0,0,0.1-0.1,0.1-0.3
		c0,0,0-0.2-0.1-0.2c0,0-0.7-0.399-1.6-0.6L64,48.9L63.5,48.8h-0.3c0,0-0.101,0-0.2-0.1c0,0-0.1-0.101-0.1-0.2c0,0,0-0.3,0.1-1
		c0,0,0.1-0.7,0.1-1v-0.4c0,0,0-0.199,0.101-0.3c0,0,0.6-0.2,1.6-0.1l1.601,0.1h0.5c0,0,0.399-0.1,0.399-0.399c0,0,0-0.2-0.3-0.4
		c0,0,0,0-0.5-0.2l-1.2-0.1H64h-0.4c0,0-0.199,0-0.3,0c0,0-0.1,0-0.2-0.101c0,0-0.1-0.1-0.1-0.2l-0.3-2.1c0,0-0.2-0.9-0.601-1.9
		c0,0,0.301-0.5,0.801-1.3V39c0,0,0.8-1.6,0.8-3.2c0,0,0-0.4-0.101-0.9c0,0-0.1-0.6-0.5-1.2c0,0-0.5-0.5-1.1-0.7l-0.3-0.1
		c0,0-0.2-2.6-0.9-4.2c0,0-0.399-0.7-0.7-1.1C60.2,27.6,59.7,27.1,59.1,26.9"/>
	<path id="path9502" fill="#FFFFFF" d="M58.2,28.4c0,0-0.4,0-1.3,0.3c0,0-0.7,0.2-1.4,0.5c0,0-0.7,0.2-2,1l0.3,0.7l0.101,0.2l0,0
		c0,0,0.1,0.3,0.1,0.7c0,0,0.8,0,1.4,0.3c0,0,0.699,0.3,1.199,0.9l0.301,0.3c0,0,0.199-0.2,0.5-0.3c0,0,1.5-0.5,3-0.4L60.3,32
		l-0.2-1c0,0-0.1-0.7-0.3-1.2c0,0-0.2-0.6-0.6-1.1c0,0-0.2-0.3-0.5-0.4L58.2,28.4"/>
	<path id="path9504" fill="#FFFFFF" d="M55,39.9c0,0-0.1-0.2-0.2-0.5c0,0-0.5,0.1-1,0.1c0,0-1,0-1.8-0.5c0,0-0.8-0.5-1.4-1.3
		c0,0-0.199,0.1-0.3,0.2h-0.1c0,0-1.8,0.6-3.101,0.5c0,0-1.3-0.1-2.199-0.9l0,0l0,0c0,0-1.3-1.2-1.2-3.3c0,0,0.1-1.2,0.7-3l0,0
		l0.2-0.4c0,0-1.7,0-3.5,0.1l-2.4,0.2c0,0-0.3,0-0.7,0.1l-0.7,0.1c0,0-0.8,0.2-1.3-0.1c0,0-2.2-1.3-4.6-1.9c0,0-0.9-0.2-1.3-0.2
		c0,0-0.8,0-1.2,0.4c0,0-0.7,0.9-1.1,2.1c0,0-0.3,1-0.3,2.4c0,0,0.1,0.6,0.1,0.9c0,0,0.1,0.5,0.3,0.9c0,0,0.1,0.1,0.2,0.1l0.3-0.2
		c0,0,0.2-0.1,0.3,0c0,0,0.3,0,0.4,0.3c0,0,0.1,0.3-0.1,0.6L28,38c0,0-0.5,0.8-0.8,1.5c0,0-1.3,2.7-1.3,5.8c0,0,0.1,0.101,0.1,0.2
		c0,0,0.1,0.1,0.2,0.1l0.7,0.101l0.7,0.1c0,0,0.2,0.101,0.6,0.2c0,0,0.3,0.1,0.3,0.4c0,0-0.1,0.3-0.5,0.399c0,0-0.5,0-0.7,0h-0.5
		h-0.5c0,0-0.1,0-0.2,0.101c0,0-0.1,0.1-0.1,0.199v0.2c0,0,0.1,1.101,0.6,2.2c0,0,0.2,0.2,0.5,0.1l0.7-0.1h0.6c0,0,0.2,0,0.2,0.2
		c0,0,0.1,0.1,0,0.3c0,0,0,0.1-0.2,0.2c0,0-0.7,0.2-1.1,0.399c0,0-0.1,0.101-0.2,0.2c0,0-0.1,0.101,0,0.2c0,0,0.2,0.4,0.5,0.8
		l0.6,0.8c0,0,0.2,0.301,0.8,0.2l0.7-0.3c0,0,0.4-0.1,0.7-0.1c0,0,0.2,0,0.3,0.199c0,0,0.1,0.2,0.1,0.4c0,0-0.1,0.2-0.5,0.4
		c0,0-0.5,0.199-0.6,0.399c0,0,0,0.101,0,0.2c0,0,1.3,1,2.4,1.6c0,0,1.3,0.801,2.6,1.101c0,0,1.7,0.5,2.3,0.6c0,0,1.5,0.4,3.1,0.5
		c0,0,3.3,0.4,6.9,0.2c0,0,2.9-0.2,4.5-0.6c0,0,2.6-0.4,4.9-1.7c0,0,0.8-0.5,1.3-0.9c0,0,0.7-0.5,1.2-1.1c0,0,0.1-0.101,0.1-0.2
		c0,0,0-0.1-0.1-0.1c0,0-0.301-0.101-0.4-0.2c0,0-0.2-0.101-0.3-0.4c0,0,0-0.1,0-0.3c0,0,0-0.2,0.1-0.2c0,0,0.2-0.2,0.601-0.1
		l0.6,0.1c0,0,0.4,0.101,0.6-0.3c0,0,0.601-1,0.9-1.8c0,0,0.1-0.2,0-0.3c0,0,0-0.101-0.1-0.101l-0.7-0.2c0,0-0.4-0.199-0.4-0.5
		c0,0,0.101-0.3,0.4-0.399h0.6h0.4c0,0,0.2,0,0.3-0.101c0,0,0.1-0.699,0.2-1.399c0,0,0-0.3,0-0.8c0,0,0-0.2-0.101-0.301
		c0,0,0,0-0.199-0.1H61.3l-0.8,0.1L59.7,46.2c0,0-0.4,0-0.601-0.4c0,0-0.1-0.3,0.2-0.5c0,0,0.2-0.1,0.601-0.2l0.5-0.1l0.6-0.1
		c0,0,0.4,0,0.5-0.101c0,0,0.2-0.1,0.2-0.3c0,0-0.101-1.4-0.5-2.5L61.1,41.6c0,0-1.399,1.2-3,1c0,0-1-0.2-1.899-1
		C56.1,41.5,55.4,40.8,55,39.9"/>
	<path id="path9506" d="M33.9,46.2c0,0,0.3-0.101,0.7,0c0,0,0.3,0.1,0.6,0.3c0,0,0.3,0.4,0.4,0.9c0,0,0.1,0.399,0,1.1
		c0,0-0.1,0.4-0.2,0.7c0,0-0.2,0.399-0.6,0.5c0,0-0.4,0.1-0.8,0.1c0,0-0.4-0.1-0.7-0.399c0,0-0.4-0.4-0.4-1.101c0,0,0-0.6,0.1-1.2
		c0,0,0.1-0.3,0.3-0.5C33.4,46.5,33.6,46.3,33.9,46.2"/>
	<path id="path9508" d="M45.6,52.2c0,0-0.6,0.399-1.5,0.399c0,0-0.8,0-1.5-0.399c0,0-0.4-0.2-0.5-0.601c0,0-0.2-0.399-0.1-0.8
		c0,0,0-0.3,0.2-0.6c0,0,0.2-0.3,0.5-0.5c0,0,0.6-0.4,1.4-0.4c0,0,0.8,0,1.4,0.4c0,0,0.3,0.1,0.5,0.399c0,0,0.2,0.301,0.2,0.601
		c0,0,0.1,0.399-0.101,0.8C46.1,51.6,46,52,45.6,52.2"/>
	<path id="path9510" fill="#EEC827" d="M44.3,50.3c0,0,0.5,0,0.8,0.4c0,0,0.101,0.1,0.101,0.2l0.1,0.3c0,0,0,0.2-0.1,0.3
		c0,0-0.101,0.1-0.3,0.2c0,0-0.4,0.2-0.9,0.2c0,0-0.5,0-0.9-0.301c0,0-0.3-0.3-0.2-0.6c0,0,0-0.2,0.2-0.3c0,0,0.1-0.101,0.3-0.2
		C43.3,50.4,43.8,50.2,44.3,50.3"/>
	<path id="path9512" d="M54.6,48.2c0,0-0.199,1.3-1,1.5c0,0-0.399,0.1-0.8,0c0,0-0.399-0.101-0.6-0.5c0,0-0.2-0.3-0.3-0.8
		c0,0,0-0.301,0-0.9c0,0,0.1-0.4,0.3-0.7c0,0,0.2-0.399,0.6-0.5c0,0,0.3-0.1,0.601-0.1c0,0,0.3,0,0.6,0.2C54,46.3,54.8,47,54.6,48.2
		"/>
	<path id="path9514" fill="#E72235" d="M48.6,27.8c0,0,0.7-0.2,1.301,0c0,0,1,0.4,1.8,1.5c0,0,0.6,0.8,1,2c0,0,0,0.1,0.1,0.3v0.2
		c0,0,0,0.1-0.1,0.1c0,0-0.4,0.1-0.7,0.3h-0.2c0,0-0.1,0-0.1-0.1l-0.3-0.2c0,0-0.5-0.4-1.2-0.4c0,0-0.7,0-1.2,0.3c0,0-0.6,0.4-0.9,1
		c0,0-0.3,0.6-0.199,1.3c0,0,0.1,0.5,0.399,1c0,0,0.3,0.5,0.8,0.7c0,0,0.2,0.1,0.4,0.1c0,0,0.2,0.1,0.3,0.2l0.101,0.6
		c0,0,0.1,0.2-0.2,0.3c0,0-2.9,1-4.3-0.2c0,0-0.9-0.9-0.801-2.5c0,0,0.101-1,0.601-2.7c0,0,0.3-0.9,0.899-1.8
		c0,0,0.601-0.9,1.301-1.5C47.4,28.4,48,28,48.6,27.8"/>
	<path id="path9516" fill="#E72235" d="M49.1,33.9c0,0,0,0.3,0.2,0.5c0,0,0.2,0.3,0.4,0.4h0.1c0,0,0.101,0,0.101-0.1
		c0,0,0.3-0.9,0.8-1.5c0,0,0.1-0.1,0.1-0.2c0,0,0-0.1-0.1-0.1c0,0-0.2-0.1-0.5-0.1c0,0-0.3,0-0.5,0.1c0,0-0.3,0.2-0.5,0.5
		C49.3,33.2,49.1,33.5,49.1,33.9"/>
	<path id="path9518" fill="#E72235" d="M55.9,33.8c0,0,0.6,0.6,0.699,1.4c0,0,0.101,0.8-0.199,1.6c0,0-0.301,0.8-1,1.2
		c0,0-0.7,0.5-1.5,0.5c0,0-0.801,0-1.4-0.4c0,0-0.7-0.4-1-1.1c0,0-0.4-0.7-0.3-1.6c0,0,0.1-0.9,0.6-1.5c0,0,0.4-0.5,1.2-0.9
		c0,0,0.8-0.3,1.6-0.1C54.4,33,55.3,33.2,55.9,33.8"/>
	<path id="path9520" fill="#E72235" d="M61.8,34c0,0,0.3,0.1,0.601,0.4c0,0,0.3,0.3,0.3,0.6c0,0,0.1,0.9-0.101,1.8
		c0,0-0.199,0.9-0.6,1.7c0,0-0.8,1.3-1.5,2.1c0,0-1.1,1-2.3,0.9c0,0-0.7-0.1-1.4-0.7c0,0-0.6-0.6-0.899-1.3c0,0-0.101-0.1,0-0.2
		c0,0,0-0.1,0.1-0.2l0.3-0.2c0,0,0.2-0.1,0.4,0c0,0,0.399,0.3,0.899,0.4c0,0,0.5,0.1,1-0.1c0,0,0.5-0.2,0.9-0.7c0,0,0.3-0.5,0.4-1
		c0,0,0-0.5-0.2-1c0,0-0.2-0.5-0.7-0.8c0,0-0.4-0.3-0.9-0.3c0,0-0.1,0-0.199-0.1c0,0-0.101-0.1-0.101-0.2l-0.1-0.6
		c0,0,0-0.2,0.2-0.3c0,0,1-0.3,2-0.4C59.7,33.8,60.8,33.7,61.8,34"/>
	<path id="path9522" fill="#E72235" d="M58.3,37.8c0,0-0.2,0.2-0.399,0.2h-0.4c0,0-0.2,0-0.3-0.2c0,0-0.101,0-0.101-0.1
		c0,0,0-0.1,0-0.2c0,0,0.2-0.5,0.4-1c0,0,0-0.1,0.1-0.1l0.101-0.1c0,0,0.3,0,0.5,0.3c0,0,0.3,0.4,0.2,0.8
		C58.5,37.5,58.5,37.6,58.3,37.8"/>
</g>
<g id="Layer_3">
	
		<text transform="matrix(1.0013 0 0 1 54.9365 68.9961)" opacity="0.8" enable-background="new    " font-family="'Helvetica-Bold'" font-size="13.6415">50</text>
</g>
</svg>
