<?xml version="1.0" encoding="utf-8"?>
<!-- Generator: Adobe Illustrator 16.0.0, SVG Export Plug-In . SVG Version: 6.00 Build 0)  -->
<!DOCTYPE svg PUBLIC "-//W3C//DTD SVG 1.1//EN" "http://www.w3.org/Graphics/SVG/1.1/DTD/svg11.dtd">
<svg version="1.1" id="svg2" xmlns:svg="http://www.w3.org/2000/svg"
	 xmlns="http://www.w3.org/2000/svg" xmlns:xlink="http://www.w3.org/1999/xlink" x="0px" y="0px" width="590px" height="590px"
	 viewBox="0 0 590 590" enable-background="new 0 0 590 590" xml:space="preserve">
<g id="g12" transform="matrix(1.25,0,0,-1.25,0,47.5)">
	<g id="g14">
		<g>
			<g id="g16">
				<g id="g22" transform="translate(12,1)">
					<path id="path24" fill="#292F33" d="M82.511-430.996c0,0-56.509,0-56.509,51.537v360.758c0,0,0,51.537,56.509,51.537h197.784
						c0,0,56.51,0,56.51-51.537v-360.758c0,0,0-51.537-56.51-51.537H82.511z"/>
				</g>
				<path id="path26" fill="#55ACEE" d="M66.256-365.576h254.293v334.989H66.256V-365.576z"/>
			</g>
		</g>
	</g>
</g>
<g id="gHzf7p.tif">
	<g>
		<path d="M350.729,556.538c-22.29-4.782-36.438-20.225-48.882-37.688c-16.481-23.13-28.323-48.812-40.435-74.349
			c-9.837-20.739-19.936-41.355-30.112-61.933c-3.212-6.493-7.896-12.357-10.434-19.067c-6.44-17.029-0.138-34.647,14.751-43.654
			c15.174-9.181,32.974-6.612,45.618,6.508c7.433,7.713,14.951,15.342,22.439,23.001c0.276,0.284,0.635,0.49,1.611,1.229
			c0-1.997,0-3.482,0-4.968c0-48.011-0.047-96.02,0.025-144.028c0.025-17.282,12.059-31.699,29.192-35.389
			c16.6-3.575,33.969,4.872,40.716,20.387c1.879,4.32,2.912,9.351,2.953,14.068c0.23,26.286,0.143,15.793,0.096,42.082
			c-0.005,1.529,0.022,38.988,0.022,41.05c2.811-2.307,4.801-3.774,7.401-5.226c11.438-6.38,27.367-3.04,37.445,8.006
			c3.316,3.632,5.816,8.007,8.86,12.284c9.61-5.561,20.188-7.258,31.213-3.485c10.847,3.713,18.39,11.161,22.663,21.201
			c5.911-1.59,11.515-3.852,17.302-4.515c21.104-2.42,39.738,14.604,39.745,35.832c0.01,31.863-0.335,63.73,0.092,95.589
			c0.478,35.63-14.11,63.992-40.25,87.177c-12.151,10.78-25.972,18.951-40.576,25.889
			C425.035,556.538,387.883,556.538,350.729,556.538z M360.16,277.448c0-25.291,0.03-50.582-0.015-75.875
			c-0.021-11.662-10.878-20.126-22.216-17.436c-9.423,2.237-14.482,9.141-14.485,19.962c-0.019,54.44-0.009,108.882-0.003,163.323
			c0,1.141-0.002,2.293,0.146,3.42c0.759,5.685-0.732,9.243-4.767,11.218c-4.291,2.099-8.06,0.958-12.141-3.277
			c-13.082-13.574-26.199-27.117-39.391-40.587c-5.979-6.104-14.244-7.134-21.589-2.987c-7.316,4.13-10.836,11.313-8.167,19.603
			c1.841,5.713,5.539,10.811,8.24,16.267c10.12,20.444,20.398,40.814,30.19,61.415c11.642,24.49,22.976,49.131,38.075,71.769
			c6.676,10.01,13.979,19.53,23.739,26.824c5.472,4.087,11.416,7.021,18.465,7.021c32.865-0.003,65.729,0.024,98.594-0.062
			c2.056-0.007,4.442-0.367,6.104-1.444c10.386-6.739,21.373-12.833,30.728-20.821c20.556-17.553,32.676-39.975,33.012-67.495
			c0.404-33.431,0.119-66.871,0.081-100.308c-0.012-9.508-7.27-17.128-16.758-17.815c-11.473-0.83-19.594,6.904-19.733,19.03
			c-0.164,14.143-0.109,28.287-0.239,42.431c-0.06,6.385-5.133,10.409-11.137,9.032c-4.509-1.035-6.974-4.625-6.979-10.396
			c-0.025-20.005,0.206-40.014-0.191-60.011c-0.08-3.979-1.719-8.467-4.02-11.752c-4.378-6.255-12.864-8.239-20.023-5.81
			c-7.839,2.661-12.154,8.646-12.271,17.618c-0.184,14.142,0.004,28.292-0.377,42.427c-0.071,2.678-1.352,6.335-3.337,7.688
			c-2.312,1.574-6.253,2.041-9.055,1.315c-4.092-1.059-5.623-4.855-5.618-9.121c0.024-20.433,0.069-40.867-0.015-61.3
			c-0.048-11.674-10.925-20.069-22.302-17.401c-9.22,2.163-14.081,8.452-14.186,18.688c-0.143,13.999-0.207,28-0.18,42.002
			c0.01,4.169-1.584,7.216-5.321,8.971c-6.363,2.989-12.823-1.688-12.841-9.391C360.128,328.604,360.16,303.025,360.16,277.448z"/>
		<path fill="#EEEEEE" d="M360.16,277.448c0,25.577-0.032,51.155,0.021,76.731c0.018,7.702,6.478,12.38,12.841,9.391
			c3.737-1.755,5.331-4.802,5.321-8.971c-0.027-14.002,0.037-28.003,0.18-42.002c0.104-10.235,4.966-16.524,14.186-18.688
			c11.377-2.668,22.254,5.729,22.302,17.401c0.084,20.433,0.039,40.867,0.015,61.3c-0.005,4.266,1.526,8.062,5.618,9.121
			c2.802,0.725,6.741,0.259,9.055-1.316c1.986-1.352,3.266-5.009,3.337-7.687c0.381-14.135,0.193-28.285,0.377-42.427
			c0.116-8.974,4.433-14.957,12.271-17.618c7.158-2.431,15.646-0.445,20.022,5.81c2.301,3.285,3.938,7.771,4.02,11.752
			c0.397,19.997,0.167,40.006,0.191,60.011c0.007,5.771,2.472,9.361,6.979,10.396c6.004,1.377,11.078-2.647,11.137-9.032
			c0.13-14.144,0.075-28.289,0.239-42.431c0.141-12.126,8.262-19.861,19.733-19.03c9.488,0.688,16.746,8.309,16.758,17.815
			c0.038,33.437,0.323,66.877-0.081,100.308c-0.335,27.521-12.456,49.942-33.012,67.495c-9.354,7.988-20.342,14.082-30.728,20.821
			c-1.661,1.077-4.049,1.438-6.104,1.443c-32.864,0.087-65.729,0.06-98.594,0.062c-7.049,0-12.993-2.935-18.465-7.021
			c-9.762-7.294-17.063-16.813-23.739-26.823c-15.1-22.639-26.434-47.277-38.075-71.769c-9.792-20.601-20.07-40.971-30.19-61.415
			c-2.701-5.456-6.399-10.554-8.24-16.267c-2.67-8.288,0.851-15.473,8.167-19.604c7.346-4.146,15.61-3.115,21.589,2.988
			c13.192,13.469,26.308,27.012,39.392,40.587c4.08,4.235,7.849,5.376,12.14,3.277c4.033-1.975,5.525-5.533,4.767-11.218
			c-0.148-1.127-0.146-2.279-0.146-3.42c-0.006-54.44-0.016-108.881,0.003-163.323c0.003-10.822,5.062-17.726,14.486-19.962
			c11.337-2.691,22.194,5.774,22.215,17.436C360.19,226.866,360.16,252.157,360.16,277.448z"/>
	</g>
</g>
</svg>
