<?xml version="1.0" encoding="utf-8"?>
<!-- Generator: Adobe Illustrator 16.0.0, SVG Export Plug-In . SVG Version: 6.00 Build 0)  -->
<!DOCTYPE svg PUBLIC "-//W3C//DTD SVG 1.1//EN" "http://www.w3.org/Graphics/SVG/1.1/DTD/svg11.dtd">
<svg version="1.1" id="Layer_1" xmlns="http://www.w3.org/2000/svg" xmlns:xlink="http://www.w3.org/1999/xlink" x="0px" y="0px"
	 width="34px" height="34px" viewBox="0 0 34 34" enable-background="new 0 0 34 34" xml:space="preserve">
<linearGradient id="SVGID_1_" gradientUnits="userSpaceOnUse" x1="16.9995" y1="2.6875" x2="16.9995" y2="31.313">
	<stop  offset="0" style="stop-color:#E90000"/>
	<stop  offset="1" style="stop-color:#7A0000"/>
</linearGradient>
<path fill="url(#SVGID_1_)" d="M32.125,29.312c0,1.104-0.896,2-2,2H3.875c-1.104,0-2-0.896-2-2V4.688c0-1.104,0.896-2,2-2h26.25
	c1.104,0,2,0.896,2,2V29.312z"/>
<path fill="none" stroke="#FFFFFF" stroke-width="1.4" stroke-linejoin="round" stroke-miterlimit="10" d="M17.054,7.67
	c0.451,0.223,0.357,0.512,0.219,1.876c-0.143,1.408-0.617,3.979-1.534,6.509c-0.917,2.524-2.279,5.006-3.465,6.842
	c-1.185,1.838-2.199,3.033-2.973,3.723c-0.776,0.688-1.313,0.873-1.664,0.936c-0.348,0.061-0.506,0-0.6-0.186
	c-0.095-0.186-0.127-0.489-0.046-0.859c0.079-0.367,0.267-0.795,0.803-1.345c0.541-0.552,1.425-1.228,2.659-1.853
	c1.234-0.627,2.815-1.211,4.114-1.609c1.298-0.396,2.309-0.61,3.196-0.78s1.646-0.289,2.391-0.353c0.742-0.061,1.472-0.061,2.186,0
	c0.711,0.062,1.406,0.183,2.01,0.337c0.602,0.153,1.106,0.335,1.551,0.631c0.44,0.287,0.822,0.687,1.013,1.132
	c0.19,0.444,0.19,0.936,0.032,1.287c-0.157,0.352-0.478,0.566-0.84,0.689c-0.361,0.121-0.773,0.151-1.267,0
	c-0.489-0.154-1.062-0.492-1.661-0.937c-0.602-0.446-1.232-0.996-2.058-1.854c-0.821-0.855-1.837-2.02-2.688-3.151
	c-0.854-1.134-1.552-2.235-2.026-3.169c-0.473-0.935-0.727-1.7-0.933-2.465c-0.206-0.767-0.364-1.532-0.427-2.221
	c-0.063-0.688-0.034-1.303,0.03-1.793c0.063-0.488,0.16-0.858,0.317-1.104c0.158-0.241,0.38-0.367,0.539-0.427
	c0.158-0.061,0.254-0.061,0.347-0.077c0.094-0.016,0.188-0.046,0.334,0c0.137,0.044,0.32,0.161,0.503,0.28"/>
</svg>
