<?xml version="1.0" encoding="utf-8"?>
<!-- Generator: Adobe Illustrator 16.0.0, SVG Export Plug-In . SVG Version: 6.00 Build 0)  -->
<!DOCTYPE svg PUBLIC "-//W3C//DTD SVG 1.1//EN" "http://www.w3.org/Graphics/SVG/1.1/DTD/svg11.dtd">
<svg version="1.1"
	 id="svg2963" xmlns:dc="http://purl.org/dc/elements/1.1/" xmlns:cc="http://web.resource.org/cc/" xmlns:rdf="http://www.w3.org/1999/02/22-rdf-syntax-ns#" xmlns:svg="http://www.w3.org/2000/svg" sodipodi:version="0.32" inkscape:output_extension="org.inkscape.output.svg.inkscape" sodipodi:docbase="/home/dobey/Projects/gnome-icon-theme/scalable/emblems" xmlns:sodipodi="http://sodipodi.sourceforge.net/DTD/sodipodi-0.dtd" xmlns:inkscape="http://www.inkscape.org/namespaces/inkscape" sodipodi:docname="emblem-package.svg" inkscape:version="0.45"
	 xmlns="http://www.w3.org/2000/svg" xmlns:xlink="http://www.w3.org/1999/xlink" x="0px" y="0px" width="41px" height="41px"
	 viewBox="3 4.219 41 41" enable-background="new 3 4.219 41 41" xml:space="preserve">
<sodipodi:namedview  id="base" fill="#e9b96e" stroke="#c17d11" inkscape:showpageshadow="false" inkscape:grid-bbox="true" borderopacity="0.16470588" showgrid="false" bordercolor="#666666" inkscape:cx="39.429646" inkscape:cy="6.8455345" pagecolor="#ffffff" inkscape:zoom="11.313708" inkscape:pageopacity="0.0" inkscape:current-layer="layer1" inkscape:document-units="px" inkscape:window-x="605" inkscape:window-y="131" inkscape:pageshadow="2" inkscape:window-width="1051" inkscape:window-height="891">
	</sodipodi:namedview>
<g id="layer1" inkscape:label="Layer 1" inkscape:groupmode="layer">
	<g id="g3713" transform="matrix(1.000001,0,0,0.818184,-3.376531e-6,7.363559)" opacity="0.4">
		
			<radialGradient id="rect1907_1_" cx="7.8391" cy="-50.2796" r="4.999" gradientTransform="matrix(0.99 0 0 -0.9 29.3045 -4.7536)" gradientUnits="userSpaceOnUse">
			<stop  offset="0" style="stop-color:#000000"/>
			<stop  offset="1" style="stop-color:#000000;stop-opacity:0"/>
		</radialGradient>
		<rect id="rect1907" x="37.065" y="35" fill="url(#rect1907_1_)" width="4.936" height="11"/>
		
			<radialGradient id="rect3689_1_" cx="-560.8406" cy="958.7231" r="5.0005" gradientTransform="matrix(-0.99 0 0 0.9 -545.302 -822.355)" gradientUnits="userSpaceOnUse">
			<stop  offset="0" style="stop-color:#000000"/>
			<stop  offset="1" style="stop-color:#000000;stop-opacity:0"/>
		</radialGradient>
		<rect id="rect3689" x="5" y="35" fill="url(#rect3689_1_)" width="4.935" height="11"/>
		
			<linearGradient id="rect3693_1_" gradientUnits="userSpaceOnUse" x1="-19.3498" y1="-106.2325" x2="-19.3498" y2="-95.2325" gradientTransform="matrix(1.1795 0 0 -0.8182 46.324 -40.9182)">
			<stop  offset="0" style="stop-color:#000000;stop-opacity:0"/>
			<stop  offset="0.5" style="stop-color:#000000"/>
			<stop  offset="1" style="stop-color:#000000;stop-opacity:0"/>
		</linearGradient>
		<rect id="rect3693" x="9.935" y="35" fill="url(#rect3693_1_)" width="27.129" height="11"/>
	</g>
	
		<linearGradient id="rect3115_1_" gradientUnits="userSpaceOnUse" x1="24.3569" y1="91.7051" x2="22.818" y2="126.7467" gradientTransform="matrix(1 0 0 -1.3299 0 179.0602)">
		<stop  offset="0" style="stop-color:#EABA6F"/>
		<stop  offset="1" style="stop-color:#B97A1B"/>
	</linearGradient>
	
		<path id="rect3115" inkscape:r_cy="true" inkscape:r_cx="true" sodipodi:nodetypes="ccccccccccccc" fill="url(#rect3115_1_)" stroke="#A0670C" stroke-width="1" d="
		M11.762,11.65L23,10.963l0.031,0.688h11.735c1.343,0,2.175,0.505,2.737,1.895l1.938,5.83v20.619c0,1.326-1.082,2.395-2.425,2.395
		H9.887c-1.343,0-2.424-1.068-2.424-2.395V19.375l1.875-5.955C9.712,12.343,10.418,11.65,11.762,11.65z"/>
	
		<linearGradient id="path3847_1_" gradientUnits="userSpaceOnUse" x1="24.7275" y1="20.0679" x2="44.2826" y2="4.6883" gradientTransform="matrix(1 0 0 -1 0 49.0001)">
		<stop  offset="0" style="stop-color:#FFFFFF"/>
		<stop  offset="1" style="stop-color:#FFFFFF;stop-opacity:0"/>
	</linearGradient>
	
		<path id="path3847" inkscape:r_cy="true" inkscape:r_cx="true" sodipodi:nodetypes="ccccccccccc" opacity="0.5055" fill="none" stroke="url(#path3847_1_)" stroke-width="1" enable-background="new    " d="
		M12.493,12.613h21.566c1.26,0,2.039,0.474,2.566,1.776l1.816,5.465v19.703c0,1.243-0.639,1.869-1.898,1.869H10.235
		c-1.259,0-1.772-0.688-1.772-1.932V19.854l1.758-5.582C10.572,13.262,11.234,12.613,12.493,12.613z"/>
	
		<path id="path4740" inkscape:r_cy="true" inkscape:r_cx="true" sodipodi:nodetypes="ccccccccc" opacity="0.5055" fill-opacity="0.7557" enable-background="new    " d="
		M8.375,19.875l14.688,0.375l-0.038-4.687l6.559-0.157l-6.566-0.218L23,13.125l-0.289-0.032L22.625,19L8.375,19.875z"/>
	<path id="path4742" inkscape:r_cy="true" inkscape:r_cx="true" sodipodi:nodetypes="cccccc" fill="#F5DDB8" d="M8.5,19.813
		l14.125-0.781l0.125-6.906l-0.469,6.406L9.312,19.438L8.5,19.813z"/>
	<path id="path4744" inkscape:r_cy="true" inkscape:r_cx="true" sodipodi:nodetypes="cccccc" fill="#DCBD8E" d="M22.312,18.563
		L8,19.688l1.875-6.25c0.5-0.99,1.396-1.384,2.562-1.375l10.344-0.625L22.312,18.563z"/>
	
		<linearGradient id="path4746_1_" gradientUnits="userSpaceOnUse" x1="35.1982" y1="32.8282" x2="26.5727" y2="32.8907" gradientTransform="matrix(1 0 0 -1 0 49.0001)">
		<stop  offset="0" style="stop-color:#000000"/>
		<stop  offset="1" style="stop-color:#000000;stop-opacity:0"/>
	</linearGradient>
	
		<path id="path4746" inkscape:r_cy="true" inkscape:r_cx="true" sodipodi:nodetypes="ccccc" opacity="0.4286" fill="url(#path4746_1_)" enable-background="new    " d="
		M23,13.125v5.938l14.688,0.062l-2.223-5.93L23,13.125z"/>
	
		<path id="path4748" inkscape:r_cy="true" inkscape:r_cx="true" sodipodi:nodetypes="cccccc" fill="#C68B31" stroke="#A0670C" stroke-linejoin="round" d="
		M39.312,19.375l-14.562-6.75L24.5,4.938l11.574,6.707c0.43,0.315,0.902,0.755,1.176,1.293L39.312,19.375z"/>
	
		<linearGradient id="path4758_1_" gradientUnits="userSpaceOnUse" x1="28.0625" y1="29.501" x2="23.9375" y2="29.501" gradientTransform="matrix(1 0 0 -1 0 49.0001)">
		<stop  offset="0" style="stop-color:#FFFFFF"/>
		<stop  offset="1" style="stop-color:#FFFFFF;stop-opacity:0"/>
	</linearGradient>
	
		<path id="path4758" inkscape:r_cy="true" inkscape:r_cx="true" opacity="0.2308" fill="url(#path4758_1_)" enable-background="new    " d="
		M23,19v1h15l-0.438-1H23z"/>
	
		<linearGradient id="path4768_1_" gradientUnits="userSpaceOnUse" x1="22.9736" y1="41.5674" x2="29.8237" y2="37.2364" gradientTransform="matrix(1 0 0 -1 0 49.0001)">
		<stop  offset="0" style="stop-color:#FCF3E6"/>
		<stop  offset="1" style="stop-color:#FCF3E6;stop-opacity:0"/>
	</linearGradient>
	<path id="path4768" inkscape:r_cy="true" inkscape:r_cx="true" fill="url(#path4768_1_)" d="M25.191,12.247l-0.178-6.408
		l9.988,5.789L25.5,6.413l0.177,5.524l3.491,2.166L25.191,12.247z"/>
	<path id="path4528" inkscape:r_cy="true" inkscape:r_cx="true" opacity="0.1099" fill="#FFFFFF" enable-background="new    " d="
		M23,19l-0.062-3.438l6.875-0.125l0.375,0.25l-7,0.062L23,19z"/>
</g>
</svg>
