<?xml version="1.0" encoding="UTF-8" standalone="no"?>
<svg
   viewBox="0 0 96 96"
   fill="#FFF"
   version="1.1"
   id="svg17"
   sodipodi:docname="Projects.svg"
   inkscape:version="1.1.2 (0a00cf5339, 2022-02-04)"
   xmlns:inkscape="http://www.inkscape.org/namespaces/inkscape"
   xmlns:sodipodi="http://sodipodi.sourceforge.net/DTD/sodipodi-0.dtd"
   xmlns="http://www.w3.org/2000/svg"
   xmlns:svg="http://www.w3.org/2000/svg">
  <defs
     id="defs21" />
  <sodipodi:namedview
     id="namedview19"
     pagecolor="#ffffff"
     bordercolor="#666666"
     borderopacity="1.0"
     inkscape:pageshadow="2"
     inkscape:pageopacity="0.0"
     inkscape:pagecheckerboard="0"
     showgrid="false"
     inkscape:zoom="5.6770833"
     inkscape:cx="40.601835"
     inkscape:cy="39.985321"
     inkscape:window-width="1440"
     inkscape:window-height="759"
     inkscape:window-x="0"
     inkscape:window-y="32"
     inkscape:window-maximized="1"
     inkscape:current-layer="svg17" />
  <path
     fill="#ffb900"
     d="M 45,18.95 40.7574,13.85888 C 39.6321,12.50852 38.106,11.75 36.5147,11.75 H 9 c -1.6569,0 -3,1.61172 -3,3.6 v 67.2 c 0,0.66276 0.4477,1.2 1,1.2 h 82 c 0.5523,0 1,-0.53724 1,-1.2 v -60 c 0,-1.98828 -1.3431,-3.6 -3,-3.6 z"
     id="path2"
     style="stroke-width:1.09545" />
  <path
     fill="#ffd75e"
     d="m 45,18.95 -4.2426,5.09112 C 39.6321,25.39148 38.106,26.15 36.5147,26.15 H 6 v 56.4 c 0,0.66276 0.4477,1.2 1,1.2 h 82 c 0.5523,0 1,-0.53724 1,-1.2 v -60 c 0,-1.98828 -1.3431,-3.6 -3,-3.6 z"
     id="path4"
     style="stroke-width:1.09545" />
  <linearGradient
     id="a"
     x1="48"
     x2="48"
     y1="24"
     y2="78"
     gradientUnits="userSpaceOnUse"
     gradientTransform="matrix(1,0,0,1.2,0,-9.85)">
    <stop
       offset="0"
       stop-color="#fff"
       stop-opacity="0"
       id="stop6" />
    <stop
       offset="1"
       stop-color="#ffd75e"
       stop-opacity=".3"
       id="stop8" />
  </linearGradient>
  <path
     fill="url(#a)"
     d="m 45,18.95 -4.2426,5.09112 C 39.6321,25.39148 38.106,26.15 36.5147,26.15 H 6 v 56.4 c 0,0.66276 0.4477,1.2 1,1.2 h 82 c 0.5523,0 1,-0.53724 1,-1.2 v -60 c 0,-1.98828 -1.3431,-3.6 -3,-3.6 z"
     id="path11"
     style="fill:url(#a);stroke-width:1.09545" />
  <path
     opacity="0.4"
     d="m 6,26.15 v 1.2 h 30.6005 c 1.8565,0 3.637,-0.885 4.9497,-2.46036 L 46.5,18.95 H 45 l -4.2426,5.09112 C 39.6321,25.39148 38.106,26.15 36.5147,26.15 Z"
     id="path13"
     style="stroke-width:1.09545" />
  <path
     fill="#da7b16"
     d="M 89,83.75 H 7 c -0.5523,0 -1,-0.53724 -1,-1.2 v 0 h 84 v 0 c 0,0.66276 -0.4477,1.2 -1,1.2 z"
     id="path15"
     style="stroke-width:1.09545" />
</svg>
