<?xml version="1.0" encoding="utf-8"?>
<!-- Generator: Adobe Illustrator 16.0.0, SVG Export Plug-In . SVG Version: 6.00 Build 0)  -->
<!DOCTYPE svg PUBLIC "-//W3C//DTD SVG 1.1//EN" "http://www.w3.org/Graphics/SVG/1.1/DTD/svg11.dtd">
<svg version="1.1" id="Layer_1" xmlns="http://www.w3.org/2000/svg" xmlns:xlink="http://www.w3.org/1999/xlink" x="0px" y="0px"
	 width="50px" height="50px" viewBox="-1 -1 50 50" enable-background="new -1 -1 50 50" xml:space="preserve">
<path fill="none" stroke="#3C2415" stroke-width="3" stroke-miterlimit="10" d="M36,16.487c0,1.104-0.896,2-2,2H14
	c-1.104,0-2-0.896-2-2v-8c0-1.104,0.896-2,2-2h20c1.104,0,2,0.896,2,2V16.487z"/>
<linearGradient id="SVGID_1_" gradientUnits="userSpaceOnUse" x1="306" y1="-335.2119" x2="306" y2="-367.2124" gradientTransform="matrix(1 0 0 -1 -282 -323)">
	<stop  offset="0" style="stop-color:#FF3333"/>
	<stop  offset="1" style="stop-color:#660000"/>
</linearGradient>
<path fill="url(#SVGID_1_)" d="M48,39.945c0,2.356-1.791,4.267-4,4.267H4c-2.209,0-4-1.91-4-4.267V16.479
	c0-2.356,1.791-4.267,4-4.267h40c2.209,0,4,1.911,4,4.267V39.945z"/>
<rect y="23.163" fill="#4C0C0C" width="48" height="2.672"/>
<linearGradient id="SVGID_2_" gradientUnits="userSpaceOnUse" x1="23.9995" y1="20.3701" x2="23.9995" y2="30.3345">
	<stop  offset="0" style="stop-color:#CCCCCC"/>
	<stop  offset="1" style="stop-color:#666666"/>
</linearGradient>
<path fill="url(#SVGID_2_)" d="M27.469,28.334c0,1.104-0.895,2-2,2h-2.938c-1.104,0-2-0.896-2-2V22.37c0-1.104,0.896-2,2-2h2.938
	c1.105,0,2,0.896,2,2V28.334z"/>
</svg>
