<svg width="48" height="48" xmlns="http://www.w3.org/2000/svg">

 <g>
  <title>background</title>
  <rect fill="none" id="canvas_background" height="402" width="582" y="-1" x="-1"/>
 </g>
 <g>
  <title>Layer 1</title>
  <path id="svg_1" fill="none" d="m0,0l48,0l0,48l-48,0l0,-48z"/>
  <path id="svg_2" d="m32,2l-24,0c-2.21,0 -4,1.79 -4,4l0,28l4,0l0,-28l24,0l0,-4zm6,8l-22,0c-2.21,0 -4,1.79 -4,4l0,28c0,2.21 1.79,4 4,4l22,0c2.21,0 4,-1.79 4,-4l0,-28c0,-2.21 -1.79,-4 -4,-4zm0,32l-22,0l0,-28l22,0l0,28z"/>
 </g>
</svg>