<?xml version="1.0" encoding="utf-8"?>
<!-- Generator: Adobe Illustrator 16.0.0, SVG Export Plug-In . SVG Version: 6.00 Build 0)  -->
<!DOCTYPE svg PUBLIC "-//W3C//DTD SVG 1.1//EN" "http://www.w3.org/Graphics/SVG/1.1/DTD/svg11.dtd">
<svg version="1.1" id="Layer_1" xmlns="http://www.w3.org/2000/svg" xmlns:xlink="http://www.w3.org/1999/xlink" x="0px" y="0px"
	 width="22px" height="22px" viewBox="0 0 22 22" enable-background="new 0 0 22 22" xml:space="preserve">
<g transform="translate(0 -1028.4)">
	<g>
		<path fill="#E67E22" d="M11,1046.9l-5.4,2.9c-0.2,0.1-0.3,0.1-0.5,0.1c-0.2,0-0.3-0.1-0.4-0.2c-0.1-0.1-0.1-0.2-0.1-0.4
			c0,0,0-0.1,0-0.2l1-6.1l-4.4-4.2c-0.2-0.2-0.3-0.4-0.3-0.6c0-0.3,0.2-0.5,0.7-0.5l6-0.9l2.7-5.5c0.2-0.3,0.3-0.5,0.6-0.5
			s0.4,0.2,0.6,0.5"/>
	</g>
	<g>
		<path fill="#F1C40F" d="M11,1045.9l-5.4,2.9c-0.2,0.1-0.3,0.1-0.5,0.1c-0.2,0-0.3-0.1-0.4-0.2c-0.1-0.1-0.1-0.2-0.1-0.4
			c0,0,0-0.1,0-0.2l1-6.1l-4.4-4.2c-0.2-0.2-0.3-0.4-0.3-0.6c0-0.3,0.2-0.5,0.7-0.5l6-0.9l2.7-5.5c0.2-0.3,0.3-0.5,0.6-0.5
			s0.4,0.2,0.6,0.5"/>
	</g>
</g>
</svg>
