<?xml version="1.0" encoding="utf-8"?>
<!-- Generator: Adobe Illustrator 16.0.0, SVG Export Plug-In . SVG Version: 6.00 Build 0)  -->
<!DOCTYPE svg PUBLIC "-//W3C//DTD SVG 1.1//EN" "http://www.w3.org/Graphics/SVG/1.1/DTD/svg11.dtd">
<svg version="1.1"
	 id="Layer_1" xmlns:cc="http://creativecommons.org/ns#" xmlns:rdf="http://www.w3.org/1999/02/22-rdf-syntax-ns#" xmlns:dc="http://purl.org/dc/elements/1.1/"
	 xmlns="http://www.w3.org/2000/svg" xmlns:xlink="http://www.w3.org/1999/xlink" x="0px" y="0px" width="22px" height="22px"
	 viewBox="1 1 22 22" enable-background="new 1 1 22 22" xml:space="preserve">
<g transform="translate(0 -1028.4)">
	<g>
		<path fill="#E67E22" d="M12,1047.95l-5.396,2.9c-0.176,0.1-0.337,0.1-0.481,0.1c-0.168,0-0.296-0.1-0.385-0.199
			c-0.08-0.102-0.12-0.201-0.12-0.4c0,0,0.008-0.1,0.024-0.201l1.034-6.1L2.3,1039.85c-0.2-0.2-0.3-0.4-0.3-0.601
			c0-0.3,0.225-0.5,0.673-0.5l6.034-0.899l2.705-5.5c0.152-0.301,0.349-0.5,0.589-0.5s0.437,0.199,0.589,0.5"/>
	</g>
	<g>
		<path fill="#F1C40F" d="M12,1046.95l-5.396,2.9c-0.176,0.1-0.337,0.1-0.481,0.1c-0.168,0-0.296-0.1-0.385-0.199
			c-0.08-0.102-0.12-0.201-0.12-0.4c0,0,0.008-0.1,0.024-0.201l1.034-6.1L2.3,1038.85c-0.2-0.2-0.3-0.4-0.3-0.601
			c0-0.3,0.225-0.5,0.673-0.5l6.034-0.899l2.705-5.5c0.152-0.301,0.349-0.5,0.589-0.5s0.437,0.199,0.589,0.5"/>
	</g>
</g>
</svg>
