<?xml version="1.0" encoding="utf-8"?>
<!-- Svg Vector Icons : http://www.onlinewebfonts.com/icon -->
<!DOCTYPE svg PUBLIC "-//W3C//DTD SVG 1.1//EN" "http://www.w3.org/Graphics/SVG/1.1/DTD/svg11.dtd">
<svg version="1.1" xmlns="http://www.w3.org/2000/svg" xmlns:xlink="http://www.w3.org/1999/xlink" x="0px" y="0px" viewBox="-100 -150 1200 1200" enable-background="new 0 0 1000 1000" xml:space="preserve">
<metadata> Svg Vector Icons : http://www.onlinewebfonts.com/icon </metadata>
<g><path d="M945.5,500c-24.6,0-44.5,19.9-44.5,44.5v311.8c0,24.6-19.9,44.5-44.5,44.5H143.6c-24.6,0-44.5-19.9-44.5-44.5V143.6c0-24.6,19.9-44.5,44.5-44.5h311.8c24.6,0,44.5-19.9,44.5-44.5c0-24.6-19.9-44.5-44.5-44.5H143.6C69.8,10,10,69.8,10,143.6v712.7C10,930.2,69.8,990,143.6,990h712.7c73.8,0,133.6-59.8,133.6-133.6V544.5C990,519.9,970.1,500,945.5,500z M990,54.5v267.3c0,24.6-19.9,44.5-44.5,44.5c-24.6,0-44.5-19.9-44.5-44.5V162.1L536,527c-17.4,17.4-45.6,17.4-63,0c-17.4-17.4-17.4-45.6,0-63L837.9,99.1H678.2c-24.6,0-44.5-19.9-44.5-44.5c0-24.6,19.9-44.5,44.5-44.5h267.3C970.1,10,990,29.9,990,54.5z"/></g>
</svg>