<?xml version="1.0" encoding="utf-8"?>
<!-- Generator: Adobe Illustrator 16.0.0, SVG Export Plug-In . SVG Version: 6.00 Build 0)  -->
<!DOCTYPE svg PUBLIC "-//W3C//DTD SVG 1.1//EN" "http://www.w3.org/Graphics/SVG/1.1/DTD/svg11.dtd">
<svg version="1.1" id="Layer_1" xmlns="http://www.w3.org/2000/svg" xmlns:xlink="http://www.w3.org/1999/xlink" x="0px" y="0px"
	 width="32px" height="31px" viewBox="-1 -0.5 32 31" enable-background="new -1 -0.5 32 31" xml:space="preserve">
<polyline fill="#EA4C3A" points="30.018,29.334 0,29.334 0,0.667 30.018,0.667 30.018,29.334 "/>
<path fill="none" stroke="#FFFFFF" stroke-width="1.4" stroke-linejoin="round" stroke-miterlimit="10" d="M15.372,5.043
	c0.452,0.213,0.358,0.489,0.219,1.793c-0.142,1.345-0.618,3.802-1.535,6.219c-0.918,2.413-2.28,4.784-3.467,6.538
	c-1.186,1.756-2.201,2.898-2.975,3.557c-0.777,0.658-1.314,0.834-1.665,0.893c-0.348,0.059-0.506,0-0.6-0.176
	c-0.094-0.178-0.127-0.467-0.046-0.82c0.079-0.352,0.268-0.76,0.804-1.285c0.541-0.527,1.426-1.172,2.661-1.771
	s2.817-1.156,4.116-1.537c1.299-0.379,2.311-0.584,3.197-0.746c0.888-0.162,1.647-0.277,2.392-0.336
	c0.743-0.057,1.473-0.057,2.186,0c0.712,0.059,1.408,0.174,2.011,0.322c0.601,0.146,1.108,0.32,1.552,0.602
	c0.441,0.275,0.822,0.656,1.012,1.082c0.191,0.424,0.191,0.893,0.033,1.229s-0.477,0.541-0.84,0.66
	c-0.363,0.115-0.775,0.145-1.267,0c-0.49-0.148-1.062-0.471-1.662-0.895c-0.601-0.426-1.235-0.951-2.058-1.771
	c-0.823-0.818-1.838-1.93-2.691-3.012c-0.854-1.083-1.553-2.136-2.028-3.029c-0.473-0.893-0.727-1.624-0.933-2.355
	c-0.206-0.733-0.364-1.464-0.427-2.122s-0.034-1.245,0.03-1.714c0.063-0.466,0.16-0.82,0.317-1.055
	c0.158-0.23,0.381-0.35,0.539-0.408c0.158-0.058,0.254-0.058,0.348-0.073c0.094-0.015,0.188-0.044,0.333,0
	c0.138,0.042,0.321,0.154,0.504,0.268"/>
</svg>
