<?xml version="1.0" encoding="utf-8"?>
<!-- Generator: Adobe Illustrator 16.0.0, SVG Export Plug-In . SVG Version: 6.00 Build 0)  -->
<!DOCTYPE svg PUBLIC "-//W3C//DTD SVG 1.1//EN" "http://www.w3.org/Graphics/SVG/1.1/DTD/svg11.dtd">
<svg version="1.1"
	 id="Layer_1" xmlns:cc="http://creativecommons.org/ns#" xmlns:rdf="http://www.w3.org/1999/02/22-rdf-syntax-ns#" xmlns:dc="http://purl.org/dc/elements/1.1/"
	 xmlns="http://www.w3.org/2000/svg" xmlns:xlink="http://www.w3.org/1999/xlink" x="0px" y="0px" width="22px" height="22px"
	 viewBox="0 0 22 22" enable-background="new 0 0 22 22" xml:space="preserve">
<g transform="translate(0 -1028.4)">
	<g>
		<path fill="#E67E22" d="M21,1038.25c0,0.2-0.104,0.4-0.312,0.601l-4.361,4.199l1.031,6.1c0.01,0,0.014,0.102,0.014,0.201
			c0,0.199-0.045,0.299-0.133,0.399c-0.08,0.101-0.199,0.2-0.361,0.2c-0.15,0-0.311,0-0.479-0.1l-5.399-2.9l-5.396,2.9
			c-0.176,0.1-0.337,0.1-0.481,0.1c-0.168,0-0.296-0.1-0.385-0.2c-0.08-0.101-0.12-0.2-0.12-0.399c0,0,0.008-0.101,0.024-0.2
			l1.033-6.101L1.3,1038.85c-0.199-0.2-0.3-0.4-0.3-0.601c0-0.3,0.226-0.5,0.673-0.5l6.034-0.899l2.705-5.5
			c0.151-0.3,0.349-0.5,0.589-0.5s0.438,0.2,0.589,0.5l2.705,5.5l6.033,0.899C20.775,1037.75,21,1037.95,21,1038.25"/>
	</g>
	<g>
		<path fill="#F1C40F" d="M21,1037.25c0,0.2-0.104,0.4-0.312,0.601l-4.361,4.199l1.031,6.1c0.01,0,0.014,0.102,0.014,0.201
			c0,0.199-0.045,0.299-0.133,0.399c-0.08,0.101-0.199,0.2-0.361,0.2c-0.15,0-0.311,0-0.479-0.1l-5.399-2.9l-5.396,2.9
			c-0.176,0.1-0.337,0.1-0.481,0.1c-0.168,0-0.296-0.1-0.385-0.2c-0.08-0.101-0.12-0.2-0.12-0.399c0,0,0.008-0.101,0.024-0.2
			l1.033-6.101L1.3,1037.85c-0.199-0.2-0.3-0.4-0.3-0.601c0-0.3,0.226-0.5,0.673-0.5l6.034-0.899l2.705-5.5
			c0.151-0.3,0.349-0.5,0.589-0.5s0.438,0.2,0.589,0.5l2.705,5.5l6.033,0.899C20.775,1036.75,21,1036.95,21,1037.25"/>
	</g>
</g>
</svg>
