<?xml version="1.0" encoding="utf-8"?>
<!-- Generator: Adobe Illustrator 16.0.0, SVG Export Plug-In . SVG Version: 6.00 Build 0)  -->
<!DOCTYPE svg PUBLIC "-//W3C//DTD SVG 1.1//EN" "http://www.w3.org/Graphics/SVG/1.1/DTD/svg11.dtd">
<svg version="1.1" id="Layer_1" xmlns="http://www.w3.org/2000/svg" xmlns:xlink="http://www.w3.org/1999/xlink" x="0px" y="0px"
	 width="330.77px" height="259.705px" viewBox="13.462 8.392 330.77 259.705" enable-background="new 13.462 8.392 330.77 259.705"
	 xml:space="preserve">
<g>
	<path fill="#666666" d="M344.232,38.109v200.917c0,8.186-2.809,15.081-8.398,20.674c-5.605,5.602-12.709,8.397-21.32,8.397H43.179
		c-8.621,0-15.727-2.796-21.319-8.397c-5.603-5.593-8.398-12.488-8.398-20.674V38.109c0-8.176,2.796-15.071,8.398-20.673
		c6.026-6.026,13.133-9.044,21.319-9.044h271.332c8.18,0,15.283,3.018,21.32,9.044C341.423,23.038,344.232,29.933,344.232,38.109z
		 M320.328,44.569v-4.522v-1.938c0-1.716-0.221-2.584-0.646-2.584c-0.436-0.424-0.645-0.858-0.645-1.292
		c-0.436-1.292-1.08-1.938-1.939-1.938c-0.434,0.434-1.291,0.434-2.584,0H43.179c-1.292,0-2.807,0.434-4.522,1.292
		c-0.868,0.868-1.292,2.372-1.292,4.522c0,20.673,9.044,38.116,27.133,52.329c5.592,4.31,16.898,13.244,33.917,26.81
		c17.009,13.567,30.252,24.227,39.731,31.979l1.938,1.938c1.716,0.869,3.23,1.938,4.522,3.23c5.168,4.311,7.964,6.684,8.398,7.105
		c2.15,0.869,4.946,2.807,8.398,5.814c4.3,2.584,7.318,4.311,9.044,5.168c4.3,0.868,7.106,1.292,8.397,1.292
		c1.293,0,4.089-0.424,8.398-1.292c1.717-0.857,4.734-2.584,9.045-5.168c3.441-3.008,6.237-4.945,8.397-5.814
		c0.424-0.424,3.229-2.795,8.399-7.105c1.291-1.292,2.795-2.361,4.521-3.23l1.938-1.938c9.469-7.752,22.713-18.412,39.731-31.979
		c17.009-13.566,28.313-22.5,33.916-26.81c6.461-4.734,12.699-11.841,18.733-21.319C317.523,60.508,320.328,52.322,320.328,44.569z
		 M320.328,239.026V96.898c-3.875,4.311-7.977,8.398-12.273,12.275c-29.295,22.399-55.561,43.285-78.816,62.666
		c-1.727,1.291-4.422,3.341-8.076,6.138c-3.664,2.806-6.137,4.845-7.43,6.137c-5.168,3.452-10.336,6.46-15.504,9.044
		c-8.188,3.018-14.646,4.522-19.381,4.522c-4.744,0-11.205-1.505-19.381-4.522c-5.168-2.584-10.337-5.592-15.505-9.044
		c-1.292-1.292-3.775-3.331-7.43-6.137c-3.664-2.796-6.359-4.845-8.075-6.138c-23.257-19.381-49.533-40.266-78.816-62.666
		c-4.31-3.876-8.398-7.964-12.274-12.275v142.128c0,1.727,0.424,3.018,1.292,3.876c1.292,1.292,2.796,1.938,4.522,1.938h271.333
		c1.717,0,3.23-0.646,4.523-1.938C319.892,242.043,320.328,240.752,320.328,239.026z"/>
</g>
</svg>
