<?xml version="1.0" encoding="utf-8"?>
<!-- Generator: Adobe Illustrator 16.0.0, SVG Export Plug-In . SVG Version: 6.00 Build 0)  -->
<!DOCTYPE svg PUBLIC "-//W3C//DTD SVG 1.1//EN" "http://www.w3.org/Graphics/SVG/1.1/DTD/svg11.dtd">
<svg version="1.1" id="Layer_1" xmlns="http://www.w3.org/2000/svg" xmlns:xlink="http://www.w3.org/1999/xlink" x="0px" y="0px"
	 width="331.841px" height="259.883px" viewBox="12.392 8.33 331.841 259.883" enable-background="new 12.392 8.33 331.841 259.883"
	 xml:space="preserve">
<g>
	<path fill="#666666" d="M344.232,38.109c0,65.924,0,131.849,0,197.774c0,36.022-34.15,32.214-59.38,32.214
		c-41.819,0-83.64,0-125.46,0c-35.717,0-71.435,0-107.152,0c-33.979,0-38.779-22.292-38.779-50.685c0-42.405,0-84.81,0-127.213
		c0-25.25-9.793-81.807,29.869-81.807c51.656,0,103.312,0,154.968,0c30.033,0,60.067,0,90.101,0
		C310.677,8.392,344.232,5.554,344.232,38.109z M320.328,44.569c3.046-14.499-9.871-12.274-19.694-12.274
		c-25.085,0-50.169,0-75.254,0c-56.948,0-113.896,0-170.845,0c-2.58,0-8.979-1.24-11.356,0c-20.085,0,9.423,47.408,14.959,52.662
		c29.374,27.876,65.795,48.357,94.865,76.543c13.552,5.479,21.968,18.089,37.787,9.045c12.303-7.033,22.842-16.527,33.799-25.436
		C252.227,122.64,320.328,86.568,320.328,44.569z M320.328,239.026V96.898c-21.797,24.25-51.546,42.521-76.775,63.131
		c-18.074,14.767-39.648,37.651-64.705,37.651c-22.418,0-41.237-18.32-57.458-31.701c-27.459-22.649-60.223-42.611-84.022-69.082
		c0,39.629,0,79.258,0,118.887c0,5.978-3.93,29.055,6.414,29.055c12.23,0,24.461,0,36.691,0
		C102.783,244.84,320.328,251.11,320.328,239.026z"/>
</g>
</svg>
