<?xml version="1.0" encoding="utf-8"?>
<!-- Generator: Adobe Illustrator 16.0.0, SVG Export Plug-In . SVG Version: 6.00 Build 0)  -->
<!DOCTYPE svg PUBLIC "-//W3C//DTD SVG 1.1//EN" "http://www.w3.org/Graphics/SVG/1.1/DTD/svg11.dtd">
<svg version="1.1" id="Social_Icons" xmlns="http://www.w3.org/2000/svg" xmlns:xlink="http://www.w3.org/1999/xlink" x="0px"
	 y="0px" width="626px" height="626px" viewBox="-7 83 626 626" enable-background="new -7 83 626 626" xml:space="preserve">
<g id="_x31__stroke">
	<g id="Github_1_">
		<path id="Github" fill="#333333" d="M305.981,96.371C137.012,96.371,0,233.908,0,403.604
			c0,135.711,87.669,250.857,209.285,291.488c15.3,2.821,20.885-6.665,20.885-14.803c0-7.296-0.268-26.612-0.421-52.244
			c-85.125,18.565-103.083-41.187-103.083-41.187c-13.904-35.481-33.966-44.929-33.966-44.929
			c-27.789-19.068,2.104-18.681,2.104-18.681c30.695,2.171,46.856,31.661,46.856,31.661c27.311,46.947,71.624,33.393,89.065,25.518
			c2.773-19.852,10.691-33.392,19.431-41.07c-67.951-7.756-139.383-34.101-139.383-151.819c0-33.545,11.915-60.961,31.499-82.448
			c-3.156-7.774-13.655-38.996,2.983-81.296c0,0,25.704-8.257,84.15,31.489c24.423-6.818,50.586-10.212,76.615-10.351
			c25.99,0.134,52.173,3.533,76.614,10.351c58.408-39.747,84.055-31.489,84.055-31.489c16.696,42.3,6.196,73.521,3.041,81.296
			c19.622,21.487,31.46,48.902,31.46,82.448c0,118.006-71.546,143.987-139.708,151.59c10.978,9.485,20.77,28.224,20.77,56.892
			c0,41.071-0.382,74.19-0.382,84.274c0,8.219,5.508,17.781,21.037,14.765C524.407,654.347,612,539.276,612,403.604
			C612,233.908,474.988,96.371,305.981,96.371"/>
	</g>
</g>
</svg>
