<?xml version="1.0" encoding="utf-8"?>
<!-- Generator: Adobe Illustrator 16.0.0, SVG Export Plug-In . SVG Version: 6.00 Build 0)  -->
<!DOCTYPE svg PUBLIC "-//W3C//DTD SVG 1.1//EN" "http://www.w3.org/Graphics/SVG/1.1/DTD/svg11.dtd">
<svg version="1.1"
	 id="svg3070" xmlns:dc="http://purl.org/dc/elements/1.1/" xmlns:cc="http://creativecommons.org/ns#" xmlns:rdf="http://www.w3.org/1999/02/22-rdf-syntax-ns#" xmlns:svg="http://www.w3.org/2000/svg" xmlns:sodipodi="http://sodipodi.sourceforge.net/DTD/sodipodi-0.dtd" xmlns:inkscape="http://www.inkscape.org/namespaces/inkscape" sodipodi:docname="New document 4" inkscape:version="0.48.0 r9654"
	 xmlns="http://www.w3.org/2000/svg" xmlns:xlink="http://www.w3.org/1999/xlink" x="0px" y="0px" width="80px" height="80px"
	 viewBox="211.767 -0.093 80 80" enable-background="new 211.767 -0.093 80 80" xml:space="preserve">
<sodipodi:namedview  id="base" borderopacity="1.0" fit-margin-left="0" showgrid="false" bordercolor="#666666" inkscape:cx="142.93233" fit-margin-top="0" inkscape:cy="33.703355" pagecolor="#ffffff" inkscape:zoom="2.8" fit-margin-right="0" inkscape:pageopacity="0.0" inkscape:current-layer="layer1" fit-margin-bottom="0" inkscape:document-units="px" inkscape:window-x="-8" inkscape:window-maximized="1" inkscape:window-y="-8" inkscape:pageshadow="2" inkscape:window-width="1280" inkscape:window-height="750">
	</sodipodi:namedview>
<g id="layer1" transform="translate(-200.55198,-393.96227)" inkscape:label="Layer 1" inkscape:groupmode="layer">
	<g id="g3019" transform="matrix(1.018827,0,0,-1.018827,170.5996,498.03288)">
		<path id="path14" inkscape:connector-curvature="0" fill="#006699" d="M239.329,95.036c0,2.96,2.461,5.361,5.496,5.361h63.376
			c3.035,0,5.495-2.401,5.495-5.361V30.919c0-2.96-2.461-5.36-5.495-5.36h-63.376c-3.035,0-5.496,2.4-5.496,5.36V95.036z"/>
		<path id="path28" inkscape:connector-curvature="0" fill="#FFFFFF" d="M261.873,37.749v33.794H250.64V37.749H261.873z
			 M256.257,76.157c3.917,0,6.355,2.595,6.355,5.838c-0.073,3.316-2.438,5.839-6.281,5.839c-3.843,0-6.354-2.523-6.354-5.839
			c0-3.243,2.438-5.838,6.207-5.838H256.257L256.257,76.157z"/>
		<path id="path30" inkscape:connector-curvature="0" fill="#FFFFFF" d="M268.089,37.749h11.232V56.62c0,1.01,0.073,2.02,0.37,2.741
			c0.811,2.019,2.66,4.108,5.763,4.108c4.064,0,5.691-3.099,5.691-7.641v-18.08h11.231v19.377c0,10.38-5.541,15.21-12.931,15.21
			c-6.059,0-8.72-3.387-10.198-5.694h0.075v4.901h-11.232C268.236,68.372,268.089,37.749,268.089,37.749L268.089,37.749z"/>
	</g>
</g>
</svg>
