<?xml version="1.0" encoding="utf-8"?>
<!-- Generator: Adobe Illustrator 16.0.0, SVG Export Plug-In . SVG Version: 6.00 Build 0)  -->
<!DOCTYPE svg PUBLIC "-//W3C//DTD SVG 1.1//EN" "http://www.w3.org/Graphics/SVG/1.1/DTD/svg11.dtd">
<svg version="1.1" id="Layer_1" xmlns="http://www.w3.org/2000/svg" xmlns:xlink="http://www.w3.org/1999/xlink" x="0px" y="0px"
	 width="264px" height="264px" viewBox="-4 -28 264 264" enable-background="new -4 -28 264 264" xml:space="preserve">
<g>
	<path fill="#32FC8D" d="M177.735,1.676c-3.897-1.858-7.085,0.017-7.085,4.178v165.507l71.145,33.961
		c7.827,3.799,14.177,1.156,14.177-5.779V40.179c0-0.661-0.413-1.238-1.024-1.569L177.744,1.784V1.701L177.735,1.676L177.735,1.676z
		"/>
	<path fill="#0BE370" d="M85.321,130.637L166.488,4.74c2.297-3.551,7.35-4.955,11.23-3.138l77.32,36.909
		c0.495,0.248,0.677,0.826,0.388,1.239l-84.784,131.627l-85.321-40.725V130.637L85.321,130.637z"/>
	<path fill="#14C767" d="M11.808,3.922c-6.49-3.097-8.695-0.793-4.888,5.119l78.402,121.595l85.321,40.725L85.511,39.304
		c-0.124-0.19-0.297-0.347-0.496-0.446L11.808,3.931V3.922L11.808,3.922z"/>
	<path fill="#00AB6C" d="M85.321,199.477c0,6.936-5.31,10.074-11.808,6.969L7.084,174.738C3.188,172.889,0,167.967,0,163.797V8.381
		c0-5.549,4.252-8.059,9.455-5.573l75.413,36.001c0.281,0.124,0.454,0.396,0.454,0.694v159.941V199.477L85.321,199.477z"/>
</g>
</svg>
