<?xml version="1.0" encoding="utf-8"?>
<!-- Generator: Adobe Illustrator 16.0.0, SVG Export Plug-In . SVG Version: 6.00 Build 0)  -->
<!DOCTYPE svg PUBLIC "-//W3C//DTD SVG 1.1//EN" "http://www.w3.org/Graphics/SVG/1.1/DTD/svg11.dtd">
<svg version="1.1" id="Layer_1" xmlns="http://www.w3.org/2000/svg" xmlns:xlink="http://www.w3.org/1999/xlink" x="0px" y="0px"
	 width="264px" height="264px" viewBox="0 0 264 264" enable-background="new 0 0 264 264" xml:space="preserve">
<g>
	<path fill="#32FC8D" d="M181.748,29.697c-3.896-1.858-7.084,0.017-7.084,4.178v165.507l71.145,33.961
		c7.827,3.799,14.178,1.156,14.178-5.779V68.201c0-0.661-0.414-1.238-1.025-1.569l-77.203-36.826v-0.083L181.748,29.697
		L181.748,29.697z"/>
	<path fill="#0BE370" d="M89.334,158.659l81.167-125.897c2.297-3.551,7.35-4.955,11.229-3.138l77.32,36.909
		c0.495,0.248,0.677,0.826,0.388,1.239l-84.783,131.627l-85.322-40.725V158.659L89.334,158.659z"/>
	<path fill="#14C767" d="M15.822,31.943c-6.49-3.097-8.695-0.793-4.888,5.119l78.402,121.595l85.321,40.726L89.525,67.326
		c-0.124-0.19-0.297-0.347-0.496-0.446L15.822,31.953V31.943L15.822,31.943z"/>
	<path fill="#00AB6C" d="M89.334,227.498c0,6.937-5.31,10.074-11.808,6.969L11.098,202.76c-3.896-1.85-7.084-6.771-7.084-10.941
		V36.402c0-5.549,4.252-8.059,9.455-5.573l75.413,36.001c0.281,0.124,0.454,0.396,0.454,0.694v159.94L89.334,227.498L89.334,227.498
		z"/>
</g>
</svg>
