<?xml version="1.0" encoding="utf-8"?>
<!-- Generator: Adobe Illustrator 16.0.0, SVG Export Plug-In . SVG Version: 6.00 Build 0)  -->
<!DOCTYPE svg PUBLIC "-//W3C//DTD SVG 1.1//EN" "http://www.w3.org/Graphics/SVG/1.1/DTD/svg11.dtd">
<svg version="1.1" id="Layer_1" xmlns="http://www.w3.org/2000/svg" xmlns:xlink="http://www.w3.org/1999/xlink" x="0px" y="0px"
	 width="128px" height="128px" viewBox="0 0 128 128" enable-background="new 0 0 128 128" xml:space="preserve">
<path fill="#FF8000" d="M101.264,116.616v-34.16h11.385V128H9.84V82.456H21.2v34.16h80.048H101.264z M32.6,105.232h57.28V93.84H32.6
	V105.232z M33.984,79.352L89.88,91.032l2.399-11.04L36.4,68.32l-2.416,11.039V79.352z M41.232,52.392l51.76,24.16l4.816-10.399
	l-51.761-24.16l-4.816,10.32V52.392z M55.712,26.872l43.824,36.56l7.248-8.64L62.96,18.24l-7.2,8.624L55.712,26.872z M84.016,0
	l-9.312,6.904l34.159,45.88l9.312-6.896L84,0H84.016z"/>
</svg>
