<?xml version="1.0" encoding="utf-8"?>
<!-- Generator: Adobe Illustrator 16.0.0, SVG Export Plug-In . SVG Version: 6.00 Build 0)  -->
<!DOCTYPE svg PUBLIC "-//W3C//DTD SVG 1.1//EN" "http://www.w3.org/Graphics/SVG/1.1/DTD/svg11.dtd">
<svg version="1.1" id="Social_Icons" xmlns="http://www.w3.org/2000/svg" xmlns:xlink="http://www.w3.org/1999/xlink" x="0px"
	 y="0px" width="620px" height="620px" viewBox="-4 86 620 620" enable-background="new -4 86 620 620" xml:space="preserve">
<g id="_x37__stroke">
	<g id="Twitter">
		<rect x="2.005" y="90" fill="none" width="612" height="612"/>
		<path id="Twitter_1_" fill="#00AAEC" d="M614.005,201.375c-22.486,10.241-46.698,17.165-72.097,20.258
			c25.934-15.912,45.838-41.147,55.214-71.203c-24.284,14.736-51.116,25.456-79.784,31.203
			c-22.845-25.011-55.501-40.631-91.638-40.631c-69.295,0-125.513,57.647-125.513,128.745c0,10.093,1.076,19.89,3.232,29.324
			c-104.346-5.384-196.844-56.586-258.813-134.568c-10.811,19.082-16.993,41.219-16.993,64.795
			c0,44.647,22.166,84.059,55.859,107.157c-20.545-0.626-39.947-6.483-56.902-16.06v1.583c0,62.4,43.285,114.449,100.76,126.239
			c-10.523,3.022-21.625,4.533-33.086,4.533c-8.08,0-15.983-0.775-23.638-2.286c15.983,51.131,62.323,88.372,117.284,89.366
			c-42.964,34.555-97.131,55.143-155.936,55.143c-10.131,0-20.153-0.588-29.959-1.769c55.573,36.466,121.597,57.795,192.469,57.795
			c230.978,0,357.241-196.155,357.241-366.301c0-5.599-0.11-11.198-0.325-16.687C575.927,249.852,597.228,227.198,614.005,201.375"
			/>
	</g>
</g>
</svg>
