<?xml version="1.0" encoding="utf-8"?>
<!-- Generator: Adobe Illustrator 16.0.0, SVG Export Plug-In . SVG Version: 6.00 Build 0)  -->
<!DOCTYPE svg PUBLIC "-//W3C//DTD SVG 1.1//EN" "http://www.w3.org/Graphics/SVG/1.1/DTD/svg11.dtd">
<svg version="1.1" id="Layer_1" xmlns="http://www.w3.org/2000/svg" xmlns:xlink="http://www.w3.org/1999/xlink" x="0px" y="0px"
	 width="620px" height="620px" viewBox="0 0 620 620" enable-background="new 0 0 620 620" xml:space="preserve">
<g id="_x37__stroke">
	<g id="Twitter">
		<rect x="4" y="4" fill="none" width="612" height="612"/>
		<path id="Twitter_1_" fill="#00AAEC" d="M616,115.4c-22.5,10.2-46.7,17.2-72.1,20.3c25.9-15.9,45.8-41.1,55.2-71.2
			c-24.3,14.7-51.1,25.5-79.8,31.2c-22.8-25-55.5-40.6-91.6-40.6c-69.3,0-125.5,57.6-125.5,128.7c0,10.1,1.1,19.9,3.2,29.3
			c-104.3-5.4-196.8-56.6-258.8-134.6c-10.8,19.1-17,41.2-17,64.8c0,44.6,22.2,84.1,55.9,107.2c-20.5-0.6-39.9-6.5-56.9-16.1v1.6
			c0,62.4,43.3,114.4,100.8,126.2c-10.5,3-21.6,4.5-33.1,4.5c-8.1,0-16-0.8-23.6-2.3c16,51.1,62.3,88.4,117.3,89.4
			C146.9,488.4,92.8,509,34,509c-10.1,0-20.2-0.6-30-1.8C59.6,543.7,125.6,565,196.5,565c231,0,357.2-196.2,357.2-366.3
			c0-5.6-0.1-11.2-0.3-16.7C577.9,163.9,599.2,141.2,616,115.4"/>
	</g>
</g>
</svg>
