<?xml version="1.0" encoding="utf-8"?>
<!-- Generator: Adobe Illustrator 16.0.0, SVG Export Plug-In . SVG Version: 6.00 Build 0)  -->
<!DOCTYPE svg PUBLIC "-//W3C//DTD SVG 1.1//EN" "http://www.w3.org/Graphics/SVG/1.1/DTD/svg11.dtd">
<svg version="1.1" id="Layer_1" xmlns="http://www.w3.org/2000/svg" xmlns:xlink="http://www.w3.org/1999/xlink" x="0px" y="0px"
	 width="512px" height="512px" viewBox="701 640 512 512" enable-background="new 701 640 512 512" xml:space="preserve">
<path d="M1198.059,645.312c4.205-4.206,7.747-5.645,10.625-4.316s4.316,4.87,4.316,10.625v488.758c0,5.755-1.438,9.297-4.316,10.625
	s-6.42-0.11-10.625-4.316L962.312,910.941c-1.771-1.992-3.21-4.095-4.316-6.309v235.746c0,5.755-1.438,9.297-4.316,10.625
	s-6.419-0.11-10.625-4.316L707.309,910.941C703.103,906.735,701,901.755,701,896s2.103-10.736,6.309-14.941l235.746-235.746
	c4.206-4.206,7.747-5.645,10.625-4.316s4.316,4.87,4.316,10.625v235.746c1.106-2.435,2.546-4.538,4.316-6.309L1198.059,645.312z"/>
</svg>
