<?xml version="1.0" encoding="utf-8"?>
<!-- Generator: Adobe Illustrator 16.0.0, SVG Export Plug-In . SVG Version: 6.00 Build 0)  -->
<!DOCTYPE svg PUBLIC "-//W3C//DTD SVG 1.1//EN" "http://www.w3.org/Graphics/SVG/1.1/DTD/svg11.dtd">
<svg version="1.1" id="Layer_1" xmlns="http://www.w3.org/2000/svg" xmlns:xlink="http://www.w3.org/1999/xlink" x="0px" y="0px"
	 width="512px" height="512px" viewBox="-226 -226 512 512" enable-background="new -226 -226 512 512" xml:space="preserve">
<g>
	<g>
		<path d="M266.307-29.219c-10.867,0-19.702,0-19.702,0v-19.698c0-21.735-17.662-39.392-39.396-39.392h-393.816
			c-21.786,0-39.392,17.657-39.392,39.392V88.905c0,21.734,17.606,39.388,39.392,39.388h393.816
			c21.734,0,39.396-17.653,39.396-39.388V69.212c0,0,8.775,0,19.702,0c10.867,0,19.693-8.827,19.693-19.694V-9.526
			C286-20.444,277.174-29.219,266.307-29.219z M226.902,88.905c0,10.867-8.827,19.693-19.694,19.693h-393.816
			c-10.867,0-19.698-8.826-19.698-19.693V-48.917c0-10.868,8.78-19.694,19.698-19.694h393.816c10.867,0,19.694,8.775,19.694,19.694
			V88.905z M-186.608,88.905h118.175V-48.917h-118.175V88.905z"/>
	</g>
</g>
</svg>
