<?xml version="1.0" encoding="utf-8"?>
<!-- Generator: Adobe Illustrator 16.0.0, SVG Export Plug-In . SVG Version: 6.00 Build 0)  -->
<!DOCTYPE svg PUBLIC "-//W3C//DTD SVG 1.1//EN" "http://www.w3.org/Graphics/SVG/1.1/DTD/svg11.dtd">
<svg version="1.1" id="Layer_1" xmlns="http://www.w3.org/2000/svg" xmlns:xlink="http://www.w3.org/1999/xlink" x="0px" y="0px"
	 width="512px" height="512px" viewBox="640 512 512 512" enable-background="new 640 512 512 512" xml:space="preserve">
<path d="M1042.286,813.714v91.428c0,22.667-8.048,42.048-24.144,58.144c-16.095,16.095-35.476,24.143-58.143,24.143H722.286
	c-22.667,0-42.047-8.048-58.143-24.143C648.047,947.19,640,927.81,640,905.143V667.429c0-22.667,8.047-42.048,24.143-58.143
	c16.095-16.095,35.476-24.143,58.143-24.143h201.143c2.666,0,4.857,0.857,6.571,2.572s2.571,3.905,2.571,6.571v18.286
	c0,2.667-0.857,4.857-2.571,6.571c-1.714,1.714-3.905,2.572-6.571,2.572H722.286c-12.571,0-23.333,4.476-32.286,13.428
	c-8.953,8.953-13.429,19.714-13.429,32.286v237.714c0,12.571,4.476,23.334,13.429,32.286s19.714,13.429,32.286,13.429H960
	c12.571,0,23.333-4.477,32.286-13.429c8.952-8.952,13.428-19.715,13.428-32.286v-91.428c0-2.667,0.857-4.857,2.572-6.572
	c1.714-1.714,3.904-2.571,6.571-2.571h18.285c2.667,0,4.857,0.857,6.572,2.571C1041.429,808.857,1042.286,811.048,1042.286,813.714z
	 M1152,566.857v146.286c0,4.953-1.81,9.238-5.429,12.857s-7.904,5.429-12.856,5.429c-4.953,0-9.238-1.81-12.857-5.429
	l-50.286-50.286L884.286,862c-1.905,1.905-4.095,2.857-6.571,2.857s-4.667-0.953-6.571-2.857l-32.572-32.571
	c-1.905-1.905-2.857-4.095-2.857-6.571c0-2.477,0.952-4.667,2.857-6.572L1024.857,630l-50.286-50.286
	c-3.619-3.619-5.429-7.905-5.429-12.857c0-4.952,1.81-9.238,5.429-12.857s7.905-5.429,12.857-5.429h146.286
	c4.952,0,9.237,1.81,12.856,5.429S1152,561.905,1152,566.857z"/>
</svg>
