<?xml version="1.0" encoding="utf-8"?>
<!-- Generator: Adobe Illustrator 16.0.0, SVG Export Plug-In . SVG Version: 6.00 Build 0)  -->
<!DOCTYPE svg PUBLIC "-//W3C//DTD SVG 1.1//EN" "http://www.w3.org/Graphics/SVG/1.1/DTD/svg11.dtd">
<svg version="1.1" id="Layer_1" xmlns="http://www.w3.org/2000/svg" xmlns:xlink="http://www.w3.org/1999/xlink" x="0px" y="0px"
	 width="512px" height="512px" viewBox="579 640 512 512" enable-background="new 579 640 512 512" xml:space="preserve">
<path d="M593.941,1146.688c-4.206,4.206-7.748,5.645-10.625,4.316s-4.316-4.87-4.316-10.625V651.621
	c0-5.755,1.439-9.297,4.316-10.625s6.419,0.111,10.625,4.316l235.746,235.746c1.771,1.771,3.209,3.874,4.316,6.309V651.621
	c0-5.755,1.438-9.297,4.316-10.625s6.419,0.111,10.625,4.316l235.746,235.746c4.206,4.206,6.309,9.187,6.309,14.941
	s-2.103,10.735-6.309,14.941l-235.746,235.746c-4.206,4.206-7.747,5.645-10.625,4.316s-4.316-4.87-4.316-10.625V904.633
	c-1.107,2.214-2.546,4.316-4.316,6.309L593.941,1146.688z"/>
</svg>
