<?xml version="1.0" encoding="utf-8"?>
<!-- Generator: Adobe Illustrator 16.0.0, SVG Export Plug-In . SVG Version: 6.00 Build 0)  -->
<!DOCTYPE svg PUBLIC "-//W3C//DTD SVG 1.1//EN" "http://www.w3.org/Graphics/SVG/1.1/DTD/svg11.dtd">
<svg version="1.1" id="Layer_1" xmlns="http://www.w3.org/2000/svg" xmlns:xlink="http://www.w3.org/1999/xlink" x="0px" y="0px"
	 width="512px" height="512px" viewBox="-226.001 -232.001 512 512" enable-background="new -226.001 -232.001 512 512"
	 xml:space="preserve">
<g>
	<path d="M218.575-131.775h-9.271v-11.874c0-20.094-16.349-36.455-36.443-36.455h-331.418c-20.095,0-36.444,16.351-36.444,36.455
		v286.978c0,20.104,16.35,36.444,36.444,36.444h9.279v11.885c0,20.104,16.34,36.443,36.444,36.443h331.389
		c20.104,0,36.443-16.34,36.443-36.443V-95.32C255.02-115.415,238.659-131.775,218.575-131.775z M-76.125-150.058
		c6.492,0,11.751,5.26,11.751,11.751c0,6.492-5.26,11.761-11.751,11.761s-11.751-5.27-11.751-11.761
		C-87.876-144.798-82.616-150.058-76.125-150.058z M-114.655-150.058c6.481,0,11.751,5.26,11.751,11.751
		c0,6.492-5.27,11.761-11.751,11.761c-6.491,0-11.771-5.27-11.771-11.761C-126.427-144.798-121.146-150.058-114.655-150.058z
		 M-153.185-150.058c6.491,0,11.751,5.26,11.751,11.751c0,6.492-5.26,11.761-11.751,11.761c-6.491,0-11.751-5.27-11.751-11.761
		C-164.936-144.798-159.687-150.058-153.185-150.058z M-158.557,156.27c-7.123,0-12.932-5.799-12.932-12.941v-250.93h357.271v250.93
		c0,7.143-5.818,12.941-12.931,12.941H-158.557z M231.507,191.658c0,7.142-5.8,12.94-12.932,12.94h-331.398
		c-7.133,0-12.942-5.799-12.942-12.94v-11.875h298.627c20.084,0,36.443-16.35,36.443-36.454v-218.28h22.202V191.658L231.507,191.658
		z"/>
</g>
</svg>
