<?xml version="1.0" encoding="utf-8"?>
<!-- Generator: Adobe Illustrator 16.0.0, SVG Export Plug-In . SVG Version: 6.00 Build 0)  -->
<!DOCTYPE svg PUBLIC "-//W3C//DTD SVG 1.1//EN" "http://www.w3.org/Graphics/SVG/1.1/DTD/svg11.dtd">
<svg version="1.1" id="Layer_1" xmlns="http://www.w3.org/2000/svg" xmlns:xlink="http://www.w3.org/1999/xlink" x="0px" y="0px"
	 width="512px" height="512px" viewBox="0 0 512 512" enable-background="new 0 0 512 512" xml:space="preserve">
<g>
	<path d="M213.333,495.733v-479.6C213.333,7.2,206.133,0,197.066,0H101.6c-9.067,0-16.267,7.2-16.267,16.133v479.6
		c0,8.934,7.2,16.267,16.267,16.267h95.466C206.133,512,213.333,504.8,213.333,495.733z"/>
	<path d="M410.399,0h-95.466C306,0,298.667,7.2,298.667,16.133v479.6c0,8.934,7.2,16.267,16.267,16.267h95.466
		c8.934,0,16.268-7.2,16.268-16.267v-479.6C426.667,7.2,419.466,0,410.399,0z"/>
</g>
</svg>
