<?xml version="1.0" encoding="utf-8"?>
<!-- Generator: Adobe Illustrator 16.0.0, SVG Export Plug-In . SVG Version: 6.00 Build 0)  -->
<!DOCTYPE svg PUBLIC "-//W3C//DTD SVG 1.1//EN" "http://www.w3.org/Graphics/SVG/1.1/DTD/svg11.dtd">
<svg version="1.1" id="Layer_1" xmlns="http://www.w3.org/2000/svg" xmlns:xlink="http://www.w3.org/1999/xlink" x="0px" y="0px"
	 width="512px" height="512px" viewBox="640 640 512 512" enable-background="new 640 640 512 512" xml:space="preserve">
<path d="M1051.375,644.804c4.215-4.214,7.764-5.656,10.647-4.325c2.883,1.331,4.325,4.88,4.325,10.647v489.748
	c0,5.768-1.442,9.316-4.325,10.647c-2.884,1.33-6.433-0.111-10.647-4.326L815.151,910.972c-1.774-1.774-3.216-3.882-4.325-6.321
	v225.577c0,5.767-2.107,10.758-6.321,14.972c-4.214,4.215-9.205,6.322-14.972,6.322h-42.587c-5.767,0-10.758-2.107-14.972-6.322
	c-4.214-4.214-6.321-9.205-6.321-14.972V661.772c0-5.767,2.107-10.757,6.321-14.972c4.214-4.215,9.205-6.322,14.972-6.322h42.587
	c5.767,0,10.757,2.107,14.972,6.322c4.214,4.214,6.321,9.205,6.321,14.972V887.35c1.109-2.218,2.551-4.325,4.325-6.321
	L1051.375,644.804z"/>
</svg>
