<?xml version="1.0" encoding="utf-8"?>
<!-- Generator: Adobe Illustrator 16.0.0, SVG Export Plug-In . SVG Version: 6.00 Build 0)  -->
<!DOCTYPE svg PUBLIC "-//W3C//DTD SVG 1.1//EN" "http://www.w3.org/Graphics/SVG/1.1/DTD/svg11.dtd">
<svg version="1.1" id="Layer_1" xmlns="http://www.w3.org/2000/svg" xmlns:xlink="http://www.w3.org/1999/xlink" x="0px" y="0px"
	 width="512px" height="512px" viewBox="640 640 512 512" enable-background="new 640 640 512 512" xml:space="preserve">
<path d="M740.625,1147.195c-4.214,4.215-7.763,5.656-10.646,4.326c-2.884-1.331-4.325-4.881-4.325-10.647V651.126
	c0-5.767,1.441-9.316,4.325-10.647c2.883-1.331,6.432,0.111,10.646,4.325l236.224,236.224c1.774,1.774,3.216,3.881,4.325,6.321
	V661.772c0-5.767,2.107-10.758,6.321-14.972c4.215-4.214,9.205-6.322,14.972-6.322h42.587c5.767,0,10.758,2.107,14.972,6.322
	c4.215,4.214,6.322,9.205,6.322,14.972v468.455c0,5.767-2.107,10.758-6.322,14.972c-4.214,4.215-9.205,6.322-14.972,6.322h-42.587
	c-5.767,0-10.757-2.107-14.972-6.322c-4.214-4.214-6.321-9.205-6.321-14.972V904.65c-1.109,2.219-2.551,4.325-4.325,6.321
	L740.625,1147.195z"/>
</svg>
