<?xml version="1.0" encoding="utf-8"?>
<!-- Generator: Adobe Illustrator 16.0.0, SVG Export Plug-In . SVG Version: 6.00 Build 0)  -->
<!DOCTYPE svg PUBLIC "-//W3C//DTD SVG 1.1//EN" "http://www.w3.org/Graphics/SVG/1.1/DTD/svg11.dtd">
<svg version="1.1" id="Layer_1" xmlns="http://www.w3.org/2000/svg" xmlns:xlink="http://www.w3.org/1999/xlink" x="0px" y="0px"
	 width="512px" height="512px" viewBox="0 0 512 512" enable-background="new 0 0 512 512" xml:space="preserve">
<path fill="#020202" d="M232.003,57.994c99.973-7.2,202.263,30.205,273.615,100.653c9.351,9.625,8.131,26.461-1.733,35.281
	c-9.058,10.679-27.2,10.868-36.55,0.465c-61.038-58.764-147.219-90.54-231.839-84.22c-70.299,4.522-138.399,34.803-189.41,83.302
	c-4.536,4.637-10.33,8.444-17,8.771c-16.71,1.959-32.165-15.505-28.558-31.851c1.018-5.868,4.786-10.755,9.095-14.664
	C69.343,98.552,149.517,63.434,232.003,57.994z"/>
<path fill="#020202" d="M229.529,156.035c76.593-8.331,156.126,19.901,210.329,74.632c8.468,9.675,7.413,25.495-1.997,34.189
	c-8.582,10.503-25.884,11.683-35.608,2.159c-34.703-34.212-81.62-55.937-130.269-59.493c-59.079-4.9-119.438,17.515-161.504,59.142
	c-9.701,10.253-27.769,9.086-36.5-1.822c-9.411-8.882-10.19-25.13-1.156-34.54C114.513,188.589,170.89,162.052,229.529,156.035z"/>
<path fill="#020202" d="M240.849,252.768c48.334-4.799,98.305,13.709,131.939,48.713c9.21,9.586,8.144,26.084-1.558,34.955
	c-8.808,10.63-26.462,11.347-36.035,1.382c-18.959-19.461-45.221-31.764-72.41-33.245c-30.856-2.2-62.08,9.989-83.992,31.675
	c-5.39,6.057-13.395,9.774-21.586,8.81c-19.022-1.334-32.227-26.727-19.123-41.968C164.544,274.393,202.125,256.613,240.849,252.768
	z"/>
<path fill="#020202" d="M248.3,343.094c31.148-5.227,62.759,20.495,63.764,52.079c2.89,30.972-24.45,60.362-55.533,59.681
	c-27.944,0.969-53.84-22.213-56.29-50.005C196.257,375.673,219.074,346.463,248.3,343.094z"/>
</svg>
