<?xml version="1.0" encoding="utf-8"?>
<!-- Generator: Adobe Illustrator 16.0.0, SVG Export Plug-In . SVG Version: 6.00 Build 0)  -->
<!DOCTYPE svg PUBLIC "-//W3C//DTD SVG 1.1//EN" "http://www.w3.org/Graphics/SVG/1.1/DTD/svg11.dtd">
<svg version="1.1" id="Layer_1" xmlns="http://www.w3.org/2000/svg" xmlns:xlink="http://www.w3.org/1999/xlink" x="0px" y="0px"
	 width="290px" height="290px" viewBox="-5 -5 290 290" enable-background="new -5 -5 290 290" xml:space="preserve">
<g>
	<path d="M1,141c2.28-10.378,3.82-20.986,6.965-31.096c17.01-54.69,66.838-92.555,126.144-96.36
		c54.769-3.514,109.622,29.458,132.933,79.905c25.001,54.104,14.252,116.096-27.412,158.019c-1.146,1.153-2.392,2.207-4.106,3.78
		c-12.703-13.413-25.155-26.562-37.614-39.719c28.442-29.646,36.872-64.535,16.565-102.664
		c-17.129-32.16-45.945-46.314-82.308-43.628c-29.866,2.207-60.035,24.813-68.814,51.023c1.899,0.11,3.625,0.297,5.352,0.299
		c23.164,0.022,46.329-0.111,69.491,0.064c17.777,0.135,30.468,12.895,30.057,29.77c-0.388,15.889-12.983,27.984-29.69,28.237
		c-11.829,0.181-23.663,0.042-35.495,0.042c-31.164,0.001-62.328-0.142-93.488,0.141c-5.193,0.047-7.131-1.623-7.345-6.49
		C2.125,169.868,1.43,167.439,1,165C1,157,1,149,1,141z"/>
	<path d="M124.97,251.366c4.382,11.222,15.59,12.728,27.469,3.993c3.352,2.354,6.834,4.801,10.621,7.461
		c-3.9,5.81-9.084,9.156-15.194,11.104c-12.791,4.074-26.963-0.885-34.435-11.89c-7.602-11.196-7.065-25.976,1.319-36.358
		c8.628-10.686,23.05-14.415,35.618-9.213c12.495,5.172,19.854,17.609,18.812,31.165c-0.266,3.437-1.773,4.07-4.732,4.022
		c-11.325-0.178-22.652-0.205-33.979-0.283C128.711,251.355,126.954,251.366,124.97,251.366z M125.445,239.027
		c9.278,0,18.171,0,27.104,0c-1.062-6.938-6.164-11.658-12.688-11.963C132.749,226.734,127.534,230.838,125.445,239.027z"/>
	<path d="M54.326,215.698c4.723,0,9.216-0.244,13.651,0.153c1.271,0.114,2.943,1.871,3.465,3.242
		c3.375,8.869,6.472,17.844,9.683,26.774c0.546,1.519,1.2,2.997,2.305,5.735c3.321-10.283,6.164-19.394,9.208-28.435
		c3.235-9.606,0.704-7.711,11.169-7.897c1.978-0.035,3.956-0.004,6.849-0.004c-0.776,2.619-1.291,4.621-1.958,6.571
		c-5.555,16.224-11.238,32.405-16.631,48.685c-1.135,3.426-2.715,4.97-6.351,4.476c-1.963-0.267-4.077,0.297-5.965-0.161
		c-1.479-0.357-3.452-1.416-3.954-2.665c-7.315-18.231-14.422-36.548-21.559-54.853C54.131,217.047,54.264,216.678,54.326,215.698z"
		/>
	<path d="M28.956,260.491c0,4.541,0,9.146,0,14.286c-4.793,0-9.812,0.921-14.232-0.311c-3.159-0.879-6.021-4.296-8.05-7.244
		c-1.357-1.972-1.37-5.104-1.392-7.723c-0.178-21.137-0.22-42.273-0.285-63.41c-0.003-0.967,0.172-1.936,0.305-3.326
		c5.086,0,9.989,0,15.624,0c0,1.766,0.013,3.524-0.002,5.282c-0.153,17.31-0.302,34.616-0.47,51.925
		C20.368,258.682,20.516,258.893,28.956,260.491z"/>
	<path d="M49.986,274.652c-5.163,0-10.235,0-15.776,0c0-19.562,0-38.936,0-58.654c5.177,0,10.24,0,15.776,0
		C49.986,235.568,49.986,254.959,49.986,274.652z"/>
	<path d="M41.417,190.502c4.899-0.005,8.858,3.874,8.98,8.799c0.127,5.113-3.929,9.299-8.994,9.284
		c-4.822-0.015-8.937-4.005-9.073-8.801C32.188,194.791,36.382,190.507,41.417,190.502z"/>
</g>
</svg>
