<?xml version="1.0" encoding="utf-8"?>
<!-- Generator: Adobe Illustrator 16.0.0, SVG Export Plug-In . SVG Version: 6.00 Build 0)  -->
<!DOCTYPE svg PUBLIC "-//W3C//DTD SVG 1.1//EN" "http://www.w3.org/Graphics/SVG/1.1/DTD/svg11.dtd">
<svg version="1.1" id="Layer_1" xmlns="http://www.w3.org/2000/svg" xmlns:xlink="http://www.w3.org/1999/xlink" x="0px" y="0px"
	 width="512px" height="512px" viewBox="0 -156 512 512" enable-background="new 0 -156 512 512" xml:space="preserve">
<g>
	<path d="M351.14,27.697l-0.113-1.097l-1.777,0.152l0.113,1.096L351.14,27.697L351.14,27.697z M363.089,56.435l0.038,0.605
		l1.248-0.113c-0.038-0.378,0.113-0.983,0.378-1.739l-0.114-1.097C364.11,54.129,363.58,54.923,363.089,56.435L363.089,56.435z
		 M316.464,92.623c-0.075-1.021-3.252-4.991-9.529-11.987c-0.112-1.285,2.042-3.214,6.467-5.747l12.63-11.004
		c2.836-3.593,4.5-9.416,4.992-17.508l-0.152-1.853c-0.491-5.596-4.537-10.096-12.213-13.537
		c-4.538-3.063-12.706-4.765-24.504-5.067c-9.756,0.832-22.5,4.31-38.192,10.474c-4.311,3.101-9.226,6.202-14.747,9.302l0.075,0.946
		c0.341-0.038,0.87-0.227,1.475-0.643c0.643-0.076,1.021,0.227,1.059,0.832l0.945-0.492l0.454-0.038l0.038,0.416
		c0.038,0.492-3.366,3.177-10.248,7.979l0.53,0.983l-0.454,0.038l-1.135-0.416c0.038,0.34-0.453,0.567-1.399,0.643l0.038,0.416
		l1.097,1.361c-0.34,0.038-0.87-0.113-1.588-0.378c-1.589,0.151-3.139,0.983-4.689,2.571l0.643-2.798
		c2.306-9.945,3.894-18.756,4.726-26.394l-0.113-0.492c-1.588-1.021-3.139-2.458-4.576-4.273c0.038-1.172,0.038-1.852,0-2.004
		l-0.113-0.416l-0.454,0.114c-4.991,7.487-14.596,20.268-28.852,38.343c-10.852,12.857-16.449,20.004-16.789,21.441
		c-4.424,4.575-6.542,7.336-6.315,8.281c-1.172,0.756-1.664,1.512-1.475,2.344c-0.34,0.076-0.567-0.037-0.643-0.378
		c-1.89,3.063-4.689,5.029-8.432,5.899l-3.933,0.908c-0.529,0.112-0.794,0.491-0.756,1.134l0.113,0.492l1.475-0.342l0.114,0.416
		l-3.328,1.287l-5.899,1.36l-3.101,0.188c-0.454,0.455,2.458-0.036,1.324,0.228l-3.857,0.908c-2.345,0.528-3.63,0.34-3.857-0.604
		l-0.454,0.112c0.076,0.416,0.113,0.72,0.038,0.983l-0.227-0.945l-3.101,0.718c-0.227-1.436-4.424-6.655-12.554-15.654
		c-0.151-1.74,2.722-4.274,8.584-7.563l16.562-14.559c3.706-4.764,5.899-12.403,6.618-22.915l-0.227-2.458
		c-0.643-7.411-6.013-13.386-16.109-17.999c-5.975-4.046-16.714-6.202-32.217-6.542c-12.857,1.097-29.647,5.672-50.293,13.651
		c-5.672,4.121-12.138,8.205-19.398,12.251l0.113,1.286c0.492-0.038,1.134-0.302,1.928-0.756c0.832-0.076,1.286,0.302,1.362,1.059
		l1.285-0.719l0.643-0.038l0.038,0.605c0.038,0.605-4.462,4.122-13.575,10.55l0.718,1.135l-0.642,0.038l-1.4-0.492
		c0.038,0.378-0.605,0.643-1.928,0.756l0.075,0.681l1.513,1.664c-0.491,0.038-1.172-0.114-2.042-0.416
		c-2.949,0.265-5.823,2.382-8.659,6.391l0.718,1.134c2.458-2.269,3.895-3.403,4.311-3.441l0.151,1.853
		c-0.416,0.038-1.059,0.302-1.928,0.756l1.55,2.345c2.987-3.215,6.277-5.975,9.87-8.282c1.777,0.454,2.722,1.021,2.76,1.626
		l1.361-0.113c9.756-7.223,19.399-12.441,28.966-15.655l0.113,1.285c-1.777,2.647-2.987,4.009-3.63,4.084
		c0.076,0.908,0.378,1.702,0.945,2.383c0.152,1.626-4.197,12.592-13.008,32.86c-20.003,47.116-36.793,81.979-50.443,104.519
		c0.037,0.453,0.302,1.058,0.794,1.814c3.365-0.794,5.483-1.626,6.39-2.421l0.719-0.075l0.113,1.286l1.248-0.114l1.286-0.718
		c0.038,0.378,0.454,0.567,1.323,0.491l0.114,1.286c0.113,1.248-0.605,3.138-2.118,5.748c-1.361,1.55-2.836,4.802-4.386,9.756
		l0.037,0.604l1.248-0.113c5.446-6.088,9.567-12.063,12.403-17.887c15.882-4.65,27.983-9.226,36.377-13.726
		c8.433-0.719,14.861-2.95,19.248-6.618l-0.076-0.68l-3.176,0.945l-0.719,0.076l-0.076-0.682c6.202-0.945,10.475-2.307,12.857-4.197
		c12.063-9.303,21.176-15.882,27.34-19.777c12.667-9.301,20.911-18.377,24.654-27.188c0.681-0.15,1.361-0.303,2.118-0.492
		c1.777-0.074,2.76-0.113,3.025-0.188c-0.076-0.341,0.076-0.529,0.416-0.605c2.836-0.302,1.475,0.189,3.29-0.227l4.764-1.097
		c-0.302,0.076-0.416,0.228-0.34,0.529l0.718-0.453c-0.151,0-0.264-0.037-0.378-0.076l0.794-0.188l-0.378,0.228
		c0.53,0.074,1.097,0.037,1.74-0.115l0.34,1.399l-21.667,34.449l-4.803,6.013l-2.344,7.864l0.454-0.112l2.344-0.983l-0.756,3.063
		l0.227,0.906l0.642,0.794c-0.302,0.076-0.415,0.265-0.34,0.604l0.114,0.492l0.983-0.227c1.437-1.248,2.042-2.382,1.815-3.402
		c1.55,0.264,2.571,0.377,3.101,0.227l0.113,0.49c-0.945,0.228-1.437,0.983-1.513,2.27l0.114,0.492l0.529-0.114
		c7.866-8.584,27.151-37.965,42.617-57.894c-0.492-2.154,7.562-5.143,24.2-9l0.53-0.112c0.605,2.608-0.681,8.924-3.857,18.944
		c-2.042,6.051-3.025,9.379-2.874,9.908c-2.647,8.053-3.895,12.402-3.744,13.084l-5.899,19.321
		c-3.819,9.908-6.73,20.308-8.772,31.272c0.34-0.075,0.869-0.037,1.626,0.152l0.831-0.72c0.076,0.341,0.303,0.454,0.643,0.378
		l-0.34-1.398l2.571-0.075c0.756-0.189,1.399-1.136,1.929-2.874c-0.114-2.609,0.416-4.008,1.588-4.311
		c1.588-6.201,2.571-9.303,2.912-9.416c1.474-6.164,2.571-9.681,3.289-10.551c2.232-8.016,3.857-12.138,4.916-12.402l0.227,0.983
		l-1.626,4.197c-2.836,12.592-5.71,22.536-8.621,29.835l0.832,3.63l0.529-0.113c7.033-15.126,17.167-45.073,30.364-89.846
		c0.379-3.933,2.269-6.996,5.635-9.151l-0.757-0.794l-0.113-0.416c1.513-0.34,2.571-0.945,3.176-1.777
		c-0.075-0.341-1.399-0.832-3.97-1.513l6.58-28.209c1.436-1.286,2.268-1.966,2.533-1.966l0.114,1.437
		c-0.341,0.037-0.87,0.226-1.475,0.642l1.248,1.778c2.268-2.458,4.726-4.576,7.411-6.353c1.361,0.378,2.042,0.832,2.118,1.286
		l0.983-0.076c7.487-5.483,14.823-9.416,22.045-11.798l0.075,0.945c-1.322,2.004-2.23,3.025-2.723,3.063
		c0.076,0.681,0.266,1.286,0.605,1.815c0.113,1.248-3.139,9.567-9.793,24.995c-15.202,35.733-27.945,62.165-38.306,79.334
		c0.038,0.34,0.265,0.794,0.681,1.399c2.533-0.605,4.159-1.248,4.802-1.854l0.454-0.038l0.076,0.946l1.058-0.076l0.946-0.492
		c0.037,0.266,0.378,0.379,1.021,0.341l0.075,1.021c0.076,0.908-0.453,2.345-1.626,4.311c-1.096,1.174-2.231,3.631-3.441,7.374
		l0.038,0.492l0.983-0.076c4.122-4.612,7.26-9.151,9.416-13.612c12.062-3.555,21.251-6.996,27.604-10.399
		c6.465-0.567,11.344-2.231,14.672-5.029l-0.039-0.491l-2.457,0.719l-0.529,0.037l-0.038-0.492c4.688-0.68,7.979-1.738,9.756-3.137
		c9.151-7.035,16.071-12.063,20.761-15.013C310.49,112.627,317.296,102.417,316.464,92.623L316.464,92.623z M313.969,93.266
		l0.34,3.819c-0.453,0.946-0.944,1.437-1.398,1.475l-0.567-6.504C313.401,92.434,313.931,92.812,313.969,93.266L313.969,93.266z
		 M27.642,62.486l-0.643,0.037l-0.113-1.172l2.609-0.227l0.038,0.605C29.117,61.767,28.474,61.994,27.642,62.486L27.642,62.486z
		 M14.899,189.956c-1.513-0.681-2.874-0.945-4.046-0.832l-0.152-1.853c-0.075-0.719,0.341-1.211,1.248-1.399
		c0.832-0.075,1.324,0.53,1.399,1.739c2.194-2.685,3.404-4.045,3.631-4.084l1.399,0.568
		C17.924,187.877,16.752,189.805,14.899,189.956L14.899,189.956z M151.067,47.511c-0.643,0.076-1.929-1.928-3.782-5.899
		l-0.113-1.172c1.21-0.113,2.458,1.853,3.781,5.899L151.067,47.511L151.067,47.511z M149.251,33.407l-0.529,1.248l-18.491-7.714
		C142.558,27.357,148.911,29.512,149.251,33.407L149.251,33.407z M71.166,100.451l-2.609,0.227l-0.114-1.173l2.609-0.226
		L71.166,100.451L71.166,100.451z M69.048,60.179l0.643-0.038l0.151,1.853c-0.605,0.038-1.399,0.945-2.382,2.685l-0.114-1.286
		C68.519,61.994,69.124,60.935,69.048,60.179L69.048,60.179z M63.565,73.111l0.227,2.458l-0.643,0.038l-0.227-2.458L63.565,73.111
		L63.565,73.111z M60.691,77.725l1.248-0.114c-0.113,2.042-0.68,3.139-1.701,3.214l-0.643,0.038
		C60.389,79.502,60.767,78.443,60.691,77.725L60.691,77.725z M58.536,84.153l0.718-0.076l0.038,0.605l-1.172,1.967l-1.248,0.113
		l-0.038-0.605C58.082,86.044,58.649,85.401,58.536,84.153L58.536,84.153z M56.418,89.939l-0.378,3.1l-0.643,0.038l-0.264-3.063
		L56.418,89.939L56.418,89.939z M35.205,150.252c-0.832,4.234-1.74,6.391-2.685,6.466l-0.038-0.604
		C32.255,154.033,33.163,152.066,35.205,150.252L35.205,150.252z M31.31,158.684l0.038,0.605c0.075,0.832-0.303,1.324-1.135,1.361
		l-0.037-0.605C30.1,159.327,30.478,158.873,31.31,158.684L31.31,158.684z M30.176,176.191l1.966-0.188l0.075,0.681
		c-0.491,0.037-1.134,0.303-1.928,0.756l-1.248,0.113C28.965,176.911,29.381,176.419,30.176,176.191L30.176,176.191L30.176,176.191z
		 M86.14,158.911c-11.042,5.444-17.546,9.151-19.474,11.079c-11.949,4.16-17.886,6.73-17.773,7.752
		c-10.625,4.197-17.621,7.299-20.986,9.227c-0.794,0.076-1.929-0.227-3.441-0.908c-0.189-2.154,0.794-3.894,2.873-5.293
		c1.853-0.151,3.63,0.113,5.332,0.832c1.967-1.021,5.408-2.156,10.286-3.365l-0.114-1.286l-3.932,0.341
		c0.491-0.682,4.272-2.458,11.381-5.332l1.967-0.189l0.038,0.605c-3.366,0.302-5.219,1.286-5.635,3.062
		c0.076,0.795,0.53,1.135,1.362,1.06c2.533-1.589,3.781-2.534,3.743-2.8c4.803-0.906,18.075-7.864,39.818-20.834l0.114,1.172
		C91.737,154.6,89.884,156.188,86.14,158.911L86.14,158.911z M52.788,169.877c3.177-0.266,5.899-1.55,8.168-3.781
		c0.907-0.076,1.399,0.264,1.437,1.059c-1.551,0.152-4.538,1.437-8.886,3.933l-0.643,0.038L52.788,169.877L52.788,169.877z
		 M106.597,128.546l-16.676,13.198c-12.403,8.13-19.058,12.213-20.003,12.289c-19.739,10.853-32.028,16.486-36.793,16.902
		l-0.718,0.075c0.605-2.229,9.377-20.192,26.394-53.997c7.487-0.644,19.285-4.121,35.356-10.475l3.932-0.341
		c8.13-0.718,14.218,0.87,18.227,4.651l0.226,2.457C113.517,122.005,110.19,127.072,106.597,128.546L106.597,128.546z
		 M74.002,110.207l2.685-0.227l0.037,0.604l-2.684,0.228L74.002,110.207L74.002,110.207z M111.702,103.816l1.967-0.189
		c1.815,0.87,2.76,1.626,2.836,2.307l0.037,0.605C114.803,106.689,113.177,105.783,111.702,103.816L111.702,103.816z
		 M117.034,73.452c-1.739,2.079-6.504,5.634-14.294,10.625c-2.571,0.227-12.138,3.933-28.7,11.193
		c-0.832-0.378-1.702-0.529-2.647-0.453l-0.114-1.173c-0.189-2.382,0.87-5.369,3.214-8.999c1.286-6.807,2.685-10.702,4.236-11.647
		l13.802-31.045c-0.152-1.929,2.798-3.404,8.848-4.425l1.966-0.189l0.152,1.778c5.936-0.908,9.642-1.437,11.079-1.551
		c10.966-0.945,16.676,1.286,17.13,6.618l1.248-0.114l-0.265-3.138l1.361-0.114c3.214,1.778,4.954,3.933,5.181,6.466
		c0.151,1.74-0.794,3.895-2.799,6.467c-0.831,0.075-1.323-0.53-1.399-1.74l-1.361,0.114l-0.302,3.781
		c-5.559,8.319-9.605,12.592-12.101,12.819C119,71.864,117.601,73.414,117.034,73.452L117.034,73.452z M125.504,95.195
		c-1.134-0.757-2.042-1.097-2.722-1.059l-0.152-1.853l1.248-0.113l2.761,1.626C126.752,94.665,126.374,95.119,125.504,95.195
		L125.504,95.195z M134.277,105.593c1.21,0.492,1.929,1.021,2.08,1.513l-0.605,0.151l0.038,0.038c-0.114,0-0.265,0.038-0.379,0.076
		l-0.907,0.718L134.277,105.593L134.277,105.593z M135.109,110.812l-0.113-0.492l1.588-0.379l0.113,0.492L135.109,110.812
		L135.109,110.812z M138.928,115.085c1.626-0.265,2.42-0.378,5.445-1.06l0.114,0.492l-5.748,1.323
		C138.815,115.576,138.89,115.312,138.928,115.085L138.928,115.085z M144.525,117.467c-2.42,0.227-1.891-0.076-5.748,0.794
		l-0.114-0.491l4.803-1.551l2.307-0.529l0.226,0.908C144.978,116.824,145.735,116.824,144.525,117.467L144.525,117.467z
		 M149.63,116.257c-0.568,0.151-1.021-0.112-1.286-0.756l1.475-0.341c0.642-0.151,1.058,0.113,1.21,0.757L149.63,116.257
		L149.63,116.257z M163.469,101.357l-0.113-0.49l2.382-0.567l0.227,0.907L163.469,101.357L163.469,101.357z M178.255,192.036
		c0.151-0.681,0.189-1.172,0.113-1.513l0.53-0.113c0.642-0.151,1.02,0.076,1.172,0.681l0.113,0.491L178.255,192.036L178.255,192.036
		z M188.616,105.253l-1.059-0.188c-1.702,0.681-3.139,1.172-4.311,1.437l-0.983,0.228c-0.567,0.15-1.021-0.076-1.248-0.682
		l6.92-1.588l2.269-1.059l0.756,0.869C189.863,104.497,189.069,104.837,188.616,105.253L188.616,105.253z M193.947,103.551
		l-0.113-0.49c0.34-0.076,0.794-0.34,1.286-0.832l4.915-1.135l0.114,0.491C197.54,102.229,195.46,102.871,193.947,103.551
		L193.947,103.551z M194.704,93.606c-0.341,0.076-0.794,0.379-1.362,0.832c-0.075-0.34-0.756-0.34-2.042-0.037
		c-0.226-0.946,3.404-2.269,10.929-4.009l1.058-0.227l0.227,0.908C198.22,92.623,195.271,93.493,194.704,93.606L194.704,93.606z
		 M207.939,79.313c-0.53,6.012-2.647,9.416-6.391,10.285l-0.113-0.491l-3.328,1.285l-1.475,0.341
		c-0.756,0.189-1.437,0.151-2.042-0.038l-0.302-1.324c-0.114-0.491,4.689-7.147,14.445-19.928l1.134,0.19
		C210.283,71.372,209.64,74.586,207.939,79.313L207.939,79.313z M231.345,59.271l-0.453,0.038l-0.076-0.945l1.966-0.189l0.038,0.491
		C232.48,58.742,231.988,58.931,231.345,59.271L231.345,59.271z M221.703,156.113c-1.135-0.53-2.156-0.756-3.025-0.682l-0.114-1.437
		c-0.038-0.491,0.265-0.832,0.908-1.021c0.643-0.076,1.021,0.377,1.096,1.361c1.626-2.08,2.534-3.139,2.723-3.139l1.021,0.416
		C223.934,154.486,223.064,155.999,221.703,156.113L221.703,156.113z M325.086,47.965c-0.492,0.038-1.437-1.475-2.912-4.538
		l-0.075-0.945c0.945-0.076,1.929,1.399,2.911,4.424L325.086,47.965L325.086,47.965z M323.725,37.15l-0.453,0.983l-13.991-5.861
		C318.62,32.575,323.46,34.201,323.725,37.15L323.725,37.15z M264.395,88.086l-1.967,0.189l-0.074-0.946l1.965-0.151L264.395,88.086
		L264.395,88.086z M262.77,57.494l0.528-0.038l0.113,1.437c-0.491,0.038-1.097,0.719-1.815,2.042l-0.074-0.945
		C262.391,58.893,262.807,58.061,262.77,57.494L262.77,57.494z M258.646,67.326l0.151,1.853l-0.528,0.038l-0.152-1.853
		L258.646,67.326L258.646,67.326z M256.416,70.843l0.982-0.076c-0.112,1.588-0.528,2.42-1.248,2.496l-0.529,0.037
		C256.189,72.242,256.454,71.41,256.416,70.843L256.416,70.843z M254.828,75.683l0.454-0.038l0.037,0.491l-0.869,1.513l-0.984,0.076
		l-0.037-0.492C254.45,77.157,254.903,76.628,254.828,75.683L254.828,75.683z M253.24,80.069l-0.341,2.42l-0.454,0.038l-0.189-2.382
		L253.24,80.069L253.24,80.069z M237.093,125.938c-0.643,3.177-1.323,4.803-2.042,4.877l-0.038-0.416
		C234.9,128.811,235.58,127.299,237.093,125.938L237.093,125.938z M234.106,132.328l0.037,0.416c0.076,0.68-0.226,1.059-0.907,1.096
		l-0.038-0.49C233.16,132.857,233.463,132.518,234.106,132.328L234.106,132.328z M233.274,145.639l1.512-0.113l0.038,0.49
		c-0.34,0.039-0.87,0.228-1.475,0.568l-0.983,0.075C232.328,146.13,232.631,145.79,233.274,145.639L233.274,145.639z
		 M275.739,132.518c-8.319,4.121-13.273,6.92-14.823,8.356c-9.076,3.176-13.575,5.144-13.5,5.937
		c-8.054,3.215-13.348,5.521-15.844,6.996c-0.605,0.037-1.475-0.189-2.609-0.719c-0.151-1.626,0.605-2.949,2.193-3.934
		c1.437-0.112,2.798,0.076,4.046,0.605c1.513-0.756,4.122-1.588,7.828-2.533l-0.076-0.945l-3.101,0.227
		c0.379-0.529,3.29-1.891,8.698-4.084l1.512-0.113l0.038,0.416c-2.571,0.228-4.008,0.983-4.311,2.344
		c0.038,0.605,0.416,0.908,1.059,0.832c1.891-1.248,2.798-1.965,2.798-2.192c3.63-0.644,13.689-5.937,30.214-15.844l0.074,0.944
		C279.975,129.227,278.575,130.438,275.739,132.518L275.739,132.518z M250.404,140.836c2.457-0.227,4.537-1.172,6.278-2.836
		c0.642-0.076,1.021,0.227,1.058,0.832c-1.134,0.113-3.365,1.059-6.731,2.874l-0.529,0.038L250.404,140.836L250.404,140.836z
		 M291.318,109.413l-12.592,10.134c-9.416,6.163-14.521,9.264-15.315,9.34c-14.974,8.243-24.276,12.516-27.944,12.819l-0.529,0.038
		c0.453-1.702,7.147-15.354,20.079-40.991c5.633-0.491,14.558-3.176,26.81-8.016l3.063-0.265c6.162-0.529,10.776,0.681,13.801,3.592
		l0.151,1.853C296.536,104.421,294.041,108.24,291.318,109.413L291.318,109.413z M266.588,95.497l1.967-0.189l0.037,0.492
		l-1.966,0.189L266.588,95.497L266.588,95.497z M295.213,90.619l1.514-0.113c1.398,0.68,2.116,1.286,2.154,1.777l0.038,0.416
		C297.596,92.812,296.348,92.132,295.213,90.619L295.213,90.619z M299.184,67.591c-1.324,1.588-4.916,4.31-10.776,8.092
		c-1.968,0.189-9.228,2.987-21.781,8.432c-0.604-0.227-1.286-0.302-2.005-0.264l-0.075-0.946c-0.151-1.815,0.644-4.084,2.382-6.844
		c0.983-5.218,2.08-8.13,3.215-8.811l10.549-23.596c-0.112-1.399,2.119-2.533,6.656-3.403l1.512-0.113l0.115,1.437
		c4.461-0.719,7.26-1.135,8.394-1.248c8.319-0.719,12.668,0.945,13.008,5.029l0.983-0.076l-0.189-2.269l0.984-0.075
		c2.42,1.323,3.705,2.912,3.856,4.802c0.113,1.362-0.567,3.025-2.005,4.954c-0.642,0.075-1.02-0.378-1.096-1.361l-0.983,0.075
		l-0.303,2.836c-4.197,6.391-7.26,9.681-9.188,9.832C300.734,66.381,299.675,67.553,299.184,67.591L299.184,67.591z M303.607,83.321
		l-0.113-1.437l0.982-0.075l2.118,1.285c0.038,0.605-0.265,0.946-0.907,1.021C304.779,83.548,304.1,83.283,303.607,83.321
		L303.607,83.321z M127.584,175.171l-0.983,0.228l-0.832,0.718c0.151,0.604,0.529,0.832,1.172,0.681
		c0.643-0.15,0.908-0.529,0.757-1.134L127.584,175.171L127.584,175.171z M123.841,167.723l0.113,0.49
		c0.643-0.15,0.907-0.529,0.756-1.134l-0.113-0.492C123.992,166.739,123.727,167.117,123.841,167.723L123.841,167.723z
		 M150.461,104.383l1.135-0.264l-0.227-0.983l-1.134,0.265L150.461,104.383L150.461,104.383z M493.585,133.198
		c-11.496,2.571-12.933,2.116-15.353,2.306l0.075,0.946l1.06-0.076l0.566-0.038l-0.15-0.113l1.247-0.492
		c11.382-1.248,12.706-0.793,12.592-2.08L493.585,133.198L493.585,133.198z M431.683,141.402l0.076,0.947h0.151l-0.075-0.947
		H431.683L431.683,141.402z M424.574,116.484l-1.021-0.34c-0.832,2.23-1.248,3.554-1.21,3.932l0.038,0.416
		C423.175,120.454,423.894,119.093,424.574,116.484L424.574,116.484z M495.929,133.009l0.076,0.945l1.663,0.302l-0.075-0.945
		L495.929,133.009L495.929,133.009z M417.692,142.575l-2.571-0.302l-0.454,0.982l0.038,0.492l15.313-1.286l-0.074-0.944
		L417.692,142.575L417.692,142.575z M410.734,109.035l-0.037-0.492l-0.53,0.038l-0.945,0.604l0.529,0.907
		C410.47,110.018,410.81,109.677,410.734,109.035L410.734,109.035z M503.189,126.051l0.719-0.076
		c0.416-0.037,0.604-0.377,0.566-0.982l-0.416-0.908c-2.608,0.227-3.818,0.341-5.937,1.514l-0.038-0.492l-3.138,0.303
		c-0.076-0.945-0.34-1.438-0.756-1.399l-1.626,0.151c-1.892,0.15-2.8,0.076-3.744,0.794c-0.038-0.34-0.151-0.491-0.34-0.491
		l-1.815,0.151l-1.059,0.604c-0.038-0.34-0.151-0.492-0.342-0.492l-0.642,0.568l-0.038-0.492l-2.534-0.188l-0.604,0.038l0.076,0.945
		l1.285,0.34l1.21-0.076c0.416,0.266,0.869,0.341,1.399,0.303l1.059-0.529l0.037,0.416c-5.936,1.475-5.898,1.21-9.982,1.891
		c-0.453-0.303-0.794-0.453-1.021-0.416l-0.075,0.076c-0.453-0.039-0.719-0.341-0.756-0.832l2.117-0.265
		c0.151,0,0.265,0.151,1.438,0.378c1.701-0.832,1.776-1.173,2.685-1.248l-0.076-0.945c-5.823,1.135-3.479,0.379-10.776,1.021
		l-0.341,0.038l-0.075-0.945c9.378-1.134,6.239-0.492,9.453-1.398c0.038,0.34,0.151,0.49,0.341,0.49
		c0.378-0.377,0.794-0.566,1.285-0.642l0.644-0.038c3.289-0.265,4.386,0.378,10.89-1.438l0.038,0.416l1.06-0.529l0.982-0.075
		c-0.076-0.946,1.361-1.097,1.854-1.135l-0.076-1.021c-11.42,2.307-14.407,1.664-17.583,2.571l-0.038-0.416
		c-2.987,0.529-3.101,0.302-3.857,0.341c-0.227,0.037-0.566,0.227-0.945,0.604c-0.037-0.341-0.151-0.492-0.378-0.492
		c-0.113,0-0.151,0.038-0.189,0.038l-9.68,1.588c-0.038-0.264-0.151-0.415-0.378-0.378c-5.029,1.06-3.668,1.248-10.399,1.853
		c-0.303,0.039-0.718,0.189-1.248,0.53c-0.038-0.265-0.188-0.416-0.529-0.379l-4.121,0.341l-2.761,0.68
		c-0.038-0.264-0.188-0.414-0.529-0.377c-1.551,0.416-2.911,0.681-4.009,0.756h-0.075c-0.681,0.076,0.341-0.188-0.189-0.416
		l-0.832,0.492c-1.21,0.113-0.567-0.076-4.726-0.039c-7.299,0.908-6.504,1.021-7.299,1.06l-2.723-0.188
		c0.038,0.265-0.113,0.453-0.416,0.453c-3.101-0.416-4.688-0.908-4.727-1.475c0.416-2.949,1.135-4.462,2.155-4.538l0.529-0.037
		l-0.454,0.983l0.53-0.038c0.983-0.529,1.437-1.021,1.399-1.476l-0.076-1.021l-0.983,0.075l-0.076-0.944
		c-0.075-0.719,0.038-1.362,0.304-1.892l2.23-3.592l0.076,0.945l1.058-0.076l-0.075-0.945l-0.604-0.869
		c0.794-0.68,1.399-1.059,1.89-1.096l-0.037-0.492l-1.437,0.113l-0.114-1.437c2.874-5.976,4.235-9.454,4.16-10.437l1.021,0.416
		c0.643-0.038,0.944-0.416,0.906-1.097l-0.982,0.076l-0.038-0.416c-0.075-0.719,0.076-1.399,0.378-2.004
		c1.551-1.626,2.269-3.252,2.118-4.954c0.303-0.038,0.454,0.114,0.492,0.454c1.322-0.756,2.344-2.76,3.1-6.088
		c2.345-4.235,5.672-12.705,10.021-25.373c8.319-22.386,7.979-24.768,9.151-30.062l-0.983,0.075
		c0.075,0.681-0.075,1.324-0.378,1.929c-0.681-0.265-1.21-0.416-1.588-0.378l-0.038-0.416c-0.151-1.929,0.644-4.235,2.458-6.958
		l0.453-0.038l0.832,3.252l0.983-0.075c-0.037-0.227,0.227-1.513,0.757-3.895c-0.038-0.492-0.416-0.794-1.173-0.832l-0.945,0.605
		c-0.075-0.681-0.038-2.458,0.076-5.294l-0.492,0.038c-0.832-0.832-1.248-1.513-1.286-2.08l-5.406,0.529
		c-0.038-0.378-0.228-0.945-0.605-1.663c-0.038-0.492,1.172-0.984,3.668-1.475l1.097,0.416l1.021-0.605
		c0.037,0.34,0.226,0.491,0.604,0.454l1.021-0.605c0.038,0.34,0.227,0.491,0.605,0.453l0.491-0.037l-0.076-1.097
		c-0.756,0.076-2.76,0.076-5.936-0.038l-1.021,0.681l-0.038-0.605c-25.372,2.079-39.779,3.252-43.221,3.592
		c-0.454,0.038-2.23,0-5.37-0.076c0.038,0.416-0.34,0.643-1.096,0.719l-1.097-0.492l-3.706,0.946
		c-0.87,0.075-2.345,0.037-4.387-0.189c-0.566,0.453-1.247,0.718-2.079,0.794c-0.454,0.037,5.406-0.303,10.852-0.681
		c-0.567,0.454-1.436,0.718-2.646,0.832c-0.831,0.076-1.551-0.038-2.155-0.378c-0.832,0.378-3.517,0.983-8.017,1.89l-1.097-0.415
		l-17.697,2.722c-0.681-0.34-1.475-0.454-2.382-0.378c-0.946,0.076-2.534,0.416-4.727,1.021l-8.546,3.554l0.643,1.059
		c0.416-0.038,1.021-0.264,1.739-0.68l3.025,0.264l-0.379,2.836c-2.798,1.248-4.424,3.101-4.878,5.446
		c-4.196,1.852-6.276,3.176-6.276,3.97l0.037,0.492l0.644-0.038l1.134-0.605l1.324,1.588l0.188,2.193
		c0.075,0.681-6.995,15.542-21.138,44.583c-12.252,27.982-18.68,43.297-19.285,46.057c-4.197,1.172-6.617,2.875-7.336,5.144
		c0.076,0.718,1.323,1.21,3.743,1.399l0.114,1.096l-1.098,1.814l0.189,2.194c0.114,1.134,3.177,2.004,9.189,2.608
		c-0.038-0.377,0.151-0.604,0.566-0.643c0.114,1.361-0.264,4.008-1.134,7.941l0.643-0.038c2.495-3.403,3.668-5.748,3.555-7.033
		l0.529-0.038c0.605-0.038,1.248,0.643,2.004,2.117c-0.756,0.303-3.402,6.314-7.94,18.076l0.643,1.058l0.644-0.037
		c5.558-14.067,9.037-21.856,10.474-23.331c7.298-0.644,19.928-1.929,37.853-3.857l1.134-0.68c0.038,0.377,0.265,0.566,0.681,0.528
		l1.172-0.112l1.136-0.682c0.036,0.378,0.264,0.566,0.68,0.529l13.575-1.172c3.593-0.303,5.294-1.399,5.143-3.252
		c-0.038-0.491,2.08-1.06,6.354-1.664c0.415-0.039,1.021,0.076,1.853,0.341c-0.038-0.341,2.117-0.681,6.428-1.06
		c0.114-2.269,0.832-3.479,2.118-3.592l-0.114-1.097c-1.21,0.112-2.57,0.416-4.158,0.944c-2.836-0.15-4.651-0.377-5.408-0.643
		c-0.756,0.416-1.323,0.643-1.739,0.682l-9.454,0.303l-1.134,0.604c-0.038-0.341-0.265-0.491-0.681-0.454l-0.529,0.038l-1.21,0.605
		c-0.038-0.341-1.021-0.605-2.988-0.87l-1.209,0.718l-2.345,0.188l-0.038-0.604c12.176-1.323,18.188-2.987,18.037-4.952
		c0.795-0.076,1.211,0.301,1.286,1.096l3.555-0.907l-0.114-1.097l-29.153,0.793c0.036,0.379-0.152,0.605-0.567,0.644l-3.555-0.302
		c-0.908,0.074-1.664,0.34-2.27,0.794l-1.323-0.492c-3.668,0.303-6.391,0.757-8.206,1.324c-2.495-0.189-5.256-0.152-8.318,0.112
		l-6.542,0.567l-3.025-0.34c-0.15-1.929,3.592-11.42,11.307-28.437c2.231-5.748,4.272-9.339,6.239-10.701
		c0.416-0.038,1.021,0.113,1.854,0.453l4.65-1.588l2.383,0.378c4.008-0.34,8.658-1.474,13.99-3.441
		c1.324-0.113,2.308-0.037,3.025,0.265l3.555-0.832l10.588-0.907c4.499-0.378,9.377-1.362,14.671-2.988l-0.112-1.096
		c-1.966,0.189-2.987-0.151-3.063-0.946c-0.112-1.474-1.55-2.079-4.311-1.853l-0.113-1.096l2.912-0.832l7.638-0.643l-0.113-1.096
		c-0.303,0.037-1.853,0-4.727-0.114l-0.114-1.172l2.95-0.265c0.794-0.075,1.134-0.454,1.06-1.21
		c-3.972,0.114-5.976-0.075-6.014-0.605c-27.68,1.361-41.557,1.626-41.633,0.756c-0.416,0.038-0.982,0.303-1.739,0.757l-0.719-1.135
		c7.336-15.579,11.647-23.444,12.896-23.558c0.037,0.605-0.266,1.588-0.946,2.912l0.038,0.491l1.172-0.113
		c2.912-6.958,5.37-10.55,7.412-10.701c8.697-0.757-1.21-1.324,17.394-4.235c0.757,0.34,1.286,0.491,1.664,0.453
		c7.298-1.474,17.47-3.025,30.517-4.613l-0.076-1.097l-6.958,0.643l-0.075-1.096c0.832-0.076,1.512-0.341,2.08-0.794l0.037,0.605
		c0.379-0.038,0.908-0.303,1.589-0.757c1.21-0.113,2.117,0,2.76,0.341c2.42-0.643,4.386-1.021,5.823-1.173l4.349-0.416
		c1.06-0.68,1.55-1.285,1.514-1.852l-0.038-0.492c-1.098,0.113-2.346,0.038-3.819-0.227c-0.038-0.605,0.264-1.021,0.983-1.21
		l8.092-0.756l3.706-0.946c0.037,0.416,0.227,0.568,0.528,0.568c0.379-0.038,0.908-0.303,1.589-0.757
		c0.188,0.038,0.416,0.038,0.604,0.076c-0.491,1.021-1.059,2.496-1.626,4.424l-1.059,0.076c-0.075-0.719-0.265-1.361-0.605-1.929
		l-0.529,0.038c-9.831,27.377-14.218,40.121-23.293,61.145c-1.663,5.37-3.062,8.357-4.272,9c0.038,0.605,0.416,0.907,1.059,0.832
		c0.227,2.647-0.379,5.256-1.853,7.827c-4.198,12.101-6.996,18.718-8.434,19.928l0.945,5.71c0.038,0.604-0.264,0.944-0.907,1.021
		l-0.982,0.076c-0.152-1.589-0.719-2.345-1.74-2.23l-0.529,0.037c-1.286,2.004-2.269,4.311-2.912,6.996l0.983-0.076
		c1.324-0.869,1.929-1.891,1.815-3.063l1.967-0.188l1.134,0.416c-0.907,1.437-1.323,2.572-1.248,3.44l0.53,0.908l-1.286,3.024
		l0.038,0.492c1.134-0.113,2.382,0.264,3.706,1.059c0.907-0.075,1.89-0.491,2.986-1.21c1.135-0.113,5.369-0.151,12.668-0.151
		l3.667-1.248c4.464-0.038,5.182,0.076,9.038-0.264l1.589-0.152l0.831-0.566l0.038,0.492c4.046-0.342,4.312-0.076,7.487,0.301
		l0.038,0.492l-2.231,0.189l0.075,0.945c0.682-0.075,1.286-0.266,1.778-0.68c0.567-0.039,0.907,0.264,0.945,0.944
		c-0.907,0.076-1.929,0.302-3.063,0.681l-0.983-0.341c-1.55,0.416-1.21,0.53-2.269,0.604l-1.55-0.301
		c0.038,0.264-0.114,0.453-0.378,0.453c0.037,0.605,0.378,0.907,0.944,0.869l1.589-0.15l8.28-0.719l3.14-0.681
		c0.038,0.265,0.15,0.416,0.416,0.378l1.512-0.566l2.837-0.228c2.193-0.188,2.155-0.34,6.919-1.097
		c-0.037-0.303,0.076-0.416,0.303-0.453l0.038,0.415c7.752-1.323,8.243-1.399,9.491-1.815l0.113,0.227
		c1.929-0.452,0.832-0.34,1.361-0.717c0.038,0.34,0.151,0.49,0.341,0.49l1.36-0.113l-0.075-1.021l-2.761-0.038l-0.037-0.074
		c-0.113,0.036-0.189,0.036-0.303,0.074h-0.378v0.076c-1.854,0.378-1.891,0.113-3.101,0.227l-6.921,0.379l-0.038-0.492l3.857-0.529
		l1.399-0.114l0.795-0.567l0.037,0.492c5.445-0.453,7.374,0.907,32.558-4.461c1.361-0.115,1.248-1.248,2.118-3.594
		c-0.454,0.038-0.908-0.075-1.324-0.302c-2.079,0.794-3.176,0.416-7.184,1.059c-0.342,0.038-0.605-0.265-0.72-0.87l-0.037-0.416
		l3.856,0.113c0.719-0.074,2.118-0.189,4.198-1.361C503.492,125.9,502.735,126.089,503.189,126.051L503.189,126.051z
		 M316.994,129.038l-1.778,0.151c-0.075-0.719,0.87-3.441,2.836-8.092l1.173-0.113C319.263,122.08,318.544,124.766,316.994,129.038
		L316.994,129.038z M319.149,120.417l-0.038-0.492c-0.038-0.604,0.341-1.021,1.173-1.21l0.037,0.491
		C320.359,119.925,319.981,120.341,319.149,120.417L319.149,120.417z M342.783,138.682l0.038,0.49l-2.95,0.266l-0.038-0.492
		L342.783,138.682L342.783,138.682z M339.228,138.378c0.038,0.604-0.868,1.286-2.836,1.966l-3.63-0.264l-1.172,0.113l-0.113-1.096
		L339.228,138.378L339.228,138.378z M363.127,28.378l-1.778,0.151l-0.036-0.605c-0.038-0.605,0.302-1.021,1.058-1.21l0.643-0.038
		l1.21,0.491C364.261,27.886,363.921,28.302,363.127,28.378L363.127,28.378z M390.164,23.084l0.567-0.038l0.074,1.096l-1.626,0.152
		C389.143,23.689,389.445,23.273,390.164,23.084L390.164,23.084z M383.357,25.466l-2.686-0.303l-0.038-0.491
		c3.518-0.303,4.689-0.681,6.845-1.286c0.038,0.416,0.416,0.567,1.097,0.492l0.076,1.096l-1.06,0.114
		c-0.832,0.075-1.55-0.038-2.154-0.378C384.794,25.126,384.113,25.39,383.357,25.466L383.357,25.466z M386.723,35.26l-0.038-0.492
		l4.349-0.416l0.038,0.492L386.723,35.26L386.723,35.26z M391.374,31.478l-0.038-0.605l2.117-0.189l0.038,0.605L391.374,31.478
		L391.374,31.478z M391.865,24.067l-0.567,0.038l0.492-1.173l4.84-0.453l0.038,0.605C395.42,23.197,393.794,23.537,391.865,24.067
		L391.865,24.067z M394.323,34.503l-0.076-1.096l2.118-0.189c0.719-0.076,1.097,0.264,1.135,1.021L394.323,34.503L394.323,34.503z
		 M407.142,17.033l-2.723,0.757l-0.491,0.037c-1.286,0.114-2.95,0.076-4.916-0.113C402.529,17.487,405.894,17.222,407.142,17.033
		L407.142,17.033z M404.23,29.134l0.037,0.491l-3.742,0.341l-0.038-0.492L404.23,29.134L404.23,29.134z M410.356,32.045
		c-0.038-0.453-0.757-0.756-2.231-0.907l-3.743,1.059l-2.874,0.113c-0.643-0.454-0.982-0.756-1.021-0.983l3.328,0.189l7.486-1.21
		l3.819,0.151l0.038,0.605C413.268,31.251,411.68,31.592,410.356,32.045L410.356,32.045z M448.889,22.1
		c0.453,0.038,0.756,0.038,0.869,0.038c1.324-1.285,2.799-2.306,4.5-3.025c-1.36,5.975-3.479,10.399-6.39,13.273L445.75,31.1
		C447.527,26.6,448.586,23.613,448.889,22.1L448.889,22.1z M442.385,33.256l0.529-0.038c-0.719,1.361-1.361,2.079-1.891,2.117
		l-0.113-1.437C441.25,33.898,441.742,33.671,442.385,33.256L442.385,33.256z M438.188,43.276c1.021-4.084,2.004-6.39,2.911-6.995
		l0.038,0.491c-0.529,3.782-1.361,5.786-2.458,5.937l0.189,2.382c-0.908,1.286-1.324,2.269-1.286,3.025l-0.529,0.038l-0.303-3.29
		C437.355,44.789,437.847,44.259,438.188,43.276L438.188,43.276z M436.561,48.721c0.038,0.568-0.34,1.891-1.096,3.933l-0.53,0.038
		l-0.112-1.437C435.54,49.591,436.145,48.759,436.561,48.721L436.561,48.721z M406.046,137.281l-0.038-0.415l0.983-0.076
		l0.112,1.437C406.575,138.266,406.197,137.962,406.046,137.281L406.046,137.281z M449.645,138.416
		c-0.037-0.34-0.188-0.492-0.528-0.454l-2.458,0.228l-0.038-0.492h0.227l5.823-0.491l0.038,0.491
		C451.006,137.773,449.985,138.038,449.645,138.416L449.645,138.416z M446.733,137.206c0.227,0.112,0.113,0.228,0,0.302
		C446.62,137.471,446.469,137.357,446.733,137.206L446.733,137.206z M447.036,130.398l-3.252,0.266l-0.038-0.492l2.949-0.264
		l2.571-0.643c0.038,0.301,0.189,0.416,0.529,0.377c3.063-0.528,2.761-0.68,4.235-0.793c0.492-0.039,0.795,0.265,0.832,0.869
		L447.036,130.398L447.036,130.398z M458.418,129.416c-1.815-0.189-1.929-0.34-3.214-0.227l-0.038-0.416l2.911-0.265l0.038,0.416
		C457.812,128.963,458.909,129.038,458.418,129.416L458.418,129.416z M458.645,128.887l-0.037-0.416l1.588-0.15l0.038,0.416
		L458.645,128.887L458.645,128.887z M462.161,128.584l-0.037-0.416c0.264-0.037,0.642-0.227,1.134-0.605
		c0.794-0.074,1.21,0.455,1.286,1.06L462.161,128.584L462.161,128.584z M466.661,128.018l-0.038-0.492l1.929-0.151l0.038,0.492
		L466.661,128.018L466.661,128.018z M469.346,127.79c-0.038-0.567,0.189-0.907,0.682-0.983l0.642,0.832
		c-0.037-0.265,0.076-0.416,0.303-0.453l0.492,0.907L469.346,127.79L469.346,127.79z M440.797,140.118l-0.076-0.946l-0.303,0.038
		l0.076,0.944L440.797,140.118L440.797,140.118z M507.236,122.912c0.302-0.189,0.453-0.378-0.266-0.491
		c-0.341,0.378,0.378,0.491-0.378,0.529l0.037,0.34c0.076-0.075,0.265-0.188,0.416-0.302l-0.416,0.34v0.038l-0.794,1.021
		l1.588-0.566h0.19l-0.076-0.946L507.236,122.912L507.236,122.912z M509.996,125.068l-0.303,0.037l0.075,0.945l2.231-0.189
		C511.962,125.257,510.487,125.068,509.996,125.068L509.996,125.068z M506.555,123.404l0.038-0.038v-0.038
		C506.593,123.328,506.555,123.366,506.555,123.404L506.555,123.404z"/>
	<path fill="#F9DC3E" d="M361.387,53.41l0.038,0.605l1.248-0.113c-0.038-0.378,0.113-0.983,0.378-1.74l-0.113-1.096
		C362.408,51.104,361.879,51.898,361.387,53.41L361.387,53.41z M349.438,24.672l-0.112-1.097l-1.778,0.151l0.114,1.097
		L349.438,24.672L349.438,24.672z M314.763,89.598c-0.075-1.021-3.252-4.991-9.528-11.987c-0.114-1.285,2.042-3.214,6.466-5.747
		l12.63-11.004c2.836-3.593,4.499-9.416,4.991-17.508l-0.151-1.853c-0.492-5.597-4.538-10.096-12.214-13.537
		c-4.538-3.063-12.706-4.765-24.503-5.068c-9.756,0.832-22.5,4.311-38.192,10.475c-4.311,3.101-9.227,6.201-14.748,9.302
		l0.076,0.946c0.34-0.038,0.869-0.227,1.475-0.643c0.642-0.076,1.021,0.227,1.058,0.832l0.946-0.492l0.453-0.038l0.038,0.416
		c0.038,0.492-3.365,3.176-10.247,7.979l0.529,0.983l-0.454,0.038l-1.134-0.416c0.038,0.34-0.454,0.567-1.399,0.643l0.038,0.416
		l1.096,1.361c-0.34,0.038-0.869-0.113-1.588-0.378c-1.588,0.151-3.139,0.983-4.689,2.571l0.643-2.798
		c2.307-9.945,3.895-18.756,4.727-26.394l-0.114-0.492c-1.588-1.021-3.138-2.458-4.575-4.273c0.038-1.172,0.038-1.853,0-2.004
		l-0.114-0.416l-0.453,0.114c-4.992,7.487-14.597,20.268-28.852,38.343c-10.853,12.857-16.45,20.003-16.79,21.44
		c-4.424,4.576-6.542,7.336-6.315,8.282c-1.172,0.756-1.664,1.512-1.474,2.344c-0.341,0.076-0.568-0.038-0.643-0.378
		c-1.891,3.063-4.689,5.029-8.433,5.899l-3.933,0.907c-0.529,0.114-0.794,0.492-0.756,1.135l0.114,0.491l1.474-0.34l0.114,0.416
		l-3.328,1.286l-5.899,1.361l-3.1,0.188c-0.454,0.454,2.457-0.038,1.323,0.228l-3.857,0.907c-2.344,0.529-3.63,0.341-3.857-0.604
		l-0.454,0.113c0.076,0.416,0.114,0.717,0.038,0.982l-0.227-0.945l-3.101,0.719c-0.226-1.438-4.424-6.655-12.554-15.655
		c-0.151-1.739,2.723-4.273,8.584-7.562l16.562-14.559c3.706-4.764,5.899-12.403,6.618-22.915l-0.227-2.458
		c-0.643-7.411-6.012-13.386-16.109-17.999c-5.974-4.046-16.713-6.202-32.217-6.542c-12.857,1.096-29.646,5.672-50.293,13.651
		c-5.672,4.121-12.138,8.205-19.398,12.251l0.113,1.286c0.492-0.038,1.135-0.302,1.929-0.756c0.832-0.076,1.286,0.302,1.361,1.059
		l1.286-0.719l0.643-0.038l0.037,0.605c0.038,0.605-4.462,4.122-13.575,10.55l0.719,1.135l-0.643,0.038l-1.399-0.492
		c0.038,0.378-0.605,0.643-1.929,0.756l0.076,0.681l1.512,1.664c-0.491,0.038-1.172-0.114-2.041-0.416
		c-2.95,0.264-5.824,2.382-8.66,6.39l0.719,1.135c2.458-2.269,3.894-3.403,4.31-3.441l0.152,1.853
		c-0.416,0.037-1.059,0.302-1.929,0.756l1.551,2.344c2.987-3.214,6.277-5.974,9.869-8.281c1.777,0.454,2.723,1.021,2.76,1.626
		l1.362-0.113c9.756-7.223,19.398-12.441,28.965-15.655l0.114,1.285c-1.778,2.646-2.988,4.009-3.631,4.084
		c0.076,0.908,0.379,1.702,0.946,2.383c0.151,1.626-4.198,12.592-13.008,32.86C30.44,131.307,13.651,166.171,0,188.708
		c0.038,0.454,0.303,1.06,0.794,1.815c3.366-0.795,5.483-1.625,6.391-2.42l0.718-0.076l0.114,1.285l1.247-0.112l1.286-0.718
		c0.038,0.377,0.454,0.566,1.324,0.49l0.113,1.286c0.113,1.248-0.605,3.138-2.118,5.747c-1.361,1.551-2.836,4.803-4.386,9.758
		l0.038,0.604l1.248-0.113c5.445-6.088,9.567-12.062,12.403-17.886c15.882-4.651,27.982-9.228,36.377-13.726
		c8.432-0.72,14.86-2.951,19.247-6.619l-0.076-0.68l-3.176,0.945l-0.719,0.076l-0.075-0.682c6.201-0.944,10.474-2.307,12.857-4.197
		c12.062-9.303,21.175-15.881,27.339-19.776c12.668-9.302,20.911-18.378,24.655-27.188c0.68-0.151,1.361-0.303,2.117-0.492
		c1.777-0.074,2.761-0.112,3.025-0.188c-0.075-0.34,0.076-0.528,0.416-0.604c2.836-0.303,1.475,0.188,3.29-0.228l4.765-1.096
		l0.794-0.19l-0.378,0.228c0.529,0.075,1.096,0.038,1.739-0.113l0.34,1.399l-21.667,34.447l-4.802,6.014l-2.345,7.865l0.454-0.113
		l2.344-0.983l-0.756,3.063l0.227,0.906l0.643,0.795c-0.303,0.076-0.416,0.265-0.341,0.604l0.114,0.492l0.983-0.228
		c1.437-1.248,2.042-2.382,1.815-3.402c1.55,0.264,2.571,0.378,3.101,0.227l0.113,0.491c-0.945,0.228-1.437,0.983-1.512,2.269
		l0.113,0.491l0.53-0.112c7.865-8.584,27.15-37.965,42.616-57.894c-0.492-2.155,7.563-5.144,24.201-9l0.529-0.112
		c0.605,2.608-0.68,8.924-3.857,18.944c-2.042,6.05-3.025,9.377-2.874,9.907c-2.647,8.054-3.895,12.402-3.743,13.083l-5.899,19.323
		c-3.82,9.908-6.731,20.306-8.773,31.271c0.34-0.075,0.87-0.037,1.626,0.152l0.832-0.719c0.075,0.34,0.302,0.453,0.643,0.377
		l-0.341-1.398l2.572-0.075c0.756-0.188,1.399-1.135,1.928-2.874c-0.113-2.609,0.416-4.008,1.588-4.311
		c1.588-6.201,2.572-9.303,2.912-9.416c1.475-6.163,2.571-9.68,3.29-10.551c2.231-8.016,3.857-12.138,4.916-12.402l0.227,0.982
		l-1.626,4.198c-2.837,12.593-5.71,22.537-8.622,29.835l0.832,3.631l0.529-0.113c7.034-15.127,17.168-45.075,30.365-89.846
		c0.378-3.934,2.269-6.997,5.634-9.152l-0.756-0.794l-0.114-0.416c1.513-0.341,2.572-0.945,3.177-1.777
		c-0.076-0.341-1.399-0.832-3.971-1.513l6.58-28.209c1.437-1.286,2.269-1.966,2.533-1.966l0.114,1.436
		c-0.34,0.038-0.87,0.227-1.475,0.643l1.248,1.778c2.269-2.458,4.727-4.576,7.411-6.353c1.362,0.378,2.042,0.832,2.118,1.285
		l0.983-0.075c7.487-5.483,14.823-9.416,22.046-11.798l0.075,0.945c-1.323,2.004-2.231,3.025-2.723,3.063
		c0.075,0.681,0.265,1.286,0.605,1.815c0.113,1.248-3.139,9.567-9.794,24.995c-15.201,35.734-27.945,62.166-38.306,79.334
		c0.038,0.341,0.265,0.794,0.681,1.399c2.534-0.605,4.16-1.248,4.803-1.854l0.453-0.037l0.076,0.944l1.059-0.075l0.945-0.492
		c0.038,0.266,0.378,0.379,1.021,0.342l0.076,1.021c0.075,0.907-0.454,2.345-1.626,4.31c-1.097,1.174-2.231,3.631-3.441,7.375
		l0.037,0.492l0.984-0.076c4.121-4.613,7.26-9.151,9.415-13.613c12.063-3.555,21.252-6.996,27.604-10.399
		c6.467-0.567,11.344-2.231,14.672-5.028l-0.038-0.492l-2.458,0.719l-0.529,0.038l-0.038-0.492c4.689-0.681,7.979-1.739,9.756-3.138
		c9.151-7.034,16.071-12.063,20.76-15.014C308.788,109.602,315.595,99.392,314.763,89.598L314.763,89.598z M312.267,90.241
		l0.341,3.819c-0.453,0.946-0.945,1.437-1.399,1.475l-0.567-6.504C311.7,89.409,312.229,89.787,312.267,90.241L312.267,90.241z
		 M25.94,59.461l-0.642,0.037l-0.114-1.172l2.609-0.227l0.038,0.605C27.415,58.742,26.772,58.969,25.94,59.461L25.94,59.461z
		 M13.197,186.932c-1.512-0.682-2.874-0.945-4.046-0.832L9,184.246c-0.076-0.719,0.34-1.21,1.248-1.398
		c0.831-0.076,1.323,0.529,1.399,1.739c2.193-2.685,3.403-4.046,3.63-4.084l1.399,0.567
		C16.222,184.852,15.05,186.779,13.197,186.932L13.197,186.932z M149.365,44.486c-0.643,0.076-1.929-1.928-3.781-5.899l-0.114-1.172
		c1.21-0.113,2.458,1.853,3.781,5.899L149.365,44.486L149.365,44.486z M147.55,30.382l-0.53,1.248l-18.491-7.715
		C140.857,24.331,147.21,26.487,147.55,30.382L147.55,30.382z M69.464,97.426l-2.609,0.227l-0.113-1.173l2.609-0.227L69.464,97.426
		L69.464,97.426z M67.346,57.154l0.643-0.038l0.152,1.853c-0.605,0.038-1.399,0.945-2.383,2.685l-0.113-1.286
		C66.817,58.969,67.422,57.91,67.346,57.154L67.346,57.154z M61.863,70.086l0.227,2.458l-0.642,0.038l-0.227-2.458L61.863,70.086
		L61.863,70.086z M58.99,74.7l1.248-0.114c-0.114,2.042-0.681,3.139-1.702,3.214l-0.643,0.038
		C58.687,76.477,59.065,75.418,58.99,74.7L58.99,74.7z M56.834,81.128l0.719-0.076l0.037,0.605l-1.172,1.967l-1.248,0.113
		l-0.037-0.605C56.381,83.019,56.948,82.376,56.834,81.128L56.834,81.128z M54.717,86.914l-0.378,3.1l-0.643,0.038l-0.265-3.062
		L54.717,86.914L54.717,86.914z M33.503,147.227c-0.832,4.235-1.739,6.391-2.685,6.467l-0.037-0.605
		C30.554,151.008,31.461,149.042,33.503,147.227L33.503,147.227z M29.608,155.659l0.038,0.604c0.076,0.832-0.302,1.324-1.134,1.361
		l-0.038-0.605C28.398,156.302,28.776,155.848,29.608,155.659L29.608,155.659z M28.474,173.167l1.966-0.188l0.076,0.681
		c-0.492,0.036-1.135,0.302-1.929,0.756l-1.248,0.112C27.264,173.885,27.68,173.395,28.474,173.167L28.474,173.167z M84.438,155.886
		c-11.041,5.445-17.545,9.151-19.474,11.079c-11.949,4.16-17.886,6.73-17.772,7.752c-10.626,4.198-17.622,7.299-20.987,9.227
		c-0.794,0.076-1.928-0.227-3.441-0.907c-0.189-2.155,0.794-3.896,2.874-5.294c1.853-0.151,3.63,0.113,5.332,0.832
		c1.966-1.021,5.407-2.155,10.285-3.365l-0.113-1.286l-3.933,0.341c0.491-0.681,4.273-2.457,11.382-5.332l1.966-0.188l0.038,0.604
		c-3.365,0.303-5.218,1.285-5.634,3.063c0.075,0.794,0.529,1.134,1.361,1.058c2.534-1.588,3.781-2.533,3.744-2.798
		c4.802-0.907,18.075-7.864,39.818-20.835l0.113,1.172C90.035,151.575,88.182,153.163,84.438,155.886L84.438,155.886z
		 M51.087,166.852c3.176-0.265,5.899-1.55,8.167-3.781c0.908-0.075,1.4,0.265,1.437,1.059c-1.55,0.152-4.537,1.438-8.886,3.934
		l-0.643,0.037L51.087,166.852L51.087,166.852z M104.896,125.521L88.22,138.756c-12.403,8.13-19.058,12.215-20.042,12.29
		c-19.738,10.853-32.028,16.487-36.792,16.903l-0.719,0.074c0.605-2.23,9.378-20.191,26.394-53.998
		c7.487-0.643,19.285-4.121,35.356-10.474l3.933-0.341c8.13-0.718,14.218,0.87,18.226,4.65l0.227,2.459
		C111.816,118.98,108.488,124.047,104.896,125.521L104.896,125.521z M72.3,107.182l2.685-0.227l0.038,0.605l-2.685,0.227
		L72.3,107.182L72.3,107.182z M110.001,100.791l1.966-0.189c1.815,0.871,2.76,1.627,2.836,2.308l0.038,0.604
		C113.101,103.665,111.475,102.757,110.001,100.791L110.001,100.791z M115.332,70.427c-1.739,2.079-6.504,5.634-14.293,10.625
		c-2.572,0.227-12.139,3.933-28.701,11.193c-0.832-0.378-1.702-0.529-2.647-0.454l-0.113-1.172
		c-0.189-2.382,0.869-5.369,3.214-8.999c1.285-6.807,2.685-10.702,4.235-11.647l13.802-31.045c-0.151-1.929,2.798-3.404,8.848-4.425
		l1.967-0.189l0.151,1.778c5.937-0.908,9.642-1.437,11.079-1.551c10.967-0.945,16.676,1.286,17.13,6.618l1.248-0.114l-0.265-3.138
		l1.362-0.114c3.214,1.777,4.953,3.933,5.18,6.466c0.151,1.74-0.794,3.895-2.798,6.467c-0.832,0.075-1.324-0.53-1.399-1.74
		L131.97,49.1l-0.302,3.781c-5.559,8.319-9.605,12.592-12.1,12.819C117.299,68.838,115.9,70.389,115.332,70.427L115.332,70.427z
		 M123.803,92.17c-1.135-0.757-2.042-1.097-2.723-1.059l-0.151-1.853l1.248-0.114l2.76,1.627
		C125.051,91.64,124.672,92.094,123.803,92.17L123.803,92.17z M132.576,102.568c1.21,0.492,1.928,1.021,2.079,1.513l-0.605,0.151
		l0.038,0.037c-0.113,0-0.265,0.039-0.378,0.076l-0.908,0.719L132.576,102.568L132.576,102.568z M133.407,107.787l-0.113-0.492
		l1.588-0.378l0.114,0.492L133.407,107.787L133.407,107.787z M137.227,112.061c1.626-0.266,2.42-0.379,5.445-1.06l0.113,0.491
		l-5.747,1.324C137.113,112.551,137.189,112.287,137.227,112.061L137.227,112.061z M142.823,114.441
		c-2.42,0.228-1.891-0.075-5.748,0.795l-0.113-0.492l4.84-1.551l2.307-0.528l0.227,0.907
		C143.277,113.799,144.033,113.799,142.823,114.441L142.823,114.441z M147.928,113.232c-0.567,0.15-1.021-0.113-1.286-0.756
		l1.475-0.342c0.643-0.15,1.059,0.114,1.21,0.758L147.928,113.232L147.928,113.232z M161.768,98.333l-0.114-0.491l2.383-0.568
		l0.227,0.908L161.768,98.333L161.768,98.333z M176.553,189.011c0.151-0.681,0.189-1.172,0.113-1.513l0.53-0.113
		c0.643-0.15,1.021,0.076,1.172,0.682l0.114,0.49L176.553,189.011L176.553,189.011z M186.914,102.229l-1.059-0.189
		c-1.701,0.682-3.138,1.172-4.311,1.438l-0.983,0.227c-0.567,0.15-1.021-0.076-1.248-0.682l6.92-1.588l2.269-1.059l0.757,0.87
		C188.162,101.473,187.368,101.812,186.914,102.229L186.914,102.229z M192.246,100.525l-0.114-0.49
		c0.341-0.076,0.794-0.34,1.286-0.832l4.916-1.135l0.113,0.492C195.838,99.203,193.758,99.846,192.246,100.525L192.246,100.525z
		 M193.002,90.581c-0.34,0.076-0.794,0.378-1.361,0.832c-0.076-0.34-0.756-0.34-2.042-0.038c-0.227-0.945,3.403-2.268,10.928-4.008
		l1.059-0.227l0.227,0.908C196.519,89.598,193.569,90.468,193.002,90.581L193.002,90.581z M206.237,76.288
		c-0.529,6.012-2.647,9.415-6.391,10.285l-0.113-0.491l-3.328,1.285l-1.474,0.341c-0.757,0.189-1.437,0.151-2.042-0.038
		l-0.303-1.324c-0.113-0.491,4.689-7.147,14.445-19.928l1.134,0.189C208.581,68.347,207.939,71.561,206.237,76.288L206.237,76.288z
		 M229.644,56.246l-0.454,0.038l-0.076-0.945l1.967-0.189l0.037,0.491C230.778,55.717,230.287,55.906,229.644,56.246L229.644,56.246
		z M220.001,153.088c-1.134-0.529-2.155-0.757-3.025-0.681l-0.113-1.437c-0.038-0.492,0.264-0.832,0.907-1.021
		c0.643-0.075,1.021,0.378,1.097,1.361c1.626-2.08,2.533-3.139,2.722-3.139l1.021,0.416
		C222.232,151.462,221.363,152.975,220.001,153.088L220.001,153.088z M323.384,44.94c-0.491,0.038-1.437-1.475-2.911-4.538
		l-0.075-0.945c0.944-0.076,1.929,1.399,2.911,4.424L323.384,44.94L323.384,44.94z M322.023,34.125l-0.454,0.983l-13.991-5.861
		C316.918,29.55,321.758,31.176,322.023,34.125L322.023,34.125z M262.693,85.061l-1.967,0.189l-0.076-0.946l1.967-0.189
		L262.693,85.061L262.693,85.061z M261.066,54.469l0.529-0.038l0.114,1.437c-0.492,0.038-1.097,0.719-1.815,2.042l-0.076-0.945
		C260.689,55.868,261.105,55.036,261.066,54.469L261.066,54.469z M256.945,64.301l0.152,1.853l-0.531,0.038l-0.15-1.853
		L256.945,64.301L256.945,64.301z M254.714,67.817l0.983-0.075c-0.113,1.588-0.529,2.42-1.247,2.495l-0.53,0.038
		C254.487,69.217,254.752,68.385,254.714,67.817L254.714,67.817z M253.126,72.658l0.454-0.038l0.038,0.491l-0.87,1.513l-0.983,0.076
		l-0.038-0.492C252.748,74.132,253.202,73.603,253.126,72.658L253.126,72.658z M251.538,77.044l-0.34,2.42l-0.454,0.038
		l-0.189-2.382L251.538,77.044L251.538,77.044z M235.391,122.912c-0.642,3.177-1.323,4.803-2.042,4.878l-0.037-0.416
		C233.198,125.786,233.879,124.273,235.391,122.912L235.391,122.912z M232.404,129.303l0.038,0.416
		c0.076,0.68-0.227,1.059-0.908,1.096l-0.037-0.49C231.459,129.832,231.761,129.492,232.404,129.303L232.404,129.303z
		 M231.572,142.613l1.513-0.113l0.037,0.491c-0.34,0.038-0.869,0.227-1.474,0.567l-0.983,0.075
		C230.627,143.105,230.929,142.766,231.572,142.613L231.572,142.613z M274.037,129.492c-8.319,4.122-13.273,6.92-14.823,8.357
		c-9.075,3.176-13.575,5.142-13.499,5.936c-8.055,3.215-13.349,5.521-15.844,6.996c-0.605,0.037-1.475-0.189-2.61-0.719
		c-0.151-1.625,0.605-2.949,2.194-3.933c1.437-0.112,2.798,0.076,4.046,0.604c1.512-0.756,4.121-1.588,7.827-2.533l-0.075-0.945
		l-3.063,0.266c0.378-0.53,3.289-1.892,8.697-4.084l1.512-0.114l0.038,0.416c-2.571,0.227-4.008,0.983-4.311,2.345
		c0.038,0.605,0.416,0.907,1.059,0.832c1.891-1.248,2.798-1.967,2.798-2.193c3.631-0.643,13.689-5.937,30.214-15.844l0.074,0.945
		C278.271,126.202,276.873,127.412,274.037,129.492L274.037,129.492z M248.702,137.811c2.458-0.227,4.538-1.172,6.277-2.836
		c0.643-0.037,1.021,0.228,1.059,0.832c-1.135,0.113-3.366,1.06-6.731,2.875l-0.529,0.036L248.702,137.811L248.702,137.811z
		 M289.617,106.389l-12.592,10.133c-9.416,6.164-14.521,9.265-15.315,9.34c-14.974,8.244-24.277,12.517-27.945,12.82l-0.529,0.036
		c0.454-1.7,7.147-15.352,20.079-40.99c5.634-0.491,14.559-3.176,26.81-8.016l3.062-0.265c6.164-0.529,10.777,0.681,13.803,3.592
		l0.152,1.853C294.835,101.396,292.339,105.215,289.617,106.389L289.617,106.389z M264.886,92.472l1.968-0.189l0.037,0.492
		l-1.967,0.189L264.886,92.472L264.886,92.472z M293.511,87.594l1.513-0.113c1.399,0.68,2.119,1.285,2.156,1.777l0.037,0.416
		C295.895,89.787,294.646,89.107,293.511,87.594L293.511,87.594z M297.482,64.565c-1.324,1.589-4.916,4.311-10.777,8.093
		c-1.966,0.189-9.227,2.987-21.781,8.432c-0.605-0.227-1.285-0.302-2.004-0.265l-0.076-0.945c-0.15-1.815,0.643-4.084,2.383-6.844
		c0.983-5.219,2.08-8.13,3.215-8.811l10.55-23.596c-0.114-1.399,2.116-2.533,6.655-3.403l1.513-0.113l0.112,1.436
		c4.463-0.718,7.261-1.134,8.396-1.247c8.319-0.719,12.667,0.945,13.008,5.029l0.983-0.076l-0.189-2.269l0.983-0.075
		c2.42,1.323,3.706,2.911,3.856,4.802c0.113,1.361-0.566,3.025-2.004,4.954c-0.643,0.075-1.021-0.378-1.097-1.362l-0.983,0.076
		l-0.302,2.836c-4.198,6.391-7.261,9.68-9.188,9.832C299.032,63.355,297.973,64.528,297.482,64.565L297.482,64.565z M301.906,80.296
		l-0.113-1.437l0.982-0.075l2.117,1.285c0.039,0.605-0.264,0.946-0.906,1.021C303.078,80.523,302.398,80.258,301.906,80.296
		L301.906,80.296z M125.882,172.146l-0.983,0.227l-0.832,0.718c0.152,0.604,0.53,0.832,1.173,0.681
		c0.642-0.15,0.907-0.528,0.756-1.133L125.882,172.146L125.882,172.146z M122.139,164.697l0.113,0.49
		c0.643-0.15,0.908-0.528,0.757-1.133l-0.114-0.492C122.29,163.713,122.025,164.092,122.139,164.697L122.139,164.697z
		 M148.911,114.404l0.719-0.454c-0.152,0-0.265-0.038-0.379-0.075C148.987,113.95,148.873,114.139,148.911,114.404L148.911,114.404z
		 M148.76,101.357l1.134-0.264l-0.227-0.984l-1.134,0.265L148.76,101.357L148.76,101.357z M415.991,139.55l-2.572-0.302
		l-0.454,0.982l0.038,0.492l15.315-1.285l-0.076-0.945L415.991,139.55L415.991,139.55z M429.982,138.378l0.074,0.945h0.151
		l-0.075-0.945H429.982L429.982,138.378z M494.227,129.982l0.076,0.947l1.664,0.301l-0.076-0.944L494.227,129.982L494.227,129.982z
		 M491.883,130.172c-11.495,2.572-12.932,2.118-15.352,2.307l0.075,0.945l1.059-0.074l0.567-0.039l-0.151-0.112l1.248-0.492
		c11.382-1.248,12.705-0.794,12.592-2.08L491.883,130.172L491.883,130.172z M422.873,113.459l-1.021-0.34
		c-0.832,2.23-1.248,3.554-1.21,3.932l0.037,0.416C421.474,117.43,422.192,116.068,422.873,113.459L422.873,113.459z
		 M409.033,106.01l-0.038-0.492l-0.529,0.039l-0.946,0.604l0.53,0.907C408.768,106.993,409.108,106.652,409.033,106.01
		L409.033,106.01z M439.095,137.092l-0.076-0.945l-0.302,0.039l0.075,0.944L439.095,137.092L439.095,137.092z M501.488,123.025
		l0.718-0.075c0.416-0.038,0.604-0.378,0.567-0.983l-0.416-0.908c-2.609,0.228-3.819,0.342-5.937,1.514l-0.038-0.492l-3.139,0.303
		c-0.075-0.945-0.34-1.438-0.756-1.398l-1.626,0.15c-1.892,0.151-2.798,0.076-3.744,0.795c-0.037-0.341-0.151-0.492-0.34-0.492
		l-1.815,0.151l-1.059,0.604c-0.038-0.34-0.151-0.491-0.34-0.491l-0.644,0.567l-0.038-0.492l-2.533-0.188l-0.604,0.038l0.075,0.945
		l1.286,0.34l1.21-0.075c0.416,0.265,0.869,0.34,1.398,0.302l1.06-0.529l0.038,0.416c-5.938,1.475-5.899,1.211-9.983,1.891
		c-0.454-0.302-0.794-0.453-1.021-0.416l-0.075,0.076c-0.453-0.038-0.719-0.34-0.757-0.832l2.118-0.266
		c0.151,0,0.265,0.152,1.437,0.379c1.702-0.832,1.777-1.172,2.685-1.248l-0.075-0.945c-5.823,1.135-3.479,0.378-10.776,1.021
		l-0.341,0.037l-0.075-0.945c9.378-1.135,6.238-0.491,9.453-1.398c0.037,0.34,0.151,0.491,0.341,0.491
		c0.378-0.378,0.794-0.567,1.285-0.644l0.643-0.037c3.29-0.265,4.387,0.379,10.891-1.437l0.037,0.416l1.06-0.53l0.982-0.074
		c-0.074-0.946,1.362-1.098,1.854-1.135l-0.075-1.021c-11.42,2.307-14.408,1.664-17.584,2.572l-0.038-0.416
		c-2.987,0.528-3.1,0.302-3.857,0.34c-0.227,0.037-0.566,0.227-0.944,0.604c-0.038-0.34-0.151-0.491-0.378-0.491
		c-0.114,0-0.151,0.037-0.189,0.037l-9.681,1.588c-0.037-0.264-0.151-0.416-0.378-0.377c-5.029,1.059-3.668,1.248-10.399,1.853
		c-0.302,0.038-0.718,0.188-1.247,0.528c-0.038-0.264-0.189-0.414-0.529-0.377l-4.122,0.34l-2.761,0.681
		c-0.037-0.265-0.188-0.416-0.528-0.378c-1.552,0.416-2.912,0.681-4.009,0.756h-0.075c-0.682,0.076,0.34-0.189-0.189-0.415
		l-0.832,0.491c-1.21,0.113-0.566-0.076-4.727-0.038c-7.298,0.908-6.504,1.021-7.298,1.06l-2.724-0.189
		c0.038,0.265-0.112,0.453-0.416,0.453c-3.1-0.415-4.688-0.907-4.726-1.475c0.416-2.949,1.134-4.462,2.155-4.537l0.529-0.037
		l-0.454,0.982l0.529-0.038c0.983-0.53,1.438-1.021,1.399-1.475l-0.075-1.021l-0.984,0.075l-0.075-0.946
		c-0.075-0.718,0.038-1.36,0.303-1.89l2.23-3.593l0.076,0.945l1.059-0.076l-0.075-0.944l-0.605-0.87
		c0.794-0.681,1.399-1.059,1.891-1.097l-0.037-0.491l-1.438,0.113l-0.113-1.438c2.874-5.974,4.235-9.453,4.159-10.436l1.021,0.416
		c0.643-0.038,0.944-0.416,0.907-1.097l-0.983,0.076l-0.037-0.416c-0.076-0.719,0.075-1.399,0.378-2.004
		c1.55-1.626,2.27-3.252,2.117-4.954c0.303-0.038,0.454,0.114,0.492,0.454c1.323-0.756,2.345-2.761,3.101-6.088
		c2.344-4.235,5.672-12.706,10.021-25.373c8.319-22.386,7.979-24.768,9.15-30.062l-0.982,0.075c0.075,0.681-0.075,1.324-0.378,1.929
		c-0.682-0.265-1.21-0.416-1.589-0.378l-0.037-0.416c-0.151-1.929,0.643-4.235,2.458-6.958l0.453-0.038l0.832,3.252l0.983-0.075
		c-0.038-0.227,0.227-1.513,0.756-3.895c-0.038-0.492-0.416-0.794-1.172-0.832l-0.945,0.605c-0.076-0.681-0.038-2.458,0.075-5.294
		l-0.492,0.038c-0.831-0.832-1.247-1.513-1.285-2.08l-5.407,0.529c-0.037-0.378-0.227-0.945-0.605-1.664
		c-0.037-0.491,1.173-0.983,3.668-1.474l1.098,0.416l1.021-0.605c0.038,0.34,0.227,0.491,0.605,0.453l1.021-0.605
		c0.038,0.341,0.227,0.492,0.605,0.454l0.491-0.038l-0.075-1.096c-0.757,0.075-2.761,0.075-5.938-0.038l-1.021,0.681l-0.038-0.605
		c-25.373,2.079-39.78,3.252-43.222,3.592c-0.454,0.038-2.23,0-5.368-0.076c0.036,0.416-0.342,0.643-1.098,0.719l-1.097-0.492
		l-3.705,0.946c-0.87,0.075-2.345,0.037-4.387-0.19c-0.567,0.454-1.248,0.719-2.08,0.795c-0.453,0.037,5.407-0.303,10.853-0.681
		c-0.566,0.454-1.437,0.718-2.646,0.832c-0.832,0.075-1.551-0.038-2.155-0.378c-0.832,0.378-3.517,0.983-8.017,1.89l-1.097-0.416
		l-17.696,2.723c-0.682-0.34-1.476-0.454-2.384-0.378c-0.944,0.075-2.532,0.416-4.726,1.021l-8.546,3.554l0.642,1.059
		c0.416-0.038,1.021-0.265,1.74-0.681l3.025,0.265l-0.379,2.836c-2.798,1.248-4.424,3.101-4.878,5.445
		c-4.196,1.853-6.276,3.177-6.276,3.971l0.038,0.491l0.642-0.037l1.135-0.604l1.323,1.588l0.189,2.193
		c0.075,0.681-6.995,15.541-21.139,44.583c-12.251,27.982-18.68,43.296-19.285,46.057c-4.196,1.172-6.616,2.874-7.335,5.144
		c0.075,0.717,1.323,1.209,3.743,1.398l0.113,1.096l-1.097,1.814l0.189,2.195c0.113,1.133,3.176,2.004,9.189,2.608
		c-0.038-0.378,0.15-0.604,0.566-0.644c0.113,1.361-0.265,4.009-1.135,7.941l0.643-0.038c2.496-3.403,3.669-5.747,3.556-7.032
		l0.529-0.039c0.604-0.037,1.247,0.644,2.004,2.117c-0.757,0.303-3.403,6.315-7.941,18.075l0.643,1.06l0.644-0.039
		c5.559-14.065,9.038-21.855,10.474-23.33c7.299-0.644,19.929-1.928,37.853-3.857l1.135-0.681c0.037,0.379,0.264,0.567,0.68,0.53
		l1.173-0.114l1.135-0.681c0.038,0.379,0.265,0.567,0.681,0.529l13.575-1.172c3.592-0.303,5.294-1.398,5.142-3.252
		c-0.037-0.492,2.08-1.059,6.354-1.664c0.416-0.038,1.021,0.076,1.853,0.34c-0.038-0.34,2.118-0.68,6.429-1.058
		c0.113-2.269,0.831-3.479,2.117-3.593l-0.112-1.097c-1.21,0.113-2.572,0.416-4.16,0.945c-2.836-0.151-4.651-0.378-5.407-0.644
		c-0.757,0.416-1.324,0.644-1.74,0.682l-9.453,0.302l-1.135,0.604c-0.038-0.34-0.264-0.49-0.68-0.452l-0.53,0.036l-1.21,0.606
		c-0.038-0.341-1.021-0.606-2.987-0.87l-1.21,0.719l-2.344,0.188l-0.038-0.604c12.176-1.323,18.188-2.987,18.037-4.953
		c0.794-0.076,1.21,0.302,1.285,1.096l3.555-0.907l-0.113-1.097l-29.154,0.794c0.038,0.378-0.151,0.604-0.567,0.644l-3.555-0.303
		c-0.907,0.075-1.663,0.34-2.269,0.794l-1.323-0.491c-3.668,0.303-6.392,0.756-8.206,1.323c-2.495-0.188-5.257-0.151-8.319,0.113
		l-6.541,0.567l-3.025-0.34c-0.151-1.93,3.593-11.421,11.307-28.437c2.23-5.748,4.272-9.34,6.238-10.701
		c0.416-0.038,1.021,0.113,1.854,0.453l4.651-1.588l2.382,0.378c4.009-0.34,8.66-1.474,13.992-3.441
		c1.322-0.113,2.306-0.037,3.024,0.265l3.554-0.832l10.589-0.908c4.5-0.378,9.378-1.361,14.672-2.987l-0.114-1.096
		c-1.966,0.189-2.987-0.152-3.062-0.946c-0.113-1.474-1.551-2.08-4.311-1.853l-0.114-1.096l2.912-0.832l7.638-0.643l-0.112-1.096
		c-0.304,0.037-1.854,0-4.728-0.114l-0.112-1.172l2.948-0.265c0.794-0.075,1.136-0.454,1.06-1.21
		c-3.97,0.113-5.976-0.076-6.013-0.605c-27.68,1.361-41.558,1.626-41.633,0.756c-0.416,0.038-0.983,0.303-1.739,0.757l-0.719-1.135
		c7.335-15.579,11.646-23.445,12.895-23.558c0.038,0.605-0.266,1.588-0.908,2.912l0.038,0.491l1.173-0.113
		c2.911-6.958,5.369-10.55,7.411-10.701c8.697-0.757-1.21-1.324,17.395-4.236c0.756,0.341,1.285,0.492,1.663,0.454
		c7.298-1.475,17.471-3.025,30.517-4.613l-0.076-1.097l-6.957,0.643l-0.076-1.097c0.832-0.075,1.513-0.34,2.08-0.794l0.038,0.605
		c0.378-0.037,0.907-0.302,1.588-0.756c1.21-0.113,2.117,0,2.76,0.34c2.42-0.642,4.388-1.021,5.824-1.172l4.348-0.416
		c1.06-0.68,1.552-1.285,1.514-1.853l-0.038-0.491c-1.098,0.113-2.344,0.038-3.819-0.227c-0.038-0.605,0.264-1.021,0.983-1.21
		l8.092-0.756l3.706-0.946c0.038,0.416,0.227,0.567,0.529,0.567c0.378-0.037,0.907-0.302,1.588-0.756
		c0.189,0.038,0.416,0.038,0.604,0.076c-0.491,1.021-1.058,2.496-1.626,4.424l-1.058,0.076c-0.076-0.719-0.266-1.362-0.605-1.929
		l-0.529,0.038c-9.831,27.377-14.219,40.121-23.293,61.145c-1.664,5.37-3.063,8.357-4.273,9c0.038,0.605,0.416,0.907,1.059,0.832
		c0.228,2.647-0.378,5.256-1.853,7.827c-4.198,12.102-6.996,18.718-8.433,19.928l0.945,5.711c0.037,0.604-0.265,0.944-0.908,1.021
		l-0.982,0.075c-0.151-1.588-0.719-2.344-1.739-2.23l-0.53,0.037c-1.285,2.004-2.269,4.311-2.91,6.996l0.982-0.076
		c1.323-0.869,1.928-1.891,1.815-3.062l1.966-0.189l1.134,0.416c-0.907,1.438-1.323,2.572-1.247,3.441l0.529,0.908l-1.286,3.024
		l0.038,0.492c1.135-0.114,2.382,0.264,3.706,1.058c0.907-0.074,1.891-0.49,2.987-1.21c1.135-0.112,5.369-0.151,12.668-0.151
		l3.668-1.248c4.462-0.037,5.18,0.076,9.036-0.265l1.589-0.151l0.832-0.566l0.037,0.492c4.047-0.342,4.312-0.076,7.487,0.302
		l0.038,0.492l-2.23,0.188l0.075,0.945c0.681-0.076,1.285-0.266,1.777-0.682c0.567-0.036,0.907,0.266,0.945,0.947
		c-0.907,0.074-1.929,0.301-3.063,0.68l-0.982-0.34c-1.551,0.416-1.211,0.528-2.27,0.604l-1.55-0.302
		c0.038,0.264-0.113,0.453-0.378,0.453c0.038,0.604,0.378,0.908,0.945,0.869l1.588-0.15l8.281-0.719l3.139-0.68
		c0.038,0.264,0.15,0.416,0.416,0.377l1.513-0.566l2.836-0.227c2.193-0.189,2.155-0.342,6.92-1.098
		c-0.038-0.302,0.075-0.416,0.302-0.454l0.038,0.416c7.752-1.323,8.243-1.399,9.491-1.815l0.114,0.228
		c1.928-0.454,0.832-0.34,1.36-0.718c0.038,0.34,0.151,0.49,0.341,0.49l1.361-0.112l-0.075-1.021l-2.761-0.039l-0.038-0.076
		c-0.113,0.039-0.188,0.039-0.303,0.076h-0.378v0.076c-1.853,0.379-1.891,0.113-3.101,0.228l-6.92,0.378l-0.037-0.492l3.856-0.529
		l1.399-0.113l0.794-0.567l0.038,0.492c5.444-0.454,7.373,0.907,32.557-4.462c1.362-0.114,1.248-1.248,2.118-3.594
		c-0.454,0.039-0.908-0.074-1.323-0.302c-2.08,0.794-3.177,0.416-7.185,1.06c-0.34,0.037-0.605-0.266-0.72-0.87l-0.037-0.416
		l3.856,0.112c0.719-0.074,2.118-0.188,4.198-1.36C501.828,122.874,501.034,123.062,501.488,123.025L501.488,123.025z
		 M315.292,126.014l-1.777,0.15c-0.075-0.719,0.87-3.441,2.836-8.092l1.173-0.113C317.561,119.055,316.842,121.74,315.292,126.014
		L315.292,126.014z M317.448,117.391l-0.038-0.49c-0.038-0.605,0.34-1.021,1.172-1.211l0.038,0.492
		C318.658,116.9,318.279,117.316,317.448,117.391L317.448,117.391z M341.081,135.654l0.038,0.492l-2.949,0.266l-0.038-0.492
		L341.081,135.654L341.081,135.654z M337.527,135.354c0.038,0.604-0.87,1.285-2.836,1.965l-3.632-0.264l-1.172,0.113l-0.112-1.098
		L337.527,135.354L337.527,135.354z M361.425,25.352l-1.776,0.152l-0.038-0.605c-0.038-0.605,0.303-1.021,1.059-1.21l0.644-0.038
		l1.21,0.491C362.559,24.861,362.219,25.277,361.425,25.352L361.425,25.352z M388.462,20.058l0.567-0.037l0.076,1.096l-1.627,0.151
		C387.441,20.663,387.743,20.248,388.462,20.058L388.462,20.058z M381.655,22.441l-2.685-0.303l-0.038-0.491
		c3.518-0.303,4.689-0.681,6.845-1.286c0.038,0.416,0.416,0.567,1.097,0.492l0.075,1.096l-1.059,0.114
		c-0.832,0.075-1.551-0.038-2.155-0.379C383.092,22.1,382.412,22.365,381.655,22.441L381.655,22.441z M385.021,32.235l-0.038-0.492
		l4.349-0.416l0.038,0.492L385.021,32.235L385.021,32.235z M389.672,28.453l-0.038-0.605l2.118-0.189l0.038,0.605L389.672,28.453
		L389.672,28.453z M390.164,21.042l-0.568,0.037l0.492-1.172l4.84-0.454l0.038,0.605C393.718,20.172,392.092,20.512,390.164,21.042
		L390.164,21.042z M392.622,31.478l-0.076-1.096l2.118-0.189c0.718-0.076,1.096,0.264,1.134,1.021L392.622,31.478L392.622,31.478z
		 M405.44,14.008l-2.723,0.757l-0.492,0.037c-1.284,0.114-2.948,0.076-4.916-0.113C400.827,14.462,404.193,14.197,405.44,14.008
		L405.44,14.008z M402.529,26.109l0.038,0.491l-3.744,0.341l-0.038-0.492L402.529,26.109L402.529,26.109z M408.655,29.02
		c-0.038-0.453-0.757-0.756-2.231-0.907l-3.744,1.059l-2.874,0.113c-0.643-0.454-0.982-0.756-1.021-0.983l3.328,0.189l7.486-1.21
		l3.819,0.151l0.038,0.605C411.566,28.226,409.978,28.567,408.655,29.02L408.655,29.02z M447.188,19.075
		c0.453,0.038,0.756,0.038,0.869,0.038c1.323-1.286,2.799-2.307,4.5-3.025c-1.361,5.975-3.479,10.399-6.391,13.273l-2.118-1.286
		C445.826,23.575,446.885,20.588,447.188,19.075L447.188,19.075z M440.683,30.23l0.529-0.037c-0.718,1.361-1.361,2.079-1.89,2.117
		l-0.114-1.437C439.549,30.873,440.04,30.646,440.683,30.23L440.683,30.23z M436.486,40.251c1.021-4.084,2.004-6.39,2.911-6.995
		l0.037,0.491c-0.528,3.781-1.36,5.786-2.458,5.937l0.189,2.382c-0.907,1.286-1.323,2.269-1.286,3.025l-0.529,0.038l-0.302-3.29
		C435.654,41.764,436.145,41.234,436.486,40.251L436.486,40.251z M434.86,45.696c0.037,0.567-0.342,1.891-1.098,3.933l-0.528,0.038
		l-0.114-1.437C433.839,46.566,434.444,45.734,434.86,45.696L434.86,45.696z M404.344,134.256l-0.038-0.416l0.983-0.074l0.114,1.437
		C404.873,135.24,404.495,134.938,404.344,134.256L404.344,134.256z M447.943,135.391c-0.038-0.341-0.189-0.492-0.529-0.453
		l-2.458,0.227l-0.038-0.492h0.227l5.823-0.49l0.038,0.49C449.305,134.748,448.284,135.014,447.943,135.391L447.943,135.391z
		 M445.032,134.182c0.227,0.112,0.112,0.227,0,0.301C444.918,134.445,444.767,134.332,445.032,134.182L445.032,134.182z
		 M445.334,127.374l-3.252,0.265l-0.038-0.492l2.95-0.264l2.571-0.643c0.037,0.302,0.188,0.416,0.529,0.378
		c3.063-0.529,2.761-0.681,4.235-0.794c0.491-0.038,0.794,0.265,0.832,0.869L445.334,127.374L445.334,127.374z M456.716,126.391
		c-1.814-0.188-1.928-0.34-3.214-0.227l-0.038-0.416l2.912-0.264l0.038,0.416C456.111,125.938,457.208,126.014,456.716,126.391
		L456.716,126.391z M456.943,125.861l-0.038-0.416l1.588-0.151l0.038,0.416L456.943,125.861L456.943,125.861z M460.46,125.559
		l-0.038-0.416c0.266-0.037,0.644-0.227,1.134-0.604c0.794-0.075,1.21,0.454,1.286,1.06L460.46,125.559L460.46,125.559z
		 M464.96,124.992l-0.038-0.492l1.928-0.15l0.038,0.491L464.96,124.992L464.96,124.992z M467.644,124.766
		c-0.036-0.567,0.189-0.908,0.682-0.983l0.643,0.832c-0.038-0.265,0.075-0.416,0.302-0.454l0.492,0.908L467.644,124.766
		L467.644,124.766z M504.853,120.379l0.038-0.038v-0.038C504.891,120.303,504.853,120.341,504.853,120.379L504.853,120.379z
		 M505.534,119.887c0.302-0.188,0.454-0.378-0.266-0.49c-0.34,0.377,0.379,0.49-0.378,0.528l0.038,0.341
		c0.075-0.076,0.266-0.189,0.416-0.303l-0.416,0.34v0.038l-0.794,1.021l1.588-0.566h0.189l-0.076-0.945L505.534,119.887
		L505.534,119.887z M508.294,122.043l-0.302,0.037l0.075,0.945l2.23-0.188C510.261,122.232,508.786,122.043,508.294,122.043
		L508.294,122.043z"/>
</g>
</svg>
