<?xml version="1.0" encoding="utf-8"?>
<!-- Generator: Adobe Illustrator 16.0.0, SVG Export Plug-In . SVG Version: 6.00 Build 0)  -->
<!DOCTYPE svg PUBLIC "-//W3C//DTD SVG 1.1//EN" "http://www.w3.org/Graphics/SVG/1.1/DTD/svg11.dtd">
<svg version="1.1" id="Layer_1" xmlns="http://www.w3.org/2000/svg" xmlns:xlink="http://www.w3.org/1999/xlink" x="0px" y="0px"
	 width="512px" height="512px" viewBox="0 0 512 512" enable-background="new 0 0 512 512" xml:space="preserve">
<g>
	<path d="M351.14,202.001l-0.112-1.097l-1.777,0.152l0.113,1.096L351.14,202.001L351.14,202.001z M363.089,230.739l0.038,0.605
		l1.248-0.113c-0.038-0.378,0.113-0.983,0.378-1.739l-0.114-1.097C364.11,228.434,363.58,229.228,363.089,230.739L363.089,230.739z
		 M316.464,266.928c-0.075-1.021-3.252-4.991-9.529-11.987c-0.111-1.285,2.042-3.214,6.468-5.747l12.63-11.004
		c2.836-3.593,4.5-9.416,4.992-17.508l-0.152-1.854c-0.491-5.596-4.537-10.096-12.213-13.537
		c-4.538-3.062-12.706-4.765-24.505-5.066c-9.756,0.832-22.5,4.31-38.191,10.474c-4.311,3.102-9.226,6.202-14.747,9.302l0.075,0.946
		c0.341-0.038,0.87-0.227,1.475-0.643c0.643-0.076,1.021,0.227,1.059,0.832l0.945-0.492l0.454-0.038l0.038,0.416
		c0.038,0.492-3.366,3.177-10.248,7.979l0.53,0.983l-0.454,0.038l-1.135-0.416c0.038,0.34-0.453,0.567-1.399,0.643l0.038,0.416
		l1.097,1.361c-0.34,0.038-0.87-0.113-1.588-0.378c-1.589,0.151-3.139,0.983-4.689,2.571l0.643-2.798
		c2.306-9.945,3.894-18.757,4.726-26.395l-0.113-0.492c-1.588-1.021-3.139-2.458-4.576-4.272c0.038-1.172,0.038-1.853,0-2.004
		l-0.113-0.416l-0.454,0.113c-4.991,7.487-14.596,20.269-28.852,38.344c-10.852,12.856-16.449,20.004-16.789,21.44
		c-4.424,4.575-6.542,7.336-6.315,8.281c-1.172,0.756-1.664,1.512-1.475,2.344c-0.34,0.076-0.567-0.037-0.643-0.378
		c-1.89,3.063-4.689,5.029-8.432,5.899l-3.933,0.908c-0.529,0.111-0.794,0.49-0.756,1.134l0.113,0.492l1.475-0.343l0.114,0.416
		l-3.328,1.287l-5.899,1.36l-3.101,0.188c-0.454,0.455,2.458-0.036,1.324,0.229l-3.857,0.908c-2.345,0.527-3.63,0.34-3.857-0.604
		l-0.454,0.112c0.076,0.416,0.113,0.72,0.038,0.982l-0.227-0.944l-3.101,0.718c-0.227-1.437-4.424-6.655-12.554-15.654
		c-0.151-1.739,2.722-4.273,8.584-7.562l16.562-14.56c3.706-4.764,5.899-12.402,6.618-22.915l-0.227-2.458
		c-0.643-7.41-6.013-13.386-16.109-17.999c-5.975-4.046-16.714-6.201-32.217-6.542c-12.857,1.098-29.647,5.673-50.293,13.651
		c-5.672,4.121-12.138,8.205-19.398,12.251l0.113,1.286c0.492-0.038,1.134-0.302,1.928-0.756c0.832-0.076,1.286,0.302,1.362,1.059
		l1.285-0.719l0.643-0.038l0.038,0.605c0.038,0.604-4.462,4.121-13.575,10.55l0.718,1.135l-0.642,0.038l-1.4-0.492
		c0.038,0.378-0.605,0.643-1.928,0.756l0.075,0.682l1.513,1.663c-0.491,0.038-1.172-0.113-2.042-0.415
		c-2.949,0.265-5.823,2.382-8.659,6.391l0.718,1.134c2.458-2.269,3.895-3.403,4.311-3.44l0.151,1.853
		c-0.416,0.038-1.059,0.302-1.928,0.756l1.55,2.345c2.987-3.215,6.277-5.975,9.87-8.281c1.777,0.454,2.722,1.021,2.76,1.626
		l1.361-0.113c9.756-7.223,19.399-12.441,28.966-15.655l0.113,1.285c-1.777,2.647-2.987,4.009-3.63,4.084
		c0.076,0.908,0.378,1.702,0.945,2.383c0.152,1.626-4.197,12.593-13.008,32.86c-20.003,47.116-36.793,81.979-50.443,104.519
		c0.037,0.453,0.302,1.059,0.794,1.814c3.365-0.794,5.483-1.626,6.39-2.421l0.719-0.075l0.113,1.286l1.248-0.114l1.286-0.718
		c0.038,0.378,0.454,0.567,1.323,0.491l0.114,1.286c0.113,1.248-0.605,3.138-2.118,5.748c-1.361,1.55-2.836,4.802-4.386,9.756
		l0.037,0.604l1.248-0.113c5.446-6.088,9.567-12.062,12.403-17.887c15.882-4.649,27.983-9.226,36.377-13.726
		c8.433-0.72,14.861-2.95,19.248-6.618l-0.076-0.68l-3.176,0.944l-0.719,0.076l-0.076-0.682c6.202-0.945,10.475-2.308,12.857-4.197
		c12.063-9.303,21.176-15.882,27.34-19.777c12.667-9.301,20.911-18.377,24.654-27.188c0.681-0.15,1.361-0.303,2.118-0.492
		c1.777-0.074,2.76-0.113,3.025-0.188c-0.076-0.341,0.076-0.528,0.416-0.604c2.836-0.302,1.475,0.189,3.29-0.227l4.764-1.098
		c-0.302,0.076-0.416,0.229-0.34,0.529l0.718-0.453c-0.151,0-0.264-0.037-0.378-0.076l0.794-0.188l-0.378,0.228
		c0.53,0.074,1.097,0.037,1.74-0.115l0.34,1.399l-21.667,34.449l-4.803,6.013l-2.344,7.864l0.454-0.112l2.344-0.982l-0.756,3.062
		l0.227,0.906l0.642,0.794c-0.302,0.076-0.415,0.265-0.34,0.604l0.114,0.492l0.983-0.227c1.437-1.248,2.042-2.382,1.815-3.402
		c1.55,0.264,2.571,0.377,3.101,0.228l0.113,0.489c-0.945,0.229-1.437,0.983-1.513,2.271l0.114,0.492l0.529-0.114
		c7.866-8.584,27.151-37.965,42.617-57.895c-0.492-2.153,7.562-5.143,24.2-9l0.53-0.111c0.605,2.607-0.681,8.924-3.857,18.943
		c-2.042,6.052-3.025,9.379-2.874,9.908c-2.647,8.053-3.895,12.402-3.744,13.084l-5.899,19.321
		c-3.819,9.908-6.73,20.308-8.772,31.271c0.34-0.074,0.869-0.036,1.626,0.152l0.831-0.72c0.076,0.341,0.303,0.454,0.643,0.378
		l-0.34-1.398l2.571-0.074c0.756-0.189,1.399-1.137,1.929-2.874c-0.114-2.609,0.416-4.009,1.588-4.312
		c1.588-6.201,2.571-9.303,2.912-9.416c1.474-6.164,2.571-9.681,3.289-10.551c2.232-8.017,3.857-12.138,4.916-12.402l0.227,0.983
		l-1.626,4.197c-2.836,12.592-5.71,22.535-8.621,29.835l0.832,3.63l0.529-0.113c7.033-15.126,17.167-45.073,30.364-89.846
		c0.379-3.934,2.269-6.996,5.635-9.151l-0.757-0.794l-0.113-0.416c1.513-0.34,2.571-0.945,3.176-1.777
		c-0.075-0.341-1.399-0.832-3.97-1.513l6.58-28.209c1.436-1.286,2.268-1.966,2.533-1.966l0.114,1.437
		c-0.341,0.037-0.87,0.227-1.475,0.643l1.248,1.777c2.268-2.458,4.726-4.575,7.411-6.353c1.361,0.378,2.042,0.832,2.118,1.286
		l0.983-0.076c7.487-5.483,14.823-9.416,22.045-11.798l0.074,0.945c-1.321,2.004-2.229,3.024-2.723,3.062
		c0.076,0.681,0.266,1.286,0.605,1.815c0.113,1.248-3.139,9.566-9.793,24.994c-15.202,35.733-27.945,62.165-38.306,79.334
		c0.038,0.341,0.265,0.795,0.681,1.399c2.533-0.604,4.159-1.248,4.802-1.854l0.454-0.038l0.076,0.945l1.058-0.075l0.946-0.492
		c0.037,0.266,0.378,0.379,1.021,0.341l0.075,1.021c0.076,0.908-0.453,2.346-1.626,4.312c-1.096,1.174-2.231,3.631-3.441,7.374
		l0.038,0.492l0.983-0.076c4.122-4.612,7.26-9.151,9.416-13.612c12.062-3.555,21.251-6.996,27.604-10.398
		c6.465-0.567,11.344-2.231,14.672-5.029l-0.039-0.491l-2.457,0.719l-0.529,0.037l-0.038-0.492c4.688-0.68,7.979-1.737,9.757-3.137
		c9.15-7.035,16.07-12.062,20.76-15.013C310.49,286.932,317.296,276.722,316.464,266.928L316.464,266.928z M313.969,267.57
		l0.34,3.819c-0.452,0.946-0.943,1.437-1.397,1.475l-0.567-6.504C313.401,266.738,313.931,267.116,313.969,267.57L313.969,267.57z
		 M27.642,236.79l-0.643,0.037l-0.113-1.172l2.609-0.227l0.038,0.604C29.117,236.071,28.474,236.299,27.642,236.79L27.642,236.79z
		 M14.899,364.261c-1.513-0.682-2.874-0.945-4.046-0.832l-0.152-1.854c-0.075-0.719,0.341-1.211,1.248-1.398
		c0.832-0.075,1.324,0.529,1.399,1.738c2.194-2.685,3.404-4.045,3.631-4.084l1.399,0.568
		C17.924,362.182,16.752,364.109,14.899,364.261L14.899,364.261z M151.067,221.815c-0.643,0.076-1.929-1.928-3.782-5.899
		l-0.113-1.172c1.21-0.112,2.458,1.854,3.781,5.899L151.067,221.815L151.067,221.815z M149.251,207.712l-0.529,1.247l-18.491-7.714
		C142.558,201.661,148.911,203.816,149.251,207.712L149.251,207.712z M71.166,274.756l-2.609,0.227l-0.114-1.173l2.609-0.227
		L71.166,274.756L71.166,274.756z M69.048,234.483l0.643-0.038l0.151,1.854c-0.605,0.038-1.399,0.944-2.382,2.685l-0.114-1.286
		C68.519,236.299,69.124,235.239,69.048,234.483L69.048,234.483z M63.565,247.415l0.227,2.458l-0.643,0.038l-0.227-2.458
		L63.565,247.415L63.565,247.415z M60.691,252.029l1.248-0.114c-0.113,2.042-0.68,3.14-1.701,3.215l-0.643,0.037
		C60.389,253.807,60.767,252.747,60.691,252.029L60.691,252.029z M58.536,258.457l0.718-0.075l0.038,0.604l-1.172,1.967
		l-1.248,0.113l-0.038-0.604C58.082,260.349,58.649,259.705,58.536,258.457L58.536,258.457z M56.418,264.243l-0.378,3.101
		l-0.643,0.038l-0.264-3.063L56.418,264.243L56.418,264.243z M35.205,324.557c-0.832,4.233-1.74,6.391-2.685,6.466l-0.038-0.604
		C32.255,328.338,33.163,326.37,35.205,324.557L35.205,324.557z M31.31,332.988l0.038,0.605c0.075,0.832-0.303,1.323-1.135,1.36
		l-0.037-0.604C30.1,333.632,30.478,333.178,31.31,332.988L31.31,332.988z M30.176,350.495l1.966-0.188l0.075,0.681
		c-0.491,0.037-1.134,0.303-1.928,0.756l-1.248,0.113C28.965,351.216,29.381,350.724,30.176,350.495L30.176,350.495L30.176,350.495z
		 M86.14,333.216c-11.042,5.443-17.546,9.15-19.474,11.079c-11.949,4.159-17.886,6.729-17.773,7.752
		c-10.625,4.196-17.621,7.299-20.986,9.227c-0.794,0.076-1.929-0.227-3.441-0.908c-0.189-2.153,0.794-3.894,2.873-5.293
		c1.853-0.15,3.63,0.113,5.332,0.832c1.967-1.021,5.408-2.156,10.286-3.365l-0.114-1.285l-3.932,0.341
		c0.491-0.683,4.272-2.458,11.381-5.332l1.967-0.189l0.038,0.605c-3.366,0.302-5.219,1.286-5.635,3.062
		c0.076,0.795,0.53,1.135,1.362,1.061c2.533-1.589,3.781-2.534,3.743-2.801c4.803-0.905,18.075-7.863,39.818-20.834l0.114,1.173
		C91.737,328.904,89.884,330.492,86.14,333.216L86.14,333.216z M52.788,344.182c3.177-0.267,5.899-1.55,8.168-3.781
		c0.907-0.076,1.399,0.264,1.437,1.059c-1.551,0.152-4.538,1.438-8.886,3.934l-0.643,0.038L52.788,344.182L52.788,344.182z
		 M106.597,302.851l-16.676,13.198c-12.403,8.13-19.058,12.213-20.003,12.289c-19.739,10.853-32.028,16.485-36.793,16.901
		l-0.718,0.075c0.605-2.229,9.377-20.192,26.394-53.997c7.487-0.644,19.285-4.121,35.356-10.475l3.932-0.342
		c8.13-0.718,14.218,0.87,18.227,4.651l0.226,2.457C113.517,296.31,110.19,301.376,106.597,302.851L106.597,302.851z
		 M74.002,284.512l2.685-0.228l0.037,0.604l-2.684,0.228L74.002,284.512L74.002,284.512z M111.702,278.12l1.967-0.188
		c1.815,0.87,2.76,1.626,2.836,2.307l0.037,0.605C114.803,280.993,113.177,280.088,111.702,278.12L111.702,278.12z M117.034,247.757
		c-1.739,2.079-6.504,5.634-14.294,10.625c-2.571,0.227-12.138,3.933-28.7,11.192c-0.832-0.378-1.702-0.528-2.647-0.453
		l-0.114-1.173c-0.189-2.382,0.87-5.369,3.214-8.999c1.286-6.807,2.685-10.702,4.236-11.646l13.802-31.045
		c-0.152-1.93,2.798-3.404,8.848-4.426l1.966-0.188l0.152,1.778c5.936-0.908,9.642-1.438,11.079-1.552
		c10.966-0.944,16.676,1.286,17.13,6.618l1.248-0.114l-0.265-3.138l1.361-0.114c3.214,1.778,4.954,3.934,5.181,6.467
		c0.151,1.739-0.794,3.895-2.799,6.467c-0.831,0.075-1.323-0.53-1.399-1.74l-1.361,0.114l-0.302,3.781
		c-5.559,8.318-9.605,12.592-12.101,12.818C119,246.169,117.601,247.719,117.034,247.757L117.034,247.757z M125.504,269.499
		c-1.134-0.757-2.042-1.097-2.722-1.059l-0.152-1.853l1.248-0.113l2.761,1.626C126.752,268.97,126.374,269.424,125.504,269.499
		L125.504,269.499z M134.277,279.897c1.21,0.492,1.929,1.021,2.08,1.513l-0.605,0.151l0.038,0.038c-0.114,0-0.265,0.038-0.379,0.076
		l-0.907,0.718L134.277,279.897L134.277,279.897z M135.109,285.116l-0.113-0.492l1.588-0.379l0.113,0.492L135.109,285.116
		L135.109,285.116z M138.928,289.39c1.626-0.266,2.42-0.378,5.445-1.061l0.114,0.492l-5.748,1.323
		C138.815,289.881,138.89,289.616,138.928,289.39L138.928,289.39z M144.525,291.771c-2.42,0.227-1.891-0.076-5.748,0.794
		l-0.114-0.491l4.803-1.551l2.307-0.529l0.226,0.908C144.978,291.129,145.735,291.129,144.525,291.771L144.525,291.771z
		 M149.63,290.562c-0.568,0.151-1.021-0.112-1.286-0.756l1.475-0.341c0.642-0.151,1.058,0.112,1.21,0.757L149.63,290.562
		L149.63,290.562z M163.469,275.661l-0.113-0.489l2.382-0.567l0.227,0.907L163.469,275.661L163.469,275.661z M178.255,366.341
		c0.151-0.682,0.189-1.172,0.113-1.514l0.53-0.112c0.642-0.151,1.02,0.075,1.172,0.681l0.113,0.491L178.255,366.341L178.255,366.341
		z M188.616,279.558l-1.059-0.188c-1.702,0.682-3.139,1.172-4.311,1.438l-0.983,0.228c-0.567,0.15-1.021-0.076-1.248-0.682
		l6.92-1.588l2.269-1.06l0.756,0.869C189.863,278.802,189.069,279.142,188.616,279.558L188.616,279.558z M193.947,277.855
		l-0.113-0.49c0.34-0.076,0.794-0.34,1.286-0.832l4.915-1.135l0.114,0.491C197.54,276.533,195.46,277.176,193.947,277.855
		L193.947,277.855z M194.704,267.91c-0.341,0.076-0.794,0.379-1.362,0.832c-0.075-0.34-0.756-0.34-2.042-0.037
		c-0.226-0.945,3.404-2.269,10.929-4.009l1.058-0.227l0.227,0.908C198.22,266.928,195.271,267.798,194.704,267.91L194.704,267.91z
		 M207.939,253.617c-0.53,6.013-2.647,9.416-6.391,10.285l-0.113-0.491l-3.328,1.285l-1.475,0.341
		c-0.756,0.189-1.437,0.151-2.042-0.038l-0.302-1.323c-0.114-0.491,4.689-7.147,14.445-19.929l1.134,0.19
		C210.283,245.677,209.64,248.891,207.939,253.617L207.939,253.617z M231.345,233.575l-0.453,0.038l-0.076-0.944l1.966-0.189
		l0.038,0.491C232.48,233.047,231.988,233.235,231.345,233.575L231.345,233.575z M221.703,330.417
		c-1.135-0.529-2.156-0.756-3.025-0.682l-0.114-1.437c-0.038-0.491,0.265-0.832,0.908-1.021c0.643-0.076,1.021,0.377,1.096,1.361
		c1.626-2.08,2.534-3.14,2.723-3.14l1.021,0.416C223.934,328.79,223.064,330.304,221.703,330.417L221.703,330.417z M325.086,222.27
		c-0.492,0.038-1.437-1.475-2.912-4.538l-0.075-0.945c0.945-0.075,1.93,1.399,2.911,4.425L325.086,222.27L325.086,222.27z
		 M323.725,211.454l-0.452,0.983l-13.991-5.861C318.62,206.88,323.46,208.506,323.725,211.454L323.725,211.454z M264.395,262.391
		l-1.967,0.188l-0.074-0.945l1.965-0.151L264.395,262.391L264.395,262.391z M262.77,231.799l0.528-0.038l0.113,1.437
		c-0.491,0.038-1.097,0.719-1.815,2.042l-0.074-0.944C262.391,233.197,262.807,232.365,262.77,231.799L262.77,231.799z
		 M258.646,241.631l0.15,1.853l-0.527,0.038l-0.152-1.853L258.646,241.631L258.646,241.631z M256.416,245.147l0.982-0.076
		c-0.112,1.588-0.528,2.42-1.249,2.496l-0.529,0.037C256.189,246.547,256.454,245.715,256.416,245.147L256.416,245.147z
		 M254.828,249.987l0.454-0.038l0.037,0.491l-0.869,1.513l-0.984,0.076l-0.037-0.492
		C254.45,251.462,254.903,250.933,254.828,249.987L254.828,249.987z M253.24,254.373l-0.341,2.421l-0.454,0.037l-0.189-2.382
		L253.24,254.373L253.24,254.373z M237.093,300.242c-0.643,3.178-1.323,4.804-2.042,4.877l-0.038-0.416
		C234.9,303.115,235.58,301.604,237.093,300.242L237.093,300.242z M234.106,306.633l0.037,0.416c0.076,0.68-0.226,1.059-0.907,1.096
		l-0.038-0.49C233.16,307.161,233.463,306.822,234.106,306.633L234.106,306.633z M233.274,319.943l1.512-0.113l0.038,0.49
		c-0.34,0.039-0.87,0.229-1.475,0.568l-0.983,0.075C232.328,320.435,232.631,320.095,233.274,319.943L233.274,319.943z
		 M275.739,306.822c-8.319,4.121-13.273,6.92-14.823,8.356c-9.076,3.176-13.575,5.144-13.5,5.937
		c-8.054,3.215-13.348,5.521-15.844,6.996c-0.605,0.037-1.475-0.188-2.609-0.719c-0.151-1.626,0.605-2.949,2.193-3.935
		c1.437-0.111,2.798,0.076,4.046,0.605c1.513-0.756,4.122-1.588,7.828-2.533l-0.076-0.944l-3.101,0.227
		c0.379-0.529,3.29-1.891,8.698-4.084l1.512-0.113l0.038,0.416c-2.571,0.229-4.008,0.983-4.311,2.344
		c0.038,0.605,0.416,0.908,1.059,0.832c1.891-1.248,2.798-1.965,2.798-2.191c3.63-0.645,13.689-5.938,30.214-15.844l0.074,0.943
		C279.975,303.531,278.575,304.742,275.739,306.822L275.739,306.822z M250.404,315.141c2.457-0.228,4.537-1.172,6.278-2.836
		c0.643-0.076,1.021,0.227,1.059,0.832c-1.135,0.112-3.365,1.059-6.731,2.874l-0.529,0.038L250.404,315.141L250.404,315.141z
		 M291.318,283.718l-12.592,10.134c-9.416,6.163-14.521,9.264-15.315,9.34c-14.974,8.243-24.276,12.516-27.944,12.819l-0.529,0.038
		c0.453-1.702,7.147-15.354,20.079-40.991c5.633-0.491,14.558-3.176,26.81-8.017l3.063-0.265c6.161-0.529,10.775,0.681,13.801,3.592
		l0.15,1.854C296.536,278.726,294.041,282.545,291.318,283.718L291.318,283.718z M266.588,269.802l1.967-0.189l0.037,0.492
		l-1.966,0.189L266.588,269.802L266.588,269.802z M295.213,264.924l1.514-0.113c1.398,0.68,2.116,1.286,2.154,1.777l0.038,0.416
		C297.596,267.116,296.348,266.437,295.213,264.924L295.213,264.924z M299.184,241.896c-1.324,1.588-4.916,4.31-10.775,8.092
		c-1.969,0.189-9.229,2.987-21.781,8.433c-0.604-0.228-1.286-0.303-2.005-0.265l-0.075-0.946c-0.15-1.814,0.645-4.084,2.382-6.844
		c0.983-5.218,2.08-8.13,3.216-8.811l10.549-23.597c-0.112-1.398,2.119-2.532,6.656-3.402l1.512-0.113l0.115,1.438
		c4.461-0.72,7.26-1.136,8.394-1.248c8.319-0.72,12.668,0.944,13.008,5.028l0.983-0.076l-0.189-2.269l0.984-0.075
		c2.42,1.323,3.705,2.912,3.855,4.802c0.113,1.362-0.566,3.025-2.005,4.954c-0.642,0.075-1.02-0.378-1.096-1.36l-0.983,0.075
		l-0.303,2.836c-4.197,6.391-7.26,9.681-9.188,9.832C300.734,240.686,299.675,241.857,299.184,241.896L299.184,241.896z
		 M303.607,257.625l-0.113-1.437l0.982-0.075l2.117,1.285c0.038,0.605-0.265,0.946-0.906,1.021
		C304.779,257.853,304.1,257.588,303.607,257.625L303.607,257.625z M127.584,349.476l-0.983,0.228l-0.832,0.719
		c0.151,0.604,0.529,0.832,1.172,0.681c0.643-0.15,0.908-0.529,0.757-1.134L127.584,349.476L127.584,349.476z M123.841,342.027
		l0.113,0.49c0.643-0.15,0.907-0.529,0.756-1.134l-0.113-0.492C123.992,341.044,123.727,341.422,123.841,342.027L123.841,342.027z
		 M150.461,278.688l1.135-0.264l-0.227-0.983l-1.134,0.265L150.461,278.688L150.461,278.688z M493.585,307.503
		c-11.496,2.57-12.933,2.115-15.353,2.306l0.074,0.946l1.061-0.076l0.565-0.038l-0.149-0.113l1.247-0.492
		c11.382-1.248,12.706-0.793,12.592-2.08L493.585,307.503L493.585,307.503z M431.683,315.706l0.076,0.947h0.151l-0.075-0.947
		H431.683L431.683,315.706z M424.574,290.788l-1.021-0.34c-0.832,2.23-1.248,3.555-1.21,3.933l0.038,0.416
		C423.175,294.759,423.894,293.397,424.574,290.788L424.574,290.788z M495.929,307.313l0.076,0.945l1.663,0.302l-0.075-0.945
		L495.929,307.313L495.929,307.313z M417.692,316.88l-2.571-0.303l-0.454,0.982l0.038,0.492l15.312-1.286l-0.073-0.944
		L417.692,316.88L417.692,316.88z M410.734,283.34l-0.037-0.492l-0.53,0.038l-0.945,0.604l0.529,0.907
		C410.47,284.322,410.81,283.981,410.734,283.34L410.734,283.34z M503.189,300.355l0.719-0.076c0.416-0.037,0.604-0.377,0.565-0.981
		l-0.416-0.908c-2.607,0.227-3.817,0.341-5.937,1.514l-0.038-0.492l-3.138,0.304c-0.076-0.945-0.34-1.438-0.756-1.399l-1.627,0.151
		c-1.892,0.149-2.8,0.075-3.743,0.794c-0.038-0.34-0.151-0.491-0.341-0.491l-1.814,0.151l-1.059,0.604
		c-0.038-0.34-0.151-0.492-0.343-0.492l-0.642,0.568l-0.038-0.492l-2.534-0.188l-0.604,0.037l0.076,0.945l1.284,0.34l1.21-0.076
		c0.416,0.267,0.869,0.342,1.399,0.304l1.059-0.529l0.037,0.416c-5.936,1.475-5.897,1.21-9.981,1.891
		c-0.453-0.303-0.794-0.452-1.021-0.416l-0.075,0.076c-0.453-0.039-0.719-0.341-0.756-0.832l2.117-0.265
		c0.151,0,0.265,0.151,1.438,0.378c1.7-0.832,1.775-1.173,2.685-1.248l-0.076-0.945c-5.823,1.136-3.479,0.379-10.776,1.021
		l-0.341,0.038l-0.075-0.945c9.379-1.134,6.239-0.492,9.453-1.397c0.038,0.34,0.151,0.489,0.342,0.489
		c0.378-0.377,0.794-0.565,1.284-0.642l0.645-0.038c3.289-0.265,4.386,0.378,10.89-1.438l0.038,0.416l1.061-0.528l0.981-0.075
		c-0.076-0.946,1.361-1.097,1.854-1.135l-0.076-1.021c-11.42,2.308-14.407,1.664-17.583,2.571l-0.038-0.416
		c-2.987,0.529-3.101,0.302-3.857,0.341c-0.227,0.037-0.565,0.228-0.944,0.604c-0.037-0.342-0.151-0.492-0.378-0.492
		c-0.113,0-0.151,0.038-0.189,0.038l-9.68,1.588c-0.038-0.264-0.151-0.415-0.378-0.378c-5.029,1.06-3.668,1.248-10.399,1.853
		c-0.303,0.039-0.718,0.189-1.248,0.53c-0.038-0.265-0.188-0.416-0.528-0.379l-4.121,0.341l-2.762,0.68
		c-0.038-0.264-0.188-0.414-0.528-0.377c-1.552,0.416-2.911,0.682-4.01,0.756h-0.074c-0.682,0.076,0.341-0.188-0.189-0.416
		l-0.832,0.492c-1.21,0.113-0.566-0.076-4.726-0.039c-7.299,0.908-6.504,1.021-7.299,1.061l-2.724-0.188
		c0.038,0.266-0.113,0.453-0.416,0.453c-3.101-0.416-4.688-0.908-4.727-1.475c0.416-2.949,1.135-4.462,2.155-4.538l0.528-0.037
		l-0.454,0.983l0.53-0.038c0.983-0.529,1.437-1.021,1.399-1.477l-0.076-1.021l-0.983,0.075l-0.076-0.944
		c-0.074-0.719,0.038-1.362,0.305-1.893l2.229-3.592l0.076,0.945l1.058-0.076l-0.074-0.945l-0.604-0.868
		c0.794-0.681,1.399-1.06,1.89-1.097l-0.036-0.492l-1.438,0.113l-0.114-1.437c2.874-5.977,4.235-9.454,4.16-10.438l1.021,0.416
		c0.643-0.038,0.943-0.416,0.905-1.097l-0.981,0.076l-0.038-0.416c-0.075-0.72,0.076-1.399,0.378-2.004
		c1.551-1.626,2.269-3.252,2.118-4.954c0.303-0.038,0.454,0.113,0.492,0.454c1.321-0.757,2.344-2.761,3.1-6.089
		c2.345-4.234,5.672-12.704,10.021-25.372c8.318-22.387,7.979-24.769,9.15-30.062l-0.982,0.075c0.074,0.681-0.075,1.324-0.378,1.929
		c-0.682-0.265-1.21-0.416-1.589-0.378l-0.037-0.416c-0.151-1.929,0.644-4.235,2.457-6.958l0.453-0.038l0.832,3.252l0.983-0.075
		c-0.037-0.227,0.227-1.513,0.757-3.895c-0.038-0.492-0.416-0.794-1.173-0.832l-0.945,0.604c-0.075-0.681-0.038-2.458,0.076-5.294
		l-0.492,0.038c-0.832-0.832-1.248-1.513-1.286-2.08l-5.405,0.529c-0.038-0.378-0.229-0.945-0.605-1.663
		c-0.038-0.492,1.172-0.983,3.668-1.475l1.097,0.416l1.021-0.605c0.037,0.34,0.226,0.491,0.604,0.454l1.021-0.604
		c0.038,0.34,0.227,0.49,0.604,0.453l0.491-0.037l-0.076-1.098c-0.756,0.076-2.76,0.076-5.936-0.038l-1.021,0.682l-0.037-0.605
		c-25.372,2.079-39.779,3.252-43.222,3.592c-0.454,0.038-2.229,0-5.37-0.075c0.038,0.416-0.34,0.643-1.096,0.719l-1.097-0.492
		l-3.706,0.946c-0.87,0.075-2.345,0.037-4.387-0.189c-0.566,0.453-1.247,0.718-2.079,0.794c-0.454,0.037,5.405-0.303,10.852-0.681
		c-0.567,0.454-1.436,0.718-2.646,0.832c-0.831,0.076-1.552-0.038-2.155-0.378c-0.832,0.378-3.518,0.982-8.018,1.89l-1.097-0.415
		l-17.697,2.723c-0.681-0.341-1.475-0.454-2.382-0.379c-0.945,0.076-2.534,0.416-4.727,1.021l-8.546,3.554l0.643,1.06
		c0.416-0.038,1.021-0.265,1.739-0.681l3.024,0.265l-0.379,2.836c-2.798,1.248-4.424,3.101-4.878,5.445
		c-4.195,1.853-6.275,3.177-6.275,3.971l0.037,0.492l0.644-0.038l1.134-0.605l1.324,1.588l0.188,2.193
		c0.074,0.681-6.995,15.542-21.139,44.583c-12.252,27.981-18.68,43.297-19.285,46.057c-4.197,1.172-6.617,2.875-7.336,5.145
		c0.076,0.718,1.323,1.21,3.743,1.398l0.114,1.097l-1.098,1.813l0.188,2.194c0.114,1.134,3.177,2.004,9.189,2.607
		c-0.038-0.377,0.15-0.604,0.565-0.643c0.114,1.361-0.264,4.008-1.134,7.94l0.643-0.037c2.495-3.403,3.669-5.748,3.556-7.033
		l0.528-0.038c0.605-0.038,1.248,0.643,2.005,2.117c-0.757,0.303-3.402,6.313-7.94,18.076l0.643,1.058l0.645-0.037
		c5.558-14.067,9.037-21.856,10.474-23.331c7.298-0.644,19.929-1.929,37.854-3.856l1.134-0.681c0.038,0.377,0.265,0.566,0.681,0.528
		l1.172-0.112l1.137-0.682c0.036,0.378,0.264,0.565,0.68,0.529l13.575-1.173c3.593-0.303,5.294-1.398,5.143-3.252
		c-0.038-0.49,2.08-1.06,6.354-1.664c0.415-0.039,1.021,0.076,1.853,0.342c-0.038-0.342,2.117-0.682,6.429-1.061
		c0.113-2.269,0.831-3.479,2.117-3.592l-0.113-1.097c-1.21,0.111-2.57,0.416-4.158,0.943c-2.836-0.149-4.651-0.377-5.408-0.643
		c-0.756,0.416-1.323,0.643-1.739,0.682l-9.454,0.303l-1.134,0.604c-0.038-0.341-0.265-0.491-0.681-0.454l-0.529,0.038l-1.21,0.605
		c-0.038-0.342-1.021-0.605-2.988-0.87l-1.209,0.718l-2.345,0.188l-0.038-0.604c12.176-1.323,18.188-2.987,18.037-4.952
		c0.795-0.076,1.211,0.301,1.286,1.096l3.555-0.906l-0.114-1.098l-29.152,0.793c0.036,0.379-0.152,0.605-0.567,0.645l-3.555-0.303
		c-0.908,0.074-1.664,0.341-2.271,0.795l-1.322-0.492c-3.668,0.303-6.392,0.757-8.206,1.324c-2.495-0.189-5.256-0.152-8.318,0.111
		l-6.542,0.567l-3.024-0.34c-0.15-1.93,3.592-11.42,11.307-28.438c2.23-5.748,4.271-9.339,6.239-10.701
		c0.416-0.038,1.021,0.113,1.854,0.453l4.65-1.588l2.383,0.378c4.008-0.34,8.658-1.474,13.99-3.44
		c1.323-0.113,2.308-0.037,3.024,0.265l3.556-0.832l10.588-0.907c4.499-0.378,9.377-1.361,14.671-2.987l-0.112-1.097
		c-1.966,0.189-2.987-0.15-3.062-0.945c-0.112-1.475-1.551-2.079-4.312-1.854l-0.113-1.096l2.912-0.832l7.639-0.644l-0.113-1.096
		c-0.303,0.037-1.854,0-4.728-0.114l-0.113-1.172l2.95-0.265c0.794-0.075,1.134-0.454,1.06-1.21
		c-3.972,0.114-5.976-0.075-6.014-0.605c-27.681,1.361-41.558,1.626-41.634,0.756c-0.416,0.038-0.981,0.304-1.738,0.758l-0.72-1.136
		c7.337-15.579,11.647-23.443,12.896-23.558c0.037,0.604-0.266,1.588-0.946,2.912l0.038,0.491l1.172-0.113
		c2.912-6.958,5.37-10.55,7.412-10.701c8.697-0.757-1.21-1.324,17.395-4.235c0.757,0.341,1.285,0.491,1.664,0.453
		c7.298-1.474,17.47-3.024,30.517-4.612l-0.076-1.098l-6.958,0.644l-0.075-1.097c0.832-0.075,1.513-0.341,2.08-0.794l0.037,0.605
		c0.379-0.038,0.908-0.303,1.589-0.757c1.21-0.113,2.117,0,2.76,0.341c2.421-0.644,4.387-1.021,5.823-1.173l4.35-0.416
		c1.06-0.681,1.55-1.285,1.514-1.853l-0.038-0.492c-1.098,0.113-2.346,0.038-3.819-0.227c-0.038-0.605,0.265-1.021,0.983-1.21
		l8.092-0.756l3.706-0.946c0.037,0.416,0.228,0.568,0.528,0.568c0.379-0.038,0.908-0.304,1.589-0.757
		c0.188,0.038,0.416,0.038,0.604,0.075c-0.49,1.021-1.059,2.496-1.626,4.425l-1.059,0.075c-0.075-0.719-0.265-1.36-0.605-1.929
		l-0.528,0.038c-9.831,27.377-14.218,40.121-23.293,61.146c-1.663,5.369-3.062,8.356-4.272,9c0.038,0.604,0.416,0.906,1.06,0.831
		c0.227,2.647-0.379,5.257-1.854,7.827c-4.198,12.102-6.996,18.719-8.434,19.929l0.944,5.71c0.038,0.604-0.264,0.943-0.906,1.021
		l-0.982,0.076c-0.152-1.589-0.719-2.345-1.74-2.23l-0.528,0.037c-1.286,2.004-2.27,4.312-2.912,6.996l0.982-0.076
		c1.324-0.868,1.93-1.891,1.815-3.062l1.967-0.188l1.134,0.416c-0.906,1.438-1.322,2.572-1.248,3.44l0.53,0.908l-1.286,3.023
		l0.038,0.492c1.134-0.113,2.382,0.264,3.706,1.06c0.907-0.075,1.891-0.491,2.986-1.21c1.135-0.113,5.369-0.151,12.668-0.151
		l3.667-1.248c4.464-0.038,5.182,0.076,9.038-0.264l1.589-0.152l0.831-0.566l0.038,0.492c4.046-0.342,4.312-0.076,7.486,0.301
		l0.038,0.492l-2.23,0.189l0.075,0.944c0.682-0.074,1.285-0.266,1.777-0.68c0.567-0.039,0.907,0.264,0.945,0.944
		c-0.907,0.076-1.929,0.302-3.063,0.681l-0.982-0.341c-1.55,0.416-1.21,0.53-2.27,0.604l-1.55-0.301
		c0.038,0.265-0.114,0.453-0.378,0.453c0.037,0.605,0.378,0.907,0.944,0.869l1.589-0.15l8.28-0.719l3.14-0.681
		c0.038,0.265,0.15,0.416,0.416,0.378l1.512-0.566l2.837-0.228c2.193-0.188,2.155-0.34,6.919-1.098
		c-0.036-0.303,0.076-0.416,0.304-0.452l0.038,0.415c7.752-1.323,8.242-1.399,9.49-1.815l0.113,0.227
		c1.929-0.451,0.832-0.34,1.361-0.717c0.038,0.34,0.15,0.49,0.341,0.49l1.36-0.113l-0.075-1.021l-2.761-0.038l-0.037-0.074
		c-0.113,0.036-0.189,0.036-0.304,0.074h-0.378v0.076c-1.854,0.378-1.891,0.112-3.101,0.227l-6.921,0.379l-0.038-0.492l3.856-0.528
		l1.399-0.114l0.795-0.567l0.037,0.492c5.445-0.453,7.374,0.907,32.558-4.461c1.361-0.115,1.248-1.248,2.118-3.594
		c-0.454,0.038-0.908-0.075-1.324-0.302c-2.079,0.794-3.176,0.416-7.184,1.059c-0.342,0.038-0.605-0.265-0.72-0.87l-0.037-0.416
		l3.855,0.113c0.72-0.074,2.118-0.189,4.198-1.361C503.492,300.204,502.735,300.394,503.189,300.355L503.189,300.355z
		 M316.994,303.343l-1.778,0.15c-0.075-0.719,0.87-3.44,2.836-8.092l1.173-0.113C319.263,296.385,318.544,299.07,316.994,303.343
		L316.994,303.343z M319.149,294.722l-0.038-0.492c-0.038-0.604,0.341-1.021,1.173-1.21l0.037,0.491
		C320.359,294.229,319.981,294.646,319.149,294.722L319.149,294.722z M342.783,312.986l0.038,0.49l-2.95,0.266l-0.038-0.492
		L342.783,312.986L342.783,312.986z M339.228,312.683c0.038,0.604-0.867,1.286-2.836,1.966l-3.63-0.264l-1.172,0.112l-0.113-1.096
		L339.228,312.683L339.228,312.683z M363.127,202.683l-1.778,0.15l-0.036-0.604c-0.037-0.605,0.303-1.021,1.059-1.21l0.643-0.038
		l1.21,0.491C364.261,202.19,363.921,202.606,363.127,202.683L363.127,202.683z M390.164,197.389l0.567-0.038l0.073,1.096
		l-1.626,0.152C389.143,197.993,389.445,197.577,390.164,197.389L390.164,197.389z M383.357,199.771l-2.687-0.303l-0.038-0.491
		c3.519-0.303,4.689-0.681,6.845-1.286c0.038,0.416,0.416,0.567,1.098,0.492l0.076,1.096l-1.061,0.114
		c-0.832,0.075-1.55-0.038-2.154-0.378C384.794,199.431,384.113,199.694,383.357,199.771L383.357,199.771z M386.723,209.564
		l-0.038-0.492l4.35-0.416l0.038,0.492L386.723,209.564L386.723,209.564z M391.374,205.782l-0.038-0.604l2.117-0.189l0.038,0.605
		L391.374,205.782L391.374,205.782z M391.865,198.371l-0.567,0.038l0.492-1.173l4.84-0.453l0.038,0.605
		C395.42,197.501,393.794,197.842,391.865,198.371L391.865,198.371z M394.323,208.808l-0.076-1.096l2.118-0.189
		c0.719-0.076,1.097,0.264,1.135,1.021L394.323,208.808L394.323,208.808z M407.142,191.338l-2.723,0.757l-0.491,0.037
		c-1.286,0.113-2.95,0.075-4.916-0.113C402.529,191.791,405.894,191.526,407.142,191.338L407.142,191.338z M404.23,203.438
		l0.036,0.491l-3.741,0.341l-0.038-0.492L404.23,203.438L404.23,203.438z M410.356,206.35c-0.038-0.453-0.758-0.756-2.231-0.907
		l-3.743,1.059l-2.874,0.113c-0.643-0.454-0.981-0.756-1.021-0.982l3.328,0.188l7.485-1.21l3.819,0.151l0.038,0.604
		C413.268,205.556,411.68,205.896,410.356,206.35L410.356,206.35z M448.889,196.404c0.453,0.038,0.756,0.038,0.869,0.038
		c1.324-1.285,2.799-2.306,4.5-3.025c-1.359,5.976-3.479,10.399-6.39,13.273l-2.118-1.286
		C447.527,200.904,448.586,197.917,448.889,196.404L448.889,196.404z M442.385,207.561l0.529-0.038
		c-0.719,1.361-1.361,2.079-1.891,2.117l-0.113-1.438C441.25,208.202,441.742,207.976,442.385,207.561L442.385,207.561z
		 M438.188,217.58c1.021-4.084,2.005-6.39,2.911-6.994l0.038,0.49c-0.528,3.782-1.36,5.786-2.458,5.938l0.189,2.382
		c-0.908,1.286-1.324,2.269-1.286,3.025l-0.529,0.037l-0.303-3.289C437.355,219.094,437.847,218.563,438.188,217.58L438.188,217.58z
		 M436.561,223.025c0.038,0.568-0.34,1.891-1.096,3.933l-0.53,0.038l-0.111-1.437C435.54,223.896,436.145,223.063,436.561,223.025
		L436.561,223.025z M406.046,311.586l-0.038-0.415l0.983-0.076l0.111,1.437C406.575,312.57,406.197,312.267,406.046,311.586
		L406.046,311.586z M449.645,312.721c-0.036-0.34-0.188-0.492-0.527-0.454l-2.458,0.228l-0.038-0.491h0.227l5.823-0.491l0.038,0.491
		C451.006,312.077,449.985,312.343,449.645,312.721L449.645,312.721z M446.733,311.511c0.227,0.111,0.112,0.228,0,0.302
		C446.62,311.775,446.469,311.661,446.733,311.511L446.733,311.511z M447.036,304.702l-3.252,0.267l-0.038-0.492l2.949-0.264
		l2.57-0.644c0.038,0.301,0.189,0.416,0.529,0.377c3.063-0.528,2.761-0.68,4.235-0.793c0.492-0.039,0.795,0.265,0.832,0.869
		L447.036,304.702L447.036,304.702z M458.418,303.721c-1.815-0.189-1.929-0.34-3.214-0.228l-0.038-0.416l2.911-0.265l0.038,0.416
		C457.812,303.268,458.909,303.343,458.418,303.721L458.418,303.721z M458.645,303.191l-0.036-0.416l1.588-0.15l0.038,0.416
		L458.645,303.191L458.645,303.191z M462.161,302.889l-0.037-0.416c0.264-0.037,0.642-0.228,1.134-0.605
		c0.794-0.073,1.21,0.455,1.286,1.061L462.161,302.889L462.161,302.889z M466.661,302.322l-0.038-0.492l1.929-0.15l0.038,0.492
		L466.661,302.322L466.661,302.322z M469.346,302.095c-0.038-0.567,0.189-0.907,0.683-0.983l0.642,0.832
		c-0.037-0.265,0.076-0.416,0.303-0.453l0.492,0.907L469.346,302.095L469.346,302.095z M440.797,314.423l-0.076-0.946l-0.303,0.038
		l0.076,0.943L440.797,314.423L440.797,314.423z M507.236,297.217c0.302-0.189,0.453-0.378-0.267-0.491
		c-0.341,0.378,0.378,0.491-0.378,0.529l0.037,0.34c0.076-0.075,0.265-0.188,0.416-0.303l-0.416,0.341v0.038l-0.794,1.021
		l1.588-0.566h0.19l-0.076-0.945L507.236,297.217L507.236,297.217z M509.996,299.372l-0.303,0.037l0.074,0.945l2.231-0.189
		C511.962,299.562,510.487,299.372,509.996,299.372L509.996,299.372z M506.555,297.708l0.038-0.037v-0.038
		C506.593,297.633,506.555,297.671,506.555,297.708L506.555,297.708z"/>
	<path fill="#F9DC3E" d="M361.387,227.715l0.038,0.604l1.248-0.113c-0.038-0.378,0.113-0.982,0.378-1.739l-0.113-1.097
		C362.408,225.408,361.879,226.202,361.387,227.715L361.387,227.715z M349.438,198.977l-0.111-1.097l-1.778,0.15l0.114,1.098
		L349.438,198.977L349.438,198.977z M314.763,263.902c-0.075-1.021-3.252-4.991-9.528-11.987c-0.113-1.284,2.043-3.214,6.467-5.746
		l12.63-11.005c2.836-3.593,4.499-9.416,4.991-17.508l-0.151-1.853c-0.492-5.598-4.538-10.097-12.214-13.537
		c-4.538-3.063-12.706-4.766-24.503-5.068c-9.756,0.832-22.5,4.312-38.192,10.476c-4.311,3.101-9.227,6.2-14.748,9.302l0.076,0.946
		c0.34-0.038,0.869-0.228,1.475-0.644c0.642-0.076,1.021,0.228,1.058,0.832l0.946-0.492l0.453-0.038l0.038,0.416
		c0.038,0.492-3.365,3.177-10.247,7.979l0.529,0.982l-0.454,0.038l-1.134-0.416c0.038,0.341-0.454,0.567-1.399,0.644l0.038,0.416
		l1.096,1.36c-0.34,0.038-0.869-0.112-1.588-0.378c-1.588,0.151-3.139,0.983-4.689,2.571l0.643-2.798
		c2.307-9.945,3.895-18.756,4.727-26.394l-0.114-0.492c-1.588-1.021-3.138-2.458-4.575-4.273c0.038-1.172,0.038-1.853,0-2.004
		l-0.114-0.416l-0.453,0.114c-4.992,7.486-14.597,20.268-28.852,38.343c-10.853,12.857-16.45,20.003-16.79,21.44
		c-4.424,4.575-6.542,7.336-6.315,8.281c-1.172,0.756-1.664,1.513-1.474,2.345c-0.341,0.075-0.568-0.038-0.643-0.378
		c-1.891,3.062-4.689,5.028-8.433,5.898l-3.933,0.907c-0.529,0.114-0.794,0.492-0.756,1.135l0.114,0.491l1.474-0.34l0.114,0.416
		l-3.328,1.286l-5.899,1.36l-3.1,0.188c-0.454,0.454,2.457-0.038,1.323,0.228l-3.857,0.907c-2.344,0.529-3.63,0.341-3.857-0.604
		l-0.454,0.112c0.076,0.416,0.114,0.717,0.038,0.982l-0.227-0.945l-3.101,0.719c-0.226-1.438-4.424-6.654-12.554-15.654
		c-0.151-1.739,2.723-4.273,8.584-7.562l16.562-14.559c3.706-4.765,5.899-12.403,6.618-22.915l-0.227-2.458
		c-0.643-7.411-6.012-13.386-16.109-17.999c-5.974-4.046-16.713-6.202-32.217-6.542c-12.857,1.096-29.646,5.672-50.293,13.65
		c-5.672,4.121-12.138,8.205-19.398,12.251l0.113,1.286c0.492-0.038,1.135-0.302,1.929-0.756c0.832-0.076,1.286,0.302,1.361,1.06
		l1.286-0.72l0.643-0.038l0.037,0.605c0.038,0.604-4.462,4.122-13.575,10.55l0.719,1.135l-0.643,0.038l-1.399-0.491
		c0.038,0.378-0.605,0.643-1.929,0.756l0.076,0.681l1.512,1.664c-0.491,0.038-1.172-0.114-2.041-0.416
		c-2.95,0.264-5.824,2.382-8.66,6.39l0.719,1.136c2.458-2.27,3.894-3.403,4.31-3.441l0.152,1.853
		c-0.416,0.037-1.059,0.303-1.929,0.757l1.551,2.344c2.987-3.214,6.277-5.975,9.869-8.281c1.777,0.454,2.723,1.021,2.76,1.626
		l1.362-0.113c9.756-7.223,19.398-12.44,28.965-15.654l0.114,1.285c-1.778,2.646-2.988,4.009-3.631,4.084
		c0.076,0.907,0.379,1.701,0.946,2.383c0.151,1.626-4.198,12.592-13.008,32.859C30.44,305.611,13.651,340.476,0,363.013
		c0.038,0.454,0.303,1.06,0.794,1.814c3.366-0.795,5.483-1.625,6.391-2.42l0.718-0.076l0.114,1.285l1.247-0.111l1.286-0.719
		c0.038,0.377,0.454,0.566,1.324,0.49l0.113,1.286c0.113,1.248-0.605,3.138-2.118,5.747c-1.361,1.551-2.836,4.803-4.386,9.758
		l0.038,0.604l1.248-0.113c5.445-6.088,9.567-12.062,12.403-17.886c15.882-4.651,27.982-9.229,36.377-13.727
		c8.432-0.72,14.86-2.951,19.247-6.619l-0.076-0.68l-3.176,0.945l-0.719,0.076l-0.075-0.683c6.201-0.944,10.474-2.307,12.857-4.197
		c12.062-9.303,21.175-15.881,27.339-19.775c12.668-9.302,20.911-18.378,24.655-27.188c0.68-0.15,1.361-0.303,2.117-0.492
		c1.777-0.073,2.761-0.111,3.025-0.188c-0.075-0.34,0.076-0.528,0.416-0.604c2.836-0.303,1.475,0.188,3.29-0.228l4.765-1.096
		l0.794-0.19l-0.378,0.229c0.529,0.074,1.096,0.037,1.739-0.113l0.34,1.398l-21.667,34.447l-4.802,6.015l-2.345,7.864l0.454-0.112
		l2.344-0.983l-0.756,3.062l0.227,0.906l0.643,0.795c-0.303,0.076-0.416,0.266-0.341,0.604l0.114,0.492l0.983-0.229
		c1.437-1.248,2.042-2.382,1.815-3.401c1.55,0.264,2.571,0.378,3.101,0.227l0.113,0.491c-0.945,0.228-1.437,0.982-1.512,2.269
		l0.113,0.491l0.53-0.112c7.865-8.584,27.15-37.965,42.616-57.894c-0.492-2.155,7.563-5.145,24.201-9l0.529-0.112
		c0.605,2.608-0.68,8.924-3.857,18.944c-2.042,6.05-3.025,9.377-2.874,9.907c-2.647,8.054-3.895,12.401-3.743,13.083l-5.899,19.322
		c-3.82,9.908-6.731,20.307-8.773,31.271c0.34-0.075,0.87-0.037,1.626,0.151l0.832-0.719c0.075,0.34,0.302,0.453,0.643,0.377
		l-0.341-1.397l2.572-0.075c0.756-0.188,1.399-1.135,1.928-2.874c-0.113-2.609,0.416-4.008,1.588-4.312
		c1.588-6.2,2.572-9.303,2.912-9.415c1.475-6.163,2.571-9.681,3.29-10.552c2.231-8.016,3.857-12.138,4.916-12.401l0.227,0.981
		l-1.626,4.198c-2.837,12.593-5.71,22.537-8.622,29.835l0.832,3.631l0.529-0.113c7.034-15.127,17.168-45.074,30.365-89.846
		c0.378-3.934,2.269-6.997,5.634-9.152l-0.756-0.794l-0.114-0.416c1.513-0.341,2.572-0.944,3.177-1.776
		c-0.076-0.341-1.399-0.832-3.971-1.514l6.58-28.209c1.437-1.285,2.269-1.966,2.533-1.966l0.114,1.437
		c-0.34,0.038-0.87,0.227-1.475,0.643l1.248,1.778c2.269-2.458,4.727-4.576,7.411-6.354c1.362,0.378,2.042,0.832,2.118,1.285
		l0.983-0.075c7.487-5.482,14.823-9.416,22.046-11.798l0.075,0.945c-1.323,2.004-2.23,3.025-2.723,3.062
		c0.074,0.682,0.265,1.286,0.604,1.815c0.112,1.248-3.139,9.567-9.794,24.995c-15.201,35.733-27.945,62.166-38.306,79.334
		c0.038,0.341,0.265,0.794,0.681,1.398c2.534-0.604,4.16-1.247,4.803-1.854l0.453-0.037l0.076,0.944l1.059-0.075l0.945-0.492
		c0.038,0.267,0.378,0.379,1.021,0.342l0.076,1.021c0.075,0.907-0.454,2.345-1.626,4.31c-1.097,1.174-2.231,3.631-3.441,7.375
		l0.037,0.492l0.984-0.076c4.121-4.612,7.26-9.15,9.415-13.612c12.063-3.556,21.252-6.996,27.604-10.399
		c6.467-0.567,11.344-2.231,14.672-5.028l-0.038-0.492l-2.458,0.72l-0.529,0.038l-0.037-0.492c4.688-0.682,7.979-1.739,9.756-3.138
		c9.15-7.034,16.07-12.063,20.76-15.015C308.788,283.906,315.595,273.696,314.763,263.902L314.763,263.902z M312.267,264.546
		l0.342,3.818c-0.453,0.946-0.945,1.438-1.399,1.476l-0.567-6.504C311.7,263.714,312.229,264.092,312.267,264.546L312.267,264.546z
		 M25.94,233.766l-0.642,0.037l-0.114-1.172l2.609-0.228l0.038,0.605C27.415,233.047,26.772,233.273,25.94,233.766L25.94,233.766z
		 M13.197,361.236c-1.512-0.682-2.874-0.945-4.046-0.832L9,358.551c-0.076-0.72,0.34-1.21,1.248-1.398
		c0.831-0.076,1.323,0.529,1.399,1.739c2.193-2.686,3.403-4.046,3.63-4.084l1.399,0.566
		C16.222,359.156,15.05,361.083,13.197,361.236L13.197,361.236z M149.365,218.79c-0.643,0.076-1.929-1.928-3.781-5.898l-0.114-1.172
		c1.21-0.113,2.458,1.853,3.781,5.898L149.365,218.79L149.365,218.79z M147.55,204.687l-0.53,1.248l-18.491-7.715
		C140.857,198.636,147.21,200.791,147.55,204.687L147.55,204.687z M69.464,271.73l-2.609,0.227l-0.113-1.173l2.609-0.227
		L69.464,271.73L69.464,271.73z M67.346,231.458l0.643-0.037l0.152,1.853c-0.605,0.038-1.399,0.945-2.383,2.685l-0.113-1.285
		C66.817,233.273,67.422,232.215,67.346,231.458L67.346,231.458z M61.863,244.391l0.227,2.458l-0.642,0.038l-0.227-2.458
		L61.863,244.391L61.863,244.391z M58.99,249.005l1.248-0.114c-0.114,2.042-0.681,3.139-1.702,3.214l-0.643,0.038
		C58.687,250.781,59.065,249.723,58.99,249.005L58.99,249.005z M56.834,255.433l0.719-0.076l0.037,0.605l-1.172,1.967l-1.248,0.112
		l-0.037-0.604C56.381,257.323,56.948,256.681,56.834,255.433L56.834,255.433z M54.717,261.219l-0.378,3.1l-0.643,0.038
		l-0.265-3.062L54.717,261.219L54.717,261.219z M33.503,321.531c-0.832,4.235-1.739,6.392-2.685,6.467l-0.037-0.604
		C30.554,325.312,31.461,323.347,33.503,321.531L33.503,321.531z M29.608,329.964l0.038,0.604c0.076,0.832-0.302,1.324-1.134,1.361
		l-0.038-0.605C28.398,330.606,28.776,330.152,29.608,329.964L29.608,329.964z M28.474,347.472l1.966-0.188l0.076,0.682
		c-0.492,0.035-1.135,0.302-1.929,0.756l-1.248,0.111C27.264,348.189,27.68,347.699,28.474,347.472L28.474,347.472z M84.438,330.19
		c-11.041,5.445-17.545,9.151-19.474,11.079c-11.949,4.16-17.886,6.729-17.772,7.752c-10.626,4.198-17.622,7.299-20.987,9.227
		c-0.794,0.076-1.928-0.227-3.441-0.906c-0.189-2.155,0.794-3.896,2.874-5.294c1.853-0.151,3.63,0.112,5.332,0.832
		c1.966-1.021,5.407-2.155,10.285-3.365l-0.113-1.286l-3.933,0.341c0.491-0.681,4.273-2.457,11.382-5.332l1.966-0.188l0.038,0.604
		c-3.365,0.303-5.218,1.285-5.634,3.063c0.075,0.794,0.529,1.134,1.361,1.058c2.534-1.588,3.781-2.533,3.744-2.798
		c4.802-0.907,18.075-7.864,39.818-20.835l0.113,1.172C90.035,325.88,88.182,327.468,84.438,330.19L84.438,330.19z M51.087,341.156
		c3.176-0.265,5.899-1.55,8.167-3.781c0.908-0.074,1.4,0.266,1.437,1.06c-1.55,0.152-4.537,1.438-8.886,3.934l-0.643,0.037
		L51.087,341.156L51.087,341.156z M104.896,299.825L88.22,313.061c-12.403,8.13-19.058,12.215-20.042,12.29
		c-19.738,10.853-32.028,16.487-36.792,16.903l-0.719,0.073c0.605-2.229,9.378-20.19,26.394-53.998
		c7.487-0.643,19.285-4.121,35.356-10.474l3.933-0.341c8.13-0.718,14.218,0.87,18.226,4.649l0.227,2.459
		C111.816,293.284,108.488,298.352,104.896,299.825L104.896,299.825z M72.3,281.486l2.685-0.227l0.038,0.604l-2.685,0.228
		L72.3,281.486L72.3,281.486z M110.001,275.096l1.966-0.189c1.815,0.871,2.76,1.627,2.836,2.309l0.038,0.604
		C113.101,277.97,111.475,277.062,110.001,275.096L110.001,275.096z M115.332,244.731c-1.739,2.079-6.504,5.634-14.293,10.625
		c-2.572,0.227-12.139,3.933-28.701,11.193c-0.832-0.378-1.702-0.529-2.647-0.454l-0.113-1.172
		c-0.189-2.383,0.869-5.369,3.214-8.999c1.285-6.808,2.685-10.702,4.235-11.647l13.802-31.045c-0.151-1.929,2.798-3.404,8.848-4.425
		l1.967-0.189l0.151,1.778c5.937-0.908,9.642-1.438,11.079-1.551c10.967-0.945,16.676,1.286,17.13,6.618l1.248-0.114l-0.265-3.138
		l1.362-0.114c3.214,1.776,4.953,3.933,5.18,6.466c0.151,1.74-0.794,3.895-2.798,6.467c-0.832,0.075-1.324-0.53-1.399-1.74
		l-1.362,0.114l-0.302,3.781c-5.559,8.319-9.605,12.592-12.1,12.819C117.299,243.143,115.9,244.693,115.332,244.731L115.332,244.731
		z M123.803,266.475c-1.135-0.757-2.042-1.097-2.723-1.06l-0.151-1.853l1.248-0.114l2.76,1.627
		C125.051,265.944,124.672,266.398,123.803,266.475L123.803,266.475z M132.576,276.872c1.21,0.492,1.928,1.021,2.079,1.514
		l-0.605,0.15l0.038,0.037c-0.113,0-0.265,0.039-0.378,0.076l-0.908,0.719L132.576,276.872L132.576,276.872z M133.407,282.092
		l-0.113-0.492l1.588-0.378l0.114,0.492L133.407,282.092L133.407,282.092z M137.227,286.365c1.626-0.266,2.42-0.379,5.445-1.06
		l0.113,0.491l-5.747,1.323C137.113,286.855,137.189,286.592,137.227,286.365L137.227,286.365z M142.823,288.745
		c-2.42,0.229-1.891-0.074-5.748,0.795l-0.113-0.491l4.84-1.552l2.307-0.527l0.227,0.906
		C143.277,288.104,144.033,288.104,142.823,288.745L142.823,288.745z M147.928,287.536c-0.567,0.15-1.021-0.112-1.286-0.756
		l1.475-0.342c0.643-0.15,1.059,0.114,1.21,0.758L147.928,287.536L147.928,287.536z M161.768,272.638l-0.114-0.491l2.383-0.568
		l0.227,0.908L161.768,272.638L161.768,272.638z M176.553,363.315c0.151-0.681,0.189-1.172,0.113-1.513l0.53-0.113
		c0.643-0.15,1.021,0.076,1.172,0.682l0.114,0.49L176.553,363.315L176.553,363.315z M186.914,276.533l-1.059-0.188
		c-1.701,0.682-3.138,1.172-4.311,1.438l-0.983,0.228c-0.567,0.149-1.021-0.076-1.248-0.683l6.92-1.588l2.269-1.059l0.757,0.87
		C188.162,275.777,187.368,276.116,186.914,276.533L186.914,276.533z M192.246,274.829l-0.114-0.489
		c0.341-0.076,0.794-0.341,1.286-0.832l4.916-1.136l0.113,0.492C195.838,273.508,193.758,274.15,192.246,274.829L192.246,274.829z
		 M193.002,264.886c-0.34,0.076-0.794,0.378-1.361,0.832c-0.076-0.34-0.756-0.34-2.042-0.038c-0.227-0.945,3.403-2.269,10.928-4.008
		l1.059-0.228l0.227,0.908C196.519,263.902,193.569,264.772,193.002,264.886L193.002,264.886z M206.237,250.593
		c-0.529,6.012-2.647,9.415-6.391,10.285l-0.113-0.491l-3.328,1.285l-1.474,0.341c-0.757,0.188-1.437,0.15-2.042-0.038l-0.303-1.324
		c-0.113-0.491,4.689-7.146,14.445-19.928l1.134,0.188C208.581,242.651,207.939,245.865,206.237,250.593L206.237,250.593z
		 M229.644,230.551l-0.454,0.038l-0.076-0.945l1.967-0.189l0.037,0.491C230.778,230.021,230.287,230.211,229.644,230.551
		L229.644,230.551z M220.001,327.393c-1.134-0.529-2.155-0.757-3.025-0.681l-0.113-1.438c-0.038-0.492,0.264-0.832,0.907-1.021
		c0.643-0.075,1.021,0.378,1.097,1.36c1.626-2.08,2.533-3.139,2.722-3.139l1.021,0.416
		C222.232,325.767,221.363,327.279,220.001,327.393L220.001,327.393z M323.384,219.244c-0.491,0.038-1.437-1.475-2.911-4.538
		l-0.074-0.944c0.943-0.076,1.929,1.398,2.91,4.424L323.384,219.244L323.384,219.244z M322.023,208.43l-0.454,0.982l-13.991-5.86
		C316.918,203.854,321.758,205.48,322.023,208.43L322.023,208.43z M262.693,259.365l-1.967,0.189l-0.076-0.946l1.967-0.188
		L262.693,259.365L262.693,259.365z M261.066,228.773l0.529-0.038l0.113,1.438c-0.492,0.038-1.098,0.719-1.814,2.042l-0.076-0.945
		C260.689,230.173,261.105,229.341,261.066,228.773L261.066,228.773z M256.945,238.605l0.152,1.853l-0.531,0.038l-0.15-1.853
		L256.945,238.605L256.945,238.605z M254.714,242.121l0.983-0.074c-0.113,1.588-0.529,2.42-1.247,2.494l-0.53,0.038
		C254.487,243.521,254.752,242.689,254.714,242.121L254.714,242.121z M253.126,246.963l0.454-0.038l0.038,0.49l-0.87,1.514
		l-0.983,0.076l-0.038-0.492C252.748,248.437,253.202,247.907,253.126,246.963L253.126,246.963z M251.538,251.349l-0.34,2.42
		l-0.454,0.038l-0.189-2.382L251.538,251.349L251.538,251.349z M235.391,297.217c-0.642,3.177-1.323,4.803-2.042,4.878l-0.037-0.416
		C233.198,300.091,233.879,298.577,235.391,297.217L235.391,297.217z M232.404,303.607l0.038,0.416
		c0.076,0.68-0.227,1.059-0.908,1.096l-0.037-0.489C231.459,304.137,231.761,303.797,232.404,303.607L232.404,303.607z
		 M231.572,316.917l1.513-0.112l0.037,0.491c-0.34,0.037-0.869,0.227-1.474,0.566l-0.983,0.075
		C230.627,317.409,230.929,317.07,231.572,316.917L231.572,316.917z M274.037,303.797c-8.319,4.122-13.273,6.92-14.823,8.356
		c-9.075,3.176-13.575,5.143-13.499,5.937c-8.055,3.215-13.349,5.521-15.844,6.996c-0.605,0.036-1.475-0.189-2.61-0.72
		c-0.151-1.625,0.605-2.949,2.194-3.933c1.437-0.112,2.798,0.076,4.046,0.604c1.512-0.756,4.121-1.588,7.827-2.532l-0.075-0.945
		l-3.063,0.266c0.378-0.529,3.289-1.892,8.697-4.084l1.512-0.113l0.038,0.416c-2.571,0.227-4.008,0.982-4.311,2.345
		c0.038,0.604,0.416,0.907,1.059,0.832c1.891-1.248,2.798-1.967,2.798-2.193c3.631-0.643,13.689-5.937,30.214-15.844l0.074,0.945
		C278.271,300.507,276.873,301.717,274.037,303.797L274.037,303.797z M248.702,312.115c2.458-0.227,4.538-1.172,6.277-2.836
		c0.643-0.037,1.021,0.229,1.059,0.832c-1.135,0.113-3.366,1.061-6.731,2.875l-0.529,0.036L248.702,312.115L248.702,312.115z
		 M289.617,280.693l-12.592,10.133c-9.416,6.164-14.521,9.266-15.315,9.34c-14.974,8.244-24.277,12.518-27.945,12.82l-0.529,0.036
		c0.454-1.7,7.147-15.352,20.079-40.99c5.634-0.491,14.559-3.176,26.81-8.016l3.062-0.266c6.164-0.528,10.776,0.682,13.803,3.593
		l0.152,1.853C294.835,275.7,292.339,279.52,289.617,280.693L289.617,280.693z M264.886,266.776l1.968-0.188l0.037,0.491
		l-1.967,0.189L264.886,266.776L264.886,266.776z M293.511,261.898l1.513-0.113c1.399,0.681,2.119,1.285,2.156,1.777l0.037,0.416
		C295.895,264.092,294.646,263.411,293.511,261.898L293.511,261.898z M297.482,238.869c-1.324,1.589-4.916,4.312-10.777,8.094
		c-1.967,0.188-9.227,2.986-21.781,8.432c-0.605-0.228-1.285-0.302-2.004-0.265l-0.076-0.945c-0.15-1.815,0.643-4.084,2.383-6.844
		c0.983-5.22,2.08-8.13,3.215-8.812l10.551-23.596c-0.114-1.399,2.115-2.533,6.654-3.403l1.514-0.113l0.111,1.437
		c4.463-0.718,7.262-1.134,8.396-1.247c8.318-0.719,12.667,0.945,13.008,5.029l0.983-0.076l-0.189-2.27l0.983-0.074
		c2.42,1.322,3.706,2.91,3.855,4.802c0.113,1.361-0.565,3.024-2.004,4.954c-0.643,0.075-1.021-0.378-1.097-1.362l-0.983,0.076
		l-0.302,2.836c-4.198,6.391-7.261,9.68-9.188,9.832C299.032,237.659,297.973,238.832,297.482,238.869L297.482,238.869z
		 M301.906,254.601l-0.113-1.438l0.982-0.074l2.117,1.284c0.039,0.605-0.265,0.946-0.906,1.021
		C303.078,254.827,302.398,254.562,301.906,254.601L301.906,254.601z M125.882,346.45l-0.983,0.228l-0.832,0.718
		c0.152,0.604,0.53,0.832,1.173,0.681c0.642-0.149,0.907-0.527,0.756-1.133L125.882,346.45L125.882,346.45z M122.139,339.002
		l0.113,0.489c0.643-0.149,0.908-0.527,0.757-1.133l-0.114-0.492C122.29,338.018,122.025,338.396,122.139,339.002L122.139,339.002z
		 M148.911,288.708l0.719-0.453c-0.152,0-0.265-0.038-0.379-0.075C148.987,288.255,148.873,288.443,148.911,288.708L148.911,288.708
		z M148.76,275.661l1.134-0.264l-0.227-0.984l-1.134,0.266L148.76,275.661L148.76,275.661z M415.991,313.854l-2.572-0.302
		l-0.454,0.981l0.038,0.492l15.315-1.285l-0.076-0.944L415.991,313.854L415.991,313.854z M429.982,312.683l0.073,0.945h0.151
		l-0.075-0.945H429.982L429.982,312.683z M494.227,304.286l0.076,0.947l1.664,0.301l-0.076-0.943L494.227,304.286L494.227,304.286z
		 M491.883,304.477c-11.495,2.572-12.932,2.118-15.352,2.307l0.075,0.945l1.059-0.074l0.567-0.039l-0.151-0.111l1.248-0.492
		c11.382-1.248,12.705-0.794,12.592-2.08L491.883,304.477L491.883,304.477z M422.873,287.764l-1.021-0.34
		c-0.832,2.229-1.248,3.554-1.21,3.932l0.037,0.416C421.474,291.734,422.192,290.372,422.873,287.764L422.873,287.764z
		 M409.033,280.314l-0.038-0.492l-0.529,0.039l-0.946,0.604l0.53,0.906C408.768,281.298,409.108,280.956,409.033,280.314
		L409.033,280.314z M439.095,311.396l-0.076-0.945l-0.302,0.039l0.075,0.944L439.095,311.396L439.095,311.396z M501.488,297.329
		l0.718-0.074c0.416-0.038,0.604-0.378,0.567-0.983l-0.416-0.908c-2.609,0.229-3.819,0.342-5.938,1.515l-0.038-0.492l-3.139,0.303
		c-0.075-0.945-0.34-1.438-0.756-1.398l-1.626,0.15c-1.893,0.151-2.799,0.076-3.744,0.795c-0.037-0.341-0.151-0.492-0.34-0.492
		l-1.815,0.151l-1.059,0.604c-0.038-0.34-0.151-0.49-0.341-0.49l-0.644,0.566l-0.038-0.492l-2.533-0.188l-0.604,0.038l0.075,0.945
		l1.286,0.34l1.21-0.075c0.416,0.265,0.868,0.34,1.397,0.302l1.061-0.529l0.037,0.416c-5.938,1.476-5.898,1.211-9.982,1.892
		c-0.454-0.302-0.794-0.453-1.021-0.416l-0.074,0.076c-0.453-0.038-0.72-0.341-0.758-0.832l2.118-0.267
		c0.151,0,0.266,0.152,1.438,0.379c1.702-0.832,1.776-1.172,2.685-1.248l-0.075-0.944c-5.822,1.135-3.479,0.378-10.775,1.021
		l-0.341,0.037l-0.075-0.945c9.378-1.135,6.237-0.49,9.453-1.397c0.036,0.34,0.15,0.491,0.341,0.491
		c0.378-0.378,0.794-0.567,1.285-0.645l0.643-0.037c3.29-0.265,4.387,0.379,10.891-1.437l0.037,0.416l1.061-0.53l0.981-0.074
		c-0.073-0.945,1.362-1.098,1.854-1.135l-0.075-1.021c-11.42,2.307-14.408,1.664-17.584,2.571l-0.038-0.416
		c-2.987,0.528-3.1,0.303-3.856,0.341c-0.228,0.036-0.566,0.227-0.944,0.604c-0.038-0.34-0.151-0.491-0.378-0.491
		c-0.114,0-0.151,0.037-0.189,0.037l-9.681,1.588c-0.037-0.264-0.151-0.416-0.378-0.377c-5.029,1.06-3.668,1.248-10.399,1.854
		c-0.302,0.038-0.718,0.188-1.247,0.527c-0.038-0.264-0.188-0.414-0.528-0.377l-4.122,0.34l-2.761,0.682
		c-0.037-0.266-0.188-0.416-0.528-0.378c-1.552,0.416-2.912,0.681-4.009,0.756H437.7c-0.683,0.076,0.34-0.189-0.189-0.415
		l-0.832,0.491c-1.21,0.112-0.565-0.076-4.727-0.038c-7.298,0.908-6.504,1.021-7.298,1.06l-2.725-0.188
		c0.038,0.265-0.111,0.453-0.416,0.453c-3.1-0.415-4.688-0.907-4.726-1.476c0.416-2.949,1.134-4.462,2.155-4.537l0.528-0.037
		l-0.454,0.982l0.529-0.038c0.983-0.53,1.438-1.021,1.399-1.475l-0.075-1.021l-0.984,0.075l-0.075-0.946
		c-0.074-0.718,0.038-1.359,0.304-1.89l2.229-3.593l0.076,0.944l1.059-0.076l-0.074-0.943l-0.605-0.87
		c0.794-0.681,1.399-1.059,1.891-1.097l-0.036-0.491l-1.438,0.113l-0.113-1.438c2.874-5.974,4.235-9.453,4.159-10.436l1.021,0.416
		c0.643-0.038,0.943-0.416,0.906-1.098l-0.982,0.076l-0.037-0.416c-0.076-0.719,0.075-1.399,0.378-2.004
		c1.55-1.626,2.271-3.252,2.117-4.954c0.303-0.038,0.454,0.114,0.492,0.454c1.322-0.756,2.345-2.761,3.101-6.088
		c2.344-4.235,5.672-12.706,10.021-25.373c8.318-22.386,7.979-24.769,9.149-30.062l-0.981,0.075
		c0.074,0.682-0.075,1.324-0.378,1.929c-0.683-0.265-1.21-0.415-1.59-0.378l-0.036-0.416c-0.151-1.929,0.643-4.234,2.458-6.958
		l0.452-0.037l0.832,3.252l0.983-0.075c-0.038-0.228,0.227-1.514,0.756-3.896c-0.038-0.492-0.416-0.794-1.172-0.832l-0.945,0.605
		c-0.075-0.682-0.038-2.458,0.075-5.294l-0.492,0.038c-0.831-0.832-1.247-1.514-1.284-2.08l-5.407,0.528
		c-0.037-0.378-0.228-0.944-0.605-1.663c-0.037-0.491,1.173-0.983,3.668-1.475l1.099,0.416l1.021-0.604
		c0.038,0.34,0.228,0.49,0.605,0.452l1.021-0.604c0.038,0.341,0.228,0.492,0.605,0.454l0.49-0.038l-0.074-1.096
		c-0.758,0.074-2.762,0.074-5.938-0.038l-1.021,0.681l-0.038-0.604c-25.373,2.078-39.78,3.252-43.223,3.592
		c-0.454,0.038-2.229,0-5.367-0.076c0.035,0.416-0.343,0.643-1.099,0.719l-1.097-0.492l-3.705,0.946
		c-0.87,0.075-2.345,0.037-4.387-0.189c-0.567,0.453-1.248,0.719-2.08,0.795c-0.453,0.037,5.407-0.304,10.853-0.682
		c-0.565,0.454-1.437,0.719-2.646,0.832c-0.832,0.075-1.551-0.038-2.155-0.378c-0.832,0.378-3.517,0.983-8.017,1.891l-1.098-0.416
		l-17.695,2.723c-0.683-0.34-1.477-0.454-2.385-0.378c-0.943,0.075-2.531,0.416-4.726,1.021l-8.546,3.555l0.642,1.059
		c0.416-0.038,1.021-0.265,1.74-0.681l3.025,0.265l-0.379,2.836c-2.799,1.248-4.425,3.102-4.879,5.445
		c-4.195,1.853-6.275,3.177-6.275,3.971l0.038,0.491l0.642-0.037l1.135-0.604l1.323,1.588l0.189,2.192
		c0.074,0.682-6.995,15.541-21.14,44.583c-12.251,27.982-18.68,43.296-19.284,46.058c-4.196,1.172-6.617,2.874-7.336,5.144
		c0.076,0.717,1.323,1.209,3.744,1.398l0.112,1.096l-1.097,1.813l0.188,2.195c0.113,1.133,3.177,2.004,9.189,2.608
		c-0.038-0.378,0.149-0.604,0.565-0.645c0.113,1.361-0.265,4.009-1.135,7.941l0.644-0.038c2.495-3.403,3.669-5.747,3.556-7.032
		l0.529-0.039c0.604-0.037,1.247,0.645,2.004,2.117c-0.757,0.303-3.403,6.315-7.941,18.075l0.644,1.06l0.644-0.039
		c5.559-14.064,9.038-21.854,10.474-23.33c7.3-0.644,19.93-1.928,37.854-3.856l1.135-0.681c0.037,0.379,0.264,0.566,0.68,0.529
		l1.174-0.113l1.135-0.682c0.038,0.379,0.265,0.567,0.681,0.529l13.575-1.172c3.592-0.304,5.294-1.398,5.142-3.252
		c-0.037-0.492,2.08-1.06,6.354-1.664c0.416-0.038,1.021,0.076,1.853,0.34c-0.038-0.34,2.118-0.68,6.43-1.058
		c0.112-2.27,0.831-3.479,2.116-3.594l-0.111-1.097c-1.21,0.113-2.572,0.416-4.16,0.945c-2.836-0.151-4.651-0.378-5.407-0.645
		c-0.757,0.416-1.324,0.645-1.74,0.683l-9.453,0.302l-1.135,0.604c-0.038-0.34-0.264-0.489-0.68-0.452l-0.53,0.036l-1.21,0.606
		c-0.038-0.341-1.021-0.606-2.986-0.87l-1.211,0.719l-2.344,0.188l-0.038-0.604c12.177-1.322,18.188-2.986,18.037-4.953
		c0.794-0.075,1.21,0.303,1.285,1.097l3.555-0.907l-0.112-1.097l-29.154,0.794c0.038,0.378-0.151,0.604-0.567,0.644l-3.555-0.303
		c-0.907,0.075-1.663,0.34-2.269,0.794l-1.323-0.491c-3.668,0.303-6.393,0.756-8.206,1.323c-2.495-0.188-5.257-0.151-8.319,0.113
		l-6.541,0.566l-3.024-0.34c-0.151-1.93,3.593-11.421,11.307-28.437c2.23-5.748,4.272-9.341,6.238-10.701
		c0.416-0.038,1.021,0.112,1.854,0.453l4.651-1.589l2.382,0.379c4.009-0.341,8.66-1.475,13.992-3.441
		c1.322-0.113,2.306-0.037,3.023,0.265l3.555-0.832l10.589-0.907c4.5-0.379,9.378-1.361,14.672-2.987l-0.114-1.096
		c-1.966,0.188-2.986-0.152-3.062-0.946c-0.113-1.475-1.552-2.08-4.312-1.854l-0.114-1.096l2.912-0.832l7.639-0.643l-0.112-1.097
		c-0.304,0.037-1.854,0-4.729-0.113l-0.111-1.172l2.948-0.266c0.794-0.075,1.136-0.454,1.06-1.21
		c-3.97,0.113-5.976-0.076-6.013-0.604c-27.681,1.36-41.559,1.626-41.634,0.756c-0.415,0.038-0.982,0.303-1.738,0.757l-0.719-1.135
		c7.335-15.579,11.646-23.445,12.895-23.559c0.038,0.605-0.266,1.588-0.908,2.912l0.038,0.491l1.173-0.113
		c2.911-6.958,5.369-10.55,7.411-10.701c8.697-0.757-1.21-1.323,17.396-4.235c0.756,0.341,1.284,0.492,1.662,0.454
		c7.299-1.476,17.472-3.025,30.518-4.613l-0.076-1.097l-6.957,0.643l-0.076-1.097c0.832-0.075,1.514-0.34,2.08-0.794l0.038,0.604
		c0.378-0.037,0.907-0.302,1.588-0.756c1.21-0.113,2.117,0,2.761,0.34c2.42-0.642,4.388-1.021,5.823-1.172l4.349-0.416
		c1.06-0.68,1.552-1.285,1.514-1.853l-0.038-0.491c-1.098,0.113-2.344,0.038-3.819-0.228c-0.037-0.604,0.265-1.021,0.983-1.21
		l8.092-0.756l3.706-0.946c0.038,0.416,0.228,0.567,0.529,0.567c0.378-0.037,0.907-0.302,1.588-0.756
		c0.189,0.038,0.416,0.038,0.604,0.076c-0.49,1.021-1.058,2.496-1.626,4.424L443,197.764c-0.076-0.719-0.266-1.362-0.605-1.93
		l-0.528,0.038c-9.831,27.377-14.219,40.121-23.293,61.146c-1.664,5.37-3.063,8.356-4.273,9c0.038,0.604,0.416,0.907,1.06,0.832
		c0.228,2.646-0.378,5.256-1.854,7.827c-4.198,12.102-6.996,18.718-8.433,19.928l0.944,5.711c0.037,0.604-0.265,0.944-0.907,1.021
		l-0.982,0.074c-0.151-1.588-0.719-2.344-1.739-2.229l-0.529,0.037c-1.285,2.004-2.27,4.311-2.91,6.996l0.981-0.076
		c1.323-0.869,1.929-1.892,1.815-3.062l1.966-0.188l1.134,0.416c-0.906,1.438-1.322,2.571-1.247,3.44l0.529,0.908l-1.286,3.024
		l0.038,0.492c1.135-0.114,2.382,0.264,3.706,1.058c0.907-0.074,1.891-0.49,2.987-1.21c1.135-0.112,5.369-0.151,12.668-0.151
		l3.668-1.248c4.462-0.037,5.18,0.076,9.036-0.265l1.589-0.151l0.832-0.565l0.037,0.492c4.047-0.343,4.312-0.076,7.486,0.302
		l0.038,0.492l-2.229,0.188l0.075,0.945c0.681-0.076,1.284-0.267,1.776-0.683c0.567-0.035,0.907,0.267,0.945,0.947
		c-0.907,0.074-1.929,0.301-3.063,0.68l-0.981-0.34c-1.551,0.416-1.211,0.528-2.271,0.604l-1.55-0.302
		c0.038,0.264-0.113,0.452-0.378,0.452c0.038,0.604,0.378,0.908,0.945,0.869l1.588-0.149l8.281-0.72l3.139-0.68
		c0.038,0.264,0.15,0.416,0.416,0.377l1.513-0.565l2.836-0.228c2.193-0.188,2.155-0.342,6.92-1.098
		c-0.038-0.302,0.075-0.416,0.303-0.454l0.038,0.416c7.752-1.323,8.242-1.399,9.49-1.815l0.114,0.229
		c1.928-0.454,0.832-0.34,1.36-0.718c0.038,0.34,0.15,0.489,0.341,0.489l1.361-0.111l-0.075-1.021l-2.762-0.039l-0.037-0.076
		c-0.113,0.039-0.188,0.039-0.304,0.076h-0.378v0.076c-1.853,0.379-1.891,0.113-3.101,0.229l-6.92,0.378l-0.037-0.492l3.855-0.529
		l1.399-0.113l0.794-0.566l0.038,0.492c5.444-0.454,7.373,0.906,32.557-4.463c1.362-0.113,1.248-1.247,2.118-3.594
		c-0.454,0.039-0.908-0.074-1.323-0.302c-2.08,0.794-3.177,0.416-7.185,1.06c-0.34,0.037-0.605-0.266-0.72-0.869l-0.037-0.416
		l3.855,0.111c0.72-0.074,2.118-0.188,4.198-1.359C501.828,297.179,501.034,297.366,501.488,297.329L501.488,297.329z
		 M315.292,300.318l-1.777,0.15c-0.074-0.72,0.87-3.441,2.836-8.093l1.174-0.112C317.561,293.359,316.842,296.045,315.292,300.318
		L315.292,300.318z M317.448,291.695l-0.038-0.49c-0.038-0.604,0.34-1.021,1.172-1.211l0.038,0.492
		C318.658,291.204,318.279,291.62,317.448,291.695L317.448,291.695z M341.081,309.958l0.038,0.492l-2.949,0.267l-0.038-0.492
		L341.081,309.958L341.081,309.958z M337.527,309.658c0.038,0.604-0.87,1.285-2.836,1.965l-3.633-0.264l-1.172,0.113l-0.111-1.099
		L337.527,309.658L337.527,309.658z M361.425,199.656l-1.775,0.152l-0.038-0.605c-0.038-0.604,0.303-1.021,1.059-1.21l0.645-0.038
		l1.21,0.491C362.559,199.165,362.219,199.581,361.425,199.656L361.425,199.656z M388.462,194.362l0.567-0.037l0.076,1.097
		l-1.628,0.15C387.441,194.968,387.743,194.553,388.462,194.362L388.462,194.362z M381.655,196.745l-2.686-0.303l-0.038-0.491
		c3.519-0.303,4.689-0.681,6.846-1.286c0.038,0.416,0.416,0.567,1.097,0.492l0.075,1.097l-1.06,0.113
		c-0.832,0.075-1.551-0.038-2.154-0.379C383.092,196.404,382.412,196.67,381.655,196.745L381.655,196.745z M385.021,206.539
		l-0.038-0.491l4.349-0.416l0.038,0.491L385.021,206.539L385.021,206.539z M389.672,202.758l-0.038-0.605l2.118-0.188l0.038,0.604
		L389.672,202.758L389.672,202.758z M390.164,195.347l-0.568,0.037l0.492-1.172l4.84-0.454l0.038,0.604
		C393.718,194.477,392.092,194.816,390.164,195.347L390.164,195.347z M392.622,205.782l-0.076-1.096l2.118-0.189
		c0.718-0.075,1.096,0.265,1.134,1.021L392.622,205.782L392.622,205.782z M405.44,188.312l-2.724,0.757l-0.492,0.037
		c-1.283,0.114-2.947,0.076-4.916-0.113C400.827,188.767,404.193,188.501,405.44,188.312L405.44,188.312z M402.529,200.413
		l0.038,0.491l-3.744,0.341l-0.038-0.491L402.529,200.413L402.529,200.413z M408.655,203.324c-0.038-0.453-0.757-0.756-2.231-0.907
		l-3.744,1.06l-2.874,0.113c-0.643-0.454-0.981-0.757-1.021-0.983l3.328,0.189l7.485-1.21l3.819,0.15l0.038,0.605
		C411.566,202.53,409.978,202.871,408.655,203.324L408.655,203.324z M447.188,193.38c0.453,0.037,0.757,0.037,0.869,0.037
		c1.323-1.285,2.8-2.307,4.5-3.024c-1.36,5.975-3.479,10.398-6.391,13.272l-2.118-1.285
		C445.826,197.88,446.885,194.893,447.188,193.38L447.188,193.38z M440.683,204.534l0.529-0.037
		c-0.718,1.361-1.361,2.079-1.89,2.117l-0.114-1.437C439.549,205.178,440.04,204.95,440.683,204.534L440.683,204.534z
		 M436.486,214.556c1.021-4.084,2.004-6.391,2.911-6.995l0.036,0.491c-0.527,3.78-1.359,5.786-2.458,5.937l0.189,2.382
		c-0.907,1.286-1.323,2.27-1.286,3.025l-0.529,0.038l-0.302-3.29C435.654,216.068,436.145,215.538,436.486,214.556L436.486,214.556z
		 M434.86,220c0.036,0.567-0.343,1.892-1.099,3.934l-0.527,0.038l-0.114-1.438C433.839,220.87,434.444,220.038,434.86,220
		L434.86,220z M404.344,308.561l-0.038-0.416l0.983-0.074l0.114,1.438C404.873,309.545,404.495,309.242,404.344,308.561
		L404.344,308.561z M447.943,309.695c-0.038-0.341-0.189-0.492-0.529-0.453l-2.458,0.228l-0.038-0.492h0.227l5.823-0.49l0.038,0.49
		C449.305,309.053,448.284,309.318,447.943,309.695L447.943,309.695z M445.032,308.486c0.227,0.112,0.111,0.228,0,0.301
		C444.918,308.749,444.767,308.637,445.032,308.486L445.032,308.486z M445.334,301.679l-3.252,0.265l-0.038-0.492l2.95-0.264
		l2.571-0.643c0.036,0.302,0.188,0.416,0.528,0.378c3.063-0.529,2.762-0.682,4.235-0.794c0.491-0.038,0.794,0.265,0.832,0.868
		L445.334,301.679L445.334,301.679z M456.716,300.695c-1.813-0.188-1.928-0.34-3.214-0.227l-0.038-0.416l2.912-0.265l0.038,0.416
		C456.111,300.242,457.208,300.318,456.716,300.695L456.716,300.695z M456.943,300.165l-0.038-0.416l1.588-0.15l0.038,0.416
		L456.943,300.165L456.943,300.165z M460.46,299.863l-0.038-0.416c0.266-0.037,0.645-0.227,1.134-0.604
		c0.794-0.075,1.21,0.454,1.286,1.06L460.46,299.863L460.46,299.863z M464.96,299.297l-0.038-0.492l1.928-0.15l0.038,0.491
		L464.96,299.297L464.96,299.297z M467.644,299.07c-0.035-0.566,0.189-0.908,0.683-0.982l0.643,0.832
		c-0.038-0.266,0.075-0.416,0.303-0.454l0.491,0.907L467.644,299.07L467.644,299.07z M504.853,294.684l0.038-0.038v-0.038
		C504.891,294.607,504.853,294.646,504.853,294.684L504.853,294.684z M505.534,294.191c0.302-0.188,0.454-0.378-0.267-0.49
		c-0.34,0.377,0.38,0.49-0.378,0.528l0.038,0.341c0.075-0.076,0.267-0.188,0.416-0.303l-0.416,0.34v0.038l-0.794,1.021l1.588-0.565
		h0.189l-0.076-0.945L505.534,294.191L505.534,294.191z M508.294,296.348l-0.302,0.037l0.075,0.944l2.229-0.188
		C510.261,296.536,508.786,296.348,508.294,296.348L508.294,296.348z"/>
</g>
</svg>
