<?xml version="1.0" encoding="utf-8"?>
<!-- Generator: Adobe Illustrator 16.0.0, SVG Export Plug-In . SVG Version: 6.00 Build 0)  -->
<!DOCTYPE svg PUBLIC "-//W3C//DTD SVG 1.1//EN" "http://www.w3.org/Graphics/SVG/1.1/DTD/svg11.dtd">
<svg version="1.1" id="Layer_1" xmlns="http://www.w3.org/2000/svg" xmlns:xlink="http://www.w3.org/1999/xlink" x="0px" y="0px"
	 width="128px" height="128px" viewBox="0.01 294.311 128 128" enable-background="new 0.01 294.311 128 128" xml:space="preserve">
<rect x="0.009" y="294.311" fill="#F5DA55" width="128" height="128"/>
<g id="Layer_2">
	<path d="M106.559,340.397c-0.287,1.309-0.753,2.278-1.381,2.925l-0.448-0.287c0.484-1.238,0.718-1.957,0.699-2.137l-0.125-0.197
		c-0.162,0.019-0.378,0.449-0.646,1.311l-0.233,0.019c-0.018-0.162-0.054-0.287-0.125-0.413l-0.107,0.019
		c-2.117,5.902-3.068,8.647-5.023,13.187c-0.359,1.166-0.664,1.812-0.934,1.938c0.018,0.125,0.089,0.196,0.232,0.179
		c0.055,0.574-0.089,1.131-0.395,1.686c-0.915,2.603-1.507,4.038-1.812,4.29l0.197,1.237c0.019,0.125-0.054,0.215-0.197,0.215
		l-0.215,0.019c-0.036-0.342-0.162-0.503-0.377-0.484l-0.108,0.017c-0.269,0.431-0.484,0.933-0.628,1.508l0.216-0.018
		c0.287-0.181,0.412-0.396,0.395-0.665l0.431-0.035l0.233,0.089c-0.197,0.306-0.287,0.558-0.27,0.736l0.108,0.198l-0.27,0.645
		l0.018,0.108c0.252-0.018,0.521,0.054,0.807,0.233c0.198-0.019,0.415-0.107,0.647-0.251c0.251-0.019,1.147-0.037,2.727-0.037
		l0.79-0.269c0.969-0.019,1.112,0.019,1.955-0.054l0.341-0.036l0.18-0.125l0.018,0.107c0.86-0.071,0.934-0.018,1.615,0.072
		l0.019,0.107l-0.485,0.035l0.018,0.198c0.145-0.019,0.27-0.054,0.377-0.145c0.125-0.018,0.198,0.054,0.216,0.197
		c-0.197,0.019-0.414,0.072-0.664,0.145l-0.215-0.072c-0.342,0.09-0.27,0.107-0.484,0.126l-0.342-0.072
		c0,0.054-0.018,0.09-0.071,0.107c0.018,0.126,0.071,0.197,0.197,0.181l0.412-0.036l-0.179-0.072c0,0.054,0.036,0.09,0.107,0.09
		l1.776-0.162l0.682-0.143c0,0.054,0.035,0.089,0.089,0.089l0.324-0.126l0.609-0.054c0.484-0.035,0.467-0.071,1.489-0.232
		c0-0.054,0.019-0.091,0.072-0.091v0.091c1.955-0.323,1.775-0.305,2.188-0.448l-0.09-0.215c-0.556,0.125-0.538,0.054-0.825,0.088
		l-1.489,0.073l-0.018-0.107l0.825-0.108l0.304-0.018l0.162-0.126l0.019,0.107c1.166-0.107,1.58,0.198,7.015-0.951
		c0.288-0.018,0.271-0.269,0.449-0.771c-0.107,0-0.198-0.018-0.286-0.072c-0.45,0.18-0.683,0.092-1.544,0.234
		c-0.071,0-0.125-0.055-0.162-0.196v-0.091l0.825,0.036c0.145-0.019,0.468-0.036,0.898-0.288c0.09,0.054-0.072,0.108,0.017,0.091
		l0.145-0.019c0.089,0,0.126-0.072,0.126-0.215l-0.091-0.197c-0.557,0.054-0.824,0.07-1.273,0.322l-0.019-0.108l-0.682,0.072
		c-0.018-0.216-0.071-0.305-0.161-0.305l-0.358,0.036c-0.413,0.036-0.61,0.018-0.808,0.18c0-0.072-0.036-0.108-0.072-0.108
		l-0.395,0.036l-0.233,0.127c0-0.073-0.035-0.108-0.071-0.108l-0.144,0.125l-0.018-0.107l-0.538-0.036l-0.126,0.019l0.018,0.196
		l0.287,0.072l0.252-0.019c0.088,0.055,0.196,0.072,0.305,0.072l0.233-0.107v0.09c-1.274,0.322-1.274,0.251-2.153,0.413
		c-0.107-0.072-0.18-0.091-0.216-0.091c-0.09,0.091,0.108,0.019,0.054,0.019c-0.144,0.019-0.215-0.053-0.232-0.18l0.448-0.054
		c0.036,0,0.054,0.036,0.305,0.089c0.358-0.179,0.377-0.251,0.574-0.268l-0.018-0.198c-1.256,0.252-0.754,0.09-2.333,0.215h-0.071
		l-0.019-0.196c2.028-0.251,1.347-0.108,2.028-0.306c0,0.071,0.035,0.108,0.071,0.108c0.071-0.072,0.18-0.125,0.287-0.125
		l0.144-0.02c0.7-0.054,0.951,0.091,2.35-0.305v0.09l0.233-0.107l0.216-0.019c-0.019-0.215,0.306-0.232,0.395-0.25l-0.018-0.216
		c-2.458,0.502-3.104,0.357-3.786,0.556v-0.09c-0.645,0.126-0.664,0.055-0.825,0.072c-0.054,0-0.125,0.054-0.197,0.126
		c0-0.072-0.036-0.108-0.09-0.108c-0.107,0-0.054,0.036-0.144,0.126l0.144-0.126l-2.135,0.341c0-0.054-0.035-0.09-0.09-0.09
		c-1.077,0.233-0.79,0.27-2.242,0.396c-0.072,0-0.162,0.034-0.271,0.106c0-0.053-0.035-0.09-0.107-0.09l-0.896,0.071l-0.593,0.145
		c0-0.054-0.036-0.091-0.107-0.091c-0.342,0.091-0.629,0.145-0.861,0.162h-0.019c-0.143,0.019,0.072-0.036-0.035-0.09l-0.179,0.108
		c-0.271,0.018-0.127-0.019-1.023,0c-1.579,0.196-1.4,0.215-1.579,0.233l-0.592-0.037c0,0.054-0.019,0.091-0.091,0.108
		c-0.663-0.09-1.004-0.196-1.022-0.323c0.09-0.628,0.234-0.951,0.467-0.986l0.108-0.019l-0.108,0.216l0.108-0.019
		c0.215-0.107,0.305-0.215,0.305-0.322l-0.018-0.216l-0.217,0.018l-0.018-0.197c-0.017-0.161,0-0.287,0.055-0.412l0.484-0.771
		l0.018,0.197l0.233-0.018l-0.019-0.198l-0.125-0.197c0.162-0.144,0.305-0.233,0.412-0.233l-0.017-0.107l-0.306,0.019l-0.019-0.306
		c0.61-1.292,0.915-2.045,0.897-2.242l0.216,0.089c0.143-0.017,0.215-0.089,0.196-0.233l-0.215,0.019v-0.09
		c-0.018-0.161,0.019-0.306,0.072-0.431c0.341-0.34,0.484-0.699,0.449-1.076c0.07,0,0.106,0.036,0.106,0.107
		c0.287-0.161,0.503-0.592,0.664-1.31c0.502-0.916,1.22-2.744,2.153-5.473c1.794-4.825,1.722-5.347,1.974-6.477l-0.216,0.018
		c0.018,0.144-0.018,0.287-0.09,0.413c-0.143-0.054-0.27-0.089-0.341-0.089v-0.091c-0.036-0.413,0.144-0.915,0.539-1.507h0.09
		l0.179,0.699l0.216-0.017c0-0.054,0.054-0.324,0.16-0.845c-0.017-0.107-0.089-0.161-0.251-0.179l-0.196,0.125
		c-0.019-0.143,0-0.52,0.017-1.148L106.559,340.397L106.559,340.397z M103.976,343.501l0.108-0.019
		c-0.162,0.288-0.288,0.449-0.413,0.467l-0.018-0.305C103.742,343.626,103.85,343.591,103.976,343.501z M103.078,345.653
		c0.216-0.879,0.431-1.381,0.629-1.507l0.018,0.108c-0.108,0.825-0.287,1.237-0.539,1.273l0.037,0.521
		c-0.198,0.268-0.287,0.484-0.27,0.645l-0.107,0.019l-0.054-0.718C102.899,345.977,103.007,345.868,103.078,345.653z
		 M102.738,346.82c0.017,0.125-0.071,0.412-0.233,0.843l-0.108,0.019l-0.018-0.306C102.505,347.018,102.63,346.838,102.738,346.82
		L102.738,346.82z M96.834,359.863l0.108,0.197c0.161-0.018,0.233-0.089,0.215-0.215l-0.018-0.108l-0.108,0.02L96.834,359.863z
		 M99.67,362.214v0.09c0.162-0.018,0.322-0.305,0.466-0.861l-0.215-0.071C99.741,361.855,99.67,362.124,99.67,362.214z
		 M117.826,362.842v0.09l-0.179,0.216l0.341-0.126h0.035l-0.018-0.197h-0.071l-0.125,0.107c0-0.055,0.377-0.161,0.089-0.215
		C117.845,362.807,117.988,362.824,117.826,362.842z M118.526,363.487l0.483-0.035c-0.017-0.126-0.322-0.161-0.431-0.161h-0.07
		L118.526,363.487L118.526,363.487z M109.951,363.668l0.143,0.179c0-0.054,0.019-0.09,0.072-0.09l0.107,0.198l-0.449-0.054
		C109.789,363.757,109.843,363.686,109.951,363.668z M108.479,363.83c0.162-0.02,0.27,0.088,0.27,0.232h-0.503v-0.09
		C108.299,363.955,108.39,363.918,108.479,363.83z M109.628,363.776l0.018,0.106l-0.413,0.035l-0.018-0.107L109.628,363.776z
		 M105.464,364.206c0,0.054,0.037,0.089,0.108,0.089c0.664-0.126,0.593-0.143,0.916-0.179c0.107-0.018,0.161,0.053,0.179,0.179
		l-1.848,0.161l0.18,0.091l-0.02-0.107l-0.699,0.054l-0.018-0.107l0.629-0.054L105.464,364.206z M107.367,364.044v0.09
		c-0.055,0,0.179,0.019,0.07,0.107c-0.394-0.035-0.411-0.072-0.698-0.054v-0.089L107.367,364.044z M107.834,363.99v0.09
		l-0.342,0.036v-0.091L107.834,363.99z M96.351,365.82l0.018,0.306c-0.107,0.017-0.198-0.054-0.232-0.197v-0.09L96.351,365.82z
		 M111.709,365.552l0.018,0.197l0.359-0.037l-0.145-0.088l0.019,0.107l0.358-0.145c2.458-0.269,2.746-0.161,2.71-0.448v-0.09
		C112.551,365.604,112.229,365.498,111.709,365.552L111.709,365.552z M115.548,365.21l0.359,0.071l-0.018-0.196l-0.359-0.072
		L115.548,365.21z M104.926,365.91c0.107,0.054-0.125,0.107,0.02,0.09l1.256-0.107l0.017,0.107
		c-0.358,0.036-0.591,0.089-0.663,0.161c0-0.072-0.036-0.107-0.107-0.107l-0.539,0.054L104.892,366
		C105.033,365.982,104.819,365.982,104.926,365.91z M110.74,365.766l0.107,0.198c0.412-0.09,0.179-0.071,0.286-0.161
		c0,0.071,0.037,0.107,0.072,0.107l0.287-0.018l-0.017-0.215l-0.755-0.02L110.74,365.766z M103.635,366.538h-0.072l-0.018-0.197
		h0.071L103.635,366.538z M98.019,367.221l0.019,0.107l3.301-0.271l-0.017-0.197l-2.639,0.216l-0.557-0.072L98.019,367.221z
		 M101.697,367.022h0.036l-0.019-0.197h-0.035L101.697,367.022z M51.46,349.691c-2.332,2.78-3.535,4.306-3.624,4.61
		c-0.951,0.987-1.417,1.579-1.364,1.776c-0.25,0.161-0.358,0.323-0.323,0.502c-0.072,0.019-0.125-0.018-0.143-0.089
		c-0.413,0.663-1.005,1.076-1.813,1.272l-0.843,0.198c-0.107,0.019-0.161,0.108-0.161,0.251l0.018,0.107l0.323-0.071l0.018,0.09
		l-0.718,0.271l-1.274,0.286l-0.664,0.036c-0.089,0.089,0.52-0.019,0.287,0.054l-0.825,0.196c-0.502,0.126-0.79,0.072-0.826-0.126
		l-0.09,0.019c0.054,0.198,0,0.323-0.143,0.358l0.161-0.035l-0.072-0.305l-1.507,0.358l0.161,0.071
		c-0.018-0.071-0.089-0.09-0.233-0.053l-0.197,0.16l-0.233-0.054c-0.215,0.127-0.359,0.198-0.395,0.198l-0.233-0.055
		c-0.628,0.36-0.161,0.36-0.197,0.36l0.054,0.196l0.359-0.089l0.557-0.037l-0.054,0.233c-2.045,0.538-0.557,0.234-1.112,0.359
		l-0.108,0.019l0.054,0.196l0.323-0.071l0.018,0.107c-0.413,0.09-0.646,0.18-0.717,0.269l-0.019-0.107
		c-0.538,0.126-1.076,0.538-1.614,1.221c0.089,0.395-1.077,0.879,4.413-0.395c0.377-0.019,0.593-0.019,0.646-0.036
		c-0.018-0.072,0.019-0.108,0.09-0.125c0.61-0.073,0.323,0.035,0.7-0.055l1.185-0.269l-0.251,0.142
		c-0.018-0.054,0.018-0.088,0.072-0.106c0.143,0.036,0.287,0.019,0.448-0.018l0.072,0.306l-4.683,7.427l-1.04,1.292l-0.503,1.704
		l0.09-0.018l0.502-0.215l-0.162,0.663l0.054,0.198l0.144,0.179c-0.072,0.019-0.09,0.054-0.072,0.126l0.018,0.107l0.215-0.054
		c0.305-0.269,0.431-0.521,0.395-0.735c0.341,0.054,0.556,0.071,0.664,0.054l0.018,0.107c-0.197,0.054-0.305,0.216-0.323,0.484
		L37,373.249l0.107-0.019c1.704-1.848,5.849-8.182,9.186-12.487c-0.108-0.467,1.632-1.113,5.221-1.938l0.107-0.017
		c0.125,0.556-0.144,1.919-0.825,4.089c-0.449,1.311-0.646,2.027-0.628,2.136c-0.574,1.74-0.843,2.674-0.808,2.817l-1.274,4.162
		c-0.825,2.136-1.453,4.378-1.884,6.746c0.072-0.018,0.197,0,0.341,0.036l0.179-0.162c0.018,0.072,0.053,0.09,0.144,0.09
		l-0.072-0.305l0.556-0.018c0.162-0.036,0.306-0.251,0.413-0.628c-0.018-0.556,0.089-0.861,0.341-0.934
		c0.341-1.328,0.556-2.009,0.628-2.026c0.323-1.328,0.557-2.082,0.718-2.279c0.484-1.722,0.825-2.62,1.058-2.674l0.054,0.217
		l-0.34,0.915c-0.61,2.709-1.239,4.861-1.867,6.439l0.18,0.79l0.107-0.018c1.525-3.266,3.696-9.725,6.549-19.378
		c0.089-0.843,0.484-1.506,1.22-1.973l-0.161-0.162l-0.018-0.09c0.323-0.071,0.556-0.196,0.682-0.376
		c-0.018-0.072-0.305-0.181-0.861-0.323l1.687-7.213c0.502-2.153,0.843-4.036,1.022-5.688l-0.018-0.108
		c-0.341-0.215-0.682-0.519-0.987-0.914v-0.431l-0.018-0.09l-0.09,0.018C56.609,343.035,54.528,345.779,51.46,349.691z
		 M53.846,351.324c0.09,0.377-0.054,1.076-0.413,2.099c-0.107,1.292-0.574,2.027-1.381,2.225l-0.018-0.107l-0.718,0.269
		l-0.323,0.072c-0.161,0.035-0.305,0.035-0.448-0.019l-0.072-0.286c-0.018-0.107,1.005-1.543,3.122-4.289L53.846,351.324
		L53.846,351.324z M52.196,355.809l0.233-0.054l0.054,0.198c-1.13,0.34-1.758,0.519-1.884,0.556c-0.072,0.018-0.18,0.071-0.305,0.18
		c-0.019-0.072-0.162-0.072-0.449-0.019C49.792,356.472,50.581,356.186,52.196,355.809z M41.054,358.823l0.251-0.054l-0.054-0.215
		L41,358.609L41.054,358.823z M44.337,357.962l0.054,0.197l-0.539,0.035l-0.018-0.107L44.337,357.962z M38.058,360.025l0.018,0.108
		l-0.341,0.071l-0.018-0.108L38.058,360.025z M37.43,361.335l0.018,0.09l-0.413,0.09l-0.054-0.198L37.43,361.335z M38.417,361.12
		l0.018,0.089l-0.753,0.18l-0.018-0.09L38.417,361.12z M39.727,360.904l0.018,0.107l-1.974,0.448l-0.054-0.197
		C38.865,361.066,38.74,361.138,39.727,360.904z M49.612,358.609l0.161,0.179c-0.233,0.054-0.413,0.125-0.502,0.214l-0.233-0.035
		c-0.358,0.144-0.682,0.252-0.933,0.306l-0.215,0.054c-0.125,0.035-0.215-0.019-0.269-0.145l1.489-0.34L49.612,358.609z
		 M50.67,358.374l1.059-0.25l0.018,0.107c-0.574,0.126-1.022,0.27-1.345,0.431l-0.018-0.107
		C50.473,358.536,50.563,358.465,50.67,358.374z M39.546,361.389l0.503-0.107l0.054,0.197c-0.215,0.054-0.054,0.054-0.323,0.18
		c-0.52,0.054-0.412-0.02-1.238,0.179l-0.018-0.107L39.546,361.389z M40.911,361.155c0.143-0.035,0.233,0.019,0.251,0.161
		l-0.305,0.072c-0.126,0.036-0.215-0.018-0.269-0.161L40.911,361.155z M35.295,372.495l0.018,0.106
		c0.144-0.035,0.198-0.106,0.162-0.251l-0.018-0.107C35.33,372.279,35.276,372.351,35.295,372.495z M35.726,374.289
		c0.035,0.126,0.107,0.179,0.25,0.144c0.144-0.036,0.197-0.107,0.162-0.251l-0.019-0.108l-0.215,0.055L35.726,374.289z
		 M47.172,377.376c0.143-0.037,0.215,0.017,0.25,0.143l0.019,0.108l-0.413,0.089c0.036-0.144,0.036-0.252,0.018-0.323
		L47.172,377.376z"/>
	<path d="M63.786,344.183c-0.933,0.664-1.992,1.346-3.176,2.009l0.018,0.198c0.072,0,0.18-0.054,0.323-0.144
		c0.144-0.018,0.215,0.053,0.233,0.18l0.197-0.108h0.09v0.09c0.018,0.107-0.735,0.683-2.207,1.723l0.108,0.216h-0.09l-0.233-0.09
		c0,0.072-0.09,0.126-0.305,0.144v0.09l0.233,0.287c-0.072,0-0.197-0.019-0.341-0.09c-0.484,0.035-0.951,0.394-1.417,1.04
		l0.108,0.198c0.413-0.377,0.646-0.575,0.718-0.575l0.018,0.305c-0.071,0-0.179,0.054-0.323,0.145l0.269,0.377
		c0.484-0.538,1.023-0.987,1.597-1.364c0.287,0.089,0.448,0.18,0.448,0.269l0.215-0.017c1.615-1.186,3.194-2.027,4.755-2.549
		l0.018,0.198c-0.286,0.431-0.484,0.646-0.591,0.663c0.018,0.145,0.053,0.27,0.125,0.396c0.018,0.268-0.682,2.062-2.118,5.381
		c-3.283,7.698-6.029,13.404-8.253,17.101c0,0.07,0.054,0.179,0.144,0.304c0.556-0.125,0.897-0.269,1.041-0.395h0.089l0.018,0.198
		l0.233-0.019l0.197-0.107c0,0.054,0.071,0.089,0.215,0.071l0.018,0.216c0.018,0.197-0.108,0.502-0.341,0.933
		c-0.233,0.251-0.485,0.789-0.735,1.597l0.017,0.107l0.215-0.018c0.897-1.005,1.562-1.974,2.028-2.942
		c2.602-0.771,4.575-1.507,5.957-2.243c1.4-0.125,2.44-0.483,3.157-1.076l-0.018-0.107l-0.538,0.162l-0.107,0.017l-0.019-0.106
		c1.022-0.145,1.723-0.377,2.1-0.683c1.974-1.524,3.463-2.602,4.485-3.229c3.122-2.296,4.593-4.485,4.414-6.602
		c-0.019-0.216-0.699-1.077-2.063-2.584c-0.019-0.288,0.449-0.7,1.398-1.238l2.729-2.369c0.609-0.771,0.968-2.026,1.075-3.767
		l-0.035-0.396c-0.107-1.202-0.986-2.171-2.638-2.924c-0.986-0.665-2.744-1.022-5.275-1.095
		C69.923,342.102,67.177,342.854,63.786,344.183L63.786,344.183z M78.39,344.327l-0.106,0.214l-3.015-1.272
		C77.296,343.357,78.336,343.698,78.39,344.327z M66.154,352.723c0.215-1.13,0.449-1.758,0.7-1.901l2.279-5.096
		c-0.019-0.305,0.446-0.556,1.435-0.735l0.322-0.035l0.019,0.304c0.969-0.161,1.561-0.251,1.812-0.269
		c1.794-0.162,2.728,0.215,2.8,1.076l0.215-0.017l-0.036-0.485l0.216-0.019c0.52,0.287,0.789,0.629,0.825,1.041
		c0.018,0.287-0.126,0.646-0.431,1.076c-0.145,0.019-0.216-0.089-0.232-0.287l-0.217,0.019l-0.071,0.61
		c-0.915,1.381-1.561,2.08-1.974,2.117c-0.358,0.501-0.593,0.753-0.7,0.753c-0.287,0.342-1.058,0.934-2.332,1.74
		c-0.43,0.036-1.991,0.646-4.701,1.829c-0.125-0.053-0.286-0.07-0.431-0.053l-0.017-0.197
		C65.598,353.818,65.777,353.333,66.154,352.723L66.154,352.723z M78.678,346.442l0.018,0.217c-0.107,0-0.306-0.323-0.628-0.97
		l-0.018-0.197C78.247,345.475,78.463,345.798,78.678,346.442z M58.798,348.884l0.018,0.107c-0.072,0-0.18,0.054-0.323,0.126h-0.089
		l-0.018-0.198L58.798,348.884z M65.383,348.722l0.019,0.305c-0.107,0-0.234,0.162-0.395,0.431l-0.019-0.196
		c0.179-0.234,0.269-0.414,0.269-0.539H65.383z M64.36,350.84l0.036,0.394l-0.108,0.018l-0.035-0.395L64.36,350.84z M64.109,351.574
		c-0.018,0.341-0.108,0.521-0.27,0.538l-0.107,0.02c0.125-0.233,0.179-0.414,0.161-0.539L64.109,351.574z M63.642,352.634
		l0.019,0.107l-0.18,0.323l-0.215,0.018l-0.018-0.108c0.215-0.017,0.323-0.125,0.305-0.34H63.642z M63.194,353.583l-0.072,0.522
		h-0.089l-0.036-0.522H63.194z M74.246,353.961l0.448,0.27c0.019,0.125-0.054,0.214-0.196,0.214
		c-0.197-0.125-0.342-0.179-0.449-0.16v-0.305L74.246,353.961z M65.598,355.109l0.019,0.196l-0.43,0.038l-0.02-0.198L65.598,355.109
		z M72.578,355.845c0.305,0.144,0.448,0.27,0.466,0.377v0.089c-0.286,0.02-0.556-0.125-0.808-0.448L72.578,355.845z M63.589,358.052
		c1.221-0.108,3.141-0.682,5.777-1.722l0.664-0.055c1.327-0.107,2.314,0.143,2.979,0.771l0.035,0.395
		c-0.484,1.4-1.022,2.225-1.615,2.476l-2.709,2.189c-2.027,1.327-3.122,1.992-3.301,2.01c-3.229,1.776-5.239,2.69-6.028,2.763
		l-0.108,0.019C59.354,366.52,60.79,363.578,63.589,358.052z M66.513,356.886l0.019,0.107l-0.431,0.036l-0.019-0.107L66.513,356.886
		z M76.291,356.438l0.072,0.825c-0.107,0.197-0.198,0.305-0.306,0.322l-0.125-1.399C76.165,356.258,76.291,356.347,76.291,356.438z
		 M59.732,363.471c-0.144,0.682-0.288,1.04-0.431,1.04v-0.09C59.247,364.099,59.391,363.776,59.732,363.471z M62.44,367.31
		c0.79-0.144,2.961-1.273,6.513-3.408l0.018,0.197c0,0.089-0.286,0.357-0.915,0.788c-1.794,0.898-2.869,1.489-3.192,1.795
		c-1.957,0.683-2.925,1.112-2.907,1.273c-1.741,0.683-2.871,1.185-3.427,1.507c-0.125,0.019-0.323-0.034-0.556-0.161
		c-0.036-0.357,0.125-0.628,0.466-0.843c0.305-0.019,0.592,0.018,0.861,0.125c0.323-0.161,0.879-0.341,1.687-0.556l-0.018-0.197
		l-0.664,0.054c0.072-0.125,0.699-0.412,1.866-0.88l0.323-0.035v0.089c-0.556,0.055-0.861,0.217-0.933,0.503
		c0.018,0.126,0.089,0.198,0.233,0.18C62.243,367.525,62.44,367.364,62.44,367.31L62.44,367.31z M59.085,364.851v0.091
		c0.018,0.144-0.054,0.232-0.197,0.232l-0.018-0.106C58.87,364.978,58.942,364.887,59.085,364.851z M64.181,366.251
		c-0.251,0.018-0.735,0.233-1.453,0.628l-0.108,0.019l-0.018-0.198c0.52-0.054,0.987-0.251,1.346-0.61
		C64.091,366.071,64.163,366.126,64.181,366.251z M58.906,367.722l0.323-0.035l0.018,0.107c-0.072,0-0.18,0.054-0.323,0.125
		l-0.215,0.019C58.69,367.83,58.762,367.759,58.906,367.722z M56.735,368.924l0.215,0.09c-0.071,0.628-0.269,0.951-0.556,0.97
		c-0.251-0.108-0.466-0.162-0.664-0.145l-0.018-0.304c-0.018-0.107,0.054-0.181,0.197-0.216c0.143-0.019,0.215,0.089,0.233,0.287
		C56.501,369.157,56.699,368.924,56.735,368.924L56.735,368.924z M21.551,343.285c-1.22,0.897-2.62,1.777-4.181,2.638l0.018,0.269
		c0.108,0,0.233-0.071,0.413-0.161c0.18-0.019,0.287,0.054,0.287,0.233l0.287-0.16l0.144-0.02l0.018,0.126
		c0.018,0.126-0.969,0.897-2.925,2.279l0.162,0.251l-0.143,0.018l-0.306-0.107c0,0.09-0.125,0.143-0.412,0.161l0.018,0.144
		l0.323,0.359c-0.107,0-0.251-0.019-0.431-0.091c-0.627,0.054-1.255,0.522-1.866,1.383l0.162,0.25
		c0.538-0.484,0.843-0.734,0.933-0.734l0.036,0.394c-0.089,0-0.233,0.072-0.413,0.162l0.341,0.502
		c0.646-0.699,1.346-1.292,2.135-1.776c0.395,0.107,0.592,0.216,0.592,0.358l0.287-0.016c2.1-1.562,4.181-2.675,6.244-3.374
		l0.018,0.269c-0.377,0.574-0.646,0.86-0.79,0.88c0.018,0.196,0.089,0.357,0.197,0.519c0.036,0.36-0.897,2.71-2.799,7.088
		c-4.342,10.154-7.966,17.654-10.89,22.535c0,0.09,0.071,0.232,0.161,0.396c0.718-0.181,1.184-0.342,1.382-0.521l0.161-0.018
		l0.018,0.269l0.269-0.018l0.287-0.161c0,0.09,0.107,0.125,0.287,0.107l0.018,0.27c0.018,0.269-0.126,0.682-0.467,1.238
		c-0.305,0.34-0.61,1.041-0.951,2.098l0.019,0.127l0.269-0.019c1.167-1.31,2.063-2.602,2.674-3.857
		c3.427-1.004,6.028-1.991,7.84-2.96c1.812-0.162,3.211-0.628,4.145-1.417l-0.018-0.145l-0.682,0.198l-0.162,0.018l-0.018-0.144
		c1.328-0.197,2.261-0.503,2.763-0.897c2.602-2.01,4.558-3.427,5.885-4.271c4.109-3.014,6.046-5.92,5.812-8.683
		c-0.018-0.287-0.933-1.418-2.708-3.392c-0.037-0.377,0.592-0.914,1.848-1.633l3.57-3.14c0.79-1.023,1.274-2.673,1.436-4.952
		l-0.054-0.537c-0.144-1.598-1.292-2.889-3.481-3.876c-1.292-0.88-3.606-1.346-6.943-1.399
		C29.625,340.594,26.001,341.562,21.551,343.285L21.551,343.285z M40.785,343.519l-0.108,0.27l-3.983-1.669
		C39.349,342.227,40.713,342.693,40.785,343.519z M24.673,354.57c0.269-1.471,0.575-2.313,0.915-2.512l2.979-6.691
		c-0.037-0.412,0.591-0.735,1.901-0.951l0.43-0.035l0.037,0.377c1.292-0.198,2.081-0.306,2.386-0.342
		c2.369-0.197,3.588,0.27,3.696,1.436l0.269-0.019l-0.054-0.683l0.287-0.017c0.7,0.377,1.076,0.843,1.112,1.4
		c0.036,0.376-0.162,0.842-0.61,1.397c-0.179,0.02-0.287-0.106-0.305-0.377l-0.287,0.02l-0.071,0.808
		c-1.202,1.794-2.063,2.708-2.602,2.762c-0.485,0.665-0.79,1.005-0.915,1.022c-0.376,0.449-1.399,1.222-3.086,2.297
		c-0.556,0.054-2.619,0.843-6.19,2.405c-0.179-0.091-0.359-0.107-0.574-0.091l-0.018-0.251
		C23.938,356.007,24.153,355.36,24.673,354.57z M41.162,346.317l0.018,0.251c-0.144,0.019-0.413-0.412-0.807-1.273l-0.018-0.251
		C40.605,345.008,40.875,345.438,41.162,346.317z M14.967,349.511l0.018,0.127c-0.09,0-0.233,0.07-0.413,0.161l-0.143,0.018
		l-0.018-0.252L14.967,349.511z M23.633,349.296l0.036,0.396c-0.126,0.017-0.305,0.196-0.521,0.573l-0.018-0.27
		c0.251-0.304,0.377-0.538,0.377-0.699H23.633z M22.305,352.095l0.054,0.539l-0.143,0.018l-0.054-0.539L22.305,352.095z
		 M21.964,353.064c-0.036,0.448-0.144,0.682-0.377,0.699l-0.143,0.018c0.161-0.305,0.251-0.521,0.233-0.682L21.964,353.064z
		 M21.372,354.463l0.018,0.126l-0.251,0.431l-0.269,0.019l-0.018-0.125c0.269-0.02,0.395-0.163,0.377-0.431L21.372,354.463z
		 M20.762,355.72l-0.072,0.664l-0.144,0.018l-0.053-0.664L20.762,355.72z M35.312,356.204l0.592,0.358
		c0.019,0.179-0.071,0.286-0.251,0.306c-0.251-0.162-0.448-0.233-0.592-0.233l-0.036-0.396L35.312,356.204z M23.92,357.729
		l0.018,0.252l-0.556,0.054l-0.018-0.252L23.92,357.729z M33.106,358.662c0.395,0.18,0.591,0.358,0.61,0.502l0.018,0.125
		c-0.376,0.037-0.718-0.161-1.041-0.592L33.106,358.662z M21.264,361.568c1.615-0.144,4.163-0.897,7.626-2.261l0.843-0.072
		c1.758-0.143,3.068,0.18,3.929,1.005l0.054,0.538c-0.646,1.866-1.363,2.943-2.135,3.284l-3.588,2.853
		c-2.673,1.758-4.109,2.638-4.324,2.655c-4.252,2.35-6.908,3.553-7.93,3.642l-0.162,0.019
		C15.72,372.728,17.604,368.853,21.264,361.568z M25.14,360.043l0.017,0.125l-0.574,0.055l-0.018-0.126L25.14,360.043z
		 M38.021,359.47l0.09,1.058c-0.126,0.287-0.251,0.431-0.395,0.431l-0.162-1.865C37.86,359.219,38.004,359.344,38.021,359.47
		L38.021,359.47z M16.186,368.727c-0.179,0.915-0.376,1.382-0.574,1.399l-0.018-0.125C15.559,369.535,15.756,369.122,16.186,368.727
		z M19.775,373.787c1.041-0.198,3.894-1.705,8.577-4.486l0.018,0.252c0.018,0.107-0.395,0.448-1.202,1.04
		c-2.386,1.166-3.786,1.974-4.198,2.387c-2.583,0.896-3.858,1.453-3.839,1.669c-2.297,0.914-3.804,1.579-4.522,1.991
		c-0.161,0.018-0.412-0.055-0.735-0.197c-0.036-0.467,0.161-0.844,0.628-1.149c0.395-0.035,0.79,0.019,1.148,0.181
		c0.43-0.216,1.166-0.468,2.225-0.718l-0.018-0.269l-0.843,0.071c0.107-0.144,0.915-0.521,2.458-1.148l0.431-0.036l0.019,0.126
		c-0.718,0.054-1.131,0.287-1.22,0.664c0.018,0.161,0.107,0.251,0.287,0.232C19.506,374.037,19.775,373.841,19.775,373.787z
		 M15.361,370.539l0.018,0.126c0.018,0.18-0.072,0.287-0.251,0.306l-0.018-0.126C15.092,370.684,15.182,370.575,15.361,370.539z
		 M22.072,372.369c-0.341,0.036-0.969,0.305-1.92,0.843l-0.144,0.019l-0.018-0.269c0.682-0.055,1.273-0.322,1.758-0.808
		C21.946,372.118,22.054,372.209,22.072,372.369z M15.11,374.307l0.431-0.035l0.018,0.144c-0.108,0-0.233,0.072-0.413,0.16
		l-0.269,0.02C14.859,374.468,14.931,374.361,15.11,374.307z M12.257,375.904l0.305,0.125c-0.108,0.808-0.341,1.22-0.754,1.256
		c-0.322-0.144-0.609-0.197-0.879-0.18l-0.036-0.395c-0.018-0.161,0.072-0.251,0.27-0.305c0.179-0.018,0.287,0.108,0.305,0.376
		C11.953,376.191,12.222,375.904,12.257,375.904z M91.847,340.647l-0.233-0.089l-3.821,0.592c-0.143-0.072-0.322-0.107-0.52-0.089
		c-0.216,0.017-0.538,0.089-1.023,0.214l-1.848,0.772l0.144,0.232c0.09,0,0.215-0.054,0.376-0.144l0.646,0.054l-0.09,0.61
		c-0.591,0.27-0.951,0.665-1.04,1.185c-0.897,0.396-1.346,0.682-1.346,0.861l0.018,0.108l0.144-0.019l0.251-0.125l0.288,0.339
		l0.035,0.469c0.018,0.142-1.507,3.354-4.558,9.616c-2.637,6.027-4.019,9.329-4.162,9.921c-0.897,0.252-1.435,0.629-1.579,1.112
		c0.018,0.161,0.287,0.251,0.808,0.305l0.019,0.233l-0.234,0.396l0.036,0.466c0.019,0.251,0.682,0.431,1.975,0.574
		c0-0.09,0.035-0.126,0.125-0.144c0.018,0.287-0.054,0.861-0.252,1.723l0.145-0.018c0.538-0.735,0.79-1.237,0.771-1.525l0.108-0.018
		c0.125-0.019,0.269,0.144,0.431,0.466c-0.162,0.072-0.736,1.364-1.705,3.894l0.144,0.233l0.144-0.018
		c1.202-3.032,1.957-4.72,2.262-5.042c1.578-0.143,4.288-0.413,8.163-0.825l0.232-0.144c0,0.09,0.055,0.125,0.145,0.108l0.251-0.019
		l0.233-0.144c0,0.089,0.054,0.126,0.144,0.107l2.924-0.252c0.772-0.07,1.148-0.305,1.112-0.698
		c-0.018-0.108,0.449-0.233,1.383-0.359c0.089,0,0.214,0.018,0.394,0.071c0-0.071,0.448-0.143,1.382-0.232
		c0.018-0.484,0.18-0.754,0.466-0.771l-0.018-0.233c-0.251,0.018-0.556,0.09-0.897,0.197c-0.609-0.036-1.004-0.072-1.166-0.145
		c-0.16,0.091-0.286,0.145-0.377,0.145l-2.045,0.071l-0.251,0.125c0-0.071-0.054-0.106-0.144-0.089l-0.108,0.018l-0.269,0.125
		c0-0.071-0.215-0.125-0.646-0.179l-0.25,0.145l-0.503,0.034l-0.018-0.125c2.619-0.286,3.929-0.646,3.894-1.076
		c0.161-0.018,0.251,0.072,0.269,0.233l0.772-0.197l-0.02-0.233l-6.279,0.18c0,0.09-0.035,0.125-0.125,0.145l-0.771-0.073
		c-0.197,0.019-0.359,0.073-0.484,0.18l-0.288-0.106c-0.789,0.07-1.38,0.16-1.775,0.286c-0.538-0.037-1.13-0.037-1.795,0.018
		l-1.417,0.126l-0.646-0.072c-0.037-0.412,0.771-2.458,2.44-6.137c0.483-1.236,0.933-2.009,1.345-2.296
		c0.091,0,0.216,0.019,0.396,0.09l1.004-0.341l0.521,0.09c0.861-0.071,1.866-0.323,3.014-0.735c0.287-0.019,0.503,0,0.646,0.054
		l0.771-0.18l2.278-0.196c0.969-0.091,2.027-0.306,3.158-0.647l-0.018-0.232c-0.431,0.035-0.646-0.036-0.664-0.198
		c-0.036-0.322-0.342-0.447-0.934-0.395l-0.018-0.233l0.628-0.18l1.65-0.143l-0.018-0.233c-0.071,0-0.395,0-1.022-0.018
		l-0.019-0.252l0.646-0.053c0.16-0.019,0.251-0.108,0.233-0.251c-0.861,0.017-1.292-0.02-1.292-0.127
		c-5.976,0.288-8.953,0.341-8.971,0.161c-0.091,0-0.216,0.054-0.377,0.162l-0.161-0.251c1.578-3.355,2.512-5.059,2.78-5.078
		c0.019,0.126-0.055,0.342-0.196,0.629l0.018,0.107l0.251-0.019c0.627-1.507,1.149-2.277,1.596-2.314
		c1.866-0.16-0.268-0.286,3.751-0.915c0.162,0.072,0.287,0.107,0.358,0.091c1.579-0.323,3.769-0.646,6.585-0.987l-0.019-0.234
		l-1.507,0.145l-0.018-0.232c0.179-0.02,0.323-0.073,0.448-0.18l0.019,0.126c0.09,0,0.196-0.055,0.34-0.163
		c0.252-0.018,0.448,0,0.593,0.072c0.52-0.144,0.934-0.216,1.256-0.252l0.933-0.088c0.233-0.145,0.341-0.27,0.323-0.396v-0.107
		c-0.233,0.018-0.503,0-0.825-0.054c-0.018-0.126,0.055-0.216,0.215-0.251l1.741-0.163l0.808-0.197c0,0.09,0.054,0.127,0.107,0.127
		c0.089,0,0.197-0.054,0.341-0.162c0.412,0.054,0.663,0.072,0.718,0.054c0.322-0.306,0.698-0.557,1.112-0.718
		c-0.181-0.179-0.27-0.322-0.288-0.449l-1.166,0.108c0-0.089-0.054-0.196-0.125-0.358c0-0.107,0.25-0.215,0.789-0.323l0.233,0.089
		l0.215-0.125c0,0.072,0.054,0.108,0.126,0.091l0.216-0.126c0,0.071,0.054,0.107,0.125,0.089l0.108-0.018l-0.019-0.234
		c-0.161,0.02-0.592,0.02-1.273,0l-0.217,0.145l-0.016-0.125c-5.474,0.448-8.577,0.7-9.312,0.771c-0.09,0-0.484,0-1.149-0.018
		c0,0.088-0.071,0.143-0.232,0.143l-0.233-0.108l-0.808,0.198c-0.18,0.019-0.502,0-0.95-0.036c-0.126,0.09-0.27,0.162-0.449,0.18
		c-0.18,0.019,4.342-0.251,4.198-0.322l-0.699,0.197l-0.107,0.018c-0.288,0.018-0.646,0.018-1.077-0.036
		c-0.125,0.09-0.305,0.162-0.574,0.179c-0.179,0.019-0.341-0.017-0.467-0.089C93.39,340.325,92.816,340.468,91.847,340.647
		L91.847,340.647z M92.134,341.366c0,0.089,0.091,0.126,0.233,0.107l0.019,0.232l-0.233,0.019c-0.18,0.019-0.342-0.019-0.467-0.089
		c-0.126,0.107-0.287,0.161-0.448,0.179h0.071l-0.646-0.071l-0.018-0.107C91.434,341.581,91.686,341.492,92.134,341.366z
		 M92.726,341.313l0.126-0.02l0.019,0.233l-0.358,0.035C92.512,341.438,92.564,341.348,92.726,341.313L92.726,341.313z
		 M94.107,341.169l0.019,0.125c-0.269,0.02-0.61,0.09-1.023,0.215l-0.125,0.019l0.107-0.252L94.107,341.169z M83.917,342.334
		l0.395-0.035l-0.019-0.233l-0.394,0.036L83.917,342.334z M86.734,342.083l0.142-0.018l0.271,0.108
		c0.019,0.16-0.072,0.25-0.233,0.25l-0.395,0.037l-0.019-0.127C86.482,342.209,86.572,342.137,86.734,342.083z M95.759,342.604
		v0.106l-0.808,0.073v-0.108L95.759,342.604z M93.444,342.945l0.017,0.125l-0.466,0.036l-0.018-0.126L93.444,342.945z
		 M95.669,343.124l1.614-0.27l0.826,0.037l0.017,0.125c-0.394,0.036-0.734,0.107-1.022,0.215c0-0.09-0.161-0.161-0.484-0.196
		l-1.273,0.358c-0.251-0.145-0.377-0.252-0.377-0.323L95.669,343.124z M94.072,343.483c0.162-0.018,0.233,0.054,0.25,0.215
		l-0.681,0.072l-0.019-0.233L94.072,343.483z M92.655,343.411l0.017,0.126l4.199-0.197l-0.019-0.125L92.655,343.411z
		 M92.905,343.733v0.108l-0.916,0.09v-0.107L92.905,343.733z M86.896,348.489l0.018,0.125l0.27-0.018c0-0.09,0.017-0.215,0.09-0.377
		l-0.02-0.234C87.11,348.005,86.984,348.166,86.896,348.489z M77.655,361.909l0.018,0.106c0.019,0.163-0.071,0.252-0.251,0.271
		l-0.019-0.107C77.386,362.035,77.476,361.963,77.655,361.909z M77.422,362.412c0.019,0.232-0.144,0.807-0.467,1.74l-0.394,0.035
		c-0.02-0.162,0.196-0.735,0.609-1.741L77.422,362.412L77.422,362.412z M81.746,366.161c0.018,0.126-0.198,0.269-0.61,0.412
		l-0.789-0.054l-0.251,0.019l-0.019-0.233L81.746,366.161z M82.517,366.233l0.02,0.107l-0.646,0.054l-0.018-0.107L82.517,366.233z"
		/>
</g>
</svg>
