<?xml version="1.0" encoding="utf-8"?>
<!-- Generator: Adobe Illustrator 16.0.0, SVG Export Plug-In . SVG Version: 6.00 Build 0)  -->
<!DOCTYPE svg PUBLIC "-//W3C//DTD SVG 1.1//EN" "http://www.w3.org/Graphics/SVG/1.1/DTD/svg11.dtd">
<svg version="1.1" id="Layer_1" xmlns="http://www.w3.org/2000/svg" xmlns:xlink="http://www.w3.org/1999/xlink" x="0px" y="0px"
	 width="256px" height="256px" viewBox="0 -20 256 256" enable-background="new 0 -20 256 256" xml:space="preserve">
<g>
	<path fill="#3C6991" d="M110.582,11.009c-4.427,0.082-9.967,2.843-13.93,1.889c-1.582-0.38-3.515-0.544-5.407-0.442
		c-0.034,0.002-0.067-0.002-0.101,0c-1.924,0.114-3.802,0.52-5.186,1.367c-0.057,0.035-0.123,0.067-0.181,0.101
		c-0.055,0.081-0.113,0.153-0.181,0.221c-1.839,1.839-5.906,2.007-7.799,3.899c-1.546,1.545-2.978,4.505-4.684,7.156
		c-0.016,0.025-0.024,0.055-0.04,0.081c-6.068,7.074-10.91,15.779-12.623,22.894c-1.407,5.846-1.388,13.742-3.699,19.558
		c-0.646,1.626-3.325,10.631-1.246,12.382c1.416,1.192,7.453,2.105,9.226,0c0.955-1.133,9.705-3.966,12.442-7.216
		c3.223-3.827,4.886-10.438,7.095-16c0.352-0.885,0.804-1.824,1.327-2.753c1.253,2.428,2.249,4.41,2.774,5.628
		c1.094,2.536,2.297,6.042,3.296,9.789c-2.165,3.317-1.263,7.855,0.302,9.93c-6.332,1.971-3.315,8.783-3.558,9.025
		c-0.417,0.417-1.738,0.974-2.271,1.508c-0.661,0.66-0.764,2.038-0.764,3.035c0,0.962,0.122,1.817,0.302,2.573
		c-5.761,14.492-11.198,32.632-18.07,42.412c-1.978,0.901-4.001,1.677-6.372,2.151c-4.619,1.154-16.294,3.443-26.13,6.753
		c-0.427,0.567-0.924,1.126-1.488,1.688c-0.975,0.975-2.925,0.975-3.899,1.949c-0.758,0.759-3.121-0.094-3.879,0.664
		c-2.249,2.249-5.569,3.418-9.105,5.186c-0.392,0.196-1.649-0.301-1.95,0c-1.606,1.606-4.483,2.533-5.849,3.9
		c-2.674,2.673-4.915,5.578-7.799,8.462c-2.866,2.866,2.979,10.758,3.9,11.679c2.708,2.708,7.683,3.141,10.392,5.849
		c1.14,1.14,4.96-0.384,6.332,0.522c0.354,0.051,0.671,0.115,0.884,0.221c3.99,1.996,11.818,3.471,16.542,5.046
		c6.511,2.171,11.676,7.97,18.392,9.648c5.113,1.278,10.92,1.958,16.081,3.679c2.157,0.719,4.777,0.225,6.874,0.924
		c3.921,1.308,7.462,2.93,11.036,4.121c1.237,0.412,2.873-0.317,4.141,0c2.853,0.713,5.937,0.92,8.724,1.85
		c4.962,1.653,11.581-1.654,16.542,0c3.27,1.09,23.629-0.654,25.266-2.292c1.204-1.204,5.781,0.325,7.357-0.462
		c1.367-0.684,5.52-0.014,6.432-0.926c2.355-2.354,7.188-2.457,10.553-4.141c1.416-0.707,3.597,0.272,5.065-0.462
		c0.845-0.423,2.562,0.098,4.423,0.905c3.541-0.075,6.268-0.443,9.809-0.443c4.21,0,10.021-1.998,16.181-5.024
		c6.815-1.536,15.147-3.308,15.538-3.698c2.961-2.962,10.832-2.109,13.769-5.045c2.08-2.081,4.753-2.925,6.895-5.066
		c1.907-1.907,4.528-4.092,7.276-6.392c0.479-1.333,1.703-2.588,2.834-3.719c0.475-0.474,3.82-10.268,3.217-11.478
		c-1.107-2.215-2.938-4.047-5.046-5.748c-0.653-0.225-1.155-0.452-1.387-0.684c-2.252-2.252-7.647-2.602-9.648-4.604
		c-3.223-3.223-8.068-6.119-13.849-8.061c-1.211-0.6-2.345-1.238-3.156-2.05c-1.029-1.029-6.98-2.345-8.724-3.216
		c-0.938-0.469-2.979,0.258-3.679-0.442c-1.697-1.697-8.811-2.907-13.949-4.542c-0.75,0.047-1.951-0.525-2.172-0.744
		c-0.154-0.154-4.137-0.741-5.447-2.051c-0.148-0.148-0.683-5.485-0.683-6.15c0-0.245-0.595-1.234-0.241-1.588
		c0.055-0.055,0.109-0.12,0.16-0.182c-2.378-14.655-4.196-30.838-5.909-32.281c-2.543-2.142-3.956-13.966-6.753-16.322
		c-2.926-2.463-4.756-5.156-7.016-7.256c-0.002-0.006,0.001-0.014,0-0.02c-0.85-4.672-2.465-9.922-2.975-10.352
		c-0.829-0.698,0.427-3.865-0.402-4.563c-2.58-2.173-5.941-14.947-8.361-16.985c-3.17-2.669-4.729-6.812-7.739-9.347
		c-7.437-6.263-19.79-15.582-33.447-14.875c-0.587-0.166-1.159-0.364-1.708-0.583C112.588,11.106,111.604,10.99,110.582,11.009
		L110.582,11.009z"/>
	<path fill="#E6B35A" stroke="#FFFFFF" stroke-width="1.1795" stroke-opacity="0" d="M107.634,92.112
		c-1.147-0.207-2.269-0.219-3.148,0.073c-1.465,0.486-3.828-0.665-5.357-0.389c-5.785,1.044-10.32,2.611-11.101,4.556
		c8.585-2.461,18.117,3.032,22.021,8.252c1.623,2.17-0.881,5.458,0.003,8.121c0.2,0.603,0.36,4.462-0.335,4.982
		c-1.453,1.087-1.308,4.878-2.51,6.608c-2.827,4.073-5.293,7.049-7.695,10.508c-2.477,3.568-9.099,4.283-12.795,5.51
		c-0.816,0.271-1.845-0.293-2.706-0.007c-0.204,0.067-0.441,0.079-0.677,0.046c0.083,0.094,0.179,0.184,0.248,0.275
		c0.312,0.417,1.832,0.02,2.276,0.328c2.872,1.994,14.237,1.229,17.388,0.184c1.961-0.65,3.779-1.612,5.74-2.263
		c2.515-0.835,4.989-4.745,6.795-6.758c6.211-6.924,9.049-18.915,5.977-28.17c-1.544-4.652-5.586-7.44-9.027-9.829
		C111.555,93.324,109.546,92.457,107.634,92.112L107.634,92.112z"/>
	<path fill="#E6B35A" stroke="#FFFFFF" stroke-width="1.1795" stroke-opacity="0" d="M121.486,83.175
		c-0.37-0.012-0.421,3.608-0.45,5.334c-0.174,0.01-0.166,0.228-0.119,0.474c-1.867,0.829-5.93,2.489-5.619,2.821
		c0.015,0.007,0.016,0.018,0.023,0.023c-0.147,0.008-0.301,0.058-0.308,0.261c-0.015,0.268,0.538,0.015,0.806,0.023
		c0.433,0.015,4.212,1.408,5.714,2.039c0.186,1.428,0.735,2.28,0.735,3.912c0,1.018,0.201,2.418,0.261,2.418
		c0.022,0,0.063-0.031,0.094-0.047c0.044,0.176,0.094,0.281,0.166,0.213c0.295-0.276,0.831-1.018,1.375-1.85
		c0.023-0.036,0.049-0.059,0.071-0.095c0.958-1.187,2.052-2.706,2.987-4.078c1.813,0.264,3.473,0.474,3.888,0.474
		c0.199,0,7.087,1.184,5.097-0.806c-0.12-0.122-0.262-0.225-0.402-0.332c0.044-0.035,0.068-0.071,0.07-0.119
		c0.016-0.384-3.83-2.151-4.457-2.821c-0.303-0.323-0.74-0.53-1.043-0.854c-0.08-0.085,0.07-0.322,0.309-0.664v-0.024
		c0.534-0.59,1.104-1.2,1.517-1.612c0.198-0.197,1.311-2.279,0.255-2.143c-0.713,0.093-3.039,0.24-6.086,1.132
		c0,0-0.823-1.076-0.828-1.073c-0.662-0.271-2.536-2.561-4.057-2.611L121.486,83.175z"/>
	<path fill="#E6B35A" stroke="#FFFFFF" stroke-width="0.8034" stroke-opacity="0" d="M104.281,82.638
		c-0.22,0.106-0.553,0.537-0.658,0.317C103.517,82.736,104.5,82.532,104.281,82.638c-0.655,0.315-3.187,2.597-2.254,3.318
		c0.768,0.593,3.614-0.517,4.822-0.094c0.181,0.063,2.187,3.141,2.501,2.242c0.513-1.467-0.122-3.96-0.106-4.006
		c0.236-0.676,2.089-0.399,2.542-0.617c0.374-0.18,1.133-0.5,1.237-0.799c0.028-0.081,0.049-0.321,0.085-0.244
		c0.031,0.062-0.495-0.447-1.134-0.67c-0.957-0.334-1.925-0.125-2.61-0.364c-0.316-0.11,0.065-1.969-0.05-2.207
		c-0.377-0.781-0.616-1.697-0.55-1.56c0.187,0.388-0.81,0.379-1.073,0.72c-0.328,0.424-1.187,1.862-1.743,1.854
		c-0.666-0.01-3.333-0.645-3.512-0.132C102.423,80.107,104.1,81.767,104.281,82.638L104.281,82.638z"/>
	<path fill="#E6B35A" stroke="#FFFFFF" stroke-width="0.8034" stroke-opacity="0" d="M130.061,108.512
		c-0.178-0.165-0.701-0.318-0.535-0.497C129.691,107.836,130.239,108.678,130.061,108.512c-0.532-0.494-3.58-2.021-3.911-0.889
		c-0.272,0.932,1.798,3.178,1.846,4.456c0.015,0.191-2.128,3.182-1.176,3.146c1.553-0.058,3.644-1.558,3.69-1.56
		c0.717-0.025,1.134,1.801,1.502,2.143c0.305,0.283,0.879,0.873,1.195,0.861c0.087-0.004,0.316-0.073,0.258-0.011
		c-0.047,0.052,0.236-0.624,0.211-1.301c-0.038-1.013-0.585-1.837-0.611-2.563c-0.016-0.334,1.857-0.657,2.036-0.851
		c0.59-0.636,1.356-1.191,1.253-1.081c-0.293,0.316-0.648-0.615-1.062-0.736c-0.515-0.15-2.167-0.426-2.362-0.946
		c-0.234-0.624-0.615-3.338-1.157-3.318C131.742,105.863,130.807,108.026,130.061,108.512L130.061,108.512z"/>
	<path fill="#E6B35A" stroke="#FFFFFF" stroke-opacity="0" d="M188.693,132.557c-0.52,1.786-3.775,7.514-5.146,8.885
		c-1.763,1.762-3.278,3.6-4.824,5.145c-1.095,1.096-4.221,3.9-5.146,4.824c-2.011,2.012-3.188,1.26-5.468,3.538
		c-1.129,1.13-3.402,1.151-4.502,2.251c-0.994,0.995-8.975,1.594-10.935,2.573c-0.475,0.237-1.892-0.36-2.251,0
		c-1.408,1.408-12.534,1.921-12.865,2.251c-1.703,1.703-6.238-0.258-8.684,0.965c-2.168,1.084-6.472,0.322-9.004,0.322
		c-1.402,0-5.128-0.027-8.965-0.121c-0.906-0.128-1.619-0.23-1.648-0.201c-0.019,0.02-0.106,0.109-0.161,0.161
		c-0.721-0.022-1.415-0.052-2.11-0.081c-0.434-0.164-0.893-0.267-1.267-0.08c-0.017,0.009-0.042,0.012-0.06,0.021
		c-2.994-0.146-5.438-0.356-6.05-0.663c-2.517-1.259-5.219-1.608-8.362-1.608c-4.918,0-15.809-5.813-19.618-7.719
		c-0.583-0.292-2.201-1.987-3.075-2.452c-0.007-0.336-0.019-0.643-0.141-0.764c-0.896-0.896-1.289-2.898-1.93-4.182
		c-0.267-0.533,0-2.488,0-2.25c0,0.01,0.646-2.573,0.643-2.573c-0.551,0-3.434,3.755-4.502,4.823c-0.01,0.011,0.02,0.068,0.04,0.121
		c-0.603,0.83-1.025,2.07-1.025,3.939c0,6.375,3.516,6.713,6.814,10.01c0.81,0.811,2.543,0.273,3.176,0.905
		c0.646,0.646,1.594,1.22,2.713,1.729c-1.401,0.821-4.1,1.024-4.985,1.909c-0.865,0.865-4.877,3.354-6.372,4.102
		c-0.281,0.14-1.641,0.293-1.809,0.462c-8.496,8.495-18.084,13.983-25.93,21.829c-0.661,0.66-0.905,9.287-0.905,10.914
		c0,2.842-0.965,5.85,0.905,7.719c0.789,0.789,3.404,0.229,4.101,0.925c0.151,0.151,2.053,1.565,2.271,1.347
		c0.83-0.83-0.462-5.17-0.462-6.352c0-6.211,0.67-12.49,4.562-16.382c7.506-7.507,18.208-10.933,25.005-17.729
		c1.998-1.998,5.659-3.062,8.321-5.246c-0.093,0.641,0.016,1.244,0.482,1.749c0.311,0.336,1.417-0.329,1.809-0.12
		c2.671,1.416,10.81,4.452,13.206,1.527c0.435,0.826,0.779,1.664,1.206,2.09c1.596,1.596,0.348,9.295-0.462,10.915
		c-3.057,6.113-4.668,23.765-7.276,26.372c-0.45,0.45,0.541,4.738,0.905,5.467c0.947,1.896-0.694,6.121,0,6.814
		c0.682,0.682,0.242,2.494,0.924,3.176c0.621,0.621,3.459-0.158,4.081,0.463c0.246,0.246,3.482,2.447,4.101,1.828
		c0.513-0.512-1.403-6.424-1.829-7.275c-0.367-0.734,0.987-14.194,1.367-14.573c0.531-0.53-0.531-2.646,0-3.176
		c1.033-1.033,2.271-22.442,2.271-25.468c0-0.51,1.305-3.699,0.462-4.543c-0.005-0.004-0.754-1.725-1.769-3.396
		c1.5,0.111,2.765,0.292,3.136,0.664c0.667,0.667,14.124,0,16.362,0c8.886,0,22.864-0.689,28.201-1.83
		c2.127-0.455,7.172-0.853,10.01-2.271c1.646-0.823,7.449-1.387,8.463-1.648c2.166-0.558,9.127-2.232,11.074-4.18
		c1.445-1.445,6.383-6.448,8.201-7.357c2.051-1.025,3.08-4.666,4.281-6.352c0.154-1.248,3.514-4.51,2.855-5.829
		C190.356,135.822,189.889,132.674,188.693,132.557L188.693,132.557z"/>
</g>
</svg>
