<?xml version="1.0" encoding="utf-8"?>
<!-- Generator: Adobe Illustrator 16.0.0, SVG Export Plug-In . SVG Version: 6.00 Build 0)  -->
<!DOCTYPE svg PUBLIC "-//W3C//DTD SVG 1.1//EN" "http://www.w3.org/Graphics/SVG/1.1/DTD/svg11.dtd">
<svg version="1.1" id="Layer_1" xmlns="http://www.w3.org/2000/svg" xmlns:xlink="http://www.w3.org/1999/xlink" x="0px" y="0px"
	 width="451px" height="451px" viewBox="0 0 451 451" enable-background="new 0 0 451 451" xml:space="preserve">
<g>
	<path fill="#FEFEFE" d="M44.062,92.406c1.084,0.409,1.909-0.201,2.78-0.686c14.582-8.105,30.075-13.317,46.776-14.633
		c25.038-1.973,48.721,2.448,70.482,15.371c2.542,1.51,4.516,1.912,7.288,0.781c26.274-10.721,53.342-13.307,81.245-7.955
		c101.847,19.535,149.564,139.817,88.712,223.658c-4.558,6.278-9.772,12.01-14.985,18.073c19.76,3.066,44.214,1.171,62.06-4.812
		c32.195-10.794,51.872-33.646,59.146-65.993c5.556-24.706,3.261-50.059-1.815-74.822c-9.593-46.795-31.702-86.81-66.574-119.606
		c-37.272-35.054-81.619-54.75-132.314-60.178C222.368-1.019,198,0.757,174.062,6.529C120.42,19.466,77.063,48.128,44.129,92.463
		c-0.036,0.13-0.073,0.261-0.109,0.391C44.034,92.705,44.048,92.556,44.062,92.406z M408.125,355.902
		c-0.479-0.18-0.65-0.315-0.788-0.286c-3.9,0.804-7.797,1.628-11.695,2.439c-33.971,7.071-67.781,7.021-101.282-2.667
		c-4.131-1.195-7.454-0.859-11.35,0.86c-25.78,11.379-52.743,15.436-80.503,10.321c-57.11-10.521-96.343-43.438-113.5-98.711
		c-17.293-55.716-3.063-105.075,38.295-146.414c0.974-0.973,2.672-1.536,2.442-3.617c-16.164-3.775-32.345-3.67-48.399,0.276
		c-36.604,8.997-59.844,33.015-74.123,66.829c-2.649,6.273-5.376,12.611-6.018,19.478c-2.805,29.994,0.335,59.44,9.209,88.176
		c33.095,107.17,141.97,173.93,252.856,154.7c53.206-9.227,97.471-34.843,132.875-75.639
		C400.446,366.692,404.762,361.69,408.125,355.902z M188.32,112.6c3.903,5.475,7.777,10.448,11.163,15.736
		c14.441,22.559,22.745,47.678,29.579,73.279c7.486,28.047,16.809,55.373,29.936,81.292c5.719,11.29,12.015,22.291,21.316,31.183
		c3.985,3.809,8.871,6.274,14.148,6.846c3.76,0.407,6.021-3.604,8.808-5.849c1.423-1.146,2.884-2.269,4.168-3.561
		c27.454-27.621,40.211-60.652,35.721-99.606c-4.397-38.15-23.653-67.202-55.83-87.757c-16.593-10.599-35.056-16.001-54.562-17.451
		C217.733,105.594,202.96,107.592,188.32,112.6z M106.095,225.494c-0.065,7.225,0.732,14.347,2.077,21.368
		c5.678,29.639,20.401,53.815,44.063,72.594c2.777,2.204,3.408,1.781,4.276-1.52c3.181-12.103,8.01-23.608,13.65-34.757
		c12.088-23.894,24.262-47.744,36.444-71.591c1.177-2.302,1.779-4.301,0.75-7.024c-5.77-15.266-12.16-30.229-20.073-44.528
		c-6.555-11.845-14.927-21.955-26.448-29.362c-2.982-1.918-4.983-1.897-7.78,0.319C122.558,155.164,107.227,186.795,106.095,225.494
		z M215.636,230.24c-9.909,21.474-18.967,42.525-26.274,64.301c-4.23,12.605-6.106,25.508-5.41,38.823
		c0.155,2.969,1.107,4.313,3.932,5.236c15.24,4.982,30.856,6.884,46.783,5.62c9.243-0.732,18.415-2.261,27.333-5.737
		C234.032,307.876,228.426,268.051,215.636,230.24z"/>
	<path fill-rule="evenodd" clip-rule="evenodd" fill="#63B132" d="M408.125,355.902c-3.363,5.788-7.679,10.79-11.979,15.746
		c-35.404,40.796-79.669,66.412-132.875,75.639c-110.887,19.229-219.761-47.53-252.856-154.7
		C1.54,263.852-1.6,234.405,1.205,204.411c0.642-6.866,3.369-13.204,6.018-19.478c14.278-33.814,37.519-57.832,74.123-66.829
		c16.054-3.946,32.235-4.052,48.399-0.276c0.229,2.081-1.469,2.645-2.442,3.617c-41.358,41.339-55.588,90.698-38.295,146.414
		c17.157,55.273,56.39,88.189,113.5,98.711c27.76,5.114,54.723,1.058,80.503-10.321c3.896-1.72,7.219-2.056,11.35-0.86
		c33.501,9.688,67.312,9.738,101.282,2.667c3.898-0.812,7.795-1.636,11.695-2.439C407.475,355.587,407.646,355.723,408.125,355.902z
		"/>
	<path fill-rule="evenodd" clip-rule="evenodd" fill="#5881D7" d="M44.127,92.461C77.063,48.128,120.42,19.466,174.062,6.529
		C198,0.757,222.368-1.019,246.862,1.604c50.695,5.428,95.042,25.124,132.314,60.178c34.872,32.797,56.981,72.812,66.574,119.606
		c5.076,24.764,7.371,50.116,1.815,74.822c-7.274,32.348-26.951,55.199-59.146,65.993c-17.846,5.983-42.3,7.879-62.06,4.812
		c5.213-6.063,10.428-11.795,14.985-18.073c60.853-83.841,13.135-204.123-88.712-223.658c-27.903-5.352-54.971-2.766-81.245,7.955
		c-2.772,1.131-4.746,0.729-7.288-0.781c-21.762-12.923-45.444-17.344-70.482-15.371c-16.701,1.315-32.194,6.527-46.776,14.633
		c-0.872,0.484-1.696,1.095-2.78,0.686L44.127,92.461z"/>
	<path fill-rule="evenodd" clip-rule="evenodd" fill="#90B4FD" d="M188.32,112.6c14.64-5.008,29.413-7.006,44.447-5.888
		c19.506,1.45,37.969,6.853,54.562,17.451c32.177,20.555,51.433,49.606,55.83,87.757c4.49,38.954-8.267,71.985-35.721,99.606
		c-1.284,1.292-2.745,2.415-4.168,3.561c-2.786,2.244-5.048,6.256-8.808,5.849c-5.277-0.571-10.163-3.037-14.148-6.846
		c-9.302-8.892-15.598-19.893-21.316-31.183c-13.127-25.919-22.449-53.245-29.936-81.292c-6.834-25.602-15.138-50.721-29.579-73.279
		C196.098,123.048,192.224,118.074,188.32,112.6z"/>
	<path fill-rule="evenodd" clip-rule="evenodd" fill="#91DB48" d="M106.095,225.494c1.132-38.699,16.463-70.33,46.96-94.501
		c2.797-2.217,4.798-2.237,7.78-0.319c11.521,7.407,19.894,17.518,26.448,29.362c7.913,14.299,14.304,29.263,20.073,44.528
		c1.029,2.724,0.427,4.723-0.75,7.024c-12.183,23.847-24.356,47.697-36.444,71.591c-5.641,11.148-10.47,22.654-13.65,34.757
		c-0.868,3.301-1.499,3.724-4.276,1.52c-23.662-18.778-38.386-42.955-44.063-72.594
		C106.827,239.841,106.029,232.719,106.095,225.494z"/>
	<path fill-rule="evenodd" clip-rule="evenodd" fill="#91DB48" d="M215.636,230.24c12.79,37.811,18.396,77.636,46.363,108.243
		c-8.918,3.477-18.09,5.005-27.333,5.737c-15.927,1.264-31.543-0.638-46.783-5.62c-2.824-0.923-3.776-2.268-3.932-5.236
		c-0.696-13.315,1.18-26.218,5.41-38.823C196.669,272.766,205.727,251.714,215.636,230.24z"/>
	<path fill-rule="evenodd" clip-rule="evenodd" fill="#5881D7" d="M44.062,92.406c-0.014,0.149-0.028,0.299-0.042,0.447
		c0.036-0.13,0.073-0.261,0.108-0.392C44.127,92.461,44.062,92.406,44.062,92.406z"/>
</g>
</svg>
