<?xml version="1.0" encoding="utf-8"?>
<!-- Generator: Adobe Illustrator 16.0.0, SVG Export Plug-In . SVG Version: 6.00 Build 0)  -->
<!DOCTYPE svg PUBLIC "-//W3C//DTD SVG 1.1//EN" "http://www.w3.org/Graphics/SVG/1.1/DTD/svg11.dtd">
<svg version="1.1" id="Layer_1" xmlns="http://www.w3.org/2000/svg" xmlns:xlink="http://www.w3.org/1999/xlink" x="0px" y="0px"
	 width="1000px" height="1000px" viewBox="0 0 1000 1000" enable-background="new 0 0 1000 1000" xml:space="preserve">
<g id="nrGJPc.tif">
	<g>
		<path fill="#FEFEFE" d="M952.5,623c0,124.591-0.021,249.181,0.102,373.771c0.003,3.656-0.815,4.324-4.368,4.321
			C802.989,1000.984,657.744,1001,512.5,1001c0.563-0.303,1.099-0.793,1.693-0.883c17.982-2.711,34.59-8.978,50.333-18.134
			c47.332-27.529,94.839-54.756,142.294-82.073c55.821-32.132,111.587-64.363,167.536-96.271
			c16.257-9.271,32.138-18.843,44.897-32.81c16.053-17.57,26.164-38.054,29.218-61.668c2.028-15.679,1.971-31.525,2.031-47.331
			c0.043-11.498,0.051-22.996,0.201-34.493C950.725,625.802,949.586,623.465,952.5,623z"/>
		<path fill-rule="evenodd" clip-rule="evenodd" fill="#FEFEFE" d="M514.5,1C659,1,803.5,1.017,948,0.906
			c3.749-0.003,4.598,0.845,4.595,4.594C952.479,125,952.5,244.5,952.5,364c-2.733-0.26-1.782-2.426-1.81-3.841
			c-0.371-19.144-0.195-38.286-0.972-57.437c-0.678-16.688-5.225-32.042-12.605-46.762c-10.871-21.68-27.562-37.763-48.343-49.808
			c-27.362-15.857-54.779-31.618-82.182-47.405c-38.219-22.02-76.435-44.043-114.672-66.028
			c-33.189-19.082-66.351-38.215-99.637-57.125c-17.065-9.695-33.728-20.159-51.962-27.699C531.985,4.45,523.157,3.101,514.5,1z"/>
		<path fill-rule="evenodd" clip-rule="evenodd" fill="#FEFEFE" d="M487.5,1001c-144.568,0-289.137-0.015-433.705,0.086
			c-3.474,0.003-4.408-0.549-4.403-4.285C49.528,899.2,49.5,801.601,49.5,704c2.748,0.163,1.722,2.348,1.947,3.774
			c0.595,3.767,0.62,7.68,1.656,11.312c10.918,38.263,31.857,67.693,71.53,80.421c0.728,0.233,1.417,0.59,2.761,1.158
			c-1.914,0.245-3.134,0.401-4.384,0.562c0.292,1.479,1.45,1.598,2.226,2.161c10.384,7.541,23.01,11.001,33.346,18.85
			c7.367,5.594,15.936,9.616,24.015,14.26c39.968,22.968,79.854,46.079,119.981,68.764c13.677,7.731,26.161,17.903,41.933,21.613
			c0.409,0.097,0.789,0.317,1.146,0.464c-0.378,1.263-2.018-0.028-2.336,1.582c27.513,15.748,55.118,31.482,82.653,47.337
			c15.307,8.812,30.664,17.426,48.091,21.512C478.547,998.819,483.231,999.062,487.5,1001z"/>
		<path fill-rule="evenodd" clip-rule="evenodd" fill="#FEFEFE" d="M49.5,315c0-103.265,0.026-206.53-0.106-309.794
			c-0.005-3.718,0.904-4.296,4.395-4.293C198.692,1.015,343.597,1,488.5,1c-5.018,0.863-10.078,1.527-15.044,2.624
			c-17.345,3.833-32.382,12.893-47.553,21.516c-32.689,18.581-65.251,37.386-97.863,56.102c-35.5,20.373-71,40.744-106.494,61.125
			c-36.504,20.962-72.958,42.011-109.518,62.873c-21.406,12.215-37.605,29.348-49.513,50.793
			c-10.216,18.399-12.044,38.45-12.064,58.903C50.136,314.998,49.819,315.02,49.5,315z"/>
		<path fill-rule="evenodd" clip-rule="evenodd" fill="#B2B2B2" d="M50.45,314.936c0.021-20.453,1.848-40.504,12.064-58.903
			c11.908-21.445,28.107-38.578,49.513-50.793c36.561-20.862,73.014-41.911,109.518-62.873
			c35.494-20.381,70.994-40.752,106.494-61.125c32.612-18.716,65.174-37.521,97.863-56.102
			c15.171-8.623,30.208-17.684,47.553-21.516C478.422,2.527,483.482,1.863,488.5,1c8.667,0,17.333,0,26,0
			c8.657,2.101,17.485,3.45,25.818,6.896c18.234,7.54,34.896,18.004,51.962,27.699c33.286,18.911,66.447,38.043,99.637,57.125
			c38.237,21.985,76.453,44.009,114.672,66.028c27.402,15.787,54.819,31.548,82.182,47.405
			c20.781,12.045,37.472,28.128,48.343,49.808c7.381,14.72,11.928,30.074,12.605,46.762c0.776,19.15,0.601,38.293,0.972,57.437
			c0.027,1.415-0.924,3.581,1.81,3.841c0,5.333,0,10.667,0,16c-1.899,1.124-1.097,2.988-1.098,4.518
			c-0.04,72.655-0.038,145.31,0.004,217.964c0,1.529-0.806,3.394,1.094,4.519c0,5.333,0,10.667,0,16
			c-2.914,0.465-1.775,2.802-1.796,4.337c-0.15,11.497-0.158,22.995-0.201,34.493c-0.061,15.806-0.003,31.652-2.031,47.331
			c-3.054,23.614-13.165,44.098-29.218,61.668c-12.76,13.967-28.641,23.538-44.897,32.81
			c-55.949,31.908-111.715,64.14-167.536,96.271c-47.455,27.317-94.962,54.544-142.294,82.073
			c-15.743,9.156-32.351,15.423-50.333,18.134c-0.595,0.09-1.13,0.58-1.693,0.883c-8.333,0-16.667,0-25,0
			c-4.269-1.938-8.953-2.181-13.436-3.231c-17.427-4.086-32.784-12.699-48.091-21.512c-27.535-15.854-55.141-31.589-82.653-47.337
			c0.318-1.61,1.958-0.319,2.336-1.582c-0.356-0.146-0.736-0.367-1.146-0.464c-15.771-3.71-28.256-13.882-41.933-21.613
			c-40.128-22.685-80.014-45.796-119.981-68.764c-8.079-4.644-16.648-8.666-24.015-14.26c-10.336-7.849-22.961-11.309-33.346-18.85
			c-0.776-0.563-1.934-0.683-2.226-2.161c1.25-0.16,2.47-0.316,4.384-0.562c-1.344-0.568-2.033-0.925-2.761-1.158
			c-39.672-12.728-60.612-42.158-71.53-80.421c-1.036-3.632-1.061-7.545-1.656-11.312c-0.225-1.427,0.8-3.611-1.947-3.774
			c0-0.667,0-1.333,0-2c1.761-0.958,1.033-2.622,1.041-4c0.027-4.64-0.068-9.279-0.116-13.919
			c-0.347-5.024,1.269-10.17-0.925-15.081c0-114,0-228,0-342C51.598,323.119,50.132,318.957,50.45,314.936z M937.319,490.691
			c0.747-39.354-1.15-83.322-0.763-127.301c0.181-20.494-0.998-40.951-1.214-61.433c-0.043-4.118-0.666-8.297-1.561-12.329
			c-7.051-31.778-25.391-55.094-53.433-71.202c-52.678-30.26-105.264-60.679-157.942-90.938
			C666.119,95.157,609.816,62.853,553.43,30.694c-34.367-19.599-69.474-20.79-104.089-1.361
			c-58.638,32.913-116.875,66.54-175.218,99.978c-48.376,27.727-96.675,55.588-144.973,83.448
			c-9.788,5.646-19.837,10.864-28.375,18.506c-24.185,21.647-36.664,48.289-36.282,81.062c0.268,22.972-0.832,45.957-0.764,68.935
			c0.237,80.64-0.9,161.282,0.601,241.919c0.477,25.64-0.117,51.279,0.912,76.933c0.987,24.608,11.059,44.854,26.791,62.879
			c5.723,6.558,12.907,11.463,19.813,16.698c6.126,4.645,14.201,5.082,19.976,11.083c4.542,4.721,11.514,7.148,17.504,10.415
			c5.116,2.789,10.308,5.327,15.354,8.351c37.545,22.497,75.665,44.033,113.604,65.871c8.656,4.982,17.318,9.954,25.966,14.949
			c8.504,4.911,17.456,9.211,25.355,14.956c7.413,5.393,16.254,7.467,23.827,12.784c13.43,9.428,28.301,16.814,42.628,24.951
			c19.683,11.178,38.833,23.349,59.212,33.229c21.009,10.186,42.947,14.474,66.268,8.619c15.713-3.945,29.753-11.261,43.618-19.306
			c44.916-26.061,89.953-51.913,134.958-77.821c55.969-32.219,111.858-64.577,167.988-96.515
			c16.021-9.116,31.413-18.791,43.522-32.91c12.572-14.659,19.973-31.744,22.812-50.748c2.17-14.525,1.212-29.243,1.718-43.86
			c1.15-33.288,0.06-66.616,1.036-99.932C937.859,540.997,937.319,518.15,937.319,490.691z"/>
		<path fill-rule="evenodd" clip-rule="evenodd" fill="#FEFEFE" d="M952.5,607c-1.899-1.125-1.094-2.989-1.094-4.519
			c-0.042-72.654-0.044-145.309-0.004-217.964c0.001-1.529-0.802-3.394,1.098-4.518C952.5,455.667,952.5,531.333,952.5,607z"/>
		<path fill-rule="evenodd" clip-rule="evenodd" fill="#FEFEFE" d="M50.425,684.081c0.048,4.64,0.143,9.279,0.116,13.919
			c-0.008,1.378,0.72,3.042-1.041,4c0-6,0-12,0-18C49.81,684.009,50.119,684.035,50.425,684.081z"/>
		<path fill-rule="evenodd" clip-rule="evenodd" fill="#D1D1D1" d="M50.425,684.081c-0.307-0.046-0.615-0.072-0.925-0.081
			c0-5,0-10,0-15C51.694,673.911,50.079,679.057,50.425,684.081z"/>
		<path fill-rule="evenodd" clip-rule="evenodd" fill="#CCCCCC" d="M50.45,314.936c-0.318,4.021,1.148,8.184-0.95,12.064
			c0-4,0-8,0-12C49.819,315.02,50.136,314.998,50.45,314.936z"/>
		<path fill-rule="evenodd" clip-rule="evenodd" fill="#FDFDFD" d="M937.319,490.691c0,27.459,0.54,50.306-0.128,73.116
			c-0.977,33.315,0.114,66.644-1.036,99.932c-0.506,14.617,0.452,29.335-1.718,43.86c-2.839,19.004-10.239,36.089-22.812,50.748
			c-12.109,14.119-27.501,23.794-43.522,32.91c-56.13,31.938-112.02,64.296-167.988,96.515
			c-45.005,25.908-90.042,51.761-134.958,77.821c-13.865,8.045-27.905,15.36-43.618,19.306c-23.32,5.854-45.259,1.566-66.268-8.619
			c-20.379-9.881-39.529-22.052-59.212-33.229c-14.327-8.137-29.198-15.523-42.628-24.951c-7.573-5.317-16.414-7.392-23.827-12.784
			c-7.899-5.745-16.852-10.045-25.355-14.956c-8.647-4.995-17.31-9.967-25.966-14.949c-37.939-21.838-76.06-43.374-113.604-65.871
			c-5.046-3.023-10.238-5.562-15.354-8.351c-5.99-3.267-12.961-5.694-17.504-10.415c-5.774-6.001-13.849-6.438-19.976-11.083
			c-6.906-5.235-14.09-10.141-19.813-16.698c-15.732-18.025-25.804-38.271-26.791-62.879c-1.029-25.653-0.435-51.293-0.912-76.933
			c-1.501-80.637-0.364-161.279-0.601-241.919c-0.067-22.978,1.032-45.963,0.764-68.935c-0.382-32.772,12.097-59.414,36.282-81.062
			c8.537-7.642,18.587-12.86,28.375-18.506c48.298-27.86,96.597-55.722,144.973-83.448c58.343-33.438,116.58-67.065,175.218-99.978
			c34.615-19.429,69.722-18.238,104.089,1.361c56.387,32.158,112.689,64.463,168.978,96.795
			c52.679,30.259,105.265,60.678,157.942,90.938c28.042,16.108,46.382,39.424,53.433,71.202c0.895,4.032,1.518,8.211,1.561,12.329
			c0.216,20.481,1.395,40.938,1.214,61.433C936.169,407.369,938.066,451.337,937.319,490.691z M901.635,732.025
			c3.809-5.122,6.147-10.951,7.89-17.009c3.489-12.129,3.415-24.535,3.354-37.062c-0.201-41.63,0.186-83.264,0.23-124.896
			c0.088-80.942,0.279-161.886-0.031-242.826c-0.057-14.682-3.688-28.925-12.622-41.213c-7.518-13.809-19.27-23.178-32.572-30.852
			C811.934,205.892,756,173.584,699.979,141.43c-53.419-30.662-106.999-61.045-160.383-91.769
			c-18.276-10.519-37.564-12.791-57.86-8.691c-9.927,2.005-18.654,7.064-27.303,12.021
			C345.24,115.565,235.896,177.885,127.092,241.131c-22.885,13.302-36.731,34.03-37.914,62.024
			c-1.077,25.487-1.158,50.979-1.217,76.452c-0.211,89.984,0.13,179.971,0.344,269.955c0.042,17.658-0.048,35.323,1.17,52.963
			c0.778,11.256,4.73,21.29,10.997,30.529c5.246,10.922,13.905,18.751,23.983,24.802c19.251,11.558,38.827,22.574,58.285,33.785
			c62.022,35.734,124.043,71.472,186.086,107.171c31.165,17.933,62.073,36.345,93.666,53.491
			c24.273,13.175,49.585,15.462,74.84,1.525c9.176-5.063,18.562-9.754,27.644-14.979c81.926-47.145,163.832-94.322,245.681-141.601
			c23.055-13.317,46.11-26.639,68.569-40.968C888.889,750.115,896.315,742.097,901.635,732.025z"/>
		<path fill-rule="evenodd" clip-rule="evenodd" fill="#9B4F96" d="M100.473,733.055c-6.267-9.239-10.219-19.273-10.997-30.529
			c-1.218-17.64-1.128-35.305-1.17-52.963c-0.214-89.984-0.555-179.971-0.344-269.955c0.06-25.474,0.141-50.965,1.217-76.452
			c1.183-27.994,15.029-48.723,37.914-62.024C235.896,177.885,345.24,115.565,454.434,52.99
			c8.648-4.957,17.376-10.015,27.303-12.021c20.296-4.1,39.584-1.828,57.86,8.691c53.384,30.724,106.964,61.107,160.383,91.769
			c56.021,32.154,111.954,64.462,167.904,96.739c13.303,7.674,25.055,17.043,32.572,30.852c-1.753,0.942-3.535,1.834-5.255,2.833
			c-21.629,12.569-43.236,25.176-64.875,37.728c-20.493,11.887-40.954,23.83-61.556,35.527
			c-9.479,5.383-18.523,11.562-28.562,15.943c-14.086-22.556-30.222-43.434-50.087-61.269
			c-71.433-64.133-154.642-85.23-247.981-66.19c-61.297,12.505-111.756,44.61-151.145,92.722
			c-58.629,71.611-76.212,153.246-54.783,243.21c5.74,24.098,15.744,46.58,27.596,68.264c-5.49,3.108-11.008,6.172-16.467,9.335
			c-41.797,24.212-83.624,48.373-125.334,72.735C114.746,724.1,106.858,727.371,100.473,733.055z"/>
		<path fill-rule="evenodd" clip-rule="evenodd" fill="#68217A" d="M100.473,733.055c6.386-5.684,14.273-8.955,21.534-13.196
			c41.71-24.362,83.537-48.523,125.334-72.735c5.459-3.163,10.977-6.227,16.466-9.335c12.56,20.313,26.909,39.194,43.94,56.03
			c65.146,64.4,143.678,89.626,233.892,78.704c46.317-5.607,88.017-23.83,125.466-51.699c29.749-22.14,54.248-49.013,73.243-80.881
			c3.465,1.952,6.953,3.865,10.392,5.864c21.636,12.574,43.252,25.18,64.89,37.75c22.21,12.902,44.357,25.918,66.709,38.573
			c6.271,3.551,11.973,8.354,19.297,9.896c-5.319,10.071-12.746,18.09-22.408,24.256c-22.459,14.329-45.515,27.65-68.569,40.968
			c-81.849,47.278-163.755,94.456-245.681,141.601c-9.081,5.226-18.468,9.916-27.644,14.979
			c-25.255,13.937-50.566,11.649-74.84-1.525c-31.593-17.146-62.501-35.559-93.666-53.491
			c-62.043-35.699-124.063-71.437-186.086-107.171c-19.458-11.211-39.034-22.228-58.285-33.785
			C114.378,751.806,105.719,743.977,100.473,733.055z"/>
		<path fill-rule="evenodd" clip-rule="evenodd" fill="#813787" d="M901.635,732.025c-7.324-1.542-13.026-6.345-19.297-9.896
			c-22.352-12.655-44.499-25.671-66.709-38.573c-21.638-12.57-43.254-25.176-64.89-37.75c-3.438-1.999-6.927-3.912-10.392-5.864
			c-0.566-1.608-2.137-2.026-3.392-2.749c-32.424-18.662-64.831-37.354-97.336-55.876c-5.161-2.941-10.1-6.437-15.957-8.044
			c-0.561-1.57-1.993-2.111-3.289-2.855c-15.503-8.915-31.015-17.815-46.485-26.787c-24.492-14.203-48.955-28.458-73.43-42.69
			c9.04-6.196,18.77-11.228,28.233-16.708c24.553-14.216,49.167-28.327,73.612-42.726c6.812-4.012,14.158-7.211,20.194-12.492
			c2.49,0.324,4.523-0.921,6.533-2.043c8.988-5.014,17.968-10.046,26.894-15.169c26.064-14.96,52.127-29.927,78.11-45.026
			c2.374-1.38,5.875-1.944,6.171-5.725c10.04-4.382,19.084-10.561,28.563-15.943c20.602-11.697,41.062-23.641,61.556-35.527
			c21.639-12.552,43.246-25.158,64.875-37.728c1.72-0.999,3.502-1.891,5.255-2.833c8.934,12.288,12.565,26.531,12.622,41.213
			c0.311,80.94,0.119,161.884,0.031,242.826c-0.045,41.632-0.432,83.266-0.23,124.896c0.061,12.526,0.135,24.933-3.354,37.062
			C907.782,721.074,905.443,726.903,901.635,732.025z M826.356,574.004c4.832,0,9.667-0.101,14.494,0.043
			c2.364,0.07,3.313-0.693,3.192-3.114c-0.15-2.991,0.206-6.021-0.092-8.989c-0.403-4.025,0.799-5.87,5.146-5.373
			c2.96,0.339,5.998-0.067,8.987,0.102c2.643,0.149,3.433-0.892,3.399-3.47c-0.121-9.496-0.129-18.995,0.004-28.49
			c0.037-2.683-0.946-3.496-3.489-3.384c-3.492,0.153-7-0.073-10.493,0.066c-2.54,0.103-3.564-0.764-3.532-3.419
			c0.111-9.329,0.119-18.661-0.003-27.99c-0.037-2.772,1.203-3.386,3.627-3.3c3.495,0.123,7.004-0.105,10.494,0.068
			c2.663,0.133,3.422-0.922,3.391-3.481c-0.116-9.495-0.106-18.994-0.004-28.49c0.025-2.344-0.708-3.332-3.107-3.244
			c-3.161,0.117-6.357-0.236-9.489,0.086c-4.128,0.424-5.259-1.348-4.925-5.144c0.262-2.976-0.051-5.997,0.078-8.991
			c0.108-2.522-0.751-3.511-3.423-3.473c-9.495,0.136-18.994,0.133-28.489,0.002c-2.677-0.036-3.503,0.932-3.385,3.488
			c0.161,3.491-0.06,6.999,0.066,10.493c0.09,2.457-0.598,3.635-3.338,3.599c-9.329-0.121-18.662-0.116-27.99-0.003
			c-2.697,0.032-3.479-1.092-3.388-3.582c0.126-3.494-0.087-7.002,0.062-10.494c0.108-2.523-0.667-3.541-3.369-3.503
			c-9.495,0.136-18.994,0.126-28.489,0.004c-2.585-0.032-3.47,0.78-3.491,3.403c-0.036,4.458,1.929,10.188-0.785,13.051
			c-2.969,3.131-8.827,0.891-13.41,0.999c-2.906,0.069-3.17,1.384-3.134,3.698c0.101,6.496,0.035,12.995,0.035,19.493
			c0,11.974,0,11.974,12.199,12.048c0.5,0.003,1.007,0.057,1.498-0.006c2.828-0.363,3.752,0.859,3.709,3.675
			c-0.139,8.995-0.149,17.995,0.005,26.99c0.051,2.968-0.762,4.261-3.915,4.043c-3.316-0.229-6.665,0.06-9.991-0.083
			c-2.445-0.105-3.604,0.491-3.561,3.283c0.147,9.661,0.127,19.327,0.011,28.99c-0.031,2.522,1.031,3.032,3.268,3.073
			c4.465,0.082,10.224-1.894,13.057,0.757c3.127,2.926,0.877,8.822,0.994,13.41c0.072,2.844,1.297,3.243,3.671,3.197
			c5.996-0.115,12,0.103,17.992-0.084c4.421-0.138,10,1.931,12.933-0.955c2.514-2.475,0.499-7.937,0.738-12.07
			c0.01-0.166,0.023-0.336,0-0.499c-0.46-3.203,1.161-3.931,4.058-3.849c5.993,0.167,11.994,0.049,17.993,0.049
			c12.492,0,12.493,0,12.61,12.707c0.004,0.333,0.04,0.672-0.005,0.999c-0.38,2.772,0.677,3.858,3.592,3.723
			C817.019,573.846,821.691,574.005,826.356,574.004z"/>
		<path fill-rule="evenodd" clip-rule="evenodd" fill="#FEFEFE" d="M623.664,573.273c5.856,1.607,10.795,5.103,15.956,8.044
			c32.505,18.521,64.912,37.214,97.336,55.876c1.255,0.723,2.825,1.141,3.392,2.749c-18.995,31.868-43.494,58.741-73.243,80.881
			c-37.449,27.869-79.148,46.092-125.466,51.699c-90.214,10.922-168.746-14.304-233.892-78.704
			c-17.031-16.836-31.381-35.717-43.94-56.03c-11.851-21.684-21.854-44.166-27.595-68.264
			c-21.429-89.964-3.846-171.599,54.783-243.21c39.389-48.111,89.848-80.217,151.145-92.722
			c93.34-19.04,176.549,2.058,247.981,66.19c19.865,17.835,36.001,38.713,50.087,61.269c-0.297,3.78-3.798,4.345-6.172,5.725
			c-25.983,15.1-52.046,30.066-78.11,45.026c-8.926,5.123-17.905,10.155-26.894,15.169c-2.01,1.122-4.043,2.367-6.534,2.043
			c-1.351-1.679-2.784-3.298-4.04-5.045c-25.244-35.087-58.417-56.763-102.23-60.347c-41.759-3.417-78.494,8.52-108.965,37.414
			c-32.392,30.717-46.062,69.01-42.493,113.299c1.564,19.423,7.107,37.876,17.224,54.749c0.342,0.757,0.6,1.568,1.039,2.264
			c35.979,56.884,87.7,75.544,146.985,65.761c36.229-5.979,65.189-25.931,86.749-55.99
			C618.812,578.266,621.027,575.592,623.664,573.273z"/>
		<path fill-rule="evenodd" clip-rule="evenodd" fill="#9B4F96" d="M381.993,569.085c-10.116-16.873-15.659-35.326-17.224-54.749
			c-3.568-44.289,10.102-82.582,42.493-113.299c30.471-28.895,67.206-40.831,108.965-37.414
			c43.813,3.584,76.986,25.26,102.23,60.347c1.256,1.747,2.689,3.366,4.04,5.045c-6.035,5.281-13.382,8.48-20.193,12.492
			c-24.445,14.398-49.06,28.51-73.612,42.726c-9.464,5.48-19.193,10.512-28.233,16.709c-25.549,14.732-51.089,29.479-76.649,44.19
			C409.888,553.146,395.933,561.103,381.993,569.085z"/>
		<path fill-rule="evenodd" clip-rule="evenodd" fill="#68217A" d="M381.993,569.085c13.939-7.982,27.895-15.939,41.816-23.953
			c25.561-14.712,51.101-29.458,76.649-44.19c24.475,14.231,48.938,28.486,73.43,42.689c15.471,8.972,30.982,17.872,46.485,26.787
			c1.296,0.744,2.729,1.285,3.289,2.855c-2.636,2.318-4.851,4.992-6.896,7.846c-21.56,30.06-50.521,50.012-86.749,55.99
			c-59.285,9.783-111.006-8.877-146.985-65.761C382.593,570.653,382.335,569.842,381.993,569.085z"/>
		<path fill-rule="evenodd" clip-rule="evenodd" fill="#FCFBFC" d="M826.356,574.005c-4.665,0-9.338-0.159-13.993,0.059
			c-2.915,0.136-3.972-0.95-3.592-3.723c0.045-0.327,0.009-0.666,0.005-0.999c-0.117-12.707-0.118-12.707-12.61-12.707
			c-5.999,0-12,0.118-17.993-0.049c-2.896-0.082-4.518,0.646-4.058,3.849c0.023,0.163,0.01,0.333,0,0.499
			c-0.239,4.134,1.775,9.596-0.738,12.07c-2.933,2.886-8.512,0.817-12.933,0.955c-5.992,0.187-11.996-0.031-17.992,0.084
			c-2.374,0.046-3.599-0.354-3.671-3.197c-0.117-4.588,2.133-10.484-0.994-13.41c-2.833-2.65-8.592-0.675-13.057-0.757
			c-2.236-0.041-3.299-0.551-3.268-3.073c0.116-9.663,0.137-19.329-0.011-28.99c-0.043-2.792,1.115-3.389,3.561-3.283
			c3.326,0.143,6.675-0.146,9.991,0.083c3.153,0.218,3.966-1.075,3.915-4.043c-0.154-8.995-0.144-17.995-0.005-26.99
			c0.043-2.815-0.881-4.038-3.709-3.675c-0.491,0.062-0.998,0.009-1.498,0.006c-12.199-0.074-12.199-0.074-12.199-12.048
			c0-6.498,0.065-12.997-0.035-19.493c-0.036-2.314,0.228-3.629,3.134-3.698c4.583-0.108,10.441,2.132,13.41-0.999
			c2.714-2.862,0.749-8.593,0.785-13.051c0.021-2.623,0.906-3.436,3.491-3.403c9.495,0.122,18.994,0.132,28.489-0.004
			c2.702-0.038,3.478,0.979,3.369,3.503c-0.149,3.492,0.063,7-0.062,10.494c-0.091,2.49,0.69,3.614,3.388,3.582
			c9.328-0.113,18.661-0.118,27.99,0.003c2.74,0.036,3.428-1.142,3.338-3.599c-0.126-3.494,0.095-7.002-0.066-10.493
			c-0.118-2.557,0.708-3.524,3.385-3.488c9.495,0.131,18.994,0.134,28.489-0.002c2.672-0.038,3.531,0.95,3.423,3.473
			c-0.129,2.994,0.184,6.016-0.078,8.991c-0.334,3.796,0.797,5.567,4.925,5.144c3.132-0.322,6.328,0.031,9.489-0.086
			c2.399-0.088,3.133,0.9,3.107,3.244c-0.103,9.496-0.112,18.995,0.004,28.49c0.031,2.56-0.728,3.614-3.391,3.481
			c-3.49-0.174-6.999,0.055-10.494-0.068c-2.424-0.086-3.664,0.527-3.627,3.3c0.122,9.329,0.114,18.661,0.003,27.99
			c-0.032,2.655,0.992,3.521,3.532,3.419c3.493-0.14,7.001,0.087,10.493-0.066c2.543-0.112,3.526,0.701,3.489,3.384
			c-0.133,9.495-0.125,18.994-0.004,28.49c0.033,2.578-0.757,3.619-3.399,3.47c-2.989-0.169-6.027,0.237-8.987-0.102
			c-4.348-0.497-5.55,1.348-5.146,5.373c0.298,2.969-0.059,5.998,0.092,8.989c0.121,2.421-0.828,3.185-3.192,3.114
			C836.023,573.903,831.188,574.004,826.356,574.005z M808.772,504.083c0-4.66-0.118-9.324,0.046-13.978
			c0.093-2.626-0.854-3.465-3.447-3.433c-9.317,0.118-18.639,0.122-27.957,0c-2.722-0.035-3.355,1.111-3.33,3.569
			c0.094,9.152,0.12,18.307-0.013,27.458c-0.041,2.822,0.923,3.754,3.731,3.711c8.817-0.137,17.646-0.261,26.456,0.047
			c3.973,0.139,4.804-1.371,4.578-4.897C808.572,512.417,808.775,508.243,808.772,504.083z"/>
		<path fill-rule="evenodd" clip-rule="evenodd" fill="#803786" d="M808.773,504.083c0.002,4.16-0.201,8.334,0.063,12.478
			c0.226,3.526-0.605,5.036-4.578,4.897c-8.81-0.308-17.639-0.184-26.456-0.047c-2.809,0.043-3.772-0.889-3.731-3.711
			c0.133-9.151,0.106-18.306,0.013-27.458c-0.025-2.458,0.608-3.604,3.33-3.569c9.318,0.122,18.64,0.118,27.957,0
			c2.593-0.032,3.54,0.807,3.447,3.433C808.654,494.759,808.772,499.423,808.773,504.083z"/>
	</g>
</g>
</svg>
