<?xml version="1.0" encoding="utf-8"?>
<!-- Generator: Adobe Illustrator 16.0.0, SVG Export Plug-In . SVG Version: 6.00 Build 0)  -->
<!DOCTYPE svg PUBLIC "-//W3C//DTD SVG 1.1//EN" "http://www.w3.org/Graphics/SVG/1.1/DTD/svg11.dtd">
<svg version="1.1" id="Layer_1" xmlns="http://www.w3.org/2000/svg" xmlns:xlink="http://www.w3.org/1999/xlink" x="0px" y="0px"
	 width="1000px" height="1000px" viewBox="0 0 1000 1000" enable-background="new 0 0 1000 1000" xml:space="preserve">
<g id="nrGJPc.tif">
	<g>
		<path fill="#B2B2B2" d="M49.513,314.813c0.021-20.453,1.848-40.504,12.064-58.903c11.908-21.445,28.107-38.578,49.513-50.793
			c36.561-20.862,281.186-161.519,313.875-180.1c15.171-8.623,30.208-17.684,47.553-21.516c4.967-1.097,10.027-1.761,15.045-2.624
			c8.667,0,17.333,0,26,0c8.656,2.101,17.484,3.45,25.818,6.896c18.232,7.54,228.051,128.833,266.27,150.852
			c27.402,15.787,54.82,31.548,82.184,47.405c20.779,12.045,37.471,28.128,48.342,49.808c7.381,14.72,11.928,30.074,12.605,46.762
			c0.775,19.15,0.781,390.761-1.246,406.44c-3.055,23.614-13.166,44.098-29.219,61.668c-12.76,13.967-28.641,23.538-44.896,32.81
			c-55.949,31.908-111.715,64.141-167.535,96.271c-47.455,27.316-94.963,54.544-142.295,82.073
			c-15.742,9.155-32.352,15.423-50.332,18.134c-0.596,0.09-35.647-1.298-40.129-2.349c-17.428-4.086-32.784-12.698-48.092-21.512
			c-27.535-15.854-290.353-165.329-300.738-172.87c-0.477-0.346-28.404-12.011-48.625-34.228c-5.464-6.002-12.025-12.219-16-19.333
			c-1.414-2.529-5.77-24.648-7.508-30.741c-1.036-3.632-1.061-7.545-1.656-11.312c-0.225-1.428-1.947-266.774-1.947-380.774
			C50.661,322.996,49.195,318.834,49.513,314.813z M934.152,487.488c0.748-39.354-1.15-83.322-0.764-127.301
			c0.182-20.494-0.998-40.951-1.213-61.433c-0.043-4.118-0.666-8.297-1.561-12.329c-7.051-31.778-25.393-55.094-53.434-71.202
			c-52.678-30.26-105.264-60.679-157.941-90.938C662.953,91.954,606.65,59.65,550.264,27.491
			C515.896,7.892,480.79,6.701,446.174,26.13c-58.638,32.913-116.875,66.54-175.218,99.978
			c-48.376,27.727-96.675,55.588-144.973,83.448c-9.788,5.646-19.837,10.864-28.375,18.506
			c-24.185,21.647-36.664,48.289-36.282,81.062c0.268,22.972-0.832,45.957-0.764,68.935c0.237,80.64-0.9,161.282,0.601,241.918
			c0.477,25.641-0.117,51.279,0.912,76.934c0.339,8.458,1.383,23.166,9.424,38.72c2.132,4.124,2.914,8.781,6.5,12.833
			c3.846,4.346,9.461,12.394,14,16.5c21.702,19.633,51.36,31.495,54.16,33.022c5.116,2.789,91.019,52.384,128.958,74.222
			c8.656,4.981,17.318,9.954,25.966,14.949c8.504,4.911,17.456,9.211,25.355,14.956c7.412,5.393,16.254,7.467,23.826,12.783
			c13.431,9.429,28.302,16.814,42.628,24.951c19.684,11.178,38.833,23.35,59.212,33.229c21.01,10.186,42.947,14.474,66.268,8.619
			c15.713-3.945,29.754-11.262,43.619-19.307c44.916-26.061,89.953-51.913,134.957-77.82
			c55.969-32.22,111.857-64.577,167.988-96.516c16.021-9.116,31.412-18.791,43.521-32.91c12.572-14.658,19.973-31.743,22.812-50.748
			c2.17-14.524,1.213-29.242,1.719-43.859c1.148-33.288,0.059-66.616,1.035-99.933C934.693,537.794,934.152,514.947,934.152,487.488
			z"/>
		<path fill="#CCCCCC" d="M50.45,309.4c-0.318,4.021,1.148,8.184-0.95,12.064c0-4,0-8,0-12
			C49.819,309.484,50.136,309.462,50.45,309.4z"/>
		<path fill="#FDFDFD" d="M934.437,702.062c-2.839,19.005-10.238,36.089-22.812,50.748
			c-12.109,14.119-155.542,97.206-211.51,129.425c-45.005,25.908-90.042,51.762-134.958,77.821
			c-13.865,8.045-27.905,15.36-43.618,19.306c-23.32,5.854-45.259,1.566-66.268-8.618c-20.38-9.882-39.529-22.053-59.213-33.229
			c-14.326-8.137-29.197-15.522-42.628-24.951c-7.572-5.316-16.414-7.392-23.827-12.783c-7.898-5.745-16.852-10.046-25.354-14.956
			c-8.647-4.995-17.31-9.968-25.966-14.949c-37.939-21.838-76.06-43.374-113.604-65.871c-5.046-3.023-10.238-5.562-15.354-8.352
			c-5.99-3.267-83.097-76.467-84.084-101.074c-1.029-25.653-0.435-51.293-0.912-76.934c-1.501-80.637-0.364-161.278-0.601-241.919
			c-0.067-22.978,1.032-45.963,0.764-68.935c-0.382-32.772,12.097-59.414,36.282-81.062c8.537-7.642,18.587-12.86,28.375-18.506
			c48.298-27.86,96.597-55.722,144.973-83.448c58.343-33.438,116.58-67.065,175.218-99.978
			c34.615-19.429,69.723-18.238,104.089,1.361c56.388,32.158,274.243,157.473,326.92,187.733
			c28.042,16.108,46.383,39.424,53.434,71.202c0.895,4.032,1.518,8.211,1.561,12.329
			C935.559,316.903,936.607,687.538,934.437,702.062z M901.635,726.489c3.81-5.122,6.147-10.951,7.891-17.01
			c3.488-12.129,3.415-24.534,3.354-37.062c-0.201-41.63,0.187-83.264,0.23-124.896c0.088-80.941,0.278-161.886-0.031-242.826
			c-0.057-14.682-3.688-28.925-12.622-41.213c-7.519-13.809-19.271-23.178-32.572-30.852
			c-55.95-32.275-111.884-64.583-167.905-96.737C646.56,105.232,592.98,74.849,539.596,44.125
			c-18.275-10.519-37.563-12.791-57.859-8.691c-9.928,2.005-18.654,7.064-27.304,12.021
			c-109.192,62.574-218.537,124.894-327.341,188.14c-22.885,13.302-36.731,34.03-37.914,62.024
			c-1.077,25.487-1.158,50.979-1.217,76.452c-0.211,89.984,0.13,179.971,0.344,269.956c0.042,17.657-0.048,35.322,1.17,52.963
			c0.778,11.256,4.73,21.29,10.997,30.528c5.246,10.922,13.905,18.751,23.983,24.803c19.251,11.558,38.827,22.573,58.285,33.784
			c62.022,35.734,124.043,71.473,186.086,107.172c31.165,17.933,62.073,36.345,93.666,53.49
			c24.272,13.176,49.585,15.462,74.84,1.525c9.176-5.063,18.562-9.754,27.644-14.979c81.927-47.145,163.832-94.321,245.682-141.601
			c23.055-13.317,46.109-26.639,68.568-40.968C888.889,744.579,896.315,736.561,901.635,726.489z"/>
		<path fill="#9B4F96" d="M100.473,727.519c-6.267-9.238-10.219-19.272-10.997-30.528c-1.218-17.641-1.128-35.306-1.17-52.964
			c-0.214-89.983-0.555-179.971-0.344-269.955c0.06-25.474,0.141-50.965,1.217-76.452c1.183-27.994,15.029-48.723,37.914-62.024
			C235.896,172.349,345.24,110.029,454.434,47.454c8.648-4.957,17.376-10.015,27.304-12.021c20.296-4.1,39.584-1.828,57.859,8.691
			c53.384,30.724,106.964,61.107,160.384,91.769c56.021,32.154,111.953,64.462,167.903,96.739
			c13.303,7.674,25.056,17.043,32.572,30.852c-1.753,0.942-3.535,1.834-5.255,2.833c-21.629,12.569-43.236,25.176-64.875,37.728
			c-20.493,11.887-40.954,23.83-61.557,35.527c-9.479,5.383-18.522,11.562-28.562,15.943
			c-14.086-22.556-30.222-43.434-50.087-61.269c-71.433-64.133-154.643-85.23-247.981-66.19
			c-61.297,12.505-111.756,44.61-151.145,92.722c-58.629,71.611-76.212,153.246-54.783,243.21
			c5.74,24.098,15.744,46.579,27.596,68.264c-5.49,3.107-11.008,6.172-16.467,9.335c-41.797,24.212-83.624,48.373-125.334,72.735
			C114.746,718.563,106.858,721.835,100.473,727.519z"/>
		<path fill="#68217A" d="M100.473,727.519c6.386-5.684,14.273-8.955,21.534-13.195c41.71-24.362,83.537-48.523,125.334-72.735
			c5.459-3.163,10.977-6.227,16.466-9.335c12.56,20.312,26.909,39.194,43.94,56.03c65.146,64.399,143.678,89.626,233.892,78.704
			c46.317-5.607,88.018-23.83,125.467-51.699c29.749-22.141,54.248-49.014,73.242-80.881c3.466,1.951,6.953,3.864,10.393,5.863
			c21.636,12.574,43.252,25.181,64.89,37.75c22.21,12.902,44.357,25.918,66.709,38.573c6.271,3.551,11.974,8.354,19.297,9.896
			c-5.318,10.07-12.746,18.09-22.407,24.256c-22.459,14.329-45.516,27.649-68.569,40.968
			c-81.849,47.278-163.755,94.456-245.681,141.601c-9.081,5.227-18.469,9.916-27.645,14.979
			c-25.255,13.937-50.566,11.648-74.84-1.525c-31.593-17.146-62.501-35.559-93.666-53.49
			c-62.043-35.699-124.063-71.438-186.086-107.172c-19.458-11.211-39.034-22.228-58.285-33.784
			C114.378,746.27,105.719,738.44,100.473,727.519z"/>
		<path fill="#813787" d="M901.635,726.489c-7.324-1.542-13.025-6.346-19.297-9.896c-22.352-12.655-44.499-25.671-66.709-38.573
			c-21.638-12.569-43.254-25.176-64.89-37.75c-3.438-1.999-6.927-3.911-10.393-5.863c-0.565-1.608-2.137-2.026-3.392-2.749
			c-32.424-18.662-64.831-37.354-97.336-55.876c-5.161-2.941-10.101-6.438-15.957-8.044c-0.562-1.57-1.993-2.111-3.289-2.855
			c-15.503-8.915-31.015-17.814-46.485-26.787c-24.491-14.203-48.955-28.458-73.43-42.689c9.04-6.196,18.771-11.229,28.233-16.708
			c24.553-14.217,49.167-28.327,73.611-42.727c6.812-4.012,14.158-7.211,20.194-12.492c2.49,0.324,4.522-0.921,6.533-2.043
			c8.987-5.014,17.968-10.046,26.894-15.169c26.064-14.96,52.127-29.927,78.11-45.026c2.374-1.38,5.875-1.944,6.171-5.725
			c10.04-4.382,19.084-10.561,28.562-15.943c20.603-11.697,41.062-23.641,61.557-35.527c21.639-12.552,43.246-25.158,64.875-37.728
			c1.72-0.999,3.502-1.891,5.255-2.833c8.934,12.288,12.564,26.531,12.622,41.213c0.311,80.94,0.119,161.884,0.031,242.826
			c-0.045,41.633-0.433,83.267-0.23,124.896c0.061,12.526,0.135,24.933-3.354,37.062
			C907.782,715.538,905.443,721.367,901.635,726.489z M826.356,568.468c4.831,0,9.667-0.101,14.493,0.043
			c2.364,0.07,3.313-0.692,3.192-3.114c-0.15-2.99,0.206-6.021-0.092-8.988c-0.403-4.025,0.799-5.87,5.146-5.373
			c2.96,0.339,5.998-0.067,8.987,0.102c2.644,0.149,3.433-0.892,3.399-3.47c-0.121-9.496-0.129-18.995,0.004-28.49
			c0.037-2.683-0.946-3.496-3.489-3.384c-3.492,0.153-7-0.073-10.493,0.066c-2.54,0.103-3.563-0.765-3.532-3.419
			c0.111-9.329,0.119-18.661-0.003-27.99c-0.037-2.772,1.203-3.387,3.627-3.3c3.495,0.122,7.005-0.105,10.494,0.067
			c2.663,0.133,3.422-0.922,3.392-3.48c-0.116-9.495-0.106-18.994-0.004-28.49c0.024-2.344-0.708-3.332-3.107-3.244
			c-3.161,0.117-6.357-0.236-9.489,0.086c-4.128,0.424-5.259-1.348-4.925-5.144c0.262-2.977-0.051-5.997,0.078-8.991
			c0.108-2.522-0.751-3.511-3.423-3.473c-9.495,0.136-18.994,0.133-28.489,0.002c-2.677-0.036-3.503,0.932-3.385,3.487
			c0.161,3.491-0.061,6.999,0.065,10.493c0.091,2.457-0.598,3.635-3.338,3.6c-9.329-0.121-18.662-0.116-27.99-0.004
			c-2.696,0.032-3.479-1.092-3.388-3.582c0.126-3.493-0.087-7.002,0.062-10.493c0.107-2.523-0.667-3.541-3.369-3.503
			c-9.495,0.136-18.994,0.126-28.489,0.004c-2.585-0.032-3.47,0.779-3.491,3.402c-0.036,4.458,1.93,10.188-0.785,13.052
			c-2.969,3.131-8.826,0.891-13.409,0.999c-2.906,0.068-3.17,1.384-3.135,3.697c0.102,6.496,0.035,12.995,0.035,19.493
			c0,11.975,0,11.975,12.199,12.048c0.5,0.003,1.007,0.058,1.498-0.006c2.828-0.363,3.752,0.859,3.709,3.675
			c-0.139,8.995-0.149,17.995,0.005,26.99c0.051,2.968-0.762,4.261-3.915,4.043c-3.315-0.229-6.665,0.061-9.991-0.083
			c-2.444-0.104-3.604,0.491-3.561,3.283c0.146,9.661,0.127,19.327,0.011,28.99c-0.031,2.521,1.031,3.031,3.269,3.072
			c4.465,0.082,10.224-1.894,13.057,0.758c3.127,2.926,0.877,8.821,0.994,13.41c0.072,2.844,1.297,3.242,3.671,3.196
			c5.996-0.114,12,0.104,17.992-0.084c4.421-0.138,10,1.932,12.933-0.955c2.514-2.475,0.499-7.937,0.738-12.069
			c0.01-0.166,0.022-0.336,0-0.499c-0.46-3.203,1.161-3.932,4.058-3.85c5.993,0.167,11.994,0.049,17.993,0.049
			c12.492,0,12.493,0,12.61,12.707c0.004,0.333,0.04,0.673-0.006,0.999c-0.38,2.772,0.678,3.858,3.593,3.724
			C817.019,568.31,821.691,568.469,826.356,568.468z"/>
		<path fill="#FEFEFE" d="M623.664,567.737c5.855,1.606,10.795,5.103,15.956,8.044c32.505,18.521,64.912,37.214,97.336,55.876
			c1.255,0.723,2.825,1.141,3.392,2.749c-18.994,31.867-43.494,58.74-73.242,80.881c-37.449,27.869-79.148,46.092-125.467,51.698
			c-90.214,10.923-168.746-14.304-233.892-78.703c-17.031-16.836-31.381-35.718-43.94-56.03
			c-11.851-21.685-21.854-44.166-27.595-68.264c-21.429-89.965-3.846-171.6,54.783-243.21
			c39.389-48.111,89.848-80.217,151.145-92.722c93.341-19.04,176.55,2.058,247.981,66.19c19.865,17.835,36.001,38.713,50.087,61.269
			c-0.297,3.78-3.798,4.345-6.172,5.725c-25.983,15.1-52.046,30.066-78.11,45.026c-8.926,5.123-17.904,10.155-26.894,15.169
			c-2.01,1.122-4.043,2.367-6.534,2.043c-1.351-1.679-2.784-3.298-4.04-5.045c-25.244-35.087-58.417-56.763-102.229-60.347
			c-41.76-3.417-78.494,8.52-108.966,37.414c-32.392,30.717-46.062,69.01-42.492,113.299c1.563,19.423,7.106,37.876,17.224,54.749
			c0.342,0.757,0.6,1.568,1.039,2.264c35.979,56.885,87.7,75.544,146.984,65.762c36.229-5.979,65.189-25.932,86.75-55.99
			C618.812,572.729,621.027,570.056,623.664,567.737z"/>
		<path fill="#9B4F96" d="M381.993,563.549c-10.116-16.873-15.659-35.326-17.225-54.749c-3.567-44.289,10.103-82.582,42.493-113.299
			c30.472-28.895,67.206-40.831,108.965-37.414c43.813,3.584,76.986,25.26,102.23,60.347c1.256,1.747,2.689,3.366,4.04,5.045
			c-6.035,5.281-13.382,8.48-20.193,12.492c-24.444,14.398-49.06,28.51-73.611,42.727c-9.464,5.479-19.193,10.512-28.233,16.709
			c-25.549,14.731-51.089,29.479-76.649,44.189C409.888,547.61,395.933,555.567,381.993,563.549z"/>
		<path fill="#68217A" d="M381.993,563.549c13.938-7.981,27.895-15.938,41.815-23.953c25.562-14.712,51.102-29.458,76.649-44.189
			c24.475,14.23,48.938,28.485,73.43,42.688c15.472,8.973,30.982,17.872,46.485,26.787c1.296,0.744,2.729,1.285,3.289,2.855
			c-2.636,2.317-4.852,4.991-6.896,7.846c-21.56,30.06-50.521,50.012-86.749,55.99c-59.284,9.782-111.006-8.877-146.984-65.762
			C382.593,565.117,382.335,564.306,381.993,563.549z"/>
		<path fill="#FCFBFC" d="M826.356,568.469c-4.665,0-9.339-0.159-13.993,0.06c-2.915,0.136-3.973-0.95-3.592-3.724
			c0.045-0.327,0.009-0.666,0.005-0.999c-0.117-12.707-0.118-12.707-12.61-12.707c-5.999,0-12,0.118-17.993-0.049
			c-2.896-0.082-4.518,0.646-4.058,3.849c0.022,0.163,0.01,0.333,0,0.499c-0.239,4.135,1.775,9.597-0.738,12.07
			c-2.933,2.886-8.512,0.817-12.933,0.955c-5.992,0.188-11.996-0.031-17.992,0.084c-2.374,0.046-3.599-0.354-3.671-3.197
			c-0.117-4.588,2.133-10.483-0.994-13.41c-2.833-2.649-8.592-0.675-13.057-0.757c-2.236-0.041-3.3-0.551-3.269-3.072
			c0.116-9.663,0.138-19.329-0.011-28.99c-0.043-2.792,1.115-3.39,3.561-3.283c3.326,0.143,6.676-0.146,9.991,0.083
			c3.153,0.218,3.966-1.075,3.915-4.043c-0.154-8.995-0.144-17.995-0.005-26.99c0.043-2.814-0.881-4.038-3.709-3.675
			c-0.491,0.062-0.998,0.009-1.498,0.006c-12.199-0.074-12.199-0.074-12.199-12.048c0-6.498,0.065-12.997-0.034-19.493
			c-0.036-2.313,0.228-3.629,3.134-3.698c4.583-0.107,10.44,2.133,13.409-0.999c2.715-2.861,0.75-8.593,0.785-13.051
			c0.021-2.623,0.906-3.436,3.491-3.402c9.495,0.121,18.994,0.132,28.489-0.005c2.702-0.037,3.478,0.979,3.369,3.504
			c-0.149,3.491,0.062,7-0.062,10.493c-0.091,2.49,0.69,3.614,3.389,3.582c9.327-0.112,18.66-0.118,27.989,0.003
			c2.74,0.036,3.429-1.142,3.338-3.599c-0.126-3.494,0.096-7.002-0.065-10.493c-0.118-2.557,0.708-3.523,3.385-3.488
			c9.495,0.132,18.994,0.135,28.489-0.002c2.672-0.038,3.531,0.95,3.423,3.474c-0.129,2.994,0.184,6.016-0.078,8.991
			c-0.334,3.796,0.797,5.566,4.925,5.144c3.132-0.322,6.328,0.031,9.489-0.086c2.399-0.088,3.133,0.899,3.107,3.244
			c-0.104,9.496-0.112,18.995,0.004,28.489c0.031,2.561-0.729,3.614-3.392,3.481c-3.489-0.174-6.999,0.055-10.493-0.068
			c-2.425-0.086-3.664,0.527-3.628,3.301c0.122,9.329,0.114,18.66,0.003,27.989c-0.031,2.655,0.992,3.521,3.532,3.419
			c3.493-0.14,7.001,0.087,10.493-0.065c2.543-0.112,3.526,0.701,3.489,3.384c-0.133,9.495-0.125,18.994-0.004,28.49
			c0.032,2.578-0.757,3.619-3.399,3.47c-2.989-0.169-6.027,0.237-8.987-0.102c-4.348-0.497-5.55,1.348-5.146,5.373
			c0.298,2.969-0.059,5.998,0.092,8.988c0.121,2.421-0.828,3.186-3.191,3.114C836.023,568.367,831.188,568.468,826.356,568.469z
			 M808.771,498.547c0-4.66-0.117-9.324,0.047-13.978c0.093-2.627-0.854-3.466-3.447-3.434c-9.317,0.118-18.639,0.122-27.957,0
			c-2.722-0.035-3.355,1.111-3.33,3.569c0.094,9.151,0.12,18.307-0.013,27.458c-0.041,2.822,0.923,3.754,3.73,3.711
			c8.817-0.137,17.646-0.261,26.456,0.047c3.973,0.139,4.804-1.371,4.578-4.897C808.572,506.881,808.775,502.707,808.771,498.547z"
			/>
		<path fill="#803786" d="M808.773,498.547c0.002,4.16-0.201,8.334,0.062,12.478c0.227,3.526-0.604,5.036-4.578,4.897
			c-8.81-0.308-17.639-0.184-26.456-0.047c-2.809,0.043-3.771-0.889-3.73-3.711c0.133-9.151,0.105-18.307,0.013-27.458
			c-0.025-2.458,0.608-3.604,3.33-3.569c9.318,0.122,18.64,0.118,27.957,0c2.593-0.032,3.54,0.808,3.447,3.434
			C808.654,489.223,808.771,493.887,808.773,498.547z"/>
	</g>
</g>
</svg>
