<?xml version="1.0" encoding="utf-8"?>
<!-- Generator: Adobe Illustrator 16.0.0, SVG Export Plug-In . SVG Version: 6.00 Build 0)  -->
<!DOCTYPE svg PUBLIC "-//W3C//DTD SVG 1.1//EN" "http://www.w3.org/Graphics/SVG/1.1/DTD/svg11.dtd">
<svg version="1.1" id="Layer_1" xmlns="http://www.w3.org/2000/svg" xmlns:xlink="http://www.w3.org/1999/xlink" x="0px" y="0px"
	 width="400px" height="400px" viewBox="-29 40 400 400" enable-background="new -29 40 400 400" xml:space="preserve">
<g id="_x23_0170baff">
	<path fill="#0170BA" d="M0,58.511c113.92-0.009,227.83-0.02,341.75,0c-6.27,69.378-12.44,138.757-18.97,208.115
		c-3.88,44.329-7.88,88.658-12.101,132.959c-24.31,6.307-48.38,13.493-72.68,19.829c-22.32,6.414-44.82,12.221-67.15,18.586h-0.66
		c-21.25-6.189-42.71-11.633-63.96-17.822c-25.08-6.619-49.94-14.003-75.03-20.593c-3.27-33.205-6.22-66.431-9.13-99.655
		c-5.49-61.388-11.46-122.736-16.74-184.134C3.5,97.317,2.19,78.781,0,60.342V58.511 M171.41,85.88
		c-0.24,13.327,0.18,26.665-0.24,39.982c-39.08-0.137-78.17-0.03-117.25,0.01c0.67,12.936,2.44,25.783,4.26,38.611
		c36.36,1.322,72.77-0.049,109.13,1.019c-31.81,13.974-64.01,27.134-95.96,40.814c-2.74,1.194-5.67,2.095-8.12,3.839
		c0.27,14.208,2.61,28.338,3.64,42.518c19.38-0.068,38.75-0.373,58.13-0.401c15.53-0.078,31.07,0.226,46.6-0.107
		c-0.74,23.364,0.23,46.758-0.5,70.122c-10.45-1.519-20.77-3.8-31.18-5.611c-8.21-1.752-16.62-2.663-24.71-4.965
		c-1.15-11.212-1.95-22.463-2.97-33.686c-2.34-0.704-4.82-0.636-7.24-0.676c-11.74,0.069-23.49-0.038-35.24,0.138
		c1.15,21.571,3.13,43.114,6.5,64.481c11.58,2.958,23.18,5.856,34.74,8.941c17.71,4.719,35.64,8.646,53.38,13.287
		c2.11,0.441,4.24,1.205,6.43,1.028c1.18,14.189,0.27,28.467,0.49,42.694c4.091-0.646,8.11-1.635,12.06-2.83
		c33.58-8.931,67.121-18.026,100.681-27.046c1.67-12.926,2.45-25.94,3.771-38.895c3.489-39.385,7.01-78.77,10.67-118.144
		c4.289-45.045,8-90.138,12.319-135.182C264.33,85.861,217.87,85.733,171.41,85.88z"/>
</g>
<g id="_x23_29a9dfff">
	<path fill="#29A9DF" d="M171.41,85.88c46.46-0.147,92.92-0.02,139.39-0.059c-4.319,45.044-8.03,90.137-12.319,135.182
		c-3.66,39.374-7.181,78.759-10.67,118.144c-1.32,12.954-2.101,25.969-3.771,38.895c-33.56,9.02-67.101,18.115-100.681,27.046
		c-3.949,1.195-7.969,2.185-12.06,2.83c-0.22-14.228,0.69-28.505-0.49-42.694c0.3-0.059,0.911-0.176,1.209-0.234
		c31.23-7.678,62.25-16.128,93.41-24.08c3.94-43.281,8.311-86.543,11.08-129.914c-26.5,0.138-53.01,0.059-79.51,0.167
		c-3.859,0.02-7.721,0-11.561-0.273c14.261-7.188,29.261-12.887,43.9-19.301c14.051-6.237,28.27-12.083,42.37-18.204
		c2.72-1.224,5.62-2.242,8.011-4.063c0.939-3.378,0.889-6.914,1.26-10.371c0.81-10.967,2.25-21.875,2.789-32.853
		c-37.529-0.293-75.06-0.04-112.6-0.235C171.59,112.545,171.17,99.208,171.41,85.88z"/>
	<path fill="#29A9DF" d="M171.6,252.163c18.121-0.304,36.25,0.176,54.381,0.058c-1.01,18.146-2.551,36.262-3.51,54.406
		c-11.111,3.556-22.391,6.561-33.591,9.852c-5.97,1.782-12.101,3.192-17.78,5.807C171.83,298.921,170.86,275.527,171.6,252.163z"/>
</g>
<g id="_x23_cfcfcfff">
	<path fill="#CFCFCF" d="M53.92,125.872c39.08-0.04,78.17-0.147,117.25-0.01c0.51,42.106-0.13,84.213,0.43,126.301
		c-15.53,0.333-31.07,0.029-46.6,0.107c-19.38,0.028-38.75,0.333-58.13,0.401c-1.03-14.18-3.37-28.31-3.64-42.518
		c2.45-1.744,5.38-2.645,8.12-3.839c31.95-13.68,64.15-26.84,95.96-40.814c-36.36-1.068-72.77,0.303-109.13-1.019
		C56.36,151.655,54.59,138.808,53.92,125.872z"/>
	<path fill="#CFCFCF" d="M69.76,277.485c11.75-0.176,23.5-0.068,35.24-0.138c2.42,0.04,4.9-0.028,7.24,0.676
		c1.02,11.223,1.82,22.474,2.97,33.686c8.09,2.302,16.5,3.213,24.71,4.965c10.41,1.812,20.73,4.093,31.18,5.611
		c1,14.218-0.75,28.535,0.919,42.704c-0.299,0.059-0.91,0.176-1.209,0.234c-2.19,0.177-4.32-0.587-6.43-1.028
		c-17.74-4.642-35.67-8.568-53.38-13.287c-11.56-3.085-23.16-5.983-34.74-8.941C72.89,320.6,70.91,299.057,69.76,277.485z"/>
</g>
<g id="_x23_ffffffff">
	<path fill="#FFFFFF" d="M171.17,125.862c37.54,0.195,75.07-0.059,112.6,0.235c-0.539,10.977-1.979,21.886-2.789,32.853
		c-0.371,3.457-0.32,6.992-1.26,10.371c-2.391,1.821-5.291,2.839-8.011,4.063c-14.101,6.12-28.319,11.966-42.37,18.204
		c-14.64,6.415-29.64,12.114-43.9,19.301c3.84,0.273,7.701,0.293,11.561,0.273c26.5-0.107,53.01-0.029,79.51-0.167
		c-2.77,43.371-7.14,86.632-11.08,129.914c-31.16,7.952-62.18,16.402-93.41,24.08c-1.669-14.169,0.08-28.486-0.919-42.704
		c5.679-2.614,11.81-4.024,17.78-5.807c11.2-3.291,22.479-6.296,33.591-9.852c0.959-18.145,2.5-36.26,3.51-54.406
		c-18.131,0.118-36.26-0.361-54.381-0.058C171.04,210.076,171.68,167.969,171.17,125.862z"/>
</g>
</svg>
