<?xml version="1.0" encoding="utf-8"?>
<!-- Generator: Adobe Illustrator 16.0.0, SVG Export Plug-In . SVG Version: 6.00 Build 0)  -->
<!DOCTYPE svg PUBLIC "-//W3C//DTD SVG 1.1//EN" "http://www.w3.org/Graphics/SVG/1.1/DTD/svg11.dtd">
<svg version="1.1" id="Layer_1" xmlns="http://www.w3.org/2000/svg" xmlns:xlink="http://www.w3.org/1999/xlink" x="0px" y="0px"
	 width="420px" height="420px" viewBox="-10 -10 420 420" enable-background="new -10 -10 420 420" xml:space="preserve">
<g id="_x23_0170baff">
	<path fill="#0170BA" d="M29,27.511c113.92-0.009,227.83-0.02,341.75,0c-6.27,69.378-12.44,138.757-18.97,208.115
		c-3.88,44.329-7.88,88.658-12.102,132.959c-24.31,6.307-48.38,13.493-72.68,19.829C244.68,394.828,222.18,400.635,199.85,407h-0.66
		c-21.25-6.189-42.71-11.633-63.96-17.822c-25.08-6.619-49.94-14.003-75.03-20.593c-3.27-33.205-6.22-66.431-9.13-99.655
		c-5.49-61.388-11.46-122.736-16.74-184.134C32.5,66.317,31.19,47.781,29,29.342V27.511 M200.41,54.88
		c-0.24,13.327,0.18,26.665-0.24,39.982c-39.08-0.137-78.17-0.03-117.25,0.01c0.67,12.936,2.44,25.783,4.26,38.611
		c36.36,1.322,72.77-0.049,109.13,1.019c-31.81,13.974-64.01,27.134-95.96,40.814c-2.74,1.193-5.67,2.095-8.12,3.838
		c0.27,14.209,2.61,28.339,3.64,42.519c19.38-0.067,38.75-0.373,58.13-0.401c15.53-0.078,31.07,0.227,46.6-0.106
		c-0.74,23.364,0.23,46.758-0.5,70.122c-10.45-1.52-20.77-3.801-31.18-5.611c-8.21-1.752-16.62-2.662-24.71-4.965
		c-1.15-11.212-1.95-22.463-2.97-33.686c-2.34-0.705-4.82-0.637-7.24-0.676c-11.74,0.068-23.49-0.039-35.24,0.137
		c1.15,21.572,3.13,43.115,6.5,64.481c11.58,2.958,23.18,5.856,34.74,8.941c17.71,4.719,35.64,8.646,53.38,13.286
		c2.11,0.441,4.24,1.205,6.431,1.029c1.18,14.188,0.27,28.467,0.489,42.693c4.091-0.646,8.11-1.635,12.06-2.83
		c33.58-8.931,67.121-18.025,100.682-27.046c1.67-12.926,2.45-25.94,3.771-38.896c3.488-39.385,7.01-78.77,10.67-118.144
		c4.289-45.045,8-90.138,12.318-135.182C293.33,54.861,246.87,54.733,200.41,54.88z"/>
</g>
<g id="_x23_29a9dfff">
	<path fill="#29A9DF" d="M200.41,54.88c46.46-0.147,92.92-0.02,139.39-0.059c-4.318,45.044-8.03,90.137-12.319,135.182
		c-3.66,39.374-7.181,78.759-10.67,118.144c-1.319,12.955-2.101,25.97-3.771,38.896c-33.56,9.021-67.101,18.115-100.681,27.046
		c-3.949,1.195-7.969,2.186-12.061,2.83c-0.22-14.229,0.689-28.505-0.49-42.693c0.301-0.06,0.911-0.177,1.209-0.234
		c31.23-7.678,62.25-16.129,93.41-24.08c3.94-43.281,8.311-86.543,11.08-129.914c-26.5,0.138-53.01,0.059-79.51,0.167
		c-3.859,0.021-7.721,0-11.561-0.272c14.26-7.188,29.26-12.888,43.899-19.302c14.051-6.237,28.271-12.083,42.37-18.204
		c2.72-1.224,5.62-2.242,8.011-4.063c0.938-3.378,0.89-6.914,1.261-10.371c0.81-10.967,2.25-21.875,2.789-32.853
		c-37.529-0.293-75.061-0.04-112.601-0.235C200.59,81.545,200.17,68.208,200.41,54.88z"/>
	<path fill="#29A9DF" d="M200.6,221.163c18.121-0.304,36.25,0.176,54.381,0.058c-1.01,18.146-2.551,36.262-3.51,54.406
		c-11.111,3.557-22.391,6.561-33.591,9.852c-5.97,1.782-12.101,3.192-17.78,5.808C200.83,267.921,199.859,244.527,200.6,221.163z"/>
</g>
<g id="_x23_cfcfcfff">
	<path fill="#CFCFCF" d="M82.92,94.872c39.08-0.04,78.17-0.147,117.25-0.01c0.51,42.106-0.13,84.213,0.43,126.301
		c-15.53,0.333-31.07,0.028-46.6,0.106c-19.38,0.028-38.75,0.334-58.13,0.401c-1.03-14.18-3.37-28.31-3.64-42.519
		c2.45-1.743,5.38-2.645,8.12-3.838c31.95-13.681,64.15-26.84,95.96-40.814c-36.36-1.068-72.77,0.303-109.13-1.019
		C85.36,120.655,83.59,107.808,82.92,94.872z"/>
	<path fill="#CFCFCF" d="M98.76,246.484c11.75-0.176,23.5-0.067,35.24-0.137c2.42,0.039,4.9-0.029,7.24,0.676
		c1.02,11.223,1.82,22.474,2.97,33.686c8.09,2.302,16.5,3.213,24.71,4.965c10.41,1.812,20.73,4.094,31.18,5.611
		c1,14.218-0.75,28.535,0.92,42.703c-0.299,0.06-0.91,0.177-1.209,0.234c-2.19,0.178-4.32-0.587-6.431-1.027
		c-17.74-4.643-35.67-8.568-53.38-13.287c-11.56-3.085-23.16-5.983-34.74-8.941C101.89,289.6,99.91,268.057,98.76,246.484z"/>
</g>
<g id="_x23_ffffffff">
	<path fill="#FFFFFF" d="M200.17,94.862c37.54,0.195,75.07-0.059,112.6,0.235c-0.539,10.977-1.979,21.886-2.789,32.853
		c-0.371,3.457-0.319,6.992-1.26,10.371c-2.391,1.821-5.291,2.839-8.011,4.063c-14.101,6.12-28.319,11.966-42.37,18.204
		c-14.64,6.415-29.64,12.114-43.9,19.301c3.84,0.273,7.701,0.293,11.562,0.273c26.5-0.107,53.011-0.029,79.511-0.167
		c-2.771,43.371-7.141,86.632-11.08,129.914c-31.16,7.952-62.181,16.401-93.41,24.079c-1.67-14.168,0.08-28.485-0.92-42.703
		c5.68-2.614,11.811-4.024,17.78-5.807c11.2-3.291,22.479-6.297,33.591-9.853c0.959-18.146,2.5-36.26,3.51-54.406
		c-18.131,0.118-36.26-0.36-54.381-0.058C200.04,179.076,200.68,136.969,200.17,94.862z"/>
</g>
</svg>
