<?xml version="1.0" encoding="utf-8"?>
<!-- Generator: Adobe Illustrator 16.0.0, SVG Export Plug-In . SVG Version: 6.00 Build 0)  -->
<!DOCTYPE svg PUBLIC "-//W3C//DTD SVG 1.1//EN" "http://www.w3.org/Graphics/SVG/1.1/DTD/svg11.dtd">
<svg version="1.1" id="Layer_1" xmlns="http://www.w3.org/2000/svg" xmlns:xlink="http://www.w3.org/1999/xlink" x="0px" y="0px"
	 width="2186px" height="2186px" viewBox="304.997 -385.676 2186 2186" enable-background="new 304.997 -385.676 2186 2186"
	 xml:space="preserve">
<g>
	<path fill="#364548" d="M1440.312,446.797h223.301v228.271h112.9c52.148,0,105.771-9.287,155.146-26.016
		c24.268-8.232,51.494-19.678,75.43-34.082c-31.523-41.152-47.617-93.115-52.344-144.336
		c-6.445-69.678,7.617-160.361,54.766-214.893l23.477-27.148l27.969,22.49c70.42,56.572,129.648,135.635,140.088,225.762
		c84.795-24.941,184.355-19.043,259.092,24.092l30.664,17.695l-16.133,31.504c-63.213,123.359-195.371,161.582-324.57,154.814
		c-193.33,481.533-614.238,709.502-1124.58,709.502c-263.672,0-505.566-98.564-643.32-332.49l-2.256-3.809l-20.068-40.84
		c-46.562-102.969-62.031-215.771-51.543-328.486l3.154-33.76h190.957V446.797h223.291V223.496h446.611V0.195h267.969V446.797"/>
	<path fill="#22A0C8" d="M2163.77,531.25c14.971-116.367-72.109-207.764-126.113-251.162
		c-62.236,71.953-71.904,260.527,25.732,339.922c-54.492,48.398-169.307,92.266-286.875,92.266H345.41
		C333.984,835,355.527,948.018,404.736,1044.746l16.279,29.785c10.308,17.482,21.571,34.383,33.74,50.625
		c58.838,3.779,113.086,5.078,162.715,3.984h0.02c97.529-2.148,177.109-13.672,237.422-34.57c9.069-2.82,18.708,2.244,21.528,11.313
		c2.693,8.66-1.8,17.923-10.269,21.167c-8.027,2.793-16.387,5.391-25.02,7.861h-0.029c-47.49,13.564-98.418,22.686-164.121,26.738
		c3.906,0.068-4.062,0.586-4.082,0.586c-2.236,0.146-5.049,0.469-7.295,0.586c-25.859,1.455-53.77,1.758-82.305,1.758
		c-31.211,0-61.943-0.586-96.309-2.344l-0.879,0.586c119.238,134.023,305.684,214.404,539.395,214.404
		c494.609,0,914.141-219.258,1099.922-711.494c131.797,13.525,258.467-20.088,316.084-132.568
		C2349.756,480.205,2231.729,497.09,2163.77,531.25"/>
	<path fill="#37B1D9" d="M2163.77,531.25c14.971-116.367-72.109-207.764-126.113-251.162
		c-62.236,71.953-71.904,260.527,25.732,339.922c-54.492,48.398-169.307,92.266-286.875,92.266H430.156
		c-5.84,187.949,63.906,330.615,187.305,416.865h0.029c97.529-2.148,177.109-13.672,237.422-34.57
		c9.069-2.82,18.708,2.244,21.528,11.313c2.693,8.66-1.8,17.923-10.269,21.167c-8.027,2.793-16.387,5.391-25.02,7.861h-0.029
		c-47.49,13.564-102.793,23.857-168.496,27.91c-0.02,0-1.592-1.514-1.611-1.514c168.33,86.348,412.402,86.035,692.236-21.455
		c313.77-120.547,605.752-350.195,809.473-612.861C2169.658,528.379,2166.67,529.795,2163.77,531.25"/>
	<path fill="#1B81A5" d="M348.096,861.387c8.887,65.742,28.125,127.295,56.641,183.359l16.279,29.785
		c10.306,17.483,21.57,34.384,33.74,50.625c58.848,3.779,113.096,5.078,162.734,3.984c97.529-2.148,177.109-13.672,237.422-34.57
		c9.069-2.82,18.708,2.244,21.528,11.313c2.693,8.66-1.8,17.923-10.269,21.167c-8.027,2.793-16.387,5.391-25.02,7.861h-0.029
		c-47.49,13.564-102.5,23.271-168.203,27.334c-2.256,0.137-6.191,0.166-8.467,0.293c-25.84,1.445-53.467,2.334-82.012,2.334
		c-31.201,0-63.115-0.596-97.461-2.344c119.238,134.023,306.836,214.697,540.547,214.697c423.438,0,791.836-160.723,1005.654-515.84
		H348.096"/>
	<path fill="#1D91B4" d="M443.037,861.387c25.312,115.43,86.143,206.045,174.453,267.754c97.529-2.148,177.109-13.672,237.422-34.57
		c9.069-2.82,18.708,2.244,21.528,11.313c2.693,8.66-1.8,17.923-10.269,21.167c-8.027,2.793-16.387,5.391-25.02,7.861h-0.029
		c-47.49,13.564-103.662,23.271-169.375,27.334c168.32,86.328,411.689,85.088,691.504-22.393
		c169.277-65.039,332.197-161.855,478.359-278.467H443.037"/>
	<path fill="#23A3C2" d="M539.648,484.014h193.535v193.535H539.648V484.014z M555.771,500.146h15.273v161.279h-15.273V500.146z
		 M584.482,500.146h15.889v161.279h-15.879V500.146H584.482z M613.799,500.146h15.889v161.279h-15.889V500.146z M643.135,500.146
		h15.879v161.279h-15.879V500.146z M672.461,500.146h15.879v161.279h-15.879V500.146L672.461,500.146z M701.777,500.146h15.283
		v161.279h-15.283V500.146z M762.949,260.713h193.545v193.525H762.939V260.713H762.949z M779.082,276.846h15.264v161.27h-15.264
		V276.846z M807.793,276.846h15.879v161.27h-15.869v-161.27H807.793z M837.109,276.846h15.879v161.27h-15.879V276.846z
		 M866.436,276.846h15.879v161.27h-15.879V276.846z M895.762,276.846h15.889v161.27h-15.889V276.846z M925.078,276.846h15.293
		v161.27h-15.293V276.846z"/>
	<path fill="#34BBDE" d="M762.949,484.014h193.545v193.535H762.939V484.014H762.949z M779.082,500.146h15.264v161.279h-15.264
		V500.146z M807.793,500.146h15.879v161.279h-15.869V500.146H807.793z M837.109,500.146h15.879v161.279h-15.879V500.146z
		 M866.436,500.146h15.879v161.279h-15.879V500.146z M895.762,500.146h15.889v161.279h-15.889V500.146z M925.078,500.146h15.293
		v161.279h-15.293V500.146z"/>
	<path fill="#23A3C2" d="M986.26,484.014h193.535v193.535H986.26V484.014z M1002.383,500.146h15.264v161.279h-15.264V500.146z
		 M1031.094,500.146h15.879v161.279h-15.879V500.146z M1060.42,500.146h15.879v161.279h-15.879V500.146z M1089.746,500.146h15.879
		v161.279h-15.879V500.146z M1119.062,500.146h15.898v161.279h-15.898V500.146z M1148.389,500.146h15.273v161.279h-15.273V500.146z"
		/>
	<path fill="#34BBDE" d="M986.26,260.713h193.535v193.525H986.26V260.713z M1002.383,276.846h15.264v161.27h-15.264V276.846z
		 M1031.094,276.846h15.879v161.27h-15.879V276.846z M1060.42,276.846h15.879v161.27h-15.879V276.846z M1089.746,276.846h15.879
		v161.27h-15.879V276.846z M1119.062,276.846h15.898v161.27h-15.898V276.846z M1148.389,276.846h15.273v161.27h-15.273V276.846z
		 M1209.561,484.014h193.535v193.535h-193.535V484.014z M1225.693,500.146h15.264v161.279h-15.264V500.146z M1254.404,500.146
		h15.879v161.279h-15.879V500.146z M1283.721,500.146h15.879v161.279h-15.879V500.146z M1313.047,500.146h15.889v161.279h-15.889
		V500.146z M1342.373,500.146h15.889v161.279h-15.889V500.146z M1371.699,500.146h15.273v161.279h-15.273V500.146z"/>
	<path fill="#23A3C2" d="M1209.561,260.713h193.535v193.525h-193.535V260.713z M1225.693,276.846h15.264v161.27h-15.264V276.846z
		 M1254.404,276.846h15.879v161.27h-15.879V276.846z M1283.721,276.846h15.879v161.27h-15.879V276.846z M1313.047,276.846h15.889
		v161.27h-15.889V276.846z M1342.373,276.846h15.889v161.27h-15.889V276.846z M1371.699,276.846h15.273v161.27h-15.273V276.846z"/>
	<path fill="#34BBDE" d="M1209.561,37.402h193.535v193.555h-193.535V37.402z M1225.693,53.525h15.264v161.289h-15.264V53.516V53.525
		z M1254.404,53.525h15.879v161.289h-15.879V53.516V53.525z M1283.721,53.525h15.879v161.289h-15.879V53.516V53.525z
		 M1313.047,53.525h15.889v161.289h-15.889V53.516V53.525z M1342.373,53.525h15.889v161.289h-15.889V53.516V53.525z
		 M1371.699,53.525h15.273v161.289h-15.273V53.516V53.525z"/>
	<path fill="#23A3C2" d="M1432.861,484.014h193.535v193.535h-193.535V484.014z M1448.975,500.146h15.283v161.279h-15.273V500.146
		H1448.975z M1477.686,500.146h15.889v161.279h-15.879V500.146H1477.686z M1507.021,500.146h15.889v161.279h-15.889V500.146z
		 M1536.338,500.146h15.889v161.279h-15.889V500.146z M1565.674,500.146h15.879v161.279h-15.879V500.146z M1594.99,500.146h15.273
		v161.279h-15.273V500.146z"/>
	<path fill="#D3ECEC" d="M944.375,991.328c29.488-0.391,53.711,23.197,54.102,52.686s-23.197,53.711-52.686,54.102
		c-0.479,0.007-0.957,0.007-1.436,0c-29.488-0.398-53.07-24.627-52.672-54.115C892.075,1015.066,915.441,991.708,944.375,991.328"/>
	<path fill="#364548" d="M944.375,1006.475c4.883,0,9.541,0.918,13.838,2.588c-7.454,4.327-9.988,13.877-5.661,21.331
		c2.785,4.797,7.907,7.756,13.454,7.771c5.908,0,11.035-3.271,13.691-8.115c8.096,19.502-1.151,41.873-20.652,49.969
		c-19.502,8.096-41.874-1.15-49.97-20.652c-8.095-19.502,1.151-41.873,20.653-49.969
		C934.371,1007.469,939.349,1006.477,944.375,1006.475"/>
	<path fill="#BDD9D7" d="M1086.299,1376.074c-132.227-62.744-204.795-148.047-245.176-241.152
		c-49.121,14.014-108.154,22.979-176.758,26.826c-25.84,1.445-53.027,2.188-81.543,2.188c-32.891,0-67.549-0.977-103.936-2.9
		c121.26,121.191,270.43,214.492,546.641,216.191C1045.918,1377.227,1066.152,1376.836,1086.299,1376.074"/>
	<path fill="#D3ECEC" d="M890.234,1220.84c-18.291-24.834-36.035-56.045-49.082-85.938
		c-49.121,14.033-108.174,22.998-176.787,26.855c47.129,25.576,114.521,49.277,225.879,59.082"/>
</g>
</svg>
