<?xml version="1.0" encoding="utf-8"?>
<!-- Generator: Adobe Illustrator 16.0.0, SVG Export Plug-In . SVG Version: 6.00 Build 0)  -->
<!DOCTYPE svg PUBLIC "-//W3C//DTD SVG 1.1//EN" "http://www.w3.org/Graphics/SVG/1.1/DTD/svg11.dtd">
<svg version="1.1" id="Layer_1" xmlns="http://www.w3.org/2000/svg" xmlns:xlink="http://www.w3.org/1999/xlink" x="0px" y="0px"
	 width="263px" height="263px" viewBox="-3.5 0 263 263" enable-background="new -3.5 0 263 263" xml:space="preserve">
<g>
	<path fill="#3A33D1" d="M100.034,262.105L0.598,172.57L28.449,41.694L155.627,0.354l99.435,89.536l-27.851,130.876L100.034,262.105
		L100.034,262.105z M51.948,155.926l59.292,53.308l75.827-24.696l16.646-78.003l-59.291-53.417L68.593,77.922L51.948,155.926
		L51.948,155.926z"/>
	<path fill="#6464E2" d="M181.301,223.92H74.359l-53.525-92.69l53.525-92.69h106.942l53.525,92.69L181.301,223.92L181.301,223.92z
		 M93.18,191.283h69.301l34.704-60.054L162.48,71.177H93.18l-34.596,60.053L93.18,191.283L93.18,191.283z"/>
</g>
</svg>
