<?xml version="1.0" encoding="utf-8"?>
<!-- Generator: Adobe Illustrator 16.0.0, SVG Export Plug-In . SVG Version: 6.00 Build 0)  -->
<!DOCTYPE svg PUBLIC "-//W3C//DTD SVG 1.1//EN" "http://www.w3.org/Graphics/SVG/1.1/DTD/svg11.dtd">
<svg version="1.1" id="Layer_1" xmlns="http://www.w3.org/2000/svg" xmlns:xlink="http://www.w3.org/1999/xlink" x="0px" y="0px"
	 width="320px" height="320px" viewBox="-32 0 320 320" enable-background="new -32 0 320 320" xml:space="preserve">
<g>
	<path fill="#0A0B09" d="M81.55,2.131C33.676,8.057,4.086,22.133,0.557,40.87c-0.639,3.036-0.639,20.002-0.333,37.767
		c0.652,26.581,1.119,33.306,3.529,37.607c2.557,4.967,2.557,5.766,0,12.478c-2.41,6.246-2.57,11.066-1.771,36.968
		c0.652,16.34,1.944,32.174,3.063,35.063c1.411,4.009,1.411,6.232,0,9.455c-2.411,5.114-2.584,50.258-0.333,63.841
		c0.945,6.406,3.036,11.387,6.072,15.222c14.263,17.765,52.029,28.325,107.548,30.083c68.981,2.25,121.637-10.721,134.128-33
		c3.356-5.738,3.516-8.309,3.516-37.594c0-24.795-0.479-32.652-2.557-37.606c-2.077-5.273-2.077-7.031-0.479-10.081
		c1.451-2.717,1.932-11.984,1.625-34.092c-0.333-31.694-0.799-36.341-4.328-41.455c-1.771-2.57-1.611-3.835,0.307-7.844
		c2.077-3.835,2.57-10.88,2.396-38.885c-0.146-19.855-0.959-36.329-2.077-39.365c-4.328-13.277-23.531-25.449-49.606-31.694
		C169.229,0.213,117.386-2.171,81.55,2.131L81.55,2.131L81.55,2.131z"/>
	<path fill="#F6CF54" d="M33.53,228.771c13.77,10.068,82.112,16.807,128.362,12.798c25.436-2.251,47.368-6.405,57.929-11.04
		c7.059-3.195,7.364-3.688,7.364-9.762c0-4.487,0.64-6.578,2.237-6.578c5.447,0,6.246,4.328,5.939,33.785
		c-0.174,15.994-0.799,29.937-1.119,31.042c-1.291,3.196-14.901,9.921-26.273,12.824c-19.35,5.114-37.461,7.351-66.412,8.31
		c-53.467,1.771-103.726-6.393-117.309-19.043c-3.369-3.355-3.542-4.461-3.542-32.334c0-27.672,0.173-28.964,3.702-32.652
		l3.516-3.836l0.799,6.871c0.639,4.809,1.917,7.525,4.794,9.615H33.53L33.53,228.771z"/>
	<path fill="#F6CF54" d="M28.735,137.218c0,6.552,3.196,9.269,15.674,12.944c45.131,13.61,146.926,11.852,176.063-3.036
		c5.926-3.036,6.712-3.995,6.712-8.949c0-6.086,1.599-7.045,5.42-3.037c3.063,3.037,2.917,0.32,2.57,33.452l-0.146,27.207
		l-4.647,4.328c-9.908,9.122-44.332,16.313-86.428,18.244c-52.175,2.396-111.888-7.83-120.997-20.801
		c-1.771-2.57-2.25-9.455-2.25-31.215c0-23.691,0.319-28.325,2.703-30.882c3.715-4.155,5.313-3.516,5.313,1.758L28.735,137.218
		L28.735,137.218z"/>
	<path fill="#F6CF54" d="M88.915,17.179c-0.479,0.799,8.483,0.959,20.495,0.479c17.778-0.652,64.64,2.078,63.055,3.676
		c-0.319,0.319-7.537,1.292-16.166,2.25c-8.816,0.958-17.299,2.57-19.203,3.516c-3.209,1.758-3.209,1.917-0.493,3.995
		c2.743,1.931,2.57,2.091-1.598,3.049c-13.131,2.717-21.614,6.086-24.637,9.921c-7.684,9.761-0.958,19.522,15.528,23.038
		c12.478,2.57,61.778,0.959,75.374-2.397c15.049-3.835,22.732-8.163,22.732-12.958c0-6.552-9.642-11.373-32.812-16.167
		c-12.346-2.397-4.475-2.89,10.866-0.479c15.222,2.397,27.553,7.044,31.534,12.172c2.891,3.835,3.184,6.392,3.184,34.238
		c0,34.411,0.318,33.612-15.342,40.816c-22.732,10.733-59.713,14.729-123.901,13.596c-12.145-0.319-13.117-0.466-9.761-2.397
		c3.356-1.917,2.25-2.25-11.186-3.049c-18.724-1.105-35.064-5.753-42.734-11.826C24.554,111.276,18.628,98,17.855,82.325
		c-0.799-14.888,2.064-32.014,5.114-30.895c1.105,0.466,3.516-2.25,5.766-6.232c6.392-12.172,20.322-20.495,43.227-26.261
		C85.559,15.581,90.18,15.102,88.915,17.179L88.915,17.179L88.915,17.179z"/>
</g>
</svg>
