<?xml version="1.0" encoding="utf-8"?>
<!-- Generator: Adobe Illustrator 16.0.0, SVG Export Plug-In . SVG Version: 6.00 Build 0)  -->
<!DOCTYPE svg PUBLIC "-//W3C//DTD SVG 1.1//EN" "http://www.w3.org/Graphics/SVG/1.1/DTD/svg11.dtd">
<svg version="1.1" id="Layer_1" xmlns="http://www.w3.org/2000/svg" xmlns:xlink="http://www.w3.org/1999/xlink" x="0px" y="0px"
	 width="256px" height="256px" viewBox="0 -13.815 256 256" enable-background="new 0 -13.815 256 256" xml:space="preserve">
<g>
	<path d="M76.501,207.352c-9.749-7.67-20.153-15.021-27.261-25.378c-14.96-18.263-26.476-39.404-34.349-61.625
		c-4.761-14.45-6.39-29.941-12.53-43.83c-6.415-10.091,1.105-21.114,12.157-24.32c4.917-0.947,13.568-5.589,3.125-2.268
		c-9.364,6.867-10.267-6.239-0.667-7.069c6.552-0.869,8.964-6.23,6.721-11.057c-7.036-4.59,17.055-9.625,4.932-16.472
		C16.01,1.711,46.291-0.91,38.818,14.561c-1.786,11.896,21.166-2.185,15.836,11.554c5.416,6.599,20.272,1.505,19.899,10.757
		c7.886,0.542,10.593,7.173,17.989,7.684c7.677,3.465,21.579,6.192,24.188,14.837c-7.61,6.023-25.227-12.443-26.078,4.232
		c2.302,24.638,1.714,50.017,10.725,73.478c4.262,14.204,14.601,25.385,23.932,36.45c8.932,10.834,21.03,18.466,33.363,24.888
		c10.815,5.1,22.476,8.48,34.265,10.605c4.779-3.655,13.222-17.25,20.676-11.521c0.359,6.448-14.797,13.471-0.711,12.758
		c8.277-2.498,14.013,6.395,20.826-1.629c6.277,7.436,26.09-4.748,21.624,10.45c-6.042,3.897-14.851,1.542-20.897,6.905
		c-9.973-4.983-17.912,4.453-28.955,3.263c-12.261,2.196-24.738,3.08-37.168,3.099c-20.396-1.608-41.223-2.288-60.624-9.39
		C96.773,219.803,86.108,213.577,76.501,207.352L76.501,207.352z M93.725,214.818c10.672,4.611,21.109,9.476,32.807,10.947
		c18.558,2.576,37.724,6.552,56.347,2.93c-8.43-3.806-17.146,1.478-25.543-2.721c-10.068,2.164-20.877-0.556-31.119-1.896
		c-11.64-5.185-24.206-8.748-35.107-15.484c-13.628-4.976,7.042,6.383,10.724,7.305c8.514,4.832-9.364-2.479-11.889-4.486
		c-7.133-4.002-8.042-3.165-0.705,0.896C90.717,213.172,92.176,214.081,93.725,214.818L93.725,214.818z M73.414,200.467
		c10.346,3.831-0.045-7.272-4.779-6.631c-2.099-3.643-8.023-5.945-3.845-7.9c-7.513,2.61-7.873-9.92-11.403-8.127
		c-7.952-2.511-3.094-11.404-12.568-16.871c-0.864-5.755-9.41-10.744-12.13-19.421c-1.204-4.446-9.659-17.204-4.466-5.33
		c4.419,11.43,12.195,21.226,18.668,31.003c5.022,9.311,10.959,19.048,20.108,24.855C66.085,195.006,69.06,199.537,73.414,200.467
		L73.414,200.467z M43.624,167.752C43.982,166.188,45.514,171.131,43.624,167.752L43.624,167.752z M85.807,205.057
		C88.095,204.03,82.511,203.762,85.807,205.057L85.807,205.057z M91.417,207.104C90.835,204.277,88.854,208.686,91.417,207.104
		L91.417,207.104z M98.447,210.033C101.789,206.848,93.288,208.024,98.447,210.033L98.447,210.033z M110.492,216.748
		C112.525,213.746,103.985,215.617,110.492,216.748L110.492,216.748z M87.364,200.623C92.555,197.262,80.647,200.576,87.364,200.623
		L87.364,200.623z M92.633,203.252C92.483,201.479,90.757,204.049,92.633,203.252L92.633,203.252z M118.979,219.697
		c4.237,2.675,24.738,5.859,11.902,1.098C128.729,221.247,107.078,214.668,118.979,219.697L118.979,219.697z M77.156,187.119
		C76.744,185.342,70.577,185.15,77.156,187.119L77.156,187.119z M89.416,194.273C92.613,192.045,82.792,192.553,89.416,194.273
		L89.416,194.273z M99.734,200.597C104.318,198.871,92.307,198.864,99.734,200.597L99.734,200.597z M72.159,181.686
		c4.97,3.812,20.049,0.49,7.612-2.275c-5.657-3.014-18.407-5.08-9.716,1.818L72.159,181.686L72.159,181.686z M106.725,202.781
		C108.797,199.256,98.041,200.766,106.725,202.781L106.725,202.781z M96.223,194.437c12.149,3.433-10.22-7.69-3-1.269l1.602,0.727
		L96.223,194.437L96.223,194.437z M117.28,206.606C128.788,206.717,106.882,205.018,117.28,206.606L117.28,206.606z M67.733,175.028
		C67.281,172.884,64.896,175.205,67.733,175.028L67.733,175.028z M136.746,217.525C137.053,213.656,132.992,220.41,136.746,217.525
		L136.746,217.525z M87.375,187.055C86.676,185.014,83.78,186.969,87.375,187.055L87.375,187.055z M68.824,173.682
		C75.43,173.283,59.774,170.773,68.824,173.682L68.824,173.682z M46.846,159.479C46.022,156.308,39.66,153.784,46.846,159.479
		L46.846,159.479z M104.541,196.092C103.332,194.711,103.971,196.392,104.541,196.092L104.541,196.092z M140.445,218.129
		C140.336,216.016,138.49,218.926,140.445,218.129L140.445,218.129z M101.363,192.81C102.011,190.089,95.727,191.984,101.363,192.81
		L101.363,192.81z M74.611,175.854C79.529,175.33,66.731,172.531,74.611,175.854L74.611,175.854z M119.863,203.972
		C127.526,200.937,112.395,202.493,119.863,203.972L119.863,203.972z M96.328,187.996c8.827,1.137-10.508-6.01-1.942-0.641
		L96.328,187.996L96.328,187.996z M127.009,206.861c8.246-4.924,5.526,11.542,13.987,1.393c8.344-6.094-7.206,7.533,3.074,1.086
		c7.441-4.977,18.426,2.36,25.364,4.748c4.988-0.243,9.841,4.315,14.96,1.541c9.849-2.654-19.262-3.936-11.632-8.638
		c-9.011,2.624-15.667-3.125-20.102-8.899c-10.109-2.334-21.794-7.5-26.842-16.451c-2.059-3.355,2.969,0.477-1.778-5.016
		c-6.088-5.415-9.128-11.568-13.216-18.153c-4.885-2.603-5.46-10.273-5.951-0.254c0.04-6.324-5.897-10.581-7.349-8.815
		c-0.027-6.088,6.356-3.035,1.89-7.54c-0.96-6.311-4.126-12.888-5.075-20.016c-1.477-3.434-0.209-10.789-5.047-3.015
		c-1.759,8.219-0.583-10.096,2.158-4.061c3.596-6.159-1.295-5.434-1.491-4.583c2.342-5.198,1.485-12.575-0.615-9.763
		c1.249-5.512,1.976-20.284-1.863-17.662c2.327-5.767,4.414-26.379-5.697-18.518c-4.093,0.059-11.188,1.484-14.535,3.152
		c10.508,5.794-1.06,2.092-5.343,1.17c-0.556,5.361-4.793,3.046-10.089,3.098c8.462,1.046-4.12,8.651-8.964,5.697
		c-6.304,3.008,5.434,10.528,0.124,12.854c0.654,3.499-9.652-1.267-8.847,6.828c-6.115-2.578-0.837,9.599,2.223,5.479
		c10.404,2.819,7.324,9.234,7.585,15.334c-1.694,3.55-8.37-8.35-1.485-7.801c-5.434-8.822-6.008-3.191-10.521,0.909
		c-1.046,0.295,11.508,5.833,3.629,8.566c6.932,1.073,7.135,7.142,8.547,10.98c4.165,4.341,3.308-4.794,8.298,0.425
		c-3.159-4.65-16.715-13.099-5.8-10.391c-0.059-4.675-1.976-8.449,1.373-8.358c3.316-5.996-3.472,14.792,3.996,7.168
		c2.066-0.902,2.583-6.003,6.298,0.484c5.394,5.31,1.948,9.153-5.663,4.289c1.359,4.624,10.181,6.271,8.521,13.497
		c1.758,6.356,4.217,4.014,6.361,3.648c1.681,6.173,2.636,1.635,2.715-1.308c7.695,1.649,5.891,6.199,8.303,9.378
		c5.303,2.392-7.592-16.225,1.512-5.598c9.579,8.651,3.596,12.261-5.002,10.875c5.44-0.438,7.191,7.357,14,7.083
		c6.206,2.955,10.411,14.295-0.288,9.572c-3.708-3.348-16.845-7.475-6.113-1.111c9.9,4.59,17.773,7.33,27.326,13.092
		c6.833,4.878,9.788,10.467,12.377,11.574c-5.747,2.745-17.314-2.191-8.723-3.701c-5.362-0.975-11.39-3.688-6.257,2.988
		c4.368,3.648,15.464,3.262,17.46,3.674c-1.688,3.715-4.583,4.01,0.065,4.297C119.678,204.854,126.532,205.285,127.009,206.861
		L127.009,206.861z M116.402,176.906c-3.159-3.303-3.976-9.481-0.562-4.107C117.593,173.505,121.444,182.902,116.402,176.906
		L116.402,176.906z M150.949,198.851C152.918,198.721,151.008,200.348,150.949,198.851L150.949,198.851z M111.42,168.811
		C111.295,163.821,112.557,172.661,111.42,168.811L111.42,168.811z M107.987,164.194
		C104.012,156.524,112.989,166.365,107.987,164.194L107.987,164.194z M66.372,135.475C68.707,134.853,67.523,139.462,66.372,135.475
		L66.372,135.475z M99.494,153.424C100.925,148.042,101.174,157.937,99.494,153.424L99.494,153.424z M76.096,137.154
		C74.449,134.186,79.543,139.941,76.096,137.154L76.096,137.154z M96.17,143.589c-3.76-8.422,2.668-4.604,0.837,1.379L96.17,143.589
		L96.17,143.589z M61.547,120.5c-1.681-2.766-4.459-10.875-3.564-13.352c0.804,4.035,8.572,17.354,3.805,5.52
		c-5.263-9.92,6.297,3.216,7.488,5.695c0.556,2.459-3.251-0.673-0.675,5.101C63.901,116.89,65.83,127.092,61.547,120.5L61.547,120.5
		z M50.849,113.124C51.288,106.696,53.294,117.531,50.849,113.124L50.849,113.124z M55.662,114.785
		C57.957,109.933,59.552,121.546,55.662,114.785L55.662,114.785z M44.081,105.827c-3.982-3.964-6.867-7.612,0.189-2.459
		c2.713,0.104-6.042-8.298,0.654-2.668C51.96,101.982,48.396,112.242,44.081,105.827L44.081,105.827z M50.163,105.669
		C52.478,103.375,51.391,107.926,50.163,105.669L50.163,105.669z M53.909,106.866C50.397,100.294,58.166,109.625,53.909,106.866
		L53.909,106.866z M46.468,99.759c-11.581-10.313,14.549,5.387,1.89,1.908L46.468,99.759L46.468,99.759z M79.653,119.035
		c-5.016-3.001-1.334-21.152,0.38-8.742c4.872-1.577-0.27,6.415,3.36,6.336C82.826,121.669,81.197,123.482,79.653,119.035
		L79.653,119.035z M91.927,126.293C92.417,120.821,92.96,130.035,91.927,126.293L91.927,126.293z M89.796,124.181
		C90.345,121.847,89.848,126.934,89.796,124.181L89.796,124.181z M48.736,96.371c-7.441-10.267,21.625,10.384,4.768,2.603
		C51.744,98.51,49.62,98.346,48.736,96.371L48.736,96.371z M72.375,108.9C71.67,100.256,73.945,110.332,72.375,108.9L72.375,108.9z
		 M90.318,120.414C91.704,115.491,90.424,123.672,90.318,120.414L90.318,120.414z M49.881,92.453
		c4.421-0.947,18.322,7.763,5.558,2.486C54.021,93.369,50.993,94.082,49.881,92.453L49.881,92.453z M87.853,111.378
		c0.472-8.84,2.643-5.276,0.02,1.269L87.853,111.378L87.853,111.378z M53.17,89.375c1.805-2.644-4.788-11.947,0.948-3.336
		c2.479,1.969,7.173,3.296,3.028,4.126C63.665,95.914,55.558,91.722,53.17,89.375L53.17,89.375z M85.976,108.619
		C87.22,98.548,87.076,114.517,85.976,108.619L85.976,108.619z M49.404,80.076C50.784,79.487,50.136,81.912,49.404,80.076
		L49.404,80.076z M57.963,85.17C60.166,80.546,62.024,90.322,57.963,85.17L57.963,85.17z M82.099,98.594
		C82.079,96.822,82.556,101.177,82.099,98.594L82.099,98.594z M80.7,95.502C77.352,87.235,83.818,99.876,80.7,95.502L80.7,95.502z
		 M78.646,90.08C78.084,86.667,80.556,94.37,78.646,90.08L78.646,90.08z M81.994,84.639c-2.302-4.048,2.904-17.852,3.487-9.291
		c-2.427,6.669-0.7,10.397,0.986,1.451C89.593,69.764,85.793,90.696,81.994,84.639L81.994,84.639z M85.434,64.114
		C86.435,62.884,85.656,65.598,85.434,64.114L85.434,64.114z M79.687,177.324C78.326,176.135,79.862,178.076,79.687,177.324
		L79.687,177.324z M91.522,183.308c6.583,1.694,6.552-1.021,0.601-1.831c-3.198-2.975-13.3-6.134-4.257-0.367
		C88.462,182.628,90.352,182.588,91.522,183.308L91.522,183.308z M68.151,167.783c3.623,2.709,13.66,7.664,5.166,1.035
		c2.864-3.33-5.481-5.102-2.714-7.331c-7.042-4.311-5.559-3.924-0.621-3.787c-8.462-3.787,1.222-3.499,0.765-5.44
		c-3.263-0.641-16.211-5.755-8.593,0.418c-7.742-3.944-1.845,1.471-4.185,0.902c-7.919-2.158,7.049,6.03-1.255,3.996
		c4.539,3.596,12.222,9.22,1.915,3.805C57.277,163.337,66.007,166.3,68.151,167.783L68.151,167.783z M80.529,174.897
		C95.576,179.744,73.146,168.967,80.529,174.897L80.529,174.897z M143.893,213.282C144.089,210.295,141.839,215.832,143.893,213.282
		L143.893,213.282z M150.406,216.022c3.472-3.361,0.145,5.362,5.754-0.823c0.059-4.428-0.17-7.043-6.447-1.662
		C147.979,214.5,147.209,218.572,150.406,216.022L150.406,216.022z M47.024,151.097C45.958,146.905,39.549,146.923,47.024,151.097
		L47.024,151.097z M53.974,155.653C51.391,151.371,44.76,151.776,53.974,155.653L53.974,155.653z M93.542,179.515
		c3.865,3.433,17.741,2.518,4.689,0.425C96.301,177.082,85.964,177.769,93.542,179.515L93.542,179.515z M147.928,213.106
		C153.871,208.116,142.167,215.33,147.928,213.106L147.928,213.106z M160.293,221.601
		C160.332,219.998,157.73,222.301,160.293,221.601L160.293,221.601z M160.312,219.357
		C166.896,212.387,153.937,219.77,160.312,219.357L160.312,219.357z M29.917,136.776c-5.609-8.003-3.485-11.601-8.899-18.14
		c-1.028-5.002-9.286-16.341-4.27-4.329C21.338,121.336,22.699,132.217,29.917,136.776L29.917,136.776z M158.246,217.141
		C170.363,209.313,153.277,213.734,158.246,217.141L158.246,217.141z M167.492,220.764
		C173.561,215.557,163.654,219.677,167.492,220.764L167.492,220.764z M44.963,142.248C46.697,139.665,40.479,141.915,44.963,142.248
		L44.963,142.248z M165.562,218.291c5.873-3.785-1.353-3.204-1.064,0.346L165.562,218.291L165.562,218.291z M85.865,168.058
		C85.663,165.494,82.76,168.273,85.865,168.058L85.865,168.058z M90.789,170.891C89.22,167.725,88.383,171.387,90.789,170.891
		L90.789,170.891z M174.985,220.849c7.526-5.429-4.557-1.041-1.575,1.033L174.985,220.849L174.985,220.849z M172.104,219.456
		C178.236,214.322,165.635,221.73,172.104,219.456L172.104,219.456z M186.827,229.258
		C190.941,226.504,181.826,228.368,186.827,229.258L186.827,229.258z M48.736,140.385c5.512,1.235,22.043,13.581,12.294,0.857
		c-4.996-1.479-2-13.687-7.095-11.529c3.42,5.715,2.811,8.141-4.369,4.545c-9.016-4.407-5.067,2.178-3.301,3.996
		C43.858,138.803,49.443,140.34,48.736,140.385L48.736,140.385z M23.608,120.54c0.986-4.088-9.097-22.468-4.761-9.213
		C20.409,114.105,20.247,119.368,23.608,120.54L23.608,120.54z M69.733,148.978C66.889,146.604,69.596,148.638,69.733,148.978
		L69.733,148.978z M76.724,150.606C76.724,146.277,68.995,148.847,76.724,150.606L76.724,150.606z M137.341,188.813
		C136.184,185.857,132.771,188.748,137.341,188.813L137.341,188.813z M140.25,190.938
		C139.818,189.284,138.569,191.26,140.25,190.938L140.25,190.938z M164.275,206.076C166.584,204.37,161.391,205.855,164.275,206.076
		L164.275,206.076z M36.156,123.744C42.767,121.186,29.073,121.919,36.156,123.744L36.156,123.744z M132.004,184.125
		C131.928,179.848,127.787,185.191,132.004,184.125L132.004,184.125z M33.546,117.655C37.79,116.224,29.616,116.714,33.546,117.655
		L33.546,117.655z M45.865,123.625C45.793,122.22,44.564,124.162,45.865,123.625L45.865,123.625z M196.166,215.793
		c5.459-1.104,17.904,2.779,19.911-1.444c-6.631-0.164-22.933-4.683-23.704,1.071l1.451,0.229L196.166,215.793L196.166,215.793z
		 M49.782,124.612C49.881,120.277,46.403,124.45,49.782,124.612L49.782,124.612z M17.389,102.139
		C15.917,93.879,11.791,100.889,17.389,102.139L17.389,102.139z M25.111,104.081C25.21,101.426,18.042,101.694,25.111,104.081
		L25.111,104.081z M29.525,106.252C28.25,105.218,28.531,107.553,29.525,106.252L29.525,106.252z M57.309,124.07
		C58.618,122.867,54.21,123.181,57.309,124.07L57.309,124.07z M26.589,101.361C25.838,95.122,17.637,100.425,26.589,101.361
		L26.589,101.361z M10.745,91.081C10.522,88.203,9.202,92.166,10.745,91.081L10.745,91.081z M13.105,89.303
		C12.72,85.888,11.078,89.733,13.105,89.303L13.105,89.303z M26.119,97.07c5.506-2.158-10.025-4.473-1.125-0.405L26.119,97.07
		L26.119,97.07z M200.345,204.689C203.869,201.461,195.872,203.69,200.345,204.689L200.345,204.689z M221.394,215.598
		C222.807,211.426,217.836,216.146,221.394,215.598L221.394,215.598z M27.451,90.25C28.034,86.209,23.084,91.054,27.451,90.25
		L27.451,90.25z M8.927,77.839c-0.994-5.702-0.857-15.714,8.658-12.333c-12.699,2.524,8.795,15.791,6.082,5.315
		c5.342,0.263,10.449-3.157,7.644,2.027c10.528-1.157,17.819-10.285,27.987-9.002c7.918-1.053,16.576-1.845,25.11-5.036
		c7.016-0.504,13.771-8.057,9.927-12.537c-9.567-0.81-19.585,0.387-30.159,2.493c-11.718,2.432-22.363,7.061-34.186,9.05
		c-11.529,1.55,2.315,4.264-0.988,4.871c-6.01,2.086,7.173,3.492-0.778,5.695c-4.91-0.934-10.024-2.621-7.925-7.801
		C9.26,62.022-0.444,66.599,8.279,77.833L8.927,77.839L8.927,77.839z M35.535,64.29c2.583-9.533,13.862,7.848,4.237,1.269
		C38.627,64.695,36.73,63.996,35.535,64.29L35.535,64.29z M36.037,59.667C39.772,56.888,38.02,61.23,36.037,59.667L36.037,59.667z
		 M40.778,59.745c0.342-4.388,10.863,2.322,1.734,1.577L40.778,59.745L40.778,59.745z M47.265,57.137
		C49.639,54.363,47.953,59.595,47.265,57.137L47.265,57.137z M48.927,56.025c3.949-4.741,22.343-3.028,8.879-0.465
		C54.197,52.84,51.431,57.162,48.927,56.025L48.927,56.025z M72.937,52.324C72.343,39.369,84.871,56.921,72.937,52.324
		L72.937,52.324z M79.752,52.284c2.491-6.525,9.671-2.622,1.157-1.314C81.091,51.67,80.654,54.345,79.752,52.284L79.752,52.284z
		 M24.765,86.902C32.206,82.344,16.865,82.947,24.765,86.902L24.765,86.902z M30.271,88.426
		C32.88,85.654,24.594,87.301,30.271,88.426L30.271,88.426z M14.054,76.924C18.305,73.654,9.019,75.682,14.054,76.924L14.054,76.924
		z M233.818,214.407C233.941,210.613,230.567,216.113,233.818,214.407L233.818,214.407z M211.486,199.164
		C212.121,194.803,208.616,199.544,211.486,199.164L211.486,199.164z M239.959,215.879c5.943,0.02,18.014-1.852,5.08-1.845
		C243.005,214.349,233.211,214.283,239.959,215.879L239.959,215.879z M35.11,85.75c4.813-0.326,7.526-5.303-0.936-5.022
		c-13.111-1.353,11.567,4.493-1.681,2.819C30.716,84.725,35.004,86.079,35.11,85.75L35.11,85.75z M39.347,87.896
		C38.843,84.81,37.855,89.537,39.347,87.896L39.347,87.896z M44.375,74.491C46.461,71.902,41.484,73.798,44.375,74.491
		L44.375,74.491z M28.367,47.739c8.592-2.916,20.337-6.199,24.392,1.439c-4.126-4.963-1.667-9.854,2.23-2.589
		c5.512,7.344,8.271-3.341,4.687-5.807c4.088,5.074,8.73,7.474,2.733,0.321c6.521-7.841-13.045,1.026-17.491,0.934
		C42.78,42.999,22.83,47.125,28.367,47.739L28.367,47.739z M33.402,38.102c4.898-3.694,16.942,2.203,9.214-3.676
		C41.858,33.76,25.694,38.886,33.402,38.102L33.402,38.102z M51.261,38.84c5.729,0.144-2.471-7.704,4.355-4.146
		c-1.118-3.661-7.951-4.347-11.292-5.812C42.434,32.229,48.167,38.886,51.261,38.84L51.261,38.84z M36.535,22.629
		C38.517,19.942,33.056,23.997,36.535,22.629L36.535,22.629z M43.833,24.375c9.239-1.222-2.355-3.976-1.865-0.097L43.833,24.375
		L43.833,24.375z M30.205,13.717c-6.507-8.494,12.235,1.426,5.623-7.467C30.264,1.823,24.922,11.239,30.205,13.717L30.205,13.717z
		 M113.675,58.674c2.983-5.285-12.312-7.128-2.007-1.872C112.616,57.117,112.401,59.039,113.675,58.674L113.675,58.674z"/>
</g>
</svg>
