<?xml version="1.0" encoding="utf-8"?>
<!-- Generator: Adobe Illustrator 16.0.0, SVG Export Plug-In . SVG Version: 6.00 Build 0)  -->
<!DOCTYPE svg PUBLIC "-//W3C//DTD SVG 1.1//EN" "http://www.w3.org/Graphics/SVG/1.1/DTD/svg11.dtd">
<svg version="1.1" id="Layer_1" xmlns="http://www.w3.org/2000/svg" xmlns:xlink="http://www.w3.org/1999/xlink" x="0px" y="0px"
	 width="92px" height="92px" viewBox="2.499 2.5 92 92" enable-background="new 2.499 2.5 92 92" xml:space="preserve">
<g>
	<path fill="#F05133" d="M92.71,44.408L52.591,4.291c-2.31-2.311-6.057-2.311-8.369,0l-8.33,8.332L46.459,23.19
		c2.456-0.83,5.271-0.273,7.229,1.685c1.97,1.97,2.521,4.81,1.67,7.275l10.187,10.185c2.465-0.85,5.308-0.3,7.274,1.671
		c2.75,2.75,2.75,7.206,0,9.958c-2.752,2.751-7.207,2.751-9.961,0c-2.067-2.069-2.58-5.11-1.53-7.658l-9.5-9.499v24.998
		c0.67,0.331,1.303,0.773,1.86,1.331c2.75,2.75,2.75,7.206,0,9.96c-2.75,2.748-7.208,2.748-9.957,0c-2.75-2.755-2.75-7.211,0-9.96
		c0.68-0.679,1.467-1.192,2.307-1.536v-25.23c-0.84-0.344-1.625-0.853-2.307-1.537c-2.083-2.082-2.584-5.14-1.516-7.698
		L31.798,16.715L4.288,44.222c-2.311,2.313-2.311,6.06,0,8.371l40.121,40.118c2.31,2.311,6.056,2.311,8.368,0L92.71,52.779
		C95.021,50.468,95.021,46.719,92.71,44.408z"/>
</g>
</svg>
