<?xml version="1.0" encoding="utf-8"?>
<!-- Generator: Adobe Illustrator 16.0.0, SVG Export Plug-In . SVG Version: 6.00 Build 0)  -->
<!DOCTYPE svg PUBLIC "-//W3C//DTD SVG 1.1//EN" "http://www.w3.org/Graphics/SVG/1.1/DTD/svg11.dtd">
<svg version="1.1" id="Layer_1" xmlns="http://www.w3.org/2000/svg" xmlns:xlink="http://www.w3.org/1999/xlink" x="0px" y="0px"
	 width="344px" height="344px" viewBox="-44 0 344 344" enable-background="new -44 0 344 344" xml:space="preserve">
<g>
	<path fill="#FBA919" d="M17.297,83.373c0,0,5.875,22.658,6.712,30.212c0.841,7.552-15.105,24.335-15.105,32.729
		c0,8.393,3.353,23.498,21.817,31.052c18.465,7.553,20.979,26.854,20.979,38.604c0,11.749-6.712,34.404-6.712,34.404
		S40.795,306.6,63.451,316.67c22.656,10.068,17.623,10.068,22.656,10.068c5.034,0,41.96,15.109,63.778,9.235
		c21.819-5.875,27.689-12.587,27.689-12.587s21.822,1.676,28.535-17.627c6.716-19.3,10.909-59.58,8.391-78.043
		c-2.518-18.465-5.873-42.798,9.23-51.191c15.109-8.393,31.052-18.46,28.534-26.854c-2.519-8.393-15.942-20.142-15.942-20.142
		s-3.357-20.978-0.842-26.014c2.517-5.035,17.623-17.626,9.23-26.855c-8.387-9.23-23.497-9.23-23.497-9.23l-19.3,1.676
		c0,0-32.728-29.37-75.527-27.692C83.59,43.093,56.734,69.106,56.734,69.106s-14.265-5.035-26.854,0
		C17.291,74.144,14.781,69.105,17.297,83.373L17.297,83.373L17.297,83.373z"/>
	<path fill="#E78724" d="M93.978,208.319c0,0-16.619,25.411-28.808,43.443c-1.886,2.79,12.189,2.983,12.189,2.983L93.978,208.319
		L93.978,208.319z"/>
	<path fill="#E78724" d="M101.89,155.637c0,0-5.009,12.498-7.754,19.123c-2.979,7.203-14.336,10.786-14.336,10.786
		s5.887-6.175,5.887-21.817c0-6.563,8.472-9.172,8.472-9.172L101.89,155.637L101.89,155.637z"/>
	<path fill="#E78724" d="M96.83,162.703c0,0-10.264,12.218-29.32,5.375c-19.061-6.84-21.015-31.278-21.015-38.12
		s36.165,6.842,41.053,9.775S101.716,154.394,96.83,162.703L96.83,162.703L96.83,162.703z"/>
	<path fill="#E78724" d="M24.843,32.152c0,0,17.592-3.423,29.32,5.864c11.733,9.285,15.149,16.617,15.149,16.617l-19.769,15.67
		c0,0-9.552-4.429-12.484-17.137C34.128,40.46,36.083,34.597,24.843,32.152L24.843,32.152L24.843,32.152z"/>
	<path fill="#E78724" d="M91.698,127.413c-7.575-10.752-20.057-15.442-30.024-16.219c-16.994-1.33-25.062,4.678-25.062,4.678
		s27.832,1.179,35.854,11.715c14.934,19.609,36.721,21.203,40.205,16.896c-4.029,0.201-8.46-1.795-13.204-6.28
		C96.504,135.397,94.102,130.826,91.698,127.413L91.698,127.413L91.698,127.413z"/>
	<path fill="#E78724" d="M44.714,165.431c0,0-30.881-10.616-25.011-21.366c5.864-10.753,1.196-16.611,1.196-16.611
		S3.656,140.326,8.05,154.009c2.7,8.398,7.23,14.479,32.106,26.138c11.932,22.162,2.464,62.055,3.031,62.242
		c0.945,0.313,16.753-7.814,15.673-45.136C58.532,185.793,57.615,170.147,44.714,165.431L44.714,165.431L44.714,165.431z"/>
	<path fill="#E78724" d="M85.18,51.276c-12.948,6.578-30.687,15.739-30.687,15.739l6.981,3.493c-0.667,1.08-0.988,1.724-0.988,1.724
		l7.166,3.258c0,0,17.493,12.672,28.211,20.819C92.29,85.304,81.8,68.017,81.8,68.017S78.828,60.074,85.18,51.276L85.18,51.276
		L85.18,51.276z"/>
	<path fill="#E78724" d="M128.196,319.42c-39.799,0-53.28-20.204-53.28-20.204l6.22,15.146c2.351,6.553,27.431,26.943,47,26.943"/>
	<path fill="#E78724" d="M79.277,285.564c0,0,3.662,22.378,18.324,22.378c12.459,0,16.13-18.903,16.13-22.81L79.277,285.564
		L79.277,285.564z"/>
	<path fill="#E78724" d="M54.878,251.814c1.302-3.586,5.863-18.084,7.329-31.279c1.756-15.802,1.116-38.914,1.116-38.914
		s-3.912,15.15-7.333,17.598c-3.419,2.443-9.774,19.057-9.774,19.057s-3.404,24.736-5.024,33.05
		C45.675,252.224,49.45,249.582,54.878,251.814L54.878,251.814L54.878,251.814z"/>
	<path fill="#E78724" d="M19.472,153.766c0,0,8.306-2.935,10.752-21.014c2.442-18.084-2.935-33.723-2.935-33.723
		s0.488,24.924-2.442,29.813c-2.935,4.885-5.375,6.352-8.798,12.707C12.626,147.904,17.515,151.81,19.472,153.766L19.472,153.766
		L19.472,153.766z"/>
	<path fill="#FDC168" d="M29.39,36.43l-1.696-1.074C22.694,35.524,29.39,36.43,29.39,36.43L29.39,36.43L29.39,36.43z"/>
	<path fill="#FBA919" d="M91.941,45.922c0,0-7.817-1.303-11.729-7.166C76.3,32.891,65.225,21.16,47.568,21.029
		c-17.656-0.132-35.124,4.693-35.124,4.693l15.248,9.635c1.613-0.052,4.433-0.03,9.096,0.125
		c19.137,0.636,22.083,19.564,22.083,19.564l67.443-9.287"/>
	<path fill="#FFFFFF" d="M98.458,150.469c0,0-9.124,9.124-23.135,6.189c-14.011-2.931-22.484-9.122-23.135-19.875
		c-0.651-10.752,2.935-14.987,2.935-14.987s15.637,4.891,23.135,11.408C85.752,139.718,91.29,150.144,98.458,150.469L98.458,150.469
		L98.458,150.469z"/>
	<path fill="#C9C9C9" d="M87.417,147.209c0,0-7.913,3.615-16.757,0.671c-11.578-3.861-12.349-15.902-12.349-15.902
		s-7.103,20.843,12.811,24.855c15.971,3.217,25.417-6.038,25.417-6.038L87.417,147.209L87.417,147.209z"/>
	<path fill="#463014" d="M93.04,41.5c-0.851-17.875,13.803-32.111,18.879-32.718c0.281,3.029-0.282,14.844,4.793,18.477
		C118.19,17.61,123.187,6.97,142.92,0c-4.227,11.208-0.564,20.598,1.18,24.95c13.475-12.23,22.553-10.209,22.553-10.209
		s-9.361,16.156-5.7,26.756C133.902,39.376,93.172,44.371,93.04,41.5L93.04,41.5L93.04,41.5z"/>
	<path fill="#463014" d="M35.693,68.728c-6.454-5.354-1.644-10.324-2.153-16.408c-0.277-3.237-0.533-6.292-1.601-7.976
		C26,34.965,11.989,32.12,11.849,32.09l-6.576-1.289l4.353-5.092c0.564-0.659,18.441-17.716,46.106-8.785
		c19.351,6.241,33.677,27.405,34.21,28.26l-9.703,4.563c-0.114-0.18-11.439-20.074-28.042-25.427
		c-13.42-4.33-25.79-0.211-31.087,2.49c5.632,2.249,12.996,6.344,17.433,13.349c2.093,3.309,2.446,7.474,2.787,11.508
		c0.45,5.34,0.871,10.381,4.801,13.646L35.693,68.728L35.693,68.728z"/>
	<path fill="#463014" d="M18.456,146.893c0,0,8.131-10.083,10.54-29.704c0.946-7.728-0.734-22.971-3.423-28.836
		c0.489,14.417-3.176,28.836-3.176,28.836S19.925,143.96,18.456,146.893L18.456,146.893L18.456,146.893z"/>
	<path fill="#463014" d="M61.333,58.544c-0.004-0.021-2.609-11.405-9.832-17.152c-10.188-8.104-22.627-3.793-22.747-3.755
		l-1.806-5.58c0.602-0.195,14.82-4.675,27.923,4.536c13.182,9.263,14.764,17.66,14.901,18.587L61.333,58.544L61.333,58.544z"/>
	<path fill="#463014" d="M43.995,139.661c0,0-4.266-6.107-3.499-12.823c0.382-3.317,1.919-6.722,4.663-7.93
		c5.1-2.24,7.36,3.54,7.36,3.54S45.342,124.219,43.995,139.661L43.995,139.661L43.995,139.661z"/>
	<path fill="#463014" d="M90.836,148.97c0.178,0.333,0.27,0.519,0.27,0.519s-13.306,9.986-26.943-0.147
		c-7.299-5.429-6.61-18.859-4.374-24.555c5.815,1.318,10.748,3.694,14.871,6.468c-5.21-4.65-9.771-8.073-9.758-8.152l-5.922-1.676
		l-11.51-3.946c-0.147,0.877-4.346,20.556,7.772,33.964c5.371,5.945,30.551,19.259,42.506-3.506L90.836,148.97L90.836,148.97z"/>
	<path fill="#463014" d="M89.59,150.433c7.492,11.402,26.394,4.887,26.068-7.168c0,0-12.63,6.971-23.789-5.863
		c-6.515-7.493-27.39-28.152-55.699-21.286C55.72,120.414,81.602,138.276,89.59,150.433L89.59,150.433L89.59,150.433z"/>
	<path fill="#463014" d="M33.525,182.613c1.802,1.041,8.158,7.623,8.162,17.469c0,4.936-0.492,29.736-2.935,44.888
		c3.675,2.388,6.235,2.896,9.895,5.329c1.832-17.547,3.146-42.979,2.534-53.246c-0.701-11.703-6.966-19.557-12.777-22.906
		c-1.82-1.047-3.722-2.076-5.636-3.111c-9.954-5.378-20.246-10.941-20.246-20.441c0-7.431,2.889-9.756,5.947-12.22l0.33-0.267
		c2.029-1.64,4.326-3.499,5.687-6.553c3.713-8.349,4.32-29.615,0-35.014c-2.153-2.69-7.924-11.736-6.265-17.814
		c0.632-2.32,2.093-4.04,4.472-5.258c2.517-1.289,5.917-1.942,10.104-1.942c8.223,0,17.342,2.503,22.047,3.993
		c16.813,5.329,37.101,20.693,42.916,25.275c0.167,0.128,0.265,0.203,0.283,0.215l3.721,2.588l-2.328-3.895
		c-0.144-0.243-14.883-24.479-41.237-33.365c-5.127-1.729-15.2-4.629-25.1-4.629c-5.894,0-10.895,1.029-14.855,3.057
		c-4.826,2.469-8.095,6.408-9.453,11.388c-3.328,12.207,7.511,25.799,7.881,26.233c1.264,2.256,1.799,18.643-1.12,25.202
		c-0.402,0.905-1.502,1.795-2.896,2.919c-0.437,0.353-0.925,0.72-1.442,1.112c-4.119,3.109-10.347,7.806-10.347,18.633
		c0,14.814,15.014,22.846,27.08,29.305C29.927,180.621,31.817,181.629,33.525,182.613L33.525,182.613L33.525,182.613z"/>
	<path fill="#463014" d="M35.693,68.728c-6.454-5.354-1.644-10.324-2.153-16.408c-0.277-3.237-0.533-6.292-1.601-7.976
		C26,34.965,11.989,32.12,11.849,32.09l-6.576-1.289l4.353-5.092c0.564-0.659,18.441-17.716,46.106-8.785
		c19.351,6.241,33.677,27.405,34.21,28.26l-9.703,4.563c-0.114-0.18-11.439-20.074-28.042-25.427
		c-13.42-4.33-25.79-0.211-31.087,2.49c5.632,2.249,12.996,6.344,17.433,13.349c2.093,3.309,2.446,7.474,2.787,11.508
		c0.45,5.34,0.871,10.381,4.801,13.646L35.693,68.728L35.693,68.728z"/>
	<path fill="#463014" d="M35.483,69.825l-0.417-0.345c-4.786-3.972-3.938-7.885-3.115-11.67c0.374-1.747,0.768-3.553,0.608-5.406
		c-0.261-3.115-0.512-6.054-1.45-7.538c-5.656-8.93-19.323-11.791-19.458-11.818l-8.214-1.61l5.445-6.365
		C8.982,24.953,20.46,13.366,39.9,13.366c5.299,0,10.728,0.882,16.13,2.626c20.197,6.513,34.606,28.456,34.742,28.673l0.583,0.932
		l-11.478,5.398l-0.46-0.731c-1.235-2.105-12.118-20.053-27.514-25.02c-3.782-1.221-7.765-1.837-11.837-1.837
		c-7.376,0-13.357,2.01-16.54,3.36c5.319,2.395,11.769,6.426,15.851,12.863c2.219,3.506,2.578,7.792,2.931,11.932
		c0.432,5.149,0.841,9.99,4.452,12.988l1.363,1.131L35.483,69.825L35.483,69.825z"/>
	<path fill="#463014" d="M61.333,58.544c-0.004-0.021-2.609-11.405-9.832-17.152c-10.188-8.104-22.627-3.793-22.747-3.755
		l-1.806-5.58c0.602-0.195,14.82-4.675,27.923,4.536c13.182,9.263,14.764,17.66,14.901,18.587L61.333,58.544L61.333,58.544z"/>
	<path fill="#463014" d="M60.633,59.875l-0.254-1.121c-0.026-0.109-2.581-11.104-9.488-16.596
		c-3.936-3.135-8.684-4.726-14.102-4.726c-4.229,0-7.372,1.009-7.715,1.128l-0.934,0.31l-2.423-7.443l0.929-0.3
		c0.417-0.132,4.19-1.309,9.528-1.309c7.042,0,13.7,2.066,19.263,5.972c13.512,9.496,15.161,18.276,15.302,19.245l0.119,0.766
		L60.633,59.875L60.633,59.875z M36.79,35.481c5.788,0,11.089,1.78,15.32,5.145c6.133,4.885,9.018,13.508,9.89,16.599l6.648-2.649
		c-0.602-2.347-3.252-9.391-14.336-17.183c-5.303-3.728-11.403-5.616-18.136-5.616c-3.694,0-6.565,0.588-7.983,0.946l1.199,3.706
		C30.782,36.056,33.458,35.481,36.79,35.481L36.79,35.481L36.79,35.481z"/>
	<path fill="#463014" d="M96.988,302.574L96.988,302.574c-2.888,0-5.835-1.049-7.878-2.816c-1.563-1.348-6.852-6.205-9.183-12.155
		c-0.87-2.226-0.675-4.005,0.588-5.286c0.87-0.877,2.677-1.927,6.344-1.927l2.609-0.004c3.109-0.003,8.344-0.003,12.817-0.003h4.29
		c2.79,0,4.79,0.603,5.939,1.778c1.477,1.518,1.003,3.448,0.591,4.464c-0.719,1.779-3.694,7.571-8.729,12.955
		C102.572,301.51,99.948,302.574,96.988,302.574L96.988,302.574L96.988,302.574z"/>
	<path fill="#463014" d="M100.015,151.104l-10.426-0.671c0,0,2.666,4.698,4.392,10.774c1.95,6.874-1.783,16.918-1.783,16.918
		S106.1,162.386,100.015,151.104L100.015,151.104L100.015,151.104z"/>
	<path fill="#463014" d="M87,330.104c-37.109-2.852-50.165-37.916-50.165-45.22l9.691,0.005l-4.846-0.005h4.846
		c0.048,3.157,9.91,33.152,41.216,35.56L87,330.104L87,330.104z"/>
	<path fill="#FFFFFF" d="M76.572,267.28c-0.58-3.352-0.64-6.53,0.067-9.653c-2.82-2.119-7.881-2.906-11.678-4.138
		c-3.104-1.966-18.993,2.015-30.52-11.937c-14.443-17.468-11.403-27.896-11.403-27.896c-3.703,4.113-7.292,2.546-12.937,21.729
		c-5.652,19.188,2.653,32.564,18.133,45.993c7.313,6.344,17.651,8.957,26.544,9.957c-2.979-2.99,5.088-3.29,10.648-5.371
		c-0.443-4.488,0.299-8.847,3.646-12.355c2.019-2.116,4.615-3.381,7.31-4.389c0.15-0.348,0.277-0.67,0.421-1.004
		C76.715,267.912,76.628,267.604,76.572,267.28L76.572,267.28L76.572,267.28z"/>
	<path fill="#C9C9C9" d="M65.353,285.849c-0.321-0.942-0.564-1.903-0.803-2.869c-0.257-1.056-1.537-4.047,0.041-0.632
		c-0.405-0.875-0.671-1.775-0.866-2.684c-25.07-0.032-46.88-17.244-42.666-53.432c-3.282-4.357-7.877,8.785-7.877,8.785
		s-12.55,36.443,19.863,50.566c10.8,4.711,20.345,8.087,22.597,6.725c4.691,0.953,8.925-2.318,10.513-4.469
		C65.856,287.18,65.585,286.518,65.353,285.849L65.353,285.849L65.353,285.849z"/>
	<path fill="#463014" d="M76.12,262.033c0.039-3.055,0.663-6.013,2.139-8.961c0.104-0.203,0.223-0.396,0.334-0.595
		c-9.647-0.083-20.758-1.007-30.218-4.794c-10.399-4.159-23.407-18.39-25.642-35.109c0,0-19.584,15.112-13.829,47.459
		c5.401,30.373,30.818,40.275,59.806,41.951c0.015-0.197-3.261-6.964-2.225-11.105c-16.46,1.195-34.866-5.164-43.751-19.784
		c-8.135-13.382-5.854-36.228-2.51-39.575C28.378,257.252,57.722,262.482,76.12,262.033L76.12,262.033L76.12,262.033z"/>
	<path fill="#463014" d="M79.157,243.611c-5.216,15.309-15.871,27.696-15.871,27.696s14.657-0.667,15.466-3.261
		c0.599-1.911,13.234-31.49,18.083-66.139C92.273,209.402,79.604,242.301,79.157,243.611L79.157,243.611L79.157,243.611z"/>
	<path fill="#E78724" d="M162.194,208.319c0,0,16.614,25.411,28.808,43.443c1.887,2.79-12.193,2.983-12.193,2.983L162.194,208.319
		L162.194,208.319z"/>
	<path fill="#E78724" d="M154.279,155.637c0,0,5.012,12.498,7.752,19.123c2.979,7.203,14.334,10.786,14.334,10.786
		s-5.886-6.175-5.886-21.817c0-6.563-8.472-9.172-8.472-9.172L154.279,155.637L154.279,155.637z"/>
	<path fill="#E78724" d="M159.34,162.703c0,0,10.264,12.218,29.325,5.375c19.062-6.842,21.015-31.278,21.015-38.12
		s-36.165,6.842-41.054,9.775C163.738,142.666,154.454,154.394,159.34,162.703L159.34,162.703L159.34,162.703z"/>
	<path fill="#E78724" d="M231.328,32.152c0,0-17.593-3.423-29.324,5.864c-11.729,9.285-15.15,16.617-15.15,16.617l19.77,15.669
		c0,0,9.556-4.429,12.488-17.137C222.042,40.46,220.088,34.597,231.328,32.152L231.328,32.152L231.328,32.152z"/>
	<path fill="#E78724" d="M164.473,127.413c7.574-10.752,20.053-15.442,30.023-16.219c16.996-1.33,25.06,4.678,25.06,4.678
		s-27.832,1.179-35.854,11.715c-14.936,19.609-36.715,21.203-40.199,16.896c4.027,0.201,8.462-1.795,13.201-6.28
		C159.666,135.397,162.069,130.826,164.473,127.413L164.473,127.413L164.473,127.413z"/>
	<path fill="#E78724" d="M211.457,165.431c0,0,30.877-10.616,25.012-21.366c-5.863-10.753-1.199-16.611-1.199-16.611
		s17.247,12.872,12.849,26.555c-2.7,8.398-7.23,14.479-32.106,26.138c-11.932,22.162-2.464,62.055-3.027,62.242
		c-0.947,0.313-16.752-7.814-15.673-45.136C197.639,185.793,198.556,170.147,211.457,165.431L211.457,165.431L211.457,165.431z"/>
	<path fill="#E78724" d="M170.992,51.276c12.943,6.578,30.686,15.739,30.686,15.739l-6.98,3.493c0.666,1.08,0.989,1.724,0.989,1.724
		l-7.166,3.258c0,0-17.494,12.672-28.212,20.819c3.569-11.004,14.059-28.291,14.059-28.291S177.346,60.074,170.992,51.276
		L170.992,51.276L170.992,51.276z"/>
	<path fill="#E78724" d="M127.978,319.42c39.792,0,53.273-20.204,53.273-20.204l-6.216,15.146
		c-2.352,6.553-27.433,26.943-46.997,26.943"/>
	<path fill="#E78724" d="M176.895,285.564c0,0-3.666,22.378-18.324,22.378c-12.457,0-16.129-18.903-16.129-22.81L176.895,285.564
		L176.895,285.564z"/>
	<path fill="#E78724" d="M201.293,251.814c-1.303-3.586-5.863-18.084-7.333-31.279c-1.757-15.802-1.112-38.914-1.112-38.914
		s3.91,15.15,7.328,17.598c3.424,2.443,9.775,19.057,9.775,19.057s3.403,24.736,5.023,33.05
		C210.492,252.224,206.723,249.582,201.293,251.814L201.293,251.814L201.293,251.814z"/>
	<path fill="#E78724" d="M236.701,153.766c0,0-8.309-2.935-10.752-21.014c-2.441-18.084,2.934-33.723,2.934-33.723
		s-0.49,24.924,2.443,29.813c2.934,4.888,5.375,6.352,8.798,12.707C243.542,147.903,238.655,151.81,236.701,153.766L236.701,153.766
		L236.701,153.766z"/>
	<path fill="#FDC168" d="M226.78,36.43l1.698-1.074C233.48,35.524,226.78,36.43,226.78,36.43L226.78,36.43L226.78,36.43z"/>
	<path fill="#FBA919" d="M164.227,45.922c0,0,7.822-1.303,11.729-7.166c3.911-5.866,14.99-17.596,32.647-17.728
		c17.656-0.132,35.125,4.693,35.125,4.693l-15.25,9.635c-1.612-0.052-4.433-0.03-9.1,0.125c-19.134,0.636-22.08,19.564-22.08,19.564
		l-67.44-9.287"/>
	<path fill="#FFFFFF" d="M157.713,150.469c0,0,9.123,9.124,23.132,6.189c14.013-2.931,22.483-9.122,23.136-19.875
		c0.65-10.752-2.932-14.987-2.932-14.987s-15.641,4.891-23.135,11.408C170.42,139.72,164.883,150.144,157.713,150.469
		L157.713,150.469L157.713,150.469z"/>
	<path fill="#C9C9C9" d="M168.751,147.209c0,0,7.915,3.615,16.757,0.671c11.58-3.861,12.352-15.902,12.352-15.902
		s7.098,20.843-12.814,24.855c-15.969,3.217-25.416-6.038-25.416-6.038L168.751,147.209L168.751,147.209z"/>
	<path fill="#463014" d="M220.477,68.728c6.454-5.354,1.647-10.324,2.157-16.408c0.272-3.237,0.528-6.292,1.597-7.976
		c5.939-9.379,19.951-12.225,20.095-12.254l6.577-1.289l-4.354-5.092c-0.564-0.659-18.441-17.716-46.109-8.785
		c-19.35,6.241-33.675,27.405-34.207,28.26l9.699,4.563c0.117-0.18,11.443-20.074,28.046-25.427
		c13.42-4.33,25.788-0.211,31.083,2.49c-5.629,2.249-12.995,6.344-17.432,13.349c-2.094,3.309-2.443,7.474-2.783,11.508
		c-0.449,5.34-0.875,10.381-4.806,13.646L220.477,68.728L220.477,68.728z"/>
	<path fill="#463014" d="M237.711,146.893c0,0-8.127-10.083-10.535-29.704c-0.946-7.728,0.73-22.971,3.419-28.836
		c-0.489,14.417,3.179,28.836,3.179,28.836S236.246,143.96,237.711,146.893L237.711,146.893L237.711,146.893z"/>
	<path fill="#463014" d="M194.838,58.544c0.004-0.021,2.609-11.405,9.832-17.152c10.188-8.104,22.627-3.793,22.743-3.755l1.812-5.58
		c-0.604-0.195-14.82-4.675-27.928,4.536c-13.182,9.263-14.76,17.66-14.901,18.587L194.838,58.544L194.838,58.544z"/>
	<path fill="#463014" d="M212.176,139.661c0,0,4.266-6.107,3.495-12.823c-0.378-3.317-1.915-6.722-4.659-7.93
		c-5.1-2.24-7.361,3.54-7.361,3.54S210.829,124.219,212.176,139.661L212.176,139.661L212.176,139.661z"/>
	<path fill="#463014" d="M165.336,148.97c-0.178,0.333-0.27,0.519-0.27,0.519s13.301,9.986,26.938-0.147
		c7.305-5.429,6.614-18.859,4.373-24.555c-5.812,1.318-10.743,3.694-14.867,6.468c5.211-4.65,9.771-8.073,9.755-8.152l5.926-1.676
		l11.509-3.944c0.147,0.877,4.346,20.556-7.777,33.964c-5.369,5.945-30.55,19.26-42.502-3.506L165.336,148.97L165.336,148.97z"/>
	<path fill="#463014" d="M166.578,150.433c-7.492,11.402-26.389,4.887-26.062-7.168c0,0,12.626,6.971,23.784-5.863
		c6.515-7.493,27.395-28.152,55.703-21.286C200.454,120.414,174.57,138.276,166.578,150.433L166.578,150.433L166.578,150.433z"/>
	<path fill="#463014" d="M222.649,182.613c-1.804,1.041-8.163,7.623-8.163,17.469c-0.004,4.936,0.489,29.736,2.936,44.888
		c-3.676,2.388-6.236,2.896-9.896,5.329c-1.832-17.547-3.149-42.979-2.533-53.246c0.699-11.703,6.963-19.557,12.773-22.906
		c1.82-1.047,3.723-2.076,5.642-3.111c9.953-5.378,20.245-10.941,20.245-20.441c0-7.431-2.892-9.756-5.95-12.22l-0.325-0.267
		c-2.029-1.64-4.331-3.499-5.688-6.553c-3.715-8.349-4.324-29.615-0.004-35.014c2.152-2.69,7.928-11.736,6.269-17.814
		c-0.636-2.32-2.099-4.04-4.476-5.258c-2.519-1.289-5.914-1.942-10.104-1.942c-8.219,0-17.344,2.503-22.045,3.993
		c-16.812,5.329-37.1,20.693-42.92,25.275c-0.166,0.128-0.262,0.203-0.279,0.215l-3.725,2.588l2.328-3.895
		c0.147-0.243,14.884-24.479,41.238-33.365c5.127-1.729,15.199-4.629,25.1-4.629c5.895,0,10.891,1.029,14.854,3.057
		c4.828,2.469,8.094,6.408,9.454,11.388c3.328,12.207-7.513,25.799-7.882,26.233c-1.264,2.256-1.798,18.643,1.117,25.202
		c0.401,0.905,1.502,1.795,2.898,2.919c0.438,0.353,0.922,0.72,1.442,1.112c4.12,3.109,10.345,7.806,10.345,18.633
		c0,14.814-15.014,22.846-27.076,29.305C226.244,180.621,224.352,181.629,222.649,182.613L222.649,182.613L222.649,182.613z"/>
	<path fill="#463014" d="M204.738,66.985c-2.388-4.045-8.494-11.855-22.57-18.718c-15.709-7.656-33.889-11.542-54.044-11.552v-0.004
		h-0.039h-0.039v0.002C107.888,36.724,89.705,40.61,74,48.265c-14.076,6.864-20.181,14.673-22.571,18.718l-1.025,1.357l12.054,2.683
		l0.382-0.482l0.202-0.442c0.187-0.797,1.802-5.098,15.241-11.651c14.367-7.007,31.124-10.56,49.8-10.565
		c18.679,0.006,35.429,3.558,49.794,10.565c13.439,6.554,15.061,10.854,15.245,11.651l0.201,0.442l0.378,0.482l12.057-2.683
		L204.738,66.985L204.738,66.985z"/>
	<path fill="#463014" d="M220.477,68.728c6.454-5.354,1.647-10.324,2.157-16.408c0.272-3.237,0.528-6.292,1.597-7.976
		c5.939-9.379,19.951-12.225,20.095-12.254l6.577-1.289l-4.354-5.092c-0.564-0.659-18.441-17.716-46.109-8.785
		c-19.35,6.241-33.675,27.405-34.207,28.26l9.699,4.563c0.117-0.18,11.443-20.074,28.046-25.427
		c13.42-4.33,25.788-0.211,31.083,2.49c-5.629,2.249-12.995,6.344-17.432,13.349c-2.094,3.309-2.443,7.474-2.783,11.508
		c-0.449,5.34-0.875,10.381-4.806,13.646L220.477,68.728L220.477,68.728z"/>
	<path fill="#463014" d="M208.055,65.687l1.357-1.13c3.615-2.999,4.02-7.841,4.457-12.989c0.35-4.142,0.711-8.427,2.93-11.932
		c4.078-6.435,10.533-10.467,15.852-12.864c-3.184-1.349-9.166-3.359-16.543-3.359c-4.074,0-8.051,0.617-11.834,1.837
		c-15.4,4.966-26.281,22.914-27.514,25.019L176.298,51l-11.478-5.398l0.584-0.932c0.135-0.217,14.539-22.16,34.737-28.673
		c5.401-1.745,10.83-2.625,16.134-2.625c19.439,0,30.918,11.588,31.017,11.705l5.444,6.365l-8.215,1.611
		c-0.136,0.027-13.802,2.887-19.461,11.818c-0.938,1.485-1.185,4.42-1.451,7.538c-0.154,1.854,0.234,3.66,0.613,5.406
		c0.822,3.786,1.67,7.702-3.119,11.67l-0.415,0.345L208.055,65.687L208.055,65.687z"/>
	<path fill="#463014" d="M194.838,58.544c0.004-0.021,2.609-11.405,9.832-17.152c10.188-8.104,22.627-3.793,22.743-3.755l1.812-5.58
		c-0.604-0.195-14.82-4.675-27.928,4.536c-13.182,9.263-14.76,17.66-14.901,18.587L194.838,58.544L194.838,58.544z"/>
	<path fill="#463014" d="M185.318,55.803l0.113-0.766c0.144-0.969,1.795-9.748,15.305-19.245c5.558-3.906,12.218-5.972,19.26-5.972
		c5.342,0,9.115,1.175,9.533,1.309l0.928,0.3l-2.422,7.443l-0.936-0.31c-0.35-0.118-3.49-1.128-7.718-1.128
		c-5.417,0-10.161,1.589-14.098,4.726c-6.907,5.494-9.465,16.487-9.488,16.596l-0.254,1.118L185.318,55.803L185.318,55.803z
		 M226.78,36.43l1.203-3.706c-1.419-0.361-4.292-0.946-7.987-0.946c-6.732,0-12.834,1.89-18.134,5.616
		c-11.088,7.793-13.738,14.835-14.339,17.183l6.652,2.649c0.871-3.093,3.752-11.716,9.889-16.599
		c4.233-3.365,9.529-5.145,15.316-5.145C222.709,35.481,225.39,36.056,226.78,36.43L226.78,36.43L226.78,36.43z"/>
	<path fill="#463014" d="M151.8,299.58c-5.035-5.383-8.014-11.176-8.733-12.955c-0.412-1.014-0.881-2.946,0.596-4.464
		c1.15-1.176,3.146-1.778,5.936-1.778h4.292c4.474,0,9.706,0,12.816,0.003l2.609,0.004c3.665,0,5.47,1.048,6.339,1.927
		c1.264,1.279,1.462,3.059,0.592,5.286c-2.332,5.952-7.621,10.809-9.185,12.155c-2.048,1.768-4.987,2.816-7.876,2.816l0,0
		C156.226,302.574,153.604,301.51,151.8,299.58L151.8,299.58L151.8,299.58z"/>
	<path fill="#463014" d="M156.158,151.104l10.42-0.671c0,0-2.661,4.698-4.388,10.774c-1.95,6.874,1.782,16.918,1.782,16.918
		S150.07,162.386,156.158,151.104L156.158,151.104L156.158,151.104z"/>
	<path fill="#E78724" d="M128.087,113.88c-6.645,0-15.309-0.182-21.809-4.854c0,0,8.512,14.921,21.798,14.921l0.011-1.889
		l0.011,1.889c13.288,0,21.798-14.921,21.798-14.921C143.396,113.698,134.726,113.88,128.087,113.88L128.087,113.88L128.087,113.88z
		"/>
	<path fill="#463014" d="M146.383,113.809c-6.665,4.033-12.617,5.431-18.296,5.555c-5.679-0.124-11.629-1.522-18.296-5.555
		c0,0,9.707,11.844,18.247,11.936v0.007c0.015,0,0.03-0.004,0.048-0.004c0.016,0,0.031,0.004,0.048,0.004v-0.007
		C136.672,125.653,146.383,113.809,146.383,113.809L146.383,113.809L146.383,113.809z"/>
	<path fill="#463014" d="M169.172,330.104l-0.743-9.661c31.298-2.407,41.161-32.402,41.212-35.56h9.691
		C219.336,292.186,206.275,327.252,169.172,330.104L169.172,330.104L169.172,330.104z"/>
	<path fill="#FFFFFF" d="M179.598,267.28c0.584-3.352,0.64-6.53-0.066-9.653c2.824-2.119,7.881-2.906,11.678-4.138
		c3.104-1.966,18.996,2.015,30.523-11.937c14.443-17.468,11.399-27.896,11.399-27.896c3.706,4.113,7.292,2.546,12.94,21.729
		c5.652,19.188-2.657,32.564-18.137,45.993c-7.312,6.344-17.652,8.957-26.545,9.957c2.979-2.99-5.088-3.29-10.645-5.371
		c0.443-4.488-0.303-8.847-3.648-12.355c-2.015-2.116-4.615-3.381-7.308-4.389c-0.151-0.348-0.282-0.67-0.421-1.004
		C179.458,267.912,179.542,267.604,179.598,267.28L179.598,267.28L179.598,267.28z"/>
	<path fill="#C9C9C9" d="M190.814,285.849c0.325-0.942,0.564-1.903,0.803-2.869c0.261-1.056,1.541-4.047-0.039-0.632
		c0.405-0.875,0.671-1.775,0.866-2.684c25.069-0.032,46.88-17.244,42.662-53.432c3.282-4.357,7.88,8.785,7.88,8.785
		s12.552,36.443-19.861,50.566c-10.801,4.711-20.344,8.087-22.598,6.725c-4.694,0.953-8.929-2.318-10.513-4.469
		C190.311,287.18,190.588,286.518,190.814,285.849L190.814,285.849L190.814,285.849z"/>
	<path fill="#463014" d="M180.047,262.033c-0.035-3.055-0.662-6.013-2.135-8.961c-0.105-0.203-0.225-0.396-0.334-0.595
		c9.646-0.083,20.758-1.007,30.219-4.794c10.396-4.159,23.404-18.39,25.641-35.109c0,0,19.584,15.112,13.83,47.459
		c-5.406,30.373-30.819,40.275-59.807,41.951c-0.015-0.197,3.262-6.964,2.227-11.105c16.455,1.195,34.861-5.164,43.752-19.784
		c8.129-13.382,5.849-36.228,2.506-39.575C227.793,257.252,198.446,262.482,180.047,262.033L180.047,262.033L180.047,262.033z"/>
	<path fill="#463014" d="M191.752,269.652c-3.463-3.744-9.83-8.207-24.512-8.207c0,0-27.834-0.016-39.104-0.023l0,0h-0.048h-0.048
		c-11.269,0.008-39.111,0.023-39.111,0.023c-14.677,0-21.044,4.464-24.509,8.207c-5.047,5.448-5.839,13.027-2.347,22.502
		c9.278,25.217,22.317,50.836,65.965,50.873v0.004c0.016,0,0.03-0.004,0.048-0.004c0.016,0,0.031,0.004,0.048,0.004v-0.004
		c43.643-0.039,56.682-25.656,65.963-50.873C197.59,282.68,196.797,275.101,191.752,269.652L191.752,269.652L191.752,269.652z
		 M184.957,290.386c-4.421,12.663-16.301,43.313-56.872,43.366c-40.576-0.053-52.452-30.702-56.873-43.366
		c-2.446-7.025-2.26-12.224,0.573-15.454c1.934-2.207,6.378-4.842,16.507-4.842l10.581-0.005c7.806-0.007,17.606-0.015,29.213-0.02
		c11.604,0.005,21.408,0.013,29.213,0.02l10.576,0.005c10.132,0,14.575,2.633,16.511,4.842
		C187.215,278.164,187.403,283.36,184.957,290.386L184.957,290.386L184.957,290.386z"/>
	<path fill="#463014" d="M177.012,243.611c5.217,15.309,15.87,27.696,15.87,27.696s-14.655-0.667-15.466-3.261
		c-0.595-1.911-13.23-31.49-18.08-66.139C163.895,209.402,176.564,242.301,177.012,243.611L177.012,243.611L177.012,243.611z"/>
</g>
</svg>
