<?xml version="1.0" encoding="utf-8"?>
<!-- Generator: Adobe Illustrator 16.0.0, SVG Export Plug-In . SVG Version: 6.00 Build 0)  -->
<!DOCTYPE svg PUBLIC "-//W3C//DTD SVG 1.1//EN" "http://www.w3.org/Graphics/SVG/1.1/DTD/svg11.dtd">
<svg version="1.1" id="Layer_1" xmlns="http://www.w3.org/2000/svg" xmlns:xlink="http://www.w3.org/1999/xlink" x="0px" y="0px"
	 width="222px" height="222px" viewBox="-1 -1 222 222" enable-background="new -1 -1 222 222" xml:space="preserve">
<text transform="matrix(1 0 0 1 -2.3008 140.333)" fill="#4285F4" font-family="'CatullBQ-Regular'" font-size="90">G</text>
<text transform="matrix(1 0 0 1 -2.3008 140.333)" fill="none" stroke="#4285F4" stroke-width="2" stroke-miterlimit="10" font-family="'CatullBQ-Regular'" font-size="90">G</text>
<text transform="matrix(1 0 0 1 68.9785 140.333)" fill="#0F9D58" font-family="'CatullBQ-Regular'" font-size="90">u</text>
<text transform="matrix(1 0 0 1 68.9785 140.333)" fill="none" stroke="#0F9D58" stroke-width="2" stroke-miterlimit="10" font-family="'CatullBQ-Regular'" font-size="90">u</text>
<text transform="matrix(1 0 0 1 119.5586 140.333)" fill="#F4B400" font-family="'CatullBQ-Regular'" font-size="90">i</text>
<text transform="matrix(1 0 0 1 119.5586 140.333)" fill="none" stroke="#F4B400" stroke-width="2" stroke-miterlimit="10" font-family="'CatullBQ-Regular'" font-size="90">i</text>
<text transform="matrix(1 0 0 1 142.0586 140.333)" fill="#DB4437" font-family="'CatullBQ-Regular'" font-size="90">c</text>
<text transform="matrix(1 0 0 1 142.0586 140.333)" fill="none" stroke="#DB4437" stroke-width="2" stroke-miterlimit="10" font-family="'CatullBQ-Regular'" font-size="90">c</text>
<text transform="matrix(1 0 0 1 177.6992 140.333)" fill="#4285F4" font-family="'CatullBQ-Regular'" font-size="90">e</text>
<text transform="matrix(1 0 0 1 177.6992 140.333)" fill="none" stroke="#4285F4" stroke-width="2" stroke-miterlimit="10" font-family="'CatullBQ-Regular'" font-size="90">e</text>
</svg>
