<?xml version="1.0" encoding="utf-8"?>
<!-- Generator: Adobe Illustrator 16.0.0, SVG Export Plug-In . SVG Version: 6.00 Build 0)  -->
<!DOCTYPE svg PUBLIC "-//W3C//DTD SVG 1.1//EN" "http://www.w3.org/Graphics/SVG/1.1/DTD/svg11.dtd">
<svg version="1.1" id="Layer_1" xmlns="http://www.w3.org/2000/svg" xmlns:xlink="http://www.w3.org/1999/xlink" x="0px" y="0px"
	 width="566px" height="566px" viewBox="-155 0 566 566" enable-background="new -155 0 566 566" xml:space="preserve">
<g>
	<path fill="#D34A47" d="M197.279,548.749l5.428-90.43l14.984-25.58c0,0-34.105,13.952-91.205,13.952
		c-57.1,0-90.689-13.694-90.689-13.694l16.794,27.904l5.941,87.848c0,9.418,31.059,17.052,69.374,17.052
		C166.221,565.801,197.279,558.167,197.279,548.749"/>
	<path fill="#D34A47" d="M180.161,126.454l11.391-45.025l63.081-66.376L238.007,0.892l-66.784,70.707l-13.226,53.793
		c-9.583-0.324-19.584-0.497-29.873-0.497c-70.336,0-127.355,8.016-127.355,17.902c0,9.887,57.019,17.902,127.355,17.902
		c70.335,0,127.353-8.015,127.353-17.902C255.477,135.517,224.553,129.251,180.161,126.454"/>
	<path fill="#FFFFFF" d="M173.535,151.669c0,0-2.467,0.553-9.725,0.584c-7.259,0.03-12.412-0.047-14.465-1.917
		c-0.553-0.502-0.854-1.499-0.852-2.174c0.006-1.285,0.918-2.042,2.08-2.516l1.099,1.724c-0.478,0.165-0.751,0.36-0.752,0.568
		c-0.004,0.976,7.422,1.644,13.103,1.572c5.681-0.07,12.545-0.538,12.551-1.5c0-0.291-0.52-0.565-1.422-0.781l1.094-1.712
		c1.472,0.457,2.757,1.34,2.754,2.868C178.986,150.983,175.68,151.378,173.535,151.669"/>
	<path fill="#D34A47" d="M254.509,15.184c1.587-1.832-0.821-6.518-5.376-10.465c-4.557-3.945-9.537-5.659-11.126-3.827
		c-1.587,1.832,0.821,6.518,5.378,10.463C247.939,15.301,252.922,17.017,254.509,15.184"/>
	<path fill="#D34A47" d="M194.246,327.865c-1.495-14.385,31.462-35.217,23.004-35.883c-18.208,1.041-27.27,21.338-36.432,42.596
		c-3.356,7.791-14.844,41.013-22.377,36.923c-7.532-4.088,9.765-31.407,14.613-47.631c-5.595,4.103-26.109,20.041-31.396,5.114
		c-8.5,7.219-26.663,11.13-24.614-7.834c-4.522,8.011-14.671,19.193-26.853,14.547c-15.998-6.102,9.27-57.062,15.553-54.491
		c6.284,2.569-1.268,14.179-3.246,18.687c-4.35,9.922-9.375,22.394-6.018,24.946c5.751,4.374,21.401-16.547,21.749-17.007
		c2.927-3.867,11.266-29.166,17.987-26.261c6.722,2.906-16.764,36.308-7.983,42.937c1.771,1.338,9.017-0.824,13.425-5.594
		c2.852-3.085,1.871-9.918,11.378-32.59c9.507-22.671,17.979-50.905,24.5-48.754c6.521,2.15,1.146,16.641-1.193,22.043
		c-10.976,25.354-29.956,67.241-21.005,64.071s13.612-3.356,22.377-13.613c8.766-10.258,8.361-27.152,14.203-26.793
		c5.844,0.36,4.863,5.778,3.445,9.903c5.75-6.58,27.257-20.438,32.449-6.714c6.149,16.249-30.77,39.72-21.564,38.523
		c8.975-1.167,23.516-10.376,29.723-18.749l17.088-153.626c0,0-17.195,14.229-126.588,14.229
		c-109.395,0-124.811-13.934-124.811-13.934l14.548,140.224c7.722-21.947,26.059-66.339,54.963-64.849
		c13.148,0.678,30.7,25.995,15.665,26.853c-6.364,0.362-7.01-12.637-14.546-14.546c-5.438-1.378-13.009,3.043-17.902,7.833
		c-9.758,9.55-30.745,47.229-27.972,66.015c3.533,23.949,33.048-8.322,38.042-17.903c3.517-6.749,5.893-26.745,13.585-24.647
		c7.693,2.098-0.671,22.734-6.247,40.979c-6.264,20.487-9.557,42.098-17.408,39.612c-7.852-2.484,4.938-28.933,4.475-33.566
		c-7.38,6.809-20.976,24.047-38.37,15.516l9.035,87.077c0,0,24.013,18.974,96.35,18.974s97.239-18.678,97.239-18.678l11.219-100.857
		C225.156,329.884,196.105,345.756,194.246,327.865"/>
</g>
</svg>
