<?xml version="1.0" encoding="utf-8"?>
<!-- Generator: Adobe Illustrator 16.0.0, SVG Export Plug-In . SVG Version: 6.00 Build 0)  -->
<!DOCTYPE svg PUBLIC "-//W3C//DTD SVG 1.1//EN" "http://www.w3.org/Graphics/SVG/1.1/DTD/svg11.dtd">
<svg version="1.1" id="Layer_1" xmlns="http://www.w3.org/2000/svg" xmlns:xlink="http://www.w3.org/1999/xlink" x="0px" y="0px"
	 width="184px" height="184px" viewBox="18.5 37.5 184 184" enable-background="new 18.5 37.5 184 184" xml:space="preserve">
<title>HTML5 Logo</title>
<polygon fill="#E44D26" points="46.253,202.706 32.069,47 187.932,47 173.731,202.682 109.905,220 "/>
<polygon fill="#F16529" points="110,206.763 161.575,192.769 173.71,59.731 110,59.731 "/>
<polygon fill="#EBEBEB" points="110,117.48 84.18,117.48 82.397,97.925 110,97.925 110,78.828 109.933,78.828 61.072,78.828 
	61.54,83.951 66.335,136.577 110,136.577 "/>
<polygon fill="#EBEBEB" points="110,167.077 109.915,167.099 88.184,161.356 86.794,146.125 76.235,146.125 67.207,146.125 
	69.94,176.11 109.91,186.97 110,186.946 "/>
<polygon fill="#FFFFFF" points="109.933,117.48 109.933,136.577 133.96,136.577 131.695,161.344 109.933,167.093 109.933,186.961 
	149.934,176.11 150.228,172.885 154.812,122.608 155.289,117.48 150.031,117.48 "/>
<polygon fill="#FFFFFF" points="109.933,78.828 109.933,90.689 109.933,97.878 109.933,97.925 157.002,97.925 157.002,97.925 
	157.064,97.925 157.455,93.633 158.345,83.951 158.811,78.828 "/>
</svg>
