<?xml version="1.0" encoding="utf-8"?>
<!-- Generator: Adobe Illustrator 16.0.0, SVG Export Plug-In . SVG Version: 6.00 Build 0)  -->
<!DOCTYPE svg PUBLIC "-//W3C//DTD SVG 1.1//EN" "http://www.w3.org/Graphics/SVG/1.1/DTD/svg11.dtd">
<svg version="1.1" id="Layer_1" xmlns="http://www.w3.org/2000/svg" xmlns:xlink="http://www.w3.org/1999/xlink" x="0px" y="0px"
	 width="190px" height="190px" viewBox="-3 -3 190 190" enable-background="new -3 -3 190 190" xml:space="preserve">
<title>HTML5 Logo</title>
<polygon fill="#E44D26" points="28.321,168.706 14.137,13 170,13 155.799,168.682 91.973,186 "/>
<polygon fill="#F16529" points="92.068,172.764 143.644,158.77 155.778,25.731 92.068,25.731 "/>
<polygon fill="#EBEBEB" points="92.068,83.48 66.249,83.48 64.465,63.925 92.068,63.925 92.068,44.828 92.002,44.828 43.14,44.828 
	43.608,49.951 48.403,102.577 92.068,102.577 "/>
<polygon fill="#EBEBEB" points="92.068,133.077 91.983,133.1 70.252,127.355 68.862,112.125 58.303,112.125 49.275,112.125 
	52.008,142.109 91.979,152.971 92.068,152.945 "/>
<polygon fill="#FFFFFF" points="92.002,83.48 92.002,102.577 116.028,102.577 113.764,127.344 92.002,133.093 92.002,152.961 
	132.002,142.109 132.297,138.885 136.881,88.607 137.357,83.48 132.1,83.48 "/>
<polygon fill="#FFFFFF" points="92.002,44.828 92.002,56.689 92.002,63.878 92.002,63.925 139.07,63.925 139.07,63.925 
	139.133,63.925 139.523,59.633 140.414,49.951 140.879,44.828 "/>
</svg>
