<?xml version="1.0" encoding="utf-8"?>
<!-- Generator: Adobe Illustrator 16.0.0, SVG Export Plug-In . SVG Version: 6.00 Build 0)  -->
<!DOCTYPE svg PUBLIC "-//W3C//DTD SVG 1.1//EN" "http://www.w3.org/Graphics/SVG/1.1/DTD/svg11.dtd">
<svg version="1.1" id="Lager_1" xmlns="http://www.w3.org/2000/svg" xmlns:xlink="http://www.w3.org/1999/xlink" x="0px" y="0px"
	 width="171.875px" height="171.875px" viewBox="24.062 24.062 171.875 171.875"
	 enable-background="new 24.062 24.062 171.875 171.875" xml:space="preserve">
<g>
	<g>
		<path fill="#3969B2" d="M87.255,153.498l4.386-2.58l-4.903,1.291c-7.225,2.062-8.257,4.385-8.257,6.191
			c0.516,4.645,12.386,8.258,26.062,8.258c7.225,0,17.805-1.033,28.641-5.678l1.55-0.516l-1.55-0.516
			c-4.902-2.064-8.772-4.129-8.772-4.129l-0.258-0.258h-0.258c-8.774,1.547-14.192,2.322-19.869,2.322
			c-3.612,0-7.483-0.258-12.902-0.775c-4.903-0.516-5.418-1.547-5.418-1.805C85.707,154.529,86.48,153.756,87.255,153.498z"/>
		<path fill="#3969B2" d="M138.087,143.434l-1.806-0.773c-3.871-1.289-6.193-3.869-6.451-3.869l-0.258-0.258h-0.258
			c-10.58,2.062-18.837,2.838-27.094,2.838c-4.644,0-9.289-0.258-15.482-1.033c-4.128-0.516-5.16-1.547-5.16-2.062
			c-0.258-1.033,1.29-2.582,1.806-3.098l3.097-2.322l-3.871,1.291c-6.451,2.062-9.547,4.387-9.031,6.967
			c0.774,4.387,12.128,7.225,27.868,7.225c11.611,0,23.997-1.807,34.577-4.904H138.087z"/>
		<path fill="#F3492C" d="M108.413,85.12c-2.064,6.451,0,13.675,6.45,20.9c2.065,2.322,3.098,4.903,2.839,7.484
			c-0.516,4.902-4.645,8.514-4.645,8.514l-4.645,3.871l5.419-2.838c0.516-0.26,11.096-5.678,12.901-13.935
			c0.773-3.354,0-6.708-2.064-9.805l-1.031-1.548c-3.355-4.903-6.193-8.515-5.161-12.902c1.29-5.935,9.289-12.644,26.062-22.449
			l3.869-2.322l-4.386,1.032C142.474,61.639,113.315,68.863,108.413,85.12z"/>
		<path fill="#3969B2" d="M100.415,182.139c34.319,0,58.573-6.451,59.863-12.643c0.258-1.033-0.258-2.838-3.354-4.387l-4.388-2.064
			l3.613,3.098c0,0,1.032,0.773,0.774,1.805c-0.259,0.775-1.032,2.322-5.678,3.613c-9.03,3.096-29.674,5.16-50.058,5.16
			c-19.095,0-33.803-1.549-40.253-4.387c-0.774-0.258-1.291-0.773-1.291-1.033c0.258-1.289,5.677-3.611,9.547-4.385
			c2.581-0.516,4.128-0.516,4.903-0.516c0.258,0,0.258,0,0.258,0l2.322,0.258l-1.806-1.807c-1.032-0.775-2.581-1.033-4.645-1.033
			c-7.482,0-21.674,5.162-22.19,9.807c-0.258,2.322,2.58,4.129,8.515,4.902C71.257,180.85,85.964,182.139,100.415,182.139
			L100.415,182.139z"/>
		<path fill="#3969B2" d="M93.964,131.824c15.739,0,30.447-1.549,41.027-4.387h0.258c3.096-2.064,7.225-3.871,7.225-3.871
			l5.16-2.322l-5.676,1.289c0,0-12.128,2.066-23.997,3.098c-8.258,0.773-17.03,1.031-24.514,1.031
			c-5.676,0-10.579-0.258-13.676-0.773c-5.676-0.773-5.676-1.807-5.676-1.807c0-1.549,8.257-4.387,15.998-6.449l4.129-1.033
			l-4.129-0.258c0,0-0.516,0-1.032,0c-3.613,0-13.16,0.516-24.255,5.934c-1.033,0.516-3.613,1.807-3.354,3.613
			C61.968,130.533,79.255,131.824,93.964,131.824z"/>
		<path fill="#3969B2" d="M144.538,118.406l-1.032,1.807l1.806-0.775c0,0,1.032-0.516,3.355-0.773c0.516,0,1.031-0.258,1.806-0.258
			c3.611,0,7.999,2.322,9.03,6.709c0.774,3.096,0.517,11.352-17.545,20.643H141.7v0.258c0,0.258-0.26,0.516-0.518,0.516
			l-2.063,1.807l2.581-0.775c20.384-5.418,26.835-14.965,25.802-22.189c-0.773-6.193-6.449-10.58-13.676-10.58
			c-2.063,0-4.128,0.258-6.192,1.031C145.569,116.857,144.538,118.406,144.538,118.406z"/>
		<path fill="#F3492C" d="M107.639,117.373l2.322,2.064l-1.29-2.838c-1.29-3.096-3.613-6.193-5.677-9.031
			c-6.967-10.063-14.192-20.126,5.418-35.608c12.901-10.063,19.61-20.126,20.126-29.674c0.516-8.515-4.128-13.16-4.386-13.417
			l-1.548-1.806l0.516,2.322c4.386,17.289-7.482,26.577-19.094,35.608c-5.677,4.645-11.612,9.289-15.482,14.708
			C80.804,91.57,93.189,104.214,107.639,117.373z"/>
		<path fill="#3969B2" d="M166.212,173.625c0,0-2.58,4.902-23.222,8.771c-11.87,2.324-25.804,3.355-40.254,3.355
			c-11.869,0-23.481-0.773-32.253-2.322l-2.323-0.516l2.064,1.549c0.517,0.258,4.645,3.096,22.965,4.385
			c5.161,0.258,10.838,0.516,16.256,0.516l0,0c27.609,0,57.541-4.127,58.314-15.738l0.258-3.613L166.212,173.625z"/>
	</g>
</g>
</svg>
