<?xml version="1.0" encoding="utf-8"?>
<!-- Generator: Adobe Illustrator 16.0.0, SVG Export Plug-In . SVG Version: 6.00 Build 0)  -->
<!DOCTYPE svg PUBLIC "-//W3C//DTD SVG 1.1//EN" "http://www.w3.org/Graphics/SVG/1.1/DTD/svg11.dtd">
<svg version="1.1" id="Layer_1" xmlns="http://www.w3.org/2000/svg" xmlns:xlink="http://www.w3.org/1999/xlink" x="0px" y="0px"
	 width="290px" height="290px" viewBox="-17 -3.637 290 290" enable-background="new -17 -3.637 290 290" xml:space="preserve">
<g>
	<path fill="#C63D14" d="M239.973,153.84c0-14.534-11.782-26.316-26.316-26.316c-0.935,0-1.856,0.05-2.766,0.145l36.145-106.605
		H93.432l36.094,106.513c-0.529-0.032-1.061-0.053-1.599-0.053c-14.534,0-26.316,11.782-26.316,26.316
		c0,11.748,7.699,21.693,18.326,25.078c-5.613,9.722-12.675,18.478-20.693,26.042c-10.903,10.286-23.381,18.085-36.876,22.891
		c-16.068-8.254-23.656-26.612-16.809-42.707c0.773-1.817,1.562-3.659,2.317-5.493c11.64-2.718,20.314-13.154,20.314-25.621
		c0-14.535-11.782-26.316-26.316-26.316c-14.535,0-26.317,11.782-26.317,26.316c0,8.912,4.435,16.783,11.213,21.545
		c-6.514,14.83-16.088,30.351-19.071,48.338c-3.575,21.56-0.011,44.443,18.634,57.367c43.424,30.096,90.56-18.658,140.259-30.914
		c18.011-4.441,37.781-3.726,53.65-12.916c11.918-6.902,19.773-18.34,22.004-31.183c2.201-12.687-1.01-25.317-8.394-35.56
		C237.672,166.14,239.973,160.26,239.973,153.84L239.973,153.84z M154.24,153.933c0-0.03,0.004-0.062,0.004-0.093
		c0-9.544-5.082-17.902-12.687-22.515l28.728-58.091l28.778,58.707c-7.067,4.718-11.724,12.764-11.724,21.899
		c0,0.191,0.011,0.381,0.015,0.572L154.24,153.933L154.24,153.933z"/>
	<path fill="#FFFFFF" d="M246.398,153.84c0-15.985-11.517-29.323-26.688-32.172L256,14.637H84.466l36.344,107.248
		c-14.643,3.259-25.627,16.345-25.627,31.955c0,11.723,6.195,22.02,15.48,27.806c-4.466,6.653-9.762,12.914-15.831,18.64
		c-9.624,9.08-20.347,15.966-31.907,20.496c-11.643-7.314-16.565-21.106-11.453-33.123l0.4-0.939
		c0.25-0.588,0.501-1.178,0.751-1.768c12.788-4.459,21.993-16.633,21.993-30.922c0-18.056-14.689-32.744-32.744-32.744
		S9.129,135.974,9.129,154.029c0,9.112,3.745,17.364,9.773,23.307c-1.093,2.33-2.242,4.697-3.423,7.124
		C9.967,195.781,3.72,208.613,1.357,222.861c-4.693,28.299,2.876,50.922,21.313,63.699c11.188,7.754,22.549,10.805,33.982,10.803
		c21.529,0,43.306-10.815,64.606-21.396c15.342-7.619,31.203-15.498,46.872-19.362c5.83-1.438,11.829-2.303,18.181-3.219
		c12.594-1.816,25.617-3.695,37.153-10.376c13.371-7.745,22.525-20.737,25.113-35.644c2.222-12.797-0.453-25.613-6.976-36.483
		C244.643,165.916,246.398,160.08,246.398,153.84L246.398,153.84z M233.545,153.84c0,10.967-8.922,19.89-19.89,19.89
		c-10.966,0-19.89-8.923-19.89-19.89s8.924-19.889,19.89-19.889C224.623,133.951,233.545,142.873,233.545,153.84L233.545,153.84z
		 M238.068,27.491l-32.045,94.513c-1.389,0.333-2.742,0.753-4.058,1.258l-31.655-64.578l-31.748,64.196
		c-1.373-0.473-2.785-0.862-4.232-1.15l-31.935-94.239H238.068L238.068,27.491z M127.926,133.951
		c10.966,0,19.888,8.922,19.888,19.889s-8.922,19.89-19.888,19.89s-19.889-8.923-19.889-19.89S116.96,133.951,127.926,133.951
		L127.926,133.951z M41.872,134.14c10.968,0,19.89,8.922,19.89,19.89c0,10.967-8.922,19.89-19.89,19.89
		c-10.966,0-19.889-8.923-19.889-19.89C21.983,143.062,30.906,134.14,41.872,134.14L41.872,134.14z M235.912,205.168
		c-1.936,11.148-8.821,20.887-18.891,26.719c-9.388,5.438-20.637,7.061-32.547,8.777c-6.379,0.92-12.978,1.871-19.422,3.462
		c-17.043,4.202-33.55,12.401-49.513,20.329c-31.945,15.867-59.534,29.57-85.547,11.541c-19.055-13.207-18.175-37.642-15.955-51.031
		c2.057-12.405,7.619-23.83,12.998-34.879c0.931-1.912,1.835-3.785,2.722-5.646c2.668,1.067,5.505,1.795,8.462,2.124
		c-5.475,18.071,3.136,37.72,21.209,47.005l2.473,1.271l2.62-0.933c14.288-5.088,27.453-13.254,39.131-24.271
		c7.549-7.121,14.036-15,19.37-23.419c1.6,0.241,3.237,0.368,4.903,0.368c18.054,0,32.744-14.688,32.744-32.744
		c0-9.71-4.253-18.442-10.988-24.444l20.577-41.612l20.787,42.405c-6.237,5.966-10.134,14.359-10.134,23.651
		c0,18.056,14.688,32.744,32.743,32.744c6.937,0,13.372-2.174,18.672-5.868C236.007,188.248,237.378,196.725,235.912,205.168
		L235.912,205.168z"/>
</g>
</svg>
