<?xml version="1.0" encoding="utf-8"?>
<!-- Generator: Adobe Illustrator 16.0.0, SVG Export Plug-In . SVG Version: 6.00 Build 0)  -->
<!DOCTYPE svg PUBLIC "-//W3C//DTD SVG 1.1//EN" "http://www.w3.org/Graphics/SVG/1.1/DTD/svg11.dtd">
<svg version="1.1" id="Layer_1" xmlns="http://www.w3.org/2000/svg" xmlns:xlink="http://www.w3.org/1999/xlink" x="0px" y="0px"
	 width="110px" height="110px" viewBox="-5 -5 110 110" enable-background="new -5 -5 110 110" xml:space="preserve">
<path fill="#0868AC" d="M9.979,28.509c-8.335,11.98-7.297,27.566-0.93,40.296c0.151,0.305,0.31,0.605,0.466,0.905
	c0.1,0.19,0.194,0.386,0.298,0.573c0.059,0.111,0.125,0.223,0.186,0.33c0.108,0.203,0.22,0.396,0.332,0.594
	c0.198,0.35,0.4,0.695,0.608,1.042c0.115,0.19,0.228,0.381,0.347,0.571c0.229,0.371,0.465,0.736,0.706,1.104
	c0.1,0.156,0.198,0.312,0.3,0.465c0.332,0.494,0.671,0.988,1.021,1.475c0.009,0.013,0.019,0.025,0.029,0.037
	c0.055,0.078,0.116,0.154,0.172,0.232c0.303,0.418,0.615,0.83,0.931,1.238c0.116,0.148,0.233,0.298,0.351,0.445
	c0.282,0.354,0.569,0.707,0.86,1.059c0.109,0.131,0.219,0.264,0.329,0.393c0.392,0.461,0.791,0.92,1.199,1.369
	c0.007,0.008,0.017,0.018,0.024,0.025c0.017,0.02,0.032,0.031,0.046,0.051c0.398,0.436,0.806,0.859,1.218,1.284
	c0.128,0.132,0.259,0.264,0.391,0.394c0.32,0.322,0.645,0.639,0.973,0.955c0.133,0.127,0.265,0.256,0.398,0.377
	c0.438,0.413,0.881,0.818,1.333,1.215c0.008,0.006,0.014,0.013,0.021,0.017c0.077,0.067,0.156,0.133,0.232,0.198
	c0.398,0.345,0.803,0.687,1.211,1.021c0.166,0.135,0.334,0.268,0.501,0.4c0.333,0.267,0.67,0.529,1.01,0.789
	c0.179,0.137,0.359,0.272,0.54,0.41c0.375,0.274,0.752,0.547,1.133,0.812c0.139,0.101,0.273,0.198,0.413,0.293
	c0.039,0.026,0.074,0.056,0.113,0.081c0.361,0.249,0.731,0.488,1.1,0.729c0.159,0.104,0.316,0.215,0.476,0.316
	c0.566,0.357,1.141,0.713,1.722,1.055c0.158,0.092,0.317,0.18,0.476,0.27c0.427,0.246,0.857,0.488,1.292,0.725
	c0.236,0.127,0.478,0.247,0.716,0.369c0.307,0.161,0.612,0.324,0.925,0.48c0.071,0.035,0.145,0.068,0.214,0.104
	c0.126,0.061,0.252,0.119,0.378,0.184c0.484,0.23,0.973,0.459,1.466,0.679c0.105,0.047,0.206,0.093,0.31,0.139
	c0.565,0.247,1.135,0.484,1.71,0.711c0.138,0.058,0.277,0.109,0.417,0.164c0.532,0.205,1.072,0.407,1.614,0.599
	c0.068,0.023,0.134,0.047,0.203,0.069c0.594,0.208,1.195,0.4,1.799,0.589c0.144,0.043,0.289,0.088,0.435,0.131
	c0.615,0.186,1.223,0.406,1.858,0.523c40.31,7.352,52.019-24.225,52.019-24.225C86.035,85.38,68.58,88.76,52.041,84.997
	c-0.626-0.142-1.234-0.337-1.846-0.519c-0.155-0.045-0.308-0.093-0.46-0.14c-0.597-0.183-1.189-0.375-1.777-0.578
	c-0.081-0.028-0.162-0.059-0.244-0.088c-0.527-0.187-1.048-0.381-1.567-0.581c-0.146-0.059-0.293-0.113-0.439-0.173
	c-0.569-0.226-1.134-0.459-1.692-0.703c-0.115-0.049-0.225-0.101-0.338-0.149c-0.48-0.217-0.955-0.437-1.427-0.664
	c-0.137-0.064-0.273-0.129-0.413-0.197c-0.371-0.182-0.738-0.373-1.104-0.562c-0.245-0.129-0.494-0.25-0.737-0.386
	c-0.447-0.239-0.886-0.487-1.323-0.741c-0.148-0.084-0.298-0.164-0.447-0.25c-0.581-0.342-1.155-0.695-1.723-1.056
	c-0.157-0.101-0.31-0.207-0.465-0.31c-0.412-0.267-0.822-0.536-1.226-0.815c-0.134-0.09-0.263-0.188-0.395-0.276
	c-0.39-0.275-0.776-0.556-1.159-0.838c-0.174-0.13-0.345-0.261-0.514-0.39c-0.351-0.269-0.7-0.539-1.046-0.817
	c-0.156-0.123-0.312-0.248-0.466-0.373c-0.439-0.361-0.874-0.726-1.303-1.099c-0.045-0.039-0.094-0.078-0.143-0.12
	c-0.464-0.406-0.919-0.824-1.37-1.245c-0.131-0.125-0.258-0.245-0.386-0.37c-0.333-0.317-0.662-0.638-0.984-0.966
	c-0.129-0.129-0.259-0.256-0.386-0.385c-0.41-0.42-0.813-0.847-1.208-1.276c-0.02-0.021-0.04-0.041-0.06-0.063
	c-0.417-0.456-0.825-0.923-1.225-1.394c-0.108-0.131-0.213-0.255-0.321-0.382c-0.298-0.358-0.593-0.723-0.881-1.09
	c-0.108-0.131-0.216-0.267-0.323-0.401c-0.347-0.451-0.686-0.899-1.018-1.355c-9.182-12.525-12.481-29.8-5.142-43.987"/>
<path fill="#0868AC" d="M35.852,18.416c-6.028,8.674-5.701,20.286-0.999,29.46c0.789,1.538,1.675,3.03,2.666,4.451
	c0.903,1.294,1.904,2.834,3.103,3.875c0.435,0.479,0.889,0.944,1.353,1.403c0.117,0.121,0.237,0.234,0.356,0.353
	c0.45,0.437,0.908,0.867,1.382,1.284c0.02,0.015,0.037,0.033,0.056,0.049c0.005,0.005,0.01,0.007,0.013,0.014
	c0.524,0.459,1.064,0.9,1.614,1.334c0.122,0.094,0.243,0.19,0.366,0.286c0.551,0.423,1.112,0.837,1.688,1.232
	c0.017,0.012,0.031,0.024,0.049,0.036c0.254,0.177,0.513,0.34,0.77,0.509c0.124,0.08,0.241,0.166,0.365,0.241
	c0.411,0.264,0.828,0.521,1.251,0.767c0.06,0.037,0.119,0.067,0.177,0.103c0.365,0.211,0.735,0.418,1.106,0.619
	c0.129,0.071,0.262,0.137,0.393,0.204c0.256,0.134,0.514,0.271,0.774,0.4c0.039,0.019,0.079,0.036,0.117,0.053
	c0.53,0.263,1.067,0.515,1.614,0.752c0.117,0.052,0.238,0.099,0.355,0.146c0.438,0.187,0.879,0.367,1.323,0.537
	c0.188,0.072,0.378,0.141,0.565,0.209c0.403,0.148,0.808,0.285,1.215,0.422c0.185,0.06,0.365,0.119,0.55,0.177
	c0.579,0.181,1.151,0.407,1.756,0.508c31.123,5.156,38.308-18.807,38.308-18.807c-6.477,9.329-19.02,13.778-32.404,10.305
	c-0.596-0.155-1.182-0.327-1.764-0.51c-0.178-0.054-0.353-0.112-0.529-0.171c-0.414-0.135-0.825-0.276-1.233-0.426
	c-0.187-0.067-0.374-0.137-0.558-0.207c-0.446-0.172-0.889-0.35-1.326-0.535c-0.12-0.051-0.24-0.098-0.357-0.151
	c-0.549-0.239-1.09-0.491-1.624-0.754c-0.274-0.134-0.544-0.276-0.813-0.415c-0.156-0.081-0.313-0.161-0.471-0.242
	c-0.347-0.188-0.69-0.383-1.029-0.58c-0.081-0.047-0.166-0.091-0.247-0.14c-0.421-0.247-0.837-0.5-1.248-0.763
	c-0.127-0.08-0.249-0.168-0.376-0.25c-0.271-0.176-0.542-0.354-0.809-0.535c-0.574-0.396-1.132-0.811-1.682-1.23
	c-0.127-0.1-0.254-0.197-0.378-0.298c-5.859-4.626-10.503-10.947-12.711-18.115c-2.314-7.434-1.815-15.779,2.194-22.551"/>
<path fill="#0868AC" d="M57.613,10.875c-3.553,5.229-3.902,11.724-1.438,17.5c2.6,6.13,7.928,10.94,14.147,13.22
	c0.256,0.095,0.513,0.181,0.772,0.269c0.113,0.034,0.225,0.073,0.34,0.107c0.366,0.115,0.73,0.249,1.108,0.32
	c17.185,3.32,21.847-8.818,23.087-10.605c-4.083,5.879-10.945,7.29-19.363,5.247c-0.666-0.162-1.396-0.402-2.037-0.629
	c-0.822-0.293-1.633-0.627-2.42-1.005c-1.494-0.718-2.92-1.59-4.24-2.588c-7.534-5.716-12.215-16.621-7.299-25.502"/>
</svg>
