<?xml version="1.0" encoding="utf-8"?>
<!-- Generator: Adobe Illustrator 16.0.0, SVG Export Plug-In . SVG Version: 6.00 Build 0)  -->
<!DOCTYPE svg PUBLIC "-//W3C//DTD SVG 1.1//EN" "http://www.w3.org/Graphics/SVG/1.1/DTD/svg11.dtd">
<svg version="1.1" id="Layer_1" xmlns="http://www.w3.org/2000/svg" xmlns:xlink="http://www.w3.org/1999/xlink" x="0px" y="0px"
	 width="280px" height="280px" viewBox="110 -40 280 280" enable-background="new 110 -40 280 280" xml:space="preserve">
<g>
	<g id="svg_5">
		<title>Layer 1</title>
		<path id="svg_2" d="M141.33,24h20.261v134.456h80.121v16.577H141.33V24z M296.967,63.6c13.814-1.842,28.55,0.921,39.601,10.13
			c11.972,8.288,18.419,23.023,19.34,36.837c1.842,16.577,0,33.153-9.21,46.968c-8.288,11.051-21.181,18.418-35.916,19.34
			c-13.814,1.842-29.47-0.922-41.441-10.131c-11.051-9.209-16.577-23.023-18.419-36.837c-1.842-14.735,0-31.312,9.21-44.205
			C267.498,72.809,282.232,64.521,296.967,63.6z"/>
		<path id="svg_3" fill="#FFFFFF" d="M299.73,79.256c9.209-0.921,19.339,1.842,26.707,8.288c6.446,7.368,10.13,16.577,11.051,25.786
			c0.921,10.131,0,21.182-4.604,30.391s-12.894,15.656-23.023,17.498c-9.209,1.842-19.339-0.921-25.786-6.447
			c-7.367-5.525-11.972-13.813-13.814-22.102c-1.842-11.973-0.92-23.944,3.685-34.996C278.549,87.544,288.68,80.177,299.73,79.256z"
			/>
		<path id="svg_4" fill="#3492FF" d="M141.33,198.977h217.34V222H141.33V198.977z"/>
	</g>
</g>
</svg>
