<?xml version="1.0" encoding="utf-8"?>
<!-- Generator: Adobe Illustrator 16.0.0, SVG Export Plug-In . SVG Version: 6.00 Build 0)  -->
<!DOCTYPE svg PUBLIC "-//W3C//DTD SVG 1.1//EN" "http://www.w3.org/Graphics/SVG/1.1/DTD/svg11.dtd">
<svg version="1.1"
	 id="Layer_1" xmlns:dc="http://purl.org/dc/elements/1.1/" xmlns:cc="http://creativecommons.org/ns#" xmlns:rdf="http://www.w3.org/1999/02/22-rdf-syntax-ns#" xmlns:svg="http://www.w3.org/2000/svg" xmlns:sodipodi="http://sodipodi.sourceforge.net/DTD/sodipodi-0.dtd" xmlns:inkscape="http://www.inkscape.org/namespaces/inkscape" inkscape:export-xdpi="90" inkscape:export-filename="/Users/boneskull/Downloads/mocha-logo-192.png" sodipodi:docname="mocha-logo.svg" inkscape:version="0.91 r13725" inkscape:export-ydpi="90"
	 xmlns="http://www.w3.org/2000/svg" xmlns:xlink="http://www.w3.org/1999/xlink" x="0px" y="0px" width="178px" height="178px"
	 viewBox="7 7 178 178" enable-background="new 7 7 178 178" xml:space="preserve">
<title  id="title4160">Mocha Logo</title>
<sodipodi:namedview  pagecolor="#ffffff" bordercolor="#666666" borderopacity="1" objecttolerance="10" guidetolerance="10" showgrid="false" gridtolerance="10" fit-margin-top="5" fit-margin-left="5" inkscape:zoom="1" inkscape:cx="96" inkscape:cy="98.137283" id="namedview28" inkscape:current-layer="Layer_1" inkscape:window-maximized="0" inkscape:window-y="23" inkscape:window-x="1360" fit-margin-bottom="5" fit-margin-right="5" inkscape:pageopacity="0" inkscape:window-width="1920" inkscape:window-height="1031" inkscape:pageshadow="2">
	</sodipodi:namedview>
<path id="XMLID_229_" inkscape:connector-curvature="0" fill="#8D6748" d="M169.474,143.901l-68.702,39.694
	c-2.959,1.718-6.584,1.718-9.542,0l-68.703-39.694c-2.958-1.718-4.771-4.866-4.771-8.206v-79.39c0-3.435,1.813-6.489,4.771-8.207
	L91.229,8.404c2.958-1.717,6.583-1.717,9.542,0l68.702,39.695c2.958,1.718,4.771,4.867,4.771,8.207v79.39
	C174.149,139.035,172.336,142.184,169.474,143.901L169.474,143.901z"/>
<path id="XMLID_262_" inkscape:connector-curvature="0" fill="#FFFFFF" d="M95.905,22.049L95.905,22.049
	c0.955,0,1.813,0.287,2.671,0.764l59.352,34.256c1.623,0.954,2.672,2.767,2.672,4.676v68.512c0,1.908-1.049,3.722-2.672,4.676
	l-59.352,34.256c-0.858,0.477-1.717,0.764-2.671,0.764s-1.909-0.287-2.672-0.764l-59.352-34.256
	c-1.622-0.954-2.672-2.768-2.672-4.676V61.744c0-1.909,1.05-3.722,2.672-4.676l59.352-34.256
	C94.092,22.335,95.046,22.049,95.905,22.049 M95.905,19.187c-1.432,0-2.863,0.382-4.104,1.145L32.45,54.587
	c-2.576,1.431-4.103,4.199-4.103,7.061v68.512c0,2.959,1.527,5.631,4.103,7.062l59.352,34.256c1.241,0.764,2.672,1.146,4.104,1.146
	c1.431,0,2.863-0.382,4.103-1.146l59.352-34.256c2.576-1.431,4.104-4.198,4.104-7.062V61.648c0-2.958-1.527-5.63-4.104-7.061
	l-59.352-34.256C98.768,19.568,97.336,19.187,95.905,19.187L95.905,19.187z"/>
<g id="XMLID_228_" transform="matrix(0.95420602,0,0,0.95420602,5.4935566,-4.7641653)">
	<g id="XMLID_223_">
		<g id="XMLID_295_">
			<path id="path8" inkscape:connector-curvature="0" fill="#FFFFFF" d="M103.6,69.6c0-0.5-0.4-1-1.001-1H93.2h-9.4
				c-0.5,0-1,0.4-1,1c0,3.4,0.5,15.1,5.5,20.8c0.2,0.2,0.4,0.3,0.7,0.3h8.4c0.3,0,0.499-0.1,0.7-0.3
				C103.1,84.8,103.6,73.1,103.6,69.6z M96.2,87.8h-5.9c-0.3,0-0.5-0.1-0.7-0.3c-3.4-4-3.8-12-3.9-14.8c0-0.5,0.4-1,1-1h6.6h6.6
				c0.5,0,1.001,0.4,1.001,1c0,2.8-0.5,10.7-3.9,14.8C96.7,87.7,96.5,87.8,96.2,87.8z"/>
		</g>
	</g>
	<path id="XMLID_225_" inkscape:connector-curvature="0" fill="#FFFFFF" d="M95.1,66.6c0,0,3.6-2.1,1.4-5.9c-1.3-2-1.9-3.7-1.4-4.4
		c-1.3,1.6-3.5,3.3-1.1,6.9C94.8,64.1,95.2,66,95.1,66.6z"/>
	<path id="XMLID_224_" inkscape:connector-curvature="0" fill="#FFFFFF" d="M91.1,66.9c0,0,2.4-1.4,0.9-4c-0.9-1.3-1.3-2.5-0.9-2.9
		c-0.9,1.1-2.3,2.2-0.7,4.7C90.9,65.2,91.1,66.5,91.1,66.9z"/>
	<path id="XMLID_227_" inkscape:connector-curvature="0" fill="#FFFFFF" d="M99.3,78.5c-0.399,2.7-1.199,5.8-2.9,7.8
		c-0.2,0.2-0.399,0.3-0.6,0.3h-5c-0.2,0-0.5-0.1-0.6-0.3c-1.2-1.5-2-3.5-2.5-5.6c0,0,5.8,0.8,9.101-0.4
		C99.2,79.4,99.3,78.5,99.3,78.5z"/>
</g>
<g id="g13" transform="matrix(0.95420602,0,0,0.95420602,5.4935566,-4.7641653)">
	<path id="path15" inkscape:connector-curvature="0" fill="#FFFFFF" d="M33.6,94.7h3.7l6.1,9.4l6.1-9.4h3.7v20h-3.5v-14.3l-6.3,9.4
		h-0.1l-6.2-9.3v14.3h-3.5V94.7z"/>
	<path id="path17" inkscape:connector-curvature="0" fill="#FFFFFF" d="M71.3,115c-1.5,0-2.9-0.3-4.2-0.8
		c-1.3-0.5-2.4-1.3-3.3-2.199c-0.9-0.901-1.6-2.001-2.1-3.301c-0.5-1.2-0.8-2.6-0.8-4v-0.1c0-1.4,0.3-2.7,0.8-4
		c0.5-1.2,1.2-2.3,2.2-3.3c0.9-0.9,2-1.7,3.3-2.2c1.3-0.6,2.7-0.8,4.2-0.8c1.5,0,2.9,0.3,4.2,0.8c1.3,0.5,2.4,1.3,3.3,2.2
		c0.9,0.9,1.6,2,2.1,3.3c0.5,1.2,0.8,2.6,0.8,4v0.1c0,1.4-0.3,2.7-0.8,4c-0.5,1.201-1.2,2.3-2.2,3.301c-0.9,0.9-2,1.699-3.3,2.199
		C74.2,114.801,72.8,115,71.3,115z M71.3,111.8c1,0,1.9-0.201,2.7-0.6c0.8-0.4,1.5-0.901,2.1-1.5c0.6-0.6,1-1.4,1.4-2.2
		c0.3-0.9,0.5-1.8,0.5-2.699v-0.1c0-1-0.2-1.9-0.5-2.8c-0.3-0.9-0.8-1.6-1.4-2.3c-0.6-0.6-1.3-1.1-2.1-1.5c-0.8-0.4-1.7-0.6-2.7-0.6
		c-1,0-1.9,0.2-2.7,0.6c-0.8,0.4-1.5,0.9-2.1,1.5c-0.6,0.6-1,1.4-1.4,2.2c-0.3,0.9-0.5,1.8-0.5,2.7v0.1c0,1,0.2,1.901,0.5,2.8
		s0.8,1.6,1.4,2.3c0.6,0.6,1.3,1.1,2.1,1.5C69.4,111.599,70.4,111.8,71.3,111.8z"/>
	<path id="path19" inkscape:connector-curvature="0" fill="#FFFFFF" d="M98.7,115c-1.5,0-2.8-0.3-4-0.8c-1.2-0.5-2.3-1.3-3.2-2.199
		c-0.9-0.901-1.6-2.001-2.1-3.301c-0.5-1.3-0.8-2.6-0.8-4v-0.1c0-1.4,0.3-2.8,0.8-4c0.5-1.2,1.2-2.3,2.1-3.3c0.9-0.9,2-1.7,3.3-2.2
		c1.301-0.5,2.601-0.8,4.2-0.8c0.9,0,1.7,0.1,2.5,0.2c0.8,0.2,1.4,0.4,2.1,0.6c0.6,0.3,1.199,0.6,1.7,1c0.5,0.4,1,0.8,1.499,1.3
		l-2.3,2.6c-0.799-0.7-1.6-1.3-2.5-1.8c-0.9-0.5-1.899-0.7-3.099-0.7c-1.001,0-1.801,0.2-2.601,0.6c-0.8,0.4-1.5,0.9-2.1,1.5
		c-0.6,0.6-1,1.4-1.4,2.2c-0.3,0.9-0.5,1.8-0.5,2.7v0.1c0,1,0.2,1.901,0.5,2.8s0.8,1.6,1.4,2.3c0.6,0.6,1.3,1.199,2.1,1.5
		c0.799,0.3,1.7,0.6,2.601,0.6c1.199,0,2.299-0.201,3.099-0.7c0.8-0.499,1.701-1.1,2.601-1.9l2.3,2.3c-0.499,0.6-1,1-1.6,1.499
		c-0.601,0.5-1.201,0.8-1.8,1.101c-0.6,0.299-1.4,0.6-2.1,0.7C100.499,115,99.6,115,98.7,115z"/>
	<path id="path21" inkscape:connector-curvature="0" fill="#FFFFFF" d="M113.9,94.7h3.5v8.3h9.6v-8.3h3.5v20H127v-8.4h-9.6v8.4h-3.5
		V94.7z"/>
	<path id="path23" inkscape:connector-curvature="0" fill="#FFFFFF" d="M146,94.6h3.2L158,114.7h-3.7l-2-4.8h-9.4l-2.1,4.8h-3.6
		L146,94.6z M150.999,106.799l-3.4-8l-3.4,8H150.999L150.999,106.799z"/>
</g>
<rect id="XMLID_444_" x="35.169" y="110.695" fill="#FFFFFF" width="121.661" height="1.049"/>
<path id="XMLID_446_" inkscape:connector-curvature="0" fill="#FFFFFF" d="M156.83,74.816h-51.717c0,0.382-0.096,0.668-0.096,1.05
	h51.812V74.816L156.83,74.816z"/>
<path id="XMLID_448_" inkscape:connector-curvature="0" fill="#FFFFFF" d="M35.169,74.816v1.05h48.76
	c0-0.382-0.095-0.668-0.095-1.05H35.169z"/>
</svg>
