<?xml version="1.0" encoding="utf-8"?>
<!-- Generator: Adobe Illustrator 16.0.0, SVG Export Plug-In . SVG Version: 6.00 Build 0)  -->
<!DOCTYPE svg PUBLIC "-//W3C//DTD SVG 1.1//EN" "http://www.w3.org/Graphics/SVG/1.1/DTD/svg11.dtd">
<svg version="1.1" id="Layer_1" xmlns="http://www.w3.org/2000/svg" xmlns:xlink="http://www.w3.org/1999/xlink" x="0px" y="0px"
	 width="391px" height="391px" viewBox="0 -94.5 391 391" enable-background="new 0 -94.5 391 391" xml:space="preserve">
<g transform="translate(0.738281, 121.593)">
	<path fill="#00618A" d="M0,77.235h12.842V26.524l19.881,44.208c2.346,5.351,5.557,7.243,11.854,7.243
		c6.298,0,9.385-1.893,11.731-7.243l19.88-44.208v50.711H89.03V26.607c0-4.938-1.977-7.327-6.051-8.562
		c-9.755-3.046-16.3-0.412-19.264,6.174L44.206,67.85L25.313,24.219c-2.84-6.586-9.508-9.22-19.263-6.174
		C1.976,19.28,0,21.669,0,26.607V77.235z"/>
</g>
<g transform="translate(100.444, 142.416)">
	<path fill="#00618A" d="M0.002,15.136H12.84v27.938c-0.12,1.518,0.487,5.08,7.522,5.191c3.589,0.055,27.7,0,27.925,0V15h12.868
		c0.059,0-0.013,45.364-0.012,45.557c0.071,11.188-13.882,13.618-20.313,13.807H0.281v-8.639c0.071,0,40.519,0.008,40.621-0.002
		c8.265-0.873,7.289-4.981,7.288-6.365V55.99H20.895C8.196,55.873,0.109,50.331,0.009,43.955C0,43.364,0.283,15.415,0.002,15.136z"
		/>
</g>
<g transform="translate(171.496, 124.557)">
	<path fill="#E48E00" d="M0,74.271h36.92c4.322,0,8.521-0.905,11.855-2.471c5.556-2.551,8.272-6.008,8.272-10.537v-9.383
		c0-3.705-3.087-7.164-9.138-9.467c-3.211-1.236-7.162-1.895-10.99-1.895H21.361c-5.185,0-7.655-1.564-8.272-5.021
		c-0.124-0.412-0.124-0.742-0.124-1.152v-5.844c0-0.33,0-0.66,0.124-1.072c0.617-2.633,1.976-3.375,6.544-3.786
		c0.371,0,0.864-0.083,1.235-0.083h36.674V15H21.485c-5.186,0-7.903,0.33-10.372,1.069c-7.656,2.388-10.99,6.175-10.99,12.761v7.491
		c0,5.763,6.545,10.702,17.534,11.854c1.236,0.082,2.47,0.164,3.704,0.164h13.336c0.494,0,0.988,0,1.358,0.082
		c4.075,0.33,5.804,1.07,7.039,2.553c0.74,0.74,0.987,1.482,0.987,2.305v7.491c0,0.905-0.617,2.06-1.852,3.046
		c-1.111,0.988-2.963,1.646-5.434,1.812c-0.494,0-0.863,0.082-1.357,0.082H0V74.271z"/>
</g>
<g transform="translate(308.656, 124.557)">
	<path fill="#E48E00" d="M0,59.371c0,8.809,6.544,13.748,19.757,14.736c1.234,0.082,2.47,0.164,3.704,0.164h33.464v-8.561H23.214
		c-7.532,0-10.372-1.895-10.372-6.422V15H0V59.371z"/>
</g>
<g transform="translate(236.74, 124.666)">
	<path fill="#E48E00" d="M0,59.711V29.189c0-7.754,5.445-12.457,16.209-13.942C17.322,15.083,18.561,15,19.674,15H44.05
		c1.237,0,2.353,0.083,3.589,0.247c10.766,1.485,16.209,6.188,16.209,13.942v30.521c0,6.291-2.312,9.658-7.641,11.852l12.65,11.418
		H53.946l-10.233-9.237l-10.304,0.653H19.674c-2.352,0-4.825-0.332-7.548-1.073C3.96,71.096,0,66.807,0,59.711z M13.862,58.969
		c0,0.413,0.123,0.825,0.246,1.32c0.742,3.547,4.084,5.527,9.156,5.527h11.667l-10.717-9.676h14.911l9.347,8.438
		c1.722-0.918,2.856-2.322,3.252-4.125c0.123-0.412,0.123-0.825,0.123-1.237V29.932c0-0.33,0-0.742-0.123-1.156
		c-0.743-3.299-4.084-5.195-9.032-5.195H23.264c-5.691,0-9.402,2.475-9.402,6.352V58.969z"/>
</g>
<g transform="translate(241.59, -4.64258)">
	<path fill="#00618A" d="M135.289,129.997c-7.894-0.214-13.924,0.521-19.079,2.694c-1.465,0.617-3.801,0.634-4.04,2.47
		c0.806,0.844,0.931,2.104,1.57,3.142c1.23,1.992,3.309,4.661,5.163,6.062c2.025,1.528,4.114,3.165,6.286,4.489
		c3.862,2.355,8.176,3.701,11.896,6.061c2.192,1.391,4.37,3.143,6.509,4.713c1.058,0.775,1.769,1.982,3.143,2.469
		c0-0.074,0-0.148,0-0.224c-0.723-0.919-0.908-2.183-1.571-3.144c-0.972-0.972-1.945-1.944-2.918-2.918
		c-2.853-3.787-6.475-7.112-10.325-9.875c-3.069-2.205-9.941-5.182-11.223-8.754c-0.075-0.076-0.149-0.15-0.225-0.226
		c2.177-0.245,4.726-1.033,6.734-1.571c3.375-0.904,6.392-0.671,9.876-1.57c1.571-0.449,3.143-0.899,4.714-1.348
		c0-0.3,0-0.598,0-0.898c-1.762-1.808-3.018-4.199-4.938-5.836c-5.026-4.279-10.513-8.556-16.161-12.121
		c-3.133-1.978-7.005-3.263-10.325-4.938c-1.117-0.563-3.079-0.856-3.816-1.796c-1.744-2.224-2.694-5.042-4.039-7.632
		c-2.818-5.426-5.585-11.352-8.081-17.06c-1.703-3.893-2.815-7.731-4.938-11.224C79.307,54.205,68.336,44.091,51.342,34.149
		c-3.617-2.114-7.971-2.949-12.572-4.04c-2.467-0.149-4.938-0.3-7.406-0.449c-1.508-0.63-3.075-2.474-4.489-3.367
		C21.244,22.736,6.803,15,2.633,25.171C0,31.591,6.568,37.855,8.917,41.108c1.649,2.282,3.761,4.841,4.938,7.407
		c0.775,1.687,0.908,3.378,1.572,5.163c1.631,4.396,3.051,9.18,5.162,13.243c1.066,2.056,2.242,4.222,3.592,6.061
		c0.826,1.128,2.244,1.625,2.467,3.367c-1.385,1.939-1.465,4.95-2.243,7.407c-3.509,11.062-2.185,24.811,2.918,32.997
		c1.565,2.514,5.254,7.903,10.325,5.836c4.436-1.807,3.445-7.406,4.714-12.346c0.286-1.12,0.11-1.943,0.673-2.693
		c0,0.074,0,0.149,0,0.225c1.348,2.693,2.693,5.387,4.041,8.08c2.99,4.815,8.297,9.849,12.794,13.244
		c2.332,1.762,4.168,4.807,7.183,5.836c0-0.074,0-0.148,0-0.225c-0.075,0-0.149,0-0.225,0c-0.584-0.911-1.498-1.288-2.244-2.02
		c-1.757-1.723-3.71-3.863-5.162-5.836c-4.091-5.554-7.705-11.631-10.998-17.958c-1.574-3.021-2.94-6.354-4.267-9.428
		c-0.511-1.186-0.505-2.978-1.57-3.592c-1.452,2.253-3.591,4.074-4.714,6.734c-1.796,4.252-2.027,9.438-2.693,14.814
		c-0.394,0.142-0.219,0.044-0.449,0.224c-3.127-0.754-4.225-3.972-5.387-6.732c-2.938-6.982-3.484-18.226-0.898-26.263
		c0.669-2.079,3.693-8.629,2.469-10.55c-0.584-1.917-2.512-3.025-3.591-4.49c-1.335-1.811-2.668-4.194-3.593-6.285
		c-2.404-5.444-3.527-11.556-6.059-17.059c-1.211-2.631-3.258-5.293-4.938-7.632c-1.861-2.591-3.945-4.499-5.388-7.633
		c-0.513-1.113-1.209-2.896-0.449-4.04c0.242-0.772,0.584-1.095,1.348-1.347c1.303-1.004,4.928,0.334,6.284,0.897
		c3.6,1.495,6.604,2.919,9.653,4.938c1.463,0.971,2.943,2.848,4.713,3.367c0.673,0,1.347,0,2.02,0c3.16,0.727,6.7,0.226,9.652,1.122
		c5.218,1.586,9.894,4.053,14.141,6.734c12.938,8.169,23.517,19.798,30.752,33.67c1.164,2.233,1.668,4.365,2.693,6.734
		c2.068,4.777,4.675,9.693,6.732,14.365c2.055,4.661,4.057,9.365,6.959,13.244c1.527,2.039,7.423,3.133,10.102,4.265
		c1.878,0.794,4.955,1.621,6.733,2.692c3.398,2.051,6.69,4.49,9.878,6.735C130.149,125.508,135.045,127.969,135.289,129.997z"/>
</g>
<g transform="translate(272.504, 24.8027)">
	<path fill="#00618A" d="M4.041,15.03C2.394,15,1.23,15.21,0,15.479c0,0.075,0,0.15,0,0.225c0.075,0,0.15,0,0.225,0
		c0.785,1.613,2.172,2.651,3.143,4.041c0.748,1.571,1.496,3.143,2.245,4.713c0.073-0.074,0.149-0.149,0.224-0.224
		c1.391-0.979,2.027-2.547,2.02-4.938c-0.557-0.586-0.639-1.321-1.121-2.021C6.092,16.343,4.85,15.814,4.041,15.03z"/>
</g>
<g transform="translate(371.609, 165.56)">
	<path fill="#E48E00" d="M0,24.463c0,5.653,4.467,9.463,9.464,9.463s9.464-3.81,9.464-9.463s-4.467-9.463-9.464-9.463
		S0,18.81,0,24.463z M16.808,24.463c0,4.289-3.28,7.496-7.344,7.496c-4.113,0-7.345-3.207-7.345-7.496
		c0-4.291,3.231-7.496,7.345-7.496C13.528,16.967,16.808,20.172,16.808,24.463z M12.014,29.864h2.119L11.03,25.12
		c1.665-0.177,2.927-0.984,2.927-2.953c0-2.195-1.388-3.104-4.062-3.104H5.679v10.801h1.817v-4.669h1.69L12.014,29.864z
		 M7.496,23.681v-3.104H9.59c1.086,0,2.397,0.202,2.397,1.465c0,1.512-1.186,1.64-2.549,1.64H7.496z"/>
</g>
</svg>
