<?xml version="1.0" encoding="utf-8"?>
<!-- Generator: Adobe Illustrator 16.0.0, SVG Export Plug-In . SVG Version: 6.00 Build 0)  -->
<!DOCTYPE svg PUBLIC "-//W3C//DTD SVG 1.1//EN" "http://www.w3.org/Graphics/SVG/1.1/DTD/svg11.dtd">
<svg version="1.1" id="Layer_1" xmlns="http://www.w3.org/2000/svg" xmlns:xlink="http://www.w3.org/1999/xlink" x="0px" y="0px"
	 width="139.87px" height="140.029px" viewBox="0 0 139.87 140.029" enable-background="new 0 0 139.87 140.029"
	 xml:space="preserve">
<g>
	<path fill-rule="evenodd" clip-rule="evenodd" fill="#3B6778" d="M139.87,69.882c0.035,38.749-31.174,70.123-69.777,70.147
		C31.457,140.055,0.03,108.71,0,70.119C-0.03,31.439,31.271,0.02,69.853,0C108.582-0.019,139.836,31.174,139.87,69.882z
		 M70.581,134.67c33.96,0.356,63.689-28.84,64.156-63.004c0.506-37.009-28.114-66.038-65.375-66.311
		C34.881,5.104,5.378,34.496,5.138,69.341C4.889,105.544,33.678,134.283,70.581,134.67z"/>
	<path fill-rule="evenodd" clip-rule="evenodd" fill="#F1F2F1" d="M70.581,134.67c-36.903-0.387-65.692-29.126-65.443-65.329
		C5.378,34.496,34.881,5.104,69.362,5.355c37.261,0.272,65.881,29.302,65.375,66.311C134.271,105.83,104.541,135.026,70.581,134.67z
		 M9.7,64.046c-0.917,3.682-0.985,7.364-0.019,11.05c0.761,23.005,19.578,46.707,41.778,52.624
		c18.658,4.974,37.223-9.47,36.673-28.704c-0.384-13.43-7.274-22.34-19.608-27.4C55.816,66.4,48.498,56.706,47.333,43.151
		c-1.058-12.312,3.983-22.349,13.929-29.847c1.38-1.04,3.429-1.266,4.201-3.218C44.787,9.346,12.535,28.666,9.7,64.046z
		 M74.45,129.884c16.229-0.703,29.491-7.444,40.435-19.075c29.715-31.581,15.239-86.517-25.888-98.196
		c-19.4-5.51-38.164,9.084-37.205,29.229c0.617,12.951,7.595,21.481,19.46,26.503c16.607,7.028,24.737,23.045,20.32,39.696
		C89.019,117.669,82.993,124.692,74.45,129.884z"/>
	<path fill-rule="evenodd" clip-rule="evenodd" fill="#DD8F3D" d="M74.45,129.884c8.543-5.191,14.568-12.215,17.123-21.844
		c4.417-16.651-3.713-32.668-20.32-39.696c-11.866-5.021-18.844-13.552-19.46-26.503C50.833,21.696,69.597,7.103,88.997,12.612
		c41.127,11.68,55.603,66.615,25.888,98.196C103.941,122.439,90.68,129.181,74.45,129.884z M86.192,65.675
		c0.373,0.385,0.536,1.431,1.271,0.804c0.523-0.446,0.104-1.182-0.479-1.605c-1.33-2.395-2.66-4.79-3.99-7.185
		c-0.307-1.236-0.315-3.085-1.816-3.06c-1.203,0.021-1.848,1.687-2.197,2.96c-0.346,1.257-0.377,2.62-0.852,3.814
		c-1.124,2.828-1.664,0.186-2.427-0.335c-1.368-4.743-1.648-9.471,0.22-14.164c0.511-1.286,0.789-2.594-0.189-3.768
		c-4.206-5.045-4.135-12.339-8.997-17.052c-0.695-0.674-1.292-1.778-0.68-2.712c0.819-1.249,2.133-0.692,3.158-0.231
		c2.553,1.147,4.965,3.255,7.574,3.507c8.345,0.803,13.914,5.727,19.091,11.507c4.773,5.33,6.479,12.294,9.747,18.427
		c1.01,1.896,1.663,4.196,4.021,4.799c4.45,1.137,7.972,4.016,11.944,6.041c-0.271,2.829-2.572,1.139-3.861,1.684
		c-1.614,0.683-4.134,0.29-4.68,2.146c-0.63,2.141,1.486,3.589,3.063,4.61c3.441,2.229,7.093,4.136,10.659,6.174
		c0.104,0.071,0.208,0.144,0.312,0.216c-0.122-0.053-0.245-0.105-0.368-0.158c-1.521-4.799-6.723-5.947-9.728-9.428
		c8.638-3.578,8.638-3.578,4.847-6.772c-1.818-1.427-3.435-3.555-5.493-4.15c-6.523-1.887-9.073-7.136-10.895-12.607
		c-5.878-17.664-20.707-23.8-36.383-28.955c-1.752-0.576-3.706-0.525-4.97,1.265c-1.359,1.927-0.806,3.778,0.454,5.521
		c0.583,0.808,1.403,1.501,1.786,2.389c3.101,7.203,8.839,13.562,6.402,22.506c-0.789,2.9-0.703,6.295,1.078,9.189
		c0.747,2.492,1.889,4.939,4.869,4.684c2.268-0.194,2.354-2.408,2.219-4.319C84.226,60.906,83.726,65.131,86.192,65.675z"/>
	<path fill-rule="evenodd" clip-rule="evenodd" fill="#346274" d="M9.7,64.046c2.835-35.38,35.087-54.7,55.764-53.959
		c-0.772,1.952-2.821,2.178-4.201,3.218c-9.946,7.498-14.987,17.535-13.929,29.847c1.164,13.555,8.482,23.249,21.191,28.464
		c12.334,5.061,19.225,13.971,19.608,27.4c0.55,19.234-18.016,33.678-36.673,28.704c-22.2-5.917-41.017-29.619-41.778-52.624
		C11.38,71.415,11.354,67.731,9.7,64.046z M70.079,98.901c-0.423-1.828-2.498-2.818-2.471-4.874
		c1.605-5.081,2.408-10.157,0.311-15.337c-0.927-2.29-1.485-5.145-4.452-5.234c-3.148-0.095-2.315,3.331-3.301,5.188
		c-1.717-0.439-1.579-3.485-4.261-2.268c1.409,2.876,2.811,5.735,4.259,8.69c3.395-2.015,2.558-5.885,4.177-9.02
		c4.278,6.082,2.599,12.068,1.44,18.015c-0.384,2.554,2.292,3.193,3.12,4.989c0.19,3.832,1.403,7.303,3.679,10.397
		c0.723,1.103,1.46,2.195,2.162,3.311c0.686,1.087,1.93,2.241,0.857,3.532c-1.123,1.352-2.425,0.026-3.616-0.313
		c-2.562-0.731-4.27-3.188-7.067-3.486c-11.261-1.205-17.899-8.648-23.168-17.621c-2.338-3.981-3.904-8.414-5.867-12.62
		c-0.838-1.796-1.583-3.835-3.757-4.374c-4.281-1.062-7.727-3.708-11.49-5.756c0.577-3.531,3.618-1.631,5.425-2.29
		c3.159-1.152,3.626-2.525,1.38-4.89c-3.159-3.324-7.3-4.879-12.096-7.24c2.485,4.658,6.621,5.924,9.382,8.693
		c-1.038,1.458-2.425,1.375-3.666,1.632c-1.552,0.321-3.845-0.192-4.287,1.621c-0.413,1.696,1.487,2.725,2.924,3.575
		c1.674,1.337,3.152,3.323,5.056,3.896c7.378,2.218,9.979,8.317,12.219,14.548c6.158,17.127,21.117,22.468,36.31,27.554
		c1.646,0.551,3.293,0.204,4.434-1.381c1.131-1.571,0.943-3.186-0.035-4.649c-1.19-1.782-2.584-3.429-3.889-5.134
		C72.496,105.027,72.185,101.601,70.079,98.901z"/>
	<path fill-rule="evenodd" clip-rule="evenodd" fill="#487080" d="M9.7,64.046c1.654,3.686,1.68,7.369-0.019,11.05
		C8.715,71.41,8.784,67.728,9.7,64.046z"/>
	<path fill-rule="evenodd" clip-rule="evenodd" fill="#F9EEE2" d="M73.815,61.051c-1.781-2.895-1.867-6.289-1.078-9.189
		c2.438-8.943-3.301-15.303-6.402-22.506c-0.382-0.888-1.203-1.581-1.786-2.389c-1.26-1.743-1.813-3.595-0.454-5.521
		c1.264-1.79,3.218-1.841,4.97-1.265c15.676,5.155,30.505,11.291,36.383,28.955c1.821,5.472,4.371,10.721,10.895,12.607
		c2.059,0.596,3.675,2.724,5.493,4.15c-0.081,0.51-0.163,1.02-0.244,1.528c-3.973-2.025-7.494-4.904-11.944-6.041
		c-2.358-0.603-3.012-2.903-4.021-4.799c-3.268-6.133-4.974-13.097-9.747-18.427c-5.177-5.78-10.746-10.704-19.091-11.507
		c-2.609-0.252-5.021-2.359-7.574-3.507c-1.024-0.461-2.339-1.018-3.158,0.231c-0.612,0.934-0.015,2.038,0.68,2.712
		c4.862,4.713,4.791,12.007,8.997,17.052c0.979,1.174,0.7,2.481,0.189,3.768c-1.868,4.693-1.588,9.421-0.22,14.164
		C75.073,61.062,74.444,61.057,73.815,61.051z"/>
	<path fill-rule="evenodd" clip-rule="evenodd" fill="#F9EEE3" d="M121.592,67.422c0.081-0.509,0.163-1.019,0.244-1.528
		c3.791,3.194,3.791,3.194-4.847,6.772c3.005,3.48,8.206,4.629,9.728,9.428l0.056-0.058c-3.565-2.038-7.217-3.944-10.658-6.174
		c-1.577-1.021-3.693-2.47-3.063-4.61c0.546-1.856,3.065-1.464,4.68-2.146C119.02,68.561,121.32,70.251,121.592,67.422z"/>
	<path fill-rule="evenodd" clip-rule="evenodd" fill="#F9EFE4" d="M73.815,61.051c0.629,0.006,1.258,0.012,1.888,0.018
		c0.763,0.521,1.303,3.163,2.427,0.335c0.475-1.194,0.506-2.558,0.852-3.814c0.35-1.273,0.994-2.938,2.197-2.96
		c1.501-0.025,1.51,1.823,1.815,3.061c-0.583,1.307-2.55,1.836-2.091,3.726c0.135,1.911,0.049,4.125-2.219,4.319
		C75.704,65.99,74.562,63.543,73.815,61.051z"/>
	<path fill-rule="evenodd" clip-rule="evenodd" fill="#F7EADB" d="M80.903,61.415c-0.459-1.89,1.508-2.419,2.091-3.726
		c1.331,2.394,2.661,4.789,3.991,7.184c-0.266,0.271-0.529,0.541-0.795,0.812C83.726,65.131,84.226,60.906,80.903,61.415z"/>
	<path fill-rule="evenodd" clip-rule="evenodd" fill="#F7EADB" d="M86.985,64.873c0.582,0.424,1.002,1.159,0.479,1.605
		c-0.735,0.627-0.898-0.419-1.271-0.799C86.456,65.414,86.72,65.144,86.985,64.873z"/>
	<path fill-rule="evenodd" clip-rule="evenodd" fill="#F9EEE3" d="M126.717,82.094c0.123,0.053,0.246,0.105,0.368,0.158
		c-0.104-0.072-0.207-0.145-0.312-0.216C126.772,82.036,126.717,82.094,126.717,82.094z"/>
	<path fill-rule="evenodd" clip-rule="evenodd" fill="#E2E8EA" d="M20.633,72.12c3.763,2.048,7.209,4.694,11.49,5.756
		c2.174,0.539,2.919,2.578,3.757,4.374c1.963,4.206,3.528,8.639,5.867,12.62c5.269,8.973,11.907,16.416,23.168,17.621
		c2.797,0.299,4.505,2.755,7.067,3.486c1.191,0.34,2.493,1.665,3.616,0.313c1.072-1.291-0.172-2.445-0.857-3.532
		c-0.702-1.115-1.439-2.208-2.162-3.311c0.404-0.465,0.809-0.929,1.213-1.394c1.305,1.705,2.698,3.352,3.889,5.134
		c0.979,1.464,1.166,3.078,0.035,4.649c-1.141,1.585-2.787,1.932-4.434,1.381c-15.193-5.086-30.152-10.427-36.31-27.554
		c-2.24-6.23-4.841-12.33-12.219-14.548c-1.904-0.572-3.382-2.559-5.056-3.896C20.009,72.854,20.321,72.487,20.633,72.12z"/>
	<path fill-rule="evenodd" clip-rule="evenodd" fill="#E8ECEE" d="M65.781,94.062c1.159-5.946,2.837-11.933-1.44-18.015
		c-1.619,3.135-0.782,7.005-4.177,9.02c-1.448-2.955-2.85-5.814-4.259-8.69c2.682-1.218,2.543,1.828,4.261,2.268
		c0.986-1.856,0.153-5.282,3.301-5.188c2.967,0.09,3.525,2.944,4.452,5.234c2.098,5.18,1.295,10.256-0.311,15.337
		C66.999,94.039,66.39,94.051,65.781,94.062z"/>
	<path fill-rule="evenodd" clip-rule="evenodd" fill="#E3E9EB" d="M20.633,72.12c-0.312,0.367-0.624,0.734-0.937,1.102
		c-1.437-0.851-3.337-1.879-2.924-3.575c0.441-1.813,2.734-1.3,4.287-1.621c1.241-0.257,2.627-0.174,3.666-1.632
		c-2.761-2.77-6.897-4.035-9.382-8.693c4.796,2.361,8.938,3.916,12.096,7.24c2.246,2.364,1.779,3.737-1.38,4.89
		C24.251,70.489,21.21,68.589,20.633,72.12z"/>
	<path fill-rule="evenodd" clip-rule="evenodd" fill="#DAE2E5" d="M73.792,108.055c-0.404,0.465-0.809,0.929-1.213,1.394
		c-2.275-3.095-3.488-6.565-3.68-10.397c0.393-0.05,0.787-0.1,1.18-0.149C72.185,101.601,72.496,105.027,73.792,108.055z"/>
	<path fill-rule="evenodd" clip-rule="evenodd" fill="#C6D2D6" d="M70.079,98.901c-0.393,0.05-0.787,0.1-1.18,0.149
		c-0.826-1.796-3.502-2.436-3.119-4.989c0.609-0.011,1.218-0.022,1.828-0.034C67.582,96.083,69.656,97.073,70.079,98.901z"/>
</g>
</svg>
