<?xml version="1.0" encoding="utf-8"?>
<!-- Generator: Adobe Illustrator 16.0.0, SVG Export Plug-In . SVG Version: 6.00 Build 0)  -->
<!DOCTYPE svg PUBLIC "-//W3C//DTD SVG 1.1//EN" "http://www.w3.org/Graphics/SVG/1.1/DTD/svg11.dtd">
<svg version="1.1" id="Layer_1" xmlns="http://www.w3.org/2000/svg" xmlns:xlink="http://www.w3.org/1999/xlink" x="0px" y="0px"
	 width="328px" height="328px" viewBox="-36 0 328 328" enable-background="new -36 0 328 328" xml:space="preserve">
<g>
	<path fill="#794422" d="M179.257,98.215c135.795,67.576,72.604,195.518-45.396,202.094c-4.988,0.277-10.012,0.041-14.954-0.693
		C6.539,282.924-33.746,169.793,72.222,103.221C104.509,82.937,145.119,81.227,179.257,98.215"/>
	<path fill="#502D17" d="M170.746,297.509c59.457-34.313,86.973-131.687,37.182-217.085c2.813-14.938,4.5-28.894,4.737-41.585
		c0.468-4.11-3.517-7.298-7.423-5.94c-11.645,2.853-22.854,6.69-33.559,11.662c-8.104-5.648-16.485-7.553-23.367-7.916
		c-3.746-0.198-2.33-5.826-2.027-7.893c1.779-3.895,3.467-7.162,7.654-10.897c2.908-2.66-0.739-6.316-4.077-4.221
		c-5.437,2.596-8.833,5.217-12.662,9.037c-1.087,0.808-2.388,0.733-3.324,0.558c-0.669-0.125-1.155-0.735-1.228-1.412
		c-0.821-7.54,0.031-14.303,6.627-19.39c1.24-0.957-0.006-2.796-1.432-2.361c-11.009,3.361-15.784,10.975-19.601,20.388
		c-3.065-2.155-6.652-4.039-10.733-5.667c-0.69-0.364-1.592-0.598-2.214-0.128c-1.116,0.842-2.504,1.717-1.86,3.22
		c4.331,6.274,8.683,12.384,13.305,16.381c-10.942,2.322-21.29,6.145-30.903,11.827L49.358,32.055
		c-4.761-1.831-9.733,2.137-9.003,7.186c2.087,21.673,4.23,42.609,7.335,50.721C5.168,177.506,31.315,265.307,87.915,297.509H0
		v29.759h256v-29.759H170.746z"/>
	<path fill="#FFFFFF" d="M128.764,106.939c16.31-40.346,52.283-45.533,77.829-19.744c21.203,21.405,21.747,80.406-29.758,91.279
		c52.363,43.492,16.597,117.316-43.208,117.316c-60.089-0.857-98.432-73.251-42.634-117.889
		c-52.078,2.289-60.96-52.16-42.063-83.553C66.21,65.641,116.173,61.157,128.764,106.939"/>
	<path fill="#FF7F2B" d="M152.513,161.592c1.464-2.111,1.388-4.898-0.104-6.989c-4.994-7.001-12.147-12.755-22.5-12.755
		c-10.627,0-16.942,5.772-22.749,13.449c-1.516,2.003-1.622,4.771-0.237,6.866c4.361,6.595,11.866,12.706,20.348,18.975
		c1.562,1.154,3.691,1.118,5.216-0.085C140.459,174.756,147.906,168.236,152.513,161.592"/>
	<path fill="#B1DFEC" d="M189.425,122.582c0,18.727-12.324,33.526-26.468,33.526c-14.145,0-25.609-15.181-25.609-33.908
		c0-18.726,11.465-33.907,25.609-33.907C177.101,88.292,189.425,103.854,189.425,122.582z M119.797,125.92
		c0,18.727-12.324,33.526-26.468,33.526c-14.144,0-25.609-15.181-25.609-33.908c0-18.726,11.465-33.907,25.609-33.907
		C107.473,91.631,119.797,107.193,119.797,125.92z"/>
	<path d="M179.601,126.587c0,12.276-7.672,22.136-16.548,22.136s-16.453-9.955-16.453-22.231c0-12.276,7.577-22.224,16.453-22.224
		S179.601,114.312,179.601,126.587z M110.545,126.206c0,12.276-7.672,22.136-16.548,22.136s-16.453-9.955-16.453-22.231
		s7.577-22.224,16.453-22.224S110.545,113.93,110.545,126.206z"/>
	<path fill="#FFFFFF" d="M166.82,115.905c0,3.74-2.99,6.772-6.678,6.772s-6.676-3.032-6.676-6.772c0-3.74,2.988-6.772,6.676-6.772
		S166.82,112.165,166.82,115.905z M102.82,115.523c0,3.74-2.989,6.772-6.677,6.772c-3.687,0-6.676-3.032-6.676-6.772
		c0-3.74,2.989-6.772,6.676-6.772C99.831,108.751,102.82,111.783,102.82,115.523z"/>
	<path fill="#FF7F2B" d="M72.966,311.721c0,0-0.191,8.106,5.246,8.202c1.704,5.121,7.723,5.095,8.68,0.667h6.867
		c0,0-0.668,3.529,3.434,3.434c4.101-0.094,3.719-3.719,3.719-3.719h6.486c0,0-0.954,3.719,3.243,3.719
		c4.197,0,3.995-4.262,3.995-4.262c2.358-1.481,5.114-1.365,5.114-5.943c0-0.997-0.239-2.086-0.698-3.213
		c-2.486-6.1-11.429-13.336-23.958-13.383c-8.039,0.053-15.531,4.957-20.507,9.776C73.061,308.477,72.966,311.721,72.966,311.721z
		 M186.467,311.721c0,0,0.002,8.393-5.436,8.488c-0.857,4.864-7.855,4.807-8.49,0.381h-6.867c0,0,0.477,3.529-3.625,3.434
		c-4.102-0.094-3.529-3.719-3.529-3.719h-6.485c0,0,0.763,3.719-3.435,3.719c-4.196,0-3.803-4.262-3.803-4.262
		c-2.359-1.481-5.115-1.365-5.115-5.943c0-0.997,0.24-2.086,0.699-3.213c2.485-6.1,11.428-13.336,23.957-13.383
		c8.039,0.053,14.797,4.905,20.031,9.442C186.469,308.859,186.467,311.721,186.467,311.721z"/>
</g>
</svg>
