<?xml version="1.0" encoding="utf-8"?>
<!-- Generator: Adobe Illustrator 16.0.0, SVG Export Plug-In . SVG Version: 6.00 Build 0)  -->
<!DOCTYPE svg PUBLIC "-//W3C//DTD SVG 1.1//EN" "http://www.w3.org/Graphics/SVG/1.1/DTD/svg11.dtd">
<svg version="1.1" id="Layer_1" xmlns="http://www.w3.org/2000/svg" xmlns:xlink="http://www.w3.org/1999/xlink" x="0px" y="0px"
	 width="282px" height="282px" viewBox="-13 0 282 282" enable-background="new -13 0 282 282" xml:space="preserve">
<g>
	<path fill="#8CC84B" d="M116.504,3.581c6.962-3.985,16.03-4.003,22.986,0c34.994,19.773,70.001,39.517,104.99,59.302
		c6.58,3.708,10.982,11.031,10.916,18.615v118.967c0.048,7.897-4.788,15.396-11.731,19.02
		c-34.88,19.664-69.742,39.354-104.616,59.018c-7.105,4.064-16.356,3.75-23.239-0.646c-10.457-6.062-20.933-12.093-31.39-18.149
		c-2.137-1.273-4.546-2.288-6.056-4.359c1.334-1.799,3.719-2.022,5.657-2.807c4.365-1.389,8.375-3.617,12.383-5.779
		c1.015-0.693,2.252-0.428,3.225,0.193c8.942,5.127,17.805,10.403,26.777,15.48c1.914,1.105,3.852-0.361,5.488-1.273
		c34.228-19.345,68.498-38.617,102.72-57.969c1.269-0.609,1.968-1.955,1.866-3.344c0.023-39.246,0.006-78.497,0.012-117.742
		c0.145-1.576-0.768-3.025-2.191-3.671c-34.76-19.574-69.501-39.179-104.254-58.759c-1.244-0.845-2.85-0.851-4.094-0.006
		C91.2,39.257,56.465,58.88,21.712,78.454c-1.419,0.646-2.373,2.071-2.204,3.653c0.006,39.245,0,78.496,0,117.748
		c-0.121,1.389,0.628,2.705,1.89,3.303c9.274,5.258,18.56,10.48,27.84,15.722c5.229,2.813,11.647,4.486,17.407,2.331
		c5.084-1.824,8.646-7.01,8.549-12.408c0.048-39.016-0.024-78.038,0.036-117.047c-0.126-1.733,1.516-3.164,3.2-3
		c4.456-0.03,8.918-0.061,13.374,0.012c1.86-0.042,3.14,1.824,2.91,3.568c-0.018,39.264,0.048,78.526-0.03,117.79
		c0.012,10.464-4.287,21.851-13.965,26.971c-11.924,6.177-26.663,4.867-38.442-1.057c-10.198-5.09-19.931-11.098-29.947-16.549
		c-6.961-3.605-11.773-11.134-11.725-19.025V81.498C0.531,73.757,5.108,66.3,11.895,62.647
		C46.769,42.964,81.636,23.27,116.504,3.581L116.504,3.581z"/>
	<path fill="#8CC84B" d="M146.928,85.989c15.209-0.978,31.493-0.58,45.182,6.914c10.596,5.742,16.471,17.793,16.657,29.566
		c-0.296,1.588-1.956,2.463-3.472,2.355c-4.414-0.006-8.827,0.061-13.24-0.03c-1.872,0.072-2.959-1.654-3.194-3.309
		c-1.269-5.633-4.341-11.212-9.642-13.929c-8.14-4.075-17.576-3.87-26.452-3.786c-6.479,0.344-13.446,0.906-18.935,4.715
		c-4.214,2.886-5.494,8.712-3.99,13.404c1.418,3.369,5.307,4.456,8.488,5.458c18.331,4.794,37.754,4.317,55.734,10.626
		c7.445,2.572,14.727,7.572,17.274,15.366c3.333,10.445,1.872,22.932-5.561,31.318c-6.026,6.9-14.805,10.656-23.56,12.697
		c-11.646,2.596-23.734,2.662-35.562,1.51c-11.121-1.268-22.695-4.19-31.281-11.768c-7.342-6.376-10.928-16.309-10.572-25.896
		c0.084-1.617,1.696-2.747,3.248-2.614c4.444-0.036,8.888-0.048,13.332,0.007c1.775-0.127,3.091,1.406,3.182,3.078
		c0.821,5.368,2.838,11.002,7.518,14.184c9.031,5.826,20.365,5.428,30.707,5.591c8.568-0.381,18.186-0.495,25.178-6.159
		c3.689-3.229,4.781-8.634,3.785-13.283c-1.08-3.924-5.186-5.754-8.712-6.949c-18.095-5.724-37.735-3.646-55.656-10.119
		c-7.275-2.572-14.31-7.432-17.105-14.907c-3.9-10.578-2.113-23.662,6.098-31.765C124.383,90.204,135.939,87.101,146.928,85.989
		L146.928,85.989z"/>
</g>
</svg>
