<?xml version="1.0" encoding="utf-8"?>
<!-- Generator: Adobe Illustrator 16.0.0, SVG Export Plug-In . SVG Version: 6.00 Build 0)  -->
<!DOCTYPE svg PUBLIC "-//W3C//DTD SVG 1.1//EN" "http://www.w3.org/Graphics/SVG/1.1/DTD/svg11.dtd">
<svg version="1.1" id="Layer_1" xmlns="http://www.w3.org/2000/svg" xmlns:xlink="http://www.w3.org/1999/xlink" x="0px" y="0px"
	 width="540px" height="540px" viewBox="0 0 540 540" enable-background="new 0 0 540 540" xml:space="preserve">
<path fill="#CB3837" d="M0,194h540v180H270v30H150v-30H0V194z M30,344h60v-90h30v90h30V224H30V344z M180,224v150h60v-30h60V224H180z
	 M240,254h30v60h-30V254z M330,224v120h60v-90h30v90h30v-90h30v90h30V224H330z"/>
<polygon fill="#FFFFFF" points="30,344 90,344 90,254 120,254 120,344 150,344 150,224 30,224 "/>
<path fill="#FFFFFF" d="M180,224v150h60v-30h60V224H180z M270,314h-30v-60h30V314z"/>
<polygon fill="#FFFFFF" points="330,224 330,344 390,344 390,254 420,254 420,344 450,344 450,254 480,254 480,344 510,344 510,224 
	"/>
</svg>
