<?xml version="1.0" encoding="utf-8"?>
<!-- Generator: Adobe Illustrator 16.0.0, SVG Export Plug-In . SVG Version: 6.00 Build 0)  -->
<!DOCTYPE svg PUBLIC "-//W3C//DTD SVG 1.1//EN" "http://www.w3.org/Graphics/SVG/1.1/DTD/svg11.dtd">
<svg version="1.1" id="Layer_1" xmlns="http://www.w3.org/2000/svg" xmlns:xlink="http://www.w3.org/1999/xlink" x="0px" y="0px"
	 width="540px" height="540px" viewBox="0 -165 540 540" enable-background="new 0 -165 540 540" xml:space="preserve">
<path fill="#CB3837" d="M0,16h540v180H270v30H150v-30H0V16z M30,166h60V76h30v90h30V46H30V166z M180,46v150h60v-30h60V46H180z
	 M240,76h30v60h-30V76z M330,46v120h60V76h30v90h30V76h30v90h30V46H330z"/>
<polygon fill="#FFFFFF" points="30,166 90,166 90,76 120,76 120,166 150,166 150,46 30,46 "/>
<path fill="#FFFFFF" d="M180,46v150h60v-30h60V46H180z M270,136h-30V76h30V136z"/>
<polygon fill="#FFFFFF" points="330,46 330,166 390,166 390,76 420,76 420,166 450,166 450,76 480,76 480,166 510,166 510,46 "/>
</svg>
