<?xml version="1.0" encoding="utf-8"?>
<!-- Generator: Adobe Illustrator 16.0.0, SVG Export Plug-In . SVG Version: 6.00 Build 0)  -->
<!DOCTYPE svg PUBLIC "-//W3C//DTD SVG 1.1//EN" "http://www.w3.org/Graphics/SVG/1.1/DTD/svg11.dtd">
<svg version="1.1"
	 id="svg2169" xmlns:svg="http://www.w3.org/2000/svg" xmlns:cc="http://web.resource.org/cc/" xmlns:rdf="http://www.w3.org/1999/02/22-rdf-syntax-ns#" xmlns:dc="http://purl.org/dc/elements/1.1/" xmlns:inkscape="http://www.inkscape.org/namespaces/inkscape" xmlns:sodipodi="http://sodipodi.sourceforge.net/DTD/sodipodi-0.dtd" sodipodi:docbase="/home/bene/Desktop" sodipodi:version="0.32" inkscape:version="0.45.1" inkscape:output_extension="org.inkscape.output.svg.inkscape" sodipodi:docname="dessin-1.svg"
	 xmlns="http://www.w3.org/2000/svg" xmlns:xlink="http://www.w3.org/1999/xlink" x="0px" y="0px" width="110.421px"
	 height="109.846px" viewBox="0 0 110.421 109.846" enable-background="new 0 0 110.421 109.846" xml:space="preserve">
<sodipodi:namedview  width="131.10236px" height="184.25197px" id="base" borderopacity="1.0" inkscape:cy="316.02744" bordercolor="#666666" pagecolor="#ffffff" inkscape:cx="-260.46312" inkscape:zoom="0.24748737" inkscape:document-units="px" inkscape:current-layer="layer1" inkscape:window-y="48" inkscape:pageshadow="2" inkscape:window-height="624" inkscape:window-width="872" inkscape:window-x="5" inkscape:pageopacity="0.0">
	</sodipodi:namedview>
<g id="layer1" transform="translate(-473.36088,-251.72485)" inkscape:label="Calque 1" inkscape:groupmode="layer">
	<g id="g1894" transform="translate(428.42338,184.2561)">
		
			<linearGradient id="path8615_1_" gradientUnits="userSpaceOnUse" x1="541.3979" y1="764.7356" x2="590.845" y2="814.348" gradientTransform="matrix(1 0 0 1 -481.875 -681.1543)">
			<stop  offset="0" style="stop-color:#387EB8"/>
			<stop  offset="1" style="stop-color:#366994"/>
		</linearGradient>
		<path id="path8615" fill="url(#path8615_1_)" d="M99.788,74.653c-25.386,0-23.801,11.01-23.801,11.01l0.028,11.404h24.225v3.425
			H66.393c0,0-16.245-1.843-16.245,23.771s14.179,24.707,14.179,24.707h8.462v-11.886c0,0-0.456-14.18,13.952-14.18
			c14.408,0,24.027,0,24.027,0s13.499,0.22,13.499-13.046c0-13.265,0-21.933,0-21.933S126.317,74.653,99.788,74.653z M86.43,82.322
			c2.41,0,4.358,1.947,4.358,4.358c0,2.41-1.948,4.358-4.358,4.358c-2.411,0-4.358-1.949-4.358-4.358
			C82.071,84.269,84.019,82.322,86.43,82.322z"/>
		
			<linearGradient id="path8620_1_" gradientUnits="userSpaceOnUse" x1="571.8062" y1="796.3186" x2="624.9124" y2="847.1969" gradientTransform="matrix(1 0 0 1 -481.875 -681.1543)">
			<stop  offset="0" style="stop-color:#FFE052"/>
			<stop  offset="1" style="stop-color:#FFC331"/>
		</linearGradient>
		<path id="path8620" fill="url(#path8620_1_)" d="M100.508,174.131c25.386,0,23.802-11.009,23.802-11.009l-0.027-11.405h-24.227
			v-3.425h33.848c0,0,16.244,1.843,16.244-23.772s-14.179-24.707-14.179-24.707h-8.462V111.7c0,0,0.457,14.178-13.952,14.178
			c-14.408,0-24.027,0-24.027,0s-13.5-0.218-13.5,13.047c0,13.266,0,21.934,0,21.934S73.979,174.131,100.508,174.131z
			 M113.867,166.462c-2.41,0-4.357-1.949-4.357-4.358c0-2.41,1.947-4.357,4.357-4.357s4.358,1.947,4.358,4.357
			C118.225,164.513,116.277,166.462,113.867,166.462z"/>
	</g>
</g>
</svg>
