<?xml version="1.0" encoding="utf-8"?>
<!-- Generator: Adobe Illustrator 16.0.0, SVG Export Plug-In . SVG Version: 6.00 Build 0)  -->
<!DOCTYPE svg PUBLIC "-//W3C//DTD SVG 1.1//EN" "http://www.w3.org/Graphics/SVG/1.1/DTD/svg11.dtd">
<svg version="1.1"
	 id="svg2169" xmlns:svg="http://www.w3.org/2000/svg" xmlns:cc="http://web.resource.org/cc/" xmlns:rdf="http://www.w3.org/1999/02/22-rdf-syntax-ns#" xmlns:dc="http://purl.org/dc/elements/1.1/" xmlns:inkscape="http://www.inkscape.org/namespaces/inkscape" xmlns:sodipodi="http://sodipodi.sourceforge.net/DTD/sodipodi-0.dtd" sodipodi:docbase="/home/bene/Desktop" sodipodi:version="0.32" inkscape:version="0.45.1" inkscape:output_extension="org.inkscape.output.svg.inkscape" sodipodi:docname="dessin-1.svg"
	 xmlns="http://www.w3.org/2000/svg" xmlns:xlink="http://www.w3.org/1999/xlink" x="0px" y="0px" width="110.421px"
	 height="109.846px" viewBox="0 0 110.421 109.846" enable-background="new 0 0 110.421 109.846" xml:space="preserve">
<sodipodi:namedview  width="131.10236px" height="184.25197px" id="base" borderopacity="1.0" inkscape:cy="316.02744" bordercolor="#666666" pagecolor="#ffffff" inkscape:cx="-260.46312" inkscape:zoom="0.24748737" inkscape:document-units="px" inkscape:current-layer="layer1" inkscape:window-y="48" inkscape:pageshadow="2" inkscape:window-height="624" inkscape:window-width="872" inkscape:window-x="5" inkscape:pageopacity="0.0">
	</sodipodi:namedview>
<g id="layer1" transform="translate(-473.36088,-251.72485)" inkscape:label="Calque 1" inkscape:groupmode="layer">
	<g id="g1894" transform="translate(428.42338,184.2561)">
		
			<linearGradient id="path8615_1_" gradientUnits="userSpaceOnUse" x1="300.4604" y1="-189.2668" x2="349.9074" y2="-238.8792" gradientTransform="matrix(1 0 0 -1 -240.9375 -107.6851)">
			<stop  offset="0" style="stop-color:#387EB8"/>
			<stop  offset="1" style="stop-color:#366994"/>
		</linearGradient>
		<path id="path8615" fill="url(#path8615_1_)" d="M99.788,72.653c-25.386,0-23.801,11.009-23.801,11.009l0.028,11.405h24.225v3.424
			H66.393c0,0-16.245-1.842-16.245,23.772s14.179,24.707,14.179,24.707h8.462v-11.886c0,0-0.456-14.179,13.952-14.179
			c14.408,0,24.027,0,24.027,0s13.499,0.219,13.499-13.046s0-21.933,0-21.933S126.317,72.653,99.788,72.653z M86.43,80.322
			c2.41,0,4.358,1.947,4.358,4.358c0,2.41-1.948,4.358-4.358,4.358c-2.411,0-4.358-1.949-4.358-4.358
			C82.071,82.269,84.019,80.322,86.43,80.322z"/>
		
			<linearGradient id="path8620_1_" gradientUnits="userSpaceOnUse" x1="330.8696" y1="-220.8489" x2="383.9758" y2="-271.7272" gradientTransform="matrix(1 0 0 -1 -240.9375 -107.6851)">
			<stop  offset="0" style="stop-color:#FFE052"/>
			<stop  offset="1" style="stop-color:#FFC331"/>
		</linearGradient>
		<path id="path8620" fill="url(#path8620_1_)" d="M100.508,172.131c25.386,0,23.802-11.009,23.802-11.009l-0.028-11.405h-24.226
			v-3.425h33.848c0,0,16.244,1.843,16.244-23.772s-14.179-24.707-14.179-24.707h-8.462V109.7c0,0,0.457,14.178-13.952,14.178
			c-14.408,0-24.027,0-24.027,0s-13.5-0.218-13.5,13.047c0,13.266,0,21.934,0,21.934S73.979,172.131,100.508,172.131z
			 M113.867,164.462c-2.411,0-4.358-1.949-4.358-4.358c0-2.41,1.947-4.358,4.358-4.358c2.41,0,4.358,1.948,4.358,4.358
			C118.225,162.513,116.277,164.462,113.867,164.462z"/>
	</g>
</g>
</svg>
