<?xml version="1.0" encoding="UTF-8" standalone="no"?>
<svg width="1024px" height="1024px" viewBox="0 0 1024 1024" version="1.1" xmlns="http://www.w3.org/2000/svg" xmlns:xlink="http://www.w3.org/1999/xlink">
    <!-- Generator: Sketch 3.8.3 (29802) - http://www.bohemiancoding.com/sketch -->
    <title>REASON ICON NO BG</title>
    <desc>Created with Sketch.</desc>
    <defs></defs>
    <g id="Page-1" stroke="none" stroke-width="1" fill="none" fill-rule="evenodd">
        <g id="REASON-ICON-NO-BG">
            <g id="Imported-Layers" transform="translate(6.000000, 4.000000)">
                <polyline id="Fill-1" fill="#ED7E23" points="763.94536 455.79878 763.94536 731.990575 1003.09262 870.120715 1003.09262 593.890569 763.94536 455.79878"></polyline>
                <polyline id="Fill-2" fill="#ED7E23" points="266.565639 422.726331 505.855341 284.664676 505.855341 8.48383791 266.565639 146.583845 266.565639 422.726331"></polyline>
                <polyline id="Fill-3" fill="#ED7E23" points="486.619465 869.994704 247.422901 731.834431 8.2729062 869.934438 247.46947 1008.06458 486.619465 869.994704"></polyline>
                <path d="M648.078104,522.7244 C655.792178,541.204209 660.136824,561.552271 660.136824,582.900205 C660.136824,661.679091 601.059508,726.566617 524.795366,735.98732 L524.735099,869.994704 L763.94536,731.960442 L764.024802,455.760429 L648.078104,522.7244" id="Fill-4" fill="#ED7E23"></path>
                <path d="M351.327315,582.900205 C351.327315,561.538575 355.58978,541.163119 363.523004,522.686049 L247.499603,455.689205 L247.46947,731.894697 L486.619465,870.044013 L486.619465,735.98732 C410.434765,726.566617 351.327315,661.679091 351.327315,582.900205" id="Fill-5" fill="#ED7E23"></path>
                <path d="M505.778639,428.424227 C556.046132,428.424227 600.621208,452.555363 628.729913,489.83001 L744.928634,422.797555 L505.825208,284.664676 L266.519069,422.709895 L382.71505,489.808095 C410.93607,452.555363 455.368699,428.424227 505.778639,428.424227" id="Fill-6" fill="#ED7E23"></path>
                <path d="M763.94536,1016.15395 C765.309568,1016.15395 766.690212,1015.79509 767.914712,1015.08833 L1007.03183,877.021195 L1007.06471,877.021195 C1009.52466,875.593982 1011.04502,872.975142 1011.04502,870.120715 L1011.04502,593.890569 C1011.04502,591.055318 1009.52466,588.433738 1007.06471,587.014743 L768.194128,449.081838 C768.117425,449.035268 768.068117,448.933912 767.988675,448.887342 C765.545154,447.460129 762.50445,447.460129 760.05819,448.887342 L759.995185,448.925693 L759.978748,448.925693 L759.962312,448.94213 L644.111492,515.848574 C640.646186,517.840098 639.205275,522.099823 640.7585,525.78154 C648.343823,543.984673 652.187164,563.193156 652.187164,582.900205 C652.187164,656.638645 597.013454,719.068953 523.825628,728.100666 C519.83984,728.60471 516.862142,731.974139 516.845705,735.98732 L516.785439,869.994704 C516.785439,871.45205 517.190866,872.816258 517.914061,874.027061 C518.604383,875.232385 519.590557,876.234995 520.831493,876.95545 L759.978748,1015.08833 C761.203248,1015.79509 762.567456,1016.15395 763.94536,1016.15395 L763.94536,1016.15395 Z M995.148434,856.371802 L771.89502,727.380211 L771.974462,469.60522 L995.148434,598.476279 L995.148434,856.371802 L995.148434,856.371802 Z M532.72859,742.857668 C610.373375,729.859343 668.083745,662.289971 668.083745,582.900205 C668.083745,563.420524 664.684183,544.370925 657.972719,526.189706 L755.9957,469.575087 L755.9957,727.380211 L532.68202,856.245791 L532.72859,742.857668 L532.72859,742.857668 Z" id="Fill-7" fill="#0A0A0A"></path>
                <path d="M4.30629422,876.802046 L243.502858,1014.94588 C244.727358,1015.65264 246.088826,1016.01424 247.46947,1016.01424 C248.833678,1016.01424 250.211582,1015.65264 251.436082,1014.94588 L490.429932,876.95545 C490.473762,876.941754 490.536768,876.95545 490.586077,876.925317 C493.046034,875.51454 494.569125,872.882003 494.569125,870.044013 L494.569125,735.98732 C494.569125,731.990575 491.57499,728.60471 487.591942,728.100666 C414.434249,719.055256 359.274236,656.630426 359.274236,582.900205 C359.274236,562.878128 363.164146,543.672384 370.831651,525.822631 C372.415008,522.121738 370.987795,517.818183 367.489616,515.810223 L251.466215,448.816119 L251.452518,448.8079 C251.436082,448.8079 251.436082,448.799682 251.436082,448.799682 C248.989822,447.372469 245.949118,447.372469 243.502858,448.799682 L4.30629422,586.929822 C1.84359797,588.348817 0.323246004,590.967658 0.323246004,593.805648 L0.323246004,869.934438 C0.323246004,872.755992 1.84359797,875.388529 4.30629422,876.802046 L4.30629422,876.802046 Z M247.46947,998.906854 L24.1557903,869.934438 L247.46947,741.05516 L470.703708,870.027576 L247.46947,998.906854 L247.46947,998.906854 Z M353.584559,526.118483 C346.810089,544.072333 343.377655,563.138368 343.377655,582.900205 C343.377655,662.276274 401.057891,729.826471 478.669805,742.857668 L478.669805,856.245791 L255.41913,727.287072 L255.435567,469.449075 L353.584559,526.118483 L353.584559,526.118483 Z" id="Fill-9" fill="#0A0A0A"></path>
                <path d="M262.552457,429.585721 L378.748438,496.683921 C382.167176,498.664487 386.618657,497.804324 389.04848,494.612955 C417.083223,457.595809 459.636642,436.365669 505.778639,436.365669 C551.969945,436.365669 594.471316,457.595809 622.396483,494.612955 C623.933271,496.667485 626.316526,497.771452 628.729913,497.771452 C630.094121,497.771452 631.458329,497.426291 632.696525,496.714054 L748.892506,429.678859 C748.925379,429.662423 748.941815,429.624072 748.974687,429.607636 C748.974687,429.602157 748.991124,429.607636 748.991124,429.602157 C751.45108,428.180422 752.971432,425.564321 752.971432,422.726331 L752.971432,146.583845 C752.971432,143.743115 751.45108,141.127014 748.991124,139.708019 L509.824693,1.6080119 C508.348171,0.753327551 506.701808,0.580747057 505.058184,0.753327551 C503.976132,0.862902467 502.863946,1.03548296 501.891469,1.59979378 L262.599027,139.6998 C260.13907,141.118796 258.615979,143.743115 258.615979,146.583845 L258.615979,422.537314 C258.615979,422.60032 258.569409,422.646889 258.569409,422.709895 C258.569409,425.547885 260.089761,428.166726 262.552457,429.585721 L262.552457,429.585721 Z M630.721437,479.513531 C599.804875,441.910159 554.649052,420.482785 505.778639,420.482785 C456.952056,420.482785 411.7661,441.901941 380.739962,479.499835 L282.448523,422.734549 L505.841644,293.844314 L506.674414,294.331923 L729.04301,422.789337 L630.721437,479.513531 L630.721437,479.513531 Z M497.908421,22.2409687 L497.878287,280.078965 L274.515299,408.92811 L274.515299,151.166815 L497.908421,22.2409687 L497.908421,22.2409687 Z" id="Fill-10" fill="#0A0A0A"></path>
                <path d="M505.778639,455.839871 C435.724655,455.839871 378.732002,512.824306 378.732002,582.861853 C378.732002,652.899401 435.724655,709.883836 505.778639,709.883836 C575.766877,709.883836 632.729398,652.899401 632.729398,582.861853 C632.729398,512.824306 575.766877,455.839871 505.778639,455.839871" id="Fill-8" fill="#0A0A0A"></path>
            </g>
        </g>
    </g>
</svg>