<?xml version="1.0" encoding="utf-8"?>
<!-- Generator: Adobe Illustrator 16.0.0, SVG Export Plug-In . SVG Version: 6.00 Build 0)  -->
<!DOCTYPE svg PUBLIC "-//W3C//DTD SVG 1.1//EN" "http://www.w3.org/Graphics/SVG/1.1/DTD/svg11.dtd">
<svg version="1.1" id="Layer_1" xmlns="http://www.w3.org/2000/svg" xmlns:xlink="http://www.w3.org/1999/xlink" x="0px" y="0px"
	 width="176px" height="176px" viewBox="-1.56 -1.56 176 176" enable-background="new -1.56 -1.56 176 176" xml:space="preserve">
<g>
	<path fill="#764ABC" d="M119.787,121c6.38-0.658,11.22-6.158,11-12.76c-0.221-6.601-5.721-11.879-12.319-11.879h-0.439
		c-6.82,0.219-12.102,5.938-11.881,12.76c0.221,3.299,1.541,6.16,3.521,8.141c-7.479,14.738-18.922,25.52-36.08,34.539
		c-11.661,6.16-23.761,8.359-35.86,6.82c-9.9-1.32-17.6-5.721-22.44-12.98c-7.04-10.779-7.7-22.439-1.76-34.1
		c4.18-8.359,10.78-14.521,14.96-17.601c-0.88-2.86-2.2-7.7-2.86-11.22c-31.9,23.1-28.6,54.339-18.92,69.08
		c7.26,11,22,17.82,38.28,17.82c4.4,0,8.8-0.439,13.2-1.541C86.347,162.58,107.688,145.861,119.787,121z"/>
	<path fill="#764ABC" d="M158.506,93.72c-16.72-19.58-41.359-30.359-69.52-30.359h-3.519c-1.98-3.961-6.16-6.601-10.78-6.601h-0.44
		c-6.82,0.22-12.1,5.94-11.88,12.76c0.22,6.601,5.72,11.88,12.32,11.88h0.44c4.84-0.22,9.02-3.3,10.779-7.48h3.959
		c16.72,0,32.56,4.841,46.858,14.301c11,7.26,18.921,16.721,23.32,28.16c3.74,9.24,3.521,18.26-0.438,25.961
		c-6.16,11.658-16.5,18.039-30.142,18.039c-8.799,0-17.16-2.641-21.561-4.619c-2.42,2.199-6.818,5.719-9.898,7.92
		c9.459,4.398,19.14,6.818,28.379,6.818c21.121,0,36.74-11.66,42.681-23.318C175.447,134.419,175.006,112.419,158.506,93.72
		L158.506,93.72z"/>
	<path fill="#764ABC" d="M46.747,124.74c0.22,6.602,5.72,11.881,12.32,11.881h0.44c6.82-0.221,12.1-5.939,11.88-12.76
		c-0.221-6.601-5.721-11.882-12.32-11.882h-0.44c-0.44,0-1.1,0-1.54,0.222c-9.02-14.961-12.76-31.24-11.44-48.84
		c0.88-13.201,5.28-24.641,12.98-34.101c6.379-8.14,18.7-12.1,27.06-12.32c23.319-0.44,33.218,28.6,33.878,40.26
		c2.86,0.66,7.7,2.2,11,3.3c-2.64-35.64-24.64-54.12-45.76-54.12c-19.799,0-38.06,14.3-45.319,35.42
		c-10.12,28.16-3.52,55.22,8.8,76.561C47.188,119.899,46.527,122.32,46.747,124.74z"/>
</g>
</svg>
