<?xml version="1.0" encoding="utf-8"?>
<!-- Generator: Adobe Illustrator 16.0.0, SVG Export Plug-In . SVG Version: 6.00 Build 0)  -->
<!DOCTYPE svg PUBLIC "-//W3C//DTD SVG 1.1//EN" "http://www.w3.org/Graphics/SVG/1.1/DTD/svg11.dtd">
<svg version="1.1" id="Layer_1" xmlns="http://www.w3.org/2000/svg" xmlns:xlink="http://www.w3.org/1999/xlink" x="0px" y="0px"
	 width="172.88px" height="172.88px" viewBox="24.532 24.88 172.88 172.88" enable-background="new 24.532 24.88 172.88 172.88"
	 xml:space="preserve">
<g>
	<path fill="#764ABC" d="M144.32,145.88c6.38-0.659,11.22-6.159,11-12.76c-0.221-6.601-5.721-11.88-12.32-11.88h-0.439
		c-6.82,0.22-12.101,5.939-11.881,12.76c0.221,3.3,1.541,6.16,3.521,8.141c-7.479,14.739-18.921,25.52-36.08,34.539
		c-11.66,6.16-23.76,8.36-35.86,6.82c-9.9-1.32-17.6-5.72-22.44-12.98c-7.04-10.779-7.7-22.439-1.76-34.1
		c4.18-8.359,10.78-14.52,14.96-17.6c-0.88-2.86-2.2-7.7-2.86-11.22c-31.9,23.1-28.6,54.339-18.92,69.08
		c7.26,11,22,17.82,38.28,17.82c4.4,0,8.8-0.439,13.2-1.54C110.88,187.46,132.221,170.74,144.32,145.88z"/>
	<path fill="#764ABC" d="M183.04,118.6C166.32,99.02,141.68,88.24,113.52,88.24H110c-1.98-3.96-6.16-6.6-10.78-6.6h-0.44
		c-6.82,0.22-12.1,5.94-11.88,12.76c0.22,6.6,5.72,11.88,12.32,11.88h0.44c4.84-0.22,9.02-3.3,10.78-7.48h3.96
		c16.72,0,32.56,4.84,46.859,14.3c11,7.26,18.92,16.721,23.32,28.16c3.74,9.24,3.52,18.26-0.439,25.961
		c-6.16,11.659-16.5,18.039-30.141,18.039c-8.8,0-17.16-2.64-21.561-4.619c-2.42,2.199-6.819,5.719-9.899,7.92
		c9.46,4.399,19.14,6.819,28.38,6.819c21.12,0,36.74-11.66,42.68-23.319C199.98,159.3,199.54,137.3,183.04,118.6L183.04,118.6z"/>
	<path fill="#764ABC" d="M71.28,149.62C71.5,156.221,77,161.5,83.6,161.5h0.44c6.82-0.22,12.1-5.939,11.88-12.76
		c-0.22-6.6-5.72-11.881-12.32-11.881h-0.44c-0.44,0-1.1,0-1.54,0.221c-9.02-14.96-12.76-31.24-11.44-48.84
		c0.88-13.2,5.28-24.64,12.98-34.1c6.38-8.14,18.7-12.1,27.06-12.32c23.32-0.44,33.219,28.6,33.879,40.26c2.86,0.66,7.7,2.2,11,3.3
		c-2.64-35.64-24.64-54.12-45.76-54.12c-19.8,0-38.06,14.3-45.32,35.42c-10.12,28.16-3.52,55.22,8.8,76.56
		C71.72,144.779,71.06,147.2,71.28,149.62z"/>
</g>
</svg>
