<?xml version="1.0" encoding="utf-8"?>
<!-- Generator: Adobe Illustrator 16.0.0, SVG Export Plug-In . SVG Version: 6.00 Build 0)  -->
<!DOCTYPE svg PUBLIC "-//W3C//DTD SVG 1.1//EN" "http://www.w3.org/Graphics/SVG/1.1/DTD/svg11.dtd">
<svg version="1.1" id="Layer_1" xmlns="http://www.w3.org/2000/svg" xmlns:xlink="http://www.w3.org/1999/xlink" x="0px" y="0px"
	 width="83px" height="83px" viewBox="0 0 83 83" enable-background="new 0 0 83 83" xml:space="preserve">
<g>
	<g>
		<path fill="#960F17" d="M83.068,23.175c0,1.096,0,2.191,0,3.287c-0.09,0.024-0.09,0.099-0.098,0.169
			c-0.316,2.8-1.344,5.369-2.562,7.875c-0.076,0.046-0.104,0.113-0.088,0.2l0.011-0.019c-0.134,0.057-0.166,0.192-0.229,0.302
			c-0.36,0.606-0.703,1.224-1.084,1.818c-1.838,2.875-4.024,5.468-6.389,7.917c-1.65,1.711-3.408,3.308-5.206,4.863
			c-0.159,0.139-0.321,0.275-0.356,0.52c-0.227,1.551-0.461,3.101-0.696,4.648c-0.396,2.602-0.795,5.202-1.192,7.805
			c-0.32,2.104-0.642,4.207-0.961,6.312c-0.396,2.601-0.792,5.202-1.185,7.804c-0.188,1.251-0.369,2.504-0.554,3.754l-0.008,0.019
			c-0.209-0.021-0.264-0.209-0.354-0.349c-0.251-0.386-0.488-0.781-0.732-1.173c-2.17-3.467-4.339-6.936-6.51-10.401
			c-1.468-2.344-2.941-4.685-4.407-7.028c-0.104-0.169-0.169-0.251-0.395-0.133c-5.498,2.86-11.286,4.94-17.299,6.413
			c-0.512,0.127-1.023,0.256-1.545,0.387c0.075,0.163,0.199,0.182,0.301,0.222c3.949,1.568,7.898,3.138,11.849,4.699
			c5.975,2.363,11.949,4.724,17.92,7.091c0.11,0.043,0.314,0.01,0.305,0.229c-0.113-0.02-0.229-0.034-0.34-0.061
			c-6.639-1.539-13.275-3.083-19.916-4.619c-9.726-2.252-19.454-4.5-29.181-6.748c-0.602-0.141-1.215-0.235-1.79-0.477
			c0.346-0.573,0.719-1.127,1.099-1.68c0.756-1.098,1.504-2.203,2.243-3.312c0.478-0.717,0.967-1.445,1.486-2.145
			c0.886-1.193,1.689-2.448,2.529-3.676c0.883-1.289,1.798-2.559,2.645-3.871c0.658-1.021,1.361-2.01,2.032-3.021
			c0.51-0.769,1.059-1.521,1.591-2.276c0.915-1.301,1.777-2.639,2.662-3.961c0.054-0.029,0.108-0.059,0.163-0.088
			c0.022,0.168,0.166,0.227,0.282,0.307c0.376,0.267,0.756,0.527,1.132,0.795c4.013,2.854,8.024,5.71,12.038,8.562
			c3.18,2.262,6.364,4.52,9.545,6.778c0.124,0.088,0.242,0.267,0.404,0.173c0.119-0.066,0.111-0.255,0.125-0.396
			c0.01-0.086,0.004-0.174,0.01-0.26c0.093-1.436,0.178-2.871,0.279-4.306c0.131-1.821,0.279-3.642,0.41-5.462
			c0.102-1.405,0.184-2.812,0.28-4.219c0.138-1.979,0.282-3.957,0.423-5.938c0.062-0.889,0.122-1.779,0.188-2.668
			c0.136-1.864,0.272-3.728,0.41-5.591l-0.006,0.005c0.197,0.035,0.398,0.059,0.594,0.107c3.945,0.965,7.892,1.931,11.836,2.899
			c4.113,1.01,8.226,2.025,12.339,3.032c0.188,0.046,0.446,0.217,0.565,0.06c0.131-0.171-0.127-0.347-0.231-0.504
			c-3.89-5.825-7.782-11.647-11.679-17.467c-0.896-1.341-1.832-2.657-2.676-4.032v-0.001c3.025-0.65,6.053-1.295,9.076-1.955
			c0.926-0.202,1.868-0.333,2.77-0.643c1.429,0.452,2.65,1.274,3.85,2.14c2.369,1.712,3.844,3.959,4.132,6.918
			C82.936,22.933,82.884,23.108,83.068,23.175z"/>
		<path fill="#EB1622" d="M47.771,8.555c1.385,0,2.77,0,4.152,0c0.074,0.16,0.227,0.092,0.342,0.106
			c1.832,0.219,3.615,0.593,5.215,1.574c1.64,1.005,2.684,2.423,2.946,4.355c0.247,1.807-0.222,3.492-0.958,5.115
			c-1.281,2.825-3.183,5.215-5.388,7.354c-7.3,7.08-15.978,11.741-25.736,14.441c-3.715,1.027-7.503,1.577-11.375,1.232
			c-1.898-0.17-3.738-0.578-5.378-1.602c-2.157-1.345-3.136-3.306-2.946-5.841c0.119-1.597,0.672-3.062,1.411-4.461
			c1.653-3.129,3.993-5.704,6.599-8.05c4.003-3.604,8.496-6.481,13.328-8.833c5.545-2.7,11.316-4.671,17.497-5.277
			C47.582,8.658,47.721,8.711,47.771,8.555z"/>
		<path fill="#960F17" d="M0.105,55.529c0.17-0.086,0.104-0.254,0.12-0.381c0.197-1.613,0.518-3.203,0.925-4.774
			c0.042-0.164,0.051-0.343,0.171-0.479c0.119-0.104,0.243-0.199,0.355-0.311c2.002-1.97,4.003-3.941,6.006-5.911
			c0.088-0.086,0.164-0.246,0.305-0.205c0.167,0.048,0.142,0.23,0.153,0.368c0.036,0.416,0.062,0.832,0.097,1.247
			c0.122,1.433,0.242,2.865,0.369,4.297c0.161,1.818,0.333,3.636,0.492,5.453c0.127,1.446,0.238,2.896,0.364,4.341
			c0.165,1.891,0.326,3.78,0.512,5.669c0.119,1.216,0.166,2.438,0.358,3.646c-1.45-0.353-2.798-0.952-4.083-1.693
			c-2.287-1.319-4.059-3.138-5.274-5.489c-0.354-0.685-0.585-1.404-0.716-2.16c-0.024-0.143,0.028-0.326-0.152-0.416
			C0.105,57.663,0.105,56.598,0.105,55.529z"/>
		<path fill="#EB1622" d="M26.827,44.473c8.325-3.994,16.649-7.989,24.975-11.981c0.181-0.087,0.368-0.161,0.554-0.241
			c-0.139,1.864-0.275,3.728-0.412,5.591c-0.063,0.889-0.123,1.779-0.187,2.668c-0.141,1.979-0.286,3.958-0.423,5.938
			c-0.098,1.404-0.18,2.812-0.279,4.218c-0.132,1.821-0.281,3.642-0.41,5.462c-0.104,1.436-0.188,2.87-0.279,4.305
			c-0.006,0.088-0.001,0.174-0.01,0.26c-0.015,0.144-0.006,0.33-0.125,0.397c-0.162,0.093-0.281-0.085-0.405-0.173
			c-3.183-2.259-6.365-4.518-9.545-6.777c-4.014-2.854-8.025-5.709-12.038-8.563c-0.376-0.267-0.755-0.528-1.132-0.794
			C26.993,44.698,26.849,44.641,26.827,44.473z"/>
		<path fill="#EB1622" d="M10.332,68.489c-0.192-1.208-0.239-2.433-0.358-3.646c-0.186-1.889-0.347-3.778-0.512-5.669
			c-0.126-1.445-0.237-2.895-0.364-4.341c-0.159-1.817-0.331-3.635-0.492-5.453c-0.127-1.432-0.247-2.864-0.369-4.297
			c-0.035-0.415-0.061-0.832-0.097-1.247c-0.012-0.138,0.014-0.32-0.153-0.368c-0.141-0.041-0.216,0.119-0.305,0.205
			c-2.003,1.97-4.004,3.941-6.006,5.911c-0.112,0.109-0.237,0.207-0.355,0.311c0.504-2,1.174-3.946,1.859-5.89
			c0.843-2.392,1.774-4.75,2.705-7.11c0.43-1.09,1.048-2.073,1.767-3.031c0.037,0.756,0.078,1.511,0.111,2.267
			c0.095,2.218,0.198,4.436,0.268,6.654c0.013,0.395,0.141,0.517,0.516,0.54c2.258,0.141,4.516,0.3,6.773,0.454
			c3.782,0.261,7.563,0.521,11.345,0.781c-0.884,1.322-1.747,2.66-2.662,3.961c-0.533,0.758-1.081,1.51-1.591,2.276
			c-0.671,1.011-1.375,1.999-2.032,3.021c-0.846,1.312-1.762,2.582-2.645,3.871c-0.84,1.228-1.643,2.481-2.529,3.676
			c-0.519,0.699-1.008,1.428-1.486,2.145c-0.739,1.109-1.487,2.217-2.243,3.313c-0.38,0.552-0.753,1.104-1.099,1.679l-0.027,0.012
			L10.332,68.489z"/>
		<path fill="#EB1622" d="M52.348,32.255c3.553-5.27,7.106-10.54,10.661-15.809c0.023-0.036,0.058-0.064,0.087-0.097
			c0.844,1.375,1.778,2.691,2.676,4.032c3.896,5.82,7.789,11.643,11.679,17.467c0.104,0.157,0.362,0.333,0.231,0.504
			c-0.119,0.158-0.377-0.013-0.565-0.06c-4.113-1.007-8.226-2.022-12.339-3.032c-3.944-0.969-7.891-1.935-11.836-2.899
			C52.747,32.314,52.545,32.29,52.348,32.255z"/>
		<path fill="#EB1622" d="M62.471,80.448c-0.007,0.194-0.134,0.144-0.244,0.116c-0.209-0.053-0.418-0.105-0.625-0.16
			c0.012-0.219-0.192-0.187-0.304-0.229c-5.971-2.367-11.946-4.728-17.92-7.091c-3.951-1.562-7.899-3.131-11.849-4.699
			c-0.102-0.04-0.226-0.059-0.301-0.222c0.522-0.131,1.033-0.26,1.545-0.387c6.013-1.473,11.801-3.553,17.299-6.413
			c0.226-0.118,0.289-0.036,0.395,0.133c1.467,2.345,2.939,4.685,4.407,7.028c2.171,3.467,4.34,6.936,6.51,10.401
			c0.244,0.392,0.481,0.787,0.732,1.173C62.208,80.239,62.262,80.428,62.471,80.448z"/>
		<path fill="#EB1622" d="M80.332,34.688c-0.062,0.19-0.116,0.384-0.189,0.57c-5.826,14.93-11.654,29.856-17.483,44.784
			c-0.054,0.133-0.12,0.259-0.181,0.388c0.186-1.25,0.365-2.503,0.555-3.754c0.393-2.602,0.789-5.203,1.185-7.804
			c0.319-2.104,0.64-4.208,0.962-6.312c0.396-2.603,0.797-5.203,1.191-7.805c0.236-1.549,0.471-3.099,0.695-4.648
			c0.037-0.243,0.197-0.381,0.357-0.52c1.797-1.557,3.555-3.152,5.206-4.863c2.363-2.449,4.552-5.043,6.39-7.917
			c0.379-0.594,0.723-1.211,1.082-1.818C80.166,34.881,80.198,34.746,80.332,34.688z"/>
		<path fill="#EB1622" d="M63.096,16.349c-1.647-2.513-3.297-5.025-4.979-7.593c0.625-0.058,1.186,0.015,1.698,0.19
			c4.822,1.648,9.824,2.719,14.588,4.548c0.186,0.071,0.387,0.114,0.539,0.256c-0.9,0.309-1.844,0.441-2.77,0.643
			C69.148,15.054,66.122,15.698,63.096,16.349z"/>
		<path fill="#EB1622" d="M80.409,34.507c0,0.079-0.013,0.154-0.089,0.2C80.307,34.621,80.333,34.553,80.409,34.507z"/>
	</g>
</g>
</svg>
