<?xml version="1.0" encoding="utf-8"?>
<!-- Generator: Adobe Illustrator 16.0.0, SVG Export Plug-In . SVG Version: 6.00 Build 0)  -->
<!DOCTYPE svg PUBLIC "-//W3C//DTD SVG 1.1//EN" "http://www.w3.org/Graphics/SVG/1.1/DTD/svg11.dtd">
<svg version="1.1" id="Layer_1" xmlns="http://www.w3.org/2000/svg" xmlns:xlink="http://www.w3.org/1999/xlink" x="0px" y="0px"
	 width="220px" height="220px" viewBox="0 0 220 220" enable-background="new 0 0 220 220" xml:space="preserve">
<path fill="#CD6799" d="M189.317,128.329c-7.671,0.04-14.337,1.888-19.92,4.618c-2.048-4.056-4.097-7.67-4.458-10.32
	c-0.401-3.093-0.883-4.98-0.401-8.676c0.481-3.694,2.651-8.955,2.61-9.357c-0.04-0.401-0.482-2.289-4.899-2.329
	s-8.233,0.843-8.675,2.008s-1.285,3.815-1.848,6.546c-0.763,4.017-8.835,18.354-13.453,25.863c-1.486-2.932-2.771-5.502-3.053-7.55
	c-0.401-3.093-0.883-4.98-0.401-8.675s2.65-8.956,2.61-9.357s-0.482-2.29-4.899-2.33c-4.418-0.04-8.233,0.843-8.675,2.008
	c-0.441,1.164-0.924,3.896-1.848,6.546c-0.924,2.651-11.646,26.587-14.458,32.771c-1.446,3.174-2.691,5.703-3.574,7.43l0,0
	c0,0-0.041,0.121-0.161,0.322c-0.763,1.486-1.205,2.289-1.205,2.289s0,0,0,0.04c-0.603,1.085-1.245,2.089-1.566,2.089
	c-0.241,0-0.683-2.893,0.081-6.828c1.606-8.312,5.422-21.244,5.381-21.687c0-0.241,0.723-2.489-2.49-3.655
	c-3.133-1.164-4.257,0.764-4.538,0.764c-0.281,0-0.482,0.683-0.482,0.683s3.494-14.538-6.667-14.538
	c-6.345,0-15.1,6.947-19.438,13.213c-2.731,1.486-8.554,4.658-14.779,8.072c-2.369,1.325-4.819,2.65-7.108,3.896
	c-0.161-0.161-0.321-0.361-0.482-0.522c-12.289-13.132-35.02-22.409-34.056-40.04c0.361-6.426,2.57-23.293,43.655-43.775
	c33.815-16.667,60.723-12.048,65.381-1.808c6.666,14.619-14.418,41.767-49.357,45.703c-13.333,1.486-20.321-3.655-22.088-5.583
	c-1.847-2.008-2.128-2.128-2.811-1.727c-1.125,0.603-0.402,2.41,0,3.454c1.044,2.731,5.341,7.55,12.61,9.919
	c6.426,2.088,22.048,3.253,40.964-4.056c21.165-8.193,37.711-30.964,32.852-50.04c-4.86-19.357-36.988-25.743-67.39-14.94
	C52.209,45.197,32.61,55.317,18.514,68.49C1.767,84.153-0.883,97.767,0.201,103.47c3.896,20.241,31.807,33.414,42.972,43.173
	c-0.562,0.321-1.084,0.603-1.526,0.844c-5.582,2.771-26.867,13.895-32.168,25.662c-6.024,13.334,0.964,22.892,5.582,24.177
	c14.337,3.976,29.077-3.173,36.988-14.979c7.912-11.808,6.948-27.148,3.293-34.177c-0.04-0.081-0.08-0.161-0.161-0.241
	c1.446-0.844,2.932-1.727,4.377-2.57c2.852-1.687,5.663-3.253,8.072-4.538c-1.365,3.735-2.369,8.192-2.851,14.618
	c-0.603,7.551,2.49,17.35,6.546,21.205c1.807,1.687,3.936,1.727,5.301,1.727c4.739,0,6.868-3.936,9.237-8.594
	c2.892-5.703,5.502-12.33,5.502-12.33s-3.253,17.912,5.583,17.912c3.213,0,6.466-4.177,7.912-6.305c0,0.039,0,0.039,0,0.039
	s0.081-0.12,0.241-0.4c0.321-0.522,0.522-0.844,0.522-0.844s0-0.041,0-0.08c1.285-2.25,4.177-7.35,8.473-15.824
	c5.543-10.924,10.885-24.578,10.885-24.578s0.481,3.334,2.128,8.876c0.964,3.253,2.972,6.827,4.578,10.28
	c-1.285,1.808-2.088,2.812-2.088,2.812s0,0,0.04,0.039c-1.045,1.365-2.169,2.852-3.414,4.298
	c-4.377,5.221-9.598,11.204-10.32,12.932c-0.844,2.048-0.643,3.534,0.963,4.739c1.165,0.883,3.254,1.004,5.382,0.883
	c3.936-0.281,6.707-1.244,8.072-1.848c2.128-0.763,4.618-1.928,6.948-3.654c4.297-3.172,6.907-7.711,6.666-13.694
	c-0.12-3.294-1.205-6.587-2.529-9.679c0.4-0.562,0.762-1.125,1.164-1.688c6.787-9.919,12.049-20.803,12.049-20.803
	s0.481,3.334,2.128,8.875c0.804,2.812,2.45,5.864,3.896,8.836c-6.386,5.181-10.321,11.205-11.727,15.141
	c-2.53,7.309-0.562,10.603,3.172,11.365c1.688,0.361,4.097-0.441,5.863-1.205c2.25-0.723,4.9-1.967,7.43-3.814
	c4.298-3.173,8.435-7.591,8.193-13.574c-0.121-2.731-0.844-5.422-1.848-8.033c5.422-2.248,12.41-3.493,21.326-2.449
	c19.115,2.249,22.891,14.177,22.168,19.197c-0.723,5.02-4.738,7.75-6.064,8.594c-1.324,0.844-1.767,1.125-1.646,1.727
	c0.161,0.884,0.804,0.844,1.928,0.684c1.566-0.281,10.041-4.057,10.402-13.293C220.441,141.101,209.197,128.209,189.317,128.329z
	 M41.847,178.049c-6.345,6.907-15.181,9.518-18.996,7.309c-4.097-2.369-2.49-12.57,5.301-19.879
	c4.739-4.459,10.843-8.595,14.899-11.125c0.924-0.562,2.289-1.365,3.936-2.369c0.281-0.161,0.442-0.241,0.442-0.241l0,0
	c0.321-0.201,0.643-0.401,0.964-0.603C51.245,161.582,48.514,170.779,41.847,178.049z M88.032,146.643
	c-2.209,5.381-6.828,19.156-9.639,18.394c-2.41-0.643-3.896-11.085-0.482-21.405c1.727-5.182,5.381-11.365,7.51-13.775
	c3.454-3.855,7.269-5.141,8.192-3.574C94.779,128.329,89.397,143.27,88.032,146.643z M126.145,164.875
	c-0.924,0.482-1.807,0.804-2.209,0.562c-0.281-0.16,0.402-0.803,0.402-0.803s4.779-5.141,6.666-7.471
	c1.084-1.365,2.369-2.971,3.734-4.778c0,0.161,0,0.361,0,0.522C134.738,159.053,128.795,163.189,126.145,164.875z M155.542,158.168
	c-0.683-0.481-0.562-2.088,1.728-7.107c0.883-1.969,2.971-5.262,6.546-8.434c0.401,1.285,0.683,2.529,0.643,3.694
	C164.418,154.072,158.875,156.964,155.542,158.168z"/>
</svg>
