<?xml version="1.0" encoding="utf-8"?>
<!-- Generator: Adobe Illustrator 16.0.0, SVG Export Plug-In . SVG Version: 6.00 Build 0)  -->
<!DOCTYPE svg PUBLIC "-//W3C//DTD SVG 1.1//EN" "http://www.w3.org/Graphics/SVG/1.1/DTD/svg11.dtd">
<svg version="1.1"
	 id="svg2985" xmlns:dc="http://purl.org/dc/elements/1.1/" xmlns:cc="http://creativecommons.org/ns#" xmlns:rdf="http://www.w3.org/1999/02/22-rdf-syntax-ns#" xmlns:svg="http://www.w3.org/2000/svg"
	 xmlns="http://www.w3.org/2000/svg" xmlns:xlink="http://www.w3.org/1999/xlink" x="0px" y="0px" width="159px" height="159px"
	 viewBox="1.396 9.792 159 159" enable-background="new 1.396 9.792 159 159" xml:space="preserve">
<title  id="title2998">SQLite</title>
<path id="solid-background" fill="#0F80CC" d="M121.631,17.036H22.125C15.457,17.036,10,22.494,10,29.163v109.737
	c0,6.668,5.457,12.125,12.125,12.125h65.537C86.919,118.415,98.055,55.13,121.631,17.036z"/>
<linearGradient id="gradient-background_1_" gradientUnits="userSpaceOnUse" x1="92.3813" y1="219.1885" x2="101.2555" y2="219.1885" gradientTransform="matrix(-5.025000e-07 11.4863 11.4863 5.025000e-07 -2451.8945 -1038.2948)">
	<stop  offset="0" style="stop-color:#97D9F6"/>
	<stop  offset="0.9202" style="stop-color:#0F80CC"/>
	<stop  offset="1" style="stop-color:#0F80CC"/>
</linearGradient>
<path id="gradient-background" fill="url(#gradient-background_1_)" d="M118.017,20.574H22.125c-4.735,0-8.589,3.853-8.589,8.589
	v101.73c21.717-8.335,54.312-15.526,76.85-15.2C94.915,92.011,108.226,45.602,118.017,20.574z"/>
<path id="feather" fill="#003B57" d="M144.841,13.445c-6.815-6.077-15.066-3.636-23.21,3.591c-1.208,1.074-2.415,2.265-3.615,3.538
	c-13.931,14.779-26.863,42.154-30.88,63.06c1.565,3.174,2.787,7.224,3.592,10.317c0.206,0.794,0.393,1.539,0.542,2.173
	c0.354,1.5,0.543,2.473,0.543,2.473s-0.125-0.473-0.637-1.959c-0.098-0.285-0.207-0.597-0.335-0.963
	c-0.055-0.15-0.131-0.335-0.215-0.531c-0.909-2.112-3.422-6.571-4.529-8.512c-0.946,2.791-1.782,5.403-2.482,7.765
	c3.194,5.843,5.14,15.857,5.14,15.857s-0.169-0.649-0.971-2.914c-0.713-2.003-4.261-8.222-5.102-9.675
	c-1.438,5.309-2.009,8.893-1.494,9.766c1,1.69,1.953,4.607,2.79,7.834c1.89,7.27,3.204,16.117,3.204,16.117s0.042,0.587,0.114,1.489
	c-0.263,6.104-0.105,12.433,0.367,18.153c0.626,7.572,1.805,14.076,3.308,17.559l1.02-0.557c-2.206-6.859-3.103-15.848-2.71-26.214
	c0.594-15.845,4.24-34.954,10.978-54.87c11.382-30.065,27.175-54.188,41.629-65.708c-13.174,11.897-31.004,50.409-36.341,64.67
	c-5.977,15.97-10.211,30.957-12.764,45.315c4.403-13.461,18.642-19.247,18.642-19.247s6.984-8.612,15.145-20.917
	c-4.889,1.114-12.916,3.023-15.605,4.153c-3.966,1.663-5.035,2.231-5.035,2.231s12.847-7.824,23.87-11.367
	C144.958,62.199,161.473,28.281,144.841,13.445"/>
</svg>
