<?xml version="1.0" encoding="utf-8"?>
<!-- Generator: Adobe Illustrator 16.0.0, SVG Export Plug-In . SVG Version: 6.00 Build 0)  -->
<!DOCTYPE svg PUBLIC "-//W3C//DTD SVG 1.1//EN" "http://www.w3.org/Graphics/SVG/1.1/DTD/svg11.dtd">
<svg version="1.1" id="Layer_1" xmlns="http://www.w3.org/2000/svg" xmlns:xlink="http://www.w3.org/1999/xlink" x="0px" y="0px"
	 width="40px" height="40px" viewBox="0 -2 40 40" enable-background="new 0 -2 40 40" xml:space="preserve">
<linearGradient id="SVGID_1_" gradientUnits="userSpaceOnUse" x1="-81.7939" y1="117.7979" x2="-81.7939" y2="116.7979" gradientTransform="matrix(39.6201 0 0 -35.5033 3260.4961 4184.6729)">
	<stop  offset="0" style="stop-color:#F88A36"/>
	<stop  offset="1" style="stop-color:#FD2020"/>
</linearGradient>
<path fill="url(#SVGID_1_)" d="M29.885,35.544c-4.667,2.696-11.084,2.973-17.54,0.206C7.118,33.526,2.78,29.633,0,25.185
	c1.334,1.112,2.892,2.002,4.56,2.78c6.667,3.125,13.333,2.911,18.024,0.009c-0.004-0.004-0.006-0.006-0.008-0.009
	c-6.672-5.116-12.344-11.789-16.57-17.238c-0.89-0.89-1.558-2.002-2.225-3.003c5.116,4.671,13.235,10.565,16.126,12.234
	C13.791,13.507,8.341,5.5,8.563,5.722c9.676,9.787,18.685,15.348,18.685,15.348c0.298,0.168,0.527,0.308,0.713,0.433
	c0.195-0.496,0.366-1.011,0.51-1.545c1.558-5.672-0.222-12.123-4.115-17.461c9.009,5.45,14.348,15.681,12.123,24.245
	c-0.059,0.231-0.121,0.459-0.189,0.683c0.025,0.031,0.053,0.063,0.078,0.096c4.447,5.562,3.225,11.455,2.669,10.344
	C36.623,33.142,32.156,34.586,29.885,35.544L29.885,35.544z"/>
</svg>
