<?xml version="1.0" encoding="utf-8"?>
<!-- Generator: Adobe Illustrator 16.0.0, SVG Export Plug-In . SVG Version: 6.00 Build 0)  -->
<!DOCTYPE svg PUBLIC "-//W3C//DTD SVG 1.1//EN" "http://www.w3.org/Graphics/SVG/1.1/DTD/svg11.dtd">
<svg version="1.1" id="Layer_1" xmlns="http://www.w3.org/2000/svg" xmlns:xlink="http://www.w3.org/1999/xlink" x="0px" y="0px"
	 width="200px" height="200px" viewBox="0 -0.5 200 200" enable-background="new 0 -0.5 200 200" xml:space="preserve">
<g>
	<g>
		<defs>
			<rect id="SVGID_1_" width="200" height="199"/>
		</defs>
		<clipPath id="SVGID_2_">
			<use xlink:href="#SVGID_1_"  overflow="visible"/>
		</clipPath>
		<path clip-path="url(#SVGID_2_)" fill="#CB344A" d="M47.781,87.199c0,0-31.118,21.902-32.335,30.246l2.335-0.479
			c0,0,37.264-24.699,66.803-27.711l0.669-3.749L47.781,87.199"/>
	</g>
	<g>
		<defs>
			<rect id="SVGID_3_" width="200" height="199"/>
		</defs>
		<clipPath id="SVGID_4_">
			<use xlink:href="#SVGID_3_"  overflow="visible"/>
		</clipPath>
		<path clip-path="url(#SVGID_4_)" fill="#CB344A" d="M96.629,84.069l-24.511,17.385l1.325,1.062
			c0.999-0.806,43.54-13.797,43.54-13.797l8.97-5.623C119.934,83.845,96.629,84.069,96.629,84.069"/>
	</g>
	<g>
		<defs>
			<rect id="SVGID_5_" width="200" height="199"/>
		</defs>
		<clipPath id="SVGID_6_">
			<use xlink:href="#SVGID_5_"  overflow="visible"/>
		</clipPath>
		<path clip-path="url(#SVGID_6_)" fill="#CB344A" d="M117.932,105.096c17.405,0,43.495-17.046,43.495-17.046l-8.434-1.605
			c-0.417,0.417-13.601-0.462-13.601-0.462l-6.259-1.738l-14.95,17.036l-1.218,2.955C118.042,103.8,117.932,105.096,117.932,105.096
			"/>
	</g>
	<g>
		<defs>
			<rect id="SVGID_7_" width="200" height="199"/>
		</defs>
		<clipPath id="SVGID_8_">
			<use xlink:href="#SVGID_7_"  overflow="visible"/>
		</clipPath>
		<path clip-path="url(#SVGID_8_)" fill="#CB344A" d="M174.729,159.459l-5.377,1.514l-24.844-0.537l-15.541-12.084l-18.783,4.699
			l-21.727-1.88l-12.166,13.294l-22.828,6.819l-11.398-3.534c-0.363-0.312-0.574-0.494-0.574-0.494l5.116,12.527
			c0,0,11.588,12.424,18.061,13.885c6.472,1.461,18.165-0.104,26.935-1.463c8.769-1.357,15.764-4.489,18.583-9.604
			c2.817-5.117,3.235-6.578,3.235-6.578s8.354,11.797,15.556,13.154c7.203,1.357,28.605-5.951,28.605-5.951
			s13.051-3.55,15.346-8.037c2.297-4.489,8.354-19.209,8.354-19.209L174.729,159.459 M44.456,169.665
			c-0.12-0.056-0.241-0.11-0.361-0.166c-0.856-0.739-1.556-1.343-2.013-1.735L44.456,169.665z"/>
	</g>
	<g>
		<defs>
			<rect id="SVGID_9_" width="200" height="199"/>
		</defs>
		<clipPath id="SVGID_10_">
			<use xlink:href="#SVGID_9_"  overflow="visible"/>
		</clipPath>
		<path clip-path="url(#SVGID_10_)" fill="#F3ECAD" d="M195.832,70.712c-0.055-0.671-0.128-1.342-0.21-2.009
			c-0.058-0.473-0.134-0.967-0.215-1.424c-1.794-1.509-3.831-2.851-5.952-4.071c-2.299-1.343-4.704-2.546-7.159-3.663
			c-2.438-1.15-4.942-2.191-7.461-3.207c-1.257-0.51-2.524-1.005-3.798-1.477c-1.27-0.495-2.551-0.956-3.835-1.424
			c2.696,0.447,5.366,1.059,8.015,1.741c1.725,0.446,3.438,0.945,5.141,1.477C168.245,25,139.287,4.385,107.67,4.385
			c-31.622,0-60.577,20.615-72.686,52.27c1.703-0.532,3.417-1.031,5.137-1.477c2.653-0.682,5.323-1.294,8.018-1.741
			c-1.289,0.468-2.567,0.929-3.84,1.424c-1.267,0.472-2.536,0.967-3.798,1.477c-2.519,1.016-5.016,2.057-7.46,3.207
			c-2.45,1.117-4.857,2.32-7.156,3.663c-2.121,1.219-4.157,2.562-5.957,4.071c-0.075,0.457-0.151,0.951-0.21,1.424
			c-0.081,0.667-0.155,1.338-0.21,2.009c-0.118,1.349-0.166,2.703-0.177,4.061c-0.027,2.713,0.156,5.426,0.5,8.11
			c0.37,2.692,0.864,5.366,1.595,7.951c0.36,1.295,0.768,2.572,1.24,3.808c0.237,0.617,0.495,1.225,0.764,1.816
			c0.134,0.294,0.274,0.585,0.413,0.864l0.172,0.328c0.199,0.101,0.408,0.204,0.607,0.3l1.204,0.575
			c0.671,0.305,1.6,0.746,2.368,1.09l0.123-0.114l-2.235-8.513c0.474-0.13,4.718-1.225,12.032-2.617
			c-0.59-0.112-1.186-0.241-1.772-0.381c-1.665-0.414-3.309-0.919-4.899-1.564c-0.79-0.333-1.568-0.697-2.309-1.115
			c-0.742-0.426-1.472-0.908-2.037-1.548c8.036,2.622,24.64,1.434,39.399-0.091c13.499-1.391,27.029-2.293,40.63-2.32
			c13.603,0.027,27.138,0.929,40.63,2.32c14.768,1.525,31.37,2.713,39.405,0.091c-0.563,0.64-1.293,1.123-2.035,1.548
			c-0.741,0.418-1.519,0.782-2.308,1.115c-1.594,0.645-3.234,1.15-4.899,1.564c-0.247,0.059-0.496,0.113-0.743,0.166
			c8.021,1.488,12.689,2.697,13.188,2.831l-2.14,8.11c0.432-0.194,0.864-0.381,1.291-0.574l1.201-0.575
			c0.2-0.097,0.403-0.199,0.607-0.3l0.166-0.328c0.146-0.279,0.285-0.57,0.419-0.864c0.271-0.591,0.528-1.199,0.764-1.816
			c0.474-1.236,0.882-2.513,1.241-3.808c0.73-2.585,1.225-5.259,1.595-7.951c0.347-2.685,0.526-5.398,0.501-8.11
			C196,73.415,195.951,72.061,195.832,70.712"/>
	</g>
	<g>
		<defs>
			<rect id="SVGID_11_" width="200" height="199"/>
		</defs>
		<clipPath id="SVGID_12_">
			<use xlink:href="#SVGID_11_"  overflow="visible"/>
		</clipPath>
		<path clip-path="url(#SVGID_12_)" fill="#E6CCAE" d="M116.787,183.288c-1.064,0.16-2.128,0.295-3.188,0.375
			c-0.682,0.032-1.402,0.103-2.059,0.103l-0.242,0.004c0.822-1.836,1.446-3.26,1.919-4.338
			C114.182,180.511,115.407,181.848,116.787,183.288"/>
	</g>
	<g>
		<defs>
			<rect id="SVGID_13_" width="200" height="199"/>
		</defs>
		<clipPath id="SVGID_14_">
			<use xlink:href="#SVGID_13_"  overflow="visible"/>
		</clipPath>
		<path clip-path="url(#SVGID_14_)" fill="#E6CCAE" d="M119.102,185.645c3.305,3.272,7.397,5.146,11.903,5.479
			c-7.569,3.074-14.702,4.26-20.196,4.63c-5.479,0.367-11.033-0.279-16.475-1.771c0.456-0.082,0.79-0.141,1.193-0.188
			c0.447-0.054,10.208-1.327,14.605-7.868l0.413,0.01l1.08-0.01c0.73,0,1.395-0.06,2.094-0.087c1.66-0.144,3.283-0.381,4.879-0.702
			C118.764,185.307,118.93,185.475,119.102,185.645"/>
	</g>
	<g>
		<defs>
			<rect id="SVGID_15_" width="200" height="199"/>
		</defs>
		<clipPath id="SVGID_16_">
			<use xlink:href="#SVGID_15_"  overflow="visible"/>
		</clipPath>
		<path clip-path="url(#SVGID_16_)" fill="#656C67" d="M128.464,87.698c-0.315,0.413-0.671,0.869-1.048,1.343
			c-1.934,2.444-4.613,5.57-7.794,8.627c-3.696-0.114-7.494-0.177-11.404-0.177c-6.46,0-12.655,0.171-18.537,0.457
			c8.311-3.449,18.295-6.818,29.109-8.842C121.948,88.508,125.182,88.03,128.464,87.698"/>
	</g>
	<g>
		<defs>
			<rect id="SVGID_17_" width="200" height="199"/>
		</defs>
		<clipPath id="SVGID_18_">
			<use xlink:href="#SVGID_17_"  overflow="visible"/>
		</clipPath>
		<path clip-path="url(#SVGID_18_)" fill="#656C67" d="M79.821,91.419c-2.966,2.084-6.317,4.744-9.566,7.971
			c-8.321,0.833-15.578,1.842-21.567,2.81C57.895,97.968,68.401,94.073,79.821,91.419"/>
	</g>
	<g>
		<defs>
			<rect id="SVGID_19_" width="200" height="199"/>
		</defs>
		<clipPath id="SVGID_20_">
			<use xlink:href="#SVGID_19_"  overflow="visible"/>
		</clipPath>
		<path clip-path="url(#SVGID_20_)" fill="#656C67" d="M181.48,108.596l-3.385,23.68l-16.213,11.354l-42.283-4.807l-6.363-20.962
			c-0.151-0.51-0.582-0.885-1.108-0.971c-1.567-0.254-2.953-0.383-4.108-0.383c-1.158,0-2.541,0.129-4.113,0.383
			c-0.522,0.086-0.95,0.461-1.106,0.971l-6.209,20.449l-42.047,9.357l-16.662-11.672l-3.283-26.572
			c0.715-0.402,1.441-0.806,2.176-1.209c1.031-0.222,2.191-0.457,3.475-0.704l3.094,25.073c0.048,0.393,0.264,0.741,0.586,0.967
			l11.462,8.032c0.236,0.16,0.516,0.246,0.795,0.246c0.101,0,0.199-0.011,0.306-0.033l34.57-7.69
			c0.119-0.027,0.237-0.069,0.344-0.125c0.322-0.172,0.575-0.467,0.682-0.826l6.225-20.498c1.67-0.432,5.947-1.43,9.706-1.43
			c3.75,0,8.03,0.998,9.701,1.43l6.227,20.498c0.16,0.531,0.623,0.912,1.176,0.977l34.57,3.928c0.334,0.037,0.677-0.051,0.951-0.242
			l11.469-8.024c0.311-0.22,0.521-0.565,0.572-0.946l3.062-21.421C178.048,107.868,179.971,108.27,181.48,108.596"/>
	</g>
	<g>
		<defs>
			<rect id="SVGID_21_" width="200" height="199"/>
		</defs>
		<clipPath id="SVGID_22_">
			<use xlink:href="#SVGID_21_"  overflow="visible"/>
		</clipPath>
		<path clip-path="url(#SVGID_22_)" fill="#656C67" d="M185.751,93.746l-2.976,11.29c-6.086-1.343-19.457-3.976-37.654-5.747
			c5.945-2.535,12-5.715,17.531-9.69C173.48,91.129,181.432,92.768,185.751,93.746"/>
	</g>
	<g>
		<defs>
			<rect id="SVGID_23_" width="200" height="199"/>
		</defs>
		<clipPath id="SVGID_24_">
			<use xlink:href="#SVGID_23_"  overflow="visible"/>
		</clipPath>
		<path clip-path="url(#SVGID_24_)" fill="#E5CAA3" d="M63.841,129.068c2.357-1.274,5.021-1.086,9.19-1.08
			c0.447,0.012,0.908,0.006,1.39-0.004c0.41-0.006,0.822-0.012,1.258-0.022c4.296-0.042,7.869,0.366,7.806-6.381
			c-0.065-6.746-3.062-12.198-7.354-12.155c-4.297,0.037-8.454,5.564-8.197,12.307c0.07,1.756,0.328,3.022,0.742,3.938
			C64.931,126.607,63.899,128.923,63.841,129.068 M115.498,101.318c-1.665,1.35-3.421,2.609-5.249,3.713l-6.097,3.68
			c-3.824,0.466-7.145,1.412-7.333,1.467c-0.112,0.031-0.219,0.079-0.317,0.141c-0.296,0.172-0.521,0.455-0.629,0.795l-6.209,20.46
			l-33.185,7.38l-10.452-7.321l-3.041-24.634c5.936-1.09,13.874-2.354,23.41-3.42c-1.022,1.225-2.014,2.508-2.955,3.854
			l-5.677,8.149l8.266-5.511c0.123-0.086,5.387-3.549,13.998-7.762c8.582-0.645,18.053-1.06,28.188-1.06
			C110.689,101.249,113.113,101.277,115.498,101.318z"/>
	</g>
	<g>
		<defs>
			<rect id="SVGID_25_" width="200" height="199"/>
		</defs>
		<clipPath id="SVGID_26_">
			<use xlink:href="#SVGID_25_"  overflow="visible"/>
		</clipPath>
		<path clip-path="url(#SVGID_26_)" fill="#E5CAA3" d="M151.835,126.302c-0.042-0.159-0.944-2.872-4.942-2.396
			c0.461-1.004,0.666-2.356,0.521-4.211c-0.527-6.73-4.443-12.079-8.734-11.932c-4.293,0.152-7.043,5.731-6.806,12.479
			c0.235,6.741,3.84,6.692,8.132,6.543C145.775,126.678,148.945,124.904,151.835,126.302 M173.016,106.917l-2.992,20.944
			l-10.539,7.379l-33.142-3.768l-6.183-20.361c-0.141-0.451-0.494-0.801-0.945-0.936c-0.205-0.06-4.308-1.229-8.658-1.605
			l0.795-0.055c0.688-0.049,12.117-1.449,25.768-6.156C152.232,103.521,164.576,105.38,173.016,106.917z"/>
	</g>
	<g>
		<defs>
			<rect id="SVGID_27_" width="200" height="199"/>
		</defs>
		<clipPath id="SVGID_28_">
			<use xlink:href="#SVGID_27_"  overflow="visible"/>
		</clipPath>
		<path clip-path="url(#SVGID_28_)" fill="#C7B39A" d="M63.841,129.068c2.357-1.274,5.021-1.086,9.19-1.08
			c0.447,0.012,0.908,0.006,1.39-0.004c0.41-0.006,0.822-0.012,1.258-0.022c4.296-0.042,7.869,0.366,7.806-6.381
			c-0.065-6.746-3.062-12.198-7.354-12.155c-4.297,0.037-8.454,5.564-8.197,12.307c0.07,1.756,0.328,3.022,0.742,3.938
			C64.931,126.607,63.899,128.923,63.841,129.068 M115.498,101.318c-1.665,1.35-3.421,2.609-5.249,3.713l-6.097,3.68
			c-3.824,0.466-7.145,1.412-7.333,1.467c-0.112,0.031-0.219,0.079-0.317,0.141c-0.296,0.172-0.521,0.455-0.629,0.795l-6.209,20.46
			l-33.185,7.38l-10.452-7.321l-3.041-24.634c5.936-1.09,13.874-2.354,23.41-3.42c-1.022,1.225-2.014,2.508-2.955,3.854
			l-5.677,8.149l8.266-5.511c0.123-0.086,5.387-3.549,13.998-7.762c8.582-0.645,18.053-1.06,28.188-1.06
			C110.689,101.249,113.113,101.277,115.498,101.318z"/>
	</g>
	<g>
		<defs>
			<rect id="SVGID_29_" width="200" height="199"/>
		</defs>
		<clipPath id="SVGID_30_">
			<use xlink:href="#SVGID_29_"  overflow="visible"/>
		</clipPath>
		<path clip-path="url(#SVGID_30_)" fill="#C7B39A" d="M151.835,126.302c-0.042-0.159-0.944-2.872-4.942-2.396
			c0.461-1.004,0.666-2.356,0.521-4.211c-0.527-6.73-4.443-12.079-8.734-11.932c-4.293,0.152-7.043,5.731-6.806,12.479
			c0.235,6.741,3.84,6.692,8.132,6.543C145.775,126.678,148.945,124.904,151.835,126.302 M173.016,106.917l-2.992,20.944
			l-10.539,7.379l-33.142-3.768l-6.183-20.361c-0.141-0.451-0.494-0.801-0.945-0.936c-0.205-0.06-4.308-1.229-8.658-1.605
			l0.795-0.055c0.688-0.049,12.117-1.449,25.768-6.156C152.232,103.521,164.576,105.38,173.016,106.917z"/>
	</g>
	<g>
		<defs>
			<rect id="SVGID_31_" width="200" height="199"/>
		</defs>
		<clipPath id="SVGID_32_">
			<use xlink:href="#SVGID_31_"  overflow="visible"/>
		</clipPath>
		<path clip-path="url(#SVGID_32_)" fill="#E6CCAE" d="M187.48,116.129c0.508,0.419,0.91,1.504,0.455,6.559
			c-0.559,6.188-3.158,17.049-4.771,18.801c-1.778,0.344-5.505-0.064-7.778-0.596c0.395-1.56,0.506-2.307,0.822-3.899l3.975-2.781
			c0.317-0.22,0.526-0.565,0.58-0.94l2.778-19.467C185.229,114.716,186.964,115.703,187.48,116.129"/>
	</g>
	<g>
		<defs>
			<rect id="SVGID_33_" width="200" height="199"/>
		</defs>
		<clipPath id="SVGID_34_">
			<use xlink:href="#SVGID_33_"  overflow="visible"/>
		</clipPath>
		<path clip-path="url(#SVGID_34_)" fill="#E6CCAE" d="M40.937,141.535c0.199,0.704,0.408,1.406,0.624,2.1
			c-2.139,0.629-6.495,1.23-8.465,0.887c-1.633-1.646-4.679-12.967-5.345-18.979c-0.543-4.871-0.162-5.924,0.333-6.334
			c0.575-0.482,2.728-1.708,4.593-2.707l2.519,20.449c0.048,0.393,0.257,0.74,0.586,0.967L40.937,141.535"/>
	</g>
	<g>
		<defs>
			<rect id="SVGID_35_" width="200" height="199"/>
		</defs>
		<clipPath id="SVGID_36_">
			<use xlink:href="#SVGID_35_"  overflow="visible"/>
		</clipPath>
		<path clip-path="url(#SVGID_36_)" fill="#E6CCAE" d="M121.348,141.82l-0.15,1.306c0,0-4.581,4.248-11.956,5.199
			c-7.375,0.95-13.171-3.582-13.171-3.582c0.242,0.788,0.586,2.565,2.256,4.086c-1.965-0.235-4.087-0.394-6.313-0.394
			c-0.804,0-1.616,0.022-2.401,0.062c-4.539,0.237-10.924,7.101-15.414,14.014c-2.203,0.697-9.089,2.884-17.06,5.237
			c-7.44-10.309-11.098-20.842-11.469-21.932l0.005-0.008c-0.15-0.418-0.301-0.839-0.441-1.268l1.913,1.338v0.005l4.726,3.31
			l1.58,1.102c0.236,0.167,0.515,0.253,0.794,0.253c0.102,0,0.204-0.011,0.305-0.03l43.435-9.67
			c0.487-0.106,0.881-0.474,1.025-0.949l6.194-20.392c1.068-0.146,2.008-0.22,2.812-0.22c0.803,0,1.746,0.074,2.815,0.22
			l6.374,20.997c0.162,0.532,0.624,0.919,1.171,0.979L121.348,141.82"/>
	</g>
	<g>
		<defs>
			<rect id="SVGID_37_" width="200" height="199"/>
		</defs>
		<clipPath id="SVGID_38_">
			<use xlink:href="#SVGID_37_"  overflow="visible"/>
		</clipPath>
		<path clip-path="url(#SVGID_38_)" fill="#E6CCAE" d="M170.926,140.693l1.402-0.984c-0.232,0.973-0.484,1.939-0.747,2.896
			c-1.949,6.246-4.25,11.772-6.806,16.654c-0.564,0.039-1.16,0.062-1.801,0.062c-1.972,0-3.984-0.168-6.215-0.371
			c-3.867-0.355-10.007-1.059-11.945-1.283c-1.67-1.332-7.385-5.873-12.141-9.615c-0.188-0.15-0.348-0.291-0.505-0.42
			c-0.837-0.708-1.789-1.513-3.717-1.513c-1.751,0-4.31,0.638-10.489,2.508c3.212-2.401,3.232-5.5,3.232-5.5l0.15-1.305
			l40.748,4.629c0.332,0.038,0.678-0.048,0.955-0.241l4.094-2.868L170.926,140.693"/>
	</g>
	<g>
		<defs>
			<rect id="SVGID_39_" width="200" height="199"/>
		</defs>
		<clipPath id="SVGID_40_">
			<use xlink:href="#SVGID_39_"  overflow="visible"/>
		</clipPath>
		<path clip-path="url(#SVGID_40_)" fill="#EBD599" d="M140.938,54.964c0.123,3.625,0.033,10.194-1.654,16.345
			c-0.068,0.237-0.059,0.479,0,0.704c-2.148-0.226-4.297-0.419-6.446-0.591c2.412-5.054,2.938-10.436,3.052-12.332
			C137.74,57.773,139.584,56.194,140.938,54.964"/>
	</g>
	<g>
		<defs>
			<rect id="SVGID_41_" width="200" height="199"/>
		</defs>
		<clipPath id="SVGID_42_">
			<use xlink:href="#SVGID_41_"  overflow="visible"/>
		</clipPath>
		<path clip-path="url(#SVGID_42_)" fill="#EBD599" d="M79.456,59.089c0.112,1.896,0.638,7.267,3.046,12.317
			c-2.149,0.171-4.297,0.37-6.441,0.596c0.058-0.221,0.065-0.457,0-0.694c-1.686-6.139-1.772-12.714-1.654-16.345
			C75.76,56.194,77.597,57.773,79.456,59.089"/>
	</g>
	<g>
		<defs>
			<rect id="SVGID_43_" width="200" height="199"/>
		</defs>
		<clipPath id="SVGID_44_">
			<use xlink:href="#SVGID_43_"  overflow="visible"/>
		</clipPath>
		<path clip-path="url(#SVGID_44_)" fill="#2D3136" d="M151.835,126.302c-2.89-1.396-6.06,0.378-11.828,0.484
			c-4.292,0.149-7.896,0.198-8.132-6.543c-0.236-6.747,2.514-12.326,6.805-12.479c4.293-0.148,8.207,5.2,8.735,11.932
			c0.146,1.854-0.06,3.207-0.521,4.211C150.891,123.43,151.793,126.141,151.835,126.302 M138.348,116.424
			c1.209-0.025,2.176-1.025,2.153-2.234c-0.021-1.215-1.021-2.182-2.235-2.152c-1.213,0.02-2.175,1.02-2.15,2.232
			C136.135,115.479,137.134,116.445,138.348,116.424z"/>
	</g>
	<g>
		<defs>
			<rect id="SVGID_45_" width="200" height="199"/>
		</defs>
		<clipPath id="SVGID_46_">
			<use xlink:href="#SVGID_45_"  overflow="visible"/>
		</clipPath>
		<path clip-path="url(#SVGID_46_)" fill="#EEF7FB" d="M138.266,112.027c1.211-0.021,2.211,0.941,2.233,2.152
			c0.022,1.213-0.942,2.213-2.153,2.234c-1.212,0.021-2.212-0.941-2.232-2.153C136.09,113.05,137.055,112.05,138.266,112.027"/>
	</g>
	<g>
		<defs>
			<rect id="SVGID_47_" width="200" height="199"/>
		</defs>
		<clipPath id="SVGID_48_">
			<use xlink:href="#SVGID_47_"  overflow="visible"/>
		</clipPath>
		<path clip-path="url(#SVGID_48_)" fill="#2D3136" d="M83.484,121.58c0.063,6.747-3.509,6.339-7.806,6.381
			c-0.435,0.012-0.848,0.016-1.258,0.021c-0.482,0.012-0.944,0.017-1.39,0.006c-4.168-0.006-6.833-0.194-9.19,1.078
			c0.058-0.146,1.09-2.461,4.835-3.399c-0.414-0.914-0.673-2.181-0.742-3.937c-0.257-6.741,3.9-12.271,8.197-12.308
			C80.422,109.382,83.419,114.835,83.484,121.58 M76.85,118.051c1.209-0.031,2.165-1.043,2.133-2.251
			c-0.033-1.214-1.041-2.17-2.25-2.137c-1.215,0.03-2.172,1.041-2.139,2.25C74.626,117.128,75.636,118.084,76.85,118.051z"/>
	</g>
	<g>
		<defs>
			<rect id="SVGID_49_" width="200" height="199"/>
		</defs>
		<clipPath id="SVGID_50_">
			<use xlink:href="#SVGID_49_"  overflow="visible"/>
		</clipPath>
		<path clip-path="url(#SVGID_50_)" fill="#EEF7FB" d="M76.736,113.666c1.212-0.031,2.22,0.926,2.251,2.139
			c0.031,1.211-0.926,2.219-2.138,2.25s-2.219-0.926-2.251-2.138C74.567,114.705,75.524,113.697,76.736,113.666"/>
	</g>
	<g>
		<defs>
			<rect id="SVGID_51_" width="200" height="199"/>
		</defs>
		<clipPath id="SVGID_52_">
			<use xlink:href="#SVGID_51_"  overflow="visible"/>
		</clipPath>
		<path clip-path="url(#SVGID_52_)" fill="#EDDA9D" d="M49.52,76.485l-0.499-0.941l-0.019-2.473l1.299-14.699l22.562-5.464
			l1.404,18.97c-1.093-1.483-2.731-4.84-3.746-9.446c-0.543-2.46-2.287-3.161-4.295-3.161c-1.751,0-3.702,0.534-5.229,0.897
			c-3.28,0.781-7.574,1.874-8.276,3.591c-1.363,3.331-2.03,12.023-2.03,12.023L49.52,76.485"/>
	</g>
	<g>
		<defs>
			<rect id="SVGID_53_" width="200" height="199"/>
		</defs>
		<clipPath id="SVGID_54_">
			<use xlink:href="#SVGID_53_"  overflow="visible"/>
		</clipPath>
		<path clip-path="url(#SVGID_54_)" fill="#EDDA9D" d="M166.025,76.485l-1.17-0.703c0,0-0.666-8.692-2.029-12.023
			c-0.703-1.717-4.997-2.81-8.275-3.591c-1.527-0.363-3.479-0.897-5.23-0.897c-2.008,0-3.752,0.701-4.295,3.161
			c-1.014,4.606-2.653,7.963-3.748,9.446l1.406-18.97l22.562,5.464l1.105,12.53l-0.041,5.042L166.025,76.485"/>
	</g>
	<g>
		<defs>
			<rect id="SVGID_55_" width="200" height="199"/>
		</defs>
		<clipPath id="SVGID_56_">
			<use xlink:href="#SVGID_55_"  overflow="visible"/>
		</clipPath>
		<path clip-path="url(#SVGID_56_)" fill="#EDDB9E" d="M130.727,73.08l-45.481-0.084l-2.357-5.307l-1.685-9.096l-3.707-2.947
			L77.41,34.463l5.22-15.438c0,0,0.858,45.47,11.484,45.47c10.626,0,12.752,0,12.752,0h2.125c0,0,2.124,0,12.75,0
			s11.224-45.49,11.224-45.49l6.912,25.5l-5.023,14.341l-0.254,4.043l-1.769,6.4L130.727,73.08"/>
	</g>
	<g>
		<defs>
			<rect id="SVGID_57_" width="200" height="199"/>
		</defs>
		<clipPath id="SVGID_58_">
			<use xlink:href="#SVGID_57_"  overflow="visible"/>
		</clipPath>
		<path clip-path="url(#SVGID_58_)" fill="#EDDB9E" d="M174.402,79.943l-8.104-2.444l0.012-1.555l0.418-0.786l-0.377-4.256
			l0.076-9.481C166.43,61.421,168.616,77.113,174.402,79.943 M176.975,81.2c0,0-0.643-0.314-2.57-1.257
			C174.402,79.943,176.977,81.2,176.975,81.2"/>
	</g>
	<g>
		<defs>
			<rect id="SVGID_59_" width="200" height="199"/>
		</defs>
		<clipPath id="SVGID_60_">
			<use xlink:href="#SVGID_59_"  overflow="visible"/>
		</clipPath>
		<polyline clip-path="url(#SVGID_60_)" fill="#ECD69A" points="166.312,75.944 166.354,70.902 166.729,75.158 166.312,75.944 		"/>
	</g>
	<g>
		<defs>
			<rect id="SVGID_61_" width="200" height="199"/>
		</defs>
		<clipPath id="SVGID_62_">
			<use xlink:href="#SVGID_61_"  overflow="visible"/>
		</clipPath>
		<path clip-path="url(#SVGID_62_)" fill="#EDDB9E" d="M40.933,79.943c5.788-2.83,7.975-18.522,7.975-18.522l0.094,11.65
			l-0.185,2.087l0.204,0.386l0.016,1.955L40.933,79.943 M38.361,81.2c-0.001,0,2.572-1.257,2.572-1.257
			C39.004,80.886,38.361,81.2,38.361,81.2"/>
	</g>
	<g>
		<defs>
			<rect id="SVGID_63_" width="200" height="199"/>
		</defs>
		<clipPath id="SVGID_64_">
			<use xlink:href="#SVGID_63_"  overflow="visible"/>
		</clipPath>
		<polyline clip-path="url(#SVGID_64_)" fill="#ECD69A" points="49.021,75.544 48.817,75.158 49.002,73.071 49.021,75.544 		"/>
	</g>
	<g>
		<defs>
			<rect id="SVGID_65_" width="200" height="199"/>
		</defs>
		<clipPath id="SVGID_66_">
			<use xlink:href="#SVGID_65_"  overflow="visible"/>
		</clipPath>
		<path clip-path="url(#SVGID_66_)" fill="#2D3136" d="M167.986,77.427c2.756,0.902,5.525,1.858,8.037,3.325
			c-1.344-0.532-2.729-0.913-4.127-1.257c-1.392-0.355-2.793-0.655-4.201-0.924c-2.819-0.531-5.649-0.982-8.498-1.327
			c-2.84-0.37-5.688-0.682-8.545-0.924c-2.858-0.241-5.709-0.483-8.573-0.65c-11.446-0.704-22.925-0.88-34.41-0.892
			c-11.483,0.006-22.962,0.221-34.409,0.897c-2.862,0.166-5.715,0.409-8.572,0.651c-2.857,0.241-5.71,0.548-8.546,0.923
			c-2.847,0.345-5.678,0.796-8.498,1.327c-1.407,0.264-2.81,0.57-4.206,0.919c-1.391,0.344-2.783,0.725-4.126,1.257
			c2.509-1.466,5.28-2.427,8.041-3.331c0.232-0.075,0.467-0.139,0.703-0.214l-0.043-0.177c-0.048-0.317-1.069-7.859,0.709-18.645
			c0.086-0.516,0.456-0.935,0.962-1.075l2.917-0.831c0.634-22.625,9.952-33.266,10.243-33.594
			c-8.326,13.397-8.25,29.286-8.106,32.986l18.128-5.152l0.042-0.01l0.226-0.032l0.075-0.006c0.092-0.005,0.195,0.006,0.297,0.027
			l0.053,0.016l0.224,0.075l0.086,0.049l0.177,0.112l0.049,0.033l0.032,0.032l0.054,0.044c0.012,0.016,0.494,0.493,1.262,1.209
			c-0.182-5.973,0.102-23.108,8.262-37.31c-0.172,0.498-6.646,19.428-4.415,40.645c0.724,0.58,1.486,1.149,2.229,1.649
			c0.359,0.247,0.58,0.655,0.585,1.09c0.006,0.07,0.161,6.833,3.148,12.586c0.042,0.086,0.074,0.177,0.102,0.268
			c7.429-0.505,14.878-0.709,22.312-0.714c7.436,0.005,14.88,0.22,22.307,0.731c0.027-0.097,0.062-0.193,0.109-0.285
			c2.986-5.753,3.143-12.516,3.143-12.586c0.01-0.436,0.23-0.843,0.592-1.09c0.74-0.5,1.492-1.069,2.224-1.649
			c2.233-21.217-4.24-40.147-4.411-40.645c8.153,14.201,8.443,31.336,8.262,37.31c0.764-0.715,1.246-1.192,1.262-1.209l0.054-0.044
			l0.032-0.032l0.05-0.033l0.177-0.118l0.081-0.043l0.235-0.08l0.05-0.011c0.096-0.021,0.2-0.032,0.296-0.027l0.07,0.006
			l0.229,0.032l0.042,0.01l18.129,5.152c0.146-3.7,0.223-19.59-8.104-32.986c0.289,0.328,9.607,10.969,10.236,33.594l2.922,0.831
			c0.5,0.14,0.875,0.559,0.963,1.075c1.775,10.786,0.752,18.328,0.707,18.645l-0.041,0.182
			C167.52,77.282,167.75,77.351,167.986,77.427 M164.689,76.459c0.141-1.207,0.789-7.809-0.592-16.801l-20.52-5.833
			c0.184,3.475,0.265,11.012-1.707,18.199l-0.102,0.258c0.203,0.021,0.407,0.037,0.605,0.064c5.77,0.661,11.512,1.584,17.189,2.83
			C161.277,75.574,162.992,75.999,164.689,76.459z M139.281,71.308c1.688-6.15,1.777-12.72,1.654-16.345
			c-1.354,1.23-3.196,2.809-5.049,4.125c-0.113,1.896-0.641,7.278-3.053,12.332c2.148,0.173,4.298,0.366,6.445,0.591
			C139.223,71.787,139.213,71.546,139.281,71.308z M82.501,71.406c-2.408-5.05-2.934-10.422-3.046-12.317
			c-1.858-1.316-3.696-2.895-5.049-4.125c-0.119,3.631-0.032,10.206,1.654,16.345c0.065,0.237,0.058,0.473,0,0.694
			C78.205,71.776,80.352,71.578,82.501,71.406z M73.568,72.27l-0.098-0.247c-1.975-7.187-1.889-14.723-1.712-18.199l-20.514,5.833
			c-1.38,8.982-0.736,15.583-0.597,16.797c1.703-0.462,3.411-0.887,5.131-1.284c2.835-0.628,5.693-1.154,8.556-1.638
			c2.869-0.478,5.747-0.843,8.626-1.192C73.165,72.313,73.364,72.298,73.568,72.27z"/>
	</g>
	<g>
		<defs>
			<rect id="SVGID_67_" width="200" height="199"/>
		</defs>
		<clipPath id="SVGID_68_">
			<use xlink:href="#SVGID_67_"  overflow="visible"/>
		</clipPath>
		<path clip-path="url(#SVGID_68_)" fill="#2D3136" d="M129.293,19.6v17.025h-12.068v-4.974h-2.72v22.981h4.108v12.85H97.505v-12.85
			h4.093v-22.98h-2.71v4.974h-12.06V19.6H129.293 M125.667,33.008v-9.789H90.443v9.789h4.816v-4.974h9.964v30.225h-4.1v5.606h13.865
			v-5.606h-4.102V28.034h9.965v4.974H125.667z"/>
	</g>
	<g>
		<defs>
			<rect id="SVGID_69_" width="200" height="199"/>
		</defs>
		<clipPath id="SVGID_70_">
			<use xlink:href="#SVGID_69_"  overflow="visible"/>
		</clipPath>
		<polyline clip-path="url(#SVGID_70_)" fill="#CB344A" points="125.667,23.218 125.667,33.008 120.852,33.008 120.852,28.034 
			110.887,28.034 110.887,58.259 114.986,58.259 114.986,63.865 101.123,63.865 101.123,58.259 105.223,58.259 105.223,28.034 
			95.259,28.034 95.259,33.008 90.443,33.008 90.443,23.218 125.667,23.218 		"/>
	</g>
	<g>
		<defs>
			<rect id="SVGID_71_" width="200" height="199"/>
		</defs>
		<clipPath id="SVGID_72_">
			<use xlink:href="#SVGID_71_"  overflow="visible"/>
		</clipPath>
		<path clip-path="url(#SVGID_72_)" fill="#656C67" d="M30.694,93.746c1.759-0.399,4.136-0.907,7.051-1.47
			c-1.791,1.221-3.909,2.754-6.222,4.597L30.694,93.746"/>
	</g>
	<g>
		<defs>
			<rect id="SVGID_73_" width="200" height="199"/>
		</defs>
		<clipPath id="SVGID_74_">
			<use xlink:href="#SVGID_73_"  overflow="visible"/>
		</clipPath>
		<path clip-path="url(#SVGID_74_)" fill="#C7B39A" d="M95.111,140.407c0,0,0.492,3.165-3.938,4.519
			c-4.428,1.355-32.482,9.717-35.682,9.264c-3.199-0.45-11.319-5.873-11.319-5.873l-1.969-7.006l12.016,7.492L95.111,140.407"/>
	</g>
	<g>
		<defs>
			<rect id="SVGID_75_" width="200" height="199"/>
		</defs>
		<clipPath id="SVGID_76_">
			<use xlink:href="#SVGID_75_"  overflow="visible"/>
		</clipPath>
		<path clip-path="url(#SVGID_76_)" fill="#C7B39A" d="M120.242,139.794c0,0-0.354,3.183,4.131,4.345
			c4.484,1.161,32.875,8.295,36.05,7.704c3.177-0.591,11.054-6.36,11.054-6.36l1.662-7.084l-11.045,6.588L120.242,139.794"/>
	</g>
	<g>
		<defs>
			<rect id="SVGID_77_" width="200" height="199"/>
		</defs>
		<clipPath id="SVGID_78_">
			<use xlink:href="#SVGID_77_"  overflow="visible"/>
		</clipPath>
		<path clip-path="url(#SVGID_78_)" fill="#C7B39A" d="M28.412,134.583c0,0,3.887,7.774,10.166,5.083l4.485,1.645l-0.448,3.291
			l-9.419,1.194l-2.541-1.494L28.412,134.583"/>
	</g>
</g>
<g>
	<g>
		<defs>
			<rect id="SVGID_79_" x="0.06" y="0.627" width="199.94" height="198.312"/>
		</defs>
		<clipPath id="SVGID_80_">
			<use xlink:href="#SVGID_79_"  overflow="visible"/>
		</clipPath>
		<g clip-path="url(#SVGID_80_)">
			<g>
				<defs>
					<rect id="SVGID_81_" width="200" height="199"/>
				</defs>
				<defs>
					<rect id="SVGID_82_" width="200" height="199"/>
				</defs>
				<defs>
					<rect id="SVGID_83_" width="200" height="199"/>
				</defs>
				<clipPath id="SVGID_84_">
					<use xlink:href="#SVGID_81_"  overflow="visible"/>
				</clipPath>
				<clipPath id="SVGID_85_" clip-path="url(#SVGID_84_)">
					<use xlink:href="#SVGID_82_"  overflow="visible"/>
				</clipPath>
				<clipPath id="SVGID_86_" clip-path="url(#SVGID_85_)">
					<use xlink:href="#SVGID_83_"  overflow="visible"/>
				</clipPath>
				<path clip-path="url(#SVGID_86_)" fill="#C7B39A" d="M187.551,132.449c0,0-6.353,8.115-12.632,5.424l-2.019,1.302l0.447,3.289
					l9.418,1.196l2.541-1.495L187.551,132.449"/>
				<path clip-path="url(#SVGID_86_)" fill="#C7B39A" d="M89.279,193.531c0,0,23.03,11.609,49.106-4.188l-8.373-0.569
					c0,0-18.271,7.23-32.739,3.233L89.279,193.531"/>
				<path clip-path="url(#SVGID_86_)" fill="#2D3136" d="M112.626,172.136l1.595,1.899c0.035,0.046,3.576,4.26,7.905,8.552
					c2.879,2.854,6.356,4.297,10.343,4.297c1.361,0,2.791-0.175,4.235-0.522c1.34-0.325,2.796-0.672,4.287-1.029
					c5.384-1.287,11.481-2.749,14.438-3.577c0.584-0.166,1.237-0.313,1.924-0.472c3.937-0.909,9.33-2.163,12.188-7.891
					c2.149-4.297,5.047-9.873,7.197-13.961c-1.863,0.859-3.816,1.791-5.203,2.521c-2.138,1.123-4.938,1.667-8.56,1.667
					c-2.15,0-4.266-0.181-6.604-0.39c-4.675-0.431-12.586-1.36-12.667-1.371l-0.606-0.067l-0.478-0.383
					c-0.071-0.052-7.003-5.575-12.606-9.981c-0.227-0.186-0.434-0.357-0.621-0.513c-0.59-0.503-0.59-0.503-0.94-0.503
					c-1.797,0-7.021,1.62-18.462,5.167l-0.703,0.223l-0.689-0.26c-0.078-0.026-7.584-2.81-16.581-2.81
					c-0.736,0-1.47,0.019-2.185,0.056c-0.901,0.046-5.958,2.448-12.425,12.68l-0.419,0.657l-0.741,0.238
					c-0.107,0.037-11.238,3.63-23.042,7.005l-0.766,0.218l-0.725-0.337c-0.077-0.031-4.696-2.174-9.091-4.194
					c2.397,3.541,5.462,7.959,8.159,11.422c4.711,6.067,10.649,11.676,22.034,11.676c1.428,0,2.945-0.09,4.503-0.266
					c11.581-1.31,14.563-1.838,16.168-2.117c0.543-0.093,0.973-0.172,1.522-0.237c0.088-0.013,9.571-1.237,12.232-7.206
					c2.743-6.135,3.298-7.596,3.317-7.651l0.969-2.583c0,0,0.121-0.669,0.316-0.877l0.006,0.006l0.02,0.016
					C112.174,171.453,112.626,172.136,112.626,172.136 M40.499,56.337c-2.516,1.014-5.016,2.06-7.46,3.209
					c-2.449,1.119-4.856,2.32-7.155,3.66c-2.121,1.222-4.157,2.563-5.954,4.076c-0.077,0.455-0.149,0.952-0.211,1.423
					c-0.078,0.667-0.156,1.336-0.208,2.009c-0.119,1.346-0.166,2.703-0.18,4.059c-0.026,2.713,0.16,5.426,0.502,8.112
					c0.372,2.692,0.864,5.369,1.594,7.952c0.363,1.295,0.767,2.573,1.243,3.804c0.233,0.623,0.492,1.228,0.762,1.818
					c0.134,0.294,0.274,0.585,0.413,0.864l0.172,0.326c0.201,0.104,0.409,0.207,0.605,0.3l1.206,0.574
					c0.673,0.311,1.6,0.751,2.366,1.093l0.124-0.114l-2.231-8.511c0.471-0.129,4.717-1.227,12.032-2.619
					c-0.59-0.109-1.191-0.238-1.775-0.379c-1.662-0.413-3.309-0.921-4.898-1.563c-0.787-0.336-1.569-0.699-2.309-1.119
					c-0.741-0.425-1.471-0.905-2.035-1.547c8.035,2.624,24.637,1.433,39.398-0.088c13.501-1.393,27.028-2.293,40.628-2.325
					c13.601,0.031,27.138,0.931,40.63,2.325c14.771,1.522,31.374,2.713,39.406,0.088c-0.564,0.642-1.293,1.122-2.034,1.547
					c-0.739,0.42-1.521,0.782-2.31,1.119c-1.596,0.642-3.235,1.149-4.902,1.563c-0.244,0.056-0.492,0.114-0.741,0.166
					c8.021,1.486,12.689,2.697,13.187,2.832l-2.139,8.107c0.432-0.192,0.864-0.377,1.289-0.574l1.207-0.574
					c0.195-0.094,0.403-0.196,0.605-0.3l0.166-0.326c0.145-0.279,0.283-0.57,0.419-0.864c0.271-0.591,0.528-1.196,0.767-1.818
					c0.473-1.231,0.879-2.51,1.236-3.804c0.73-2.583,1.229-5.26,1.595-7.952c0.347-2.686,0.528-5.4,0.503-8.112
					c-0.011-1.356-0.062-2.713-0.177-4.059c-0.058-0.673-0.13-1.341-0.213-2.009c-0.058-0.471-0.136-0.968-0.213-1.423
					c-1.798-1.513-3.831-2.853-5.954-4.076c-2.299-1.34-4.704-2.541-7.159-3.66c-2.438-1.149-4.942-2.195-7.46-3.209
					c-1.259-0.508-2.527-1.005-3.801-1.476c-1.268-0.491-2.553-0.956-3.835-1.423c2.696,0.445,5.368,1.06,8.013,1.739
					c1.725,0.446,3.444,0.948,5.141,1.481c-12.108-31.658-41.068-52.272-72.685-52.272c-31.622,0-60.576,20.614-72.684,52.272
					c1.702-0.533,3.416-1.035,5.135-1.481c2.651-0.678,5.322-1.294,8.02-1.739c-1.29,0.466-2.568,0.931-3.842,1.423
					C43.03,55.332,41.763,55.829,40.499,56.337z M199.93,74.653c0.146,2.914,0.067,5.833-0.259,8.733
					c-0.305,2.894-0.854,5.762-1.619,8.605c-0.399,1.414-0.858,2.811-1.403,4.198c-0.274,0.693-0.568,1.383-0.891,2.071
					c-0.16,0.341-0.331,0.678-0.521,1.025l-0.284,0.512c-0.104,0.186-0.188,0.326-0.349,0.574l-0.295,0.457l-0.461,0.236
					c-0.49,0.254-0.895,0.444-1.342,0.652l-1.298,0.585c-0.871,0.372-1.745,0.726-2.62,1.065c-0.611,0.238-1.148,0.457-1.662,0.674
					l-1.443,5.486c-0.035-0.01-0.471-0.119-1.282-0.314l-0.078,0.574c1.594,0.833,4.726,2.521,5.793,3.402
					c2.147,1.774,2.299,4.588,1.823,9.842c-0.244,2.695-1.141,7.945-2.381,12.767c-2.146,8.298-3.283,9.272-4.754,9.649
					c-0.746,0.191-1.895,0.383-3.008,0.383c-2.267,0-5.354,0.062-7.43-0.439c-0.533,1.889-2.055,6.812-5.068,12.963
					c0.151-0.072,0.301-0.136,0.437-0.207c3.717-1.951,10.86-5.063,11.161-5.198l5.644-2.452l-2.89,5.436
					c-0.067,0.117-6.266,11.772-10.061,19.383c-3.769,7.537-10.834,9.18-15.063,10.15c-0.638,0.151-1.241,0.291-1.733,0.426
					c-3.035,0.854-9.18,2.318-14.599,3.623l-0.197,0.041c-3.335,2.062-6.974,3.899-10.955,5.411
					c-14.567,5.519-29.923,5.208-43.844,0.093c-2.261,0.291-5.234,0.646-9.193,1.098c-1.72,0.191-3.392,0.291-4.985,0.291
					c-13.264,0-20.294-6.736-25.425-13.331c-5.493-7.062-12.212-17.546-12.497-17.985L31,159.053l6.585,2.961
					c3.152,1.42,12.524,5.758,15.205,7c0.217-0.061,0.43-0.123,0.642-0.186c-4.457-6.357-8.112-13.605-10.695-21.635
					c-2.195,0.662-5.576,1.176-8.206,1.176c-0.961,0-1.822-0.072-2.484-0.229c-1.471-0.336-3.148-1.755-5.431-9.796
					c-1.325-4.668-2.314-9.764-2.603-12.387c-0.57-5.121-0.466-7.864,1.662-9.636c1.283-1.071,5.611-3.346,6.507-3.811l-0.192-1.58
					c-13.75,8.08-21.991,15.221-22.157,15.366L0,134.93l7.005-11.048c5.544-8.755,11.948-15.832,17.84-21.284
					c-0.244-0.098-0.471-0.195-0.71-0.293l-1.299-0.586c-0.445-0.207-0.849-0.398-1.34-0.652l-0.461-0.236l-0.295-0.457
					c-0.166-0.249-0.238-0.388-0.347-0.574l-0.29-0.512c-0.181-0.347-0.358-0.684-0.518-1.025c-0.327-0.689-0.621-1.378-0.89-2.071
					c-0.544-1.387-1.005-2.784-1.404-4.198c-0.771-2.843-1.315-5.71-1.62-8.605c-0.321-2.9-0.404-5.819-0.259-8.733
					c0.078-1.455,0.218-2.909,0.419-4.354c0.104-0.725,0.213-1.45,0.358-2.17c0.15-0.734,0.296-1.418,0.518-2.221l0.155-0.564
					l0.404-0.317c2.294-1.802,4.768-3.163,7.284-4.369c2.071-0.973,4.183-1.833,6.311-2.616
					c5.943-16.493,16.162-31.118,29.591-41.311C74.337,6.197,90.664,0.627,107.671,0.627s33.334,5.57,47.218,16.106
					c13.432,10.193,23.649,24.819,29.588,41.307c2.135,0.787,4.24,1.641,6.316,2.62c2.516,1.206,4.99,2.567,7.283,4.369l0.404,0.317
					l0.154,0.564c0.229,0.803,0.372,1.487,0.518,2.221c0.146,0.72,0.261,1.445,0.356,2.17
					C199.713,71.744,199.857,73.198,199.93,74.653z M187.934,122.684c0.457-5.052,0.06-6.139-0.455-6.554
					c-0.513-0.43-2.246-1.412-3.935-2.329l-2.778,19.465c-0.053,0.377-0.266,0.721-0.58,0.941l-3.978,2.781
					c-0.315,1.593-0.429,2.345-0.817,3.902c2.273,0.527,6,0.938,7.775,0.596C184.777,139.738,187.38,128.876,187.934,122.684z
					 M182.773,105.036l2.977-11.29c-4.318-0.978-12.27-2.615-23.1-4.148c-5.53,3.976-11.582,7.155-17.53,9.691
					C163.318,101.061,176.689,103.695,182.773,105.036z M178.093,132.273l3.386-23.678c-1.506-0.324-3.432-0.729-5.73-1.169
					l-3.059,21.423c-0.059,0.377-0.267,0.726-0.576,0.942l-11.473,8.022c-0.27,0.191-0.615,0.279-0.945,0.242l-34.572-3.929
					c-0.555-0.062-1.016-0.446-1.176-0.974l-6.229-20.5c-1.668-0.432-5.949-1.43-9.695-1.43c-3.765,0-8.042,0.998-9.708,1.43
					l-6.228,20.5c-0.109,0.355-0.358,0.652-0.682,0.822c-0.104,0.058-0.223,0.099-0.343,0.125l-34.572,7.691
					c-0.109,0.021-0.202,0.033-0.306,0.033c-0.279,0-0.559-0.083-0.792-0.25l-11.467-8.029c-0.321-0.223-0.534-0.574-0.585-0.968
					l-3.091-25.072c-1.284,0.249-2.443,0.487-3.479,0.703c-0.734,0.405-1.46,0.81-2.174,1.213l3.281,26.568l16.666,11.675
					l42.047-9.354l6.207-20.449c0.156-0.516,0.585-0.894,1.108-0.977c1.572-0.253,2.949-0.382,4.115-0.382
					c1.152,0,2.535,0.129,4.104,0.382c0.528,0.083,0.957,0.461,1.108,0.977l6.365,20.955l42.281,4.809L178.093,132.273z
					 M170.023,127.861l2.99-20.947c-8.438-1.536-20.779-3.395-35.896-4.555c-13.647,4.707-25.077,6.107-25.767,6.154l-0.797,0.059
					c4.354,0.373,8.453,1.544,8.659,1.604c0.452,0.135,0.804,0.481,0.944,0.934l6.186,20.365l33.139,3.766L170.023,127.861z
					 M172.326,139.707l-1.404,0.982l-3.779,2.65l-4.095,2.868c-0.278,0.192-0.621,0.28-0.954,0.243l-40.746-4.633l-2.966-0.338
					c-0.549-0.062-1.01-0.445-1.171-0.978l-6.377-20.998c-1.066-0.146-2.014-0.219-2.811-0.219c-0.81,0-1.75,0.073-2.816,0.219
					l-6.192,20.394c-0.145,0.476-0.538,0.838-1.025,0.944l-43.435,9.673c-0.103,0.021-0.206,0.029-0.305,0.029
					c-0.279,0-0.559-0.083-0.798-0.253l-1.578-1.099l-4.726-3.308v-0.011l-1.91-1.335c0.135,0.43,0.289,0.851,0.441,1.269
					l-0.006,0.006c0.368,1.093,4.028,11.623,11.467,21.93c7.967-2.35,14.858-4.535,17.057-5.234
					c4.488-6.917,10.877-13.775,15.418-14.014c0.781-0.037,1.595-0.062,2.402-0.062c2.221,0,4.344,0.16,6.31,0.395
					c-1.671-1.518-2.013-3.299-2.256-4.085c0,0,5.792,4.53,13.17,3.584c7.378-0.953,11.959-5.204,11.959-5.204
					s-0.021,3.102-3.236,5.503c6.183-1.869,8.739-2.511,10.489-2.511c1.931,0,2.883,0.808,3.717,1.519
					c0.161,0.13,0.322,0.269,0.507,0.419c4.753,3.742,10.468,8.283,12.142,9.614c1.937,0.228,8.074,0.926,11.942,1.283
					c2.23,0.2,4.245,0.372,6.218,0.372c0.638,0,1.232-0.026,1.797-0.063c2.559-4.88,4.856-10.411,6.809-16.651
					C171.844,141.648,172.1,140.68,172.326,139.707z M157.292,88.114l-0.03-0.012c-3.271-0.243-6.544-0.466-9.826-0.651
					c-4.556-0.26-9.111-0.477-13.668-0.668c-0.265,0.394-0.802,1.17-1.572,2.225c-2.479,3.355-7.398,9.51-13.704,14.729
					c8.926-1.601,24.409-5.561,37.803-14.904C156.629,88.594,156.961,88.346,157.292,88.114z M127.416,89.04
					c0.377-0.471,0.729-0.926,1.044-1.34c-3.28,0.331-6.512,0.808-9.67,1.408c-10.813,2.024-20.801,5.389-29.11,8.837
					c5.887-0.285,12.078-0.455,18.541-0.455c3.907,0,7.707,0.067,11.403,0.176C122.803,94.61,125.484,91.484,127.416,89.04z
					 M131.003,191.125c-4.503-0.332-8.599-2.205-11.903-5.477c-0.17-0.176-0.336-0.344-0.502-0.514
					c-1.598,0.321-3.219,0.561-4.881,0.704c-0.697,0.026-1.359,0.087-2.091,0.087l-1.083,0.012l-0.413-0.012
					c-4.396,6.539-14.159,7.813-14.605,7.87c-0.403,0.046-0.734,0.104-1.191,0.187c5.442,1.49,10.996,2.139,16.475,1.771
					C116.3,195.386,123.436,194.195,131.003,191.125z M113.604,183.664c1.057-0.083,2.117-0.219,3.185-0.378
					c-1.384-1.438-2.604-2.775-3.567-3.856c-0.472,1.081-1.097,2.504-1.921,4.338h0.243
					C112.2,183.77,112.92,183.697,113.604,183.664z M110.249,105.032c1.827-1.104,3.582-2.366,5.249-3.712
					c-2.387-0.041-4.809-0.072-7.277-0.072c-10.138,0-19.607,0.415-28.189,1.061c-8.61,4.209-13.875,7.674-13.998,7.762
					l-8.268,5.514l5.679-8.148c0.937-1.354,1.931-2.637,2.956-3.856c-9.536,1.065-17.477,2.329-23.41,3.422l3.038,24.632
					l10.453,7.321l33.184-7.378l6.212-20.465c0.104-0.336,0.331-0.62,0.627-0.793c0.098-0.062,0.202-0.108,0.315-0.141
					c0.192-0.052,3.51-0.998,7.335-1.465L110.249,105.032z M114.064,86.244c-2.311-0.036-4.623-0.057-6.934-0.062h-0.005
					c-3.39,0.005-6.787,0.041-10.189,0.109l-6.269,2.971L90.58,89.31c-0.942,0.46-9.174,4.613-16.919,12.021
					c6.943-3.65,17.146-8.418,29.153-12.115C106.412,88.114,110.182,87.098,114.064,86.244z M70.251,99.388
					c3.251-3.225,6.605-5.886,9.567-7.967c-11.415,2.651-21.923,6.543-31.128,10.778C54.679,101.23,61.932,100.223,70.251,99.388z
					 M72.41,89.439c3.825-1.072,7.771-2.009,11.813-2.796c-5.798,0.212-11.6,0.481-17.393,0.808
					c-3.366,0.186-6.715,0.414-10.065,0.667c-1.678,0.129-3.345,0.263-5.007,0.445c-0.476,0.046-0.942,0.098-1.418,0.16
					c-4.369,2.614-21.127,13.134-32.631,26.888C28.888,107.843,48.363,96.169,72.41,89.439z M41.56,143.636
					c-0.218-0.692-0.424-1.396-0.621-2.102l-5.162-3.612c-0.327-0.229-0.534-0.574-0.586-0.969l-2.516-20.449
					c-1.864,0.999-4.017,2.225-4.592,2.707c-0.497,0.409-0.875,1.46-0.336,6.332c0.668,6.01,3.712,17.333,5.348,18.979
					C35.063,144.869,39.422,144.264,41.56,143.636z M37.745,92.276c-2.915,0.564-5.292,1.071-7.051,1.47l0.829,3.127
					C33.836,95.029,35.954,93.497,37.745,92.276z"/>
			</g>
		</g>
	</g>
</g>
</svg>
