<?xml version="1.0" encoding="utf-8"?>
<!-- Generator: Adobe Illustrator 16.0.0, SVG Export Plug-In . SVG Version: 6.00 Build 0)  -->
<!DOCTYPE svg PUBLIC "-//W3C//DTD SVG 1.1//EN" "http://www.w3.org/Graphics/SVG/1.1/DTD/svg11.dtd">
<svg version="1.1" id="Layer_1" xmlns="http://www.w3.org/2000/svg" xmlns:xlink="http://www.w3.org/1999/xlink" x="0px" y="0px"
	 width="263px" height="263px" viewBox="-3.5 0 263 263" enable-background="new -3.5 0 263 263" xml:space="preserve">
<g>
	<path fill="#222C37" d="M165.873,131.237l45.908-79.274l22.185,79.274l-22.185,79.256L165.873,131.237L165.873,131.237z
		 M143.496,144.11l45.916,79.263l-79.966-20.486L51.675,144.11H143.496L143.496,144.11z M189.401,39.078l-45.905,79.274H51.675
		l57.771-58.779L189.401,39.078L189.401,39.078z M254.941,104.259L226.933,0.061l-104.54,27.925l-15.475,27.207l-31.401-0.225
		L-1,131.244l76.517,76.259h0.003l31.388-0.232l15.497,27.207l104.528,27.921l28.009-104.18l-15.906-26.982L254.941,104.259
		L254.941,104.259z"/>
</g>
</svg>
