<?xml version="1.0" encoding="utf-8"?>
<!-- Generator: Adobe Illustrator 16.0.0, SVG Export Plug-In . SVG Version: 6.00 Build 0)  -->
<!DOCTYPE svg PUBLIC "-//W3C//DTD SVG 1.1//EN" "http://www.w3.org/Graphics/SVG/1.1/DTD/svg11.dtd">
<svg version="1.1" id="Layer_1" xmlns="http://www.w3.org/2000/svg" xmlns:xlink="http://www.w3.org/1999/xlink" x="0px" y="0px"
	 width="128px" height="128px" viewBox="0 0 128 128" enable-background="new 0 0 128 128" xml:space="preserve">
<circle fill="#FC655D" stroke="#722E2E" stroke-width="2" stroke-miterlimit="10" cx="64" cy="64" r="62"/>
<path fill="#231F20" d="M92.284,35.716c1.953,1.953,1.439,5.632-1.147,8.219L43.935,91.137c-2.586,2.586-6.266,3.101-8.219,1.147
	l0,0c-1.953-1.953-1.439-5.632,1.147-8.219l47.202-47.202C86.652,34.277,90.331,33.763,92.284,35.716L92.284,35.716z"/>
<path fill="#231F20" d="M35.716,35.716c1.953-1.953,5.632-1.439,8.219,1.147l47.202,47.202c2.586,2.587,3.101,6.267,1.147,8.219l0,0
	c-1.953,1.953-5.632,1.438-8.219-1.147L36.863,43.935C34.277,41.348,33.763,37.669,35.716,35.716L35.716,35.716z"/>
</svg>
