<?xml version="1.0" encoding="utf-8"?>
<!-- Generator: Adobe Illustrator 16.0.0, SVG Export Plug-In . SVG Version: 6.00 Build 0)  -->
<!DOCTYPE svg PUBLIC "-//W3C//DTD SVG 1.1//EN" "http://www.w3.org/Graphics/SVG/1.1/DTD/svg11.dtd">
<svg version="1.1" id="Layer_1" xmlns="http://www.w3.org/2000/svg" xmlns:xlink="http://www.w3.org/1999/xlink" x="0px" y="0px"
	 width="50.666px" height="49.851px" viewBox="6.667 7.075 50.666 49.851" enable-background="new 6.667 7.075 50.666 49.851"
	 xml:space="preserve">
<path fill="#2B9105" stroke="#154401" stroke-width="2" stroke-miterlimit="10" d="M48,39.26c-2.377,0-4.516,1-6.033,2.596
	L24.23,33.172c0.061-0.408,0.103-0.821,0.103-1.246c0-0.414-0.04-0.818-0.098-1.215l17.71-8.589c1.52,1.609,3.668,2.619,6.055,2.619
	c4.602,0,8.333-3.731,8.333-8.333c0-4.603-3.731-8.333-8.333-8.333s-8.333,3.73-8.333,8.333c0,0.414,0.04,0.817,0.099,1.215
	l-17.711,8.589c-1.519-1.609-3.666-2.619-6.054-2.619c-4.603,0-8.333,3.731-8.333,8.333c0,4.604,3.73,8.333,8.333,8.333
	c2.377,0,4.515-1,6.033-2.596l17.736,8.685c-0.061,0.406-0.103,0.82-0.103,1.245c0,4.603,3.731,8.333,8.333,8.333
	s8.333-3.73,8.333-8.333S52.602,39.26,48,39.26z"/>
</svg>
