<?xml version="1.0" encoding="utf-8"?>
<!-- Generator: Adobe Illustrator 16.0.0, SVG Export Plug-In . SVG Version: 6.00 Build 0)  -->
<!DOCTYPE svg PUBLIC "-//W3C//DTD SVG 1.1//EN" "http://www.w3.org/Graphics/SVG/1.1/DTD/svg11.dtd">
<svg version="1.1" id="Layer_1" xmlns="http://www.w3.org/2000/svg" xmlns:xlink="http://www.w3.org/1999/xlink" x="0px" y="0px"
	 width="52px" height="52px" viewBox="0 0 52 52" enable-background="new 0 0 52 52" xml:space="preserve">
<path fill="#2B9105" stroke="#154401" stroke-width="2" stroke-miterlimit="10" d="M42.4,33.6c-2.4,0-4.6,1-6.2,2.7L18,27.2
	c0.1-0.4,0.1-0.9,0.1-1.3c0-0.4,0-0.9-0.1-1.3l18.2-9c1.6,1.7,3.8,2.7,6.2,2.7c4.7,0,8.6-3.9,8.6-8.7C51,4.9,47.2,1,42.4,1
	c-4.7,0-8.6,3.9-8.6,8.7c0,0.4,0,0.9,0.1,1.3l-18.2,9c-1.6-1.7-3.8-2.7-6.2-2.7c-4.7,0-8.6,3.9-8.6,8.7c0,4.8,3.8,8.7,8.6,8.7
	c2.4,0,4.6-1,6.2-2.7L34,41c-0.1,0.4-0.1,0.9-0.1,1.3c0,4.8,3.8,8.7,8.6,8.7c4.7,0,8.6-3.9,8.6-8.7C51,37.5,47.2,33.6,42.4,33.6z"/>
</svg>
