<?xml version="1.0" encoding="utf-8"?>
<!-- Generator: Adobe Illustrator 16.0.0, SVG Export Plug-In . SVG Version: 6.00 Build 0)  -->
<!DOCTYPE svg PUBLIC "-//W3C//DTD SVG 1.1//EN" "http://www.w3.org/Graphics/SVG/1.1/DTD/svg11.dtd">
<svg version="1.1" id="Layer_1" xmlns="http://www.w3.org/2000/svg" xmlns:xlink="http://www.w3.org/1999/xlink" x="0px" y="0px"
	 width="120px" height="120px" viewBox="4 4 120 120" enable-background="new 4 4 120 120" xml:space="preserve">
<filter  id="Gaussian_Blur">
	<feGaussianBlur  stdDeviation="3" in="SourceGraphic"></feGaussianBlur>
</filter>
<g id="Layer_3" opacity="0.6">
	<g>
		<path d="M65.064,10.009c-30.426,0-55.091,24.666-55.091,55.092c0,30.428,24.666,55.094,55.091,55.094
			c30.429,0,55.092-24.666,55.092-55.094C120.156,34.674,95.493,10.009,65.064,10.009z M65.064,80.373
			c-7.608,0-13.776-6.168-13.776-13.777c0-7.608,6.168-13.777,13.776-13.777c7.607,0,13.777,6.169,13.777,13.777
			C78.843,74.205,72.673,80.373,65.064,80.373z"/>
	</g>
</g>
<g id="Layer_3_copy">
	<g>
		<path fill="#E5E5E5" stroke="#858585" stroke-width="0.5" d="M63.502,7.805C33.075,7.805,8.41,32.471,8.41,62.897
			c0,30.429,24.666,55.093,55.092,55.093c30.428,0,55.092-24.664,55.092-55.093C118.594,32.471,93.93,7.805,63.502,7.805z
			 M63.502,78.17c-7.609,0-13.777-6.17-13.777-13.778s6.168-13.777,13.777-13.777c7.607,0,13.777,6.168,13.777,13.777
			C77.279,72.002,71.109,78.17,63.502,78.17z"/>
	</g>
</g>
<g id="Layer_1_1_">
	<g>
		
			<linearGradient id="SVGID_1_" gradientUnits="userSpaceOnUse" x1="58.687" y1="113.7451" x2="68.354" y2="18.0786" gradientTransform="matrix(1 0 0 -1 0 129)">
			<stop  offset="0" style="stop-color:#CCCCCC"/>
			<stop  offset="1" style="stop-color:#A1A6A8"/>
		</linearGradient>
		<path fill="url(#SVGID_1_)" d="M63.502,9.729c-29.365,0-53.17,23.805-53.17,53.17s23.805,53.17,53.17,53.17
			s53.17-23.805,53.17-53.17S92.867,9.729,63.502,9.729z M63.502,77.637c-7.344,0-13.297-5.953-13.297-13.296
			c0-7.343,5.953-13.296,13.297-13.296c7.343,0,13.297,5.953,13.297,13.296C76.799,71.684,70.845,77.637,63.502,77.637z"/>
	</g>
	<g>
		<g>
			<g>
				<defs>
					<path id="SVGID_2_" d="M63.502,9.729c-29.365,0-53.17,23.805-53.17,53.17s23.805,53.17,53.17,53.17s53.17-23.805,53.17-53.17
						S92.867,9.729,63.502,9.729z M63.502,77.637c-7.344,0-13.297-5.953-13.297-13.296c0-7.343,5.953-13.296,13.297-13.296
						c7.343,0,13.297,5.953,13.297,13.296C76.799,71.684,70.845,77.637,63.502,77.637z"/>
				</defs>
				<clipPath id="SVGID_3_">
					<use xlink:href="#SVGID_2_"  overflow="visible"/>
				</clipPath>
				<g opacity="0.5" clip-path="url(#SVGID_3_)" filter="url(#Gaussian_Blur)" enable-background="new    ">
					<polygon fill="#FF3D45" points="154.238,74.232 63.502,65.627 -27.236,74.232 -27.236,57.026 63.502,65.627 154.238,57.026 
											"/>
				</g>
			</g>
			<g>
				<defs>
					<path id="SVGID_4_" d="M63.502,9.729c-29.365,0-53.17,23.805-53.17,53.17s23.805,53.17,53.17,53.17s53.17-23.805,53.17-53.17
						S92.867,9.729,63.502,9.729z M63.502,77.637c-7.344,0-13.297-5.953-13.297-13.296c0-7.343,5.953-13.296,13.297-13.296
						c7.343,0,13.297,5.953,13.297,13.296C76.799,71.684,70.845,77.637,63.502,77.637z"/>
				</defs>
				<clipPath id="SVGID_5_">
					<use xlink:href="#SVGID_4_"  overflow="visible"/>
				</clipPath>
				<g opacity="0.5" clip-path="url(#SVGID_5_)" filter="url(#Gaussian_Blur)" enable-background="new    ">
					<polygon fill="#E0FFFF" points="-8.938,128.432 63.186,64.351 77.68,-31.036 135.303,0.262 63.186,64.351 48.68,159.73 					
						"/>
				</g>
			</g>
			<g>
				<defs>
					<path id="SVGID_6_" d="M63.502,9.729c-29.365,0-53.17,23.805-53.17,53.17s23.805,53.17,53.17,53.17s53.17-23.805,53.17-53.17
						S92.867,9.729,63.502,9.729z M63.502,77.637c-7.344,0-13.297-5.953-13.297-13.296c0-7.343,5.953-13.296,13.297-13.296
						c7.343,0,13.297,5.953,13.297,13.296C76.799,71.684,70.845,77.637,63.502,77.637z"/>
				</defs>
				<clipPath id="SVGID_7_">
					<use xlink:href="#SVGID_6_"  overflow="visible"/>
				</clipPath>
				<g clip-path="url(#SVGID_7_)" filter="url(#Gaussian_Blur)">
					<polygon fill="#FFFFFF" points="2.148,134.453 63.184,64.35 88.766,-25.015 124.217,-5.76 63.184,64.35 37.594,153.707 					
						"/>
				</g>
			</g>
			<g>
				<defs>
					<path id="SVGID_8_" d="M63.502,9.729c-29.365,0-53.17,23.805-53.17,53.17s23.805,53.17,53.17,53.17s53.17-23.805,53.17-53.17
						S92.867,9.729,63.502,9.729z M63.502,77.637c-7.344,0-13.297-5.953-13.297-13.296c0-7.343,5.953-13.296,13.297-13.296
						c7.343,0,13.297,5.953,13.297,13.296C76.799,71.684,70.845,77.637,63.502,77.637z"/>
				</defs>
				<clipPath id="SVGID_9_">
					<use xlink:href="#SVGID_8_"  overflow="visible"/>
				</clipPath>
				<g opacity="0.5" clip-path="url(#SVGID_9_)" filter="url(#Gaussian_Blur)" enable-background="new    ">
					<polygon fill="#FF8000" points="146.785,85.91 63.502,65.627 -22.109,61.359 -19.782,45.347 63.502,65.627 149.111,69.898 
											"/>
				</g>
			</g>
			<g>
				<defs>
					<path id="SVGID_10_" d="M63.502,9.729c-29.365,0-53.17,23.805-53.17,53.17s23.805,53.17,53.17,53.17s53.17-23.805,53.17-53.17
						S92.867,9.729,63.502,9.729z M63.502,77.637c-7.344,0-13.297-5.953-13.297-13.296c0-7.343,5.953-13.296,13.297-13.296
						c7.343,0,13.297,5.953,13.297,13.296C76.799,71.684,70.845,77.637,63.502,77.637z"/>
				</defs>
				<clipPath id="SVGID_11_">
					<use xlink:href="#SVGID_10_"  overflow="visible"/>
				</clipPath>
				<g opacity="0.5" clip-path="url(#SVGID_11_)" filter="url(#Gaussian_Blur)" enable-background="new    ">
					<polygon fill="#FFFF00" points="139.331,97.59 63.502,65.627 -16.982,48.487 -12.327,33.668 63.502,65.627 143.986,82.771 
											"/>
				</g>
			</g>
			<g>
				<defs>
					<path id="SVGID_12_" d="M63.502,9.729c-29.365,0-53.17,23.805-53.17,53.17s23.805,53.17,53.17,53.17s53.17-23.805,53.17-53.17
						S92.867,9.729,63.502,9.729z M63.502,77.637c-7.344,0-13.297-5.953-13.297-13.296c0-7.343,5.953-13.296,13.297-13.296
						c7.343,0,13.297,5.953,13.297,13.296C76.799,71.684,70.845,77.637,63.502,77.637z"/>
				</defs>
				<clipPath id="SVGID_13_">
					<use xlink:href="#SVGID_12_"  overflow="visible"/>
				</clipPath>
				<g opacity="0.5" clip-path="url(#SVGID_13_)" filter="url(#Gaussian_Blur)" enable-background="new    ">
					<polygon fill="#5EFF00" points="131.877,109.27 63.502,65.627 -11.855,35.615 -4.873,21.989 63.502,65.627 138.859,95.643 
											"/>
				</g>
			</g>
			<g>
				<defs>
					<path id="SVGID_14_" d="M63.502,9.729c-29.365,0-53.17,23.805-53.17,53.17s23.805,53.17,53.17,53.17s53.17-23.805,53.17-53.17
						S92.867,9.729,63.502,9.729z M63.502,77.637c-7.344,0-13.297-5.953-13.297-13.296c0-7.343,5.953-13.296,13.297-13.296
						c7.343,0,13.297,5.953,13.297,13.296C76.799,71.684,70.845,77.637,63.502,77.637z"/>
				</defs>
				<clipPath id="SVGID_15_">
					<use xlink:href="#SVGID_14_"  overflow="visible"/>
				</clipPath>
				<g opacity="0.5" clip-path="url(#SVGID_15_)" filter="url(#Gaussian_Blur)" enable-background="new    ">
					<polygon fill="#00D3DF" points="124.423,120.947 63.502,65.629 -6.728,22.742 2.582,10.309 63.502,65.629 133.732,108.514 
											"/>
				</g>
			</g>
			<g>
				<defs>
					<path id="SVGID_16_" d="M63.502,9.729c-29.365,0-53.17,23.805-53.17,53.17s23.805,53.17,53.17,53.17s53.17-23.805,53.17-53.17
						S92.867,9.729,63.502,9.729z M63.502,77.637c-7.344,0-13.297-5.953-13.297-13.296c0-7.343,5.953-13.296,13.297-13.296
						c7.343,0,13.297,5.953,13.297,13.296C76.799,71.684,70.845,77.637,63.502,77.637z"/>
				</defs>
				<clipPath id="SVGID_17_">
					<use xlink:href="#SVGID_16_"  overflow="visible"/>
				</clipPath>
				<g opacity="0.5" clip-path="url(#SVGID_17_)" filter="url(#Gaussian_Blur)" enable-background="new    ">
					<polygon fill="#0012DF" points="116.969,132.627 63.503,65.629 -1.602,9.872 10.036,-1.369 63.503,65.629 128.607,121.387 
											"/>
				</g>
			</g>
			<g>
				<defs>
					<path id="SVGID_18_" d="M63.502,9.729c-29.365,0-53.17,23.805-53.17,53.17s23.805,53.17,53.17,53.17s53.17-23.805,53.17-53.17
						S92.867,9.729,63.502,9.729z M63.502,77.637c-7.344,0-13.297-5.953-13.297-13.296c0-7.343,5.953-13.296,13.297-13.296
						c7.343,0,13.297,5.953,13.297,13.296C76.799,71.684,70.845,77.637,63.502,77.637z"/>
				</defs>
				<clipPath id="SVGID_19_">
					<use xlink:href="#SVGID_18_"  overflow="visible"/>
				</clipPath>
				<g opacity="0.5" clip-path="url(#SVGID_19_)" filter="url(#Gaussian_Blur)" enable-background="new    ">
					<polygon fill="#6B476B" points="109.516,144.307 63.503,65.629 3.525,-3 17.49,-13.048 63.503,65.629 123.48,134.258 					"/>
				</g>
			</g>
		</g>
	</g>
</g>
<g id="Layer_2">
	<g>
		<path opacity="0.22" fill="#636363" stroke="#000000" stroke-width="0.25" enable-background="new    " d="M63.502,48
			c-9.024,0-16.34,7.315-16.34,16.34s7.315,16.339,16.34,16.339c9.025,0,16.34-7.316,16.34-16.34S72.525,48,63.502,48z
			 M63.502,69.656c-2.986,0-5.407-2.422-5.407-5.407c0-2.986,2.421-5.406,5.407-5.406c2.984,0,5.407,2.42,5.407,5.406
			C68.908,67.236,66.486,69.656,63.502,69.656z"/>
	</g>
	
		<circle opacity="0.5" fill="none" stroke="#505050" stroke-width="0.25" enable-background="new    " cx="63.502" cy="64.219" r="10.693"/>
	
		<ellipse opacity="0.3" fill="none" stroke="#505050" stroke-width="0.25" enable-background="new    " cx="63.502" cy="64.219" rx="6.788" ry="6.667"/>
</g>
</svg>
