<?xml version="1.0" encoding="utf-8"?>
<!-- Generator: Adobe Illustrator 16.0.0, SVG Export Plug-In . SVG Version: 6.00 Build 0)  -->
<!DOCTYPE svg PUBLIC "-//W3C//DTD SVG 1.1//EN" "http://www.w3.org/Graphics/SVG/1.1/DTD/svg11.dtd">
<svg version="1.1" id="Layer_1" xmlns="http://www.w3.org/2000/svg" xmlns:xlink="http://www.w3.org/1999/xlink" x="0px" y="0px"
	 width="70px" height="70px" viewBox="1 1 70 70" enable-background="new 1 1 70 70" xml:space="preserve">
<g id="Headphone">
	<g>
		<path fill="#999999" d="M36,5C20.536,5,8,17.535,8,32.996v9.998c0,1.105,0.895,2,2,2c1.104,0,1.999-0.895,2-1.999v-9.999
			C12,19.743,22.745,8.999,36,8.999s24,10.744,24,23.997v9.998c0,1.105,0.895,2,2,2c1.104,0,1.999-0.895,2-1.999v-9.999
			C64,17.535,51.464,5,36,5z"/>
	</g>
</g>
<g id="Headphone_3_">
	<g>
		<path fill="#3366FF" d="M11,38.996c-6.075,0-7,4.924-7,10.998s0.925,10.998,7,10.998s3-4.924,3-10.998S17.075,38.996,11,38.996z
			 M61.604,38.996c-5.742,0-2.836,4.924-2.836,10.998s-2.906,10.998,2.836,10.998S68,56.068,68,49.994S67.346,38.996,61.604,38.996z
			"/>
	</g>
</g>
<g id="Headphone_2_">
	<g>
		<path fill="#555555" d="M16,34.996c-3.314,0-6,2.688-6,5.999v17.998c0,3.313,2.686,5.999,6,5.999c3.313,0,6-2.686,6-5.999V40.995
			C22,37.684,19.313,34.996,16,34.996z M56,34.996c-3.314,0-6,2.688-6,5.999v17.998c0,3.313,2.686,5.999,6,5.999
			c3.312,0,6-2.686,6-5.999V40.995C62,37.684,59.312,34.996,56,34.996z"/>
	</g>
</g>
</svg>
