<?xml version="1.0" encoding="utf-8"?>
<!-- Generator: Adobe Illustrator 16.0.0, SVG Export Plug-In . SVG Version: 6.00 Build 0)  -->
<!DOCTYPE svg PUBLIC "-//W3C//DTD SVG 1.1//EN" "http://www.w3.org/Graphics/SVG/1.1/DTD/svg11.dtd">
<svg version="1.1" id="Capa_1" xmlns="http://www.w3.org/2000/svg" xmlns:xlink="http://www.w3.org/1999/xlink" x="0px" y="0px"
	 width="512px" height="512px" viewBox="0 0 512 512" enable-background="new 0 0 512 512" xml:space="preserve">
<g>
	<linearGradient id="SVGID_1_" gradientUnits="userSpaceOnUse" x1="255.9956" y1="33.6729" x2="255.9956" y2="478.313">
		<stop  offset="0" style="stop-color:#ECEF11"/>
		<stop  offset="1" style="stop-color:#E2CB00"/>
	</linearGradient>
	<path fill="url(#SVGID_1_)" d="M434.694,286.619c-34.473-8.076-78.55-29.182-94.512-55.385
		c-8.938-14.583-9.871-31.035-2.653-45.085c0.4-0.756,1.097-1.897,1.615-2.786c-0.415-3.098,0.312-7.203,2.55-12.553
		c0.163-0.356,0.178-0.4,0.296-0.652H164.837c0.089,0.208,0.089,0.208,0.208,0.475c0,0,0.015,0.015,0.015,0.029
		c3.972,6.195,7.44,11.738,9.292,15.31c7.336,14.243,6.388,30.679-2.52,45.277c-16.006,26.233-60.069,47.323-94.572,55.4
		l-9.53,159.812c-1.037,17.533,10.449,31.851,25.537,31.851h325.436c15.087,0,26.559-14.332,25.507-31.851L434.694,286.619z
		 M202.793,396.679h-30.561c-5.632,0-10.197-4.579-10.197-10.196s4.564-10.197,10.197-10.197h30.561
		c5.617,0,10.196,4.58,10.196,10.197S208.41,396.679,202.793,396.679z M202.793,357.818h-30.561
		c-5.632,0-10.197-4.564-10.197-10.182c0-5.661,4.564-10.196,10.197-10.196h30.561c5.617,0,10.196,4.535,10.196,10.196
		C212.99,353.254,208.41,357.818,202.793,357.818z M202.793,318.959h-30.561c-5.632,0-10.197-4.564-10.197-10.197
		c0-5.617,4.564-10.196,10.197-10.196h30.561c5.617,0,10.196,4.579,10.196,10.196S208.41,318.959,202.793,318.959z M271.28,396.679
		h-30.546c-5.632,0-10.197-4.579-10.197-10.196s4.58-10.197,10.197-10.197h30.561c5.617,0,10.197,4.58,10.197,10.197
		C281.462,392.1,276.897,396.679,271.28,396.679z M271.28,357.818h-30.546c-5.632,0-10.197-4.564-10.197-10.182
		c0-5.661,4.58-10.196,10.197-10.196h30.561c5.617,0,10.197,4.535,10.197,10.196C281.462,353.254,276.897,357.818,271.28,357.818z
		 M271.28,318.959h-30.546c-5.632,0-10.197-4.564-10.197-10.197c0-5.617,4.58-10.196,10.197-10.196h30.561
		c5.617,0,10.197,4.579,10.197,10.196C281.462,314.379,276.897,318.959,271.28,318.959z M339.752,396.679h-30.561
		c-5.617,0-10.182-4.579-10.182-10.196s4.564-10.197,10.182-10.197h30.561c5.647,0,10.197,4.58,10.197,10.197
		S345.414,396.679,339.752,396.679z M339.752,357.818h-30.561c-5.617,0-10.182-4.564-10.182-10.182
		c0-5.661,4.564-10.196,10.182-10.196h30.561c5.647,0,10.197,4.535,10.197,10.196C349.949,353.254,345.414,357.818,339.752,357.818z
		 M339.752,318.959h-30.561c-5.617,0-10.182-4.564-10.182-10.197c0-5.617,4.564-10.196,10.182-10.196h30.561
		c5.647,0,10.197,4.579,10.197,10.196S345.414,318.959,339.752,318.959z M509.421,194.36c-0.637,3.201-0.667,6.536-1.927,9.574
		c-7.365,17.814-21.179,32.561-31.346,48.983c-13.116,20.957-124.584-24.217-110.223-52.184c5.41-10.345,26.515-38.92,28.101-50.406
		c1.452-10.256-12.124-18.274-24.662-19.297c-33.08-2.683-75.334-0.252-110.444-0.03v0.03c-0.934,0-1.971-0.015-2.935-0.015
		c-0.949,0-1.986,0.015-2.92,0.015v-0.03c-35.11-0.222-77.365-2.638-110.445,0.03c-12.538,1.023-26.114,9.041-24.677,19.297
		c1.601,11.486,22.691,40.061,28.101,50.406c14.391,27.967-97.077,73.141-110.193,52.184c-10.197-16.421-23.98-31.168-31.361-48.982
		c-1.245-3.039-1.274-6.373-1.912-9.574C-13.783,121.293,49.235,46.745,144.132,39.097c36.237-2.935,72.563-4.594,108.933-5.247
		v-0.178c0.978,0.015,1.941,0.074,2.92,0.089c0.964-0.015,1.941-0.074,2.935-0.089v0.178c36.34,0.652,72.666,2.312,108.933,5.247
		C462.735,46.73,525.754,121.309,509.421,194.36z"/>
</g>
</svg>
