<?xml version="1.0" encoding="utf-8"?>
<!-- Generator: Adobe Illustrator 16.0.0, SVG Export Plug-In . SVG Version: 6.00 Build 0)  -->
<!DOCTYPE svg PUBLIC "-//W3C//DTD SVG 1.1//EN" "http://www.w3.org/Graphics/SVG/1.1/DTD/svg11.dtd">
<svg version="1.1"
	 id="svg11300" xmlns:dc="http://purl.org/dc/elements/1.1/" xmlns:cc="http://creativecommons.org/ns#" xmlns:rdf="http://www.w3.org/1999/02/22-rdf-syntax-ns#" xmlns:svg="http://www.w3.org/2000/svg" xmlns:sodipodi="http://sodipodi.sourceforge.net/DTD/sodipodi-0.dtd" xmlns:inkscape="http://www.inkscape.org/namespaces/inkscape"
	 xmlns="http://www.w3.org/2000/svg" xmlns:xlink="http://www.w3.org/1999/xlink" x="0px" y="0px" width="49px" height="49px"
	 viewBox="-0.5 -0.5 49 49" enable-background="new -0.5 -0.5 49 49" xml:space="preserve">
<g id="layer1">
	<g id="g6707" transform="matrix(2.417561e-2,0,0,2.086758e-2,45.12765,40.1536)">
		
			<linearGradient id="rect6709_1_" gradientUnits="userSpaceOnUse" x1="175394" y1="-432582.0938" x2="175394" y2="-432824.9375" gradientTransform="matrix(0.0671 0 0 -0.0411 -12629.7373 -17926.0898)">
			<stop  offset="0" style="stop-color:#000000;stop-opacity:0"/>
			<stop  offset="0.5" style="stop-color:#000000"/>
			<stop  offset="1" style="stop-color:#000000;stop-opacity:0"/>
		</linearGradient>
		
			<rect id="rect6709" x="-1535.4" y="-145.692" opacity="0.4021" fill="url(#rect6709_1_)" enable-background="new    " width="1339.582" height="478.36"/>
		
			<radialGradient id="path6711_1_" cx="185498.4062" cy="-438330.9688" r="117.1353" gradientTransform="matrix(0.0671 0 0 -0.0411 -12629.1914 -17926.0898)" gradientUnits="userSpaceOnUse">
			<stop  offset="0" style="stop-color:#000000"/>
			<stop  offset="1" style="stop-color:#000000;stop-opacity:0"/>
		</radialGradient>
		<path id="path6711" opacity="0.4021" fill="url(#path6711_1_)" enable-background="new    " d="M-195.817-145.691v478.268
			c142.913,0.936,345.368-107.166,345.368-239.135C149.551-38.619-9.844-145.691-195.817-145.691z"/>
		
			<radialGradient id="path6713_1_" cx="-162411.1875" cy="-438330.9688" r="117.143" gradientTransform="matrix(-0.0671 0 0 -0.0411 -12437.1875 -17926.0898)" gradientUnits="userSpaceOnUse">
			<stop  offset="0" style="stop-color:#000000"/>
			<stop  offset="1" style="stop-color:#000000;stop-opacity:0"/>
		</radialGradient>
		<path id="path6713" opacity="0.4021" fill="url(#path6713_1_)" enable-background="new    " d="M-1535.399-145.691v478.268
			c-142.873,0.936-345.408-107.166-345.408-239.135C-1880.808-38.619-1721.373-145.691-1535.399-145.691z"/>
	</g>
	
		<linearGradient id="rect1975_1_" gradientUnits="userSpaceOnUse" x1="-8.2895" y1="6.8653" x2="-15.0494" y2="42.8653" gradientTransform="matrix(1.1379 0 0 -1 36.1496 49.0001)">
		<stop  offset="0" style="stop-color:#DFDFDF"/>
		<stop  offset="1" style="stop-color:#FFFFFF"/>
	</linearGradient>
	
		<linearGradient id="rect1975_2_" gradientUnits="userSpaceOnUse" x1="24.4004" y1="20.8872" x2="24.0164" y2="6.1376" gradientTransform="matrix(1 0 0 -1 0 49.0001)">
		<stop  offset="0" style="stop-color:#939393"/>
		<stop  offset="1" style="stop-color:#424242"/>
	</linearGradient>
	<path id="rect1975" fill="url(#rect1975_1_)" stroke="url(#rect1975_2_)" stroke-width="1" d="M7.74,4.61h32.647
		c0.764,0,1.377,0.533,1.377,1.194l2.402,34.168l0.012,2.348c0,0.662-0.613,1.193-1.377,1.193H5.326
		c-0.763,0-1.377-0.531-1.377-1.193l-0.011-2.166l2.425-34.35C6.363,5.143,6.978,4.61,7.74,4.61z"/>
	
		<radialGradient id="path3008_1_" cx="199.5215" cy="-2043.0977" r="19.562" gradientTransform="matrix(0.6166 0 0 -0.1534 -97.3092 -281.4652)" gradientUnits="userSpaceOnUse">
		<stop  offset="0" style="stop-color:#000000"/>
		<stop  offset="1" style="stop-color:#000000;stop-opacity:0"/>
	</radialGradient>
	<path id="path3008" opacity="0.3158" fill="url(#path3008_1_)" enable-background="new    " d="M37.78,31.854
		c0,1.656-5.4,3-12.062,3c-6.66,0-12.062-1.344-12.062-3l0,0c0-1.656,5.401-3,12.062-3C32.38,28.854,37.78,30.197,37.78,31.854z"/>
	<path id="rect2851" fill="#A4A4A4" d="M5.232,39.973h37.688c0.375,0,0.68,0.303,0.68,0.68v1.711c0,0.377-0.305,0.68-0.68,0.68
		H5.232c-0.375,0-0.68-0.303-0.68-0.68v-1.711C4.553,40.275,4.857,39.973,5.232,39.973z"/>
	<path id="path2853" fill="#FFFFFF" d="M4.503,40.547c0,0,0.15-0.531,0.704-0.574h37.563c0.754,0,0.805,0.75,0.805,0.75
		s0.023-1.619-1.283-1.619H5.88C4.874,39.191,4.503,39.883,4.503,40.547z"/>
	
		<linearGradient id="path2915_1_" gradientUnits="userSpaceOnUse" x1="6.5762" y1="41.334" x2="41.5596" y2="41.334" gradientTransform="matrix(1 0 0 -1 0 49.0001)">
		<stop  offset="0" style="stop-color:#A3A4A0"/>
		<stop  offset="1" style="stop-color:#888A85"/>
	</linearGradient>
	<path id="path2915" fill="url(#path2915_1_)" d="M6.826,5.838l-0.25,4.391c0,0,0.312-1.125,1-1.125H40.7
		c0.703-0.016,0.734,0.312,0.859,0.828l-0.25-3.875c-0.031-0.547-0.219-0.953-0.781-0.953H7.639
		C7.186,5.104,6.873,5.448,6.826,5.838z"/>
	<path id="path2917" opacity="0.4386" fill="none" stroke="#FFFFFF" stroke-width="1" enable-background="new    " d="M8.389,5.645
		h31.132c0.723,0,1.303-0.152,1.303,0.474l2.273,33.008l0.102,2.709c0,0.627-0.141,0.645-0.861,0.645H5.438
		c-0.412,0-0.419-0.107-0.419-0.512l-0.011-2.67L7.304,6.15C7.304,5.523,7.667,5.645,8.389,5.645z"/>
	<g id="g2950">
		<path id="rect2899" fill="#FCE94F" stroke="#886F00" d="M10.076,2.604L10.076,2.604c0.552,0,1,0.448,1,1v3c0,0.552-0.448,1-1,1
			l0,0c-0.553,0-1-0.448-1-1v-3C9.076,3.052,9.523,2.604,10.076,2.604z"/>
		<path id="rect2901" fill="#FCE94F" stroke="#886F00" d="M14.076,2.604L14.076,2.604c0.552,0,1,0.448,1,1v3c0,0.552-0.448,1-1,1
			l0,0c-0.553,0-1-0.448-1-1v-3C13.076,3.052,13.523,2.604,14.076,2.604z"/>
		<path id="rect2903" fill="#FCE94F" stroke="#886F00" d="M18.076,2.604L18.076,2.604c0.552,0,1,0.448,1,1v3c0,0.552-0.448,1-1,1
			l0,0c-0.553,0-1-0.448-1-1v-3C17.076,3.052,17.523,2.604,18.076,2.604z"/>
		<path id="rect2905" fill="#FCE94F" stroke="#886F00" d="M22.076,2.604L22.076,2.604c0.552,0,1,0.448,1,1v3c0,0.552-0.448,1-1,1
			l0,0c-0.553,0-1-0.448-1-1v-3C21.076,3.052,21.523,2.604,22.076,2.604z"/>
		<path id="rect2907" fill="#FCE94F" stroke="#886F00" d="M26.075,2.604L26.075,2.604c0.553,0,1,0.448,1,1v3c0,0.552-0.447,1-1,1
			l0,0c-0.553,0-1-0.448-1-1v-3C25.075,3.052,25.522,2.604,26.075,2.604z"/>
		<path id="rect2909" fill="#FCE94F" stroke="#886F00" d="M30.075,2.604L30.075,2.604c0.553,0,1,0.448,1,1v3c0,0.552-0.447,1-1,1
			l0,0c-0.553,0-1-0.448-1-1v-3C29.075,3.052,29.522,2.604,30.075,2.604z"/>
		<path id="rect2911" fill="#FCE94F" stroke="#886F00" d="M34.075,2.604L34.075,2.604c0.553,0,1,0.448,1,1v3c0,0.552-0.447,1-1,1
			l0,0c-0.553,0-1-0.448-1-1v-3C33.075,3.052,33.522,2.604,34.075,2.604z"/>
		<path id="rect2913" fill="#FCE94F" stroke="#886F00" d="M38.075,2.604L38.075,2.604c0.553,0,1,0.448,1,1v3c0,0.552-0.447,1-1,1
			l0,0c-0.553,0-1-0.448-1-1v-3C37.075,3.052,37.522,2.604,38.075,2.604z"/>
	</g>
	<g id="g2941">
		<rect id="rect2927" x="9.576" y="12.104" opacity="0.2807" enable-background="new    " width="28.999" height="1"/>
		<rect id="rect2929" x="9.576" y="15.086" opacity="0.2807" enable-background="new    " width="28.999" height="1"/>
		<rect id="rect2931" x="9.576" y="18.108" opacity="0.2807" enable-background="new    " width="13" height="1"/>
		<rect id="rect2933" x="9.576" y="23.09" opacity="0.2807" enable-background="new    " width="28.999" height="1"/>
		<rect id="rect2935" x="9.576" y="26.111" opacity="0.2807" enable-background="new    " width="28.999" height="1"/>
		<rect id="rect2937" x="9.576" y="29.135" opacity="0.2807" enable-background="new    " width="28.999" height="1"/>
		<rect id="rect2939" x="9.576" y="32.156" opacity="0.2807" enable-background="new    " width="8" height="1"/>
	</g>
	<path id="path2960" fill="#CB9022" stroke="#5C410C" d="M17.917,32.604l5.625-5.625l20.094-9.75c3.25-1.25,5.188,3.375,2.312,5
		l-20.031,9.375L17.917,32.604z"/>
	
		<linearGradient id="path2964_1_" gradientUnits="userSpaceOnUse" x1="47.8721" y1="30.834" x2="49.9542" y2="25.9596" gradientTransform="matrix(1 0 0 -1 -5.6694 49.0001)">
		<stop  offset="0" style="stop-color:#FFD1D1"/>
		<stop  offset="0.5" style="stop-color:#FF1D1D"/>
		<stop  offset="1" style="stop-color:#6F0000"/>
	</linearGradient>
	<path id="path2964" fill="url(#path2964_1_)" d="M38.905,20.104c0,0,1.438,0.094,2,1.344c0.58,1.288,0,2.656,0,2.656l5.031-2.469
		c0,0,1.453-0.881,0.656-2.844c-0.783-1.936-2.688-1.156-2.688-1.156L38.905,20.104z"/>
	
		<linearGradient id="path2962_1_" gradientUnits="userSpaceOnUse" x1="46.3633" y1="28.9571" x2="48.0508" y2="26.1446" gradientTransform="matrix(1 0 0 -1 -5.6694 49.0001)">
		<stop  offset="0" style="stop-color:#C1C1C1"/>
		<stop  offset="1" style="stop-color:#ACACAC"/>
	</linearGradient>
	<path id="path2962" fill="url(#path2962_1_)" d="M38.905,20.104c0,0,1.438,0.094,2,1.344c0.58,1.288,0,2.656,0,2.656l2-1
		c0,0,0.828-1.319,0.219-2.688c-0.625-1.406-2.219-1.312-2.219-1.312L38.905,20.104z"/>
	
		<radialGradient id="path2982_1_" cx="-155.9638" cy="209.7784" r="3.2409" gradientTransform="matrix(2.9236 0 0 -2.0297 479.9288 454.1113)" gradientUnits="userSpaceOnUse">
		<stop  offset="0" style="stop-color:#E7E2B8"/>
		<stop  offset="1" style="stop-color:#E7E2B8;stop-opacity:0"/>
	</radialGradient>
	<path id="path2982" fill="url(#path2982_1_)" d="M19.344,31.885l4.5-4.5c1.499,0.812,2.28,2.156,1.874,3.719L19.344,31.885z"/>
	
		<linearGradient id="path2992_1_" gradientUnits="userSpaceOnUse" x1="25.9922" y1="17.6709" x2="25.7881" y2="18.0147" gradientTransform="matrix(1 0 0 -1 -5.8257 49.1251)">
		<stop  offset="0" style="stop-color:#000000"/>
		<stop  offset="1" style="stop-color:#C9C9C9"/>
	</linearGradient>
	<path id="path2992" fill="url(#path2992_1_)" d="M20.688,30.479l-1.625,1.594l2.344-0.312
		C21.625,31.041,21.219,30.697,20.688,30.479z"/>
	<path id="path3002" fill="#FFFFFF" fill-opacity="0.3636" d="M23.844,27.354l1.562,1.25l15.389-7.318
		c-0.445-0.856-1.242-1.084-1.904-1.162L23.844,27.354z"/>
	<path id="path3004" fill-opacity="0.3636" d="M25.718,31.166l0.188-0.75l15.232-7.129c0,0-0.111,0.613-0.217,0.749L25.718,31.166z"
		/>
</g>
</svg>
