<?xml version="1.0" encoding="utf-8"?>
<!-- Generator: Adobe Illustrator 16.0.0, SVG Export Plug-In . SVG Version: 6.00 Build 0)  -->
<!DOCTYPE svg PUBLIC "-//W3C//DTD SVG 1.1//EN" "http://www.w3.org/Graphics/SVG/1.1/DTD/svg11.dtd">
<svg version="1.1"
	 id="Layer_1" xmlns:dc="http://purl.org/dc/elements/1.1/" xmlns:cc="http://creativecommons.org/ns#" xmlns:rdf="http://www.w3.org/1999/02/22-rdf-syntax-ns#"
	 xmlns="http://www.w3.org/2000/svg" xmlns:xlink="http://www.w3.org/1999/xlink" x="0px" y="0px" width="24px" height="24px"
	 viewBox="0 0 24 24" enable-background="new 0 0 24 24" xml:space="preserve">
<g transform="translate(0 -1028.4)">
	<g>
		<g>
			<path fill="#27AE60" d="M12,1031.4l-5,0.8v11.5l5-0.8V1031.4z"/>
			<path fill="#3498DB" d="M7,1045.7l-5,1.3v3.5l5,0.9V1045.7z"/>
			<path fill="#2ECC71" d="M2,1031.4v13l5-1.3v-10.9L2,1031.4z"/>
			<path fill="#2980B9" d="M12,1043.9l-5,2.6v4.9l5-0.9V1043.9z"/>
			<path fill="#F39C12" d="M12,1040.8l-5,2.3v3.399l5.023-2L12,1040.8z"/>
			<path fill="#F39C12" d="M8.95,1031.9l2.503,9.2l0.547-0.2v-9.5L8.95,1031.9z"/>
			<path fill="#2ECC71" d="M12.078,1031.4l2.422,10.8H17v-10L12.078,1031.4z"/>
			<path fill="#F1C40F" d="M12,1031.4v10.3l2.5-0.3l-2.422-10H12z"/>
			<path fill="#F1C40F" d="M17.025,1040.3L12,1041v4.2l5-0.5L17.025,1040.3z"/>
			<path fill="#27AE60" d="M17,1032.2v8.2l5-1.4v-7.6L17,1032.2z"/>
			<path fill="#2980B9" d="M22,1041.4l-5,2.4v7.6l5-0.9V1041.4z"/>
			<path fill="#3498DB" d="M17,1043.8l-4.997,0.699l-0.003,6l5,0.9V1043.8z"/>
			<path fill="#F1C40F" d="M7,1043.1l-5,0.8v3.3l5-0.7V1043.1z"/>
			<path fill="#F39C12" d="M22,1038l-5,2.4v3.4l5-1.602V1038z"/>
		</g>
		<g>
			<path fill="#C0392B" d="M8.402,1034.8c0.391-0.4,0.586-0.9,0.586-1.4c0-0.6-0.195-1.1-0.586-1.5c-0.391-0.3-0.862-0.5-1.414-0.5
				c-0.552,0-1.023,0.2-1.414,0.5c-0.391,0.4-0.586,0.9-0.586,1.5c0,0.5,0.195,1,0.586,1.4c0.391,0.4,0.862,0.6,1.414,0.6
				C7.54,1035.4,8.012,1035.2,8.402,1034.8 M10.988,1033.4c0,0.5-0.086,1-0.258,1.4l-2.843,6c-0.083,0.199-0.208,0.3-0.375,0.398
				c-0.162,0.102-0.336,0.2-0.523,0.2s-0.365-0.101-0.531-0.2c-0.162-0.1-0.281-0.199-0.359-0.398l-2.852-6
				c-0.172-0.4-0.258-0.9-0.258-1.4c0-1.1,0.391-2.1,1.172-2.9c0.781-0.7,1.724-1.1,2.828-1.1s2.047,0.4,2.828,1.1
				C10.598,1031.3,10.988,1032.3,10.988,1033.4"/>
		</g>
	</g>
</g>
</svg>
