<?xml version="1.0" encoding="utf-8"?>
<!-- Generator: Adobe Illustrator 16.0.0, SVG Export Plug-In . SVG Version: 6.00 Build 0)  -->
<!DOCTYPE svg PUBLIC "-//W3C//DTD SVG 1.1//EN" "http://www.w3.org/Graphics/SVG/1.1/DTD/svg11.dtd">
<svg version="1.1"
	 id="Layer_1" xmlns:cc="http://creativecommons.org/ns#" xmlns:dc="http://purl.org/dc/elements/1.1/" xmlns:rdf="http://www.w3.org/1999/02/22-rdf-syntax-ns#"
	 xmlns="http://www.w3.org/2000/svg" xmlns:xlink="http://www.w3.org/1999/xlink" x="0px" y="0px" width="24px" height="24px"
	 viewBox="-0.125 2 24 24" enable-background="new -0.125 2 24 24" xml:space="preserve">
<g transform="translate(0 -1028.4)">
	<g>
		<g>
			<path fill="#27AE60" d="M12,1032.9l-5,0.8v11.5l5-0.8V1032.9z"/>
			<path fill="#3498DB" d="M7,1047.2l-5,1.3v3.5l5,0.9V1047.2z"/>
			<path fill="#2ECC71" d="M2,1032.9v13l5-1.3v-10.9L2,1032.9z"/>
			<path fill="#2980B9" d="M12,1045.4l-5,2.6v4.9l5-0.9V1045.4z"/>
			<path fill="#F39C12" d="M12,1042.3l-5,2.3V1048l5.023-2L12,1042.3z"/>
			<path fill="#F39C12" d="M8.95,1033.4l2.503,9.2l0.547-0.2v-9.5L8.95,1033.4z"/>
			<path fill="#2ECC71" d="M12.078,1032.9l2.422,10.8H17v-10L12.078,1032.9z"/>
			<path fill="#F1C40F" d="M12,1032.9v10.3l2.5-0.3l-2.422-10H12z"/>
			<path fill="#F1C40F" d="M17.025,1041.8L12,1042.5v4.2l5-0.5L17.025,1041.8z"/>
			<path fill="#27AE60" d="M17,1033.7v8.2l5-1.4v-7.6L17,1033.7z"/>
			<path fill="#2980B9" d="M22,1042.9l-5,2.4v7.6l5-0.9V1042.9z"/>
			<path fill="#3498DB" d="M17,1045.3L12.003,1046L12,1052l5,0.9V1045.3z"/>
			<path fill="#F1C40F" d="M7,1044.6l-5,0.8v3.3l5-0.7V1044.6z"/>
			<path fill="#F39C12" d="M22,1039.5l-5,2.4v3.4l5-1.601V1039.5z"/>
		</g>
		<g>
			<path fill="#C0392B" d="M8.402,1036.3c0.391-0.4,0.586-0.9,0.586-1.4c0-0.6-0.195-1.1-0.586-1.5c-0.391-0.3-0.862-0.5-1.414-0.5
				s-1.023,0.2-1.414,0.5c-0.391,0.4-0.586,0.9-0.586,1.5c0,0.5,0.195,1,0.586,1.4s0.862,0.6,1.414,0.6S8.012,1036.7,8.402,1036.3
				 M10.988,1034.9c0,0.5-0.086,1-0.258,1.4l-2.843,6c-0.083,0.199-0.208,0.3-0.375,0.399c-0.162,0.101-0.336,0.2-0.523,0.2
				s-0.365-0.1-0.531-0.2c-0.162-0.1-0.281-0.2-0.359-0.399l-2.852-6c-0.172-0.4-0.258-0.9-0.258-1.4c0-1.1,0.391-2.1,1.172-2.9
				c0.781-0.7,1.724-1.1,2.828-1.1s2.047,0.4,2.828,1.1C10.598,1032.8,10.988,1033.8,10.988,1034.9"/>
		</g>
	</g>
</g>
</svg>
