<?xml version="1.0" encoding="utf-8"?>
<!-- Generator: Adobe Illustrator 16.0.0, SVG Export Plug-In . SVG Version: 6.00 Build 0)  -->
<!DOCTYPE svg PUBLIC "-//W3C//DTD SVG 1.1//EN" "http://www.w3.org/Graphics/SVG/1.1/DTD/svg11.dtd">
<svg version="1.1" id="svg2" xmlns:svg="http://www.w3.org/2000/svg"
	 xmlns="http://www.w3.org/2000/svg" xmlns:xlink="http://www.w3.org/1999/xlink" x="0px" y="0px" width="590px" height="590px"
	 viewBox="11 101 590 590" enable-background="new 11 101 590 590" xml:space="preserve">
<g id="g12" transform="matrix(1.25,0,0,-1.25,0,47.5)">
	<g id="g14">
		<g>
			<g id="g16">
				<g id="g22" transform="translate(12,1)">
					<path id="path24" fill="#292F33" d="M99.634-511.716c0,0-53.95,0-53.95,51.537v360.758c0,0,0,51.537,53.95,51.537h188.825
						c0,0,53.951,0,53.951-51.537v-360.758c0,0,0-51.537-53.951-51.537H99.634z"/>
				</g>
				<path id="path26" fill="#55ACEE" d="M84.659-446.295h242.775v334.989H84.659V-446.295z"/>
			</g>
		</g>
	</g>
</g>
<g id="gHzf7p.tif">
	<g>
		<path fill-rule="evenodd" clip-rule="evenodd" d="M357.735,657.438c-22.29-4.783-36.437-20.225-48.881-37.689
			c-16.482-23.13-28.323-48.812-40.435-74.349c-9.837-20.739-19.936-41.355-30.112-61.932c-3.212-6.493-7.896-12.358-10.434-19.068
			c-6.44-17.029-0.138-34.647,14.751-43.654c15.174-9.181,32.974-6.612,45.618,6.508c7.433,7.713,14.951,15.342,22.44,23.001
			c0.276,0.284,0.634,0.49,1.611,1.229c0-1.997,0-3.482,0-4.967c0-48.011-0.047-96.02,0.025-144.028
			c0.026-17.283,12.059-31.7,29.193-35.39c16.599-3.575,33.969,4.872,40.716,20.387c1.879,4.32,2.912,9.351,2.953,14.068
			c0.23,26.286,0.142,15.793,0.095,42.082c-0.004,1.529,0.023,38.988,0.023,41.05c2.81-2.307,4.801-3.775,7.401-5.226
			c11.438-6.38,27.367-3.04,37.446,8.006c3.316,3.632,5.816,8.007,8.86,12.284c9.61-5.561,20.188-7.258,31.213-3.485
			c10.846,3.713,18.389,11.161,22.663,21.201c5.911-1.59,11.515-3.852,17.302-4.515c21.104-2.42,39.738,14.604,39.745,35.832
			c0.01,31.864-0.335,63.731,0.092,95.589c0.477,35.63-14.111,63.992-40.25,87.177c-12.152,10.78-25.972,18.951-40.577,25.889
			C432.042,657.438,394.89,657.438,357.735,657.438z M367.167,378.348c0-25.292,0.03-50.583-0.015-75.875
			c-0.02-11.662-10.878-20.127-22.215-17.436c-9.423,2.237-14.483,9.141-14.486,19.962c-0.018,54.441-0.009,108.882-0.003,163.323
			c0,1.141-0.002,2.293,0.147,3.42c0.759,5.685-0.733,9.243-4.767,11.218c-4.291,2.099-8.059,0.958-12.14-3.277
			c-13.083-13.575-26.199-27.118-39.391-40.587c-5.979-6.104-14.244-7.134-21.589-2.988c-7.316,4.13-10.836,11.314-8.167,19.603
			c1.841,5.713,5.539,10.811,8.24,16.267c10.12,20.444,20.398,40.814,30.19,61.415c11.642,24.49,22.976,49.13,38.075,71.768
			c6.676,10.01,13.978,19.53,23.739,26.824c5.472,4.087,11.416,7.021,18.465,7.021c32.865-0.003,65.729,0.024,98.594-0.062
			c2.055-0.006,4.442-0.367,6.104-1.444c10.386-6.739,21.373-12.833,30.728-20.821c20.555-17.553,32.676-39.975,33.011-67.495
			c0.405-33.431,0.12-66.871,0.082-100.308c-0.012-9.508-7.27-17.128-16.758-17.815c-11.473-0.831-19.594,6.904-19.734,19.03
			c-0.164,14.142-0.109,28.287-0.239,42.431c-0.059,6.384-5.133,10.409-11.137,9.032c-4.508-1.035-6.973-4.625-6.979-10.397
			c-0.025-20.005,0.206-40.013-0.192-60.01c-0.08-3.98-1.718-8.467-4.019-11.752c-4.378-6.255-12.864-8.24-20.023-5.81
			c-7.839,2.661-12.155,8.646-12.271,17.618c-0.184,14.142,0.004,28.292-0.377,42.427c-0.071,2.678-1.351,6.335-3.337,7.687
			c-2.312,1.575-6.253,2.041-9.055,1.316c-4.091-1.059-5.623-4.856-5.618-9.121c0.025-20.433,0.07-40.867-0.014-61.3
			c-0.048-11.674-10.925-20.07-22.302-17.401c-9.22,2.163-14.081,8.452-14.186,18.688c-0.142,13.999-0.207,28-0.179,42.002
			c0.009,4.169-1.584,7.216-5.322,8.971c-6.363,2.989-12.823-1.688-12.84-9.391C367.135,429.503,367.167,403.925,367.167,378.348z"
			/>
		<path fill-rule="evenodd" clip-rule="evenodd" fill="#EEEEEE" d="M367.167,378.348c0,25.577-0.032,51.155,0.021,76.731
			c0.017,7.702,6.477,12.38,12.84,9.391c3.738-1.755,5.331-4.802,5.322-8.971c-0.028-14.002,0.037-28.003,0.179-42.002
			c0.104-10.235,4.966-16.524,14.186-18.688c11.377-2.668,22.254,5.728,22.302,17.401c0.084,20.433,0.039,40.867,0.014,61.3
			c-0.005,4.265,1.527,8.062,5.618,9.121c2.802,0.725,6.742,0.259,9.055-1.316c1.986-1.352,3.266-5.009,3.337-7.687
			c0.381-14.135,0.193-28.285,0.377-42.427c0.116-8.973,4.433-14.957,12.271-17.618c7.159-2.431,15.646-0.445,20.023,5.81
			c2.301,3.285,3.938,7.771,4.019,11.752c0.398,19.997,0.167,40.005,0.192,60.01c0.007,5.772,2.472,9.362,6.979,10.397
			c6.004,1.377,11.078-2.648,11.137-9.032c0.13-14.144,0.075-28.289,0.239-42.431c0.141-12.126,8.262-19.861,19.734-19.03
			c9.488,0.688,16.746,8.308,16.758,17.815c0.038,33.437,0.323,66.877-0.082,100.308c-0.335,27.521-12.456,49.942-33.011,67.495
			c-9.354,7.988-20.342,14.082-30.728,20.821c-1.661,1.077-4.049,1.438-6.104,1.444c-32.865,0.086-65.729,0.059-98.594,0.062
			c-7.049,0-12.993-2.935-18.465-7.021c-9.762-7.294-17.063-16.814-23.739-26.824c-15.1-22.638-26.434-47.277-38.075-71.768
			c-9.792-20.601-20.07-40.971-30.19-61.415c-2.701-5.456-6.399-10.554-8.24-16.267c-2.67-8.288,0.851-15.473,8.167-19.603
			c7.346-4.146,15.61-3.116,21.589,2.988c13.192,13.469,26.308,27.012,39.391,40.587c4.081,4.235,7.849,5.376,12.14,3.277
			c4.033-1.975,5.525-5.533,4.767-11.218c-0.149-1.127-0.147-2.279-0.147-3.42c-0.006-54.44-0.015-108.881,0.003-163.323
			c0.003-10.822,5.063-17.726,14.486-19.962c11.337-2.691,22.195,5.774,22.215,17.436
			C367.197,327.765,367.167,353.056,367.167,378.348z"/>
	</g>
</g>
</svg>
