<?xml version="1.0" encoding="utf-8"?>
<!-- Generator: Adobe Illustrator 16.0.0, SVG Export Plug-In . SVG Version: 6.00 Build 0)  -->
<!DOCTYPE svg PUBLIC "-//W3C//DTD SVG 1.1//EN" "http://www.w3.org/Graphics/SVG/1.1/DTD/svg11.dtd">
<svg version="1.1" id="svg4895" xmlns:svg="http://www.w3.org/2000/svg"
	 xmlns="http://www.w3.org/2000/svg" xmlns:xlink="http://www.w3.org/1999/xlink" x="0px" y="0px" width="136px" height="136px"
	 viewBox="-4 -4 136 136" enable-background="new -4 -4 136 136" xml:space="preserve">
<g id="configuration">
	<g id="spanner">
		<g>
			<path id="outline1" stroke="#333333" stroke-width="8" stroke-linejoin="round" d="M22.42,17.2l12.96,12.95l-2.5,8.78l-8.78,2.5
				L11.14,28.47l-5.86,5.86l14.89,21.46l17.56-3.34l61.629,65.62c9.44,9.51,22.17-4.75,13.341-12.87L46.85,42.92l4.01-17.76
				L28.72,10.89L22.42,17.2z M103.48,109.17c1.68-1.68,4.399-1.68,6.08,0c1.68,1.68,1.68,4.4,0,6.08c-1.681,1.67-4.4,1.67-6.08,0
				C101.8,113.57,101.8,110.85,103.48,109.17z"/>
		</g>
		<g>
			<path id="outline1_2_" fill="#888A85" d="M22.42,17.2l12.96,12.95l-2.5,8.78l-8.78,2.5L11.14,28.47l-5.86,5.86l14.89,21.46
				l17.56-3.34l61.629,65.62c9.44,9.51,22.17-4.75,13.341-12.87L46.85,42.92l4.01-17.76L28.72,10.89L22.42,17.2z M103.48,109.17
				c1.68-1.68,4.399-1.68,6.08,0c1.68,1.68,1.68,4.4,0,6.08c-1.681,1.67-4.4,1.67-6.08,0C101.8,113.57,101.8,110.85,103.48,109.17z"
				/>
		</g>
		<g>
			<defs>
				<path id="SVGID_1_" d="M22.42,17.2l12.96,12.95l-2.5,8.78l-8.78,2.5L11.14,28.47l-5.86,5.86l14.89,21.46l17.56-3.34
					l61.629,65.62c9.44,9.51,22.17-4.75,13.341-12.87L46.85,42.92l4.01-17.76L28.72,10.89L22.42,17.2z M103.48,109.17
					c1.68-1.68,4.399-1.68,6.08,0c1.68,1.68,1.68,4.4,0,6.08c-1.681,1.67-4.4,1.67-6.08,0C101.8,113.57,101.8,110.85,103.48,109.17z
					"/>
			</defs>
			<clipPath id="SVGID_2_">
				<use xlink:href="#SVGID_1_"  overflow="visible"/>
			</clipPath>
			<g clip-path="url(#SVGID_2_)">
				<path id="outline1_3_" fill="none" stroke="#FFFFFF" stroke-width="4" stroke-opacity="0.2" d="M22.42,17.2l12.96,12.95
					l-2.5,8.78l-8.78,2.5L11.14,28.47l-5.86,5.86l14.89,21.46l17.56-3.34l61.629,65.62c9.44,9.51,22.17-4.75,13.341-12.87
					L46.85,42.92l4.01-17.76L28.72,10.89L22.42,17.2z M103.48,109.17c1.68-1.68,4.399-1.68,6.08,0c1.68,1.68,1.68,4.4,0,6.08
					c-1.681,1.67-4.4,1.67-6.08,0C101.8,113.57,101.8,110.85,103.48,109.17z"/>
			</g>
		</g>
	</g>
	
		<linearGradient id="SVGID_3_" gradientUnits="userSpaceOnUse" x1="261.54" y1="-227.4424" x2="271.9601" y2="-247.9224" gradientTransform="matrix(1 0 0 -1 -196.3027 -160.2012)">
		<stop  offset="0" style="stop-color:#000000"/>
		<stop  offset="1" style="stop-color:#000000;stop-opacity:0"/>
	</linearGradient>
	<path opacity="0.25" fill="url(#SVGID_3_)" enable-background="new    " d="M70.738,65.52l4.632,4.28
		c0.38,4.32-0.729,5.62-7.83,11.64l-8.6-9.219L70.73,65.52l0,0H70.738z"/>
	<g id="hammer">
		<g>
			<path id="outline2" stroke="#333333" stroke-width="8" stroke-linejoin="round" d="M55.8,12l0.76,0.16
				c8.84-2.94,28.68,8.64,24.26,18.96c-1.12,1.62-0.93,4.5,0.42,6.31L56.43,62.25c-1.39-1.39-4.48-1.36-5.9,0L9.5,101.63
				c-3.74,3.591-0.8,6.64,0.78,8.25l7.36,7.36c1.61,1.6,5.86,3.76,8.88,0.56l38.72-40.81c1.35-1.42,1.359-4.471,0-5.87
				c0,0,0.01-0.021,0-0.021L90.15,46.2c2.629,2.37,5.113,2.575,7.47,1.93c4.55-1.245,7.087,3.207,9.81,6.46L106.2,55.8
				c-1.82,1.84-1.65,4.94,0.39,6.98c2.04,2.041,5.15,2.21,6.971,0.39l8.14-8.13c1.819-1.84,1.649-4.94-0.4-6.97
				c-1.84-1.85-4.51-2.09-6.37-0.77c-5.58-6.26-2.65-7.2-10.01-15.35L91.13,17.86C81.2,8.12,68.3,8.13,55.8,12z"/>
		</g>
		<path fill="#999999" d="M82.92,35.75L53.47,65.2l8.83,8.829L91.75,44.59L82.92,35.75z"/>
		<path fill="#888888" d="M55.8,12l0.76,0.16c8.84-2.94,28.68,8.64,24.26,18.96c-1.12,1.62-0.93,4.5,0.42,6.31l8.91,8.77
			c2.629,2.37,5.109,2.57,7.47,1.93c4.55-1.23,7.08,3.2,9.81,6.46L106.2,55.8c-1.82,1.84-1.65,4.94,0.39,6.98
			c2.04,2.041,5.15,2.21,6.971,0.39l8.14-8.13c1.819-1.84,1.649-4.94-0.4-6.97c-1.84-1.85-4.51-2.09-6.37-0.77
			c-5.58-6.26-2.65-7.2-10.01-15.35L91.13,17.86C81.2,8.12,68.3,8.13,55.8,12z"/>
		<path fill="#3465A4" d="M56.43,62.25c-1.39-1.39-4.48-1.36-5.9,0L9.5,101.63c-3.74,3.591-0.82,6.64,0.78,8.25l7.36,7.36
			c1.61,1.6,5.86,3.76,8.88,0.56l38.72-40.81c1.35-1.42,1.359-4.471,0-5.87c0,0,0.01-0.021,0-0.021L56.43,62.25z"/>
		
			<linearGradient id="SVGID_4_" gradientUnits="userSpaceOnUse" x1="3368.335" y1="-301.1509" x2="3245.1299" y2="-301.1509" gradientTransform="matrix(0.0998 0.0998 0.28 -0.28 -206.9792 -322.8989)">
			<stop  offset="0" style="stop-color:#000000"/>
			<stop  offset="1" style="stop-color:#000000;stop-opacity:0"/>
		</linearGradient>
		<path opacity="0.25" fill="url(#SVGID_4_)" enable-background="new    " d="M10.27,109.87l7.36,7.37c1.61,1.6,5.73,3.89,8.75,0.71
			l38.87-40.97c1.35-1.431,1.391-4.5,0-5.881l-8.83-8.84L10.27,109.87z"/>
		<g>
			<defs>
				<path id="SVGID_5_" d="M55.8,12l0.76,0.16c8.84-2.94,28.68,8.64,24.26,18.96c-1.12,1.62-0.93,4.5,0.42,6.31L56.43,62.25
					c-1.39-1.39-4.48-1.36-5.9,0L9.5,101.63c-3.74,3.591-0.8,6.64,0.78,8.25l7.36,7.36c1.61,1.6,5.86,3.76,8.88,0.56l38.72-40.81
					c1.35-1.42,1.359-4.471,0-5.87c0,0,0.01-0.021,0-0.021L90.15,46.2c2.629,2.37,5.113,2.575,7.47,1.93
					c4.55-1.245,7.087,3.207,9.81,6.46L106.2,55.8c-1.82,1.84-1.65,4.94,0.39,6.98c2.04,2.041,5.15,2.21,6.971,0.39l8.14-8.13
					c1.819-1.84,1.649-4.94-0.4-6.97c-1.84-1.85-4.51-2.09-6.37-0.77c-5.58-6.26-2.65-7.2-10.01-15.35L91.13,17.86
					C81.2,8.12,68.3,8.13,55.8,12z"/>
			</defs>
			<clipPath id="SVGID_6_">
				<use xlink:href="#SVGID_5_"  overflow="visible"/>
			</clipPath>
			<g clip-path="url(#SVGID_6_)">
				<path id="outline2_2_" fill="none" stroke="#FFFFFF" stroke-width="4" stroke-linejoin="round" stroke-opacity="0.2" d="
					M55.8,12l0.76,0.16c8.84-2.94,28.68,8.64,24.26,18.96c-1.12,1.62-0.93,4.5,0.42,6.31L56.43,62.25c-1.39-1.39-4.48-1.36-5.9,0
					L9.5,101.63c-3.74,3.591-0.8,6.64,0.78,8.25l7.36,7.36c1.61,1.6,5.86,3.76,8.88,0.56l38.72-40.81c1.35-1.42,1.359-4.471,0-5.87
					c0,0,0.01-0.021,0-0.021L90.15,46.2c2.629,2.37,5.113,2.575,7.47,1.93c4.55-1.245,7.087,3.207,9.81,6.46L106.2,55.8
					c-1.82,1.84-1.65,4.94,0.39,6.98c2.04,2.041,5.15,2.21,6.971,0.39l8.14-8.13c1.819-1.84,1.649-4.94-0.4-6.97
					c-1.84-1.85-4.51-2.09-6.37-0.77c-5.58-6.26-2.65-7.2-10.01-15.35L91.13,17.86C81.2,8.12,68.3,8.13,55.8,12z"/>
			</g>
		</g>
	</g>
</g>
</svg>
