<?xml version="1.0" encoding="utf-8"?>
<!-- Generator: Adobe Illustrator 16.0.0, SVG Export Plug-In . SVG Version: 6.00 Build 0)  -->
<!DOCTYPE svg PUBLIC "-//W3C//DTD SVG 1.1//EN" "http://www.w3.org/Graphics/SVG/1.1/DTD/svg11.dtd">
<svg version="1.1" id="Layer_1" xmlns="http://www.w3.org/2000/svg" xmlns:xlink="http://www.w3.org/1999/xlink" x="0px" y="0px"
	 width="54px" height="54px" viewBox="5 5 54 54" enable-background="new 5 5 54 54" xml:space="preserve">
<g id="Layer_1_1_">
	<g>
		<path fill="#485466" d="M39.5,15.875v25h-15v-25H39.5 M39.5,10.875h-15c-2.761,0-5,2.239-5,5v25c0,2.762,2.239,5,5,5h15
			c2.762,0,5-2.238,5-5v-25C44.5,13.114,42.262,10.875,39.5,10.875L39.5,10.875z"/>
	</g>
	<g>
		<g>
			<path fill="#C73C3C" d="M7,30.875v16.25c0,2.762,2.239,5,5,5h40c2.762,0,5-2.238,5-5v-16.25H7z"/>
		</g>
	</g>
	<g>
		<path fill="#F5C364" d="M37,29.625v3.75H27v-3.75H37 M37,24.625H27c-2.761,0-5,2.239-5,5v3.75c0,2.762,2.239,5,5,5h10
			c2.762,0,5-2.238,5-5v-3.75C42,26.864,39.762,24.625,37,24.625L37,24.625z"/>
	</g>
	<g opacity="0.2">
		<path fill="#231F20" d="M57,27.125c0-2.761-2.238-5-5-5H12c-2.761,0-5,2.239-5,5v6.25h50V27.125z"/>
	</g>
	<g>
		<path fill="#C73C3C" d="M57,24.625c0-2.761-2.238-5-5-5H12c-2.761,0-5,2.239-5,5v6.25h50V24.625z"/>
	</g>
</g>
</svg>
