<?xml version="1.0" encoding="utf-8"?>
<!-- Generator: Adobe Illustrator 16.0.0, SVG Export Plug-In . SVG Version: 6.00 Build 0)  -->
<!DOCTYPE svg PUBLIC "-//W3C//DTD SVG 1.1//EN" "http://www.w3.org/Graphics/SVG/1.1/DTD/svg11.dtd">
<svg version="1.1" id="Layer_1" xmlns="http://www.w3.org/2000/svg" xmlns:xlink="http://www.w3.org/1999/xlink" x="0px" y="0px"
	 width="128px" height="128px" viewBox="0 0 128 128" enable-background="new 0 0 128 128" xml:space="preserve">
<path fill="#44CC44" d="M128,110.219c0,9.82-7.689,17.781-17.172,17.781H17.172C7.689,128,0,120.039,0,110.219V17.782
	C0,7.962,7.689,0,17.172,0h93.656C120.311,0,128,7.962,128,17.782V110.219z"/>
<g>
	<path d="M71.143,71.143c-7.917,7.918-17.084,15.485-20.708,11.861c-5.189-5.188-8.388-9.707-19.825-0.515
		c-11.438,9.196-2.653,15.323,2.373,20.351c5.8,5.799,27.421,0.305,48.792-21.062c21.367-21.374,26.865-42.994,21.062-48.796
		c-5.026-5.027-11.153-13.809-20.346-2.37c-9.194,11.434-4.677,14.634,0.513,19.823C86.626,54.058,79.061,63.225,71.143,71.143z"/>
</g>
</svg>
