<?xml version="1.0" encoding="UTF-8" standalone="no"?>
<!-- Generator: Adobe Illustrator 16.0.0, SVG Export Plug-In . SVG Version: 6.00 Build 0)  -->

<svg
   version="1.1"
   id="Layer_1"
   x="0px"
   y="0px"
   width="128px"
   height="128px"
   viewBox="0 0 128 128"
   enable-background="new 0 0 128 128"
   xml:space="preserve"
   sodipodi:docname="Music.svg"
   inkscape:version="1.1.2 (0a00cf5339, 2022-02-04)"
   xmlns:inkscape="http://www.inkscape.org/namespaces/inkscape"
   xmlns:sodipodi="http://sodipodi.sourceforge.net/DTD/sodipodi-0.dtd"
   xmlns="http://www.w3.org/2000/svg"
   xmlns:svg="http://www.w3.org/2000/svg"><defs
   id="defs9" /><sodipodi:namedview
   id="namedview7"
   pagecolor="#ffffff"
   bordercolor="#666666"
   borderopacity="1.0"
   inkscape:pageshadow="2"
   inkscape:pageopacity="0.0"
   inkscape:pagecheckerboard="0"
   showgrid="false"
   inkscape:zoom="4.2578125"
   inkscape:cx="61.181651"
   inkscape:cy="93.827523"
   inkscape:window-width="1383"
   inkscape:window-height="560"
   inkscape:window-x="36"
   inkscape:window-y="127"
   inkscape:window-maximized="0"
   inkscape:current-layer="Layer_1" />
<path
   fill="#AA66FF"
   d="M128,111.583c0,9.067-7.233,16.417-16.158,16.417H16.158C7.234,128,0,120.65,0,111.583V16.417  C0,7.35,7.234,0,16.158,0h95.684C120.767,0,128,7.35,128,16.417V111.583z"
   id="path2" />
<path
   d="m 47.407942,37.00396 v 8.378206 8.754064 24.639657 C 45.170369,77.431586 42.549129,76.642773 39.733615,76.642773 31.599472,76.642773 25,83.115332 25,91.090346 c 0,7.989657 6.59752,14.461244 14.733615,14.461244 8.131213,0 14.726781,-6.472564 14.728733,-14.456363 v 0 -38.949578 L 91.943641,41.57185 v 24.729472 c -2.234644,-1.345277 -4.85686,-2.133114 -7.670422,-2.133114 -8.138047,0 -14.734591,6.469631 -14.734591,14.447573 0,7.986728 6.596544,14.460264 14.734591,14.460264 7.661636,0 13.958471,-5.754037 14.659421,-13.103272 H 99 V 39.581269 33.375227 22.449 Z"
   id="path4"
   style="stroke-width:0.976253" />
</svg>
