<?xml version="1.0" encoding="utf-8"?>
<!-- Generator: Adobe Illustrator 16.0.0, SVG Export Plug-In . SVG Version: 6.00 Build 0)  -->
<!DOCTYPE svg PUBLIC "-//W3C//DTD SVG 1.1//EN" "http://www.w3.org/Graphics/SVG/1.1/DTD/svg11.dtd">
<svg version="1.1" id="Layer_1" xmlns="http://www.w3.org/2000/svg" xmlns:xlink="http://www.w3.org/1999/xlink" x="0px" y="0px"
	 width="128px" height="128px" viewBox="0 0 128 128" enable-background="new 0 0 128 128" xml:space="preserve">
<path fill="#6699FF" d="M128,111.583c0,9.067-7.233,16.417-16.158,16.417H16.158C7.234,128,0,120.65,0,111.583V16.417
	C0,7.35,7.234,0,16.158,0h95.684C120.767,0,128,7.35,128,16.417V111.583z"/>
<path d="M47.051,36.347v8.582v8.967v25.239c-2.292-1.377-4.977-2.185-7.861-2.185c-8.332,0-15.092,6.63-15.092,14.799
	c0,8.184,6.758,14.813,15.092,14.813c8.329,0,15.085-6.63,15.087-14.808l0,0V51.857L92.67,41.026v25.331
	c-2.289-1.378-4.975-2.185-7.857-2.185c-8.336,0-15.093,6.627-15.093,14.799c0,8.181,6.757,14.812,15.093,14.812
	c7.848,0,14.298-5.894,15.016-13.422h0.069V38.987V32.63V21.438L47.051,36.347z"/>
</svg>
