<?xml version="1.0" encoding="utf-8"?>
<!-- Generator: Adobe Illustrator 16.0.0, SVG Export Plug-In . SVG Version: 6.00 Build 0)  -->
<!DOCTYPE svg PUBLIC "-//W3C//DTD SVG 1.1//EN" "http://www.w3.org/Graphics/SVG/1.1/DTD/svg11.dtd">
<svg version="1.1" id="Layer_1" xmlns="http://www.w3.org/2000/svg" xmlns:xlink="http://www.w3.org/1999/xlink" x="0px" y="0px"
	 width="128px" height="128px" viewBox="0 0 128 128" enable-background="new 0 0 128 128" xml:space="preserve">
<path fill="#EEDD00" d="M128,111.238c0,9.258-7.457,16.762-16.656,16.762H16.656C7.457,128,0,120.496,0,111.238V16.762
	C0,7.505,7.457,0,16.656,0h94.688C120.543,0,128,7.505,128,16.762V111.238z"/>
<g>
	<path d="M107.09,29.982l-7.377-7.366c-0.763-0.761-1.764-1.143-2.763-1.143s-2.001,0.379-2.761,1.142l-5.901,5.883l12.9,12.879
		l5.901-5.882C108.613,33.972,108.613,31.501,107.09,29.982z"/>
	<polygon points="49.984,66.731 62.887,79.612 98.428,44.137 85.524,31.256 	"/>
	<polygon points="47.199,69.486 44.445,85.11 60.102,82.366 	"/>
	<path d="M82.866,92.073H34.219V43.428h34.332l8.46-8.444H31.235c-3.004,0-5.461,2.457-5.461,5.461V95.06
		c0,3.004,2.458,5.461,5.461,5.461H85.85c3.003,0,5.46-2.457,5.46-5.461V56.012l-8.443,8.428V92.073z"/>
</g>
</svg>
