<?xml version="1.0" encoding="utf-8"?>
<!-- Generator: Adobe Illustrator 16.0.0, SVG Export Plug-In . SVG Version: 6.00 Build 0)  -->
<!DOCTYPE svg PUBLIC "-//W3C//DTD SVG 1.1//EN" "http://www.w3.org/Graphics/SVG/1.1/DTD/svg11.dtd">
<svg version="1.1" id="Layer_1" xmlns="http://www.w3.org/2000/svg" xmlns:xlink="http://www.w3.org/1999/xlink" x="0px" y="0px"
	 width="128px" height="128px" viewBox="0 0 128 128" enable-background="new 0 0 128 128" xml:space="preserve">
<path fill="#FF9933" d="M128,111.475c0,9.127-7.378,16.525-16.478,16.525H16.477C7.378,128,0,120.602,0,111.475V16.525
	C0,7.399,7.378,0,16.477,0h95.045C120.622,0,128,7.399,128,16.525V111.475z"/>
<path d="M29.266,66.193c8.676,0,16.834,3.39,22.965,9.556c6.141,6.164,9.523,14.377,9.523,23.119h13.371
	c0-25.391-20.574-46.048-45.859-46.048V66.193z M29.287,42.487c30.926,0,56.087,25.3,56.087,56.397h13.372
	c0-38.474-31.162-69.77-69.459-69.77V42.487z M47.778,89.543c0,5.114-4.148,9.262-9.261,9.262c-5.115,0-9.263-4.146-9.263-9.262
	c0-5.117,4.147-9.263,9.261-9.263S47.778,84.426,47.778,89.543z"/>
</svg>
