<?xml version="1.0" ?><svg clip-rule="evenodd" fill-rule="evenodd" image-rendering="optimizeQuality" shape-rendering="geometricPrecision" text-rendering="geometricPrecision" viewBox="0 0 500 500" xmlns="http://www.w3.org/2000/svg"><defs><linearGradient gradientUnits="userSpaceOnUse" id="a" x1="278.503" x2="278.503" y1="119.714" y2="327.232"><stop offset="0" stop-color="#FCFCFD"/><stop offset="1" stop-color="#fff"/></linearGradient><linearGradient gradientUnits="userSpaceOnUse" id="b" x1="222.641" x2="222.641" y1="211.167" y2="417.369"><stop offset="0" stop-color="#FCFCFD"/><stop offset="1" stop-color="#fff"/></linearGradient></defs><path d="M87 67h383v290c0 5-4 10-10 10h-363c-6 0-10-5-10-10v-290z" fill="#434242" stroke="#434242" stroke-width="10"/><path d="M112 37h333c14 0 25 11 25 25v15h-383v-15c0-14 11-25 25-25z" fill="#279DFF" stroke="#434242" stroke-width="10"/><path d="M97 87h363v268c0 3-2 5-5 5h-353c-3 0-5-2-5-5v-268z" fill="url(#a)"/><path d="M30 159h384v290c0 5-5 10-10 10h-364c-5 0-10-5-10-10v-290z" fill="#434242" stroke="#434242" stroke-width="10"/><path d="M55 129h334c13 0 25 11 25 25v15h-384v-15c0-14 11-25 25-25z" fill="#279DFF" stroke="#434242" stroke-width="10"/><path d="M40 179h364l1 266c0 3-2 5-5 5h-353c-3 0-5-2-5-5l-2-266z" fill="url(#b)"/></svg>