<?xml version="1.0" ?><svg clip-rule="evenodd" fill-rule="evenodd" image-rendering="optimizeQuality" shape-rendering="geometricPrecision" text-rendering="geometricPrecision" viewBox="0 0 500 500" xmlns="http://www.w3.org/2000/svg"><defs><linearGradient gradientUnits="userSpaceOnUse" id="a" x1="249.658" x2="249.658" y1="191.499" y2="403.501"><stop offset="0" stop-color="#E5E5E6"/><stop offset="1" stop-color="#CDCDCE"/></linearGradient><linearGradient gradientUnits="userSpaceOnUse" id="b" x1="249.998" x2="249.998" y1="204" y2="53.348"><stop offset="0" stop-color="#E5E5E6"/><stop offset="1" stop-color="#FCFCFD"/></linearGradient></defs><g><path d="M175 165h35c6 0 10 4 10 10v10c0 6 4 10 10 10h40c6 0 10-4 10-10v-10c0-6 4-10 10-10h35c6 0 9 5 10 10v25c0 75 95 90 95 140v80c0 6-4 10-10 10h-340c-6 0-11-5-10-10v-80c0-40 95-65 95-140v-25c1-5 4-10 10-10z" fill="url(#a)" stroke="#434242" stroke-width="10"/><path d="M146 163c-2 6-2 21-2 26-20 15-100 15-120 0-10-13 5-40 12-55 8-15 13-21 28-31 71-50 301-50 372 0 15 10 20 16 28 31 7 15 22 42 12 55-20 15-100 15-120 0 0-5 0-20-2-26-10-43-198-43-208 0z" fill="url(#b)" stroke="#434242" stroke-width="10"/><path d="M470 188c-37 8-73 8-108 0-1 0-3 0-4 1s-2 3-2 4c0 13 1 25 9 37 1 1 2 2 3 2 33 6 65 6 96 0 1 0 2-1 3-2 8-13 9-25 9-37 0-1-1-3-2-4s-3-1-4-1zm-332 0c-37 8-73 8-108 0-1 0-3 0-4 1s-2 3-2 4c0 13 1 25 9 37 1 1 2 2 3 2 33 6 65 6 96 0 1 0 2-1 3-2 8-13 9-25 9-37 0-1-1-3-2-4s-3-1-4-1z" fill="#008BFF" stroke="#434242" stroke-width="10"/><path d="M250 233c48 0 87 39 87 87s-39 88-87 88-87-40-87-88 39-87 87-87zm0 54c18 0 33 15 33 33s-15 33-33 33-33-15-33-33 15-33 33-33z" fill="#434242"/><path d="M189 285c3-5 9-6 14-4 5 3 6 9 4 14-3 5-9 6-14 4-5-3-6-9-4-14zm-9 35c0-6 4-10 10-10s10 4 10 10-4 10-10 10-10-4-10-10zm9 35c-2-5-1-11 4-14 5-2 11-1 14 4 2 5 1 11-4 14-5 2-11 1-14-4zm61 35c-6 0-10-4-10-10s4-10 10-10 10 4 10 10-4 10-10 10zm-35-9c-5-3-6-9-4-14 3-5 9-6 14-4 5 3 6 9 4 14-3 5-9 6-14 4zm70 0c-5 2-11 1-14-4-2-5-1-11 4-14 5-2 11-1 14 4 2 5 1 11-4 14zm26-26c-3 5-9 6-14 4-5-3-6-9-4-14 3-5 9-6 14-4 5 3 6 9 4 14zm9-35c0 6-4 10-10 10s-10-4-10-10 4-10 10-10 10 4 10 10zm-9-35c2 5 1 11-4 14-5 2-11 1-14-4-2-5-1-11 4-14 5-2 11-1 14 4zm-26-26c5 3 6 9 4 14-3 5-9 6-14 4-5-3-6-9-4-14 3-5 9-6 14-4zm-35-9c6 0 10 4 10 10s-4 10-10 10-10-4-10-10 4-10 10-10zm-35 9c5-2 11-1 14 4 2 5 1 11-4 14-5 2-11 1-14-4-2-5-1-11 4-14zm35 16c25 0 45 20 45 45s-20 45-45 45-45-20-45-45 20-45 45-45zm0-30c41 0 75 34 75 75s-34 75-75 75-75-34-75-75 34-75 75-75z" fill="#FEFEFE"/></g></svg>