<?xml version="1.0" ?><svg clip-rule="evenodd" fill-rule="evenodd" image-rendering="optimizeQuality" shape-rendering="geometricPrecision" text-rendering="geometricPrecision" viewBox="0 0 500 500" xmlns="http://www.w3.org/2000/svg"><defs><linearGradient gradientUnits="userSpaceOnUse" id="a" x1="459.998" x2="40" y1="249.999" y2="249.999"><stop offset="0" stop-color="#008BFF"/><stop offset="1" stop-color="#0af"/></linearGradient></defs><path d="M56 40h155c9 0 16 7 16 16v155c0 9-7 16-16 16h-155c-9 0-16-7-16-16v-155c0-9 7-16 16-16zm0 233h155c9 0 16 7 16 16v155c0 9-7 16-16 16h-155c-9 0-16-7-16-16v-155c0-9 7-16 16-16zm233-233h155c9 0 16 7 16 16v155c0 9-7 16-16 16h-155c-9 0-16-7-16-16v-155c0-9 7-16 16-16zm0 233h155c9 0 16 7 16 16v155c0 9-7 16-16 16h-155c-9 0-16-7-16-16v-155c0-9 7-16 16-16z" fill="url(#a)" stroke="#434242" stroke-width="10"/></svg>