<?xml version="1.0" ?><svg clip-rule="evenodd" fill-rule="evenodd" image-rendering="optimizeQuality" shape-rendering="geometricPrecision" text-rendering="geometricPrecision" viewBox="0 0 500 500" xmlns="http://www.w3.org/2000/svg"><defs><linearGradient gradientUnits="userSpaceOnUse" id="a" x1="249.999" x2="249.999" y1="144.802" y2="365.2"><stop offset="0" stop-color="#FCFCFD"/><stop offset="1" stop-color="#fff"/></linearGradient></defs><g><path d="M40 90h420v310c0 6-5 10-10 10h-400c-5 0-10-4-10-10v-310z" fill="#434242" stroke="#434242" stroke-width="10"/><path d="M65 60h370c14 0 25 11 25 25v15h-420v-15c0-14 11-25 25-25z" fill="#279DFF" stroke="#434242" stroke-width="10"/><path d="M50 110h400v285c0 3-2 5-5 5h-390c-3 0-5-2-5-5v-285z" fill="url(#a)"/><path d="M180 353l-94-40v-23l94-41v27l-65 25 65 26v26zm20 19l34-142h19l-34 142h-19zm73-18v-27l65-26-65-25v-27l94 41v23l-94 41z" fill="#434242"/></g></svg>