<?xml version="1.0" encoding="utf-8"?>
<!-- Generator: Adobe Illustrator 16.0.0, SVG Export Plug-In . SVG Version: 6.00 Build 0)  -->
<!DOCTYPE svg PUBLIC "-//W3C//DTD SVG 1.1//EN" "http://www.w3.org/Graphics/SVG/1.1/DTD/svg11.dtd">
<svg version="1.1" id="Layer_1" xmlns="http://www.w3.org/2000/svg" xmlns:xlink="http://www.w3.org/1999/xlink" x="0px" y="0px"
	 width="60px" height="60px" viewBox="0 0 60 60" enable-background="new 0 0 60 60" xml:space="preserve">
<path fill="#222222" d="M54,0H6C2.7,0,0,2.7,0,6v48c0,3.3,2.7,6,6,6h48c3.3,0,6-2.7,6-6V6C60,2.7,57.3,0,54,0z M30.8,56.5l-8.2-12.1
	L20,47.2v9.3h-5.2V30h0.1h5.2v12.2h0.1c0.7-1,1.4-2,2.1-2.9l7.5-9.3h6.5l-9.9,11.3L37,56.5H30.8z M56.4,34H45v7.3h10.6v4H45v11.2
	h-5.3V30h0.1h16.6V34z"/>
</svg>
