<?xml version="1.0" encoding="utf-8"?>
<!-- Generator: Adobe Illustrator 16.0.0, SVG Export Plug-In . SVG Version: 6.00 Build 0)  -->
<!DOCTYPE svg PUBLIC "-//W3C//DTD SVG 1.1//EN" "http://www.w3.org/Graphics/SVG/1.1/DTD/svg11.dtd">
<svg version="1.1" id="Layer_1" xmlns="http://www.w3.org/2000/svg" xmlns:xlink="http://www.w3.org/1999/xlink" x="0px" y="0px"
	 width="128px" height="128px" viewBox="0 0 128 128" enable-background="new 0 0 128 128" xml:space="preserve">
<path fill="#6699FF" d="M128,111.583c0,9.067-7.233,16.417-16.158,16.417H16.158C7.234,128,0,120.65,0,111.583V16.417
	C0,7.35,7.234,0,16.158,0h95.684C120.767,0,128,7.35,128,16.417V111.583z"/>
<path fill="#FFFFFF" d="M47.051,35.819v8.745v9.139v25.721c-2.292-1.404-4.977-2.227-7.861-2.227
	c-8.332,0-15.092,6.757-15.092,15.082c0,8.339,6.758,15.096,15.092,15.096c8.329,0,15.085-6.757,15.087-15.09l0,0v-40.66
	L92.67,40.588v25.814c-2.289-1.404-4.975-2.227-7.857-2.227c-8.336,0-15.093,6.754-15.093,15.082
	c0,8.336,6.757,15.094,15.093,15.094c7.848,0,14.298-6.006,15.016-13.678h0.069V38.51v-6.479V20.625L47.051,35.819z"/>
</svg>
