<?xml version="1.0" encoding="utf-8"?>
<!-- Generator: Adobe Illustrator 16.0.0, SVG Export Plug-In . SVG Version: 6.00 Build 0)  -->
<!DOCTYPE svg PUBLIC "-//W3C//DTD SVG 1.1//EN" "http://www.w3.org/Graphics/SVG/1.1/DTD/svg11.dtd">
<svg version="1.1" id="Layer_1" xmlns="http://www.w3.org/2000/svg" xmlns:xlink="http://www.w3.org/1999/xlink" x="0px" y="0px"
	 width="128px" height="128px" viewBox="0 0 128 128" enable-background="new 0 0 128 128" xml:space="preserve">
<g>
	<path fill="#FF6666" d="M128,111.583c0,9.067-7.233,16.417-16.158,16.417H16.158C7.234,128,0,120.65,0,111.583V16.417
		C0,7.35,7.234,0,16.158,0h95.684C120.767,0,128,7.35,128,16.417V111.583z"/>
	<g>
		<g>
			<g>
				<path fill="#FFFFFF" d="M104.484,37.974H81.35V32.19c0-3.192-2.59-5.784-5.781-5.784H52.431c-3.192,0-5.783,2.592-5.783,5.784
					v5.783H23.515c-3.193,0-5.784,2.592-5.784,5.783v11.567h92.539V43.757C110.27,40.565,107.678,37.974,104.484,37.974z
					 M75.568,37.974H52.432V32.19h23.136V37.974z"/>
				<rect x="52.432" y="61.107" fill="#FFFFFF" width="23.136" height="5.785"/>
				<path fill="#FFFFFF" d="M81.35,66.893c0,3.19-2.59,5.783-5.781,5.783H52.431c-3.192,0-5.783-2.593-5.783-5.783v-5.785H17.731
					v34.703c0,3.191,2.591,5.783,5.784,5.783h80.97c3.193,0,5.785-2.592,5.785-5.783V61.107H81.35V66.893z"/>
			</g>
		</g>
	</g>
</g>
</svg>
